{
 "cells": [
  {
   "cell_type": "code",
   "execution_count": 6,
   "id": "31377397",
   "metadata": {},
   "outputs": [],
   "source": [
    "import mido as m\n",
    "from mido import MidiFile\n",
    "\n",
    "mid = MidiFile(\"samples\\\\my_heart_will_go_on1.mid\")"
   ]
  },
  {
   "cell_type": "code",
   "execution_count": 7,
   "id": "cf5dd596",
   "metadata": {},
   "outputs": [
    {
     "name": "stdout",
     "output_type": "stream",
     "text": [
      "Track 0: My Heart Will Go On\n",
      "MetaMessage('track_name', name='My Heart Will Go On', time=0)\n",
      "MetaMessage('track_name', name='FROM THE MOTION PICTURE \"TITANIC!!!\"', time=0)\n",
      "MetaMessage('text', text='Multiple\\n', time=0)\n",
      "MetaMessage('text', text='NOT FOR COMMERCIAL USE! NOT FOR SALE! FOR LISTENING ONLY!!!\\n', time=0)\n",
      "MetaMessage('text', text='Celine Dion\\n', time=0)\n",
      "MetaMessage('text', text='Midi Version Seq. By Tom Wallace\\n', time=0)\n",
      "MetaMessage('text', text='twalla@primenet.com\\n', time=0)\n",
      "MetaMessage('text', text='Check out the game by CyberFlix \"Titanic, Adventure Out of Time...\"\\n', time=0)\n",
      "MetaMessage('text', text='Excellent Game!!!\\n', time=0)\n",
      "MetaMessage('text', text='-----------------------The Piano Part Named \"Celine Dion\" and a section of the soft strings were done by another individual. Althought his/her part and mine sounded very close to being exact, i used the other person\\'s part and would like to give he/she c\\n', time=0)\n",
      "MetaMessage('text', text='Thank You for your Part WHOEVER DID IT. It was Execellent -Higher than an \"8\" (This is how it was rated on MidiFarm.com) Has a couple of errors i didn\\'t fix, but for my first song it sure as hell sounded good!!!\\n', time=0)\n",
      "MetaMessage('time_signature', numerator=4, denominator=4, clocks_per_click=24, notated_32nd_notes_per_beat=8, time=0)\n",
      "MetaMessage('key_signature', key='C', time=0)\n",
      "MetaMessage('set_tempo', tempo=666667, time=0)\n",
      "MetaMessage('set_tempo', tempo=666667, time=121)\n",
      "MetaMessage('set_tempo', tempo=500000, time=4059)\n",
      "MetaMessage('end_of_track', time=0)\n",
      "Track 1: Synth Voice\n",
      "MetaMessage('midi_port', port=0, time=0)\n",
      "MetaMessage('track_name', name='Synth Voice', time=0)\n",
      "control_change channel=4 control=0 value=0 time=0\n",
      "program_change channel=4 program=54 time=0\n",
      "control_change channel=4 control=7 value=80 time=0\n",
      "control_change channel=4 control=10 value=63 time=0\n",
      "note_on channel=4 note=68 velocity=49 time=57082\n",
      "note_on channel=4 note=68 velocity=0 time=146\n",
      "note_on channel=4 note=68 velocity=77 time=24\n",
      "note_on channel=4 note=70 velocity=68 time=281\n",
      "note_on channel=4 note=68 velocity=0 time=2\n",
      "note_on channel=4 note=68 velocity=63 time=453\n",
      "note_on channel=4 note=70 velocity=0 time=19\n",
      "note_on channel=4 note=68 velocity=0 time=35\n",
      "note_on channel=4 note=68 velocity=57 time=19\n",
      "note_on channel=4 note=68 velocity=0 time=917\n",
      "note_on channel=4 note=68 velocity=81 time=162\n",
      "note_on channel=4 note=68 velocity=0 time=501\n",
      "note_on channel=4 note=70 velocity=83 time=8\n",
      "note_on channel=4 note=68 velocity=43 time=466\n",
      "note_on channel=4 note=70 velocity=0 time=7\n",
      "note_on channel=4 note=68 velocity=0 time=57\n",
      "note_on channel=4 note=68 velocity=53 time=13\n",
      "note_on channel=4 note=68 velocity=0 time=1190\n",
      "note_on channel=4 note=70 velocity=24 time=16\n",
      "note_on channel=4 note=70 velocity=0 time=113\n",
      "note_on channel=4 note=70 velocity=41 time=23\n",
      "note_on channel=4 note=70 velocity=0 time=359\n",
      "note_on channel=4 note=68 velocity=45 time=6\n",
      "note_on channel=4 note=67 velocity=61 time=473\n",
      "note_on channel=4 note=68 velocity=0 time=1\n",
      "note_on channel=4 note=68 velocity=74 time=507\n",
      "note_on channel=4 note=67 velocity=0 time=4\n",
      "note_on channel=4 note=68 velocity=0 time=498\n",
      "note_on channel=4 note=68 velocity=83 time=50\n",
      "pitchwheel channel=4 pitch=273 time=246\n",
      "pitchwheel channel=4 pitch=273 time=0\n",
      "pitchwheel channel=4 pitch=273 time=0\n",
      "pitchwheel channel=4 pitch=546 time=3\n",
      "pitchwheel channel=4 pitch=546 time=0\n",
      "pitchwheel channel=4 pitch=546 time=1\n",
      "pitchwheel channel=4 pitch=1229 time=1\n",
      "pitchwheel channel=4 pitch=1229 time=1\n",
      "pitchwheel channel=4 pitch=1229 time=0\n",
      "pitchwheel channel=4 pitch=1911 time=1\n",
      "pitchwheel channel=4 pitch=1911 time=0\n",
      "pitchwheel channel=4 pitch=1911 time=1\n",
      "pitchwheel channel=4 pitch=2503 time=1\n",
      "pitchwheel channel=4 pitch=2503 time=0\n",
      "pitchwheel channel=4 pitch=2503 time=1\n",
      "pitchwheel channel=4 pitch=3277 time=3\n",
      "pitchwheel channel=4 pitch=3277 time=0\n",
      "pitchwheel channel=4 pitch=3277 time=0\n",
      "pitchwheel channel=4 pitch=3959 time=2\n",
      "pitchwheel channel=4 pitch=3959 time=0\n",
      "pitchwheel channel=4 pitch=3959 time=0\n",
      "pitchwheel channel=4 pitch=4642 time=2\n",
      "pitchwheel channel=4 pitch=4642 time=0\n",
      "pitchwheel channel=4 pitch=4642 time=1\n",
      "pitchwheel channel=4 pitch=5348 time=1\n",
      "pitchwheel channel=4 pitch=5348 time=0\n",
      "pitchwheel channel=4 pitch=5348 time=0\n",
      "pitchwheel channel=4 pitch=6144 time=2\n",
      "pitchwheel channel=4 pitch=6144 time=0\n",
      "pitchwheel channel=4 pitch=6144 time=1\n",
      "pitchwheel channel=4 pitch=6827 time=2\n",
      "pitchwheel channel=4 pitch=6827 time=1\n",
      "pitchwheel channel=4 pitch=6827 time=0\n",
      "pitchwheel channel=4 pitch=7510 time=2\n",
      "pitchwheel channel=4 pitch=7510 time=0\n",
      "pitchwheel channel=4 pitch=7510 time=0\n",
      "pitchwheel channel=4 pitch=7964 time=2\n",
      "pitchwheel channel=4 pitch=7964 time=0\n",
      "pitchwheel channel=4 pitch=7964 time=0\n",
      "pitchwheel channel=4 pitch=8191 time=2\n",
      "pitchwheel channel=4 pitch=8191 time=0\n",
      "pitchwheel channel=4 pitch=8191 time=0\n",
      "pitchwheel channel=4 pitch=6007 time=22\n",
      "pitchwheel channel=4 pitch=6007 time=0\n",
      "pitchwheel channel=4 pitch=6007 time=1\n",
      "pitchwheel channel=4 pitch=5734 time=32\n",
      "pitchwheel channel=4 pitch=5734 time=0\n",
      "pitchwheel channel=4 pitch=5734 time=0\n",
      "pitchwheel channel=4 pitch=6007 time=41\n",
      "pitchwheel channel=4 pitch=6007 time=0\n",
      "pitchwheel channel=4 pitch=6007 time=0\n",
      "pitchwheel channel=4 pitch=6417 time=7\n",
      "pitchwheel channel=4 pitch=6417 time=0\n",
      "pitchwheel channel=4 pitch=6417 time=0\n",
      "pitchwheel channel=4 pitch=6827 time=6\n",
      "pitchwheel channel=4 pitch=6827 time=1\n",
      "pitchwheel channel=4 pitch=6827 time=0\n",
      "pitchwheel channel=4 pitch=7236 time=9\n",
      "pitchwheel channel=4 pitch=7236 time=1\n",
      "pitchwheel channel=4 pitch=7236 time=0\n",
      "pitchwheel channel=4 pitch=7623 time=7\n",
      "pitchwheel channel=4 pitch=7623 time=1\n",
      "pitchwheel channel=4 pitch=7623 time=0\n",
      "pitchwheel channel=4 pitch=7236 time=100\n",
      "pitchwheel channel=4 pitch=7236 time=0\n",
      "pitchwheel channel=4 pitch=7236 time=0\n",
      "pitchwheel channel=4 pitch=6827 time=9\n",
      "pitchwheel channel=4 pitch=6827 time=0\n",
      "pitchwheel channel=4 pitch=6827 time=1\n",
      "pitchwheel channel=4 pitch=6280 time=4\n",
      "pitchwheel channel=4 pitch=6280 time=0\n",
      "pitchwheel channel=4 pitch=6280 time=1\n",
      "pitchwheel channel=4 pitch=5871 time=1\n",
      "pitchwheel channel=4 pitch=5871 time=1\n",
      "pitchwheel channel=4 pitch=5871 time=0\n",
      "pitchwheel channel=4 pitch=5348 time=2\n",
      "pitchwheel channel=4 pitch=5348 time=0\n",
      "pitchwheel channel=4 pitch=5348 time=0\n",
      "pitchwheel channel=4 pitch=4232 time=2\n",
      "pitchwheel channel=4 pitch=4232 time=0\n",
      "pitchwheel channel=4 pitch=4232 time=0\n",
      "pitchwheel channel=4 pitch=1502 time=3\n",
      "pitchwheel channel=4 pitch=1502 time=0\n",
      "pitchwheel channel=4 pitch=1502 time=0\n",
      "pitchwheel channel=4 pitch=-119 time=2\n",
      "pitchwheel channel=4 pitch=-119 time=0\n",
      "pitchwheel channel=4 pitch=-119 time=0\n",
      "pitchwheel channel=4 pitch=273 time=2\n",
      "pitchwheel channel=4 pitch=273 time=0\n",
      "pitchwheel channel=4 pitch=273 time=1\n",
      "pitchwheel channel=4 pitch=0 time=1\n",
      "pitchwheel channel=4 pitch=0 time=1\n",
      "pitchwheel channel=4 pitch=0 time=0\n",
      "pitchwheel channel=4 pitch=-119 time=521\n",
      "pitchwheel channel=4 pitch=-119 time=0\n",
      "pitchwheel channel=4 pitch=-119 time=1\n",
      "pitchwheel channel=4 pitch=-597 time=7\n",
      "pitchwheel channel=4 pitch=-597 time=0\n",
      "pitchwheel channel=4 pitch=-597 time=0\n",
      "pitchwheel channel=4 pitch=-835 time=3\n",
      "pitchwheel channel=4 pitch=-835 time=1\n",
      "pitchwheel channel=4 pitch=-835 time=0\n",
      "pitchwheel channel=4 pitch=-1194 time=5\n",
      "pitchwheel channel=4 pitch=-1194 time=0\n",
      "pitchwheel channel=4 pitch=-1194 time=0\n",
      "pitchwheel channel=4 pitch=-1706 time=5\n",
      "pitchwheel channel=4 pitch=-1706 time=0\n",
      "pitchwheel channel=4 pitch=-1706 time=1\n",
      "pitchwheel channel=4 pitch=-2147 time=3\n",
      "pitchwheel channel=4 pitch=-2147 time=0\n",
      "pitchwheel channel=4 pitch=-2147 time=0\n",
      "pitchwheel channel=4 pitch=-2446 time=5\n",
      "pitchwheel channel=4 pitch=-2446 time=0\n",
      "pitchwheel channel=4 pitch=-2446 time=1\n",
      "pitchwheel channel=4 pitch=-2645 time=4\n",
      "pitchwheel channel=4 pitch=-2645 time=0\n",
      "pitchwheel channel=4 pitch=-2645 time=1\n",
      "pitchwheel channel=4 pitch=-2883 time=3\n",
      "pitchwheel channel=4 pitch=-2883 time=1\n",
      "pitchwheel channel=4 pitch=-2883 time=0\n",
      "pitchwheel channel=4 pitch=-3242 time=23\n",
      "pitchwheel channel=4 pitch=-3242 time=1\n",
      "pitchwheel channel=4 pitch=-3242 time=0\n",
      "pitchwheel channel=4 pitch=-2883 time=420\n",
      "pitchwheel channel=4 pitch=-2883 time=1\n",
      "pitchwheel channel=4 pitch=-2883 time=0\n",
      "pitchwheel channel=4 pitch=-2645 time=14\n",
      "pitchwheel channel=4 pitch=-2645 time=0\n",
      "pitchwheel channel=4 pitch=-2645 time=1\n",
      "pitchwheel channel=4 pitch=-2446 time=9\n",
      "pitchwheel channel=4 pitch=-2446 time=0\n",
      "pitchwheel channel=4 pitch=-2446 time=1\n",
      "pitchwheel channel=4 pitch=-2147 time=5\n",
      "pitchwheel channel=4 pitch=-2147 time=1\n",
      "pitchwheel channel=4 pitch=-2147 time=0\n",
      "pitchwheel channel=4 pitch=-1706 time=4\n",
      "pitchwheel channel=4 pitch=-1706 time=1\n",
      "pitchwheel channel=4 pitch=-1706 time=0\n",
      "pitchwheel channel=4 pitch=-1364 time=6\n",
      "pitchwheel channel=4 pitch=-1364 time=1\n",
      "pitchwheel channel=4 pitch=-1364 time=0\n",
      "pitchwheel channel=4 pitch=-955 time=5\n",
      "pitchwheel channel=4 pitch=-955 time=0\n",
      "pitchwheel channel=4 pitch=-955 time=0\n",
      "pitchwheel channel=4 pitch=-597 time=7\n",
      "pitchwheel channel=4 pitch=-597 time=0\n",
      "pitchwheel channel=4 pitch=-597 time=0\n",
      "pitchwheel channel=4 pitch=-119 time=6\n",
      "pitchwheel channel=4 pitch=-119 time=1\n",
      "pitchwheel channel=4 pitch=-119 time=0\n",
      "pitchwheel channel=4 pitch=0 time=7\n",
      "pitchwheel channel=4 pitch=0 time=0\n",
      "pitchwheel channel=4 pitch=0 time=0\n",
      "note_on channel=4 note=68 velocity=0 time=533\n",
      "note_on channel=4 note=68 velocity=49 time=31\n",
      "note_on channel=4 note=70 velocity=29 time=1561\n",
      "note_on channel=4 note=68 velocity=0 time=19\n",
      "note_on channel=4 note=68 velocity=39 time=730\n",
      "note_on channel=4 note=70 velocity=0 time=15\n",
      "note_on channel=4 note=68 velocity=0 time=2078\n",
      "MetaMessage('end_of_track', time=0)\n",
      "Track 2: Acoustic Bass\n",
      "MetaMessage('midi_port', port=0, time=0)\n",
      "MetaMessage('track_name', name='Acoustic Bass', time=0)\n",
      "control_change channel=5 control=0 value=0 time=0\n",
      "program_change channel=5 program=32 time=0\n",
      "control_change channel=5 control=7 value=100 time=0\n",
      "control_change channel=5 control=10 value=45 time=0\n",
      "control_change channel=5 control=91 value=5 time=1824\n",
      "control_change channel=5 control=91 value=10 time=35\n",
      "control_change channel=5 control=91 value=13 time=6\n",
      "control_change channel=5 control=91 value=18 time=5\n",
      "control_change channel=5 control=91 value=21 time=10\n",
      "control_change channel=5 control=91 value=32 time=20\n",
      "control_change channel=5 control=91 value=36 time=0\n",
      "control_change channel=5 control=91 value=37 time=5\n",
      "control_change channel=5 control=91 value=39 time=5\n",
      "control_change channel=5 control=91 value=40 time=5\n",
      "control_change channel=5 control=91 value=43 time=6\n",
      "control_change channel=5 control=91 value=47 time=5\n",
      "control_change channel=5 control=91 value=50 time=5\n",
      "control_change channel=5 control=91 value=52 time=10\n",
      "control_change channel=5 control=91 value=54 time=5\n",
      "control_change channel=5 control=91 value=56 time=5\n",
      "control_change channel=5 control=91 value=59 time=15\n",
      "control_change channel=5 control=91 value=61 time=5\n",
      "control_change channel=5 control=91 value=63 time=10\n",
      "control_change channel=5 control=91 value=65 time=18\n",
      "control_change channel=5 control=91 value=67 time=5\n",
      "control_change channel=5 control=91 value=70 time=10\n",
      "control_change channel=5 control=91 value=72 time=5\n",
      "control_change channel=5 control=91 value=74 time=5\n",
      "control_change channel=5 control=91 value=75 time=10\n",
      "control_change channel=5 control=91 value=77 time=13\n",
      "control_change channel=5 control=91 value=79 time=8\n",
      "control_change channel=5 control=91 value=80 time=19\n",
      "control_change channel=5 control=91 value=83 time=20\n",
      "control_change channel=5 control=91 value=86 time=0\n",
      "control_change channel=5 control=93 value=0 time=382\n",
      "control_change channel=5 control=93 value=3 time=48\n",
      "control_change channel=5 control=93 value=6 time=15\n",
      "control_change channel=5 control=93 value=8 time=0\n",
      "control_change channel=5 control=93 value=9 time=13\n",
      "control_change channel=5 control=93 value=12 time=32\n",
      "control_change channel=5 control=93 value=14 time=7\n",
      "control_change channel=5 control=93 value=27 time=18\n",
      "control_change channel=5 control=93 value=31 time=30\n",
      "control_change channel=5 control=93 value=33 time=3\n",
      "control_change channel=5 control=93 value=35 time=5\n",
      "control_change channel=5 control=93 value=37 time=2\n",
      "control_change channel=5 control=93 value=38 time=37\n",
      "control_change channel=5 control=93 value=41 time=0\n",
      "control_change channel=5 control=93 value=42 time=6\n",
      "control_change channel=5 control=93 value=43 time=8\n",
      "control_change channel=5 control=7 value=101 time=3833\n",
      "control_change channel=5 control=7 value=99 time=88\n",
      "control_change channel=5 control=7 value=97 time=105\n",
      "control_change channel=5 control=7 value=96 time=5\n",
      "control_change channel=5 control=7 value=95 time=10\n",
      "control_change channel=5 control=7 value=94 time=20\n",
      "control_change channel=5 control=7 value=92 time=30\n",
      "control_change channel=5 control=7 value=90 time=20\n",
      "control_change channel=5 control=7 value=89 time=15\n",
      "control_change channel=5 control=7 value=88 time=5\n",
      "control_change channel=5 control=7 value=87 time=5\n",
      "control_change channel=5 control=7 value=85 time=4\n",
      "control_change channel=5 control=7 value=84 time=11\n",
      "control_change channel=5 control=7 value=83 time=54\n",
      "control_change channel=5 control=7 value=82 time=20\n",
      "control_change channel=5 control=7 value=78 time=36\n",
      "control_change channel=5 control=7 value=77 time=10\n",
      "control_change channel=5 control=7 value=76 time=10\n",
      "control_change channel=5 control=7 value=73 time=89\n",
      "control_change channel=5 control=7 value=71 time=35\n",
      "control_change channel=5 control=7 value=70 time=5\n",
      "control_change channel=5 control=7 value=69 time=5\n",
      "note_on channel=5 note=35 velocity=55 time=74\n",
      "control_change channel=5 control=7 value=68 time=12\n",
      "control_change channel=5 control=7 value=67 time=15\n",
      "control_change channel=5 control=7 value=66 time=201\n",
      "control_change channel=5 control=7 value=68 time=319\n",
      "control_change channel=5 control=7 value=70 time=0\n",
      "control_change channel=5 control=7 value=71 time=48\n",
      "note_on channel=5 note=33 velocity=68 time=5\n",
      "control_change channel=5 control=7 value=72 time=5\n",
      "note_on channel=5 note=35 velocity=0 time=6\n",
      "control_change channel=5 control=7 value=73 time=0\n",
      "control_change channel=5 control=7 value=77 time=18\n",
      "control_change channel=5 control=7 value=78 time=245\n",
      "control_change channel=5 control=7 value=79 time=15\n",
      "control_change channel=5 control=7 value=80 time=15\n",
      "control_change channel=5 control=7 value=82 time=78\n",
      "control_change channel=5 control=7 value=84 time=5\n",
      "control_change channel=5 control=7 value=85 time=45\n",
      "control_change channel=5 control=7 value=86 time=5\n",
      "control_change channel=5 control=7 value=89 time=135\n",
      "control_change channel=5 control=7 value=90 time=15\n",
      "control_change channel=5 control=7 value=89 time=442\n",
      "control_change channel=5 control=7 value=85 time=15\n",
      "control_change channel=5 control=7 value=84 time=6\n",
      "control_change channel=5 control=7 value=83 time=5\n",
      "control_change channel=5 control=7 value=82 time=5\n",
      "control_change channel=5 control=7 value=81 time=5\n",
      "control_change channel=5 control=7 value=78 time=7\n",
      "control_change channel=5 control=7 value=75 time=5\n",
      "control_change channel=5 control=7 value=74 time=15\n",
      "control_change channel=5 control=7 value=71 time=10\n",
      "control_change channel=5 control=7 value=68 time=5\n",
      "control_change channel=5 control=7 value=64 time=7\n",
      "control_change channel=5 control=7 value=63 time=5\n",
      "control_change channel=5 control=7 value=57 time=35\n",
      "control_change channel=5 control=7 value=54 time=3\n",
      "control_change channel=5 control=7 value=50 time=4\n",
      "control_change channel=5 control=7 value=64 time=23\n",
      "control_change channel=5 control=7 value=75 time=4\n",
      "note_on channel=5 note=40 velocity=112 time=0\n",
      "note_on channel=5 note=33 velocity=0 time=4\n",
      "control_change channel=5 control=7 value=85 time=0\n",
      "control_change channel=5 control=7 value=89 time=5\n",
      "control_change channel=5 control=7 value=90 time=28\n",
      "control_change channel=5 control=7 value=89 time=432\n",
      "control_change channel=5 control=7 value=71 time=5\n",
      "control_change channel=5 control=7 value=68 time=2\n",
      "control_change channel=5 control=7 value=67 time=2\n",
      "control_change channel=5 control=7 value=66 time=5\n",
      "control_change channel=5 control=7 value=63 time=10\n",
      "control_change channel=5 control=7 value=49 time=5\n",
      "control_change channel=5 control=7 value=48 time=5\n",
      "control_change channel=5 control=7 value=63 time=41\n",
      "control_change channel=5 control=7 value=77 time=6\n",
      "note_on channel=5 note=35 velocity=124 time=2\n",
      "control_change channel=5 control=7 value=80 time=5\n",
      "note_on channel=5 note=40 velocity=0 time=4\n",
      "control_change channel=5 control=7 value=84 time=0\n",
      "control_change channel=5 control=7 value=85 time=5\n",
      "control_change channel=5 control=7 value=84 time=181\n",
      "control_change channel=5 control=7 value=83 time=5\n",
      "control_change channel=5 control=7 value=82 time=15\n",
      "control_change channel=5 control=7 value=78 time=205\n",
      "control_change channel=5 control=7 value=73 time=25\n",
      "control_change channel=5 control=7 value=71 time=0\n",
      "control_change channel=5 control=7 value=70 time=9\n",
      "control_change channel=5 control=7 value=66 time=5\n",
      "control_change channel=5 control=7 value=63 time=5\n",
      "control_change channel=5 control=7 value=59 time=5\n",
      "control_change channel=5 control=7 value=56 time=15\n",
      "control_change channel=5 control=7 value=52 time=5\n",
      "control_change channel=5 control=7 value=49 time=5\n",
      "control_change channel=5 control=7 value=45 time=5\n",
      "control_change channel=5 control=7 value=43 time=15\n",
      "control_change channel=5 control=7 value=47 time=38\n",
      "control_change channel=5 control=7 value=54 time=15\n",
      "note_on channel=5 note=33 velocity=124 time=0\n",
      "note_on channel=5 note=35 velocity=0 time=11\n",
      "control_change channel=5 control=7 value=59 time=5\n",
      "control_change channel=5 control=7 value=60 time=5\n",
      "control_change channel=5 control=7 value=61 time=0\n",
      "control_change channel=5 control=7 value=63 time=527\n",
      "note_on channel=5 note=33 velocity=0 time=21\n",
      "note_on channel=5 note=40 velocity=112 time=0\n",
      "control_change channel=5 control=7 value=62 time=244\n",
      "control_change channel=5 control=7 value=61 time=5\n",
      "control_change channel=5 control=7 value=59 time=5\n",
      "note_on channel=5 note=35 velocity=108 time=38\n",
      "note_on channel=5 note=40 velocity=0 time=11\n",
      "control_change channel=5 control=7 value=56 time=8\n",
      "control_change channel=5 control=7 value=52 time=209\n",
      "control_change channel=5 control=7 value=49 time=6\n",
      "control_change channel=5 control=7 value=48 time=7\n",
      "control_change channel=5 control=7 value=47 time=5\n",
      "note_on channel=5 note=28 velocity=124 time=18\n",
      "note_on channel=5 note=35 velocity=0 time=1\n",
      "control_change channel=5 control=7 value=49 time=561\n",
      "control_change channel=5 control=7 value=50 time=8\n",
      "control_change channel=5 control=7 value=51 time=5\n",
      "note_on channel=5 note=35 velocity=112 time=3\n",
      "note_on channel=5 note=28 velocity=0 time=5\n",
      "note_on channel=5 note=33 velocity=81 time=573\n",
      "note_on channel=5 note=35 velocity=0 time=8\n",
      "note_on channel=5 note=33 velocity=0 time=809\n",
      "control_change channel=5 control=7 value=50 time=44\n",
      "control_change channel=5 control=7 value=49 time=22\n",
      "control_change channel=5 control=7 value=48 time=18\n",
      "control_change channel=5 control=7 value=45 time=10\n",
      "control_change channel=5 control=7 value=43 time=5\n",
      "control_change channel=5 control=7 value=44 time=170\n",
      "control_change channel=5 control=7 value=45 time=10\n",
      "control_change channel=5 control=7 value=46 time=5\n",
      "note_on channel=5 note=37 velocity=112 time=23\n",
      "control_change channel=5 control=7 value=47 time=69\n",
      "control_change channel=5 control=7 value=49 time=10\n",
      "control_change channel=5 control=7 value=50 time=143\n",
      "control_change channel=5 control=7 value=54 time=10\n",
      "control_change channel=5 control=7 value=56 time=87\n",
      "control_change channel=5 control=7 value=57 time=35\n",
      "control_change channel=5 control=7 value=58 time=5\n",
      "control_change channel=5 control=7 value=57 time=86\n",
      "control_change channel=5 control=7 value=54 time=10\n",
      "control_change channel=5 control=7 value=52 time=11\n",
      "control_change channel=5 control=7 value=50 time=5\n",
      "control_change channel=5 control=7 value=49 time=5\n",
      "control_change channel=5 control=7 value=48 time=5\n",
      "control_change channel=5 control=7 value=47 time=5\n",
      "control_change channel=5 control=7 value=45 time=5\n",
      "note_on channel=5 note=35 velocity=92 time=46\n",
      "note_on channel=5 note=37 velocity=0 time=6\n",
      "control_change channel=5 control=7 value=46 time=6\n",
      "control_change channel=5 control=7 value=49 time=0\n",
      "control_change channel=5 control=7 value=50 time=86\n",
      "control_change channel=5 control=7 value=54 time=5\n",
      "control_change channel=5 control=7 value=56 time=174\n",
      "control_change channel=5 control=7 value=57 time=19\n",
      "control_change channel=5 control=7 value=58 time=0\n",
      "control_change channel=5 control=7 value=59 time=82\n",
      "control_change channel=5 control=7 value=57 time=62\n",
      "control_change channel=5 control=7 value=54 time=5\n",
      "control_change channel=5 control=7 value=52 time=10\n",
      "control_change channel=5 control=7 value=50 time=5\n",
      "control_change channel=5 control=7 value=49 time=4\n",
      "control_change channel=5 control=7 value=48 time=10\n",
      "control_change channel=5 control=7 value=45 time=10\n",
      "control_change channel=5 control=7 value=43 time=5\n",
      "control_change channel=5 control=7 value=40 time=5\n",
      "control_change channel=5 control=7 value=42 time=39\n",
      "control_change channel=5 control=7 value=45 time=15\n",
      "note_on channel=5 note=35 velocity=0 time=10\n",
      "note_on channel=5 note=33 velocity=112 time=0\n",
      "control_change channel=5 control=7 value=49 time=5\n",
      "control_change channel=5 control=7 value=52 time=16\n",
      "control_change channel=5 control=7 value=53 time=0\n",
      "control_change channel=5 control=7 value=54 time=24\n",
      "control_change channel=5 control=7 value=56 time=17\n",
      "control_change channel=5 control=7 value=57 time=98\n",
      "control_change channel=5 control=7 value=58 time=43\n",
      "control_change channel=5 control=7 value=59 time=5\n",
      "control_change channel=5 control=7 value=63 time=38\n",
      "control_change channel=5 control=7 value=64 time=18\n",
      "control_change channel=5 control=7 value=65 time=5\n",
      "control_change channel=5 control=7 value=66 time=16\n",
      "control_change channel=5 control=7 value=68 time=5\n",
      "control_change channel=5 control=7 value=67 time=124\n",
      "control_change channel=5 control=7 value=66 time=5\n",
      "control_change channel=5 control=7 value=63 time=10\n",
      "control_change channel=5 control=7 value=62 time=5\n",
      "control_change channel=5 control=7 value=61 time=10\n",
      "control_change channel=5 control=7 value=59 time=5\n",
      "control_change channel=5 control=7 value=57 time=5\n",
      "control_change channel=5 control=7 value=56 time=20\n",
      "control_change channel=5 control=7 value=55 time=5\n",
      "control_change channel=5 control=7 value=54 time=8\n",
      "control_change channel=5 control=7 value=52 time=5\n",
      "control_change channel=5 control=7 value=49 time=5\n",
      "control_change channel=5 control=7 value=48 time=15\n",
      "control_change channel=5 control=7 value=49 time=57\n",
      "note_on channel=5 note=35 velocity=119 time=3\n",
      "control_change channel=5 control=7 value=50 time=9\n",
      "note_on channel=5 note=33 velocity=0 time=1\n",
      "control_change channel=5 control=7 value=51 time=3\n",
      "control_change channel=5 control=7 value=52 time=5\n",
      "control_change channel=5 control=7 value=53 time=5\n",
      "control_change channel=5 control=7 value=54 time=5\n",
      "control_change channel=5 control=7 value=56 time=10\n",
      "control_change channel=5 control=7 value=57 time=5\n",
      "control_change channel=5 control=7 value=58 time=5\n",
      "control_change channel=5 control=7 value=61 time=10\n",
      "control_change channel=5 control=7 value=63 time=32\n",
      "control_change channel=5 control=7 value=64 time=0\n",
      "control_change channel=5 control=7 value=68 time=36\n",
      "control_change channel=5 control=7 value=70 time=57\n",
      "control_change channel=5 control=7 value=71 time=5\n",
      "control_change channel=5 control=7 value=70 time=230\n",
      "control_change channel=5 control=7 value=66 time=2\n",
      "control_change channel=5 control=7 value=64 time=10\n",
      "control_change channel=5 control=7 value=61 time=3\n",
      "control_change channel=5 control=7 value=57 time=5\n",
      "control_change channel=5 control=7 value=47 time=5\n",
      "control_change channel=5 control=7 value=45 time=10\n",
      "control_change channel=5 control=7 value=40 time=30\n",
      "note_on channel=5 note=35 velocity=0 time=4\n",
      "note_on channel=5 note=35 velocity=66 time=9\n",
      "control_change channel=5 control=7 value=42 time=42\n",
      "control_change channel=5 control=7 value=45 time=5\n",
      "control_change channel=5 control=7 value=49 time=5\n",
      "control_change channel=5 control=7 value=50 time=16\n",
      "note_on channel=5 note=37 velocity=119 time=0\n",
      "note_on channel=5 note=35 velocity=0 time=3\n",
      "control_change channel=5 control=7 value=51 time=5\n",
      "control_change channel=5 control=7 value=54 time=48\n",
      "control_change channel=5 control=7 value=56 time=5\n",
      "control_change channel=5 control=7 value=57 time=30\n",
      "control_change channel=5 control=7 value=58 time=18\n",
      "control_change channel=5 control=7 value=59 time=8\n",
      "control_change channel=5 control=7 value=60 time=54\n",
      "control_change channel=5 control=7 value=61 time=15\n",
      "control_change channel=5 control=7 value=63 time=42\n",
      "control_change channel=5 control=7 value=64 time=50\n",
      "control_change channel=5 control=7 value=65 time=163\n",
      "control_change channel=5 control=7 value=64 time=51\n",
      "control_change channel=5 control=7 value=63 time=8\n",
      "control_change channel=5 control=7 value=62 time=6\n",
      "control_change channel=5 control=7 value=61 time=8\n",
      "control_change channel=5 control=7 value=59 time=5\n",
      "control_change channel=5 control=7 value=56 time=5\n",
      "control_change channel=5 control=7 value=52 time=5\n",
      "control_change channel=5 control=7 value=50 time=5\n",
      "note_on channel=5 note=37 velocity=0 time=18\n",
      "note_on channel=5 note=35 velocity=62 time=2\n",
      "control_change channel=5 control=7 value=51 time=36\n",
      "control_change channel=5 control=7 value=52 time=5\n",
      "control_change channel=5 control=7 value=53 time=5\n",
      "control_change channel=5 control=7 value=54 time=10\n",
      "control_change channel=5 control=7 value=56 time=14\n",
      "control_change channel=5 control=7 value=59 time=5\n",
      "control_change channel=5 control=7 value=60 time=14\n",
      "control_change channel=5 control=7 value=61 time=85\n",
      "control_change channel=5 control=7 value=63 time=5\n",
      "control_change channel=5 control=7 value=64 time=20\n",
      "note_on channel=5 note=35 velocity=0 time=192\n",
      "note_on channel=5 note=35 velocity=64 time=24\n",
      "control_change channel=5 control=7 value=64 time=10\n",
      "control_change channel=5 control=7 value=63 time=21\n",
      "control_change channel=5 control=7 value=59 time=15\n",
      "control_change channel=5 control=7 value=56 time=5\n",
      "control_change channel=5 control=7 value=52 time=5\n",
      "control_change channel=5 control=7 value=49 time=10\n",
      "control_change channel=5 control=7 value=48 time=9\n",
      "control_change channel=5 control=7 value=47 time=10\n",
      "note_on channel=5 note=35 velocity=0 time=39\n",
      "control_change channel=5 control=7 value=52 time=23\n",
      "note_on channel=5 note=33 velocity=72 time=0\n",
      "control_change channel=5 control=7 value=56 time=7\n",
      "control_change channel=5 control=7 value=57 time=10\n",
      "control_change channel=5 control=7 value=58 time=45\n",
      "control_change channel=5 control=7 value=61 time=5\n",
      "control_change channel=5 control=7 value=63 time=10\n",
      "control_change channel=5 control=7 value=64 time=104\n",
      "control_change channel=5 control=7 value=65 time=5\n",
      "control_change channel=5 control=7 value=66 time=57\n",
      "note_on channel=5 note=32 velocity=108 time=437\n",
      "note_on channel=5 note=33 velocity=0 time=3\n",
      "control_change channel=5 control=7 value=64 time=10\n",
      "control_change channel=5 control=7 value=63 time=15\n",
      "control_change channel=5 control=7 value=62 time=5\n",
      "control_change channel=5 control=7 value=61 time=11\n",
      "control_change channel=5 control=7 value=59 time=30\n",
      "control_change channel=5 control=7 value=57 time=164\n",
      "control_change channel=5 control=7 value=56 time=5\n",
      "control_change channel=5 control=7 value=55 time=5\n",
      "control_change channel=5 control=7 value=54 time=5\n",
      "note_on channel=5 note=32 velocity=0 time=6\n",
      "note_on channel=5 note=30 velocity=105 time=15\n",
      "control_change channel=5 control=7 value=52 time=13\n",
      "control_change channel=5 control=7 value=50 time=108\n",
      "control_change channel=5 control=7 value=49 time=5\n",
      "control_change channel=5 control=7 value=48 time=5\n",
      "control_change channel=5 control=7 value=47 time=93\n",
      "control_change channel=5 control=7 value=45 time=5\n",
      "control_change channel=5 control=7 value=43 time=5\n",
      "control_change channel=5 control=7 value=42 time=5\n",
      "note_on channel=5 note=30 velocity=0 time=32\n",
      "control_change channel=5 control=7 value=45 time=4\n",
      "note_on channel=5 note=37 velocity=127 time=0\n",
      "control_change channel=5 control=7 value=46 time=5\n",
      "control_change channel=5 control=7 value=47 time=264\n",
      "control_change channel=5 control=7 value=45 time=225\n",
      "control_change channel=5 control=7 value=43 time=6\n",
      "control_change channel=5 control=7 value=42 time=5\n",
      "control_change channel=5 control=7 value=41 time=13\n",
      "note_on channel=5 note=37 velocity=0 time=23\n",
      "control_change channel=5 control=7 value=40 time=17\n",
      "note_on channel=5 note=35 velocity=72 time=12\n",
      "control_change channel=5 control=7 value=43 time=156\n",
      "control_change channel=5 control=7 value=49 time=15\n",
      "control_change channel=5 control=7 value=52 time=42\n",
      "control_change channel=5 control=7 value=53 time=55\n",
      "control_change channel=5 control=7 value=54 time=6\n",
      "control_change channel=5 control=7 value=56 time=13\n",
      "control_change channel=5 control=7 value=57 time=20\n",
      "control_change channel=5 control=7 value=58 time=0\n",
      "control_change channel=5 control=7 value=59 time=6\n",
      "control_change channel=5 control=7 value=60 time=1\n",
      "control_change channel=5 control=7 value=61 time=30\n",
      "control_change channel=5 control=7 value=63 time=38\n",
      "control_change channel=5 control=7 value=52 time=53\n",
      "control_change channel=5 control=7 value=49 time=5\n",
      "control_change channel=5 control=7 value=38 time=5\n",
      "control_change channel=5 control=7 value=28 time=5\n",
      "control_change channel=5 control=7 value=27 time=5\n",
      "control_change channel=5 control=7 value=26 time=9\n",
      "control_change channel=5 control=7 value=23 time=5\n",
      "control_change channel=5 control=7 value=22 time=5\n",
      "control_change channel=5 control=7 value=21 time=8\n",
      "control_change channel=5 control=7 value=23 time=41\n",
      "control_change channel=5 control=7 value=26 time=5\n",
      "control_change channel=5 control=7 value=30 time=5\n",
      "note_on channel=5 note=35 velocity=0 time=6\n",
      "control_change channel=5 control=7 value=31 time=0\n",
      "control_change channel=5 control=7 value=35 time=9\n",
      "note_on channel=5 note=33 velocity=105 time=0\n",
      "control_change channel=5 control=7 value=37 time=21\n",
      "control_change channel=5 control=7 value=38 time=5\n",
      "control_change channel=5 control=7 value=39 time=5\n",
      "control_change channel=5 control=7 value=40 time=5\n",
      "control_change channel=5 control=7 value=42 time=5\n",
      "control_change channel=5 control=7 value=43 time=10\n",
      "control_change channel=5 control=7 value=44 time=16\n",
      "control_change channel=5 control=7 value=45 time=5\n",
      "control_change channel=5 control=7 value=46 time=5\n",
      "control_change channel=5 control=7 value=47 time=21\n",
      "control_change channel=5 control=7 value=49 time=10\n",
      "control_change channel=5 control=7 value=52 time=5\n",
      "control_change channel=5 control=7 value=56 time=42\n",
      "control_change channel=5 control=7 value=57 time=13\n",
      "control_change channel=5 control=7 value=58 time=5\n",
      "control_change channel=5 control=7 value=59 time=35\n",
      "control_change channel=5 control=7 value=60 time=2\n",
      "control_change channel=5 control=7 value=61 time=10\n",
      "control_change channel=5 control=7 value=63 time=16\n",
      "control_change channel=5 control=7 value=68 time=45\n",
      "control_change channel=5 control=7 value=77 time=0\n",
      "control_change channel=5 control=7 value=78 time=10\n",
      "control_change channel=5 control=7 value=79 time=5\n",
      "control_change channel=5 control=7 value=80 time=6\n",
      "control_change channel=5 control=7 value=78 time=125\n",
      "control_change channel=5 control=7 value=77 time=10\n",
      "control_change channel=5 control=7 value=73 time=6\n",
      "control_change channel=5 control=7 value=71 time=5\n",
      "control_change channel=5 control=7 value=70 time=5\n",
      "control_change channel=5 control=7 value=66 time=6\n",
      "control_change channel=5 control=7 value=63 time=5\n",
      "control_change channel=5 control=7 value=62 time=5\n",
      "control_change channel=5 control=7 value=61 time=5\n",
      "note_on channel=5 note=33 velocity=0 time=7\n",
      "control_change channel=5 control=7 value=57 time=0\n",
      "control_change channel=5 control=7 value=56 time=5\n",
      "control_change channel=5 control=7 value=52 time=7\n",
      "note_on channel=5 note=33 velocity=83 time=5\n",
      "control_change channel=5 control=7 value=50 time=3\n",
      "control_change channel=5 control=7 value=49 time=2\n",
      "control_change channel=5 control=7 value=48 time=6\n",
      "control_change channel=5 control=7 value=49 time=44\n",
      "control_change channel=5 control=7 value=50 time=9\n",
      "control_change channel=5 control=7 value=51 time=8\n",
      "note_on channel=5 note=35 velocity=97 time=0\n",
      "control_change channel=5 control=7 value=52 time=3\n",
      "note_on channel=5 note=33 velocity=0 time=7\n",
      "control_change channel=5 control=7 value=53 time=5\n",
      "control_change channel=5 control=7 value=56 time=8\n",
      "control_change channel=5 control=7 value=59 time=5\n",
      "control_change channel=5 control=7 value=63 time=5\n",
      "control_change channel=5 control=7 value=64 time=10\n",
      "control_change channel=5 control=7 value=65 time=20\n",
      "control_change channel=5 control=7 value=66 time=12\n",
      "note_on channel=5 note=37 velocity=115 time=439\n",
      "note_on channel=5 note=35 velocity=0 time=3\n",
      "control_change channel=5 control=7 value=64 time=139\n",
      "control_change channel=5 control=7 value=63 time=20\n",
      "control_change channel=5 control=7 value=62 time=19\n",
      "control_change channel=5 control=7 value=61 time=8\n",
      "control_change channel=5 control=7 value=59 time=58\n",
      "control_change channel=5 control=7 value=47 time=283\n",
      "note_on channel=5 note=37 velocity=0 time=63\n",
      "note_on channel=5 note=35 velocity=59 time=13\n",
      "control_change channel=5 control=7 value=49 time=6\n",
      "control_change channel=5 control=7 value=52 time=45\n",
      "control_change channel=5 control=7 value=57 time=5\n",
      "control_change channel=5 control=7 value=58 time=5\n",
      "control_change channel=5 control=7 value=59 time=19\n",
      "control_change channel=5 control=7 value=60 time=10\n",
      "control_change channel=5 control=7 value=61 time=11\n",
      "control_change channel=5 control=7 value=63 time=54\n",
      "control_change channel=5 control=7 value=64 time=15\n",
      "control_change channel=5 control=7 value=61 time=76\n",
      "control_change channel=5 control=7 value=59 time=10\n",
      "control_change channel=5 control=7 value=57 time=5\n",
      "control_change channel=5 control=7 value=56 time=53\n",
      "control_change channel=5 control=7 value=52 time=5\n",
      "control_change channel=5 control=7 value=50 time=15\n",
      "control_change channel=5 control=7 value=49 time=12\n",
      "control_change channel=5 control=7 value=48 time=27\n",
      "control_change channel=5 control=7 value=47 time=10\n",
      "control_change channel=5 control=7 value=45 time=70\n",
      "control_change channel=5 control=7 value=43 time=5\n",
      "control_change channel=5 control=7 value=42 time=10\n",
      "control_change channel=5 control=7 value=41 time=18\n",
      "control_change channel=5 control=7 value=40 time=9\n",
      "control_change channel=5 control=7 value=38 time=6\n",
      "control_change channel=5 control=7 value=35 time=5\n",
      "note_on channel=5 note=35 velocity=0 time=46\n",
      "control_change channel=5 control=7 value=37 time=26\n",
      "control_change channel=5 control=7 value=38 time=4\n",
      "note_on channel=5 note=33 velocity=86 time=0\n",
      "control_change channel=5 control=7 value=39 time=5\n",
      "control_change channel=5 control=7 value=40 time=5\n",
      "control_change channel=5 control=7 value=42 time=5\n",
      "control_change channel=5 control=7 value=43 time=17\n",
      "control_change channel=5 control=7 value=44 time=25\n",
      "control_change channel=5 control=7 value=47 time=8\n",
      "control_change channel=5 control=7 value=49 time=69\n",
      "control_change channel=5 control=7 value=50 time=5\n",
      "control_change channel=5 control=7 value=51 time=5\n",
      "control_change channel=5 control=7 value=52 time=13\n",
      "control_change channel=5 control=7 value=53 time=5\n",
      "control_change channel=5 control=7 value=54 time=36\n",
      "control_change channel=5 control=7 value=56 time=5\n",
      "control_change channel=5 control=7 value=59 time=5\n",
      "control_change channel=5 control=7 value=60 time=9\n",
      "control_change channel=5 control=7 value=61 time=5\n",
      "control_change channel=5 control=7 value=59 time=184\n",
      "control_change channel=5 control=7 value=49 time=10\n",
      "control_change channel=5 control=7 value=48 time=5\n",
      "control_change channel=5 control=7 value=45 time=6\n",
      "control_change channel=5 control=7 value=43 time=7\n",
      "control_change channel=5 control=7 value=42 time=4\n",
      "control_change channel=5 control=7 value=41 time=30\n",
      "control_change channel=5 control=7 value=40 time=5\n",
      "control_change channel=5 control=7 value=42 time=75\n",
      "note_on channel=5 note=33 velocity=0 time=8\n",
      "note_on channel=5 note=40 velocity=99 time=2\n",
      "control_change channel=5 control=7 value=52 time=15\n",
      "control_change channel=5 control=7 value=56 time=5\n",
      "control_change channel=5 control=7 value=59 time=5\n",
      "control_change channel=5 control=7 value=60 time=5\n",
      "control_change channel=5 control=7 value=61 time=107\n",
      "control_change channel=5 control=7 value=63 time=33\n",
      "note_on channel=5 note=35 velocity=112 time=115\n",
      "note_on channel=5 note=40 velocity=0 time=4\n",
      "control_change channel=5 control=7 value=62 time=167\n",
      "control_change channel=5 control=7 value=61 time=15\n",
      "control_change channel=5 control=7 value=59 time=20\n",
      "control_change channel=5 control=7 value=57 time=20\n",
      "control_change channel=5 control=7 value=56 time=5\n",
      "control_change channel=5 control=7 value=55 time=5\n",
      "control_change channel=5 control=7 value=54 time=15\n",
      "control_change channel=5 control=7 value=52 time=5\n",
      "note_on channel=5 note=35 velocity=0 time=4\n",
      "note_on channel=5 note=28 velocity=124 time=6\n",
      "control_change channel=5 control=7 value=50 time=5\n",
      "control_change channel=5 control=7 value=49 time=25\n",
      "control_change channel=5 control=7 value=48 time=5\n",
      "control_change channel=5 control=7 value=47 time=19\n",
      "control_change channel=5 control=7 value=45 time=58\n",
      "control_change channel=5 control=7 value=43 time=64\n",
      "control_change channel=5 control=7 value=40 time=160\n",
      "control_change channel=5 control=7 value=38 time=154\n",
      "control_change channel=5 control=7 value=39 time=169\n",
      "control_change channel=5 control=7 value=40 time=10\n",
      "control_change channel=5 control=7 value=42 time=20\n",
      "control_change channel=5 control=7 value=43 time=5\n",
      "control_change channel=5 control=7 value=47 time=11\n",
      "control_change channel=5 control=7 value=49 time=10\n",
      "control_change channel=5 control=7 value=50 time=50\n",
      "control_change channel=5 control=7 value=51 time=5\n",
      "note_on channel=5 note=28 velocity=0 time=8\n",
      "note_on channel=5 note=40 velocity=94 time=22\n",
      "note_on channel=5 note=40 velocity=0 time=31\n",
      "note_on channel=5 note=40 velocity=86 time=31\n",
      "control_change channel=5 control=7 value=52 time=10\n",
      "note_on channel=5 note=37 velocity=112 time=65\n",
      "note_on channel=5 note=40 velocity=0 time=15\n",
      "control_change channel=5 control=7 value=53 time=5\n",
      "control_change channel=5 control=7 value=56 time=43\n",
      "note_on channel=5 note=35 velocity=102 time=7\n",
      "note_on channel=5 note=37 velocity=0 time=7\n",
      "control_change channel=5 control=7 value=57 time=5\n",
      "control_change channel=5 control=7 value=58 time=10\n",
      "control_change channel=5 control=7 value=59 time=5\n",
      "control_change channel=5 control=7 value=60 time=15\n",
      "control_change channel=5 control=7 value=61 time=10\n",
      "note_on channel=5 note=30 velocity=102 time=13\n",
      "note_on channel=5 note=35 velocity=0 time=17\n",
      "control_change channel=5 control=7 value=63 time=0\n",
      "control_change channel=5 control=7 value=64 time=5\n",
      "control_change channel=5 control=7 value=65 time=19\n"
     ]
    },
    {
     "name": "stdout",
     "output_type": "stream",
     "text": [
      "control_change channel=5 control=7 value=66 time=15\n",
      "note_on channel=5 note=30 velocity=0 time=16\n",
      "control_change channel=5 control=7 value=64 time=9\n",
      "note_on channel=5 note=28 velocity=124 time=0\n",
      "control_change channel=5 control=7 value=63 time=6\n",
      "control_change channel=5 control=7 value=62 time=5\n",
      "control_change channel=5 control=7 value=61 time=5\n",
      "control_change channel=5 control=7 value=59 time=5\n",
      "control_change channel=5 control=7 value=57 time=10\n",
      "control_change channel=5 control=7 value=56 time=43\n",
      "control_change channel=5 control=7 value=52 time=355\n",
      "control_change channel=5 control=7 value=50 time=5\n",
      "note_on channel=5 note=32 velocity=108 time=71\n",
      "note_on channel=5 note=28 velocity=0 time=11\n",
      "control_change channel=5 control=7 value=51 time=21\n",
      "note_on channel=5 note=33 velocity=94 time=3\n",
      "control_change channel=5 control=7 value=52 time=5\n",
      "note_on channel=5 note=32 velocity=0 time=10\n",
      "control_change channel=5 control=7 value=53 time=3\n",
      "control_change channel=5 control=7 value=54 time=10\n",
      "control_change channel=5 control=7 value=56 time=3\n",
      "note_on channel=5 note=35 velocity=124 time=6\n",
      "note_on channel=5 note=33 velocity=0 time=1\n",
      "control_change channel=5 control=7 value=57 time=0\n",
      "control_change channel=5 control=7 value=58 time=36\n",
      "control_change channel=5 control=7 value=54 time=345\n",
      "control_change channel=5 control=7 value=52 time=4\n",
      "control_change channel=5 control=7 value=50 time=5\n",
      "control_change channel=5 control=7 value=49 time=24\n",
      "control_change channel=5 control=7 value=48 time=5\n",
      "control_change channel=5 control=7 value=47 time=10\n",
      "control_change channel=5 control=7 value=42 time=30\n",
      "control_change channel=5 control=7 value=41 time=30\n",
      "note_on channel=5 note=33 velocity=112 time=87\n",
      "note_on channel=5 note=35 velocity=0 time=10\n",
      "control_change channel=5 control=7 value=42 time=5\n",
      "control_change channel=5 control=7 value=43 time=0\n",
      "control_change channel=5 control=7 value=47 time=15\n",
      "control_change channel=5 control=7 value=49 time=10\n",
      "control_change channel=5 control=7 value=52 time=74\n",
      "control_change channel=5 control=7 value=53 time=10\n",
      "control_change channel=5 control=7 value=54 time=0\n",
      "control_change channel=5 control=7 value=57 time=47\n",
      "control_change channel=5 control=7 value=58 time=20\n",
      "control_change channel=5 control=7 value=59 time=15\n",
      "control_change channel=5 control=7 value=64 time=50\n",
      "control_change channel=5 control=7 value=65 time=15\n",
      "control_change channel=5 control=7 value=64 time=140\n",
      "control_change channel=5 control=7 value=63 time=5\n",
      "control_change channel=5 control=7 value=62 time=10\n",
      "control_change channel=5 control=7 value=59 time=5\n",
      "control_change channel=5 control=7 value=49 time=5\n",
      "control_change channel=5 control=7 value=45 time=5\n",
      "control_change channel=5 control=7 value=43 time=8\n",
      "control_change channel=5 control=7 value=42 time=5\n",
      "control_change channel=5 control=7 value=38 time=5\n",
      "control_change channel=5 control=7 value=37 time=5\n",
      "control_change channel=5 control=7 value=36 time=17\n",
      "control_change channel=5 control=7 value=35 time=10\n",
      "control_change channel=5 control=7 value=34 time=2\n",
      "control_change channel=5 control=7 value=38 time=75\n",
      "note_on channel=5 note=33 velocity=0 time=8\n",
      "control_change channel=5 control=7 value=42 time=2\n",
      "control_change channel=5 control=7 value=45 time=2\n",
      "note_on channel=5 note=40 velocity=108 time=0\n",
      "control_change channel=5 control=7 value=46 time=5\n",
      "control_change channel=5 control=7 value=47 time=10\n",
      "control_change channel=5 control=7 value=49 time=10\n",
      "control_change channel=5 control=7 value=50 time=5\n",
      "control_change channel=5 control=7 value=51 time=8\n",
      "control_change channel=5 control=7 value=64 time=34\n",
      "control_change channel=5 control=7 value=68 time=20\n",
      "control_change channel=5 control=7 value=70 time=10\n",
      "control_change channel=5 control=7 value=71 time=5\n",
      "control_change channel=5 control=7 value=70 time=61\n",
      "control_change channel=5 control=7 value=59 time=5\n",
      "control_change channel=5 control=7 value=56 time=5\n",
      "control_change channel=5 control=7 value=45 time=5\n",
      "control_change channel=5 control=7 value=35 time=5\n",
      "control_change channel=5 control=7 value=31 time=5\n",
      "control_change channel=5 control=7 value=26 time=15\n",
      "control_change channel=5 control=7 value=24 time=19\n",
      "control_change channel=5 control=7 value=25 time=12\n",
      "control_change channel=5 control=7 value=28 time=10\n",
      "control_change channel=5 control=7 value=31 time=5\n",
      "control_change channel=5 control=7 value=35 time=5\n",
      "control_change channel=5 control=7 value=45 time=4\n",
      "control_change channel=5 control=7 value=46 time=7\n",
      "note_on channel=5 note=35 velocity=119 time=6\n",
      "control_change channel=5 control=7 value=47 time=5\n",
      "note_on channel=5 note=40 velocity=0 time=6\n",
      "control_change channel=5 control=7 value=57 time=0\n",
      "control_change channel=5 control=7 value=58 time=20\n",
      "control_change channel=5 control=7 value=61 time=3\n",
      "control_change channel=5 control=7 value=63 time=10\n",
      "control_change channel=5 control=7 value=64 time=50\n",
      "control_change channel=5 control=7 value=61 time=62\n",
      "control_change channel=5 control=7 value=57 time=10\n",
      "control_change channel=5 control=7 value=54 time=5\n",
      "control_change channel=5 control=7 value=50 time=6\n",
      "control_change channel=5 control=7 value=47 time=15\n",
      "control_change channel=5 control=7 value=37 time=16\n",
      "control_change channel=5 control=7 value=36 time=5\n",
      "control_change channel=5 control=7 value=35 time=5\n",
      "control_change channel=5 control=7 value=38 time=40\n",
      "control_change channel=5 control=7 value=39 time=5\n",
      "control_change channel=5 control=7 value=42 time=8\n",
      "control_change channel=5 control=7 value=43 time=5\n",
      "note_on channel=5 note=35 velocity=0 time=3\n",
      "control_change channel=5 control=7 value=44 time=0\n",
      "note_on channel=5 note=28 velocity=115 time=0\n",
      "control_change channel=5 control=7 value=54 time=7\n",
      "control_change channel=5 control=7 value=57 time=5\n",
      "control_change channel=5 control=7 value=58 time=5\n",
      "control_change channel=5 control=7 value=63 time=51\n",
      "control_change channel=5 control=7 value=64 time=5\n",
      "control_change channel=5 control=7 value=61 time=323\n",
      "control_change channel=5 control=7 value=57 time=5\n",
      "control_change channel=5 control=7 value=54 time=5\n",
      "control_change channel=5 control=7 value=52 time=5\n",
      "control_change channel=5 control=7 value=50 time=7\n",
      "control_change channel=5 control=7 value=49 time=5\n",
      "note_on channel=5 note=32 velocity=99 time=51\n",
      "note_on channel=5 note=28 velocity=0 time=15\n",
      "note_on channel=5 note=33 velocity=97 time=12\n",
      "control_change channel=5 control=7 value=52 time=1\n",
      "control_change channel=5 control=7 value=53 time=3\n",
      "control_change channel=5 control=7 value=54 time=7\n",
      "note_on channel=5 note=32 velocity=0 time=4\n",
      "control_change channel=5 control=7 value=56 time=2\n",
      "control_change channel=5 control=7 value=57 time=5\n",
      "control_change channel=5 control=7 value=61 time=5\n",
      "control_change channel=5 control=7 value=63 time=5\n",
      "note_on channel=5 note=35 velocity=119 time=11\n",
      "note_on channel=5 note=33 velocity=0 time=3\n",
      "control_change channel=5 control=7 value=64 time=6\n",
      "control_change channel=5 control=7 value=65 time=4\n",
      "control_change channel=5 control=7 value=66 time=24\n",
      "control_change channel=5 control=7 value=64 time=431\n",
      "control_change channel=5 control=7 value=63 time=5\n",
      "control_change channel=5 control=7 value=59 time=10\n",
      "control_change channel=5 control=7 value=57 time=6\n",
      "control_change channel=5 control=7 value=56 time=5\n",
      "control_change channel=5 control=7 value=55 time=5\n",
      "control_change channel=5 control=7 value=54 time=5\n",
      "control_change channel=5 control=7 value=56 time=37\n",
      "control_change channel=5 control=7 value=59 time=5\n",
      "control_change channel=5 control=7 value=63 time=13\n",
      "control_change channel=5 control=7 value=64 time=0\n",
      "control_change channel=5 control=7 value=65 time=15\n",
      "control_change channel=5 control=7 value=66 time=11\n",
      "note_on channel=5 note=33 velocity=127 time=0\n",
      "note_on channel=5 note=35 velocity=0 time=8\n",
      "control_change channel=5 control=7 value=77 time=13\n",
      "control_change channel=5 control=7 value=78 time=10\n",
      "control_change channel=5 control=10 value=33 time=518\n",
      "control_change channel=5 control=10 value=35 time=0\n",
      "control_change channel=5 control=10 value=37 time=30\n",
      "control_change channel=5 control=10 value=39 time=31\n",
      "control_change channel=5 control=10 value=42 time=18\n",
      "control_change channel=5 control=10 value=46 time=11\n",
      "control_change channel=5 control=10 value=53 time=22\n",
      "control_change channel=5 control=10 value=59 time=5\n",
      "control_change channel=5 control=10 value=63 time=13\n",
      "control_change channel=5 control=10 value=67 time=15\n",
      "control_change channel=5 control=10 value=72 time=11\n",
      "note_on channel=5 note=32 velocity=124 time=118\n",
      "note_on channel=5 note=33 velocity=0 time=7\n",
      "control_change channel=5 control=7 value=89 time=99\n",
      "control_change channel=5 control=7 value=88 time=4\n",
      "control_change channel=5 control=7 value=87 time=62\n",
      "control_change channel=5 control=7 value=85 time=7\n",
      "control_change channel=5 control=7 value=84 time=5\n",
      "control_change channel=5 control=7 value=83 time=8\n",
      "note_on channel=5 note=30 velocity=92 time=10\n",
      "control_change channel=5 control=7 value=80 time=11\n",
      "note_on channel=5 note=32 velocity=0 time=6\n",
      "control_change channel=5 control=7 value=77 time=10\n",
      "control_change channel=5 control=7 value=76 time=9\n",
      "control_change channel=5 control=7 value=75 time=7\n",
      "control_change channel=5 control=7 value=74 time=8\n",
      "control_change channel=5 control=7 value=73 time=10\n",
      "control_change channel=5 control=7 value=70 time=10\n",
      "control_change channel=5 control=7 value=69 time=4\n",
      "control_change channel=5 control=7 value=68 time=15\n",
      "note_on channel=5 note=30 velocity=0 time=63\n",
      "note_on channel=5 note=40 velocity=81 time=5\n",
      "control_change channel=5 control=7 value=71 time=48\n",
      "control_change channel=5 control=7 value=72 time=5\n",
      "control_change channel=5 control=7 value=73 time=15\n",
      "control_change channel=5 control=7 value=75 time=10\n",
      "control_change channel=5 control=7 value=77 time=2\n",
      "control_change channel=5 control=7 value=78 time=50\n",
      "control_change channel=5 control=7 value=82 time=5\n",
      "note_on channel=5 note=35 velocity=49 time=295\n",
      "note_on channel=5 note=40 velocity=0 time=13\n",
      "note_on channel=5 note=33 velocity=97 time=9\n",
      "note_on channel=5 note=35 velocity=0 time=7\n",
      "note_on channel=5 note=35 velocity=77 time=30\n",
      "note_on channel=5 note=33 velocity=0 time=10\n",
      "control_change channel=5 control=7 value=92 time=41\n",
      "control_change channel=5 control=7 value=93 time=5\n",
      "control_change channel=5 control=7 value=94 time=5\n",
      "control_change channel=5 control=7 value=90 time=400\n",
      "control_change channel=5 control=7 value=80 time=1\n",
      "control_change channel=5 control=7 value=77 time=9\n",
      "control_change channel=5 control=7 value=73 time=5\n",
      "control_change channel=5 control=7 value=71 time=5\n",
      "control_change channel=5 control=7 value=68 time=5\n",
      "control_change channel=5 control=7 value=64 time=5\n",
      "control_change channel=5 control=7 value=61 time=10\n",
      "control_change channel=5 control=7 value=59 time=10\n",
      "control_change channel=5 control=7 value=57 time=8\n",
      "note_on channel=5 note=33 velocity=119 time=47\n",
      "note_on channel=5 note=35 velocity=0 time=1\n",
      "control_change channel=5 control=7 value=58 time=5\n",
      "control_change channel=5 control=7 value=61 time=14\n",
      "control_change channel=5 control=7 value=63 time=37\n",
      "control_change channel=5 control=7 value=62 time=386\n",
      "control_change channel=5 control=7 value=61 time=5\n",
      "control_change channel=5 control=7 value=59 time=5\n",
      "control_change channel=5 control=7 value=57 time=6\n",
      "control_change channel=5 control=7 value=56 time=14\n",
      "control_change channel=5 control=7 value=55 time=5\n",
      "control_change channel=5 control=7 value=54 time=29\n",
      "note_on channel=5 note=33 velocity=0 time=43\n",
      "note_on channel=5 note=40 velocity=108 time=1\n",
      "control_change channel=5 control=7 value=56 time=1\n",
      "control_change channel=5 control=7 value=57 time=5\n",
      "control_change channel=5 control=7 value=58 time=36\n",
      "control_change channel=5 control=7 value=57 time=137\n",
      "control_change channel=5 control=7 value=54 time=5\n",
      "control_change channel=5 control=7 value=50 time=5\n",
      "control_change channel=5 control=7 value=47 time=5\n",
      "control_change channel=5 control=7 value=45 time=5\n",
      "control_change channel=5 control=7 value=46 time=57\n",
      "control_change channel=5 control=7 value=47 time=8\n",
      "control_change channel=5 control=7 value=50 time=5\n",
      "note_on channel=5 note=35 velocity=119 time=6\n",
      "note_on channel=5 note=40 velocity=0 time=1\n",
      "control_change channel=5 control=7 value=51 time=0\n",
      "control_change channel=5 control=7 value=52 time=5\n",
      "control_change channel=5 control=7 value=53 time=5\n",
      "control_change channel=5 control=7 value=54 time=10\n",
      "control_change channel=5 control=7 value=56 time=6\n",
      "control_change channel=5 control=7 value=59 time=5\n",
      "control_change channel=5 control=7 value=60 time=5\n",
      "control_change channel=5 control=7 value=59 time=117\n",
      "control_change channel=5 control=7 value=56 time=5\n",
      "control_change channel=5 control=7 value=55 time=5\n",
      "control_change channel=5 control=7 value=52 time=5\n",
      "control_change channel=5 control=7 value=49 time=10\n",
      "control_change channel=5 control=7 value=48 time=5\n",
      "control_change channel=5 control=7 value=45 time=5\n",
      "control_change channel=5 control=7 value=43 time=5\n",
      "control_change channel=5 control=7 value=40 time=13\n",
      "control_change channel=5 control=7 value=38 time=20\n",
      "control_change channel=5 control=7 value=39 time=31\n",
      "control_change channel=5 control=7 value=40 time=9\n",
      "control_change channel=5 control=7 value=42 time=3\n",
      "note_on channel=5 note=35 velocity=0 time=5\n",
      "control_change channel=5 control=7 value=43 time=2\n",
      "note_on channel=5 note=28 velocity=124 time=0\n",
      "control_change channel=5 control=7 value=47 time=15\n",
      "control_change channel=5 control=7 value=50 time=85\n",
      "control_change channel=5 control=7 value=54 time=13\n",
      "control_change channel=5 control=7 value=56 time=5\n",
      "control_change channel=5 control=7 value=55 time=281\n",
      "control_change channel=5 control=7 value=38 time=5\n",
      "control_change channel=5 control=7 value=24 time=6\n",
      "control_change channel=5 control=7 value=14 time=5\n",
      "control_change channel=5 control=7 value=12 time=4\n",
      "note_on channel=5 note=32 velocity=52 time=33\n",
      "note_on channel=5 note=28 velocity=0 time=17\n",
      "control_change channel=5 control=7 value=23 time=9\n",
      "control_change channel=5 control=7 value=26 time=9\n",
      "note_on channel=5 note=33 velocity=63 time=0\n",
      "control_change channel=5 control=7 value=28 time=2\n",
      "note_on channel=5 note=32 velocity=0 time=12\n",
      "control_change channel=5 control=7 value=30 time=0\n",
      "control_change channel=5 control=7 value=40 time=6\n",
      "control_change channel=5 control=7 value=42 time=5\n",
      "control_change channel=5 control=7 value=43 time=10\n",
      "control_change channel=5 control=7 value=44 time=10\n",
      "note_on channel=5 note=35 velocity=115 time=3\n",
      "note_on channel=5 note=33 velocity=0 time=3\n",
      "control_change channel=5 control=7 value=47 time=0\n",
      "control_change channel=5 control=7 value=49 time=5\n",
      "control_change channel=5 control=7 value=50 time=5\n",
      "control_change channel=5 control=7 value=47 time=410\n",
      "control_change channel=5 control=7 value=37 time=5\n",
      "control_change channel=5 control=7 value=33 time=5\n",
      "control_change channel=5 control=7 value=31 time=9\n",
      "control_change channel=5 control=7 value=35 time=88\n",
      "control_change channel=5 control=7 value=45 time=6\n",
      "control_change channel=5 control=7 value=49 time=3\n",
      "control_change channel=5 control=7 value=50 time=5\n",
      "control_change channel=5 control=7 value=51 time=5\n",
      "control_change channel=5 control=7 value=52 time=10\n",
      "control_change channel=5 control=7 value=56 time=7\n",
      "control_change channel=5 control=7 value=57 time=5\n",
      "note_on channel=5 note=33 velocity=94 time=4\n",
      "note_on channel=5 note=35 velocity=0 time=8\n",
      "control_change channel=5 control=7 value=58 time=15\n",
      "control_change channel=5 control=7 value=61 time=65\n",
      "control_change channel=5 control=7 value=64 time=14\n",
      "control_change channel=5 control=7 value=65 time=15\n",
      "control_change channel=5 control=7 value=66 time=8\n",
      "control_change channel=5 control=7 value=68 time=5\n",
      "control_change channel=5 control=7 value=70 time=40\n",
      "control_change channel=5 control=7 value=71 time=5\n",
      "control_change channel=5 control=7 value=72 time=4\n",
      "control_change channel=5 control=7 value=73 time=10\n",
      "control_change channel=5 control=7 value=75 time=5\n",
      "control_change channel=5 control=7 value=74 time=249\n",
      "control_change channel=5 control=7 value=71 time=10\n",
      "control_change channel=5 control=7 value=61 time=5\n",
      "control_change channel=5 control=7 value=50 time=5\n",
      "control_change channel=5 control=7 value=49 time=12\n",
      "control_change channel=5 control=7 value=59 time=35\n",
      "control_change channel=5 control=7 value=70 time=6\n",
      "control_change channel=5 control=7 value=73 time=5\n",
      "note_on channel=5 note=33 velocity=0 time=4\n",
      "control_change channel=5 control=7 value=77 time=0\n",
      "note_on channel=5 note=32 velocity=102 time=20\n",
      "note_on channel=5 note=32 velocity=0 time=103\n",
      "note_on channel=5 note=32 velocity=42 time=13\n",
      "control_change channel=5 control=7 value=76 time=9\n",
      "control_change channel=5 control=7 value=71 time=18\n",
      "control_change channel=5 control=7 value=68 time=5\n",
      "control_change channel=5 control=7 value=67 time=2\n",
      "control_change channel=5 control=7 value=66 time=5\n",
      "control_change channel=5 control=7 value=63 time=26\n",
      "control_change channel=5 control=7 value=62 time=5\n",
      "control_change channel=5 control=7 value=63 time=49\n",
      "control_change channel=5 control=7 value=66 time=5\n",
      "note_on channel=5 note=32 velocity=0 time=2\n",
      "control_change channel=5 control=7 value=70 time=5\n",
      "control_change channel=5 control=7 value=73 time=11\n",
      "note_on channel=5 note=30 velocity=99 time=5\n",
      "control_change channel=5 control=7 value=75 time=28\n",
      "control_change channel=5 control=7 value=77 time=5\n",
      "note_on channel=5 note=30 velocity=0 time=74\n",
      "note_on channel=5 note=30 velocity=67 time=26\n",
      "control_change channel=5 control=7 value=73 time=15\n",
      "control_change channel=5 control=7 value=71 time=5\n",
      "control_change channel=5 control=7 value=70 time=5\n",
      "control_change channel=5 control=7 value=66 time=4\n",
      "control_change channel=5 control=7 value=64 time=5\n",
      "control_change channel=5 control=7 value=61 time=42\n",
      "control_change channel=5 control=7 value=57 time=9\n",
      "note_on channel=5 note=30 velocity=0 time=29\n",
      "note_on channel=5 note=37 velocity=127 time=29\n",
      "control_change channel=5 control=7 value=68 time=6\n",
      "control_change channel=5 control=7 value=70 time=5\n",
      "control_change channel=5 control=7 value=71 time=5\n",
      "control_change channel=5 control=7 value=70 time=378\n",
      "control_change channel=5 control=7 value=66 time=10\n",
      "control_change channel=5 control=7 value=56 time=5\n",
      "control_change channel=5 control=7 value=55 time=6\n",
      "control_change channel=5 control=7 value=54 time=5\n",
      "control_change channel=5 control=7 value=50 time=3\n",
      "control_change channel=5 control=7 value=49 time=10\n",
      "note_on channel=5 note=37 velocity=0 time=5\n",
      "control_change channel=5 control=7 value=48 time=3\n",
      "control_change channel=5 control=7 value=47 time=15\n",
      "control_change channel=5 control=7 value=45 time=5\n",
      "note_on channel=5 note=37 velocity=97 time=9\n",
      "control_change channel=5 control=7 value=42 time=10\n",
      "control_change channel=5 control=7 value=41 time=5\n",
      "control_change channel=5 control=7 value=40 time=10\n",
      "control_change channel=5 control=7 value=42 time=35\n",
      "control_change channel=5 control=7 value=45 time=4\n",
      "note_on channel=5 note=37 velocity=0 time=5\n",
      "control_change channel=5 control=7 value=46 time=2\n",
      "control_change channel=5 control=7 value=49 time=9\n",
      "note_on channel=5 note=35 velocity=105 time=0\n",
      "control_change channel=5 control=7 value=52 time=5\n",
      "control_change channel=5 control=7 value=53 time=4\n",
      "control_change channel=5 control=7 value=56 time=13\n",
      "control_change channel=5 control=7 value=57 time=12\n",
      "control_change channel=5 control=7 value=61 time=40\n",
      "control_change channel=5 control=7 value=63 time=18\n",
      "control_change channel=5 control=7 value=62 time=319\n",
      "control_change channel=5 control=7 value=59 time=10\n",
      "control_change channel=5 control=7 value=56 time=5\n",
      "control_change channel=5 control=7 value=52 time=5\n",
      "control_change channel=5 control=7 value=49 time=5\n",
      "control_change channel=5 control=7 value=45 time=5\n",
      "note_on channel=5 note=35 velocity=0 time=66\n",
      "note_on channel=5 note=33 velocity=97 time=12\n",
      "control_change channel=5 control=7 value=46 time=5\n",
      "control_change channel=5 control=7 value=49 time=5\n",
      "control_change channel=5 control=7 value=52 time=5\n",
      "control_change channel=5 control=7 value=53 time=5\n",
      "control_change channel=5 control=7 value=54 time=10\n",
      "control_change channel=5 control=7 value=56 time=4\n",
      "control_change channel=5 control=7 value=59 time=5\n",
      "control_change channel=5 control=7 value=60 time=5\n",
      "control_change channel=5 control=7 value=61 time=45\n",
      "control_change channel=5 control=7 value=63 time=6\n",
      "control_change channel=5 control=7 value=59 time=337\n",
      "note_on channel=5 note=33 velocity=0 time=3\n",
      "control_change channel=5 control=7 value=57 time=0\n",
      "control_change channel=5 control=7 value=56 time=7\n",
      "control_change channel=5 control=7 value=55 time=8\n",
      "note_on channel=5 note=33 velocity=90 time=0\n",
      "control_change channel=5 control=7 value=54 time=4\n",
      "control_change channel=5 control=7 value=52 time=5\n",
      "note_on channel=5 note=33 velocity=0 time=57\n",
      "control_change channel=5 control=7 value=53 time=0\n",
      "control_change channel=5 control=7 value=56 time=6\n",
      "control_change channel=5 control=7 value=59 time=4\n",
      "note_on channel=5 note=35 velocity=78 time=0\n",
      "control_change channel=5 control=7 value=60 time=5\n",
      "control_change channel=5 control=7 value=61 time=10\n",
      "control_change channel=5 control=7 value=64 time=10\n",
      "control_change channel=5 control=7 value=65 time=7\n",
      "control_change channel=5 control=7 value=68 time=61\n",
      "note_on channel=5 note=37 velocity=115 time=420\n",
      "note_on channel=5 note=35 velocity=0 time=2\n",
      "control_change channel=5 control=7 value=70 time=5\n",
      "control_change channel=5 control=7 value=71 time=5\n",
      "control_change channel=5 control=7 value=72 time=11\n",
      "control_change channel=5 control=7 value=71 time=478\n",
      "control_change channel=5 control=7 value=70 time=27\n",
      "control_change channel=5 control=7 value=69 time=0\n",
      "note_on channel=5 note=37 velocity=0 time=9\n",
      "note_on channel=5 note=35 velocity=75 time=16\n",
      "note_on channel=5 note=36 velocity=64 time=2\n",
      "control_change channel=5 control=7 value=68 time=3\n",
      "control_change channel=5 control=7 value=67 time=2\n",
      "control_change channel=5 control=7 value=64 time=10\n",
      "note_on channel=5 note=36 velocity=0 time=4\n",
      "control_change channel=5 control=7 value=63 time=0\n",
      "control_change channel=5 control=7 value=64 time=87\n",
      "control_change channel=5 control=7 value=65 time=5\n",
      "control_change channel=5 control=7 value=66 time=5\n",
      "control_change channel=5 control=7 value=68 time=35\n",
      "control_change channel=5 control=7 value=71 time=10\n",
      "control_change channel=5 control=7 value=72 time=5\n",
      "control_change channel=5 control=7 value=77 time=61\n",
      "control_change channel=5 control=7 value=78 time=15\n",
      "control_change channel=5 control=7 value=82 time=41\n",
      "control_change channel=5 control=7 value=84 time=5\n",
      "control_change channel=5 control=7 value=89 time=73\n",
      "note_on channel=5 note=35 velocity=0 time=32\n",
      "note_on channel=5 note=35 velocity=69 time=22\n",
      "control_change channel=5 control=7 value=85 time=9\n",
      "control_change channel=5 control=7 value=71 time=5\n",
      "control_change channel=5 control=7 value=68 time=5\n",
      "control_change channel=5 control=7 value=64 time=5\n",
      "control_change channel=5 control=7 value=61 time=9\n",
      "control_change channel=5 control=7 value=57 time=5\n",
      "note_on channel=5 note=35 velocity=0 time=69\n",
      "control_change channel=5 control=7 value=58 time=0\n",
      "control_change channel=5 control=7 value=61 time=5\n",
      "control_change channel=5 control=7 value=64 time=5\n",
      "note_on channel=5 note=33 velocity=84 time=11\n",
      "note_on channel=5 note=31 velocity=78 time=2\n",
      "control_change channel=5 control=7 value=65 time=10\n",
      "control_change channel=5 control=7 value=66 time=9\n",
      "control_change channel=5 control=7 value=68 time=5\n",
      "note_on channel=5 note=31 velocity=0 time=5\n",
      "control_change channel=5 control=7 value=70 time=5\n",
      "control_change channel=5 control=7 value=71 time=48\n",
      "control_change channel=5 control=7 value=72 time=0\n",
      "control_change channel=5 control=7 value=75 time=80\n",
      "control_change channel=5 control=7 value=77 time=68\n",
      "control_change channel=5 control=7 value=78 time=5\n",
      "control_change channel=5 control=7 value=82 time=117\n",
      "control_change channel=5 control=7 value=84 time=10\n",
      "note_on channel=5 note=33 velocity=0 time=159\n",
      "control_change channel=5 control=7 value=83 time=10\n",
      "control_change channel=5 control=7 value=82 time=3\n",
      "note_on channel=5 note=32 velocity=108 time=0\n",
      "control_change channel=5 control=7 value=81 time=3\n",
      "control_change channel=5 control=7 value=80 time=6\n",
      "note_on channel=5 note=32 velocity=0 time=78\n",
      "note_on channel=5 note=32 velocity=127 time=52\n",
      "note_on channel=5 note=32 velocity=0 time=95\n",
      "control_change channel=5 control=7 value=78 time=15\n",
      "control_change channel=5 control=7 value=77 time=5\n",
      "control_change channel=5 control=7 value=76 time=5\n",
      "note_on channel=5 note=30 velocity=115 time=28\n",
      "note_on channel=5 note=30 velocity=0 time=56\n",
      "control_change channel=5 control=7 value=63 time=20\n",
      "control_change channel=5 control=7 value=62 time=1\n",
      "control_change channel=5 control=7 value=61 time=10\n",
      "note_on channel=5 note=30 velocity=112 time=2\n",
      "note_on channel=5 note=30 velocity=0 time=48\n",
      "note_on channel=5 note=30 velocity=119 time=46\n",
      "control_change channel=5 control=7 value=59 time=20\n",
      "note_on channel=5 note=30 velocity=0 time=39\n",
      "control_change channel=5 control=7 value=63 time=13\n",
      "control_change channel=5 control=7 value=64 time=5\n",
      "note_on channel=5 note=37 velocity=127 time=10\n",
      "control_change channel=5 control=7 value=68 time=50\n",
      "control_change channel=5 control=7 value=71 time=72\n",
      "control_change channel=5 control=7 value=72 time=0\n",
      "control_change channel=5 control=7 value=73 time=23\n",
      "control_change channel=5 control=7 value=77 time=45\n",
      "control_change channel=5 control=7 value=78 time=5\n",
      "control_change channel=5 control=7 value=79 time=35\n",
      "control_change channel=5 control=7 value=82 time=20\n",
      "control_change channel=5 control=7 value=84 time=102\n",
      "control_change channel=5 control=7 value=85 time=15\n",
      "note_on channel=5 note=37 velocity=0 time=166\n",
      "control_change channel=5 control=7 value=84 time=0\n",
      "note_on channel=5 note=35 velocity=86 time=8\n",
      "control_change channel=5 control=7 value=83 time=11\n",
      "control_change channel=5 control=7 value=82 time=17\n",
      "control_change channel=5 control=7 value=78 time=14\n",
      "control_change channel=5 control=7 value=82 time=117\n",
      "control_change channel=5 control=7 value=85 time=14\n",
      "control_change channel=5 control=7 value=86 time=5\n",
      "control_change channel=5 control=7 value=87 time=3\n",
      "control_change channel=5 control=7 value=89 time=5\n",
      "control_change channel=5 control=7 value=90 time=52\n",
      "control_change channel=5 control=7 value=87 time=211\n",
      "control_change channel=5 control=7 value=84 time=5\n",
      "control_change channel=5 control=7 value=83 time=5\n",
      "control_change channel=5 control=7 value=82 time=16\n",
      "control_change channel=5 control=7 value=81 time=1\n",
      "control_change channel=5 control=7 value=80 time=10\n",
      "control_change channel=5 control=7 value=77 time=4\n",
      "control_change channel=5 control=7 value=66 time=5\n",
      "control_change channel=5 control=7 value=56 time=7\n",
      "control_change channel=5 control=7 value=55 time=5\n",
      "control_change channel=5 control=7 value=56 time=30\n",
      "note_on channel=5 note=33 velocity=102 time=12\n",
      "control_change channel=5 control=7 value=66 time=2\n",
      "control_change channel=5 control=7 value=70 time=5\n",
      "note_on channel=5 note=35 velocity=0 time=3\n",
      "control_change channel=5 control=7 value=75 time=10\n",
      "control_change channel=5 control=7 value=77 time=5\n",
      "control_change channel=5 control=7 value=80 time=10\n",
      "control_change channel=5 control=7 value=82 time=5\n",
      "note_on channel=5 note=33 velocity=0 time=394\n",
      "control_change channel=5 control=7 value=81 time=0\n",
      "control_change channel=5 control=7 value=68 time=6\n",
      "control_change channel=5 control=7 value=54 time=5\n",
      "control_change channel=5 control=7 value=50 time=5\n",
      "note_on channel=5 note=33 velocity=99 time=5\n",
      "control_change channel=5 control=7 value=49 time=9\n",
      "control_change channel=5 control=7 value=52 time=43\n",
      "control_change channel=5 control=7 value=56 time=5\n",
      "note_on channel=5 note=33 velocity=0 time=9\n",
      "control_change channel=5 control=7 value=59 time=0\n",
      "control_change channel=5 control=7 value=60 time=10\n",
      "note_on channel=5 note=35 velocity=124 time=0\n",
      "control_change channel=5 control=7 value=64 time=15\n",
      "control_change channel=5 control=7 value=65 time=10\n",
      "control_change channel=5 control=7 value=66 time=19\n",
      "note_on channel=5 note=35 velocity=0 time=469\n",
      "note_on channel=5 note=37 velocity=102 time=8\n",
      "control_change channel=5 control=7 value=70 time=25\n",
      "control_change channel=5 control=7 value=71 time=30\n",
      "control_change channel=5 control=7 value=72 time=5\n",
      "control_change channel=5 control=7 value=73 time=103\n",
      "control_change channel=5 control=7 value=75 time=26\n",
      "control_change channel=5 control=7 value=64 time=209\n",
      "control_change channel=5 control=7 value=59 time=12\n",
      "control_change channel=5 control=7 value=57 time=17\n",
      "control_change channel=5 control=7 value=56 time=3\n",
      "control_change channel=5 control=7 value=55 time=13\n",
      "control_change channel=5 control=7 value=52 time=10\n",
      "control_change channel=5 control=7 value=49 time=2\n",
      "control_change channel=5 control=7 value=50 time=55\n",
      "note_on channel=5 note=35 velocity=105 time=0\n",
      "note_on channel=5 note=37 velocity=0 time=5\n",
      "control_change channel=5 control=7 value=51 time=0\n",
      "control_change channel=5 control=7 value=52 time=7\n",
      "control_change channel=5 control=7 value=56 time=6\n",
      "control_change channel=5 control=7 value=59 time=27\n",
      "control_change channel=5 control=7 value=60 time=0\n",
      "control_change channel=5 control=7 value=61 time=24\n",
      "control_change channel=5 control=7 value=64 time=5\n",
      "control_change channel=5 control=7 value=65 time=31\n",
      "control_change channel=5 control=7 value=66 time=5\n",
      "control_change channel=5 control=7 value=68 time=5\n",
      "control_change channel=5 control=7 value=71 time=49\n",
      "control_change channel=5 control=7 value=72 time=20\n",
      "control_change channel=5 control=7 value=71 time=251\n",
      "control_change channel=5 control=7 value=66 time=13\n",
      "control_change channel=5 control=7 value=63 time=37\n",
      "control_change channel=5 control=7 value=59 time=5\n",
      "control_change channel=5 control=7 value=49 time=5\n",
      "control_change channel=5 control=7 value=45 time=9\n",
      "control_change channel=5 control=7 value=43 time=3\n",
      "control_change channel=5 control=7 value=42 time=5\n",
      "note_on channel=5 note=33 velocity=83 time=52\n",
      "note_on channel=5 note=35 velocity=0 time=3\n",
      "control_change channel=5 control=7 value=45 time=5\n",
      "control_change channel=5 control=7 value=56 time=0\n",
      "control_change channel=5 control=7 value=57 time=5\n",
      "control_change channel=5 control=7 value=61 time=28\n",
      "control_change channel=5 control=7 value=63 time=25\n",
      "control_change channel=5 control=7 value=64 time=5\n",
      "control_change channel=5 control=7 value=65 time=5\n",
      "control_change channel=5 control=7 value=70 time=68\n",
      "control_change channel=5 control=7 value=71 time=5\n",
      "control_change channel=5 control=7 value=70 time=220\n",
      "control_change channel=5 control=7 value=66 time=5\n",
      "control_change channel=5 control=7 value=63 time=34\n",
      "control_change channel=5 control=7 value=52 time=5\n",
      "control_change channel=5 control=7 value=50 time=12\n",
      "control_change channel=5 control=7 value=49 time=6\n",
      "control_change channel=5 control=7 value=45 time=5\n",
      "control_change channel=5 control=7 value=46 time=59\n",
      "control_change channel=5 control=7 value=49 time=5\n",
      "control_change channel=5 control=7 value=50 time=5\n",
      "control_change channel=5 control=7 value=54 time=13\n",
      "note_on channel=5 note=40 velocity=97 time=19\n",
      "note_on channel=5 note=33 velocity=0 time=3\n",
      "control_change channel=5 control=7 value=56 time=0\n",
      "control_change channel=5 control=7 value=57 time=5\n",
      "control_change channel=5 control=7 value=58 time=37\n",
      "control_change channel=5 control=7 value=59 time=5\n",
      "control_change channel=5 control=7 value=60 time=5\n",
      "control_change channel=5 control=7 value=61 time=5\n",
      "control_change channel=5 control=7 value=63 time=7\n",
      "control_change channel=5 control=7 value=64 time=5\n",
      "control_change channel=5 control=7 value=65 time=5\n",
      "control_change channel=5 control=7 value=66 time=40\n",
      "control_change channel=5 control=7 value=68 time=20\n",
      "control_change channel=5 control=7 value=70 time=54\n",
      "control_change channel=5 control=7 value=71 time=30\n",
      "control_change channel=5 control=7 value=72 time=10\n",
      "control_change channel=5 control=7 value=77 time=15\n",
      "note_on channel=5 note=40 velocity=0 time=36\n",
      "note_on channel=5 note=35 velocity=108 time=1\n",
      "note_on channel=5 note=37 velocity=77 time=720\n",
      "control_change channel=5 control=7 value=66 time=8\n",
      "note_on channel=5 note=35 velocity=0 time=2\n",
      "control_change channel=5 control=7 value=64 time=3\n",
      "control_change channel=5 control=7 value=63 time=21\n",
      "control_change channel=5 control=7 value=62 time=54\n",
      "control_change channel=5 control=7 value=61 time=5\n",
      "control_change channel=5 control=7 value=59 time=15\n",
      "control_change channel=5 control=7 value=57 time=24\n",
      "control_change channel=5 control=7 value=56 time=15\n",
      "control_change channel=5 control=7 value=52 time=150\n",
      "control_change channel=5 control=7 value=50 time=61\n",
      "control_change channel=5 control=7 value=47 time=147\n",
      "note_on channel=5 note=37 velocity=0 time=67\n",
      "note_on channel=5 note=35 velocity=40 time=0\n",
      "control_change channel=5 control=7 value=45 time=21\n",
      "control_change channel=5 control=7 value=43 time=5\n",
      "control_change channel=5 control=7 value=42 time=73\n",
      "control_change channel=5 control=7 value=41 time=23\n",
      "control_change channel=5 control=7 value=40 time=239\n",
      "control_change channel=5 control=7 value=38 time=73\n",
      "control_change channel=5 control=7 value=37 time=25\n",
      "control_change channel=5 control=7 value=36 time=10\n",
      "control_change channel=5 control=7 value=35 time=19\n",
      "control_change channel=5 control=7 value=34 time=3\n",
      "control_change channel=5 control=7 value=33 time=15\n",
      "control_change channel=5 control=7 value=31 time=3\n",
      "note_on channel=5 note=35 velocity=0 time=26\n",
      "control_change channel=5 control=7 value=30 time=2\n",
      "control_change channel=5 control=7 value=29 time=130\n",
      "control_change channel=5 control=7 value=28 time=0\n",
      "control_change channel=5 control=7 value=27 time=5\n",
      "control_change channel=5 control=7 value=26 time=48\n",
      "control_change channel=5 control=7 value=24 time=7\n",
      "control_change channel=5 control=7 value=23 time=5\n",
      "control_change channel=5 control=7 value=22 time=5\n",
      "control_change channel=5 control=7 value=21 time=28\n",
      "control_change channel=5 control=7 value=16 time=37\n",
      "control_change channel=5 control=7 value=15 time=1\n",
      "control_change channel=5 control=7 value=14 time=23\n",
      "control_change channel=5 control=7 value=12 time=5\n",
      "control_change channel=5 control=7 value=10 time=12\n",
      "control_change channel=5 control=7 value=9 time=7\n",
      "control_change channel=5 control=7 value=8 time=41\n",
      "control_change channel=5 control=7 value=7 time=6\n",
      "control_change channel=5 control=7 value=5 time=5\n",
      "control_change channel=5 control=7 value=3 time=25\n",
      "control_change channel=5 control=7 value=4 time=31\n",
      "control_change channel=5 control=7 value=7 time=6\n",
      "control_change channel=5 control=7 value=9 time=21\n",
      "control_change channel=5 control=7 value=12 time=5\n",
      "control_change channel=5 control=7 value=16 time=3\n",
      "control_change channel=5 control=7 value=17 time=10\n",
      "control_change channel=5 control=7 value=21 time=14\n",
      "control_change channel=5 control=7 value=24 time=6\n",
      "control_change channel=5 control=7 value=30 time=41\n",
      "control_change channel=5 control=7 value=31 time=0\n",
      "control_change channel=5 control=7 value=35 time=15\n",
      "control_change channel=5 control=7 value=38 time=29\n",
      "control_change channel=5 control=7 value=39 time=40\n",
      "control_change channel=5 control=7 value=40 time=5\n",
      "control_change channel=5 control=7 value=42 time=9\n",
      "control_change channel=5 control=7 value=47 time=35\n",
      "control_change channel=5 control=7 value=49 time=5\n",
      "control_change channel=5 control=7 value=50 time=52\n",
      "control_change channel=5 control=7 value=54 time=5\n",
      "control_change channel=5 control=7 value=57 time=33\n",
      "control_change channel=5 control=7 value=58 time=5\n",
      "control_change channel=5 control=7 value=59 time=20\n",
      "control_change channel=5 control=7 value=60 time=25\n",
      "control_change channel=5 control=7 value=61 time=10\n",
      "control_change channel=5 control=7 value=63 time=115\n",
      "control_change channel=5 control=7 value=64 time=46\n",
      "note_on channel=5 note=37 velocity=86 time=69\n",
      "control_change channel=5 control=7 value=65 time=75\n",
      "control_change channel=5 control=7 value=66 time=2\n",
      "control_change channel=5 control=7 value=68 time=6\n",
      "control_change channel=5 control=7 value=70 time=10\n",
      "control_change channel=5 control=7 value=73 time=52\n",
      "control_change channel=5 control=7 value=75 time=35\n",
      "control_change channel=5 control=7 value=77 time=5\n",
      "control_change channel=5 control=7 value=78 time=35\n",
      "control_change channel=5 control=7 value=84 time=55\n",
      "control_change channel=5 control=7 value=85 time=20\n",
      "control_change channel=5 control=7 value=82 time=119\n",
      "control_change channel=5 control=7 value=78 time=7\n",
      "control_change channel=5 control=7 value=75 time=5\n",
      "control_change channel=5 control=7 value=71 time=6\n",
      "control_change channel=5 control=7 value=68 time=6\n",
      "control_change channel=5 control=7 value=64 time=6\n",
      "control_change channel=5 control=7 value=61 time=4\n",
      "control_change channel=5 control=7 value=59 time=8\n",
      "control_change channel=5 control=7 value=57 time=5\n",
      "control_change channel=5 control=7 value=54 time=6\n",
      "control_change channel=5 control=7 value=56 time=29\n",
      "control_change channel=5 control=7 value=57 time=6\n",
      "note_on channel=5 note=37 velocity=0 time=19\n",
      "control_change channel=5 control=7 value=63 time=0\n",
      "note_on channel=5 note=35 velocity=52 time=0\n",
      "control_change channel=5 control=7 value=66 time=23\n",
      "control_change channel=5 control=7 value=70 time=4\n",
      "control_change channel=5 control=7 value=71 time=7\n",
      "control_change channel=5 control=7 value=72 time=23\n",
      "control_change channel=5 control=7 value=73 time=18\n",
      "control_change channel=5 control=7 value=77 time=5\n",
      "control_change channel=5 control=7 value=78 time=5\n",
      "control_change channel=5 control=7 value=82 time=28\n",
      "control_change channel=5 control=7 value=84 time=38\n",
      "control_change channel=5 control=7 value=85 time=15\n",
      "control_change channel=5 control=7 value=84 time=213\n",
      "control_change channel=5 control=7 value=83 time=5\n",
      "control_change channel=5 control=7 value=82 time=11\n",
      "control_change channel=5 control=7 value=81 time=3\n",
      "control_change channel=5 control=7 value=77 time=22\n",
      "control_change channel=5 control=7 value=76 time=5\n",
      "control_change channel=5 control=7 value=75 time=7\n",
      "control_change channel=5 control=7 value=74 time=4\n",
      "control_change channel=5 control=7 value=73 time=7\n",
      "control_change channel=5 control=7 value=71 time=6\n",
      "control_change channel=5 control=7 value=68 time=6\n",
      "control_change channel=5 control=7 value=67 time=2\n",
      "control_change channel=5 control=7 value=66 time=10\n",
      "control_change channel=5 control=7 value=77 time=57\n",
      "note_on channel=5 note=35 velocity=0 time=13\n",
      "note_on channel=5 note=33 velocity=112 time=4\n",
      "control_change channel=5 control=7 value=78 time=2\n",
      "control_change channel=5 control=7 value=79 time=0\n",
      "control_change channel=5 control=7 value=82 time=11\n",
      "control_change channel=5 control=7 value=85 time=5\n",
      "control_change channel=5 control=7 value=80 time=116\n",
      "control_change channel=5 control=7 value=78 time=31\n",
      "control_change channel=5 control=7 value=92 time=105\n",
      "control_change channel=5 control=7 value=90 time=56\n",
      "control_change channel=5 control=7 value=87 time=5\n",
      "control_change channel=5 control=7 value=85 time=15\n",
      "control_change channel=5 control=7 value=84 time=5\n",
      "control_change channel=5 control=7 value=83 time=5\n",
      "control_change channel=5 control=7 value=80 time=42\n",
      "control_change channel=5 control=7 value=78 time=0\n",
      "control_change channel=5 control=7 value=75 time=16\n",
      "control_change channel=5 control=7 value=74 time=5\n",
      "control_change channel=5 control=7 value=73 time=15\n",
      "control_change channel=5 control=7 value=71 time=18\n",
      "note_on channel=5 note=33 velocity=0 time=50\n",
      "control_change channel=5 control=7 value=72 time=11\n",
      "control_change channel=5 control=7 value=73 time=16\n",
      "control_change channel=5 control=7 value=85 time=2\n",
      "note_on channel=5 note=32 velocity=115 time=9\n",
      "control_change channel=5 control=7 value=89 time=10\n",
      "note_on channel=5 note=32 velocity=0 time=58\n",
      "note_on channel=5 note=32 velocity=105 time=59\n",
      "note_on channel=5 note=32 velocity=0 time=89\n",
      "control_change channel=5 control=7 value=90 time=10\n",
      "control_change channel=5 control=7 value=91 time=29\n",
      "note_on channel=5 note=30 velocity=115 time=17\n",
      "note_on channel=5 note=30 velocity=0 time=40\n",
      "control_change channel=5 control=7 value=94 time=15\n",
      "control_change channel=5 control=7 value=97 time=6\n",
      "note_on channel=5 note=30 velocity=105 time=12\n",
      "note_on channel=5 note=30 velocity=0 time=38\n",
      "note_on channel=5 note=30 velocity=94 time=46\n",
      "note_on channel=5 note=30 velocity=0 time=28\n",
      "control_change channel=5 control=7 value=96 time=69\n",
      "control_change channel=5 control=7 value=92 time=12\n",
      "control_change channel=5 control=7 value=90 time=17\n",
      "control_change channel=5 control=7 value=89 time=11\n",
      "control_change channel=5 control=7 value=85 time=3\n",
      "note_on channel=5 note=44 velocity=127 time=36\n",
      "control_change channel=5 control=7 value=82 time=53\n",
      "control_change channel=5 control=7 value=81 time=5\n",
      "control_change channel=5 control=7 value=80 time=7\n",
      "control_change channel=5 control=7 value=78 time=25\n",
      "control_change channel=5 control=7 value=77 time=25\n",
      "control_change channel=5 control=7 value=76 time=10\n",
      "control_change channel=5 control=7 value=71 time=53\n",
      "control_change channel=5 control=7 value=70 time=5\n",
      "control_change channel=5 control=7 value=69 time=5\n",
      "control_change channel=5 control=7 value=68 time=13\n",
      "control_change channel=5 control=7 value=67 time=16\n",
      "control_change channel=5 control=7 value=64 time=6\n",
      "control_change channel=5 control=7 value=63 time=12\n",
      "control_change channel=5 control=7 value=62 time=5\n",
      "control_change channel=5 control=7 value=61 time=19\n",
      "control_change channel=5 control=7 value=59 time=13\n",
      "control_change channel=5 control=7 value=56 time=37\n",
      "control_change channel=5 control=7 value=55 time=20\n",
      "control_change channel=5 control=7 value=54 time=5\n",
      "control_change channel=5 control=7 value=52 time=14\n",
      "control_change channel=5 control=7 value=66 time=95\n",
      "note_on channel=5 note=44 velocity=0 time=8\n",
      "note_on channel=5 note=39 velocity=127 time=0\n",
      "control_change channel=5 control=7 value=68 time=4\n",
      "control_change channel=5 control=7 value=71 time=8\n",
      "control_change channel=5 control=7 value=72 time=6\n",
      "control_change channel=5 control=7 value=75 time=4\n",
      "control_change channel=5 control=7 value=77 time=7\n",
      "control_change channel=5 control=7 value=78 time=28\n",
      "control_change channel=5 control=7 value=79 time=9\n",
      "control_change channel=5 control=7 value=80 time=5\n",
      "control_change channel=5 control=7 value=82 time=5\n",
      "control_change channel=5 control=7 value=85 time=10\n",
      "control_change channel=5 control=7 value=89 time=10\n",
      "control_change channel=5 control=7 value=90 time=25\n",
      "control_change channel=5 control=7 value=91 time=5\n",
      "control_change channel=5 control=7 value=87 time=219\n",
      "control_change channel=5 control=7 value=84 time=7\n",
      "control_change channel=5 control=7 value=83 time=5\n",
      "control_change channel=5 control=7 value=80 time=15\n",
      "control_change channel=5 control=7 value=64 time=13\n",
      "control_change channel=5 control=7 value=61 time=9\n",
      "control_change channel=5 control=7 value=59 time=5\n",
      "control_change channel=5 control=7 value=57 time=7\n",
      "control_change channel=5 control=7 value=56 time=5\n",
      "control_change channel=5 control=7 value=55 time=5\n",
      "control_change channel=5 control=7 value=52 time=6\n",
      "control_change channel=5 control=7 value=50 time=41\n",
      "control_change channel=5 control=7 value=49 time=5\n",
      "control_change channel=5 control=7 value=50 time=34\n",
      "control_change channel=5 control=7 value=54 time=15\n"
     ]
    },
    {
     "name": "stdout",
     "output_type": "stream",
     "text": [
      "control_change channel=5 control=7 value=68 time=0\n",
      "note_on channel=5 note=37 velocity=127 time=0\n",
      "note_on channel=5 note=39 velocity=0 time=5\n",
      "control_change channel=5 control=7 value=70 time=2\n",
      "control_change channel=5 control=7 value=71 time=10\n",
      "control_change channel=5 control=7 value=72 time=4\n",
      "control_change channel=5 control=7 value=73 time=4\n",
      "control_change channel=5 control=7 value=71 time=267\n",
      "control_change channel=5 control=7 value=70 time=5\n",
      "control_change channel=5 control=7 value=69 time=10\n",
      "control_change channel=5 control=7 value=68 time=25\n",
      "control_change channel=5 control=7 value=67 time=15\n",
      "control_change channel=5 control=7 value=66 time=15\n",
      "control_change channel=5 control=7 value=64 time=5\n",
      "control_change channel=5 control=7 value=59 time=15\n",
      "control_change channel=5 control=7 value=52 time=21\n",
      "control_change channel=5 control=7 value=50 time=6\n",
      "control_change channel=5 control=7 value=47 time=6\n",
      "control_change channel=5 control=7 value=45 time=4\n",
      "control_change channel=5 control=7 value=43 time=11\n",
      "note_on channel=5 note=37 velocity=0 time=3\n",
      "control_change channel=5 control=7 value=42 time=7\n",
      "control_change channel=5 control=7 value=38 time=10\n",
      "note_on channel=5 note=37 velocity=127 time=4\n",
      "control_change channel=5 control=7 value=35 time=1\n",
      "control_change channel=5 control=7 value=34 time=5\n",
      "control_change channel=5 control=7 value=31 time=5\n",
      "control_change channel=5 control=7 value=28 time=5\n",
      "control_change channel=5 control=7 value=45 time=62\n",
      "control_change channel=5 control=7 value=63 time=0\n",
      "note_on channel=5 note=39 velocity=127 time=0\n",
      "note_on channel=5 note=37 velocity=0 time=4\n",
      "control_change channel=5 control=7 value=66 time=1\n",
      "control_change channel=5 control=7 value=70 time=4\n",
      "control_change channel=5 control=7 value=73 time=31\n",
      "control_change channel=5 control=7 value=77 time=104\n",
      "control_change channel=5 control=7 value=80 time=5\n",
      "control_change channel=5 control=7 value=82 time=5\n",
      "control_change channel=5 control=7 value=84 time=9\n",
      "control_change channel=5 control=7 value=83 time=265\n",
      "control_change channel=5 control=7 value=80 time=6\n",
      "control_change channel=5 control=7 value=77 time=10\n",
      "note_on channel=5 note=41 velocity=127 time=44\n",
      "note_on channel=5 note=39 velocity=0 time=2\n",
      "control_change channel=5 control=7 value=78 time=0\n",
      "control_change channel=5 control=7 value=79 time=2\n",
      "control_change channel=5 control=7 value=82 time=13\n",
      "control_change channel=5 control=7 value=84 time=23\n",
      "control_change channel=5 control=7 value=83 time=437\n",
      "control_change channel=5 control=7 value=80 time=10\n",
      "control_change channel=5 control=7 value=77 time=6\n",
      "note_on channel=5 note=39 velocity=127 time=39\n",
      "note_on channel=5 note=41 velocity=0 time=13\n",
      "control_change channel=5 control=7 value=76 time=2\n",
      "control_change channel=5 control=7 value=75 time=124\n",
      "control_change channel=5 control=7 value=74 time=236\n",
      "control_change channel=5 control=7 value=73 time=5\n",
      "control_change channel=5 control=7 value=71 time=108\n",
      "control_change channel=5 control=7 value=70 time=23\n",
      "control_change channel=5 control=7 value=69 time=23\n",
      "note_on channel=5 note=37 velocity=127 time=3\n",
      "note_on channel=5 note=39 velocity=0 time=10\n",
      "control_change channel=5 control=7 value=68 time=0\n",
      "control_change channel=5 control=7 value=67 time=229\n",
      "note_on channel=5 note=36 velocity=62 time=284\n",
      "control_change channel=5 control=7 value=64 time=10\n",
      "note_on channel=5 note=37 velocity=0 time=77\n",
      "note_on channel=5 note=36 velocity=0 time=154\n",
      "note_on channel=5 note=34 velocity=119 time=8\n",
      "control_change channel=5 control=7 value=63 time=9\n",
      "control_change channel=5 control=7 value=62 time=20\n",
      "control_change channel=5 control=7 value=61 time=14\n",
      "control_change channel=5 control=7 value=57 time=170\n",
      "control_change channel=5 control=7 value=58 time=63\n",
      "note_on channel=5 note=34 velocity=0 time=8\n",
      "note_on channel=5 note=41 velocity=108 time=0\n",
      "control_change channel=5 control=7 value=61 time=21\n",
      "control_change channel=5 control=7 value=59 time=454\n",
      "note_on channel=5 note=39 velocity=94 time=49\n",
      "note_on channel=5 note=41 velocity=0 time=8\n",
      "note_on channel=5 note=37 velocity=127 time=513\n",
      "note_on channel=5 note=39 velocity=0 time=7\n",
      "control_change channel=5 control=7 value=57 time=167\n",
      "control_change channel=5 control=7 value=56 time=130\n",
      "note_on channel=5 note=39 velocity=112 time=209\n",
      "note_on channel=5 note=37 velocity=0 time=7\n",
      "note_on channel=5 note=41 velocity=72 time=520\n",
      "note_on channel=5 note=43 velocity=72 time=1\n",
      "note_on channel=5 note=39 velocity=0 time=2\n",
      "note_on channel=5 note=43 velocity=0 time=56\n",
      "note_on channel=5 note=39 velocity=102 time=460\n",
      "note_on channel=5 note=41 velocity=0 time=13\n",
      "note_on channel=5 note=37 velocity=81 time=491\n",
      "note_on channel=5 note=39 velocity=0 time=2\n",
      "control_change channel=5 control=7 value=57 time=174\n",
      "note_on channel=5 note=37 velocity=0 time=344\n",
      "note_on channel=5 note=44 velocity=92 time=4\n",
      "control_change channel=5 control=7 value=61 time=203\n",
      "note_on channel=5 note=39 velocity=73 time=138\n",
      "note_on channel=5 note=44 velocity=0 time=8\n",
      "control_change channel=5 control=7 value=63 time=123\n",
      "control_change channel=5 control=7 value=64 time=11\n",
      "control_change channel=5 control=7 value=65 time=59\n",
      "control_change channel=5 control=7 value=66 time=5\n",
      "control_change channel=5 control=7 value=68 time=78\n",
      "control_change channel=5 control=7 value=70 time=58\n",
      "control_change channel=5 control=7 value=66 time=135\n",
      "control_change channel=5 control=7 value=52 time=5\n",
      "control_change channel=5 control=7 value=35 time=5\n",
      "control_change channel=5 control=7 value=21 time=5\n",
      "control_change channel=5 control=7 value=17 time=5\n",
      "control_change channel=5 control=7 value=18 time=65\n",
      "control_change channel=5 control=7 value=21 time=5\n",
      "control_change channel=5 control=7 value=23 time=7\n",
      "control_change channel=5 control=7 value=24 time=5\n",
      "control_change channel=5 control=7 value=25 time=5\n",
      "control_change channel=5 control=7 value=26 time=5\n",
      "control_change channel=5 control=7 value=28 time=10\n",
      "control_change channel=5 control=7 value=30 time=10\n",
      "control_change channel=5 control=7 value=31 time=7\n",
      "control_change channel=5 control=7 value=32 time=6\n",
      "note_on channel=5 note=41 velocity=56 time=0\n",
      "note_on channel=5 note=39 velocity=0 time=10\n",
      "control_change channel=5 control=7 value=35 time=14\n",
      "control_change channel=5 control=7 value=37 time=10\n",
      "control_change channel=5 control=7 value=38 time=15\n",
      "control_change channel=5 control=7 value=39 time=15\n",
      "control_change channel=5 control=7 value=42 time=42\n",
      "control_change channel=5 control=7 value=43 time=5\n",
      "control_change channel=5 control=7 value=44 time=5\n",
      "control_change channel=5 control=7 value=45 time=25\n",
      "control_change channel=5 control=7 value=46 time=5\n",
      "control_change channel=5 control=7 value=47 time=5\n",
      "control_change channel=5 control=7 value=52 time=29\n",
      "control_change channel=5 control=7 value=53 time=5\n",
      "control_change channel=5 control=7 value=54 time=35\n",
      "control_change channel=5 control=7 value=56 time=12\n",
      "control_change channel=5 control=7 value=57 time=8\n",
      "control_change channel=5 control=7 value=58 time=10\n",
      "control_change channel=5 control=7 value=59 time=14\n",
      "control_change channel=5 control=7 value=60 time=11\n",
      "control_change channel=5 control=7 value=61 time=10\n",
      "control_change channel=5 control=7 value=66 time=28\n",
      "control_change channel=5 control=7 value=70 time=50\n",
      "control_change channel=5 control=7 value=71 time=5\n",
      "control_change channel=5 control=7 value=72 time=5\n",
      "control_change channel=5 control=7 value=71 time=101\n",
      "control_change channel=5 control=7 value=68 time=5\n",
      "control_change channel=5 control=7 value=64 time=5\n",
      "control_change channel=5 control=7 value=63 time=5\n",
      "control_change channel=5 control=7 value=62 time=5\n",
      "control_change channel=5 control=7 value=61 time=10\n",
      "control_change channel=5 control=7 value=59 time=5\n",
      "control_change channel=5 control=7 value=57 time=10\n",
      "control_change channel=5 control=7 value=61 time=31\n",
      "control_change channel=5 control=7 value=64 time=14\n",
      "control_change channel=5 control=7 value=65 time=0\n",
      "control_change channel=5 control=7 value=66 time=16\n",
      "note_on channel=5 note=39 velocity=86 time=4\n",
      "control_change channel=5 control=7 value=68 time=5\n",
      "note_on channel=5 note=41 velocity=0 time=5\n",
      "control_change channel=5 control=7 value=70 time=0\n",
      "control_change channel=5 control=7 value=71 time=5\n",
      "control_change channel=5 control=7 value=72 time=5\n",
      "control_change channel=5 control=7 value=75 time=29\n",
      "control_change channel=5 control=7 value=77 time=10\n",
      "control_change channel=5 control=7 value=78 time=5\n",
      "control_change channel=5 control=7 value=79 time=10\n",
      "control_change channel=5 control=7 value=80 time=19\n",
      "control_change channel=5 control=7 value=82 time=35\n",
      "control_change channel=5 control=7 value=85 time=58\n",
      "control_change channel=5 control=7 value=86 time=5\n",
      "control_change channel=5 control=7 value=92 time=76\n",
      "control_change channel=5 control=7 value=96 time=24\n",
      "control_change channel=5 control=7 value=99 time=9\n",
      "control_change channel=5 control=7 value=100 time=4\n",
      "control_change channel=5 control=7 value=101 time=7\n",
      "control_change channel=5 control=7 value=103 time=5\n",
      "control_change channel=5 control=7 value=104 time=5\n",
      "control_change channel=5 control=7 value=105 time=10\n",
      "control_change channel=5 control=7 value=104 time=99\n",
      "control_change channel=5 control=7 value=94 time=9\n",
      "control_change channel=5 control=7 value=84 time=5\n",
      "control_change channel=5 control=7 value=80 time=5\n",
      "control_change channel=5 control=7 value=78 time=5\n",
      "control_change channel=5 control=7 value=75 time=5\n",
      "control_change channel=5 control=7 value=74 time=9\n",
      "control_change channel=5 control=7 value=71 time=5\n",
      "control_change channel=5 control=7 value=68 time=5\n",
      "control_change channel=5 control=7 value=67 time=5\n",
      "control_change channel=5 control=7 value=64 time=10\n",
      "control_change channel=5 control=7 value=61 time=26\n",
      "note_on channel=5 note=37 velocity=53 time=16\n",
      "control_change channel=5 control=7 value=63 time=6\n",
      "note_on channel=5 note=39 velocity=0 time=14\n",
      "control_change channel=5 control=7 value=64 time=0\n",
      "control_change channel=5 control=7 value=68 time=5\n",
      "control_change channel=5 control=7 value=70 time=5\n",
      "control_change channel=5 control=7 value=71 time=8\n",
      "control_change channel=5 control=7 value=72 time=5\n",
      "control_change channel=5 control=7 value=73 time=5\n",
      "control_change channel=5 control=7 value=75 time=5\n",
      "control_change channel=5 control=7 value=78 time=15\n",
      "control_change channel=5 control=7 value=79 time=5\n",
      "control_change channel=5 control=7 value=80 time=5\n",
      "control_change channel=5 control=7 value=82 time=11\n",
      "control_change channel=5 control=7 value=84 time=15\n",
      "control_change channel=5 control=7 value=87 time=49\n",
      "control_change channel=5 control=7 value=90 time=5\n",
      "control_change channel=5 control=7 value=94 time=10\n",
      "control_change channel=5 control=7 value=97 time=5\n",
      "control_change channel=5 control=7 value=98 time=10\n",
      "control_change channel=5 control=7 value=99 time=5\n",
      "control_change channel=5 control=7 value=110 time=30\n",
      "control_change channel=5 control=7 value=113 time=18\n",
      "control_change channel=5 control=7 value=117 time=131\n",
      "control_change channel=5 control=7 value=116 time=244\n",
      "control_change channel=5 control=7 value=115 time=4\n",
      "control_change channel=5 control=7 value=111 time=15\n",
      "control_change channel=5 control=7 value=110 time=25\n",
      "control_change channel=5 control=7 value=109 time=5\n",
      "control_change channel=5 control=7 value=108 time=20\n",
      "control_change channel=5 control=7 value=107 time=5\n",
      "control_change channel=5 control=7 value=106 time=5\n",
      "control_change channel=5 control=7 value=104 time=32\n",
      "control_change channel=5 control=7 value=103 time=10\n",
      "control_change channel=5 control=7 value=102 time=27\n",
      "control_change channel=5 control=7 value=96 time=28\n",
      "control_change channel=5 control=7 value=95 time=15\n",
      "control_change channel=5 control=7 value=92 time=5\n",
      "control_change channel=5 control=7 value=90 time=10\n",
      "control_change channel=5 control=7 value=87 time=5\n",
      "control_change channel=5 control=7 value=85 time=13\n",
      "control_change channel=5 control=7 value=82 time=5\n",
      "control_change channel=5 control=7 value=78 time=5\n",
      "control_change channel=5 control=7 value=77 time=5\n",
      "control_change channel=5 control=7 value=76 time=5\n",
      "control_change channel=5 control=7 value=75 time=15\n",
      "control_change channel=5 control=7 value=74 time=5\n",
      "control_change channel=5 control=7 value=73 time=5\n",
      "control_change channel=5 control=7 value=70 time=15\n",
      "control_change channel=5 control=7 value=61 time=26\n",
      "control_change channel=5 control=7 value=59 time=5\n",
      "control_change channel=5 control=7 value=56 time=5\n",
      "control_change channel=5 control=7 value=55 time=12\n",
      "control_change channel=5 control=7 value=54 time=13\n",
      "control_change channel=5 control=7 value=52 time=5\n",
      "control_change channel=5 control=7 value=50 time=5\n",
      "control_change channel=5 control=7 value=49 time=30\n",
      "control_change channel=5 control=7 value=50 time=67\n",
      "control_change channel=5 control=7 value=54 time=2\n",
      "control_change channel=5 control=7 value=56 time=9\n",
      "control_change channel=5 control=7 value=59 time=14\n",
      "control_change channel=5 control=7 value=63 time=10\n",
      "control_change channel=5 control=7 value=73 time=5\n",
      "note_on channel=5 note=41 velocity=57 time=10\n",
      "note_on channel=5 note=37 velocity=0 time=11\n",
      "control_change channel=5 control=7 value=75 time=17\n",
      "control_change channel=5 control=7 value=78 time=30\n",
      "control_change channel=5 control=7 value=79 time=66\n",
      "control_change channel=5 control=7 value=80 time=35\n",
      "control_change channel=5 control=7 value=82 time=57\n",
      "control_change channel=5 control=7 value=84 time=7\n",
      "control_change channel=5 control=7 value=83 time=114\n",
      "control_change channel=5 control=7 value=80 time=10\n",
      "control_change channel=5 control=7 value=78 time=5\n",
      "control_change channel=5 control=7 value=77 time=7\n",
      "control_change channel=5 control=7 value=73 time=4\n",
      "control_change channel=5 control=7 value=70 time=5\n",
      "control_change channel=5 control=7 value=69 time=5\n",
      "control_change channel=5 control=7 value=68 time=10\n",
      "control_change channel=5 control=7 value=67 time=15\n",
      "control_change channel=5 control=7 value=66 time=5\n",
      "control_change channel=5 control=7 value=64 time=15\n",
      "control_change channel=5 control=7 value=63 time=5\n",
      "control_change channel=5 control=7 value=64 time=59\n",
      "control_change channel=5 control=7 value=65 time=5\n",
      "control_change channel=5 control=7 value=68 time=6\n",
      "control_change channel=5 control=7 value=70 time=7\n",
      "control_change channel=5 control=7 value=71 time=11\n",
      "note_on channel=5 note=27 velocity=46 time=0\n",
      "control_change channel=5 control=7 value=75 time=2\n",
      "note_on channel=5 note=39 velocity=50 time=0\n",
      "control_change channel=5 control=7 value=85 time=5\n",
      "note_on channel=5 note=41 velocity=0 time=5\n",
      "control_change channel=5 control=7 value=89 time=5\n",
      "control_change channel=5 control=7 value=92 time=30\n",
      "control_change channel=5 control=7 value=93 time=5\n",
      "control_change channel=5 control=7 value=94 time=99\n",
      "note_on channel=5 note=27 velocity=0 time=213\n",
      "control_change channel=5 control=7 value=92 time=45\n",
      "control_change channel=5 control=7 value=89 time=6\n",
      "control_change channel=5 control=7 value=88 time=5\n",
      "control_change channel=5 control=7 value=87 time=5\n",
      "control_change channel=5 control=7 value=84 time=5\n",
      "control_change channel=5 control=7 value=80 time=5\n",
      "control_change channel=5 control=7 value=77 time=5\n",
      "control_change channel=5 control=7 value=76 time=5\n",
      "control_change channel=5 control=7 value=71 time=27\n",
      "control_change channel=5 control=7 value=70 time=5\n",
      "control_change channel=5 control=7 value=71 time=34\n",
      "control_change channel=5 control=7 value=75 time=10\n",
      "control_change channel=5 control=7 value=85 time=1\n",
      "control_change channel=5 control=7 value=86 time=11\n",
      "note_on channel=5 note=25 velocity=97 time=0\n",
      "control_change channel=5 control=7 value=87 time=15\n",
      "control_change channel=5 control=7 value=89 time=5\n",
      "control_change channel=5 control=7 value=92 time=5\n",
      "note_on channel=5 note=39 velocity=0 time=221\n",
      "control_change channel=5 control=7 value=90 time=187\n",
      "control_change channel=5 control=7 value=89 time=31\n",
      "control_change channel=5 control=7 value=88 time=40\n",
      "control_change channel=5 control=7 value=87 time=15\n",
      "control_change channel=5 control=7 value=84 time=155\n",
      "control_change channel=5 control=7 value=83 time=96\n",
      "control_change channel=5 control=7 value=82 time=5\n",
      "control_change channel=5 control=7 value=81 time=52\n",
      "control_change channel=5 control=7 value=80 time=5\n",
      "control_change channel=5 control=7 value=78 time=16\n",
      "control_change channel=5 control=7 value=77 time=15\n",
      "control_change channel=5 control=7 value=76 time=0\n",
      "control_change channel=5 control=7 value=75 time=30\n",
      "control_change channel=5 control=7 value=74 time=10\n",
      "control_change channel=5 control=7 value=73 time=16\n",
      "control_change channel=5 control=7 value=71 time=7\n",
      "control_change channel=5 control=7 value=70 time=7\n",
      "control_change channel=5 control=7 value=69 time=5\n",
      "control_change channel=5 control=7 value=68 time=20\n",
      "control_change channel=5 control=7 value=67 time=1\n",
      "control_change channel=5 control=7 value=66 time=25\n",
      "control_change channel=5 control=7 value=63 time=10\n",
      "control_change channel=5 control=7 value=64 time=28\n",
      "control_change channel=5 control=7 value=65 time=5\n",
      "control_change channel=5 control=7 value=66 time=5\n",
      "control_change channel=5 control=7 value=70 time=7\n",
      "control_change channel=5 control=7 value=71 time=4\n",
      "note_on channel=5 note=41 velocity=40 time=5\n",
      "note_on channel=5 note=25 velocity=0 time=3\n",
      "control_change channel=5 control=7 value=72 time=10\n",
      "control_change channel=5 control=7 value=73 time=5\n",
      "control_change channel=5 control=7 value=77 time=83\n",
      "control_change channel=5 control=7 value=78 time=55\n",
      "control_change channel=5 control=7 value=79 time=10\n",
      "control_change channel=5 control=7 value=80 time=5\n",
      "control_change channel=5 control=7 value=82 time=5\n",
      "control_change channel=5 control=7 value=85 time=8\n",
      "control_change channel=5 control=7 value=86 time=2\n",
      "control_change channel=5 control=7 value=87 time=15\n",
      "control_change channel=5 control=7 value=89 time=48\n",
      "control_change channel=5 control=7 value=90 time=5\n",
      "control_change channel=5 control=7 value=94 time=5\n",
      "control_change channel=5 control=7 value=96 time=4\n",
      "control_change channel=5 control=7 value=97 time=5\n",
      "control_change channel=5 control=7 value=94 time=91\n",
      "control_change channel=5 control=7 value=92 time=6\n",
      "control_change channel=5 control=7 value=90 time=5\n",
      "control_change channel=5 control=7 value=89 time=7\n",
      "control_change channel=5 control=7 value=88 time=5\n",
      "control_change channel=5 control=7 value=85 time=5\n",
      "control_change channel=5 control=7 value=84 time=8\n",
      "control_change channel=5 control=7 value=83 time=5\n",
      "control_change channel=5 control=7 value=82 time=6\n",
      "control_change channel=5 control=7 value=81 time=5\n",
      "control_change channel=5 control=7 value=80 time=10\n",
      "control_change channel=5 control=7 value=78 time=5\n",
      "control_change channel=5 control=7 value=77 time=10\n",
      "control_change channel=5 control=7 value=76 time=5\n",
      "control_change channel=5 control=7 value=75 time=7\n",
      "control_change channel=5 control=7 value=71 time=20\n",
      "control_change channel=5 control=7 value=70 time=18\n",
      "control_change channel=5 control=7 value=71 time=28\n",
      "control_change channel=5 control=7 value=72 time=9\n",
      "note_on channel=5 note=39 velocity=83 time=2\n",
      "control_change channel=5 control=7 value=75 time=5\n",
      "note_on channel=5 note=41 velocity=0 time=3\n",
      "control_change channel=5 control=7 value=77 time=0\n",
      "control_change channel=5 control=7 value=78 time=10\n",
      "control_change channel=5 control=7 value=79 time=15\n",
      "control_change channel=5 control=7 value=80 time=6\n",
      "control_change channel=5 control=7 value=82 time=10\n",
      "control_change channel=5 control=7 value=87 time=24\n",
      "control_change channel=5 control=7 value=89 time=15\n",
      "control_change channel=5 control=7 value=90 time=18\n",
      "control_change channel=5 control=7 value=91 time=5\n",
      "control_change channel=5 control=7 value=92 time=10\n",
      "control_change channel=5 control=7 value=93 time=29\n",
      "control_change channel=5 control=7 value=94 time=4\n",
      "control_change channel=5 control=7 value=92 time=241\n",
      "control_change channel=5 control=7 value=90 time=46\n",
      "control_change channel=5 control=7 value=87 time=5\n",
      "control_change channel=5 control=7 value=84 time=5\n",
      "control_change channel=5 control=7 value=73 time=10\n",
      "control_change channel=5 control=7 value=71 time=4\n",
      "control_change channel=5 control=7 value=68 time=5\n",
      "control_change channel=5 control=7 value=67 time=5\n",
      "control_change channel=5 control=7 value=64 time=15\n",
      "control_change channel=5 control=7 value=68 time=30\n",
      "control_change channel=5 control=7 value=70 time=16\n",
      "control_change channel=5 control=7 value=71 time=5\n",
      "note_on channel=5 note=37 velocity=86 time=0\n",
      "note_on channel=5 note=39 velocity=0 time=16\n",
      "control_change channel=5 control=7 value=75 time=15\n",
      "control_change channel=5 control=7 value=77 time=46\n",
      "control_change channel=5 control=7 value=78 time=8\n",
      "control_change channel=5 control=7 value=79 time=0\n",
      "control_change channel=5 control=7 value=80 time=10\n",
      "control_change channel=5 control=7 value=82 time=15\n",
      "control_change channel=5 control=7 value=84 time=5\n",
      "control_change channel=5 control=7 value=85 time=13\n",
      "control_change channel=5 control=7 value=86 time=35\n",
      "control_change channel=5 control=7 value=87 time=5\n",
      "control_change channel=5 control=7 value=89 time=89\n",
      "control_change channel=5 control=7 value=90 time=8\n",
      "control_change channel=5 control=7 value=91 time=1\n",
      "control_change channel=5 control=7 value=94 time=74\n",
      "control_change channel=5 control=7 value=96 time=15\n",
      "control_change channel=5 control=7 value=97 time=15\n",
      "control_change channel=5 control=7 value=98 time=10\n",
      "control_change channel=5 control=7 value=99 time=5\n",
      "control_change channel=5 control=7 value=100 time=764\n",
      "control_change channel=5 control=7 value=101 time=30\n",
      "control_change channel=5 control=7 value=103 time=5\n",
      "control_change channel=5 control=7 value=104 time=25\n",
      "control_change channel=5 control=7 value=108 time=5\n",
      "control_change channel=5 control=7 value=107 time=236\n",
      "control_change channel=5 control=7 value=104 time=5\n",
      "control_change channel=5 control=7 value=103 time=5\n",
      "control_change channel=5 control=7 value=102 time=90\n",
      "control_change channel=5 control=7 value=99 time=5\n",
      "control_change channel=5 control=7 value=96 time=5\n",
      "control_change channel=5 control=7 value=92 time=5\n",
      "control_change channel=5 control=7 value=89 time=5\n",
      "control_change channel=5 control=7 value=85 time=10\n",
      "control_change channel=5 control=7 value=84 time=3\n",
      "control_change channel=5 control=7 value=83 time=5\n",
      "control_change channel=5 control=7 value=82 time=5\n",
      "control_change channel=5 control=7 value=78 time=10\n",
      "control_change channel=5 control=7 value=75 time=5\n",
      "control_change channel=5 control=7 value=71 time=5\n",
      "control_change channel=5 control=7 value=68 time=26\n",
      "control_change channel=5 control=7 value=67 time=15\n",
      "control_change channel=5 control=7 value=64 time=25\n",
      "control_change channel=5 control=7 value=63 time=5\n",
      "note_on channel=5 note=32 velocity=97 time=4\n",
      "note_on channel=5 note=37 velocity=0 time=2\n",
      "control_change channel=5 control=7 value=64 time=421\n",
      "note_on channel=5 note=36 velocity=27 time=0\n",
      "control_change channel=5 control=7 value=65 time=12\n",
      "note_on channel=5 note=37 velocity=72 time=9\n",
      "control_change channel=5 control=7 value=66 time=5\n",
      "control_change channel=5 control=7 value=70 time=10\n",
      "note_on channel=5 note=32 velocity=0 time=12\n",
      "note_on channel=5 note=36 velocity=0 time=5\n",
      "note_on channel=5 note=39 velocity=45 time=16\n",
      "control_change channel=5 control=7 value=73 time=5\n",
      "note_on channel=5 note=37 velocity=0 time=4\n",
      "control_change channel=5 control=7 value=77 time=0\n",
      "control_change channel=5 control=7 value=76 time=477\n",
      "control_change channel=5 control=7 value=75 time=5\n",
      "note_on channel=5 note=37 velocity=69 time=32\n",
      "control_change channel=5 control=7 value=74 time=9\n",
      "note_on channel=5 note=39 velocity=0 time=9\n",
      "control_change channel=5 control=7 value=73 time=5\n",
      "control_change channel=5 control=7 value=71 time=55\n",
      "control_change channel=5 control=7 value=70 time=30\n",
      "control_change channel=5 control=7 value=69 time=51\n",
      "control_change channel=5 control=7 value=68 time=63\n",
      "control_change channel=5 control=7 value=67 time=5\n",
      "control_change channel=5 control=7 value=66 time=5\n",
      "control_change channel=5 control=7 value=64 time=22\n",
      "control_change channel=5 control=7 value=63 time=282\n",
      "note_on channel=5 note=39 velocity=39 time=0\n",
      "note_on channel=5 note=37 velocity=0 time=8\n",
      "control_change channel=5 control=7 value=66 time=264\n",
      "control_change channel=5 control=7 value=68 time=4\n",
      "control_change channel=5 control=7 value=70 time=5\n",
      "control_change channel=5 control=7 value=71 time=25\n",
      "control_change channel=5 control=7 value=75 time=10\n",
      "control_change channel=5 control=7 value=77 time=5\n",
      "control_change channel=5 control=7 value=71 time=87\n",
      "control_change channel=5 control=7 value=70 time=4\n",
      "control_change channel=5 control=7 value=69 time=0\n",
      "control_change channel=5 control=7 value=68 time=36\n",
      "control_change channel=5 control=7 value=67 time=18\n",
      "control_change channel=5 control=7 value=66 time=5\n",
      "note_on channel=5 note=32 velocity=46 time=66\n",
      "control_change channel=5 control=7 value=68 time=5\n",
      "note_on channel=5 note=39 velocity=0 time=17\n",
      "control_change channel=5 control=7 value=71 time=37\n",
      "control_change channel=5 control=7 value=72 time=3\n",
      "control_change channel=5 control=7 value=73 time=376\n",
      "control_change channel=5 control=7 value=75 time=5\n",
      "control_change channel=5 control=7 value=77 time=10\n",
      "note_on channel=5 note=36 velocity=38 time=1\n",
      "note_on channel=5 note=32 velocity=0 time=5\n",
      "control_change channel=5 control=7 value=78 time=19\n",
      "note_on channel=5 note=37 velocity=62 time=5\n",
      "note_on channel=5 note=36 velocity=0 time=12\n",
      "control_change channel=5 control=7 value=79 time=10\n",
      "control_change channel=5 control=7 value=80 time=20\n",
      "note_on channel=5 note=39 velocity=40 time=0\n",
      "note_on channel=5 note=37 velocity=0 time=17\n",
      "control_change channel=5 control=7 value=82 time=28\n",
      "control_change channel=5 control=7 value=84 time=5\n",
      "control_change channel=5 control=7 value=85 time=114\n",
      "control_change channel=5 control=7 value=86 time=5\n",
      "control_change channel=5 control=7 value=85 time=322\n",
      "control_change channel=5 control=7 value=84 time=10\n",
      "note_on channel=5 note=37 velocity=32 time=32\n",
      "note_on channel=5 note=39 velocity=0 time=7\n",
      "control_change channel=5 control=7 value=83 time=11\n",
      "control_change channel=5 control=7 value=80 time=233\n",
      "note_on channel=5 note=39 velocity=36 time=325\n",
      "note_on channel=5 note=37 velocity=0 time=4\n",
      "control_change channel=5 control=7 value=82 time=10\n",
      "control_change channel=5 control=7 value=85 time=64\n",
      "control_change channel=5 control=7 value=89 time=5\n",
      "control_change channel=5 control=7 value=90 time=38\n",
      "control_change channel=5 control=7 value=94 time=73\n",
      "control_change channel=5 control=7 value=96 time=316\n",
      "control_change channel=5 control=7 value=97 time=415\n",
      "control_change channel=5 control=7 value=101 time=585\n",
      "control_change channel=5 control=7 value=103 time=15\n",
      "control_change channel=5 control=7 value=106 time=0\n",
      "control_change channel=5 control=7 value=108 time=85\n",
      "control_change channel=5 control=7 value=107 time=84\n",
      "control_change channel=5 control=7 value=104 time=5\n",
      "control_change channel=5 control=7 value=103 time=5\n",
      "control_change channel=5 control=7 value=99 time=50\n",
      "control_change channel=5 control=7 value=97 time=5\n",
      "control_change channel=5 control=7 value=96 time=5\n",
      "control_change channel=5 control=7 value=95 time=15\n",
      "control_change channel=5 control=7 value=94 time=33\n",
      "control_change channel=5 control=7 value=92 time=28\n",
      "control_change channel=5 control=7 value=89 time=5\n",
      "control_change channel=5 control=7 value=88 time=30\n",
      "control_change channel=5 control=7 value=87 time=15\n",
      "control_change channel=5 control=7 value=84 time=20\n",
      "control_change channel=5 control=7 value=83 time=20\n",
      "control_change channel=5 control=7 value=82 time=30\n",
      "control_change channel=5 control=7 value=81 time=20\n",
      "control_change channel=5 control=7 value=80 time=10\n",
      "note_on channel=5 note=39 velocity=0 time=126\n",
      "control_change channel=5 control=7 value=82 time=29\n",
      "control_change channel=5 control=7 value=84 time=5\n",
      "control_change channel=5 control=7 value=85 time=25\n",
      "control_change channel=5 control=7 value=86 time=25\n",
      "control_change channel=5 control=7 value=87 time=0\n",
      "control_change channel=5 control=7 value=89 time=47\n",
      "control_change channel=5 control=7 value=92 time=5\n",
      "control_change channel=5 control=7 value=93 time=10\n",
      "control_change channel=5 control=7 value=96 time=55\n",
      "control_change channel=5 control=7 value=97 time=10\n",
      "control_change channel=5 control=7 value=98 time=5\n",
      "note_on channel=5 note=32 velocity=49 time=6\n",
      "control_change channel=5 control=7 value=99 time=128\n",
      "control_change channel=5 control=7 value=100 time=30\n",
      "control_change channel=5 control=7 value=103 time=69\n",
      "control_change channel=5 control=7 value=104 time=20\n",
      "control_change channel=5 control=7 value=105 time=112\n",
      "control_change channel=5 control=7 value=106 time=76\n",
      "control_change channel=5 control=7 value=108 time=10\n",
      "control_change channel=5 control=7 value=110 time=12\n",
      "control_change channel=5 control=7 value=111 time=35\n",
      "control_change channel=5 control=7 value=117 time=24\n",
      "control_change channel=5 control=7 value=118 time=65\n",
      "control_change channel=5 control=7 value=119 time=66\n",
      "control_change channel=5 control=7 value=120 time=11\n",
      "control_change channel=5 control=7 value=122 time=15\n",
      "control_change channel=5 control=7 value=124 time=5\n",
      "control_change channel=5 control=7 value=125 time=5\n",
      "control_change channel=5 control=7 value=126 time=112\n",
      "control_change channel=5 control=7 value=127 time=50\n",
      "note_on channel=5 note=32 velocity=0 time=246\n",
      "MetaMessage('end_of_track', time=0)\n",
      "Track 3: Pan Flute 3\n",
      "MetaMessage('midi_port', port=0, time=0)\n",
      "MetaMessage('track_name', name='Pan Flute 3', time=0)\n",
      "control_change channel=13 control=0 value=0 time=0\n",
      "program_change channel=13 program=75 time=0\n",
      "control_change channel=13 control=7 value=89 time=0\n",
      "control_change channel=13 control=10 value=45 time=0\n",
      "control_change channel=13 control=7 value=89 time=246\n",
      "control_change channel=13 control=7 value=88 time=22\n",
      "note_on channel=13 note=76 velocity=82 time=0\n",
      "control_change channel=13 control=7 value=87 time=5\n",
      "control_change channel=13 control=7 value=85 time=5\n",
      "control_change channel=13 control=7 value=82 time=5\n",
      "control_change channel=13 control=7 value=78 time=0\n",
      "control_change channel=13 control=7 value=75 time=5\n",
      "control_change channel=13 control=7 value=74 time=5\n",
      "control_change channel=13 control=7 value=73 time=10\n",
      "control_change channel=13 control=7 value=71 time=5\n",
      "note_on channel=13 note=76 velocity=0 time=8\n",
      "control_change channel=13 control=7 value=70 time=2\n",
      "note_on channel=13 note=78 velocity=70 time=0\n",
      "control_change channel=13 control=7 value=64 time=15\n",
      "control_change channel=13 control=7 value=61 time=0\n",
      "control_change channel=13 control=7 value=57 time=5\n",
      "control_change channel=13 control=7 value=54 time=5\n",
      "control_change channel=13 control=7 value=52 time=5\n",
      "control_change channel=13 control=7 value=49 time=5\n",
      "control_change channel=13 control=7 value=48 time=4\n",
      "control_change channel=13 control=7 value=47 time=4\n",
      "control_change channel=13 control=7 value=45 time=4\n",
      "note_on channel=13 note=78 velocity=0 time=3\n",
      "control_change channel=13 control=7 value=43 time=0\n",
      "note_on channel=13 note=80 velocity=64 time=5\n",
      "pitchwheel channel=13 pitch=-955 time=1\n",
      "pitchwheel channel=13 pitch=-955 time=0\n",
      "control_change channel=13 control=7 value=40 time=1\n",
      "pitchwheel channel=13 pitch=-955 time=0\n",
      "pitchwheel channel=13 pitch=-2545 time=0\n",
      "pitchwheel channel=13 pitch=-2545 time=1\n",
      "pitchwheel channel=13 pitch=-2545 time=0\n",
      "pitchwheel channel=13 pitch=-4334 time=2\n",
      "pitchwheel channel=13 pitch=-4334 time=0\n",
      "pitchwheel channel=13 pitch=-4334 time=0\n",
      "control_change channel=13 control=7 value=38 time=1\n",
      "pitchwheel channel=13 pitch=-5290 time=0\n",
      "pitchwheel channel=13 pitch=-5290 time=1\n",
      "pitchwheel channel=13 pitch=-5290 time=0\n",
      "pitchwheel channel=13 pitch=-6263 time=2\n",
      "pitchwheel channel=13 pitch=-6263 time=0\n",
      "pitchwheel channel=13 pitch=-6263 time=0\n",
      "pitchwheel channel=13 pitch=-6621 time=1\n",
      "pitchwheel channel=13 pitch=-6621 time=0\n",
      "pitchwheel channel=13 pitch=-6621 time=0\n",
      "control_change channel=13 control=7 value=37 time=1\n",
      "control_change channel=13 control=7 value=36 time=4\n",
      "pitchwheel channel=13 pitch=-5802 time=6\n",
      "pitchwheel channel=13 pitch=-5802 time=0\n",
      "pitchwheel channel=13 pitch=-5802 time=0\n",
      "pitchwheel channel=13 pitch=-5091 time=2\n",
      "pitchwheel channel=13 pitch=-5091 time=0\n",
      "pitchwheel channel=13 pitch=-5091 time=0\n",
      "pitchwheel channel=13 pitch=-4334 time=2\n",
      "pitchwheel channel=13 pitch=-4334 time=0\n",
      "pitchwheel channel=13 pitch=-4334 time=0\n",
      "pitchwheel channel=13 pitch=-3242 time=1\n",
      "pitchwheel channel=13 pitch=-3242 time=1\n",
      "pitchwheel channel=13 pitch=-3242 time=0\n",
      "pitchwheel channel=13 pitch=-2247 time=1\n",
      "pitchwheel channel=13 pitch=-2247 time=0\n",
      "pitchwheel channel=13 pitch=-2247 time=0\n",
      "pitchwheel channel=13 pitch=-955 time=2\n",
      "pitchwheel channel=13 pitch=-955 time=1\n",
      "pitchwheel channel=13 pitch=-955 time=0\n",
      "pitchwheel channel=13 pitch=0 time=1\n",
      "pitchwheel channel=13 pitch=0 time=0\n",
      "pitchwheel channel=13 pitch=0 time=0\n",
      "control_change channel=13 control=7 value=35 time=1\n",
      "control_change channel=13 control=7 value=38 time=34\n",
      "control_change channel=13 control=7 value=42 time=5\n",
      "control_change channel=13 control=7 value=52 time=0\n",
      "control_change channel=13 control=7 value=53 time=5\n",
      "control_change channel=13 control=7 value=54 time=8\n",
      "control_change channel=13 control=7 value=56 time=2\n",
      "control_change channel=13 control=7 value=57 time=10\n",
      "control_change channel=13 control=7 value=61 time=61\n",
      "control_change channel=13 control=7 value=63 time=0\n",
      "control_change channel=13 control=7 value=64 time=20\n",
      "control_change channel=13 control=7 value=65 time=10\n",
      "control_change channel=13 control=7 value=66 time=5\n",
      "pitchwheel channel=13 pitch=-477 time=100\n",
      "pitchwheel channel=13 pitch=-477 time=1\n",
      "pitchwheel channel=13 pitch=-477 time=0\n",
      "pitchwheel channel=13 pitch=-1364 time=2\n",
      "pitchwheel channel=13 pitch=-1364 time=0\n",
      "pitchwheel channel=13 pitch=-1364 time=0\n",
      "pitchwheel channel=13 pitch=-2446 time=1\n",
      "pitchwheel channel=13 pitch=-2446 time=0\n",
      "pitchwheel channel=13 pitch=-2446 time=0\n",
      "note_on channel=13 note=81 velocity=65 time=2\n",
      "pitchwheel channel=13 pitch=-3412 time=1\n",
      "pitchwheel channel=13 pitch=-3412 time=0\n",
      "pitchwheel channel=13 pitch=-3412 time=0\n",
      "pitchwheel channel=13 pitch=-4454 time=0\n",
      "control_change channel=13 control=7 value=64 time=1\n",
      "pitchwheel channel=13 pitch=-4454 time=0\n",
      "pitchwheel channel=13 pitch=-4454 time=0\n",
      "pitchwheel channel=13 pitch=-4892 time=1\n",
      "pitchwheel channel=13 pitch=-4892 time=0\n",
      "pitchwheel channel=13 pitch=-4892 time=1\n",
      "control_change channel=13 control=7 value=63 time=1\n",
      "pitchwheel channel=13 pitch=-5290 time=0\n",
      "pitchwheel channel=13 pitch=-5290 time=1\n",
      "pitchwheel channel=13 pitch=-5290 time=0\n",
      "control_change channel=13 control=7 value=62 time=3\n",
      "control_change channel=13 control=7 value=61 time=5\n",
      "pitchwheel channel=13 pitch=-4792 time=2\n",
      "pitchwheel channel=13 pitch=-4792 time=0\n",
      "pitchwheel channel=13 pitch=-4792 time=1\n",
      "pitchwheel channel=13 pitch=-4334 time=1\n",
      "pitchwheel channel=13 pitch=-4334 time=0\n",
      "pitchwheel channel=13 pitch=-4334 time=0\n",
      "control_change channel=13 control=7 value=57 time=1\n",
      "pitchwheel channel=13 pitch=-3583 time=1\n",
      "pitchwheel channel=13 pitch=-3583 time=0\n",
      "pitchwheel channel=13 pitch=-3583 time=1\n",
      "control_change channel=13 control=7 value=56 time=1\n",
      "pitchwheel channel=13 pitch=-2883 time=0\n",
      "pitchwheel channel=13 pitch=-2883 time=0\n",
      "pitchwheel channel=13 pitch=-2883 time=0\n",
      "pitchwheel channel=13 pitch=-2346 time=2\n",
      "pitchwheel channel=13 pitch=-2346 time=0\n",
      "pitchwheel channel=13 pitch=-2346 time=0\n",
      "pitchwheel channel=13 pitch=-1706 time=1\n",
      "pitchwheel channel=13 pitch=-1706 time=0\n",
      "pitchwheel channel=13 pitch=-1706 time=0\n",
      "control_change channel=13 control=7 value=55 time=2\n",
      "pitchwheel channel=13 pitch=-955 time=0\n",
      "pitchwheel channel=13 pitch=-955 time=0\n",
      "pitchwheel channel=13 pitch=-955 time=0\n",
      "pitchwheel channel=13 pitch=-477 time=2\n",
      "pitchwheel channel=13 pitch=-477 time=0\n",
      "pitchwheel channel=13 pitch=-477 time=0\n",
      "pitchwheel channel=13 pitch=0 time=2\n",
      "pitchwheel channel=13 pitch=0 time=0\n",
      "pitchwheel channel=13 pitch=0 time=0\n",
      "control_change channel=13 control=7 value=52 time=1\n",
      "control_change channel=13 control=7 value=50 time=5\n",
      "note_on channel=13 note=81 velocity=0 time=2\n",
      "note_on channel=13 note=78 velocity=54 time=1\n",
      "control_change channel=13 control=7 value=49 time=4\n",
      "control_change channel=13 control=7 value=45 time=2\n",
      "note_on channel=13 note=80 velocity=0 time=5\n",
      "control_change channel=13 control=7 value=38 time=9\n",
      "control_change channel=13 control=7 value=37 time=6\n",
      "note_on channel=13 note=76 velocity=64 time=4\n",
      "note_on channel=13 note=78 velocity=0 time=5\n",
      "note_on channel=13 note=78 velocity=52 time=24\n",
      "pitchwheel channel=13 pitch=-477 time=5\n",
      "pitchwheel channel=13 pitch=-477 time=0\n",
      "pitchwheel channel=13 pitch=-477 time=0\n",
      "pitchwheel channel=13 pitch=-835 time=2\n",
      "pitchwheel channel=13 pitch=-835 time=0\n",
      "pitchwheel channel=13 pitch=-835 time=1\n",
      "note_on channel=13 note=76 velocity=0 time=1\n",
      "pitchwheel channel=13 pitch=-1535 time=2\n",
      "pitchwheel channel=13 pitch=-1535 time=0\n",
      "pitchwheel channel=13 pitch=-1535 time=0\n",
      "pitchwheel channel=13 pitch=-1877 time=1\n",
      "pitchwheel channel=13 pitch=-1877 time=0\n",
      "pitchwheel channel=13 pitch=-1877 time=0\n",
      "pitchwheel channel=13 pitch=-2247 time=3\n",
      "pitchwheel channel=13 pitch=-2247 time=0\n",
      "pitchwheel channel=13 pitch=-2247 time=0\n",
      "control_change channel=13 control=7 value=38 time=1\n",
      "pitchwheel channel=13 pitch=-2545 time=0\n",
      "pitchwheel channel=13 pitch=-2545 time=0\n",
      "pitchwheel channel=13 pitch=-2545 time=0\n",
      "control_change channel=13 control=7 value=39 time=8\n",
      "control_change channel=13 control=7 value=40 time=5\n",
      "pitchwheel channel=13 pitch=-1877 time=0\n",
      "pitchwheel channel=13 pitch=-1877 time=0\n",
      "pitchwheel channel=13 pitch=-1877 time=0\n",
      "pitchwheel channel=13 pitch=-1364 time=1\n",
      "pitchwheel channel=13 pitch=-1364 time=1\n",
      "pitchwheel channel=13 pitch=-1364 time=0\n",
      "pitchwheel channel=13 pitch=-835 time=1\n",
      "pitchwheel channel=13 pitch=-835 time=0\n",
      "control_change channel=13 control=7 value=43 time=1\n",
      "pitchwheel channel=13 pitch=-835 time=0\n",
      "pitchwheel channel=13 pitch=-358 time=1\n",
      "pitchwheel channel=13 pitch=-358 time=0\n",
      "pitchwheel channel=13 pitch=-358 time=0\n",
      "pitchwheel channel=13 pitch=0 time=1\n",
      "pitchwheel channel=13 pitch=0 time=0\n",
      "pitchwheel channel=13 pitch=0 time=1\n",
      "control_change channel=13 control=7 value=44 time=5\n",
      "control_change channel=13 control=7 value=47 time=13\n",
      "control_change channel=13 control=7 value=49 time=15\n",
      "note_on channel=13 note=83 velocity=54 time=5\n",
      "note_on channel=13 note=78 velocity=0 time=3\n",
      "control_change channel=13 control=7 value=50 time=15\n",
      "control_change channel=13 control=7 value=51 time=24\n",
      "control_change channel=13 control=7 value=52 time=5\n",
      "control_change channel=13 control=7 value=53 time=10\n",
      "control_change channel=13 control=7 value=54 time=79\n",
      "control_change channel=13 control=7 value=56 time=16\n",
      "control_change channel=13 control=7 value=57 time=61\n",
      "control_change channel=13 control=7 value=58 time=5\n",
      "control_change channel=13 control=7 value=59 time=5\n",
      "note_on channel=13 note=83 velocity=0 time=77\n",
      "pitchwheel channel=13 pitch=-238 time=1\n",
      "pitchwheel channel=13 pitch=-238 time=0\n",
      "pitchwheel channel=13 pitch=-238 time=1\n",
      "note_on channel=13 note=81 velocity=62 time=1\n",
      "pitchwheel channel=13 pitch=-716 time=0\n",
      "pitchwheel channel=13 pitch=-716 time=0\n",
      "pitchwheel channel=13 pitch=-716 time=0\n",
      "pitchwheel channel=13 pitch=-1364 time=2\n",
      "pitchwheel channel=13 pitch=-1364 time=0\n",
      "pitchwheel channel=13 pitch=-1364 time=0\n",
      "control_change channel=13 control=7 value=57 time=1\n",
      "pitchwheel channel=13 pitch=-1877 time=0\n",
      "pitchwheel channel=13 pitch=-1877 time=1\n",
      "pitchwheel channel=13 pitch=-1877 time=0\n",
      "control_change channel=13 control=7 value=54 time=3\n",
      "pitchwheel channel=13 pitch=-2346 time=0\n",
      "pitchwheel channel=13 pitch=-2346 time=0\n",
      "pitchwheel channel=13 pitch=-2346 time=0\n",
      "control_change channel=13 control=7 value=52 time=8\n",
      "pitchwheel channel=13 pitch=-1706 time=5\n",
      "pitchwheel channel=13 pitch=-1706 time=0\n",
      "pitchwheel channel=13 pitch=-1706 time=0\n",
      "control_change channel=13 control=7 value=50 time=1\n",
      "pitchwheel channel=13 pitch=-1074 time=0\n",
      "pitchwheel channel=13 pitch=-1074 time=0\n",
      "pitchwheel channel=13 pitch=-1074 time=0\n",
      "pitchwheel channel=13 pitch=-597 time=2\n",
      "pitchwheel channel=13 pitch=-597 time=0\n",
      "pitchwheel channel=13 pitch=-597 time=0\n",
      "control_change channel=13 control=7 value=49 time=2\n",
      "control_change channel=13 control=7 value=45 time=0\n",
      "pitchwheel channel=13 pitch=0 time=0\n",
      "pitchwheel channel=13 pitch=0 time=0\n",
      "pitchwheel channel=13 pitch=0 time=0\n",
      "control_change channel=13 control=7 value=43 time=5\n",
      "control_change channel=13 control=7 value=40 time=8\n",
      "control_change channel=13 control=7 value=38 time=4\n",
      "control_change channel=13 control=7 value=37 time=8\n",
      "note_on channel=13 note=80 velocity=53 time=7\n",
      "note_on channel=13 note=81 velocity=0 time=8\n",
      "control_change channel=13 control=7 value=45 time=15\n",
      "note_on channel=13 note=78 velocity=62 time=6\n",
      "control_change channel=13 control=7 value=49 time=2\n",
      "control_change channel=13 control=7 value=50 time=1\n",
      "control_change channel=13 control=7 value=51 time=5\n",
      "control_change channel=13 control=7 value=52 time=2\n",
      "control_change channel=13 control=7 value=53 time=6\n",
      "note_on channel=13 note=80 velocity=0 time=7\n",
      "note_on channel=13 note=78 velocity=0 time=8\n",
      "note_on channel=13 note=76 velocity=56 time=4\n",
      "pitchwheel channel=13 pitch=-716 time=1\n",
      "pitchwheel channel=13 pitch=-716 time=0\n",
      "pitchwheel channel=13 pitch=-716 time=0\n",
      "pitchwheel channel=13 pitch=-2247 time=2\n",
      "pitchwheel channel=13 pitch=-2247 time=0\n",
      "pitchwheel channel=13 pitch=-2247 time=0\n",
      "pitchwheel channel=13 pitch=-3122 time=1\n",
      "pitchwheel channel=13 pitch=-3122 time=0\n",
      "pitchwheel channel=13 pitch=-3122 time=0\n",
      "pitchwheel channel=13 pitch=-3754 time=2\n",
      "pitchwheel channel=13 pitch=-3754 time=0\n",
      "pitchwheel channel=13 pitch=-3754 time=0\n",
      "pitchwheel channel=13 pitch=-4334 time=2\n",
      "pitchwheel channel=13 pitch=-4334 time=0\n",
      "pitchwheel channel=13 pitch=-4334 time=0\n",
      "pitchwheel channel=13 pitch=-3925 time=8\n",
      "pitchwheel channel=13 pitch=-3925 time=1\n",
      "pitchwheel channel=13 pitch=-3925 time=0\n",
      "pitchwheel channel=13 pitch=-3242 time=2\n",
      "pitchwheel channel=13 pitch=-3242 time=0\n",
      "pitchwheel channel=13 pitch=-3242 time=0\n",
      "pitchwheel channel=13 pitch=-2545 time=1\n",
      "pitchwheel channel=13 pitch=-2545 time=1\n",
      "pitchwheel channel=13 pitch=-2545 time=0\n",
      "pitchwheel channel=13 pitch=-2048 time=1\n",
      "pitchwheel channel=13 pitch=-2048 time=0\n",
      "pitchwheel channel=13 pitch=-2048 time=0\n",
      "pitchwheel channel=13 pitch=-955 time=2\n",
      "pitchwheel channel=13 pitch=-955 time=1\n",
      "pitchwheel channel=13 pitch=-955 time=0\n",
      "pitchwheel channel=13 pitch=0 time=1\n",
      "pitchwheel channel=13 pitch=0 time=0\n",
      "pitchwheel channel=13 pitch=0 time=0\n",
      "control_change channel=13 control=7 value=54 time=20\n",
      "control_change channel=13 control=7 value=57 time=108\n",
      "control_change channel=13 control=7 value=58 time=5\n",
      "note_on channel=13 note=73 velocity=49 time=62\n",
      "note_on channel=13 note=76 velocity=0 time=8\n",
      "control_change channel=13 control=7 value=54 time=80\n",
      "control_change channel=13 control=7 value=52 time=5\n",
      "control_change channel=13 control=7 value=49 time=5\n",
      "control_change channel=13 control=7 value=45 time=5\n"
     ]
    },
    {
     "name": "stdout",
     "output_type": "stream",
     "text": [
      "control_change channel=13 control=7 value=43 time=5\n",
      "control_change channel=13 control=7 value=40 time=10\n",
      "control_change channel=13 control=7 value=38 time=15\n",
      "control_change channel=13 control=7 value=37 time=0\n",
      "pitchwheel channel=13 pitch=-358 time=22\n",
      "pitchwheel channel=13 pitch=-358 time=0\n",
      "pitchwheel channel=13 pitch=-358 time=0\n",
      "pitchwheel channel=13 pitch=-597 time=1\n",
      "pitchwheel channel=13 pitch=-597 time=1\n",
      "pitchwheel channel=13 pitch=-597 time=0\n",
      "pitchwheel channel=13 pitch=-1074 time=3\n",
      "pitchwheel channel=13 pitch=-1074 time=1\n",
      "pitchwheel channel=13 pitch=-1074 time=0\n",
      "pitchwheel channel=13 pitch=-1706 time=3\n",
      "pitchwheel channel=13 pitch=-1706 time=0\n",
      "pitchwheel channel=13 pitch=-1706 time=0\n",
      "pitchwheel channel=13 pitch=-2048 time=4\n",
      "pitchwheel channel=13 pitch=-2048 time=0\n",
      "pitchwheel channel=13 pitch=-2048 time=0\n",
      "note_on channel=13 note=69 velocity=49 time=0\n",
      "control_change channel=13 control=7 value=38 time=2\n",
      "pitchwheel channel=13 pitch=-2346 time=1\n",
      "pitchwheel channel=13 pitch=-2346 time=0\n",
      "pitchwheel channel=13 pitch=-2346 time=0\n",
      "control_change channel=13 control=7 value=39 time=1\n",
      "control_change channel=13 control=7 value=40 time=4\n",
      "note_on channel=13 note=73 velocity=0 time=7\n",
      "control_change channel=13 control=7 value=42 time=3\n",
      "pitchwheel channel=13 pitch=-2048 time=14\n",
      "pitchwheel channel=13 pitch=-2048 time=0\n",
      "pitchwheel channel=13 pitch=-2048 time=0\n",
      "pitchwheel channel=13 pitch=-1706 time=7\n",
      "pitchwheel channel=13 pitch=-1706 time=0\n",
      "pitchwheel channel=13 pitch=-1706 time=0\n",
      "control_change channel=13 control=7 value=45 time=7\n",
      "pitchwheel channel=13 pitch=-1194 time=0\n",
      "pitchwheel channel=13 pitch=-1194 time=0\n",
      "pitchwheel channel=13 pitch=-1194 time=0\n",
      "pitchwheel channel=13 pitch=-835 time=5\n",
      "pitchwheel channel=13 pitch=-835 time=0\n",
      "pitchwheel channel=13 pitch=-835 time=1\n",
      "pitchwheel channel=13 pitch=-477 time=3\n",
      "pitchwheel channel=13 pitch=-477 time=0\n",
      "pitchwheel channel=13 pitch=-477 time=0\n",
      "pitchwheel channel=13 pitch=0 time=5\n",
      "pitchwheel channel=13 pitch=0 time=1\n",
      "pitchwheel channel=13 pitch=0 time=0\n",
      "note_on channel=13 note=71 velocity=61 time=0\n",
      "note_on channel=13 note=69 velocity=0 time=8\n",
      "control_change channel=13 control=91 value=105 time=1\n",
      "control_change channel=13 control=91 value=108 time=0\n",
      "control_change channel=13 control=7 value=46 time=6\n",
      "control_change channel=13 control=7 value=47 time=8\n",
      "control_change channel=13 control=7 value=49 time=27\n",
      "control_change channel=13 control=7 value=50 time=15\n",
      "control_change channel=13 control=7 value=51 time=10\n",
      "control_change channel=13 control=7 value=52 time=10\n",
      "control_change channel=13 control=93 value=24 time=86\n",
      "note_on channel=13 note=71 velocity=0 time=119\n",
      "control_change channel=13 control=7 value=49 time=5\n",
      "control_change channel=13 control=7 value=40 time=5\n",
      "control_change channel=13 control=7 value=38 time=5\n",
      "control_change channel=13 control=7 value=37 time=8\n",
      "control_change channel=13 control=7 value=36 time=4\n",
      "control_change channel=13 control=7 value=35 time=1\n",
      "pitchwheel channel=13 pitch=-477 time=6\n",
      "pitchwheel channel=13 pitch=-477 time=0\n",
      "pitchwheel channel=13 pitch=-477 time=0\n",
      "control_change channel=13 control=7 value=34 time=2\n",
      "pitchwheel channel=13 pitch=-1194 time=0\n",
      "pitchwheel channel=13 pitch=-1194 time=0\n",
      "pitchwheel channel=13 pitch=-1194 time=1\n",
      "note_on channel=13 note=76 velocity=61 time=0\n",
      "pitchwheel channel=13 pitch=-2147 time=0\n",
      "pitchwheel channel=13 pitch=-2147 time=1\n",
      "pitchwheel channel=13 pitch=-2147 time=0\n",
      "pitchwheel channel=13 pitch=-2764 time=2\n",
      "pitchwheel channel=13 pitch=-2764 time=0\n",
      "pitchwheel channel=13 pitch=-2764 time=0\n",
      "control_change channel=13 control=7 value=33 time=1\n",
      "pitchwheel channel=13 pitch=-3583 time=0\n",
      "pitchwheel channel=13 pitch=-3583 time=1\n",
      "pitchwheel channel=13 pitch=-3583 time=0\n",
      "pitchwheel channel=13 pitch=-4096 time=1\n",
      "pitchwheel channel=13 pitch=-4096 time=0\n",
      "pitchwheel channel=13 pitch=-4096 time=0\n",
      "control_change channel=13 control=7 value=31 time=7\n",
      "control_change channel=13 control=7 value=30 time=3\n",
      "pitchwheel channel=13 pitch=-3242 time=3\n",
      "pitchwheel channel=13 pitch=-3242 time=0\n",
      "pitchwheel channel=13 pitch=-3242 time=0\n",
      "pitchwheel channel=13 pitch=-2645 time=1\n",
      "pitchwheel channel=13 pitch=-2645 time=0\n",
      "pitchwheel channel=13 pitch=-2645 time=1\n",
      "pitchwheel channel=13 pitch=-2247 time=1\n",
      "pitchwheel channel=13 pitch=-2247 time=0\n",
      "pitchwheel channel=13 pitch=-2247 time=0\n",
      "pitchwheel channel=13 pitch=-1706 time=2\n",
      "pitchwheel channel=13 pitch=-1706 time=0\n",
      "pitchwheel channel=13 pitch=-1706 time=0\n",
      "control_change channel=13 control=7 value=29 time=2\n",
      "pitchwheel channel=13 pitch=-1074 time=0\n",
      "pitchwheel channel=13 pitch=-1074 time=0\n",
      "pitchwheel channel=13 pitch=-1074 time=0\n",
      "pitchwheel channel=13 pitch=-597 time=2\n",
      "pitchwheel channel=13 pitch=-597 time=0\n",
      "pitchwheel channel=13 pitch=-597 time=0\n",
      "pitchwheel channel=13 pitch=-238 time=1\n",
      "pitchwheel channel=13 pitch=-238 time=0\n",
      "pitchwheel channel=13 pitch=-238 time=0\n",
      "pitchwheel channel=13 pitch=0 time=2\n",
      "pitchwheel channel=13 pitch=0 time=0\n",
      "pitchwheel channel=13 pitch=0 time=0\n",
      "note_on channel=13 note=78 velocity=55 time=23\n",
      "note_on channel=13 note=76 velocity=0 time=9\n",
      "control_change channel=13 control=7 value=92 time=11\n",
      "control_change channel=13 control=7 value=30 time=4\n",
      "control_change channel=13 control=7 value=31 time=5\n",
      "control_change channel=13 control=7 value=32 time=2\n",
      "control_change channel=13 control=7 value=33 time=7\n",
      "control_change channel=13 control=7 value=37 time=9\n",
      "note_on channel=13 note=78 velocity=0 time=3\n",
      "control_change channel=13 control=7 value=38 time=0\n",
      "control_change channel=13 control=7 value=39 time=4\n",
      "note_on channel=13 note=80 velocity=58 time=3\n",
      "pitchwheel channel=13 pitch=-597 time=4\n",
      "pitchwheel channel=13 pitch=-597 time=1\n",
      "pitchwheel channel=13 pitch=-597 time=0\n",
      "pitchwheel channel=13 pitch=-1194 time=1\n",
      "pitchwheel channel=13 pitch=-1194 time=0\n",
      "pitchwheel channel=13 pitch=-1194 time=0\n",
      "control_change channel=13 control=7 value=40 time=1\n",
      "pitchwheel channel=13 pitch=-1706 time=0\n",
      "pitchwheel channel=13 pitch=-1706 time=1\n",
      "pitchwheel channel=13 pitch=-1706 time=0\n",
      "control_change channel=13 control=7 value=42 time=3\n",
      "pitchwheel channel=13 pitch=-2048 time=0\n",
      "pitchwheel channel=13 pitch=-2048 time=1\n",
      "pitchwheel channel=13 pitch=-2048 time=0\n",
      "control_change channel=13 control=7 value=43 time=8\n",
      "pitchwheel channel=13 pitch=-1706 time=0\n",
      "pitchwheel channel=13 pitch=-1706 time=1\n",
      "pitchwheel channel=13 pitch=-1706 time=0\n",
      "pitchwheel channel=13 pitch=-955 time=3\n",
      "pitchwheel channel=13 pitch=-955 time=1\n",
      "pitchwheel channel=13 pitch=-955 time=0\n",
      "pitchwheel channel=13 pitch=-597 time=1\n",
      "pitchwheel channel=13 pitch=-597 time=0\n",
      "pitchwheel channel=13 pitch=-597 time=0\n",
      "control_change channel=13 control=7 value=44 time=2\n",
      "pitchwheel channel=13 pitch=-238 time=0\n",
      "pitchwheel channel=13 pitch=-238 time=0\n",
      "pitchwheel channel=13 pitch=-238 time=0\n",
      "pitchwheel channel=13 pitch=0 time=2\n",
      "pitchwheel channel=13 pitch=0 time=0\n",
      "pitchwheel channel=13 pitch=0 time=0\n",
      "control_change channel=13 control=7 value=90 time=20\n",
      "control_change channel=13 control=7 value=87 time=10\n",
      "control_change channel=13 control=7 value=45 time=5\n",
      "control_change channel=13 control=7 value=85 time=0\n",
      "control_change channel=13 control=7 value=46 time=5\n",
      "control_change channel=13 control=7 value=84 time=0\n",
      "control_change channel=13 control=7 value=47 time=47\n",
      "control_change channel=13 control=7 value=49 time=0\n",
      "control_change channel=13 control=7 value=85 time=23\n",
      "control_change channel=13 control=7 value=86 time=5\n",
      "control_change channel=13 control=7 value=87 time=30\n",
      "control_change channel=13 control=7 value=52 time=29\n",
      "control_change channel=13 control=7 value=53 time=0\n",
      "control_change channel=13 control=7 value=49 time=92\n",
      "control_change channel=13 control=7 value=48 time=5\n",
      "control_change channel=13 control=7 value=47 time=5\n",
      "control_change channel=13 control=7 value=43 time=2\n",
      "pitchwheel channel=13 pitch=-597 time=7\n",
      "pitchwheel channel=13 pitch=-597 time=0\n",
      "pitchwheel channel=13 pitch=-597 time=0\n",
      "pitchwheel channel=13 pitch=-1535 time=1\n",
      "pitchwheel channel=13 pitch=-1535 time=1\n",
      "pitchwheel channel=13 pitch=-1535 time=0\n",
      "note_on channel=13 note=80 velocity=0 time=1\n",
      "control_change channel=13 control=7 value=42 time=1\n",
      "pitchwheel channel=13 pitch=-2446 time=0\n",
      "pitchwheel channel=13 pitch=-2446 time=0\n",
      "pitchwheel channel=13 pitch=-2446 time=0\n",
      "pitchwheel channel=13 pitch=-3003 time=2\n",
      "pitchwheel channel=13 pitch=-3003 time=0\n",
      "pitchwheel channel=13 pitch=-3003 time=0\n",
      "note_on channel=13 note=81 velocity=64 time=1\n",
      "pitchwheel channel=13 pitch=-3583 time=1\n",
      "pitchwheel channel=13 pitch=-3583 time=0\n",
      "pitchwheel channel=13 pitch=-3583 time=0\n",
      "pitchwheel channel=13 pitch=-4215 time=3\n",
      "pitchwheel channel=13 pitch=-4215 time=0\n",
      "pitchwheel channel=13 pitch=-4215 time=0\n",
      "control_change channel=13 control=7 value=41 time=5\n",
      "pitchwheel channel=13 pitch=-3583 time=4\n",
      "pitchwheel channel=13 pitch=-3583 time=0\n",
      "pitchwheel channel=13 pitch=-3583 time=0\n",
      "pitchwheel channel=13 pitch=-3003 time=1\n",
      "pitchwheel channel=13 pitch=-3003 time=0\n",
      "pitchwheel channel=13 pitch=-3003 time=1\n",
      "note_on channel=13 note=80 velocity=55 time=0\n",
      "pitchwheel channel=13 pitch=-2545 time=1\n",
      "pitchwheel channel=13 pitch=-2545 time=1\n",
      "pitchwheel channel=13 pitch=-2545 time=0\n",
      "control_change channel=13 control=7 value=40 time=1\n",
      "pitchwheel channel=13 pitch=-2048 time=0\n",
      "pitchwheel channel=13 pitch=-2048 time=0\n",
      "pitchwheel channel=13 pitch=-2048 time=0\n",
      "pitchwheel channel=13 pitch=-1194 time=1\n",
      "pitchwheel channel=13 pitch=-1194 time=1\n",
      "pitchwheel channel=13 pitch=-1194 time=0\n",
      "pitchwheel channel=13 pitch=-597 time=1\n",
      "pitchwheel channel=13 pitch=-597 time=0\n",
      "pitchwheel channel=13 pitch=-597 time=1\n",
      "pitchwheel channel=13 pitch=0 time=1\n",
      "pitchwheel channel=13 pitch=0 time=1\n",
      "pitchwheel channel=13 pitch=0 time=0\n",
      "note_on channel=13 note=81 velocity=0 time=6\n",
      "control_change channel=13 control=7 value=43 time=10\n",
      "note_on channel=13 note=78 velocity=56 time=0\n",
      "note_on channel=13 note=80 velocity=0 time=13\n",
      "control_change channel=13 control=7 value=44 time=0\n",
      "control_change channel=13 control=7 value=45 time=2\n",
      "note_on channel=13 note=76 velocity=56 time=11\n",
      "note_on channel=13 note=78 velocity=0 time=2\n",
      "control_change channel=13 control=7 value=49 time=5\n",
      "control_change channel=13 control=7 value=50 time=7\n",
      "control_change channel=13 control=7 value=51 time=4\n",
      "pitchwheel channel=13 pitch=-597 time=11\n",
      "pitchwheel channel=13 pitch=-597 time=0\n",
      "pitchwheel channel=13 pitch=-597 time=0\n",
      "note_on channel=13 note=78 velocity=55 time=1\n",
      "control_change channel=13 control=7 value=52 time=1\n",
      "pitchwheel channel=13 pitch=-1364 time=1\n",
      "pitchwheel channel=13 pitch=-1364 time=0\n",
      "pitchwheel channel=13 pitch=-1364 time=0\n",
      "pitchwheel channel=13 pitch=-2048 time=0\n",
      "pitchwheel channel=13 pitch=-2048 time=1\n",
      "pitchwheel channel=13 pitch=-2048 time=0\n",
      "pitchwheel channel=13 pitch=-2346 time=2\n",
      "pitchwheel channel=13 pitch=-2346 time=0\n",
      "pitchwheel channel=13 pitch=-2346 time=0\n",
      "pitchwheel channel=13 pitch=-2545 time=2\n",
      "pitchwheel channel=13 pitch=-2545 time=1\n",
      "pitchwheel channel=13 pitch=-2545 time=0\n",
      "note_on channel=13 note=76 velocity=0 time=4\n",
      "pitchwheel channel=13 pitch=-2346 time=4\n",
      "pitchwheel channel=13 pitch=-2346 time=0\n",
      "pitchwheel channel=13 pitch=-2346 time=0\n",
      "pitchwheel channel=13 pitch=-2048 time=1\n",
      "pitchwheel channel=13 pitch=-2048 time=0\n",
      "pitchwheel channel=13 pitch=-2048 time=0\n",
      "pitchwheel channel=13 pitch=-1535 time=2\n",
      "pitchwheel channel=13 pitch=-1535 time=0\n",
      "pitchwheel channel=13 pitch=-1535 time=0\n",
      "pitchwheel channel=13 pitch=-955 time=1\n",
      "pitchwheel channel=13 pitch=-955 time=1\n",
      "pitchwheel channel=13 pitch=-955 time=0\n",
      "control_change channel=13 control=7 value=53 time=2\n",
      "pitchwheel channel=13 pitch=-477 time=0\n",
      "pitchwheel channel=13 pitch=-477 time=0\n",
      "pitchwheel channel=13 pitch=-477 time=0\n",
      "pitchwheel channel=13 pitch=0 time=1\n",
      "pitchwheel channel=13 pitch=0 time=1\n",
      "pitchwheel channel=13 pitch=0 time=0\n",
      "control_change channel=13 control=7 value=54 time=11\n",
      "control_change channel=13 control=7 value=56 time=0\n",
      "note_on channel=13 note=83 velocity=68 time=30\n",
      "note_on channel=13 note=78 velocity=0 time=8\n",
      "control_change channel=13 control=7 value=55 time=201\n",
      "control_change channel=13 control=7 value=54 time=23\n",
      "control_change channel=13 control=7 value=52 time=8\n",
      "pitchwheel channel=13 pitch=-238 time=5\n",
      "pitchwheel channel=13 pitch=-238 time=1\n",
      "pitchwheel channel=13 pitch=-238 time=0\n",
      "pitchwheel channel=13 pitch=-955 time=1\n",
      "pitchwheel channel=13 pitch=-955 time=0\n",
      "pitchwheel channel=13 pitch=-955 time=0\n",
      "pitchwheel channel=13 pitch=-1706 time=2\n",
      "pitchwheel channel=13 pitch=-1706 time=0\n",
      "pitchwheel channel=13 pitch=-1706 time=0\n",
      "note_on channel=13 note=80 velocity=56 time=1\n",
      "note_on channel=13 note=83 velocity=0 time=1\n",
      "control_change channel=13 control=7 value=49 time=0\n",
      "pitchwheel channel=13 pitch=-2346 time=1\n",
      "pitchwheel channel=13 pitch=-2346 time=0\n",
      "pitchwheel channel=13 pitch=-2346 time=0\n",
      "pitchwheel channel=13 pitch=-2645 time=0\n",
      "pitchwheel channel=13 pitch=-2645 time=1\n",
      "pitchwheel channel=13 pitch=-2645 time=0\n",
      "pitchwheel channel=13 pitch=-3122 time=1\n",
      "pitchwheel channel=13 pitch=-3122 time=0\n",
      "pitchwheel channel=13 pitch=-3122 time=0\n",
      "pitchwheel channel=13 pitch=-3583 time=4\n",
      "pitchwheel channel=13 pitch=-3583 time=0\n",
      "pitchwheel channel=13 pitch=-3583 time=0\n",
      "control_change channel=13 control=7 value=45 time=8\n",
      "pitchwheel channel=13 pitch=-2883 time=0\n",
      "pitchwheel channel=13 pitch=-2883 time=1\n",
      "pitchwheel channel=13 pitch=-2883 time=0\n",
      "pitchwheel channel=13 pitch=-2545 time=2\n",
      "pitchwheel channel=13 pitch=-2545 time=0\n",
      "pitchwheel channel=13 pitch=-2545 time=0\n",
      "pitchwheel channel=13 pitch=-2147 time=0\n",
      "control_change channel=13 control=7 value=43 time=1\n",
      "pitchwheel channel=13 pitch=-2147 time=0\n",
      "pitchwheel channel=13 pitch=-2147 time=0\n",
      "control_change channel=13 control=7 value=42 time=3\n",
      "pitchwheel channel=13 pitch=-1535 time=0\n",
      "pitchwheel channel=13 pitch=-1535 time=0\n",
      "pitchwheel channel=13 pitch=-1535 time=0\n",
      "pitchwheel channel=13 pitch=-716 time=0\n",
      "pitchwheel channel=13 pitch=-716 time=1\n",
      "pitchwheel channel=13 pitch=-716 time=0\n",
      "pitchwheel channel=13 pitch=-119 time=2\n",
      "pitchwheel channel=13 pitch=-119 time=0\n",
      "pitchwheel channel=13 pitch=-119 time=0\n",
      "control_change channel=13 control=7 value=41 time=1\n",
      "pitchwheel channel=13 pitch=0 time=0\n",
      "pitchwheel channel=13 pitch=0 time=1\n",
      "pitchwheel channel=13 pitch=0 time=0\n",
      "control_change channel=13 control=7 value=38 time=4\n",
      "control_change channel=13 control=7 value=35 time=3\n",
      "control_change channel=13 control=7 value=34 time=4\n",
      "control_change channel=13 control=7 value=33 time=4\n",
      "control_change channel=13 control=7 value=31 time=4\n",
      "note_on channel=13 note=83 velocity=85 time=15\n",
      "note_on channel=13 note=80 velocity=0 time=7\n",
      "control_change channel=13 control=7 value=32 time=18\n",
      "control_change channel=13 control=7 value=33 time=6\n",
      "control_change channel=13 control=7 value=35 time=7\n",
      "control_change channel=13 control=7 value=37 time=11\n",
      "pitchwheel channel=13 pitch=-597 time=0\n",
      "pitchwheel channel=13 pitch=-597 time=1\n",
      "pitchwheel channel=13 pitch=-597 time=0\n",
      "pitchwheel channel=13 pitch=-1364 time=2\n",
      "pitchwheel channel=13 pitch=-1364 time=0\n",
      "pitchwheel channel=13 pitch=-1364 time=0\n",
      "pitchwheel channel=13 pitch=-2147 time=0\n",
      "pitchwheel channel=13 pitch=-2147 time=1\n",
      "pitchwheel channel=13 pitch=-2147 time=0\n",
      "note_on channel=13 note=83 velocity=0 time=2\n",
      "pitchwheel channel=13 pitch=-2645 time=0\n",
      "pitchwheel channel=13 pitch=-2645 time=1\n",
      "pitchwheel channel=13 pitch=-2645 time=0\n",
      "pitchwheel channel=13 pitch=-3122 time=1\n",
      "pitchwheel channel=13 pitch=-3122 time=0\n",
      "control_change channel=13 control=7 value=38 time=1\n",
      "pitchwheel channel=13 pitch=-3122 time=0\n",
      "note_on channel=13 note=85 velocity=55 time=0\n",
      "pitchwheel channel=13 pitch=-3583 time=2\n",
      "pitchwheel channel=13 pitch=-3583 time=0\n",
      "pitchwheel channel=13 pitch=-3583 time=0\n",
      "control_change channel=13 control=7 value=39 time=1\n",
      "control_change channel=13 control=7 value=40 time=4\n",
      "pitchwheel channel=13 pitch=-3122 time=6\n",
      "pitchwheel channel=13 pitch=-3122 time=0\n",
      "pitchwheel channel=13 pitch=-3122 time=1\n",
      "pitchwheel channel=13 pitch=-2545 time=3\n",
      "pitchwheel channel=13 pitch=-2545 time=0\n",
      "pitchwheel channel=13 pitch=-2545 time=1\n",
      "pitchwheel channel=13 pitch=-2247 time=1\n",
      "pitchwheel channel=13 pitch=-2247 time=0\n",
      "pitchwheel channel=13 pitch=-2247 time=0\n",
      "pitchwheel channel=13 pitch=-1877 time=2\n",
      "pitchwheel channel=13 pitch=-1877 time=0\n",
      "pitchwheel channel=13 pitch=-1877 time=0\n",
      "pitchwheel channel=13 pitch=-1535 time=1\n",
      "pitchwheel channel=13 pitch=-1535 time=0\n",
      "pitchwheel channel=13 pitch=-1535 time=0\n",
      "pitchwheel channel=13 pitch=-1074 time=3\n",
      "pitchwheel channel=13 pitch=-1074 time=0\n",
      "pitchwheel channel=13 pitch=-1074 time=0\n",
      "pitchwheel channel=13 pitch=-597 time=1\n",
      "pitchwheel channel=13 pitch=-597 time=0\n",
      "pitchwheel channel=13 pitch=-597 time=0\n",
      "pitchwheel channel=13 pitch=-358 time=2\n",
      "pitchwheel channel=13 pitch=-358 time=0\n",
      "pitchwheel channel=13 pitch=-358 time=0\n",
      "pitchwheel channel=13 pitch=0 time=3\n",
      "pitchwheel channel=13 pitch=0 time=1\n",
      "pitchwheel channel=13 pitch=0 time=0\n",
      "control_change channel=13 control=7 value=42 time=5\n",
      "control_change channel=13 control=7 value=43 time=6\n",
      "control_change channel=13 control=7 value=44 time=4\n",
      "control_change channel=13 control=7 value=45 time=5\n",
      "control_change channel=13 control=7 value=46 time=0\n",
      "control_change channel=13 control=7 value=47 time=5\n",
      "control_change channel=13 control=7 value=49 time=22\n",
      "control_change channel=13 control=7 value=50 time=10\n",
      "control_change channel=13 control=7 value=51 time=5\n",
      "control_change channel=13 control=7 value=85 time=0\n",
      "control_change channel=13 control=7 value=84 time=5\n",
      "control_change channel=13 control=7 value=52 time=5\n",
      "control_change channel=13 control=7 value=53 time=5\n",
      "control_change channel=13 control=7 value=83 time=1\n",
      "control_change channel=13 control=7 value=54 time=16\n",
      "control_change channel=13 control=7 value=56 time=3\n",
      "control_change channel=13 control=7 value=82 time=0\n",
      "control_change channel=13 control=7 value=81 time=24\n",
      "control_change channel=13 control=7 value=57 time=5\n",
      "control_change channel=13 control=7 value=80 time=0\n",
      "control_change channel=13 control=7 value=58 time=7\n",
      "control_change channel=13 control=7 value=78 time=5\n",
      "control_change channel=13 control=7 value=77 time=7\n",
      "control_change channel=13 control=7 value=76 time=5\n",
      "control_change channel=13 control=7 value=75 time=9\n",
      "note_on channel=13 note=83 velocity=57 time=6\n",
      "note_on channel=13 note=85 velocity=0 time=8\n",
      "control_change channel=13 control=7 value=74 time=0\n",
      "control_change channel=13 control=7 value=73 time=7\n",
      "control_change channel=13 control=7 value=71 time=8\n",
      "control_change channel=13 control=7 value=70 time=5\n",
      "control_change channel=13 control=7 value=69 time=10\n",
      "control_change channel=13 control=7 value=80 time=53\n",
      "control_change channel=13 control=7 value=82 time=5\n",
      "control_change channel=13 control=7 value=84 time=5\n",
      "control_change channel=13 control=7 value=85 time=5\n",
      "control_change channel=13 control=7 value=86 time=3\n",
      "control_change channel=13 control=7 value=87 time=5\n",
      "control_change channel=13 control=7 value=57 time=13\n",
      "control_change channel=13 control=7 value=89 time=1\n",
      "control_change channel=13 control=7 value=56 time=4\n",
      "control_change channel=13 control=7 value=90 time=0\n",
      "pitchwheel channel=13 pitch=-119 time=10\n",
      "pitchwheel channel=13 pitch=-119 time=1\n",
      "pitchwheel channel=13 pitch=-119 time=0\n",
      "pitchwheel channel=13 pitch=-597 time=2\n",
      "pitchwheel channel=13 pitch=-597 time=0\n",
      "pitchwheel channel=13 pitch=-597 time=0\n",
      "pitchwheel channel=13 pitch=-1364 time=1\n",
      "pitchwheel channel=13 pitch=-1364 time=1\n",
      "pitchwheel channel=13 pitch=-1364 time=0\n",
      "pitchwheel channel=13 pitch=-2247 time=2\n",
      "pitchwheel channel=13 pitch=-2247 time=0\n",
      "pitchwheel channel=13 pitch=-2247 time=0\n",
      "pitchwheel channel=13 pitch=-2764 time=2\n",
      "pitchwheel channel=13 pitch=-2764 time=0\n",
      "pitchwheel channel=13 pitch=-2764 time=0\n",
      "pitchwheel channel=13 pitch=-3242 time=1\n",
      "pitchwheel channel=13 pitch=-3242 time=0\n",
      "pitchwheel channel=13 pitch=-3242 time=0\n",
      "control_change channel=13 control=7 value=55 time=1\n",
      "control_change channel=13 control=7 value=97 time=1\n",
      "control_change channel=13 control=7 value=98 time=1\n",
      "note_on channel=13 note=80 velocity=49 time=1\n",
      "pitchwheel channel=13 pitch=-3583 time=0\n",
      "pitchwheel channel=13 pitch=-3583 time=0\n",
      "pitchwheel channel=13 pitch=-3583 time=0\n",
      "control_change channel=13 control=7 value=54 time=2\n",
      "control_change channel=13 control=7 value=99 time=0\n",
      "control_change channel=13 control=7 value=52 time=4\n",
      "control_change channel=13 control=7 value=100 time=1\n",
      "pitchwheel channel=13 pitch=-3122 time=0\n",
      "pitchwheel channel=13 pitch=-3122 time=0\n",
      "pitchwheel channel=13 pitch=-3122 time=0\n",
      "pitchwheel channel=13 pitch=-2645 time=2\n",
      "pitchwheel channel=13 pitch=-2645 time=0\n",
      "pitchwheel channel=13 pitch=-2645 time=0\n",
      "pitchwheel channel=13 pitch=-2048 time=1\n",
      "pitchwheel channel=13 pitch=-2048 time=0\n",
      "control_change channel=13 control=7 value=50 time=1\n",
      "pitchwheel channel=13 pitch=-2048 time=0\n",
      "pitchwheel channel=13 pitch=-1074 time=1\n",
      "pitchwheel channel=13 pitch=-1074 time=0\n",
      "pitchwheel channel=13 pitch=-1074 time=0\n",
      "note_on channel=13 note=83 velocity=0 time=1\n",
      "control_change channel=13 control=7 value=101 time=0\n",
      "pitchwheel channel=13 pitch=-119 time=1\n",
      "control_change channel=13 control=7 value=49 time=1\n",
      "pitchwheel channel=13 pitch=-119 time=0\n",
      "pitchwheel channel=13 pitch=-119 time=0\n",
      "control_change channel=13 control=7 value=103 time=1\n",
      "pitchwheel channel=13 pitch=0 time=0\n",
      "pitchwheel channel=13 pitch=0 time=0\n",
      "pitchwheel channel=13 pitch=0 time=0\n",
      "control_change channel=13 control=7 value=43 time=14\n",
      "control_change channel=13 control=7 value=104 time=1\n",
      "control_change channel=13 control=7 value=105 time=0\n",
      "control_change channel=13 control=7 value=38 time=10\n",
      "control_change channel=13 control=7 value=37 time=4\n",
      "control_change channel=13 control=7 value=36 time=5\n",
      "control_change channel=13 control=7 value=104 time=20\n",
      "note_on channel=13 note=78 velocity=58 time=0\n",
      "control_change channel=13 control=7 value=103 time=5\n",
      "note_on channel=13 note=80 velocity=0 time=6\n",
      "control_change channel=13 control=7 value=102 time=0\n",
      "control_change channel=13 control=7 value=101 time=4\n",
      "control_change channel=13 control=7 value=40 time=5\n",
      "control_change channel=13 control=7 value=99 time=0\n",
      "control_change channel=13 control=7 value=97 time=5\n",
      "control_change channel=13 control=7 value=42 time=3\n",
      "control_change channel=13 control=7 value=96 time=3\n",
      "control_change channel=13 control=7 value=43 time=4\n",
      "control_change channel=13 control=7 value=95 time=0\n",
      "control_change channel=13 control=7 value=44 time=5\n",
      "control_change channel=13 control=7 value=45 time=5\n",
      "control_change channel=13 control=7 value=94 time=0\n",
      "control_change channel=13 control=7 value=92 time=5\n",
      "control_change channel=13 control=7 value=90 time=10\n",
      "control_change channel=13 control=7 value=46 time=12\n",
      "control_change channel=13 control=7 value=89 time=0\n",
      "control_change channel=13 control=7 value=47 time=15\n",
      "control_change channel=13 control=7 value=50 time=4\n",
      "control_change channel=13 control=7 value=88 time=0\n",
      "control_change channel=13 control=7 value=51 time=10\n",
      "control_change channel=13 control=7 value=52 time=5\n",
      "control_change channel=13 control=7 value=87 time=0\n",
      "control_change channel=13 control=7 value=85 time=22\n",
      "control_change channel=13 control=7 value=53 time=5\n",
      "control_change channel=13 control=7 value=84 time=5\n",
      "control_change channel=13 control=7 value=83 time=0\n",
      "control_change channel=13 control=7 value=82 time=5\n",
      "control_change channel=13 control=7 value=81 time=17\n",
      "control_change channel=13 control=7 value=80 time=12\n",
      "control_change channel=13 control=7 value=78 time=7\n",
      "control_change channel=13 control=7 value=54 time=5\n",
      "control_change channel=13 control=7 value=77 time=0\n",
      "control_change channel=13 control=7 value=57 time=5\n",
      "control_change channel=13 control=7 value=76 time=5\n",
      "control_change channel=13 control=7 value=75 time=37\n",
      "control_change channel=13 control=7 value=74 time=25\n",
      "control_change channel=13 control=7 value=75 time=31\n",
      "control_change channel=13 control=7 value=78 time=5\n",
      "control_change channel=13 control=7 value=79 time=0\n",
      "control_change channel=13 control=7 value=80 time=10\n",
      "control_change channel=13 control=7 value=82 time=4\n",
      "control_change channel=13 control=7 value=84 time=5\n",
      "control_change channel=13 control=7 value=85 time=9\n",
      "control_change channel=13 control=7 value=86 time=5\n",
      "control_change channel=13 control=7 value=87 time=3\n",
      "control_change channel=13 control=7 value=89 time=5\n",
      "control_change channel=13 control=7 value=90 time=5\n",
      "control_change channel=13 control=7 value=91 time=5\n",
      "control_change channel=13 control=7 value=92 time=15\n",
      "control_change channel=13 control=7 value=52 time=10\n",
      "control_change channel=13 control=7 value=50 time=0\n",
      "control_change channel=13 control=7 value=49 time=5\n",
      "control_change channel=13 control=7 value=48 time=5\n",
      "control_change channel=13 control=7 value=47 time=5\n",
      "control_change channel=13 control=7 value=45 time=4\n",
      "pitchwheel channel=13 pitch=-358 time=8\n",
      "pitchwheel channel=13 pitch=-358 time=0\n",
      "pitchwheel channel=13 pitch=-358 time=0\n",
      "control_change channel=13 control=7 value=42 time=1\n",
      "control_change channel=13 control=7 value=41 time=2\n",
      "pitchwheel channel=13 pitch=-597 time=0\n",
      "pitchwheel channel=13 pitch=-597 time=0\n",
      "pitchwheel channel=13 pitch=-597 time=0\n",
      "pitchwheel channel=13 pitch=-1074 time=4\n",
      "pitchwheel channel=13 pitch=-1074 time=0\n",
      "pitchwheel channel=13 pitch=-1074 time=0\n",
      "pitchwheel channel=13 pitch=-1535 time=3\n",
      "pitchwheel channel=13 pitch=-1535 time=0\n",
      "pitchwheel channel=13 pitch=-1535 time=1\n",
      "control_change channel=13 control=7 value=40 time=4\n",
      "pitchwheel channel=13 pitch=-1877 time=0\n",
      "pitchwheel channel=13 pitch=-1877 time=1\n",
      "pitchwheel channel=13 pitch=-1877 time=0\n",
      "control_change channel=13 control=7 value=38 time=3\n",
      "control_change channel=13 control=7 value=37 time=5\n",
      "control_change channel=13 control=7 value=36 time=4\n",
      "pitchwheel channel=13 pitch=-1535 time=5\n",
      "pitchwheel channel=13 pitch=-1535 time=1\n",
      "pitchwheel channel=13 pitch=-1535 time=0\n",
      "note_on channel=13 note=76 velocity=47 time=4\n",
      "pitchwheel channel=13 pitch=-1074 time=1\n",
      "pitchwheel channel=13 pitch=-1074 time=1\n",
      "pitchwheel channel=13 pitch=-1074 time=0\n",
      "pitchwheel channel=13 pitch=-716 time=3\n",
      "pitchwheel channel=13 pitch=-716 time=0\n",
      "pitchwheel channel=13 pitch=-716 time=0\n",
      "pitchwheel channel=13 pitch=-477 time=3\n",
      "pitchwheel channel=13 pitch=-477 time=0\n",
      "control_change channel=13 control=7 value=90 time=1\n",
      "pitchwheel channel=13 pitch=-477 time=0\n",
      "pitchwheel channel=13 pitch=-119 time=4\n",
      "pitchwheel channel=13 pitch=-119 time=1\n",
      "pitchwheel channel=13 pitch=-119 time=0\n",
      "note_on channel=13 note=78 velocity=0 time=3\n",
      "control_change channel=13 control=7 value=89 time=0\n",
      "pitchwheel channel=13 pitch=0 time=2\n",
      "pitchwheel channel=13 pitch=0 time=0\n",
      "pitchwheel channel=13 pitch=0 time=0\n",
      "control_change channel=13 control=7 value=88 time=1\n",
      "control_change channel=13 control=7 value=43 time=14\n",
      "control_change channel=13 control=7 value=87 time=0\n",
      "control_change channel=13 control=7 value=85 time=5\n",
      "control_change channel=13 control=7 value=84 time=0\n",
      "control_change channel=13 control=7 value=44 time=5\n",
      "control_change channel=13 control=7 value=83 time=0\n",
      "control_change channel=13 control=7 value=82 time=17\n",
      "control_change channel=13 control=7 value=45 time=8\n",
      "control_change channel=13 control=7 value=81 time=0\n",
      "control_change channel=13 control=7 value=80 time=8\n",
      "control_change channel=13 control=7 value=78 time=3\n",
      "control_change channel=13 control=7 value=77 time=5\n",
      "control_change channel=13 control=7 value=46 time=5\n",
      "control_change channel=13 control=7 value=76 time=1\n",
      "control_change channel=13 control=7 value=75 time=5\n",
      "control_change channel=13 control=7 value=74 time=5\n",
      "control_change channel=13 control=7 value=73 time=5\n",
      "control_change channel=13 control=7 value=71 time=5\n",
      "control_change channel=13 control=7 value=70 time=5\n",
      "control_change channel=13 control=7 value=69 time=5\n",
      "control_change channel=13 control=7 value=68 time=10\n",
      "control_change channel=13 control=7 value=67 time=0\n",
      "control_change channel=13 control=7 value=66 time=6\n",
      "control_change channel=13 control=7 value=64 time=5\n",
      "control_change channel=13 control=7 value=63 time=5\n",
      "control_change channel=13 control=7 value=62 time=4\n",
      "control_change channel=13 control=7 value=61 time=5\n",
      "control_change channel=13 control=7 value=45 time=5\n",
      "control_change channel=13 control=7 value=59 time=0\n",
      "control_change channel=13 control=7 value=56 time=5\n",
      "control_change channel=13 control=7 value=43 time=5\n",
      "control_change channel=13 control=7 value=55 time=5\n",
      "control_change channel=13 control=7 value=42 time=2\n",
      "control_change channel=13 control=7 value=54 time=8\n",
      "control_change channel=13 control=7 value=41 time=5\n",
      "control_change channel=13 control=7 value=52 time=0\n",
      "control_change channel=13 control=7 value=50 time=5\n",
      "control_change channel=13 control=7 value=40 time=2\n",
      "control_change channel=13 control=7 value=49 time=0\n",
      "control_change channel=13 control=7 value=48 time=7\n",
      "control_change channel=13 control=7 value=38 time=9\n",
      "control_change channel=13 control=7 value=45 time=0\n",
      "control_change channel=13 control=7 value=43 time=9\n",
      "control_change channel=13 control=7 value=42 time=0\n",
      "note_on channel=13 note=76 velocity=0 time=5\n",
      "control_change channel=13 control=7 value=37 time=5\n",
      "control_change channel=13 control=7 value=36 time=0\n",
      "control_change channel=13 control=7 value=38 time=0\n",
      "control_change channel=13 control=7 value=37 time=5\n",
      "control_change channel=13 control=7 value=35 time=6\n",
      "control_change channel=13 control=7 value=33 time=0\n",
      "control_change channel=13 control=7 value=31 time=5\n",
      "control_change channel=13 control=7 value=30 time=0\n",
      "control_change channel=13 control=7 value=29 time=5\n",
      "control_change channel=13 control=7 value=31 time=10\n",
      "control_change channel=13 control=7 value=28 time=0\n",
      "control_change channel=13 control=7 value=27 time=5\n",
      "control_change channel=13 control=7 value=26 time=2\n",
      "control_change channel=13 control=7 value=24 time=5\n",
      "control_change channel=13 control=7 value=23 time=5\n",
      "control_change channel=13 control=7 value=19 time=5\n",
      "control_change channel=13 control=7 value=30 time=5\n",
      "control_change channel=13 control=7 value=17 time=0\n",
      "control_change channel=13 control=7 value=16 time=5\n",
      "control_change channel=13 control=7 value=29 time=5\n",
      "control_change channel=13 control=7 value=15 time=0\n",
      "control_change channel=13 control=7 value=14 time=21\n",
      "control_change channel=13 control=7 value=12 time=5\n",
      "control_change channel=13 control=7 value=26 time=5\n",
      "control_change channel=13 control=7 value=10 time=0\n",
      "control_change channel=13 control=7 value=9 time=6\n",
      "control_change channel=13 control=7 value=8 time=5\n",
      "control_change channel=13 control=7 value=24 time=5\n",
      "control_change channel=13 control=7 value=23 time=5\n",
      "control_change channel=13 control=7 value=7 time=0\n",
      "control_change channel=13 control=7 value=19 time=5\n",
      "control_change channel=13 control=7 value=5 time=10\n",
      "control_change channel=13 control=7 value=3 time=0\n",
      "control_change channel=13 control=7 value=2 time=5\n",
      "control_change channel=13 control=7 value=17 time=5\n",
      "control_change channel=13 control=7 value=16 time=5\n",
      "control_change channel=13 control=7 value=15 time=5\n",
      "control_change channel=13 control=7 value=1 time=0\n",
      "control_change channel=13 control=7 value=14 time=5\n",
      "control_change channel=13 control=7 value=0 time=10\n",
      "control_change channel=13 control=7 value=12 time=5\n",
      "control_change channel=13 control=7 value=10 time=3\n",
      "control_change channel=13 control=7 value=9 time=9\n",
      "control_change channel=13 control=7 value=8 time=5\n",
      "control_change channel=13 control=7 value=7 time=20\n",
      "control_change channel=13 control=7 value=2 time=20\n",
      "control_change channel=13 control=7 value=1 time=13\n",
      "control_change channel=13 control=7 value=0 time=28\n",
      "control_change channel=13 control=7 value=3 time=3049\n",
      "control_change channel=13 control=7 value=7 time=34\n",
      "control_change channel=13 control=7 value=10 time=5\n",
      "control_change channel=13 control=7 value=11 time=5\n",
      "control_change channel=13 control=7 value=12 time=5\n",
      "control_change channel=13 control=7 value=13 time=5\n",
      "control_change channel=13 control=7 value=14 time=10\n",
      "control_change channel=13 control=7 value=16 time=5\n",
      "control_change channel=13 control=7 value=17 time=7\n",
      "control_change channel=13 control=7 value=18 time=10\n",
      "control_change channel=13 control=7 value=19 time=11\n",
      "control_change channel=13 control=7 value=20 time=5\n",
      "control_change channel=13 control=7 value=21 time=5\n",
      "control_change channel=13 control=7 value=23 time=10\n",
      "control_change channel=13 control=7 value=24 time=5\n",
      "control_change channel=13 control=7 value=25 time=5\n",
      "control_change channel=13 control=7 value=26 time=18\n",
      "control_change channel=13 control=7 value=28 time=5\n",
      "control_change channel=13 control=7 value=31 time=5\n",
      "control_change channel=13 control=7 value=32 time=5\n",
      "control_change channel=13 control=7 value=33 time=5\n",
      "control_change channel=13 control=7 value=35 time=10\n",
      "control_change channel=13 control=7 value=37 time=5\n",
      "control_change channel=13 control=7 value=40 time=5\n",
      "control_change channel=13 control=7 value=42 time=5\n",
      "control_change channel=13 control=7 value=43 time=5\n",
      "control_change channel=13 control=7 value=44 time=5\n",
      "control_change channel=13 control=7 value=45 time=10\n",
      "control_change channel=13 control=7 value=46 time=10\n",
      "control_change channel=13 control=7 value=47 time=6\n",
      "control_change channel=13 control=7 value=49 time=10\n",
      "control_change channel=13 control=7 value=50 time=10\n",
      "control_change channel=13 control=7 value=51 time=10\n",
      "control_change channel=13 control=7 value=52 time=3\n",
      "control_change channel=13 control=7 value=53 time=15\n",
      "control_change channel=13 control=7 value=54 time=5\n",
      "control_change channel=13 control=7 value=56 time=5\n",
      "control_change channel=13 control=7 value=57 time=5\n",
      "control_change channel=13 control=7 value=58 time=5\n",
      "control_change channel=13 control=7 value=59 time=15\n",
      "control_change channel=13 control=7 value=60 time=5\n",
      "control_change channel=13 control=7 value=61 time=5\n",
      "control_change channel=13 control=7 value=63 time=10\n",
      "control_change channel=13 control=7 value=64 time=20\n",
      "control_change channel=13 control=7 value=65 time=13\n",
      "control_change channel=13 control=7 value=66 time=10\n",
      "control_change channel=13 control=7 value=70 time=11\n",
      "control_change channel=13 control=7 value=71 time=8\n",
      "control_change channel=13 control=7 value=72 time=5\n",
      "control_change channel=13 control=7 value=73 time=10\n",
      "control_change channel=13 control=7 value=75 time=5\n",
      "control_change channel=13 control=7 value=77 time=15\n",
      "control_change channel=13 control=7 value=78 time=5\n",
      "control_change channel=13 control=7 value=79 time=12\n",
      "control_change channel=13 control=7 value=80 time=10\n",
      "control_change channel=13 control=7 value=82 time=30\n",
      "control_change channel=13 control=7 value=84 time=5\n",
      "control_change channel=13 control=7 value=83 time=128\n",
      "control_change channel=13 control=7 value=82 time=25\n",
      "control_change channel=13 control=7 value=81 time=173\n",
      "control_change channel=13 control=7 value=80 time=82\n",
      "control_change channel=13 control=7 value=78 time=10\n",
      "control_change channel=13 control=7 value=77 time=18\n",
      "control_change channel=13 control=7 value=78 time=175\n",
      "control_change channel=13 control=7 value=79 time=165\n",
      "control_change channel=13 control=7 value=80 time=44\n",
      "control_change channel=13 control=7 value=80 time=5381\n",
      "control_change channel=13 control=7 value=82 time=232\n",
      "control_change channel=13 control=7 value=84 time=40\n",
      "control_change channel=13 control=7 value=83 time=90\n",
      "control_change channel=13 control=7 value=82 time=81\n",
      "control_change channel=13 control=7 value=81 time=2\n",
      "control_change channel=13 control=7 value=80 time=161\n",
      "control_change channel=13 control=10 value=52 time=443\n",
      "control_change channel=13 control=10 value=54 time=66\n",
      "control_change channel=13 control=10 value=57 time=5\n",
      "control_change channel=13 control=10 value=60 time=5\n",
      "control_change channel=13 control=10 value=63 time=5\n",
      "control_change channel=13 control=10 value=69 time=12\n",
      "control_change channel=13 control=10 value=72 time=12\n",
      "control_change channel=13 control=10 value=74 time=5\n",
      "control_change channel=13 control=10 value=79 time=15\n",
      "control_change channel=13 control=10 value=81 time=5\n",
      "control_change channel=13 control=10 value=77 time=71\n"
     ]
    },
    {
     "name": "stdout",
     "output_type": "stream",
     "text": [
      "control_change channel=13 control=10 value=74 time=15\n",
      "control_change channel=13 control=10 value=72 time=7\n",
      "control_change channel=13 control=10 value=71 time=5\n",
      "control_change channel=13 control=10 value=68 time=5\n",
      "control_change channel=13 control=10 value=66 time=5\n",
      "control_change channel=13 control=10 value=65 time=23\n",
      "control_change channel=13 control=10 value=63 time=25\n",
      "control_change channel=13 control=10 value=61 time=142\n",
      "control_change channel=13 control=10 value=58 time=13\n",
      "control_change channel=13 control=10 value=56 time=25\n",
      "control_change channel=13 control=91 value=103 time=2637\n",
      "control_change channel=13 control=91 value=100 time=48\n",
      "control_change channel=13 control=91 value=98 time=25\n",
      "control_change channel=13 control=91 value=96 time=5\n",
      "control_change channel=13 control=93 value=26 time=512\n",
      "control_change channel=13 control=93 value=28 time=113\n",
      "control_change channel=13 control=93 value=18 time=21162\n",
      "control_change channel=13 control=93 value=21 time=45\n",
      "control_change channel=13 control=93 value=23 time=5\n",
      "control_change channel=13 control=93 value=37 time=22\n",
      "control_change channel=13 control=93 value=39 time=5\n",
      "control_change channel=13 control=93 value=42 time=54\n",
      "control_change channel=13 control=93 value=43 time=14\n",
      "control_change channel=13 control=93 value=45 time=4\n",
      "control_change channel=13 control=93 value=47 time=5\n",
      "control_change channel=13 control=93 value=48 time=5\n",
      "control_change channel=13 control=93 value=51 time=15\n",
      "control_change channel=13 control=93 value=48 time=103\n",
      "control_change channel=13 control=93 value=47 time=54\n",
      "control_change channel=13 control=93 value=45 time=102\n",
      "control_change channel=13 control=7 value=85 time=480\n",
      "control_change channel=13 control=7 value=84 time=105\n",
      "control_change channel=13 control=7 value=83 time=25\n",
      "control_change channel=13 control=7 value=82 time=365\n",
      "control_change channel=13 control=7 value=81 time=11\n",
      "control_change channel=13 control=7 value=80 time=10\n",
      "control_change channel=13 control=7 value=78 time=43\n",
      "control_change channel=13 control=7 value=77 time=5\n",
      "note_on channel=13 note=76 velocity=28 time=15\n",
      "control_change channel=13 control=7 value=76 time=13\n",
      "note_on channel=13 note=76 velocity=0 time=42\n",
      "note_on channel=13 note=78 velocity=34 time=5\n",
      "control_change channel=13 control=7 value=73 time=8\n",
      "control_change channel=13 control=7 value=71 time=19\n",
      "control_change channel=13 control=7 value=68 time=0\n",
      "note_on channel=13 note=78 velocity=0 time=38\n",
      "control_change channel=13 control=7 value=70 time=7\n",
      "control_change channel=13 control=7 value=71 time=5\n",
      "pitchwheel channel=13 pitch=-716 time=5\n",
      "control_change channel=13 control=7 value=72 time=1\n",
      "pitchwheel channel=13 pitch=-716 time=0\n",
      "pitchwheel channel=13 pitch=-716 time=0\n",
      "pitchwheel channel=13 pitch=-1706 time=2\n",
      "pitchwheel channel=13 pitch=-1706 time=0\n",
      "pitchwheel channel=13 pitch=-1706 time=0\n",
      "pitchwheel channel=13 pitch=-2645 time=2\n",
      "pitchwheel channel=13 pitch=-2645 time=0\n",
      "pitchwheel channel=13 pitch=-2645 time=0\n",
      "control_change channel=13 control=7 value=73 time=3\n",
      "pitchwheel channel=13 pitch=-3583 time=0\n",
      "pitchwheel channel=13 pitch=-3583 time=0\n",
      "pitchwheel channel=13 pitch=-3583 time=0\n",
      "note_on channel=13 note=80 velocity=37 time=1\n",
      "pitchwheel channel=13 pitch=-4693 time=1\n",
      "pitchwheel channel=13 pitch=-4693 time=1\n",
      "pitchwheel channel=13 pitch=-4693 time=0\n",
      "pitchwheel channel=13 pitch=-5190 time=2\n",
      "pitchwheel channel=13 pitch=-5190 time=0\n",
      "pitchwheel channel=13 pitch=-5190 time=0\n",
      "control_change channel=13 control=7 value=75 time=1\n",
      "pitchwheel channel=13 pitch=-5802 time=1\n",
      "pitchwheel channel=13 pitch=-5802 time=0\n",
      "pitchwheel channel=13 pitch=-5802 time=0\n",
      "control_change channel=13 control=7 value=77 time=2\n",
      "control_change channel=13 control=7 value=78 time=7\n",
      "pitchwheel channel=13 pitch=-5190 time=3\n",
      "pitchwheel channel=13 pitch=-5190 time=0\n",
      "pitchwheel channel=13 pitch=-5190 time=0\n",
      "pitchwheel channel=13 pitch=-4693 time=2\n",
      "pitchwheel channel=13 pitch=-4693 time=0\n",
      "pitchwheel channel=13 pitch=-4693 time=0\n",
      "control_change channel=13 control=7 value=79 time=2\n",
      "pitchwheel channel=13 pitch=-3122 time=0\n",
      "pitchwheel channel=13 pitch=-3122 time=0\n",
      "pitchwheel channel=13 pitch=-3122 time=0\n",
      "pitchwheel channel=13 pitch=-1364 time=2\n",
      "pitchwheel channel=13 pitch=-1364 time=0\n",
      "pitchwheel channel=13 pitch=-1364 time=1\n",
      "pitchwheel channel=13 pitch=0 time=2\n",
      "control_change channel=13 control=7 value=80 time=1\n",
      "pitchwheel channel=13 pitch=0 time=0\n",
      "pitchwheel channel=13 pitch=0 time=0\n",
      "control_change channel=13 control=7 value=82 time=65\n",
      "control_change channel=13 control=7 value=85 time=49\n",
      "control_change channel=13 control=7 value=86 time=10\n",
      "control_change channel=13 control=7 value=87 time=15\n",
      "control_change channel=13 control=7 value=89 time=52\n",
      "control_change channel=13 control=7 value=90 time=5\n",
      "control_change channel=13 control=7 value=91 time=19\n",
      "control_change channel=13 control=7 value=92 time=15\n",
      "control_change channel=13 control=7 value=93 time=15\n",
      "control_change channel=13 control=7 value=94 time=21\n",
      "control_change channel=13 control=7 value=96 time=5\n",
      "control_change channel=13 control=7 value=97 time=20\n",
      "control_change channel=13 control=7 value=101 time=15\n",
      "control_change channel=13 control=7 value=103 time=10\n",
      "control_change channel=13 control=7 value=104 time=13\n",
      "control_change channel=13 control=7 value=105 time=18\n",
      "control_change channel=13 control=7 value=104 time=51\n",
      "control_change channel=13 control=7 value=103 time=3\n",
      "pitchwheel channel=13 pitch=-835 time=5\n",
      "pitchwheel channel=13 pitch=-835 time=0\n",
      "pitchwheel channel=13 pitch=-835 time=0\n",
      "pitchwheel channel=13 pitch=-2645 time=1\n",
      "pitchwheel channel=13 pitch=-2645 time=1\n",
      "pitchwheel channel=13 pitch=-2645 time=0\n",
      "control_change channel=13 control=7 value=99 time=2\n",
      "pitchwheel channel=13 pitch=-4693 time=0\n",
      "pitchwheel channel=13 pitch=-4693 time=0\n",
      "pitchwheel channel=13 pitch=-4693 time=1\n",
      "note_on channel=13 note=81 velocity=51 time=1\n",
      "pitchwheel channel=13 pitch=-5802 time=2\n",
      "pitchwheel channel=13 pitch=-5802 time=0\n",
      "pitchwheel channel=13 pitch=-5802 time=0\n",
      "note_on channel=13 note=80 velocity=0 time=1\n",
      "pitchwheel channel=13 pitch=-6621 time=0\n",
      "pitchwheel channel=13 pitch=-6621 time=0\n",
      "pitchwheel channel=13 pitch=-6621 time=1\n",
      "pitchwheel channel=13 pitch=-7099 time=1\n",
      "pitchwheel channel=13 pitch=-7099 time=1\n",
      "pitchwheel channel=13 pitch=-7099 time=0\n",
      "control_change channel=13 control=7 value=89 time=3\n",
      "pitchwheel channel=13 pitch=-7480 time=0\n",
      "pitchwheel channel=13 pitch=-7480 time=0\n",
      "pitchwheel channel=13 pitch=-7480 time=0\n",
      "control_change channel=13 control=7 value=88 time=1\n",
      "pitchwheel channel=13 pitch=-7099 time=5\n",
      "pitchwheel channel=13 pitch=-7099 time=1\n",
      "pitchwheel channel=13 pitch=-7099 time=0\n",
      "pitchwheel channel=13 pitch=-6621 time=2\n",
      "pitchwheel channel=13 pitch=-6621 time=0\n",
      "pitchwheel channel=13 pitch=-6621 time=0\n",
      "pitchwheel channel=13 pitch=-5631 time=1\n",
      "pitchwheel channel=13 pitch=-5631 time=1\n",
      "pitchwheel channel=13 pitch=-5631 time=0\n",
      "pitchwheel channel=13 pitch=-4693 time=2\n",
      "pitchwheel channel=13 pitch=-4693 time=0\n",
      "pitchwheel channel=13 pitch=-4693 time=1\n",
      "note_on channel=13 note=80 velocity=25 time=1\n",
      "pitchwheel channel=13 pitch=-2645 time=2\n",
      "pitchwheel channel=13 pitch=-2645 time=0\n",
      "pitchwheel channel=13 pitch=-2645 time=0\n",
      "pitchwheel channel=13 pitch=-119 time=1\n",
      "pitchwheel channel=13 pitch=-119 time=0\n",
      "pitchwheel channel=13 pitch=-119 time=0\n",
      "control_change channel=13 control=7 value=84 time=2\n",
      "pitchwheel channel=13 pitch=0 time=1\n",
      "pitchwheel channel=13 pitch=0 time=0\n",
      "control_change channel=13 control=7 value=83 time=1\n",
      "pitchwheel channel=13 pitch=0 time=0\n",
      "note_on channel=13 note=81 velocity=0 time=12\n",
      "control_change channel=13 control=7 value=82 time=0\n",
      "control_change channel=13 control=7 value=81 time=7\n",
      "note_on channel=13 note=78 velocity=31 time=6\n",
      "control_change channel=13 control=7 value=80 time=4\n",
      "note_on channel=13 note=80 velocity=0 time=13\n",
      "control_change channel=13 control=7 value=78 time=1\n",
      "control_change channel=13 control=7 value=77 time=7\n",
      "note_on channel=13 note=76 velocity=33 time=13\n",
      "note_on channel=13 note=78 velocity=0 time=7\n",
      "control_change channel=13 control=7 value=80 time=14\n",
      "control_change channel=13 control=7 value=84 time=6\n",
      "pitchwheel channel=13 pitch=-119 time=9\n",
      "pitchwheel channel=13 pitch=-119 time=1\n",
      "pitchwheel channel=13 pitch=-119 time=0\n",
      "pitchwheel channel=13 pitch=-1194 time=1\n",
      "pitchwheel channel=13 pitch=-1194 time=0\n",
      "pitchwheel channel=13 pitch=-1194 time=1\n",
      "pitchwheel channel=13 pitch=-3122 time=1\n",
      "pitchwheel channel=13 pitch=-3122 time=1\n",
      "pitchwheel channel=13 pitch=-3122 time=0\n",
      "pitchwheel channel=13 pitch=-5290 time=3\n",
      "pitchwheel channel=13 pitch=-5290 time=0\n",
      "pitchwheel channel=13 pitch=-5290 time=0\n",
      "note_on channel=13 note=78 velocity=32 time=1\n",
      "pitchwheel channel=13 pitch=-7218 time=1\n",
      "pitchwheel channel=13 pitch=-7218 time=0\n",
      "pitchwheel channel=13 pitch=-7218 time=1\n",
      "pitchwheel channel=13 pitch=-8192 time=2\n",
      "pitchwheel channel=13 pitch=-8192 time=0\n",
      "pitchwheel channel=13 pitch=-8192 time=0\n",
      "note_on channel=13 note=76 velocity=0 time=4\n",
      "control_change channel=13 control=7 value=87 time=10\n",
      "pitchwheel channel=13 pitch=-7622 time=0\n",
      "pitchwheel channel=13 pitch=-7622 time=0\n",
      "pitchwheel channel=13 pitch=-7622 time=0\n",
      "pitchwheel channel=13 pitch=-6144 time=2\n",
      "pitchwheel channel=13 pitch=-6144 time=0\n",
      "pitchwheel channel=13 pitch=-6144 time=0\n",
      "pitchwheel channel=13 pitch=-3412 time=2\n",
      "pitchwheel channel=13 pitch=-3412 time=0\n",
      "pitchwheel channel=13 pitch=-3412 time=1\n",
      "pitchwheel channel=13 pitch=0 time=1\n",
      "pitchwheel channel=13 pitch=0 time=1\n",
      "pitchwheel channel=13 pitch=0 time=0\n",
      "control_change channel=13 control=7 value=89 time=3\n",
      "pitchwheel channel=13 pitch=1092 time=0\n",
      "pitchwheel channel=13 pitch=1092 time=0\n",
      "pitchwheel channel=13 pitch=1092 time=0\n",
      "pitchwheel channel=13 pitch=-358 time=1\n",
      "pitchwheel channel=13 pitch=-358 time=1\n",
      "pitchwheel channel=13 pitch=-358 time=0\n",
      "control_change channel=13 control=7 value=90 time=2\n",
      "pitchwheel channel=13 pitch=0 time=0\n",
      "pitchwheel channel=13 pitch=0 time=0\n",
      "pitchwheel channel=13 pitch=0 time=0\n",
      "control_change channel=13 control=7 value=91 time=21\n",
      "note_on channel=13 note=83 velocity=29 time=32\n",
      "note_on channel=13 note=78 velocity=0 time=1\n",
      "control_change channel=13 control=7 value=94 time=5\n",
      "control_change channel=13 control=7 value=96 time=40\n",
      "control_change channel=13 control=7 value=97 time=20\n",
      "control_change channel=13 control=7 value=98 time=114\n",
      "control_change channel=13 control=7 value=99 time=19\n",
      "note_on channel=13 note=83 velocity=0 time=94\n",
      "pitchwheel channel=13 pitch=136 time=3\n",
      "pitchwheel channel=13 pitch=136 time=1\n",
      "pitchwheel channel=13 pitch=136 time=0\n",
      "pitchwheel channel=13 pitch=1502 time=2\n",
      "pitchwheel channel=13 pitch=1502 time=0\n",
      "pitchwheel channel=13 pitch=1502 time=0\n",
      "control_change channel=13 control=7 value=97 time=1\n",
      "pitchwheel channel=13 pitch=3686 time=1\n",
      "pitchwheel channel=13 pitch=3686 time=0\n",
      "pitchwheel channel=13 pitch=3686 time=0\n",
      "note_on channel=13 note=81 velocity=38 time=2\n",
      "pitchwheel channel=13 pitch=4779 time=0\n",
      "pitchwheel channel=13 pitch=4779 time=1\n",
      "pitchwheel channel=13 pitch=4779 time=0\n",
      "pitchwheel channel=13 pitch=5598 time=1\n",
      "pitchwheel channel=13 pitch=5598 time=1\n",
      "pitchwheel channel=13 pitch=5598 time=0\n",
      "pitchwheel channel=13 pitch=6417 time=2\n",
      "pitchwheel channel=13 pitch=6417 time=0\n",
      "pitchwheel channel=13 pitch=6417 time=0\n",
      "pitchwheel channel=13 pitch=1366 time=4\n",
      "pitchwheel channel=13 pitch=1366 time=1\n",
      "pitchwheel channel=13 pitch=1366 time=0\n",
      "control_change channel=13 control=7 value=96 time=2\n",
      "pitchwheel channel=13 pitch=-2346 time=0\n",
      "pitchwheel channel=13 pitch=-2346 time=0\n",
      "pitchwheel channel=13 pitch=-2346 time=1\n",
      "pitchwheel channel=13 pitch=0 time=0\n",
      "pitchwheel channel=13 pitch=0 time=1\n",
      "pitchwheel channel=13 pitch=0 time=0\n",
      "pitchwheel channel=13 pitch=546 time=3\n",
      "pitchwheel channel=13 pitch=546 time=1\n",
      "pitchwheel channel=13 pitch=546 time=0\n",
      "pitchwheel channel=13 pitch=0 time=2\n",
      "pitchwheel channel=13 pitch=0 time=0\n",
      "pitchwheel channel=13 pitch=0 time=0\n",
      "control_change channel=13 control=7 value=95 time=5\n",
      "control_change channel=13 control=7 value=92 time=5\n",
      "control_change channel=13 control=7 value=90 time=10\n",
      "control_change channel=13 control=7 value=89 time=21\n",
      "control_change channel=13 control=7 value=88 time=1\n",
      "control_change channel=13 control=7 value=87 time=8\n",
      "control_change channel=13 control=7 value=85 time=7\n",
      "note_on channel=13 note=80 velocity=35 time=0\n",
      "note_on channel=13 note=81 velocity=0 time=2\n",
      "note_on channel=13 note=78 velocity=34 time=25\n",
      "control_change channel=13 control=7 value=89 time=4\n",
      "control_change channel=13 control=7 value=99 time=5\n",
      "note_on channel=13 note=80 velocity=0 time=4\n",
      "pitchwheel channel=13 pitch=409 time=29\n",
      "pitchwheel channel=13 pitch=409 time=0\n",
      "pitchwheel channel=13 pitch=409 time=0\n",
      "pitchwheel channel=13 pitch=1502 time=2\n",
      "pitchwheel channel=13 pitch=1502 time=1\n",
      "pitchwheel channel=13 pitch=1502 time=0\n",
      "note_on channel=13 note=78 velocity=0 time=2\n",
      "note_on channel=13 note=76 velocity=40 time=0\n",
      "pitchwheel channel=13 pitch=2731 time=0\n",
      "pitchwheel channel=13 pitch=2731 time=0\n",
      "pitchwheel channel=13 pitch=2731 time=1\n",
      "pitchwheel channel=13 pitch=4642 time=2\n",
      "pitchwheel channel=13 pitch=4642 time=0\n",
      "pitchwheel channel=13 pitch=4642 time=0\n",
      "pitchwheel channel=13 pitch=6280 time=2\n",
      "pitchwheel channel=13 pitch=6280 time=0\n",
      "pitchwheel channel=13 pitch=6280 time=0\n",
      "pitchwheel channel=13 pitch=4779 time=2\n",
      "pitchwheel channel=13 pitch=4779 time=0\n",
      "pitchwheel channel=13 pitch=4779 time=0\n",
      "pitchwheel channel=13 pitch=1775 time=2\n",
      "pitchwheel channel=13 pitch=1775 time=1\n",
      "pitchwheel channel=13 pitch=1775 time=0\n",
      "pitchwheel channel=13 pitch=-1364 time=2\n",
      "pitchwheel channel=13 pitch=-1364 time=0\n",
      "pitchwheel channel=13 pitch=-1364 time=1\n",
      "pitchwheel channel=13 pitch=0 time=1\n",
      "pitchwheel channel=13 pitch=0 time=1\n",
      "pitchwheel channel=13 pitch=0 time=0\n",
      "control_change channel=13 control=7 value=103 time=8\n",
      "control_change channel=13 control=7 value=104 time=38\n",
      "control_change channel=13 control=7 value=105 time=5\n",
      "control_change channel=13 control=7 value=106 time=21\n",
      "control_change channel=13 control=7 value=108 time=53\n",
      "pitchwheel channel=13 pitch=546 time=95\n",
      "pitchwheel channel=13 pitch=546 time=0\n",
      "pitchwheel channel=13 pitch=546 time=0\n",
      "pitchwheel channel=13 pitch=2275 time=2\n",
      "pitchwheel channel=13 pitch=2275 time=0\n",
      "pitchwheel channel=13 pitch=2275 time=0\n",
      "pitchwheel channel=13 pitch=3959 time=2\n",
      "pitchwheel channel=13 pitch=3959 time=0\n",
      "pitchwheel channel=13 pitch=3959 time=1\n",
      "pitchwheel channel=13 pitch=5598 time=1\n",
      "pitchwheel channel=13 pitch=5598 time=1\n",
      "pitchwheel channel=13 pitch=5598 time=0\n",
      "control_change channel=13 control=7 value=107 time=1\n",
      "note_on channel=13 note=73 velocity=44 time=1\n",
      "pitchwheel channel=13 pitch=7100 time=0\n",
      "pitchwheel channel=13 pitch=7100 time=0\n",
      "pitchwheel channel=13 pitch=7100 time=0\n",
      "pitchwheel channel=13 pitch=8191 time=2\n",
      "pitchwheel channel=13 pitch=8191 time=0\n",
      "pitchwheel channel=13 pitch=8191 time=0\n",
      "control_change channel=13 control=7 value=106 time=5\n",
      "pitchwheel channel=13 pitch=6007 time=5\n",
      "pitchwheel channel=13 pitch=6007 time=1\n",
      "pitchwheel channel=13 pitch=6007 time=0\n",
      "pitchwheel channel=13 pitch=-1706 time=1\n",
      "pitchwheel channel=13 pitch=-1706 time=0\n",
      "pitchwheel channel=13 pitch=-1706 time=1\n",
      "pitchwheel channel=13 pitch=-3122 time=1\n",
      "pitchwheel channel=13 pitch=-3122 time=1\n",
      "pitchwheel channel=13 pitch=-3122 time=0\n",
      "pitchwheel channel=13 pitch=409 time=2\n",
      "pitchwheel channel=13 pitch=409 time=0\n",
      "pitchwheel channel=13 pitch=409 time=0\n",
      "pitchwheel channel=13 pitch=1229 time=3\n",
      "pitchwheel channel=13 pitch=1229 time=0\n",
      "pitchwheel channel=13 pitch=1229 time=0\n",
      "note_on channel=13 note=76 velocity=0 time=2\n",
      "pitchwheel channel=13 pitch=-477 time=0\n",
      "pitchwheel channel=13 pitch=-477 time=1\n",
      "pitchwheel channel=13 pitch=-477 time=0\n",
      "control_change channel=13 control=7 value=104 time=1\n",
      "pitchwheel channel=13 pitch=0 time=0\n",
      "pitchwheel channel=13 pitch=0 time=0\n",
      "pitchwheel channel=13 pitch=0 time=1\n",
      "control_change channel=13 control=7 value=101 time=46\n",
      "control_change channel=13 control=7 value=99 time=5\n",
      "control_change channel=13 control=7 value=97 time=15\n",
      "control_change channel=13 control=7 value=96 time=21\n",
      "control_change channel=13 control=7 value=95 time=5\n",
      "control_change channel=13 control=7 value=94 time=5\n",
      "control_change channel=13 control=7 value=92 time=10\n",
      "control_change channel=13 control=7 value=90 time=12\n",
      "control_change channel=13 control=7 value=85 time=20\n",
      "note_on channel=13 note=69 velocity=43 time=23\n",
      "note_on channel=13 note=73 velocity=0 time=10\n",
      "control_change channel=13 control=7 value=86 time=45\n",
      "control_change channel=13 control=7 value=87 time=13\n",
      "control_change channel=13 control=7 value=89 time=4\n",
      "note_on channel=13 note=71 velocity=42 time=11\n",
      "pitchwheel channel=13 pitch=1229 time=0\n",
      "pitchwheel channel=13 pitch=1229 time=1\n",
      "pitchwheel channel=13 pitch=1229 time=0\n",
      "pitchwheel channel=13 pitch=2275 time=1\n",
      "pitchwheel channel=13 pitch=2275 time=1\n",
      "pitchwheel channel=13 pitch=2275 time=0\n",
      "note_on channel=13 note=69 velocity=0 time=2\n",
      "pitchwheel channel=13 pitch=3004 time=1\n",
      "pitchwheel channel=13 pitch=3004 time=0\n",
      "pitchwheel channel=13 pitch=3004 time=0\n",
      "control_change channel=13 control=7 value=92 time=1\n",
      "pitchwheel channel=13 pitch=3550 time=0\n",
      "pitchwheel channel=13 pitch=3550 time=0\n",
      "pitchwheel channel=13 pitch=3550 time=1\n",
      "pitchwheel channel=13 pitch=3959 time=3\n",
      "pitchwheel channel=13 pitch=3959 time=0\n",
      "pitchwheel channel=13 pitch=3959 time=0\n",
      "pitchwheel channel=13 pitch=4232 time=4\n",
      "pitchwheel channel=13 pitch=4232 time=0\n",
      "pitchwheel channel=13 pitch=4232 time=0\n",
      "control_change channel=13 control=7 value=93 time=8\n",
      "control_change channel=13 control=7 value=94 time=5\n",
      "pitchwheel channel=13 pitch=2389 time=2\n",
      "pitchwheel channel=13 pitch=2389 time=0\n",
      "pitchwheel channel=13 pitch=2389 time=0\n",
      "pitchwheel channel=13 pitch=1638 time=2\n",
      "pitchwheel channel=13 pitch=1638 time=0\n",
      "pitchwheel channel=13 pitch=1638 time=0\n",
      "pitchwheel channel=13 pitch=1366 time=2\n",
      "pitchwheel channel=13 pitch=1366 time=0\n",
      "pitchwheel channel=13 pitch=1366 time=1\n",
      "pitchwheel channel=13 pitch=546 time=4\n",
      "pitchwheel channel=13 pitch=546 time=1\n",
      "pitchwheel channel=13 pitch=546 time=0\n",
      "pitchwheel channel=13 pitch=0 time=2\n",
      "pitchwheel channel=13 pitch=0 time=0\n",
      "pitchwheel channel=13 pitch=0 time=0\n",
      "control_change channel=13 control=7 value=97 time=40\n",
      "control_change channel=13 control=7 value=98 time=24\n",
      "control_change channel=13 control=7 value=99 time=5\n",
      "control_change channel=13 control=7 value=103 time=45\n",
      "control_change channel=13 control=7 value=104 time=14\n",
      "control_change channel=13 control=7 value=105 time=11\n",
      "control_change channel=13 control=7 value=106 time=5\n",
      "control_change channel=13 control=7 value=108 time=50\n",
      "control_change channel=13 control=7 value=110 time=5\n",
      "control_change channel=13 control=7 value=109 time=105\n",
      "control_change channel=13 control=7 value=108 time=6\n",
      "note_on channel=13 note=71 velocity=0 time=6\n",
      "control_change channel=13 control=7 value=104 time=0\n",
      "control_change channel=13 control=7 value=101 time=5\n",
      "control_change channel=13 control=7 value=97 time=8\n",
      "control_change channel=13 control=7 value=94 time=4\n",
      "control_change channel=13 control=7 value=90 time=5\n",
      "control_change channel=13 control=7 value=89 time=5\n",
      "note_on channel=13 note=76 velocity=31 time=10\n",
      "pitchwheel channel=13 pitch=409 time=10\n",
      "pitchwheel channel=13 pitch=409 time=0\n",
      "pitchwheel channel=13 pitch=409 time=0\n",
      "pitchwheel channel=13 pitch=0 time=5\n",
      "pitchwheel channel=13 pitch=0 time=0\n",
      "control_change channel=13 control=7 value=71 time=1\n",
      "pitchwheel channel=13 pitch=0 time=0\n",
      "control_change channel=13 control=7 value=61 time=11\n",
      "control_change channel=13 control=7 value=57 time=5\n",
      "control_change channel=13 control=7 value=56 time=4\n",
      "control_change channel=13 control=7 value=55 time=2\n",
      "control_change channel=13 control=7 value=54 time=6\n",
      "control_change channel=13 control=7 value=52 time=11\n",
      "note_on channel=13 note=78 velocity=42 time=15\n",
      "note_on channel=13 note=76 velocity=0 time=9\n",
      "control_change channel=13 control=7 value=56 time=13\n",
      "control_change channel=13 control=7 value=57 time=6\n",
      "control_change channel=13 control=7 value=68 time=6\n",
      "control_change channel=13 control=7 value=78 time=2\n",
      "control_change channel=13 control=7 value=79 time=9\n",
      "note_on channel=13 note=78 velocity=0 time=6\n",
      "note_on channel=13 note=80 velocity=45 time=14\n",
      "control_change channel=13 control=7 value=80 time=1\n",
      "pitchwheel channel=13 pitch=956 time=1\n",
      "pitchwheel channel=13 pitch=956 time=0\n",
      "pitchwheel channel=13 pitch=956 time=0\n",
      "pitchwheel channel=13 pitch=2503 time=2\n",
      "pitchwheel channel=13 pitch=2503 time=0\n",
      "pitchwheel channel=13 pitch=2503 time=0\n",
      "pitchwheel channel=13 pitch=3959 time=2\n",
      "pitchwheel channel=13 pitch=3959 time=0\n",
      "pitchwheel channel=13 pitch=3959 time=0\n",
      "pitchwheel channel=13 pitch=5006 time=3\n",
      "pitchwheel channel=13 pitch=5006 time=0\n",
      "pitchwheel channel=13 pitch=5006 time=1\n",
      "pitchwheel channel=13 pitch=5734 time=1\n",
      "pitchwheel channel=13 pitch=5734 time=1\n",
      "pitchwheel channel=13 pitch=5734 time=0\n",
      "pitchwheel channel=13 pitch=4892 time=2\n",
      "pitchwheel channel=13 pitch=4892 time=0\n",
      "pitchwheel channel=13 pitch=4892 time=0\n",
      "control_change channel=13 control=7 value=85 time=2\n",
      "pitchwheel channel=13 pitch=4232 time=5\n",
      "pitchwheel channel=13 pitch=4232 time=0\n",
      "pitchwheel channel=13 pitch=4232 time=0\n",
      "pitchwheel channel=13 pitch=3414 time=1\n",
      "pitchwheel channel=13 pitch=3414 time=1\n",
      "pitchwheel channel=13 pitch=3414 time=0\n",
      "pitchwheel channel=13 pitch=546 time=3\n",
      "pitchwheel channel=13 pitch=546 time=0\n",
      "control_change channel=13 control=7 value=86 time=1\n",
      "pitchwheel channel=13 pitch=546 time=0\n",
      "pitchwheel channel=13 pitch=-477 time=0\n",
      "pitchwheel channel=13 pitch=-477 time=1\n",
      "pitchwheel channel=13 pitch=-477 time=0\n",
      "pitchwheel channel=13 pitch=136 time=2\n",
      "pitchwheel channel=13 pitch=136 time=0\n",
      "pitchwheel channel=13 pitch=136 time=1\n",
      "pitchwheel channel=13 pitch=0 time=1\n",
      "pitchwheel channel=13 pitch=0 time=1\n",
      "pitchwheel channel=13 pitch=0 time=0\n",
      "control_change channel=13 control=7 value=89 time=6\n",
      "control_change channel=13 control=7 value=90 time=10\n",
      "control_change channel=13 control=7 value=91 time=29\n",
      "control_change channel=13 control=7 value=94 time=8\n",
      "control_change channel=13 control=7 value=101 time=60\n",
      "control_change channel=13 control=7 value=103 time=35\n",
      "control_change channel=13 control=7 value=104 time=7\n",
      "control_change channel=13 control=7 value=108 time=38\n",
      "control_change channel=13 control=7 value=111 time=5\n",
      "control_change channel=13 control=7 value=112 time=5\n",
      "control_change channel=13 control=7 value=113 time=5\n",
      "control_change channel=13 control=7 value=115 time=42\n",
      "control_change channel=13 control=7 value=117 time=5\n",
      "control_change channel=13 control=7 value=106 time=46\n",
      "control_change channel=13 control=7 value=103 time=10\n",
      "control_change channel=13 control=7 value=102 time=4\n",
      "control_change channel=13 control=7 value=101 time=7\n",
      "pitchwheel channel=13 pitch=-477 time=5\n",
      "pitchwheel channel=13 pitch=-477 time=0\n",
      "pitchwheel channel=13 pitch=-477 time=1\n",
      "note_on channel=13 note=80 velocity=0 time=3\n",
      "pitchwheel channel=13 pitch=-1706 time=0\n",
      "pitchwheel channel=13 pitch=-1706 time=0\n",
      "pitchwheel channel=13 pitch=-1706 time=0\n",
      "control_change channel=13 control=7 value=97 time=2\n",
      "pitchwheel channel=13 pitch=-2883 time=0\n",
      "pitchwheel channel=13 pitch=-2883 time=0\n",
      "pitchwheel channel=13 pitch=-2883 time=0\n",
      "pitchwheel channel=13 pitch=-4215 time=2\n",
      "pitchwheel channel=13 pitch=-4215 time=0\n",
      "pitchwheel channel=13 pitch=-4215 time=0\n",
      "pitchwheel channel=13 pitch=-4892 time=2\n",
      "pitchwheel channel=13 pitch=-4892 time=0\n",
      "pitchwheel channel=13 pitch=-4892 time=1\n",
      "pitchwheel channel=13 pitch=-5631 time=1\n",
      "control_change channel=13 control=7 value=96 time=1\n",
      "pitchwheel channel=13 pitch=-5631 time=0\n",
      "pitchwheel channel=13 pitch=-5631 time=0\n",
      "note_on channel=13 note=81 velocity=41 time=2\n",
      "pitchwheel channel=13 pitch=-6382 time=1\n",
      "pitchwheel channel=13 pitch=-6382 time=0\n",
      "pitchwheel channel=13 pitch=-6382 time=0\n",
      "control_change channel=13 control=7 value=95 time=1\n",
      "pitchwheel channel=13 pitch=-6621 time=0\n",
      "pitchwheel channel=13 pitch=-6621 time=0\n",
      "pitchwheel channel=13 pitch=-6621 time=0\n",
      "pitchwheel channel=13 pitch=-6979 time=5\n",
      "pitchwheel channel=13 pitch=-6979 time=0\n",
      "pitchwheel channel=13 pitch=-6979 time=1\n",
      "pitchwheel channel=13 pitch=-6621 time=5\n",
      "pitchwheel channel=13 pitch=-6621 time=0\n",
      "pitchwheel channel=13 pitch=-6621 time=0\n",
      "pitchwheel channel=13 pitch=-6382 time=1\n",
      "pitchwheel channel=13 pitch=-6382 time=1\n",
      "pitchwheel channel=13 pitch=-6382 time=0\n",
      "pitchwheel channel=13 pitch=-5290 time=2\n",
      "pitchwheel channel=13 pitch=-5290 time=0\n",
      "pitchwheel channel=13 pitch=-5290 time=0\n",
      "pitchwheel channel=13 pitch=-4454 time=2\n",
      "pitchwheel channel=13 pitch=-4454 time=0\n",
      "pitchwheel channel=13 pitch=-4454 time=0\n",
      "pitchwheel channel=13 pitch=-2545 time=2\n",
      "pitchwheel channel=13 pitch=-2545 time=0\n",
      "control_change channel=13 control=7 value=90 time=1\n",
      "pitchwheel channel=13 pitch=-2545 time=0\n",
      "pitchwheel channel=13 pitch=-238 time=2\n",
      "pitchwheel channel=13 pitch=-238 time=1\n",
      "pitchwheel channel=13 pitch=-238 time=0\n",
      "pitchwheel channel=13 pitch=0 time=1\n",
      "pitchwheel channel=13 pitch=0 time=0\n",
      "pitchwheel channel=13 pitch=0 time=1\n",
      "note_on channel=13 note=80 velocity=35 time=5\n",
      "control_change channel=13 control=7 value=84 time=10\n",
      "note_on channel=13 note=81 velocity=0 time=2\n",
      "control_change channel=13 control=7 value=83 time=1\n",
      "control_change channel=13 control=7 value=80 time=7\n",
      "control_change channel=13 control=7 value=77 time=0\n",
      "note_on channel=13 note=78 velocity=37 time=20\n",
      "control_change channel=13 control=7 value=78 time=12\n",
      "note_on channel=13 note=80 velocity=0 time=7\n",
      "control_change channel=13 control=7 value=89 time=0\n",
      "control_change channel=13 control=7 value=92 time=6\n",
      "control_change channel=13 control=7 value=93 time=5\n",
      "note_on channel=13 note=76 velocity=44 time=1\n",
      "note_on channel=13 note=78 velocity=0 time=6\n",
      "control_change channel=13 control=7 value=94 time=0\n",
      "control_change channel=13 control=7 value=96 time=4\n",
      "pitchwheel channel=13 pitch=-597 time=4\n",
      "pitchwheel channel=13 pitch=-597 time=0\n",
      "pitchwheel channel=13 pitch=-597 time=1\n",
      "pitchwheel channel=13 pitch=-2147 time=1\n",
      "pitchwheel channel=13 pitch=-2147 time=1\n",
      "pitchwheel channel=13 pitch=-2147 time=0\n",
      "control_change channel=13 control=7 value=97 time=2\n",
      "pitchwheel channel=13 pitch=-3583 time=0\n",
      "pitchwheel channel=13 pitch=-3583 time=0\n",
      "pitchwheel channel=13 pitch=-3583 time=1\n",
      "pitchwheel channel=13 pitch=-4991 time=1\n",
      "pitchwheel channel=13 pitch=-4991 time=1\n",
      "pitchwheel channel=13 pitch=-4991 time=0\n",
      "control_change channel=13 control=7 value=98 time=1\n",
      "pitchwheel channel=13 pitch=-6382 time=1\n",
      "pitchwheel channel=13 pitch=-6382 time=0\n",
      "pitchwheel channel=13 pitch=-6382 time=0\n",
      "pitchwheel channel=13 pitch=-6979 time=2\n",
      "pitchwheel channel=13 pitch=-6979 time=0\n",
      "pitchwheel channel=13 pitch=-6979 time=0\n",
      "control_change channel=13 control=7 value=99 time=3\n",
      "pitchwheel channel=13 pitch=-7480 time=0\n",
      "pitchwheel channel=13 pitch=-7480 time=0\n",
      "pitchwheel channel=13 pitch=-7480 time=1\n",
      "control_change channel=13 control=7 value=100 time=5\n",
      "pitchwheel channel=13 pitch=-6860 time=6\n",
      "pitchwheel channel=13 pitch=-6860 time=0\n",
      "pitchwheel channel=13 pitch=-6860 time=1\n",
      "pitchwheel channel=13 pitch=-6502 time=1\n",
      "pitchwheel channel=13 pitch=-6502 time=0\n",
      "pitchwheel channel=13 pitch=-6502 time=0\n",
      "note_on channel=13 note=78 velocity=45 time=2\n",
      "pitchwheel channel=13 pitch=-5631 time=0\n",
      "pitchwheel channel=13 pitch=-5631 time=1\n",
      "pitchwheel channel=13 pitch=-5631 time=0\n",
      "pitchwheel channel=13 pitch=-4693 time=2\n",
      "pitchwheel channel=13 pitch=-4693 time=0\n",
      "pitchwheel channel=13 pitch=-4693 time=0\n",
      "control_change channel=13 control=7 value=101 time=2\n",
      "pitchwheel channel=13 pitch=-2545 time=0\n",
      "pitchwheel channel=13 pitch=-2545 time=0\n",
      "pitchwheel channel=13 pitch=-2545 time=1\n",
      "pitchwheel channel=13 pitch=0 time=1\n",
      "control_change channel=13 control=7 value=103 time=1\n",
      "pitchwheel channel=13 pitch=0 time=0\n",
      "pitchwheel channel=13 pitch=0 time=0\n",
      "pitchwheel channel=13 pitch=136 time=2\n",
      "pitchwheel channel=13 pitch=136 time=0\n",
      "pitchwheel channel=13 pitch=136 time=1\n",
      "pitchwheel channel=13 pitch=0 time=1\n",
      "pitchwheel channel=13 pitch=0 time=1\n",
      "pitchwheel channel=13 pitch=0 time=0\n",
      "note_on channel=13 note=76 velocity=0 time=8\n",
      "control_change channel=13 control=7 value=106 time=23\n",
      "control_change channel=13 control=7 value=108 time=0\n",
      "note_on channel=13 note=83 velocity=47 time=28\n",
      "note_on channel=13 note=78 velocity=0 time=10\n",
      "control_change channel=13 control=7 value=107 time=136\n",
      "control_change channel=13 control=7 value=106 time=5\n",
      "control_change channel=13 control=7 value=104 time=15\n",
      "control_change channel=13 control=7 value=101 time=52\n",
      "control_change channel=13 control=7 value=97 time=7\n",
      "control_change channel=13 control=7 value=96 time=15\n",
      "control_change channel=13 control=7 value=95 time=10\n",
      "control_change channel=13 control=7 value=94 time=5\n",
      "control_change channel=13 control=7 value=92 time=8\n",
      "control_change channel=13 control=7 value=89 time=12\n",
      "control_change channel=13 control=7 value=88 time=5\n",
      "control_change channel=13 control=7 value=87 time=6\n",
      "control_change channel=13 control=7 value=85 time=6\n",
      "pitchwheel channel=13 pitch=-238 time=11\n",
      "pitchwheel channel=13 pitch=-238 time=1\n",
      "pitchwheel channel=13 pitch=-238 time=0\n",
      "pitchwheel channel=13 pitch=-716 time=2\n",
      "pitchwheel channel=13 pitch=-716 time=0\n",
      "pitchwheel channel=13 pitch=-716 time=1\n"
     ]
    },
    {
     "name": "stdout",
     "output_type": "stream",
     "text": [
      "pitchwheel channel=13 pitch=-1706 time=1\n",
      "pitchwheel channel=13 pitch=-1706 time=1\n",
      "pitchwheel channel=13 pitch=-1706 time=0\n",
      "pitchwheel channel=13 pitch=-2764 time=2\n",
      "pitchwheel channel=13 pitch=-2764 time=0\n",
      "pitchwheel channel=13 pitch=-2764 time=1\n",
      "pitchwheel channel=13 pitch=-4693 time=1\n",
      "pitchwheel channel=13 pitch=-4693 time=1\n",
      "pitchwheel channel=13 pitch=-4693 time=0\n",
      "control_change channel=13 control=7 value=84 time=2\n",
      "pitchwheel channel=13 pitch=-6860 time=0\n",
      "pitchwheel channel=13 pitch=-6860 time=0\n",
      "pitchwheel channel=13 pitch=-6860 time=0\n",
      "pitchwheel channel=13 pitch=-8192 time=1\n",
      "pitchwheel channel=13 pitch=-8192 time=1\n",
      "pitchwheel channel=13 pitch=-8192 time=0\n",
      "note_on channel=13 note=83 velocity=0 time=2\n",
      "note_on channel=13 note=80 velocity=34 time=3\n",
      "pitchwheel channel=13 pitch=-7622 time=20\n",
      "pitchwheel channel=13 pitch=-7622 time=0\n",
      "pitchwheel channel=13 pitch=-7622 time=0\n",
      "pitchwheel channel=13 pitch=-5290 time=2\n",
      "pitchwheel channel=13 pitch=-5290 time=0\n",
      "pitchwheel channel=13 pitch=-5290 time=0\n",
      "pitchwheel channel=13 pitch=0 time=2\n",
      "pitchwheel channel=13 pitch=0 time=0\n",
      "pitchwheel channel=13 pitch=0 time=0\n",
      "pitchwheel channel=13 pitch=2731 time=2\n",
      "pitchwheel channel=13 pitch=2731 time=0\n",
      "pitchwheel channel=13 pitch=2731 time=1\n",
      "pitchwheel channel=13 pitch=0 time=1\n",
      "pitchwheel channel=13 pitch=0 time=1\n",
      "pitchwheel channel=13 pitch=0 time=0\n",
      "pitchwheel channel=13 pitch=-477 time=3\n",
      "pitchwheel channel=13 pitch=-477 time=0\n",
      "pitchwheel channel=13 pitch=-477 time=0\n",
      "pitchwheel channel=13 pitch=273 time=2\n",
      "pitchwheel channel=13 pitch=273 time=0\n",
      "pitchwheel channel=13 pitch=273 time=0\n",
      "pitchwheel channel=13 pitch=0 time=2\n",
      "pitchwheel channel=13 pitch=0 time=0\n",
      "pitchwheel channel=13 pitch=0 time=0\n",
      "control_change channel=13 control=7 value=97 time=1\n",
      "control_change channel=13 control=7 value=98 time=0\n",
      "note_on channel=13 note=83 velocity=47 time=30\n",
      "note_on channel=13 note=80 velocity=0 time=13\n",
      "control_change channel=13 control=7 value=97 time=16\n",
      "control_change channel=13 control=7 value=94 time=6\n",
      "control_change channel=13 control=7 value=92 time=19\n",
      "note_on channel=13 note=83 velocity=0 time=17\n",
      "control_change channel=13 control=7 value=90 time=4\n",
      "note_on channel=13 note=85 velocity=39 time=10\n",
      "pitchwheel channel=13 pitch=546 time=2\n",
      "pitchwheel channel=13 pitch=546 time=0\n",
      "pitchwheel channel=13 pitch=546 time=0\n",
      "pitchwheel channel=13 pitch=1638 time=1\n",
      "pitchwheel channel=13 pitch=1638 time=1\n",
      "pitchwheel channel=13 pitch=1638 time=0\n",
      "control_change channel=13 control=7 value=87 time=2\n",
      "pitchwheel channel=13 pitch=3277 time=0\n",
      "pitchwheel channel=13 pitch=3277 time=0\n",
      "pitchwheel channel=13 pitch=3277 time=0\n",
      "pitchwheel channel=13 pitch=4779 time=2\n",
      "pitchwheel channel=13 pitch=4779 time=0\n",
      "pitchwheel channel=13 pitch=4779 time=0\n",
      "pitchwheel channel=13 pitch=3277 time=3\n",
      "pitchwheel channel=13 pitch=3277 time=0\n",
      "pitchwheel channel=13 pitch=3277 time=1\n",
      "pitchwheel channel=13 pitch=2867 time=1\n",
      "pitchwheel channel=13 pitch=2867 time=1\n",
      "pitchwheel channel=13 pitch=2867 time=0\n",
      "pitchwheel channel=13 pitch=0 time=1\n",
      "pitchwheel channel=13 pitch=0 time=0\n",
      "pitchwheel channel=13 pitch=0 time=1\n",
      "pitchwheel channel=13 pitch=-477 time=1\n",
      "pitchwheel channel=13 pitch=-477 time=1\n",
      "pitchwheel channel=13 pitch=-477 time=0\n",
      "control_change channel=13 control=7 value=85 time=3\n",
      "pitchwheel channel=13 pitch=136 time=0\n",
      "pitchwheel channel=13 pitch=136 time=0\n",
      "pitchwheel channel=13 pitch=136 time=0\n",
      "pitchwheel channel=13 pitch=0 time=2\n",
      "pitchwheel channel=13 pitch=0 time=0\n",
      "pitchwheel channel=13 pitch=0 time=0\n",
      "control_change channel=13 control=7 value=84 time=10\n",
      "control_change channel=13 control=7 value=83 time=5\n",
      "control_change channel=13 control=7 value=82 time=5\n",
      "control_change channel=13 control=7 value=81 time=5\n",
      "control_change channel=13 control=7 value=78 time=5\n",
      "control_change channel=13 control=7 value=77 time=10\n",
      "control_change channel=13 control=7 value=76 time=5\n",
      "control_change channel=13 control=7 value=73 time=14\n",
      "control_change channel=13 control=7 value=71 time=9\n",
      "control_change channel=13 control=7 value=70 time=5\n",
      "control_change channel=13 control=7 value=69 time=35\n",
      "control_change channel=13 control=7 value=68 time=0\n",
      "control_change channel=13 control=7 value=67 time=25\n",
      "control_change channel=13 control=7 value=66 time=10\n",
      "control_change channel=13 control=7 value=64 time=10\n",
      "control_change channel=13 control=7 value=63 time=10\n",
      "control_change channel=13 control=7 value=62 time=2\n",
      "control_change channel=13 control=7 value=61 time=14\n",
      "control_change channel=13 control=7 value=59 time=6\n",
      "control_change channel=13 control=7 value=56 time=6\n",
      "control_change channel=13 control=7 value=52 time=4\n",
      "control_change channel=13 control=7 value=50 time=13\n",
      "control_change channel=13 control=7 value=49 time=6\n",
      "pitchwheel channel=13 pitch=273 time=8\n",
      "pitchwheel channel=13 pitch=273 time=0\n",
      "pitchwheel channel=13 pitch=273 time=0\n",
      "pitchwheel channel=13 pitch=1502 time=2\n",
      "pitchwheel channel=13 pitch=1502 time=0\n",
      "pitchwheel channel=13 pitch=1502 time=1\n",
      "pitchwheel channel=13 pitch=2617 time=2\n",
      "pitchwheel channel=13 pitch=2617 time=1\n",
      "pitchwheel channel=13 pitch=2617 time=0\n",
      "pitchwheel channel=13 pitch=3686 time=2\n",
      "pitchwheel channel=13 pitch=3686 time=0\n",
      "pitchwheel channel=13 pitch=3686 time=0\n",
      "pitchwheel channel=13 pitch=4232 time=1\n",
      "pitchwheel channel=13 pitch=4232 time=1\n",
      "pitchwheel channel=13 pitch=4232 time=0\n",
      "pitchwheel channel=13 pitch=4642 time=2\n",
      "pitchwheel channel=13 pitch=4642 time=0\n",
      "pitchwheel channel=13 pitch=4642 time=0\n",
      "note_on channel=13 note=85 velocity=0 time=2\n",
      "note_on channel=13 note=87 velocity=31 time=2\n",
      "pitchwheel channel=13 pitch=1775 time=4\n",
      "pitchwheel channel=13 pitch=1775 time=0\n",
      "pitchwheel channel=13 pitch=1775 time=0\n",
      "pitchwheel channel=13 pitch=-1364 time=2\n",
      "pitchwheel channel=13 pitch=-1364 time=0\n",
      "pitchwheel channel=13 pitch=-1364 time=0\n",
      "control_change channel=13 control=7 value=45 time=2\n",
      "control_change channel=13 control=7 value=43 time=0\n",
      "control_change channel=13 control=7 value=42 time=0\n",
      "pitchwheel channel=13 pitch=0 time=0\n",
      "pitchwheel channel=13 pitch=0 time=0\n",
      "pitchwheel channel=13 pitch=0 time=0\n",
      "control_change channel=13 control=7 value=41 time=35\n",
      "control_change channel=13 control=7 value=40 time=10\n",
      "control_change channel=13 control=7 value=37 time=63\n",
      "control_change channel=13 control=7 value=36 time=48\n",
      "control_change channel=13 control=7 value=35 time=11\n",
      "control_change channel=13 control=7 value=34 time=5\n",
      "control_change channel=13 control=7 value=33 time=37\n",
      "control_change channel=13 control=7 value=31 time=6\n",
      "control_change channel=13 control=7 value=30 time=6\n",
      "pitchwheel channel=13 pitch=956 time=14\n",
      "pitchwheel channel=13 pitch=956 time=0\n",
      "pitchwheel channel=13 pitch=956 time=0\n",
      "pitchwheel channel=13 pitch=2617 time=1\n",
      "pitchwheel channel=13 pitch=2617 time=1\n",
      "pitchwheel channel=13 pitch=2617 time=0\n",
      "pitchwheel channel=13 pitch=4642 time=2\n",
      "pitchwheel channel=13 pitch=4642 time=0\n",
      "pitchwheel channel=13 pitch=4642 time=0\n",
      "pitchwheel channel=13 pitch=6007 time=2\n",
      "pitchwheel channel=13 pitch=6007 time=1\n",
      "pitchwheel channel=13 pitch=6007 time=0\n",
      "pitchwheel channel=13 pitch=7100 time=2\n",
      "pitchwheel channel=13 pitch=7100 time=0\n",
      "pitchwheel channel=13 pitch=7100 time=1\n",
      "pitchwheel channel=13 pitch=7737 time=2\n",
      "pitchwheel channel=13 pitch=7737 time=0\n",
      "pitchwheel channel=13 pitch=7737 time=0\n",
      "note_on channel=13 note=88 velocity=35 time=1\n",
      "note_on channel=13 note=87 velocity=0 time=1\n",
      "pitchwheel channel=13 pitch=2161 time=2\n",
      "pitchwheel channel=13 pitch=2161 time=0\n",
      "pitchwheel channel=13 pitch=2161 time=1\n",
      "pitchwheel channel=13 pitch=-2764 time=1\n",
      "pitchwheel channel=13 pitch=-2764 time=1\n",
      "pitchwheel channel=13 pitch=-2764 time=0\n",
      "pitchwheel channel=13 pitch=-597 time=3\n",
      "pitchwheel channel=13 pitch=-597 time=0\n",
      "pitchwheel channel=13 pitch=-597 time=0\n",
      "pitchwheel channel=13 pitch=1502 time=2\n",
      "pitchwheel channel=13 pitch=1502 time=0\n",
      "pitchwheel channel=13 pitch=1502 time=0\n",
      "pitchwheel channel=13 pitch=0 time=2\n",
      "pitchwheel channel=13 pitch=0 time=0\n",
      "pitchwheel channel=13 pitch=0 time=0\n",
      "control_change channel=13 control=7 value=29 time=5\n",
      "control_change channel=13 control=7 value=28 time=5\n",
      "control_change channel=13 control=7 value=27 time=13\n",
      "control_change channel=13 control=7 value=26 time=34\n",
      "control_change channel=13 control=7 value=24 time=8\n",
      "control_change channel=13 control=7 value=23 time=4\n",
      "control_change channel=13 control=7 value=22 time=26\n",
      "control_change channel=13 control=7 value=21 time=11\n",
      "control_change channel=13 control=7 value=19 time=10\n",
      "control_change channel=13 control=7 value=17 time=3\n",
      "control_change channel=13 control=7 value=16 time=63\n",
      "control_change channel=13 control=7 value=12 time=2\n",
      "control_change channel=13 control=7 value=10 time=10\n",
      "control_change channel=13 control=7 value=9 time=39\n",
      "pitchwheel channel=13 pitch=273 time=8\n",
      "pitchwheel channel=13 pitch=273 time=0\n",
      "pitchwheel channel=13 pitch=273 time=1\n",
      "pitchwheel channel=13 pitch=1229 time=1\n",
      "pitchwheel channel=13 pitch=1229 time=1\n",
      "pitchwheel channel=13 pitch=1229 time=0\n",
      "control_change channel=13 control=7 value=8 time=3\n",
      "pitchwheel channel=13 pitch=2503 time=0\n",
      "pitchwheel channel=13 pitch=2503 time=0\n",
      "pitchwheel channel=13 pitch=2503 time=0\n",
      "pitchwheel channel=13 pitch=4096 time=2\n",
      "pitchwheel channel=13 pitch=4096 time=0\n",
      "pitchwheel channel=13 pitch=4096 time=0\n",
      "pitchwheel channel=13 pitch=5006 time=2\n",
      "pitchwheel channel=13 pitch=5006 time=0\n",
      "pitchwheel channel=13 pitch=5006 time=1\n",
      "pitchwheel channel=13 pitch=4232 time=1\n",
      "pitchwheel channel=13 pitch=4232 time=0\n",
      "pitchwheel channel=13 pitch=4232 time=0\n",
      "note_on channel=13 note=90 velocity=37 time=3\n",
      "pitchwheel channel=13 pitch=2161 time=3\n",
      "pitchwheel channel=13 pitch=2161 time=0\n",
      "pitchwheel channel=13 pitch=2161 time=0\n",
      "pitchwheel channel=13 pitch=-955 time=2\n",
      "pitchwheel channel=13 pitch=-955 time=0\n",
      "pitchwheel channel=13 pitch=-955 time=1\n",
      "note_on channel=13 note=88 velocity=0 time=1\n",
      "control_change channel=13 control=7 value=5 time=1\n",
      "pitchwheel channel=13 pitch=0 time=0\n",
      "pitchwheel channel=13 pitch=0 time=0\n",
      "pitchwheel channel=13 pitch=0 time=0\n",
      "control_change channel=13 control=7 value=3 time=87\n",
      "control_change channel=13 control=7 value=2 time=15\n",
      "control_change channel=13 control=7 value=1 time=15\n",
      "control_change channel=13 control=7 value=0 time=20\n",
      "pitchwheel channel=13 pitch=546 time=109\n",
      "pitchwheel channel=13 pitch=546 time=0\n",
      "pitchwheel channel=13 pitch=546 time=0\n",
      "pitchwheel channel=13 pitch=1502 time=2\n",
      "pitchwheel channel=13 pitch=1502 time=0\n",
      "pitchwheel channel=13 pitch=1502 time=1\n",
      "pitchwheel channel=13 pitch=2389 time=1\n",
      "pitchwheel channel=13 pitch=2389 time=1\n",
      "pitchwheel channel=13 pitch=2389 time=0\n",
      "note_on channel=13 note=92 velocity=48 time=1\n",
      "pitchwheel channel=13 pitch=3004 time=0\n",
      "pitchwheel channel=13 pitch=3004 time=1\n",
      "pitchwheel channel=13 pitch=3004 time=0\n",
      "pitchwheel channel=13 pitch=3414 time=2\n",
      "pitchwheel channel=13 pitch=3414 time=0\n",
      "pitchwheel channel=13 pitch=3414 time=0\n",
      "note_on channel=13 note=90 velocity=0 time=8\n",
      "pitchwheel channel=13 pitch=2617 time=6\n",
      "pitchwheel channel=13 pitch=2617 time=1\n",
      "pitchwheel channel=13 pitch=2617 time=0\n",
      "pitchwheel channel=13 pitch=1638 time=2\n",
      "pitchwheel channel=13 pitch=1638 time=0\n",
      "pitchwheel channel=13 pitch=1638 time=0\n",
      "pitchwheel channel=13 pitch=0 time=2\n",
      "pitchwheel channel=13 pitch=0 time=0\n",
      "pitchwheel channel=13 pitch=0 time=0\n",
      "note_on channel=13 note=94 velocity=25 time=508\n",
      "note_on channel=13 note=92 velocity=0 time=3\n",
      "control_change channel=13 control=7 value=0 time=418\n",
      "note_on channel=13 note=94 velocity=0 time=53\n",
      "control_change channel=13 control=7 value=2 time=266\n",
      "control_change channel=13 control=7 value=3 time=32\n",
      "control_change channel=13 control=7 value=4 time=30\n",
      "control_change channel=13 control=7 value=5 time=5\n",
      "control_change channel=13 control=7 value=6 time=10\n",
      "control_change channel=13 control=7 value=7 time=10\n",
      "control_change channel=13 control=7 value=9 time=15\n",
      "control_change channel=13 control=7 value=10 time=10\n",
      "control_change channel=13 control=7 value=11 time=20\n",
      "control_change channel=13 control=7 value=12 time=6\n",
      "control_change channel=13 control=7 value=13 time=22\n",
      "control_change channel=13 control=7 value=14 time=4\n",
      "control_change channel=13 control=7 value=16 time=21\n",
      "control_change channel=13 control=7 value=19 time=20\n",
      "control_change channel=13 control=7 value=20 time=5\n",
      "control_change channel=13 control=7 value=21 time=14\n",
      "control_change channel=13 control=7 value=23 time=5\n",
      "control_change channel=13 control=7 value=24 time=16\n",
      "control_change channel=13 control=7 value=25 time=9\n",
      "control_change channel=13 control=7 value=26 time=28\n",
      "control_change channel=13 control=7 value=28 time=9\n",
      "control_change channel=13 control=7 value=31 time=21\n",
      "control_change channel=13 control=7 value=35 time=20\n",
      "control_change channel=13 control=7 value=38 time=21\n",
      "control_change channel=13 control=7 value=39 time=5\n",
      "control_change channel=13 control=7 value=40 time=5\n",
      "control_change channel=13 control=7 value=42 time=15\n",
      "control_change channel=13 control=7 value=43 time=5\n",
      "control_change channel=13 control=7 value=47 time=13\n",
      "control_change channel=13 control=7 value=50 time=5\n",
      "control_change channel=13 control=7 value=51 time=5\n",
      "control_change channel=13 control=7 value=52 time=5\n",
      "control_change channel=13 control=7 value=53 time=5\n",
      "control_change channel=13 control=7 value=54 time=5\n",
      "control_change channel=13 control=7 value=57 time=10\n",
      "control_change channel=13 control=7 value=70 time=33\n",
      "control_change channel=13 control=7 value=73 time=0\n",
      "control_change channel=13 control=7 value=75 time=10\n",
      "control_change channel=13 control=7 value=78 time=8\n",
      "control_change channel=13 control=7 value=79 time=5\n",
      "control_change channel=13 control=7 value=80 time=5\n",
      "control_change channel=13 control=7 value=82 time=10\n",
      "control_change channel=13 control=7 value=85 time=10\n",
      "control_change channel=13 control=7 value=89 time=5\n",
      "control_change channel=13 control=7 value=99 time=22\n",
      "control_change channel=13 control=7 value=100 time=6\n",
      "control_change channel=13 control=7 value=101 time=7\n",
      "control_change channel=13 control=7 value=103 time=11\n",
      "control_change channel=13 control=7 value=106 time=20\n",
      "control_change channel=13 control=7 value=111 time=17\n",
      "control_change channel=13 control=7 value=112 time=2\n",
      "control_change channel=13 control=7 value=113 time=10\n",
      "control_change channel=13 control=7 value=115 time=10\n",
      "control_change channel=13 control=7 value=117 time=8\n",
      "control_change channel=13 control=7 value=118 time=10\n",
      "control_change channel=13 control=7 value=119 time=5\n",
      "control_change channel=13 control=7 value=120 time=13\n",
      "control_change channel=13 control=7 value=124 time=4\n",
      "control_change channel=13 control=7 value=127 time=43\n",
      "control_change channel=13 control=7 value=84 time=467\n",
      "MetaMessage('end_of_track', time=0)\n",
      "Track 4: Flute 2 Echo\n",
      "MetaMessage('midi_port', port=0, time=0)\n",
      "MetaMessage('track_name', name='Flute 2 Echo', time=0)\n",
      "control_change channel=0 control=0 value=0 time=0\n",
      "program_change channel=0 program=67 time=0\n",
      "control_change channel=0 control=7 value=63 time=0\n",
      "control_change channel=0 control=10 value=63 time=0\n",
      "control_change channel=0 control=7 value=64 time=176\n",
      "control_change channel=0 control=7 value=61 time=39\n",
      "control_change channel=0 control=7 value=57 time=5\n",
      "control_change channel=0 control=7 value=56 time=10\n",
      "control_change channel=0 control=7 value=55 time=11\n",
      "control_change channel=0 control=7 value=54 time=5\n",
      "control_change channel=0 control=7 value=52 time=5\n",
      "control_change channel=0 control=7 value=50 time=12\n",
      "note_on channel=0 note=76 velocity=82 time=20\n",
      "control_change channel=0 control=7 value=47 time=10\n",
      "control_change channel=0 control=7 value=43 time=0\n",
      "control_change channel=0 control=7 value=40 time=5\n",
      "control_change channel=0 control=7 value=38 time=5\n",
      "control_change channel=0 control=7 value=37 time=15\n",
      "control_change channel=0 control=7 value=36 time=5\n",
      "note_on channel=0 note=76 velocity=0 time=8\n",
      "note_on channel=0 note=78 velocity=70 time=2\n",
      "control_change channel=0 control=7 value=35 time=10\n",
      "control_change channel=0 control=7 value=34 time=5\n",
      "control_change channel=0 control=7 value=33 time=28\n",
      "control_change channel=0 control=7 value=28 time=0\n",
      "note_on channel=0 note=78 velocity=0 time=7\n",
      "note_on channel=0 note=80 velocity=64 time=5\n",
      "pitchwheel channel=0 pitch=-955 time=1\n",
      "pitchwheel channel=0 pitch=-955 time=0\n",
      "pitchwheel channel=0 pitch=-955 time=1\n",
      "pitchwheel channel=0 pitch=-2545 time=0\n",
      "control_change channel=0 control=7 value=27 time=1\n",
      "pitchwheel channel=0 pitch=-2545 time=0\n",
      "pitchwheel channel=0 pitch=-2545 time=0\n",
      "pitchwheel channel=0 pitch=-4334 time=2\n",
      "pitchwheel channel=0 pitch=-4334 time=0\n",
      "pitchwheel channel=0 pitch=-4334 time=0\n",
      "pitchwheel channel=0 pitch=-5290 time=1\n",
      "pitchwheel channel=0 pitch=-5290 time=1\n",
      "pitchwheel channel=0 pitch=-5290 time=0\n",
      "pitchwheel channel=0 pitch=-6263 time=2\n",
      "pitchwheel channel=0 pitch=-6263 time=0\n",
      "pitchwheel channel=0 pitch=-6263 time=0\n",
      "pitchwheel channel=0 pitch=-6621 time=1\n",
      "pitchwheel channel=0 pitch=-6621 time=0\n",
      "pitchwheel channel=0 pitch=-6621 time=0\n",
      "pitchwheel channel=0 pitch=-5802 time=11\n",
      "pitchwheel channel=0 pitch=-5802 time=0\n",
      "pitchwheel channel=0 pitch=-5802 time=0\n",
      "pitchwheel channel=0 pitch=-5091 time=2\n",
      "pitchwheel channel=0 pitch=-5091 time=0\n",
      "pitchwheel channel=0 pitch=-5091 time=0\n",
      "pitchwheel channel=0 pitch=-4334 time=2\n",
      "pitchwheel channel=0 pitch=-4334 time=0\n",
      "pitchwheel channel=0 pitch=-4334 time=0\n",
      "pitchwheel channel=0 pitch=-3242 time=1\n",
      "pitchwheel channel=0 pitch=-3242 time=1\n",
      "pitchwheel channel=0 pitch=-3242 time=0\n",
      "pitchwheel channel=0 pitch=-2247 time=1\n",
      "pitchwheel channel=0 pitch=-2247 time=0\n",
      "pitchwheel channel=0 pitch=-2247 time=0\n",
      "pitchwheel channel=0 pitch=-955 time=2\n",
      "pitchwheel channel=0 pitch=-955 time=1\n",
      "pitchwheel channel=0 pitch=-955 time=0\n",
      "pitchwheel channel=0 pitch=0 time=1\n",
      "pitchwheel channel=0 pitch=0 time=0\n",
      "pitchwheel channel=0 pitch=0 time=0\n",
      "control_change channel=0 control=7 value=31 time=52\n",
      "control_change channel=0 control=7 value=32 time=21\n",
      "control_change channel=0 control=7 value=33 time=43\n",
      "control_change channel=0 control=7 value=35 time=5\n",
      "control_change channel=0 control=7 value=37 time=5\n",
      "control_change channel=0 control=7 value=40 time=43\n",
      "control_change channel=0 control=7 value=42 time=5\n",
      "control_change channel=0 control=7 value=43 time=45\n",
      "pitchwheel channel=0 pitch=-477 time=42\n",
      "pitchwheel channel=0 pitch=-477 time=1\n",
      "pitchwheel channel=0 pitch=-477 time=0\n",
      "pitchwheel channel=0 pitch=-1364 time=2\n",
      "pitchwheel channel=0 pitch=-1364 time=0\n",
      "pitchwheel channel=0 pitch=-1364 time=0\n",
      "pitchwheel channel=0 pitch=-2446 time=1\n",
      "pitchwheel channel=0 pitch=-2446 time=0\n",
      "pitchwheel channel=0 pitch=-2446 time=0\n",
      "note_on channel=0 note=81 velocity=65 time=2\n",
      "pitchwheel channel=0 pitch=-3412 time=1\n",
      "pitchwheel channel=0 pitch=-3412 time=0\n",
      "pitchwheel channel=0 pitch=-3412 time=0\n",
      "pitchwheel channel=0 pitch=-4454 time=0\n",
      "pitchwheel channel=0 pitch=-4454 time=1\n",
      "pitchwheel channel=0 pitch=-4454 time=0\n",
      "pitchwheel channel=0 pitch=-4892 time=1\n",
      "pitchwheel channel=0 pitch=-4892 time=0\n",
      "pitchwheel channel=0 pitch=-4892 time=1\n",
      "pitchwheel channel=0 pitch=-5290 time=1\n",
      "pitchwheel channel=0 pitch=-5290 time=1\n",
      "pitchwheel channel=0 pitch=-5290 time=0\n",
      "pitchwheel channel=0 pitch=-4792 time=10\n",
      "pitchwheel channel=0 pitch=-4792 time=0\n",
      "pitchwheel channel=0 pitch=-4792 time=1\n",
      "pitchwheel channel=0 pitch=-4334 time=1\n",
      "pitchwheel channel=0 pitch=-4334 time=0\n",
      "pitchwheel channel=0 pitch=-4334 time=0\n",
      "pitchwheel channel=0 pitch=-3583 time=2\n",
      "pitchwheel channel=0 pitch=-3583 time=0\n",
      "pitchwheel channel=0 pitch=-3583 time=1\n",
      "pitchwheel channel=0 pitch=-2883 time=1\n",
      "pitchwheel channel=0 pitch=-2883 time=0\n",
      "pitchwheel channel=0 pitch=-2883 time=0\n",
      "pitchwheel channel=0 pitch=-2346 time=2\n",
      "pitchwheel channel=0 pitch=-2346 time=0\n",
      "pitchwheel channel=0 pitch=-2346 time=0\n",
      "pitchwheel channel=0 pitch=-1706 time=1\n",
      "pitchwheel channel=0 pitch=-1706 time=0\n",
      "pitchwheel channel=0 pitch=-1706 time=0\n",
      "pitchwheel channel=0 pitch=-955 time=2\n",
      "pitchwheel channel=0 pitch=-955 time=0\n",
      "pitchwheel channel=0 pitch=-955 time=0\n",
      "control_change channel=0 control=7 value=42 time=2\n",
      "pitchwheel channel=0 pitch=-477 time=0\n",
      "pitchwheel channel=0 pitch=-477 time=0\n",
      "pitchwheel channel=0 pitch=-477 time=0\n",
      "pitchwheel channel=0 pitch=0 time=2\n",
      "pitchwheel channel=0 pitch=0 time=0\n",
      "pitchwheel channel=0 pitch=0 time=0\n",
      "control_change channel=0 control=7 value=41 time=3\n",
      "note_on channel=0 note=81 velocity=0 time=5\n",
      "control_change channel=0 control=7 value=40 time=1\n",
      "note_on channel=0 note=78 velocity=54 time=0\n",
      "note_on channel=0 note=80 velocity=0 time=11\n",
      "control_change channel=0 control=7 value=38 time=0\n",
      "note_on channel=0 note=76 velocity=64 time=19\n",
      "note_on channel=0 note=78 velocity=0 time=5\n",
      "control_change channel=0 control=7 value=42 time=16\n",
      "control_change channel=0 control=7 value=45 time=4\n",
      "note_on channel=0 note=78 velocity=52 time=4\n",
      "control_change channel=0 control=7 value=46 time=1\n",
      "pitchwheel channel=0 pitch=-477 time=4\n",
      "pitchwheel channel=0 pitch=-477 time=0\n",
      "pitchwheel channel=0 pitch=-477 time=0\n",
      "pitchwheel channel=0 pitch=-835 time=2\n",
      "pitchwheel channel=0 pitch=-835 time=0\n",
      "pitchwheel channel=0 pitch=-835 time=1\n",
      "note_on channel=0 note=76 velocity=0 time=1\n",
      "pitchwheel channel=0 pitch=-1535 time=2\n",
      "pitchwheel channel=0 pitch=-1535 time=0\n",
      "pitchwheel channel=0 pitch=-1535 time=0\n",
      "pitchwheel channel=0 pitch=-1877 time=1\n",
      "pitchwheel channel=0 pitch=-1877 time=0\n",
      "pitchwheel channel=0 pitch=-1877 time=0\n",
      "pitchwheel channel=0 pitch=-2247 time=3\n",
      "pitchwheel channel=0 pitch=-2247 time=0\n",
      "pitchwheel channel=0 pitch=-2247 time=0\n",
      "pitchwheel channel=0 pitch=-2545 time=1\n",
      "pitchwheel channel=0 pitch=-2545 time=0\n",
      "pitchwheel channel=0 pitch=-2545 time=0\n",
      "pitchwheel channel=0 pitch=-1877 time=13\n",
      "pitchwheel channel=0 pitch=-1877 time=0\n",
      "pitchwheel channel=0 pitch=-1877 time=0\n",
      "pitchwheel channel=0 pitch=-1364 time=1\n",
      "pitchwheel channel=0 pitch=-1364 time=1\n",
      "pitchwheel channel=0 pitch=-1364 time=0\n",
      "pitchwheel channel=0 pitch=-835 time=1\n",
      "pitchwheel channel=0 pitch=-835 time=0\n",
      "pitchwheel channel=0 pitch=-835 time=1\n",
      "pitchwheel channel=0 pitch=-358 time=1\n",
      "pitchwheel channel=0 pitch=-358 time=0\n",
      "pitchwheel channel=0 pitch=-358 time=0\n",
      "pitchwheel channel=0 pitch=0 time=1\n",
      "pitchwheel channel=0 pitch=0 time=0\n",
      "pitchwheel channel=0 pitch=0 time=1\n",
      "note_on channel=0 note=83 velocity=54 time=38\n",
      "note_on channel=0 note=78 velocity=0 time=3\n",
      "control_change channel=0 control=7 value=45 time=220\n",
      "control_change channel=0 control=7 value=43 time=5\n",
      "control_change channel=0 control=7 value=44 time=58\n",
      "control_change channel=0 control=7 value=45 time=9\n",
      "note_on channel=0 note=83 velocity=0 time=5\n",
      "pitchwheel channel=0 pitch=-238 time=1\n",
      "pitchwheel channel=0 pitch=-238 time=0\n",
      "pitchwheel channel=0 pitch=-238 time=1\n",
      "note_on channel=0 note=81 velocity=62 time=1\n",
      "pitchwheel channel=0 pitch=-716 time=0\n",
      "pitchwheel channel=0 pitch=-716 time=0\n",
      "pitchwheel channel=0 pitch=-716 time=0\n",
      "pitchwheel channel=0 pitch=-1364 time=2\n",
      "pitchwheel channel=0 pitch=-1364 time=0\n",
      "pitchwheel channel=0 pitch=-1364 time=0\n",
      "pitchwheel channel=0 pitch=-1877 time=1\n",
      "pitchwheel channel=0 pitch=-1877 time=1\n",
      "pitchwheel channel=0 pitch=-1877 time=0\n",
      "pitchwheel channel=0 pitch=-2346 time=3\n",
      "pitchwheel channel=0 pitch=-2346 time=0\n",
      "pitchwheel channel=0 pitch=-2346 time=0\n",
      "control_change channel=0 control=7 value=46 time=1\n",
      "pitchwheel channel=0 pitch=-1706 time=12\n",
      "pitchwheel channel=0 pitch=-1706 time=0\n",
      "pitchwheel channel=0 pitch=-1706 time=0\n",
      "pitchwheel channel=0 pitch=-1074 time=1\n",
      "pitchwheel channel=0 pitch=-1074 time=0\n",
      "pitchwheel channel=0 pitch=-1074 time=0\n",
      "control_change channel=0 control=7 value=47 time=2\n",
      "pitchwheel channel=0 pitch=-597 time=0\n",
      "pitchwheel channel=0 pitch=-597 time=0\n",
      "pitchwheel channel=0 pitch=-597 time=0\n",
      "pitchwheel channel=0 pitch=0 time=2\n",
      "pitchwheel channel=0 pitch=0 time=0\n",
      "pitchwheel channel=0 pitch=0 time=0\n",
      "control_change channel=0 control=7 value=49 time=2\n",
      "control_change channel=0 control=7 value=50 time=30\n",
      "note_on channel=0 note=80 velocity=53 time=0\n",
      "note_on channel=0 note=81 velocity=0 time=8\n",
      "note_on channel=0 note=78 velocity=62 time=21\n",
      "control_change channel=0 control=7 value=51 time=1\n",
      "control_change channel=0 control=7 value=52 time=20\n",
      "note_on channel=0 note=80 velocity=0 time=2\n",
      "note_on channel=0 note=78 velocity=0 time=8\n",
      "note_on channel=0 note=76 velocity=56 time=4\n",
      "pitchwheel channel=0 pitch=-716 time=1\n",
      "pitchwheel channel=0 pitch=-716 time=0\n",
      "pitchwheel channel=0 pitch=-716 time=0\n",
      "pitchwheel channel=0 pitch=-2247 time=2\n",
      "pitchwheel channel=0 pitch=-2247 time=0\n",
      "pitchwheel channel=0 pitch=-2247 time=0\n",
      "pitchwheel channel=0 pitch=-3122 time=1\n",
      "pitchwheel channel=0 pitch=-3122 time=0\n",
      "pitchwheel channel=0 pitch=-3122 time=0\n",
      "pitchwheel channel=0 pitch=-3754 time=2\n",
      "pitchwheel channel=0 pitch=-3754 time=0\n",
      "pitchwheel channel=0 pitch=-3754 time=0\n",
      "pitchwheel channel=0 pitch=-4334 time=2\n",
      "pitchwheel channel=0 pitch=-4334 time=0\n",
      "pitchwheel channel=0 pitch=-4334 time=0\n",
      "pitchwheel channel=0 pitch=-3925 time=8\n",
      "pitchwheel channel=0 pitch=-3925 time=1\n",
      "pitchwheel channel=0 pitch=-3925 time=0\n",
      "pitchwheel channel=0 pitch=-3242 time=2\n",
      "pitchwheel channel=0 pitch=-3242 time=0\n",
      "pitchwheel channel=0 pitch=-3242 time=0\n",
      "pitchwheel channel=0 pitch=-2545 time=1\n",
      "pitchwheel channel=0 pitch=-2545 time=1\n",
      "pitchwheel channel=0 pitch=-2545 time=0\n",
      "pitchwheel channel=0 pitch=-2048 time=1\n",
      "pitchwheel channel=0 pitch=-2048 time=0\n",
      "pitchwheel channel=0 pitch=-2048 time=0\n",
      "pitchwheel channel=0 pitch=-955 time=2\n",
      "pitchwheel channel=0 pitch=-955 time=1\n",
      "pitchwheel channel=0 pitch=-955 time=0\n",
      "pitchwheel channel=0 pitch=0 time=1\n",
      "pitchwheel channel=0 pitch=0 time=0\n",
      "pitchwheel channel=0 pitch=0 time=0\n",
      "control_change channel=0 control=7 value=53 time=20\n",
      "control_change channel=0 control=7 value=54 time=5\n",
      "control_change channel=0 control=93 value=33 time=30\n",
      "control_change channel=0 control=7 value=57 time=11\n",
      "control_change channel=0 control=7 value=58 time=6\n",
      "control_change channel=0 control=7 value=59 time=5\n",
      "control_change channel=0 control=93 value=37 time=51\n",
      "control_change channel=0 control=7 value=57 time=3\n",
      "control_change channel=0 control=7 value=54 time=10\n",
      "control_change channel=0 control=7 value=52 time=0\n",
      "control_change channel=0 control=7 value=49 time=17\n",
      "control_change channel=0 control=7 value=45 time=0\n",
      "control_change channel=0 control=7 value=43 time=7\n",
      "control_change channel=0 control=7 value=42 time=8\n",
      "control_change channel=0 control=7 value=41 time=7\n",
      "control_change channel=0 control=7 value=40 time=5\n",
      "note_on channel=0 note=73 velocity=49 time=10\n",
      "control_change channel=0 control=7 value=38 time=5\n",
      "note_on channel=0 note=76 velocity=0 time=3\n",
      "control_change channel=0 control=7 value=37 time=15\n",
      "control_change channel=0 control=7 value=36 time=25\n",
      "control_change channel=0 control=7 value=35 time=0\n",
      "control_change channel=0 control=7 value=34 time=40\n",
      "control_change channel=0 control=91 value=105 time=0\n",
      "control_change channel=0 control=7 value=33 time=7\n",
      "pitchwheel channel=0 pitch=-358 time=60\n",
      "pitchwheel channel=0 pitch=-358 time=0\n",
      "pitchwheel channel=0 pitch=-358 time=0\n",
      "pitchwheel channel=0 pitch=-597 time=1\n",
      "pitchwheel channel=0 pitch=-597 time=1\n",
      "pitchwheel channel=0 pitch=-597 time=0\n",
      "pitchwheel channel=0 pitch=-1074 time=3\n",
      "pitchwheel channel=0 pitch=-1074 time=1\n",
      "pitchwheel channel=0 pitch=-1074 time=0\n",
      "pitchwheel channel=0 pitch=-1706 time=3\n",
      "pitchwheel channel=0 pitch=-1706 time=0\n",
      "pitchwheel channel=0 pitch=-1706 time=0\n",
      "pitchwheel channel=0 pitch=-2048 time=4\n",
      "pitchwheel channel=0 pitch=-2048 time=0\n",
      "pitchwheel channel=0 pitch=-2048 time=0\n",
      "note_on channel=0 note=69 velocity=49 time=0\n",
      "pitchwheel channel=0 pitch=-2346 time=3\n",
      "pitchwheel channel=0 pitch=-2346 time=0\n",
      "pitchwheel channel=0 pitch=-2346 time=0\n",
      "note_on channel=0 note=73 velocity=0 time=12\n",
      "control_change channel=0 control=7 value=35 time=7\n",
      "control_change channel=0 control=7 value=37 time=4\n",
      "control_change channel=0 control=7 value=38 time=5\n",
      "pitchwheel channel=0 pitch=-2048 time=1\n",
      "pitchwheel channel=0 pitch=-2048 time=0\n",
      "pitchwheel channel=0 pitch=-2048 time=0\n",
      "pitchwheel channel=0 pitch=-1706 time=7\n",
      "pitchwheel channel=0 pitch=-1706 time=0\n",
      "pitchwheel channel=0 pitch=-1706 time=0\n",
      "pitchwheel channel=0 pitch=-1194 time=7\n",
      "pitchwheel channel=0 pitch=-1194 time=0\n",
      "pitchwheel channel=0 pitch=-1194 time=0\n",
      "pitchwheel channel=0 pitch=-835 time=5\n",
      "pitchwheel channel=0 pitch=-835 time=0\n",
      "pitchwheel channel=0 pitch=-835 time=1\n",
      "pitchwheel channel=0 pitch=-477 time=3\n",
      "pitchwheel channel=0 pitch=-477 time=0\n",
      "pitchwheel channel=0 pitch=-477 time=0\n",
      "pitchwheel channel=0 pitch=0 time=5\n",
      "control_change channel=0 control=7 value=39 time=1\n",
      "pitchwheel channel=0 pitch=0 time=0\n",
      "pitchwheel channel=0 pitch=0 time=0\n",
      "note_on channel=0 note=71 velocity=61 time=0\n",
      "note_on channel=0 note=69 velocity=0 time=8\n",
      "control_change channel=0 control=7 value=42 time=22\n",
      "control_change channel=0 control=7 value=43 time=10\n",
      "control_change channel=0 control=7 value=44 time=10\n",
      "control_change channel=0 control=7 value=45 time=137\n",
      "control_change channel=0 control=7 value=46 time=5\n",
      "control_change channel=0 control=7 value=45 time=93\n",
      "note_on channel=0 note=71 velocity=0 time=5\n",
      "pitchwheel channel=0 pitch=-477 time=34\n",
      "pitchwheel channel=0 pitch=-477 time=0\n",
      "pitchwheel channel=0 pitch=-477 time=0\n",
      "control_change channel=0 control=7 value=42 time=2\n",
      "pitchwheel channel=0 pitch=-1194 time=0\n",
      "pitchwheel channel=0 pitch=-1194 time=0\n",
      "pitchwheel channel=0 pitch=-1194 time=1\n",
      "note_on channel=0 note=76 velocity=61 time=0\n",
      "pitchwheel channel=0 pitch=-2147 time=0\n",
      "control_change channel=0 control=7 value=41 time=1\n",
      "pitchwheel channel=0 pitch=-2147 time=0\n",
      "pitchwheel channel=0 pitch=-2147 time=0\n",
      "pitchwheel channel=0 pitch=-2764 time=2\n",
      "pitchwheel channel=0 pitch=-2764 time=0\n",
      "pitchwheel channel=0 pitch=-2764 time=0\n",
      "pitchwheel channel=0 pitch=-3583 time=1\n",
      "pitchwheel channel=0 pitch=-3583 time=1\n",
      "pitchwheel channel=0 pitch=-3583 time=0\n",
      "pitchwheel channel=0 pitch=-4096 time=1\n",
      "pitchwheel channel=0 pitch=-4096 time=0\n",
      "pitchwheel channel=0 pitch=-4096 time=0\n",
      "control_change channel=0 control=7 value=40 time=1\n",
      "control_change channel=0 control=7 value=38 time=4\n",
      "pitchwheel channel=0 pitch=-3242 time=8\n",
      "pitchwheel channel=0 pitch=-3242 time=0\n",
      "pitchwheel channel=0 pitch=-3242 time=0\n",
      "pitchwheel channel=0 pitch=-2645 time=1\n",
      "pitchwheel channel=0 pitch=-2645 time=0\n",
      "pitchwheel channel=0 pitch=-2645 time=1\n",
      "pitchwheel channel=0 pitch=-2247 time=1\n",
      "pitchwheel channel=0 pitch=-2247 time=0\n",
      "pitchwheel channel=0 pitch=-2247 time=0\n",
      "pitchwheel channel=0 pitch=-1706 time=2\n",
      "pitchwheel channel=0 pitch=-1706 time=0\n",
      "pitchwheel channel=0 pitch=-1706 time=0\n",
      "pitchwheel channel=0 pitch=-1074 time=2\n",
      "pitchwheel channel=0 pitch=-1074 time=0\n",
      "pitchwheel channel=0 pitch=-1074 time=0\n",
      "pitchwheel channel=0 pitch=-597 time=2\n",
      "pitchwheel channel=0 pitch=-597 time=0\n",
      "pitchwheel channel=0 pitch=-597 time=0\n",
      "pitchwheel channel=0 pitch=-238 time=1\n",
      "pitchwheel channel=0 pitch=-238 time=0\n",
      "pitchwheel channel=0 pitch=-238 time=0\n",
      "pitchwheel channel=0 pitch=0 time=2\n",
      "pitchwheel channel=0 pitch=0 time=0\n",
      "pitchwheel channel=0 pitch=0 time=0\n",
      "note_on channel=0 note=78 velocity=55 time=23\n",
      "control_change channel=0 control=7 value=39 time=5\n",
      "note_on channel=0 note=76 velocity=0 time=4\n",
      "control_change channel=0 control=7 value=42 time=18\n",
      "note_on channel=0 note=78 velocity=0 time=23\n",
      "note_on channel=0 note=80 velocity=58 time=7\n",
      "pitchwheel channel=0 pitch=-597 time=4\n",
      "pitchwheel channel=0 pitch=-597 time=1\n",
      "pitchwheel channel=0 pitch=-597 time=0\n",
      "pitchwheel channel=0 pitch=-1194 time=1\n",
      "pitchwheel channel=0 pitch=-1194 time=0\n",
      "pitchwheel channel=0 pitch=-1194 time=0\n",
      "pitchwheel channel=0 pitch=-1706 time=1\n",
      "pitchwheel channel=0 pitch=-1706 time=1\n",
      "pitchwheel channel=0 pitch=-1706 time=0\n",
      "control_change channel=0 control=7 value=43 time=2\n",
      "pitchwheel channel=0 pitch=-2048 time=1\n",
      "pitchwheel channel=0 pitch=-2048 time=1\n",
      "pitchwheel channel=0 pitch=-2048 time=0\n",
      "control_change channel=0 control=7 value=44 time=1\n",
      "pitchwheel channel=0 pitch=-1706 time=7\n",
      "pitchwheel channel=0 pitch=-1706 time=1\n",
      "pitchwheel channel=0 pitch=-1706 time=0\n",
      "pitchwheel channel=0 pitch=-955 time=3\n",
      "pitchwheel channel=0 pitch=-955 time=1\n",
      "pitchwheel channel=0 pitch=-955 time=0\n",
      "pitchwheel channel=0 pitch=-597 time=1\n",
      "pitchwheel channel=0 pitch=-597 time=0\n",
      "pitchwheel channel=0 pitch=-597 time=0\n",
      "pitchwheel channel=0 pitch=-238 time=2\n",
      "pitchwheel channel=0 pitch=-238 time=0\n",
      "pitchwheel channel=0 pitch=-238 time=0\n",
      "pitchwheel channel=0 pitch=0 time=2\n",
      "pitchwheel channel=0 pitch=0 time=0\n",
      "pitchwheel channel=0 pitch=0 time=0\n",
      "control_change channel=0 control=7 value=45 time=15\n",
      "control_change channel=0 control=7 value=46 time=10\n",
      "control_change channel=0 control=7 value=45 time=179\n",
      "control_change channel=0 control=7 value=43 time=20\n",
      "control_change channel=0 control=7 value=42 time=5\n",
      "control_change channel=0 control=7 value=38 time=10\n",
      "control_change channel=0 control=7 value=35 time=14\n",
      "control_change channel=0 control=7 value=34 time=3\n",
      "control_change channel=0 control=7 value=33 time=26\n",
      "pitchwheel channel=0 pitch=-597 time=3\n",
      "pitchwheel channel=0 pitch=-597 time=0\n",
      "pitchwheel channel=0 pitch=-597 time=0\n",
      "pitchwheel channel=0 pitch=-1535 time=1\n",
      "pitchwheel channel=0 pitch=-1535 time=1\n",
      "pitchwheel channel=0 pitch=-1535 time=0\n",
      "note_on channel=0 note=80 velocity=0 time=1\n",
      "pitchwheel channel=0 pitch=-2446 time=1\n",
      "pitchwheel channel=0 pitch=-2446 time=0\n",
      "pitchwheel channel=0 pitch=-2446 time=0\n",
      "control_change channel=0 control=7 value=31 time=2\n",
      "pitchwheel channel=0 pitch=-3003 time=0\n",
      "pitchwheel channel=0 pitch=-3003 time=0\n",
      "pitchwheel channel=0 pitch=-3003 time=0\n",
      "note_on channel=0 note=81 velocity=64 time=1\n",
      "pitchwheel channel=0 pitch=-3583 time=1\n",
      "pitchwheel channel=0 pitch=-3583 time=0\n",
      "pitchwheel channel=0 pitch=-3583 time=0\n",
      "control_change channel=0 control=7 value=30 time=2\n",
      "pitchwheel channel=0 pitch=-4215 time=1\n",
      "pitchwheel channel=0 pitch=-4215 time=0\n",
      "pitchwheel channel=0 pitch=-4215 time=0\n",
      "pitchwheel channel=0 pitch=-3583 time=9\n",
      "pitchwheel channel=0 pitch=-3583 time=0\n",
      "pitchwheel channel=0 pitch=-3583 time=0\n",
      "pitchwheel channel=0 pitch=-3003 time=1\n",
      "pitchwheel channel=0 pitch=-3003 time=0\n",
      "pitchwheel channel=0 pitch=-3003 time=1\n",
      "note_on channel=0 note=80 velocity=55 time=0\n",
      "pitchwheel channel=0 pitch=-2545 time=1\n",
      "pitchwheel channel=0 pitch=-2545 time=1\n",
      "pitchwheel channel=0 pitch=-2545 time=0\n",
      "pitchwheel channel=0 pitch=-2048 time=1\n",
      "pitchwheel channel=0 pitch=-2048 time=0\n",
      "pitchwheel channel=0 pitch=-2048 time=0\n",
      "pitchwheel channel=0 pitch=-1194 time=1\n",
      "pitchwheel channel=0 pitch=-1194 time=1\n",
      "pitchwheel channel=0 pitch=-1194 time=0\n",
      "pitchwheel channel=0 pitch=-597 time=1\n",
      "pitchwheel channel=0 pitch=-597 time=0\n",
      "pitchwheel channel=0 pitch=-597 time=1\n",
      "pitchwheel channel=0 pitch=0 time=1\n",
      "pitchwheel channel=0 pitch=0 time=1\n",
      "pitchwheel channel=0 pitch=0 time=0\n",
      "note_on channel=0 note=81 velocity=0 time=6\n",
      "note_on channel=0 note=78 velocity=56 time=10\n",
      "note_on channel=0 note=80 velocity=0 time=13\n",
      "note_on channel=0 note=76 velocity=56 time=13\n",
      "note_on channel=0 note=78 velocity=0 time=2\n",
      "control_change channel=0 control=7 value=33 time=10\n",
      "control_change channel=0 control=7 value=35 time=4\n",
      "pitchwheel channel=0 pitch=-597 time=13\n",
      "pitchwheel channel=0 pitch=-597 time=0\n",
      "pitchwheel channel=0 pitch=-597 time=0\n",
      "note_on channel=0 note=78 velocity=55 time=1\n",
      "pitchwheel channel=0 pitch=-1364 time=2\n",
      "pitchwheel channel=0 pitch=-1364 time=0\n",
      "pitchwheel channel=0 pitch=-1364 time=0\n",
      "pitchwheel channel=0 pitch=-2048 time=0\n",
      "pitchwheel channel=0 pitch=-2048 time=1\n",
      "pitchwheel channel=0 pitch=-2048 time=0\n",
      "pitchwheel channel=0 pitch=-2346 time=2\n",
      "pitchwheel channel=0 pitch=-2346 time=0\n",
      "pitchwheel channel=0 pitch=-2346 time=0\n",
      "pitchwheel channel=0 pitch=-2545 time=2\n",
      "control_change channel=0 control=7 value=37 time=1\n",
      "pitchwheel channel=0 pitch=-2545 time=0\n",
      "pitchwheel channel=0 pitch=-2545 time=0\n",
      "note_on channel=0 note=76 velocity=0 time=4\n",
      "pitchwheel channel=0 pitch=-2346 time=4\n",
      "pitchwheel channel=0 pitch=-2346 time=0\n",
      "pitchwheel channel=0 pitch=-2346 time=0\n",
      "pitchwheel channel=0 pitch=-2048 time=1\n",
      "pitchwheel channel=0 pitch=-2048 time=0\n",
      "pitchwheel channel=0 pitch=-2048 time=0\n",
      "pitchwheel channel=0 pitch=-1535 time=2\n",
      "pitchwheel channel=0 pitch=-1535 time=0\n",
      "pitchwheel channel=0 pitch=-1535 time=0\n",
      "pitchwheel channel=0 pitch=-955 time=1\n",
      "pitchwheel channel=0 pitch=-955 time=1\n",
      "pitchwheel channel=0 pitch=-955 time=0\n",
      "pitchwheel channel=0 pitch=-477 time=2\n",
      "pitchwheel channel=0 pitch=-477 time=0\n",
      "pitchwheel channel=0 pitch=-477 time=0\n",
      "pitchwheel channel=0 pitch=0 time=1\n",
      "pitchwheel channel=0 pitch=0 time=1\n",
      "pitchwheel channel=0 pitch=0 time=0\n",
      "note_on channel=0 note=83 velocity=68 time=41\n",
      "note_on channel=0 note=78 velocity=0 time=8\n",
      "control_change channel=0 control=7 value=36 time=201\n",
      "control_change channel=0 control=7 value=35 time=5\n",
      "control_change channel=0 control=7 value=34 time=8\n",
      "control_change channel=0 control=7 value=33 time=14\n",
      "control_change channel=0 control=7 value=31 time=4\n",
      "pitchwheel channel=0 pitch=-238 time=5\n",
      "pitchwheel channel=0 pitch=-238 time=1\n",
      "pitchwheel channel=0 pitch=-238 time=0\n",
      "pitchwheel channel=0 pitch=-955 time=1\n",
      "pitchwheel channel=0 pitch=-955 time=0\n",
      "pitchwheel channel=0 pitch=-955 time=0\n",
      "pitchwheel channel=0 pitch=-1706 time=2\n",
      "pitchwheel channel=0 pitch=-1706 time=0\n",
      "pitchwheel channel=0 pitch=-1706 time=0\n",
      "note_on channel=0 note=80 velocity=56 time=1\n",
      "note_on channel=0 note=83 velocity=0 time=1\n",
      "pitchwheel channel=0 pitch=-2346 time=1\n",
      "pitchwheel channel=0 pitch=-2346 time=0\n",
      "pitchwheel channel=0 pitch=-2346 time=0\n",
      "pitchwheel channel=0 pitch=-2645 time=0\n",
      "pitchwheel channel=0 pitch=-2645 time=1\n",
      "pitchwheel channel=0 pitch=-2645 time=0\n",
      "pitchwheel channel=0 pitch=-3122 time=1\n",
      "pitchwheel channel=0 pitch=-3122 time=0\n",
      "pitchwheel channel=0 pitch=-3122 time=0\n",
      "pitchwheel channel=0 pitch=-3583 time=4\n",
      "pitchwheel channel=0 pitch=-3583 time=0\n",
      "pitchwheel channel=0 pitch=-3583 time=0\n",
      "pitchwheel channel=0 pitch=-2883 time=8\n",
      "pitchwheel channel=0 pitch=-2883 time=1\n",
      "pitchwheel channel=0 pitch=-2883 time=0\n",
      "pitchwheel channel=0 pitch=-2545 time=2\n",
      "pitchwheel channel=0 pitch=-2545 time=0\n",
      "pitchwheel channel=0 pitch=-2545 time=0\n",
      "pitchwheel channel=0 pitch=-2147 time=0\n",
      "pitchwheel channel=0 pitch=-2147 time=1\n",
      "pitchwheel channel=0 pitch=-2147 time=0\n",
      "pitchwheel channel=0 pitch=-1535 time=3\n",
      "pitchwheel channel=0 pitch=-1535 time=0\n",
      "pitchwheel channel=0 pitch=-1535 time=0\n",
      "pitchwheel channel=0 pitch=-716 time=0\n",
      "pitchwheel channel=0 pitch=-716 time=1\n",
      "pitchwheel channel=0 pitch=-716 time=0\n",
      "pitchwheel channel=0 pitch=-119 time=2\n",
      "pitchwheel channel=0 pitch=-119 time=0\n",
      "pitchwheel channel=0 pitch=-119 time=0\n",
      "pitchwheel channel=0 pitch=0 time=1\n",
      "pitchwheel channel=0 pitch=0 time=1\n",
      "pitchwheel channel=0 pitch=0 time=0\n",
      "control_change channel=0 control=7 value=32 time=19\n",
      "control_change channel=0 control=7 value=33 time=12\n",
      "note_on channel=0 note=83 velocity=85 time=3\n",
      "note_on channel=0 note=80 velocity=0 time=7\n",
      "control_change channel=0 control=7 value=35 time=31\n",
      "pitchwheel channel=0 pitch=-597 time=11\n",
      "pitchwheel channel=0 pitch=-597 time=1\n",
      "pitchwheel channel=0 pitch=-597 time=0\n",
      "pitchwheel channel=0 pitch=-1364 time=2\n",
      "pitchwheel channel=0 pitch=-1364 time=0\n",
      "pitchwheel channel=0 pitch=-1364 time=0\n",
      "pitchwheel channel=0 pitch=-2147 time=0\n",
      "pitchwheel channel=0 pitch=-2147 time=1\n",
      "pitchwheel channel=0 pitch=-2147 time=0\n",
      "note_on channel=0 note=83 velocity=0 time=2\n",
      "pitchwheel channel=0 pitch=-2645 time=0\n",
      "pitchwheel channel=0 pitch=-2645 time=1\n",
      "pitchwheel channel=0 pitch=-2645 time=0\n",
      "pitchwheel channel=0 pitch=-3122 time=1\n",
      "pitchwheel channel=0 pitch=-3122 time=0\n",
      "pitchwheel channel=0 pitch=-3122 time=1\n",
      "note_on channel=0 note=85 velocity=55 time=0\n",
      "pitchwheel channel=0 pitch=-3583 time=2\n",
      "pitchwheel channel=0 pitch=-3583 time=0\n",
      "pitchwheel channel=0 pitch=-3583 time=0\n",
      "pitchwheel channel=0 pitch=-3122 time=11\n",
      "pitchwheel channel=0 pitch=-3122 time=0\n",
      "pitchwheel channel=0 pitch=-3122 time=1\n",
      "pitchwheel channel=0 pitch=-2545 time=3\n",
      "pitchwheel channel=0 pitch=-2545 time=0\n",
      "control_change channel=0 control=7 value=37 time=1\n",
      "pitchwheel channel=0 pitch=-2545 time=0\n",
      "pitchwheel channel=0 pitch=-2247 time=1\n",
      "pitchwheel channel=0 pitch=-2247 time=0\n",
      "pitchwheel channel=0 pitch=-2247 time=0\n",
      "pitchwheel channel=0 pitch=-1877 time=2\n",
      "pitchwheel channel=0 pitch=-1877 time=0\n",
      "pitchwheel channel=0 pitch=-1877 time=0\n",
      "pitchwheel channel=0 pitch=-1535 time=1\n",
      "pitchwheel channel=0 pitch=-1535 time=0\n",
      "pitchwheel channel=0 pitch=-1535 time=0\n",
      "pitchwheel channel=0 pitch=-1074 time=3\n",
      "pitchwheel channel=0 pitch=-1074 time=0\n",
      "pitchwheel channel=0 pitch=-1074 time=0\n",
      "pitchwheel channel=0 pitch=-597 time=1\n",
      "pitchwheel channel=0 pitch=-597 time=0\n",
      "pitchwheel channel=0 pitch=-597 time=0\n",
      "pitchwheel channel=0 pitch=-358 time=2\n",
      "pitchwheel channel=0 pitch=-358 time=0\n",
      "pitchwheel channel=0 pitch=-358 time=0\n",
      "pitchwheel channel=0 pitch=0 time=3\n",
      "pitchwheel channel=0 pitch=0 time=1\n",
      "pitchwheel channel=0 pitch=0 time=0\n",
      "control_change channel=0 control=7 value=38 time=5\n",
      "control_change channel=0 control=7 value=39 time=22\n",
      "control_change channel=0 control=7 value=40 time=5\n",
      "control_change channel=0 control=7 value=42 time=65\n",
      "control_change channel=0 control=7 value=45 time=4\n",
      "control_change channel=0 control=7 value=46 time=5\n",
      "control_change channel=0 control=7 value=45 time=52\n",
      "note_on channel=0 note=83 velocity=57 time=7\n",
      "note_on channel=0 note=85 velocity=0 time=8\n",
      "control_change channel=0 control=7 value=43 time=0\n",
      "control_change channel=0 control=7 value=42 time=5\n",
      "control_change channel=0 control=7 value=41 time=5\n",
      "control_change channel=0 control=7 value=40 time=15\n",
      "control_change channel=0 control=7 value=38 time=10\n",
      "control_change channel=0 control=7 value=37 time=25\n",
      "control_change channel=0 control=7 value=36 time=26\n",
      "control_change channel=0 control=7 value=35 time=23\n",
      "control_change channel=0 control=7 value=34 time=5\n",
      "control_change channel=0 control=7 value=33 time=12\n",
      "control_change channel=0 control=7 value=31 time=5\n",
      "pitchwheel channel=0 pitch=-119 time=3\n",
      "pitchwheel channel=0 pitch=-119 time=1\n",
      "pitchwheel channel=0 pitch=-119 time=0\n",
      "pitchwheel channel=0 pitch=-597 time=2\n",
      "pitchwheel channel=0 pitch=-597 time=0\n",
      "pitchwheel channel=0 pitch=-597 time=0\n",
      "pitchwheel channel=0 pitch=-1364 time=1\n",
      "pitchwheel channel=0 pitch=-1364 time=1\n",
      "pitchwheel channel=0 pitch=-1364 time=0\n",
      "pitchwheel channel=0 pitch=-2247 time=2\n",
      "pitchwheel channel=0 pitch=-2247 time=0\n",
      "pitchwheel channel=0 pitch=-2247 time=0\n",
      "control_change channel=0 control=7 value=30 time=2\n",
      "pitchwheel channel=0 pitch=-2764 time=0\n",
      "pitchwheel channel=0 pitch=-2764 time=0\n",
      "pitchwheel channel=0 pitch=-2764 time=0\n",
      "pitchwheel channel=0 pitch=-3242 time=1\n",
      "pitchwheel channel=0 pitch=-3242 time=0\n",
      "pitchwheel channel=0 pitch=-3242 time=0\n",
      "note_on channel=0 note=80 velocity=49 time=4\n",
      "pitchwheel channel=0 pitch=-3583 time=0\n",
      "pitchwheel channel=0 pitch=-3583 time=0\n",
      "pitchwheel channel=0 pitch=-3583 time=0\n",
      "pitchwheel channel=0 pitch=-3122 time=7\n",
      "pitchwheel channel=0 pitch=-3122 time=0\n",
      "pitchwheel channel=0 pitch=-3122 time=0\n",
      "pitchwheel channel=0 pitch=-2645 time=2\n",
      "pitchwheel channel=0 pitch=-2645 time=0\n",
      "pitchwheel channel=0 pitch=-2645 time=0\n",
      "pitchwheel channel=0 pitch=-2048 time=1\n",
      "pitchwheel channel=0 pitch=-2048 time=0\n",
      "pitchwheel channel=0 pitch=-2048 time=1\n",
      "pitchwheel channel=0 pitch=-1074 time=1\n",
      "pitchwheel channel=0 pitch=-1074 time=0\n",
      "pitchwheel channel=0 pitch=-1074 time=0\n",
      "note_on channel=0 note=83 velocity=0 time=1\n",
      "pitchwheel channel=0 pitch=-119 time=1\n",
      "pitchwheel channel=0 pitch=-119 time=1\n",
      "pitchwheel channel=0 pitch=-119 time=0\n",
      "control_change channel=0 control=7 value=31 time=1\n",
      "pitchwheel channel=0 pitch=0 time=0\n",
      "pitchwheel channel=0 pitch=0 time=0\n",
      "pitchwheel channel=0 pitch=0 time=0\n",
      "control_change channel=0 control=7 value=32 time=5\n",
      "control_change channel=0 control=7 value=33 time=5\n",
      "control_change channel=0 control=7 value=35 time=4\n",
      "control_change channel=0 control=7 value=38 time=5\n",
      "control_change channel=0 control=7 value=39 time=7\n",
      "control_change channel=0 control=7 value=40 time=9\n",
      "control_change channel=0 control=7 value=43 time=0\n",
      "control_change channel=0 control=7 value=44 time=14\n",
      "note_on channel=0 note=78 velocity=58 time=5\n",
      "control_change channel=0 control=7 value=45 time=5\n",
      "note_on channel=0 note=80 velocity=0 time=6\n",
      "control_change channel=0 control=7 value=46 time=9\n",
      "control_change channel=0 control=7 value=47 time=5\n",
      "control_change channel=0 control=7 value=49 time=10\n",
      "control_change channel=0 control=7 value=50 time=5\n",
      "control_change channel=0 control=7 value=51 time=12\n",
      "control_change channel=0 control=7 value=52 time=10\n",
      "control_change channel=0 control=7 value=53 time=5\n",
      "control_change channel=0 control=7 value=54 time=14\n",
      "control_change channel=0 control=7 value=57 time=10\n",
      "control_change channel=0 control=7 value=58 time=12\n",
      "control_change channel=0 control=7 value=59 time=10\n",
      "control_change channel=0 control=7 value=60 time=39\n",
      "control_change channel=0 control=7 value=59 time=64\n",
      "control_change channel=0 control=7 value=57 time=5\n",
      "control_change channel=0 control=7 value=56 time=5\n",
      "control_change channel=0 control=7 value=55 time=5\n",
      "control_change channel=0 control=7 value=54 time=5\n",
      "control_change channel=0 control=7 value=52 time=10\n",
      "control_change channel=0 control=7 value=50 time=15\n",
      "control_change channel=0 control=7 value=47 time=21\n",
      "control_change channel=0 control=7 value=45 time=9\n",
      "control_change channel=0 control=7 value=43 time=5\n",
      "control_change channel=0 control=7 value=42 time=7\n",
      "control_change channel=0 control=7 value=41 time=11\n",
      "control_change channel=0 control=7 value=40 time=4\n",
      "control_change channel=0 control=7 value=38 time=10\n",
      "control_change channel=0 control=7 value=37 time=5\n",
      "control_change channel=0 control=7 value=36 time=0\n",
      "control_change channel=0 control=7 value=35 time=30\n",
      "control_change channel=0 control=7 value=34 time=5\n",
      "control_change channel=0 control=7 value=30 time=15\n",
      "pitchwheel channel=0 pitch=-358 time=12\n",
      "pitchwheel channel=0 pitch=-358 time=0\n",
      "pitchwheel channel=0 pitch=-358 time=0\n",
      "control_change channel=0 control=7 value=26 time=3\n",
      "pitchwheel channel=0 pitch=-597 time=0\n",
      "pitchwheel channel=0 pitch=-597 time=0\n",
      "pitchwheel channel=0 pitch=-597 time=0\n",
      "control_change channel=0 control=7 value=24 time=1\n",
      "pitchwheel channel=0 pitch=-1074 time=3\n",
      "pitchwheel channel=0 pitch=-1074 time=0\n",
      "pitchwheel channel=0 pitch=-1074 time=0\n",
      "control_change channel=0 control=7 value=23 time=2\n",
      "pitchwheel channel=0 pitch=-1535 time=1\n",
      "pitchwheel channel=0 pitch=-1535 time=0\n",
      "pitchwheel channel=0 pitch=-1535 time=1\n",
      "control_change channel=0 control=7 value=22 time=2\n",
      "pitchwheel channel=0 pitch=-1877 time=2\n",
      "pitchwheel channel=0 pitch=-1877 time=1\n",
      "pitchwheel channel=0 pitch=-1877 time=0\n",
      "pitchwheel channel=0 pitch=-1535 time=17\n",
      "pitchwheel channel=0 pitch=-1535 time=1\n",
      "pitchwheel channel=0 pitch=-1535 time=0\n",
      "note_on channel=0 note=76 velocity=47 time=4\n",
      "pitchwheel channel=0 pitch=-1074 time=1\n",
      "pitchwheel channel=0 pitch=-1074 time=1\n",
      "pitchwheel channel=0 pitch=-1074 time=0\n",
      "pitchwheel channel=0 pitch=-716 time=3\n",
      "pitchwheel channel=0 pitch=-716 time=0\n",
      "pitchwheel channel=0 pitch=-716 time=0\n",
      "pitchwheel channel=0 pitch=-477 time=3\n",
      "pitchwheel channel=0 pitch=-477 time=0\n",
      "pitchwheel channel=0 pitch=-477 time=1\n",
      "pitchwheel channel=0 pitch=-119 time=4\n",
      "pitchwheel channel=0 pitch=-119 time=1\n",
      "pitchwheel channel=0 pitch=-119 time=0\n",
      "note_on channel=0 note=78 velocity=0 time=3\n",
      "pitchwheel channel=0 pitch=0 time=2\n",
      "pitchwheel channel=0 pitch=0 time=0\n",
      "pitchwheel channel=0 pitch=0 time=0\n",
      "control_change channel=0 control=7 value=21 time=43\n",
      "control_change channel=0 control=7 value=19 time=44\n",
      "control_change channel=0 control=7 value=17 time=26\n",
      "control_change channel=0 control=7 value=16 time=24\n",
      "control_change channel=0 control=7 value=15 time=0\n",
      "control_change channel=0 control=7 value=14 time=25\n",
      "control_change channel=0 control=7 value=12 time=17\n",
      "control_change channel=0 control=7 value=10 time=20\n",
      "note_on channel=0 note=76 velocity=0 time=10\n",
      "control_change channel=0 control=7 value=9 time=28\n",
      "control_change channel=0 control=7 value=8 time=0\n",
      "control_change channel=0 control=7 value=7 time=10\n",
      "control_change channel=0 control=7 value=5 time=57\n",
      "control_change channel=0 control=7 value=3 time=15\n"
     ]
    },
    {
     "name": "stdout",
     "output_type": "stream",
     "text": [
      "control_change channel=0 control=7 value=2 time=15\n",
      "control_change channel=0 control=7 value=1 time=24\n",
      "control_change channel=0 control=7 value=0 time=19\n",
      "control_change channel=0 control=7 value=0 time=2035\n",
      "control_change channel=0 control=7 value=3 time=15\n",
      "control_change channel=0 control=7 value=14 time=5\n",
      "control_change channel=0 control=7 value=17 time=5\n",
      "control_change channel=0 control=7 value=28 time=5\n",
      "control_change channel=0 control=7 value=30 time=5\n",
      "control_change channel=0 control=7 value=31 time=10\n",
      "control_change channel=0 control=7 value=32 time=5\n",
      "control_change channel=0 control=7 value=33 time=5\n",
      "control_change channel=0 control=7 value=35 time=25\n",
      "control_change channel=0 control=7 value=37 time=5\n",
      "control_change channel=0 control=7 value=38 time=5\n",
      "control_change channel=0 control=7 value=39 time=5\n",
      "control_change channel=0 control=7 value=40 time=10\n",
      "control_change channel=0 control=7 value=42 time=42\n",
      "control_change channel=0 control=7 value=43 time=33\n",
      "control_change channel=0 control=7 value=44 time=10\n",
      "control_change channel=0 control=7 value=45 time=15\n",
      "control_change channel=0 control=7 value=46 time=25\n",
      "control_change channel=0 control=7 value=47 time=31\n",
      "control_change channel=0 control=7 value=49 time=27\n",
      "control_change channel=0 control=7 value=50 time=20\n",
      "control_change channel=0 control=7 value=51 time=29\n",
      "control_change channel=0 control=7 value=52 time=70\n",
      "control_change channel=0 control=7 value=53 time=71\n",
      "control_change channel=0 control=7 value=54 time=35\n",
      "control_change channel=0 control=7 value=56 time=20\n",
      "control_change channel=0 control=7 value=57 time=40\n",
      "control_change channel=0 control=7 value=58 time=19\n",
      "control_change channel=0 control=7 value=59 time=25\n",
      "control_change channel=0 control=7 value=60 time=76\n",
      "control_change channel=0 control=7 value=61 time=15\n",
      "control_change channel=0 control=7 value=63 time=20\n",
      "control_change channel=0 control=7 value=64 time=12\n",
      "control_change channel=0 control=7 value=64 time=4684\n",
      "control_change channel=0 control=7 value=63 time=5\n",
      "control_change channel=0 control=7 value=64 time=93\n",
      "control_change channel=0 control=7 value=65 time=5\n",
      "control_change channel=0 control=7 value=66 time=1580\n",
      "control_change channel=0 control=7 value=64 time=108\n",
      "control_change channel=0 control=7 value=63 time=25\n",
      "control_change channel=0 control=7 value=64 time=180\n",
      "control_change channel=0 control=93 value=38 time=3007\n",
      "control_change channel=0 control=93 value=39 time=46\n",
      "control_change channel=0 control=93 value=40 time=18\n",
      "control_change channel=0 control=93 value=42 time=16\n",
      "control_change channel=0 control=93 value=45 time=5\n",
      "control_change channel=0 control=93 value=47 time=15\n",
      "control_change channel=0 control=93 value=51 time=15\n",
      "control_change channel=0 control=7 value=61 time=24346\n",
      "control_change channel=0 control=7 value=63 time=209\n",
      "note_on channel=0 note=76 velocity=28 time=190\n",
      "note_on channel=0 note=76 velocity=0 time=55\n",
      "note_on channel=0 note=78 velocity=34 time=5\n",
      "note_on channel=0 note=78 velocity=0 time=65\n",
      "control_change channel=0 control=7 value=64 time=5\n",
      "control_change channel=0 control=7 value=65 time=4\n",
      "pitchwheel channel=0 pitch=-716 time=8\n",
      "pitchwheel channel=0 pitch=-716 time=1\n",
      "pitchwheel channel=0 pitch=-716 time=0\n",
      "pitchwheel channel=0 pitch=-1706 time=2\n",
      "pitchwheel channel=0 pitch=-1706 time=0\n",
      "pitchwheel channel=0 pitch=-1706 time=0\n",
      "pitchwheel channel=0 pitch=-2645 time=2\n",
      "pitchwheel channel=0 pitch=-2645 time=0\n",
      "pitchwheel channel=0 pitch=-2645 time=0\n",
      "control_change channel=0 control=7 value=66 time=1\n",
      "pitchwheel channel=0 pitch=-3583 time=2\n",
      "pitchwheel channel=0 pitch=-3583 time=0\n",
      "pitchwheel channel=0 pitch=-3583 time=0\n",
      "note_on channel=0 note=80 velocity=37 time=1\n",
      "pitchwheel channel=0 pitch=-4693 time=1\n",
      "pitchwheel channel=0 pitch=-4693 time=1\n",
      "pitchwheel channel=0 pitch=-4693 time=0\n",
      "pitchwheel channel=0 pitch=-5190 time=2\n",
      "pitchwheel channel=0 pitch=-5190 time=0\n",
      "pitchwheel channel=0 pitch=-5190 time=0\n",
      "pitchwheel channel=0 pitch=-5802 time=2\n",
      "pitchwheel channel=0 pitch=-5802 time=0\n",
      "pitchwheel channel=0 pitch=-5802 time=0\n",
      "pitchwheel channel=0 pitch=-5190 time=12\n",
      "pitchwheel channel=0 pitch=-5190 time=0\n",
      "pitchwheel channel=0 pitch=-5190 time=0\n",
      "pitchwheel channel=0 pitch=-4693 time=2\n",
      "pitchwheel channel=0 pitch=-4693 time=0\n",
      "pitchwheel channel=0 pitch=-4693 time=0\n",
      "pitchwheel channel=0 pitch=-3122 time=2\n",
      "pitchwheel channel=0 pitch=-3122 time=0\n",
      "pitchwheel channel=0 pitch=-3122 time=0\n",
      "pitchwheel channel=0 pitch=-1364 time=2\n",
      "pitchwheel channel=0 pitch=-1364 time=0\n",
      "pitchwheel channel=0 pitch=-1364 time=1\n",
      "pitchwheel channel=0 pitch=0 time=2\n",
      "pitchwheel channel=0 pitch=0 time=1\n",
      "pitchwheel channel=0 pitch=0 time=0\n",
      "control_change channel=0 control=7 value=68 time=46\n",
      "control_change channel=0 control=7 value=70 time=64\n",
      "control_change channel=0 control=7 value=71 time=74\n",
      "control_change channel=0 control=7 value=72 time=22\n",
      "control_change channel=0 control=7 value=73 time=5\n",
      "control_change channel=0 control=7 value=75 time=10\n",
      "control_change channel=0 control=7 value=77 time=95\n",
      "control_change channel=0 control=7 value=80 time=5\n",
      "control_change channel=0 control=7 value=82 time=51\n",
      "control_change channel=0 control=7 value=84 time=5\n",
      "control_change channel=0 control=7 value=87 time=8\n",
      "control_change channel=0 control=7 value=89 time=4\n",
      "pitchwheel channel=0 pitch=-835 time=17\n",
      "pitchwheel channel=0 pitch=-835 time=0\n",
      "pitchwheel channel=0 pitch=-835 time=0\n",
      "pitchwheel channel=0 pitch=-2645 time=1\n",
      "pitchwheel channel=0 pitch=-2645 time=1\n",
      "pitchwheel channel=0 pitch=-2645 time=0\n",
      "pitchwheel channel=0 pitch=-4693 time=2\n",
      "pitchwheel channel=0 pitch=-4693 time=0\n",
      "pitchwheel channel=0 pitch=-4693 time=1\n",
      "note_on channel=0 note=81 velocity=51 time=1\n",
      "pitchwheel channel=0 pitch=-5802 time=2\n",
      "pitchwheel channel=0 pitch=-5802 time=0\n",
      "pitchwheel channel=0 pitch=-5802 time=0\n",
      "note_on channel=0 note=80 velocity=0 time=1\n",
      "pitchwheel channel=0 pitch=-6621 time=0\n",
      "pitchwheel channel=0 pitch=-6621 time=0\n",
      "pitchwheel channel=0 pitch=-6621 time=1\n",
      "pitchwheel channel=0 pitch=-7099 time=1\n",
      "pitchwheel channel=0 pitch=-7099 time=1\n",
      "pitchwheel channel=0 pitch=-7099 time=0\n",
      "pitchwheel channel=0 pitch=-7480 time=3\n",
      "pitchwheel channel=0 pitch=-7480 time=0\n",
      "pitchwheel channel=0 pitch=-7480 time=0\n",
      "pitchwheel channel=0 pitch=-7099 time=6\n",
      "pitchwheel channel=0 pitch=-7099 time=1\n",
      "pitchwheel channel=0 pitch=-7099 time=0\n",
      "pitchwheel channel=0 pitch=-6621 time=2\n",
      "pitchwheel channel=0 pitch=-6621 time=0\n",
      "pitchwheel channel=0 pitch=-6621 time=0\n",
      "pitchwheel channel=0 pitch=-5631 time=1\n",
      "pitchwheel channel=0 pitch=-5631 time=1\n",
      "pitchwheel channel=0 pitch=-5631 time=0\n",
      "pitchwheel channel=0 pitch=-4693 time=2\n",
      "pitchwheel channel=0 pitch=-4693 time=0\n",
      "pitchwheel channel=0 pitch=-4693 time=1\n",
      "note_on channel=0 note=80 velocity=25 time=1\n",
      "pitchwheel channel=0 pitch=-2645 time=2\n",
      "pitchwheel channel=0 pitch=-2645 time=0\n",
      "pitchwheel channel=0 pitch=-2645 time=0\n",
      "pitchwheel channel=0 pitch=-119 time=1\n",
      "pitchwheel channel=0 pitch=-119 time=0\n",
      "pitchwheel channel=0 pitch=-119 time=0\n",
      "pitchwheel channel=0 pitch=0 time=3\n",
      "pitchwheel channel=0 pitch=0 time=0\n",
      "pitchwheel channel=0 pitch=0 time=1\n",
      "note_on channel=0 note=81 velocity=0 time=12\n",
      "note_on channel=0 note=78 velocity=31 time=13\n",
      "note_on channel=0 note=80 velocity=0 time=17\n",
      "control_change channel=0 control=7 value=88 time=3\n",
      "control_change channel=0 control=7 value=87 time=4\n",
      "control_change channel=0 control=7 value=85 time=14\n",
      "note_on channel=0 note=76 velocity=33 time=0\n",
      "note_on channel=0 note=78 velocity=0 time=7\n",
      "control_change channel=0 control=7 value=84 time=0\n",
      "control_change channel=0 control=7 value=83 time=6\n",
      "control_change channel=0 control=7 value=82 time=5\n",
      "control_change channel=0 control=7 value=81 time=12\n",
      "pitchwheel channel=0 pitch=-119 time=6\n",
      "control_change channel=0 control=7 value=78 time=1\n",
      "pitchwheel channel=0 pitch=-119 time=0\n",
      "pitchwheel channel=0 pitch=-119 time=0\n",
      "pitchwheel channel=0 pitch=-1194 time=1\n",
      "pitchwheel channel=0 pitch=-1194 time=0\n",
      "pitchwheel channel=0 pitch=-1194 time=1\n",
      "pitchwheel channel=0 pitch=-3122 time=1\n",
      "pitchwheel channel=0 pitch=-3122 time=1\n",
      "pitchwheel channel=0 pitch=-3122 time=0\n",
      "pitchwheel channel=0 pitch=-5290 time=3\n",
      "pitchwheel channel=0 pitch=-5290 time=0\n",
      "pitchwheel channel=0 pitch=-5290 time=0\n",
      "note_on channel=0 note=78 velocity=32 time=1\n",
      "pitchwheel channel=0 pitch=-7218 time=1\n",
      "pitchwheel channel=0 pitch=-7218 time=0\n",
      "pitchwheel channel=0 pitch=-7218 time=1\n",
      "pitchwheel channel=0 pitch=-8192 time=2\n",
      "pitchwheel channel=0 pitch=-8192 time=0\n",
      "pitchwheel channel=0 pitch=-8192 time=0\n",
      "note_on channel=0 note=76 velocity=0 time=4\n",
      "control_change channel=0 control=7 value=77 time=6\n",
      "control_change channel=0 control=7 value=68 time=2\n",
      "pitchwheel channel=0 pitch=-7622 time=2\n",
      "pitchwheel channel=0 pitch=-7622 time=0\n",
      "pitchwheel channel=0 pitch=-7622 time=0\n",
      "pitchwheel channel=0 pitch=-6144 time=2\n",
      "pitchwheel channel=0 pitch=-6144 time=0\n",
      "pitchwheel channel=0 pitch=-6144 time=0\n",
      "pitchwheel channel=0 pitch=-3412 time=2\n",
      "pitchwheel channel=0 pitch=-3412 time=0\n",
      "pitchwheel channel=0 pitch=-3412 time=1\n",
      "pitchwheel channel=0 pitch=0 time=1\n",
      "pitchwheel channel=0 pitch=0 time=1\n",
      "pitchwheel channel=0 pitch=0 time=0\n",
      "control_change channel=0 control=7 value=67 time=3\n",
      "pitchwheel channel=0 pitch=1092 time=0\n",
      "pitchwheel channel=0 pitch=1092 time=0\n",
      "pitchwheel channel=0 pitch=1092 time=0\n",
      "pitchwheel channel=0 pitch=-358 time=1\n",
      "pitchwheel channel=0 pitch=-358 time=1\n",
      "pitchwheel channel=0 pitch=-358 time=0\n",
      "pitchwheel channel=0 pitch=0 time=2\n",
      "pitchwheel channel=0 pitch=0 time=0\n",
      "pitchwheel channel=0 pitch=0 time=0\n",
      "control_change channel=0 control=7 value=66 time=6\n",
      "control_change channel=0 control=7 value=68 time=35\n",
      "control_change channel=0 control=7 value=70 time=5\n",
      "control_change channel=0 control=7 value=73 time=7\n",
      "note_on channel=0 note=83 velocity=29 time=0\n",
      "note_on channel=0 note=78 velocity=0 time=1\n",
      "control_change channel=0 control=7 value=75 time=10\n",
      "control_change channel=0 control=7 value=77 time=10\n",
      "control_change channel=0 control=7 value=78 time=15\n",
      "control_change channel=0 control=7 value=82 time=15\n",
      "control_change channel=0 control=7 value=84 time=20\n",
      "control_change channel=0 control=7 value=87 time=22\n",
      "control_change channel=0 control=7 value=89 time=7\n",
      "control_change channel=0 control=7 value=90 time=34\n",
      "control_change channel=0 control=7 value=91 time=5\n",
      "control_change channel=0 control=7 value=92 time=5\n",
      "control_change channel=0 control=7 value=97 time=43\n",
      "control_change channel=0 control=7 value=108 time=18\n",
      "note_on channel=0 note=83 velocity=0 time=88\n",
      "pitchwheel channel=0 pitch=136 time=3\n",
      "pitchwheel channel=0 pitch=136 time=1\n",
      "pitchwheel channel=0 pitch=136 time=0\n",
      "pitchwheel channel=0 pitch=1502 time=2\n",
      "pitchwheel channel=0 pitch=1502 time=0\n",
      "pitchwheel channel=0 pitch=1502 time=0\n",
      "pitchwheel channel=0 pitch=3686 time=2\n",
      "pitchwheel channel=0 pitch=3686 time=0\n",
      "pitchwheel channel=0 pitch=3686 time=0\n",
      "note_on channel=0 note=81 velocity=38 time=2\n",
      "pitchwheel channel=0 pitch=4779 time=0\n",
      "pitchwheel channel=0 pitch=4779 time=1\n",
      "pitchwheel channel=0 pitch=4779 time=0\n",
      "pitchwheel channel=0 pitch=5598 time=1\n",
      "pitchwheel channel=0 pitch=5598 time=1\n",
      "pitchwheel channel=0 pitch=5598 time=0\n",
      "pitchwheel channel=0 pitch=6417 time=2\n",
      "pitchwheel channel=0 pitch=6417 time=0\n",
      "pitchwheel channel=0 pitch=6417 time=0\n",
      "pitchwheel channel=0 pitch=1366 time=4\n",
      "pitchwheel channel=0 pitch=1366 time=1\n",
      "pitchwheel channel=0 pitch=1366 time=0\n",
      "pitchwheel channel=0 pitch=-2346 time=2\n",
      "pitchwheel channel=0 pitch=-2346 time=0\n",
      "pitchwheel channel=0 pitch=-2346 time=1\n",
      "pitchwheel channel=0 pitch=0 time=0\n",
      "pitchwheel channel=0 pitch=0 time=1\n",
      "pitchwheel channel=0 pitch=0 time=0\n",
      "pitchwheel channel=0 pitch=546 time=3\n",
      "pitchwheel channel=0 pitch=546 time=1\n",
      "pitchwheel channel=0 pitch=546 time=0\n",
      "pitchwheel channel=0 pitch=0 time=2\n",
      "pitchwheel channel=0 pitch=0 time=0\n",
      "pitchwheel channel=0 pitch=0 time=0\n",
      "control_change channel=0 control=7 value=101 time=17\n",
      "control_change channel=0 control=7 value=90 time=3\n",
      "control_change channel=0 control=7 value=89 time=5\n",
      "control_change channel=0 control=7 value=78 time=9\n",
      "control_change channel=0 control=7 value=77 time=6\n",
      "control_change channel=0 control=7 value=73 time=4\n",
      "control_change channel=0 control=7 value=71 time=6\n",
      "note_on channel=0 note=80 velocity=35 time=7\n",
      "note_on channel=0 note=81 velocity=0 time=2\n",
      "control_change channel=0 control=7 value=70 time=8\n",
      "note_on channel=0 note=78 velocity=34 time=17\n",
      "note_on channel=0 note=80 velocity=0 time=13\n",
      "control_change channel=0 control=7 value=71 time=19\n",
      "pitchwheel channel=0 pitch=409 time=10\n",
      "pitchwheel channel=0 pitch=409 time=0\n",
      "pitchwheel channel=0 pitch=409 time=0\n",
      "pitchwheel channel=0 pitch=1502 time=2\n",
      "pitchwheel channel=0 pitch=1502 time=1\n",
      "pitchwheel channel=0 pitch=1502 time=0\n",
      "note_on channel=0 note=78 velocity=0 time=2\n",
      "note_on channel=0 note=76 velocity=40 time=0\n",
      "pitchwheel channel=0 pitch=2731 time=0\n",
      "pitchwheel channel=0 pitch=2731 time=0\n",
      "pitchwheel channel=0 pitch=2731 time=1\n",
      "pitchwheel channel=0 pitch=4642 time=2\n",
      "pitchwheel channel=0 pitch=4642 time=0\n",
      "pitchwheel channel=0 pitch=4642 time=0\n",
      "pitchwheel channel=0 pitch=6280 time=2\n",
      "pitchwheel channel=0 pitch=6280 time=0\n",
      "pitchwheel channel=0 pitch=6280 time=0\n",
      "pitchwheel channel=0 pitch=4779 time=2\n",
      "pitchwheel channel=0 pitch=4779 time=0\n",
      "pitchwheel channel=0 pitch=4779 time=0\n",
      "pitchwheel channel=0 pitch=1775 time=2\n",
      "pitchwheel channel=0 pitch=1775 time=1\n",
      "pitchwheel channel=0 pitch=1775 time=0\n",
      "pitchwheel channel=0 pitch=-1364 time=2\n",
      "pitchwheel channel=0 pitch=-1364 time=0\n",
      "pitchwheel channel=0 pitch=-1364 time=1\n",
      "pitchwheel channel=0 pitch=0 time=1\n",
      "control_change channel=0 control=7 value=77 time=1\n",
      "pitchwheel channel=0 pitch=0 time=0\n",
      "pitchwheel channel=0 pitch=0 time=0\n",
      "control_change channel=0 control=7 value=82 time=3\n",
      "control_change channel=0 control=7 value=84 time=17\n",
      "control_change channel=0 control=7 value=85 time=8\n",
      "control_change channel=0 control=7 value=86 time=5\n",
      "control_change channel=0 control=7 value=87 time=38\n",
      "control_change channel=0 control=7 value=89 time=41\n",
      "pitchwheel channel=0 pitch=546 time=108\n",
      "pitchwheel channel=0 pitch=546 time=0\n",
      "pitchwheel channel=0 pitch=546 time=0\n",
      "control_change channel=0 control=7 value=90 time=1\n",
      "pitchwheel channel=0 pitch=2275 time=1\n",
      "pitchwheel channel=0 pitch=2275 time=0\n",
      "pitchwheel channel=0 pitch=2275 time=0\n",
      "pitchwheel channel=0 pitch=3959 time=2\n",
      "pitchwheel channel=0 pitch=3959 time=0\n",
      "pitchwheel channel=0 pitch=3959 time=1\n",
      "control_change channel=0 control=7 value=91 time=1\n",
      "pitchwheel channel=0 pitch=5598 time=0\n",
      "pitchwheel channel=0 pitch=5598 time=1\n",
      "pitchwheel channel=0 pitch=5598 time=0\n",
      "note_on channel=0 note=73 velocity=44 time=2\n",
      "pitchwheel channel=0 pitch=7100 time=0\n",
      "pitchwheel channel=0 pitch=7100 time=0\n",
      "pitchwheel channel=0 pitch=7100 time=0\n",
      "pitchwheel channel=0 pitch=8191 time=2\n",
      "pitchwheel channel=0 pitch=8191 time=0\n",
      "pitchwheel channel=0 pitch=8191 time=0\n",
      "pitchwheel channel=0 pitch=6007 time=10\n",
      "pitchwheel channel=0 pitch=6007 time=1\n",
      "pitchwheel channel=0 pitch=6007 time=0\n",
      "pitchwheel channel=0 pitch=-1706 time=1\n",
      "pitchwheel channel=0 pitch=-1706 time=0\n",
      "pitchwheel channel=0 pitch=-1706 time=1\n",
      "pitchwheel channel=0 pitch=-3122 time=1\n",
      "pitchwheel channel=0 pitch=-3122 time=1\n",
      "pitchwheel channel=0 pitch=-3122 time=0\n",
      "pitchwheel channel=0 pitch=409 time=2\n",
      "pitchwheel channel=0 pitch=409 time=0\n",
      "pitchwheel channel=0 pitch=409 time=0\n",
      "pitchwheel channel=0 pitch=1229 time=3\n",
      "pitchwheel channel=0 pitch=1229 time=0\n",
      "pitchwheel channel=0 pitch=1229 time=0\n",
      "note_on channel=0 note=76 velocity=0 time=2\n",
      "pitchwheel channel=0 pitch=-477 time=0\n",
      "pitchwheel channel=0 pitch=-477 time=1\n",
      "pitchwheel channel=0 pitch=-477 time=0\n",
      "pitchwheel channel=0 pitch=0 time=1\n",
      "pitchwheel channel=0 pitch=0 time=0\n",
      "pitchwheel channel=0 pitch=0 time=1\n",
      "control_change channel=0 control=7 value=94 time=35\n",
      "control_change channel=0 control=7 value=97 time=41\n",
      "control_change channel=0 control=7 value=98 time=10\n",
      "control_change channel=0 control=7 value=97 time=63\n",
      "control_change channel=0 control=7 value=96 time=5\n",
      "control_change channel=0 control=7 value=95 time=8\n",
      "note_on channel=0 note=69 velocity=43 time=0\n",
      "control_change channel=0 control=7 value=94 time=7\n",
      "note_on channel=0 note=73 velocity=0 time=3\n",
      "control_change channel=0 control=7 value=92 time=0\n",
      "control_change channel=0 control=7 value=90 time=10\n",
      "control_change channel=0 control=7 value=89 time=4\n",
      "control_change channel=0 control=7 value=88 time=11\n",
      "note_on channel=0 note=71 velocity=42 time=48\n",
      "pitchwheel channel=0 pitch=1229 time=0\n",
      "pitchwheel channel=0 pitch=1229 time=1\n",
      "pitchwheel channel=0 pitch=1229 time=0\n",
      "pitchwheel channel=0 pitch=2275 time=1\n",
      "pitchwheel channel=0 pitch=2275 time=1\n",
      "pitchwheel channel=0 pitch=2275 time=0\n",
      "note_on channel=0 note=69 velocity=0 time=2\n",
      "pitchwheel channel=0 pitch=3004 time=1\n",
      "pitchwheel channel=0 pitch=3004 time=0\n",
      "pitchwheel channel=0 pitch=3004 time=0\n",
      "pitchwheel channel=0 pitch=3550 time=1\n",
      "pitchwheel channel=0 pitch=3550 time=0\n",
      "control_change channel=0 control=7 value=89 time=1\n",
      "pitchwheel channel=0 pitch=3550 time=0\n",
      "pitchwheel channel=0 pitch=3959 time=3\n",
      "pitchwheel channel=0 pitch=3959 time=0\n",
      "pitchwheel channel=0 pitch=3959 time=0\n",
      "pitchwheel channel=0 pitch=4232 time=4\n",
      "pitchwheel channel=0 pitch=4232 time=0\n",
      "pitchwheel channel=0 pitch=4232 time=0\n",
      "pitchwheel channel=0 pitch=2389 time=15\n",
      "pitchwheel channel=0 pitch=2389 time=0\n",
      "pitchwheel channel=0 pitch=2389 time=0\n",
      "pitchwheel channel=0 pitch=1638 time=2\n",
      "pitchwheel channel=0 pitch=1638 time=0\n",
      "pitchwheel channel=0 pitch=1638 time=0\n",
      "pitchwheel channel=0 pitch=1366 time=2\n",
      "pitchwheel channel=0 pitch=1366 time=0\n",
      "control_change channel=0 control=7 value=92 time=1\n",
      "pitchwheel channel=0 pitch=1366 time=0\n",
      "pitchwheel channel=0 pitch=546 time=4\n",
      "control_change channel=0 control=7 value=93 time=1\n",
      "pitchwheel channel=0 pitch=546 time=0\n",
      "pitchwheel channel=0 pitch=546 time=0\n",
      "pitchwheel channel=0 pitch=0 time=2\n",
      "pitchwheel channel=0 pitch=0 time=0\n",
      "pitchwheel channel=0 pitch=0 time=0\n",
      "control_change channel=0 control=7 value=94 time=1\n",
      "control_change channel=0 control=7 value=96 time=48\n",
      "control_change channel=0 control=7 value=97 time=10\n",
      "control_change channel=0 control=7 value=98 time=50\n",
      "control_change channel=0 control=7 value=97 time=120\n",
      "control_change channel=0 control=7 value=96 time=15\n",
      "control_change channel=0 control=7 value=95 time=15\n",
      "control_change channel=0 control=7 value=94 time=10\n",
      "control_change channel=0 control=7 value=92 time=9\n",
      "control_change channel=0 control=7 value=90 time=5\n",
      "control_change channel=0 control=7 value=89 time=9\n",
      "control_change channel=0 control=7 value=85 time=6\n",
      "control_change channel=0 control=7 value=84 time=3\n",
      "note_on channel=0 note=71 velocity=0 time=15\n",
      "control_change channel=0 control=7 value=83 time=3\n",
      "control_change channel=0 control=7 value=82 time=20\n",
      "control_change channel=0 control=7 value=81 time=2\n",
      "control_change channel=0 control=7 value=80 time=8\n",
      "control_change channel=0 control=7 value=78 time=4\n",
      "note_on channel=0 note=76 velocity=31 time=0\n",
      "pitchwheel channel=0 pitch=409 time=10\n",
      "pitchwheel channel=0 pitch=409 time=0\n",
      "pitchwheel channel=0 pitch=409 time=0\n",
      "pitchwheel channel=0 pitch=0 time=5\n",
      "pitchwheel channel=0 pitch=0 time=0\n",
      "control_change channel=0 control=7 value=77 time=1\n",
      "pitchwheel channel=0 pitch=0 time=0\n",
      "control_change channel=0 control=7 value=71 time=14\n",
      "control_change channel=0 control=7 value=75 time=40\n",
      "note_on channel=0 note=78 velocity=42 time=0\n",
      "note_on channel=0 note=76 velocity=0 time=9\n",
      "control_change channel=0 control=7 value=77 time=0\n",
      "control_change channel=0 control=7 value=78 time=5\n",
      "control_change channel=0 control=7 value=79 time=6\n",
      "control_change channel=0 control=7 value=80 time=5\n",
      "control_change channel=0 control=7 value=82 time=8\n",
      "control_change channel=0 control=7 value=84 time=5\n",
      "control_change channel=0 control=7 value=85 time=7\n",
      "control_change channel=0 control=7 value=86 time=3\n",
      "note_on channel=0 note=78 velocity=0 time=3\n",
      "control_change channel=0 control=7 value=87 time=5\n",
      "note_on channel=0 note=80 velocity=45 time=9\n",
      "pitchwheel channel=0 pitch=956 time=2\n",
      "pitchwheel channel=0 pitch=956 time=0\n",
      "pitchwheel channel=0 pitch=956 time=0\n",
      "pitchwheel channel=0 pitch=2503 time=2\n",
      "pitchwheel channel=0 pitch=2503 time=0\n",
      "pitchwheel channel=0 pitch=2503 time=0\n",
      "control_change channel=0 control=7 value=89 time=2\n",
      "pitchwheel channel=0 pitch=3959 time=0\n",
      "pitchwheel channel=0 pitch=3959 time=0\n",
      "pitchwheel channel=0 pitch=3959 time=0\n",
      "pitchwheel channel=0 pitch=5006 time=3\n",
      "pitchwheel channel=0 pitch=5006 time=0\n",
      "pitchwheel channel=0 pitch=5006 time=1\n",
      "pitchwheel channel=0 pitch=5734 time=1\n",
      "pitchwheel channel=0 pitch=5734 time=1\n",
      "pitchwheel channel=0 pitch=5734 time=0\n",
      "pitchwheel channel=0 pitch=4892 time=2\n",
      "pitchwheel channel=0 pitch=4892 time=0\n",
      "pitchwheel channel=0 pitch=4892 time=0\n",
      "pitchwheel channel=0 pitch=4232 time=7\n",
      "pitchwheel channel=0 pitch=4232 time=0\n",
      "pitchwheel channel=0 pitch=4232 time=0\n",
      "control_change channel=0 control=7 value=94 time=1\n",
      "pitchwheel channel=0 pitch=3414 time=0\n",
      "pitchwheel channel=0 pitch=3414 time=1\n",
      "pitchwheel channel=0 pitch=3414 time=0\n",
      "pitchwheel channel=0 pitch=546 time=3\n",
      "pitchwheel channel=0 pitch=546 time=0\n",
      "pitchwheel channel=0 pitch=546 time=1\n",
      "pitchwheel channel=0 pitch=-477 time=0\n",
      "pitchwheel channel=0 pitch=-477 time=1\n",
      "pitchwheel channel=0 pitch=-477 time=0\n",
      "pitchwheel channel=0 pitch=136 time=2\n",
      "pitchwheel channel=0 pitch=136 time=0\n",
      "pitchwheel channel=0 pitch=136 time=1\n",
      "pitchwheel channel=0 pitch=0 time=1\n",
      "pitchwheel channel=0 pitch=0 time=1\n",
      "pitchwheel channel=0 pitch=0 time=0\n",
      "control_change channel=0 control=7 value=96 time=68\n",
      "control_change channel=0 control=7 value=99 time=80\n",
      "control_change channel=0 control=7 value=100 time=5\n",
      "control_change channel=0 control=7 value=101 time=55\n",
      "control_change channel=0 control=7 value=103 time=5\n",
      "control_change channel=0 control=7 value=102 time=107\n",
      "control_change channel=0 control=7 value=99 time=6\n",
      "pitchwheel channel=0 pitch=-477 time=1\n",
      "pitchwheel channel=0 pitch=-477 time=0\n",
      "pitchwheel channel=0 pitch=-477 time=1\n",
      "note_on channel=0 note=80 velocity=0 time=3\n",
      "pitchwheel channel=0 pitch=-1706 time=0\n",
      "pitchwheel channel=0 pitch=-1706 time=0\n",
      "pitchwheel channel=0 pitch=-1706 time=0\n",
      "control_change channel=0 control=7 value=96 time=1\n",
      "pitchwheel channel=0 pitch=-2883 time=1\n",
      "pitchwheel channel=0 pitch=-2883 time=0\n",
      "pitchwheel channel=0 pitch=-2883 time=0\n",
      "pitchwheel channel=0 pitch=-4215 time=2\n",
      "pitchwheel channel=0 pitch=-4215 time=0\n",
      "pitchwheel channel=0 pitch=-4215 time=0\n",
      "pitchwheel channel=0 pitch=-4892 time=2\n",
      "pitchwheel channel=0 pitch=-4892 time=0\n",
      "control_change channel=0 control=7 value=92 time=1\n",
      "pitchwheel channel=0 pitch=-4892 time=0\n",
      "pitchwheel channel=0 pitch=-5631 time=1\n",
      "pitchwheel channel=0 pitch=-5631 time=1\n",
      "pitchwheel channel=0 pitch=-5631 time=0\n",
      "note_on channel=0 note=81 velocity=41 time=2\n",
      "pitchwheel channel=0 pitch=-6382 time=1\n",
      "pitchwheel channel=0 pitch=-6382 time=0\n",
      "pitchwheel channel=0 pitch=-6382 time=0\n",
      "pitchwheel channel=0 pitch=-6621 time=1\n",
      "pitchwheel channel=0 pitch=-6621 time=0\n",
      "pitchwheel channel=0 pitch=-6621 time=0\n",
      "pitchwheel channel=0 pitch=-6979 time=5\n",
      "pitchwheel channel=0 pitch=-6979 time=0\n",
      "pitchwheel channel=0 pitch=-6979 time=1\n",
      "pitchwheel channel=0 pitch=-6621 time=5\n",
      "pitchwheel channel=0 pitch=-6621 time=0\n",
      "pitchwheel channel=0 pitch=-6621 time=0\n",
      "pitchwheel channel=0 pitch=-6382 time=1\n",
      "pitchwheel channel=0 pitch=-6382 time=1\n",
      "pitchwheel channel=0 pitch=-6382 time=0\n",
      "pitchwheel channel=0 pitch=-5290 time=2\n",
      "pitchwheel channel=0 pitch=-5290 time=0\n",
      "pitchwheel channel=0 pitch=-5290 time=0\n",
      "pitchwheel channel=0 pitch=-4454 time=2\n",
      "pitchwheel channel=0 pitch=-4454 time=0\n",
      "pitchwheel channel=0 pitch=-4454 time=0\n",
      "pitchwheel channel=0 pitch=-2545 time=2\n",
      "pitchwheel channel=0 pitch=-2545 time=0\n",
      "pitchwheel channel=0 pitch=-2545 time=1\n",
      "pitchwheel channel=0 pitch=-238 time=2\n",
      "pitchwheel channel=0 pitch=-238 time=1\n",
      "pitchwheel channel=0 pitch=-238 time=0\n",
      "pitchwheel channel=0 pitch=0 time=1\n",
      "pitchwheel channel=0 pitch=0 time=0\n",
      "pitchwheel channel=0 pitch=0 time=1\n",
      "note_on channel=0 note=80 velocity=35 time=5\n",
      "note_on channel=0 note=81 velocity=0 time=12\n",
      "control_change channel=0 control=7 value=90 time=8\n",
      "note_on channel=0 note=78 velocity=37 time=20\n",
      "note_on channel=0 note=80 velocity=0 time=19\n",
      "note_on channel=0 note=76 velocity=44 time=12\n",
      "note_on channel=0 note=78 velocity=0 time=6\n",
      "pitchwheel channel=0 pitch=-597 time=8\n",
      "pitchwheel channel=0 pitch=-597 time=0\n",
      "pitchwheel channel=0 pitch=-597 time=1\n",
      "pitchwheel channel=0 pitch=-2147 time=1\n",
      "pitchwheel channel=0 pitch=-2147 time=1\n",
      "pitchwheel channel=0 pitch=-2147 time=0\n",
      "pitchwheel channel=0 pitch=-3583 time=2\n",
      "pitchwheel channel=0 pitch=-3583 time=0\n",
      "pitchwheel channel=0 pitch=-3583 time=1\n",
      "pitchwheel channel=0 pitch=-4991 time=1\n",
      "pitchwheel channel=0 pitch=-4991 time=1\n",
      "pitchwheel channel=0 pitch=-4991 time=0\n",
      "pitchwheel channel=0 pitch=-6382 time=2\n",
      "pitchwheel channel=0 pitch=-6382 time=0\n",
      "pitchwheel channel=0 pitch=-6382 time=0\n",
      "pitchwheel channel=0 pitch=-6979 time=2\n",
      "pitchwheel channel=0 pitch=-6979 time=0\n",
      "pitchwheel channel=0 pitch=-6979 time=0\n",
      "pitchwheel channel=0 pitch=-7480 time=3\n",
      "pitchwheel channel=0 pitch=-7480 time=0\n",
      "pitchwheel channel=0 pitch=-7480 time=1\n",
      "control_change channel=0 control=7 value=91 time=3\n",
      "pitchwheel channel=0 pitch=-6860 time=8\n",
      "pitchwheel channel=0 pitch=-6860 time=0\n",
      "pitchwheel channel=0 pitch=-6860 time=1\n",
      "pitchwheel channel=0 pitch=-6502 time=1\n",
      "pitchwheel channel=0 pitch=-6502 time=0\n",
      "pitchwheel channel=0 pitch=-6502 time=0\n",
      "note_on channel=0 note=78 velocity=45 time=2\n",
      "pitchwheel channel=0 pitch=-5631 time=0\n",
      "pitchwheel channel=0 pitch=-5631 time=1\n",
      "pitchwheel channel=0 pitch=-5631 time=0\n",
      "pitchwheel channel=0 pitch=-4693 time=2\n",
      "pitchwheel channel=0 pitch=-4693 time=0\n",
      "pitchwheel channel=0 pitch=-4693 time=0\n",
      "pitchwheel channel=0 pitch=-2545 time=2\n",
      "pitchwheel channel=0 pitch=-2545 time=0\n",
      "pitchwheel channel=0 pitch=-2545 time=1\n",
      "pitchwheel channel=0 pitch=0 time=1\n",
      "pitchwheel channel=0 pitch=0 time=1\n",
      "pitchwheel channel=0 pitch=0 time=0\n",
      "pitchwheel channel=0 pitch=136 time=2\n",
      "pitchwheel channel=0 pitch=136 time=0\n",
      "pitchwheel channel=0 pitch=136 time=1\n",
      "pitchwheel channel=0 pitch=0 time=1\n",
      "pitchwheel channel=0 pitch=0 time=1\n",
      "pitchwheel channel=0 pitch=0 time=0\n",
      "note_on channel=0 note=76 velocity=0 time=8\n",
      "control_change channel=0 control=7 value=92 time=12\n",
      "control_change channel=0 control=7 value=93 time=1\n",
      "note_on channel=0 note=83 velocity=47 time=38\n",
      "note_on channel=0 note=78 velocity=0 time=10\n",
      "control_change channel=0 control=7 value=92 time=166\n",
      "control_change channel=0 control=7 value=90 time=10\n",
      "control_change channel=0 control=7 value=87 time=114\n",
      "pitchwheel channel=0 pitch=-238 time=3\n",
      "pitchwheel channel=0 pitch=-238 time=1\n",
      "pitchwheel channel=0 pitch=-238 time=0\n",
      "pitchwheel channel=0 pitch=-716 time=2\n",
      "pitchwheel channel=0 pitch=-716 time=0\n",
      "pitchwheel channel=0 pitch=-716 time=1\n",
      "pitchwheel channel=0 pitch=-1706 time=1\n",
      "pitchwheel channel=0 pitch=-1706 time=1\n",
      "pitchwheel channel=0 pitch=-1706 time=0\n",
      "pitchwheel channel=0 pitch=-2764 time=2\n",
      "pitchwheel channel=0 pitch=-2764 time=0\n",
      "pitchwheel channel=0 pitch=-2764 time=1\n",
      "pitchwheel channel=0 pitch=-4693 time=1\n",
      "pitchwheel channel=0 pitch=-4693 time=1\n",
      "pitchwheel channel=0 pitch=-4693 time=0\n",
      "pitchwheel channel=0 pitch=-6860 time=2\n",
      "pitchwheel channel=0 pitch=-6860 time=0\n",
      "pitchwheel channel=0 pitch=-6860 time=0\n",
      "pitchwheel channel=0 pitch=-8192 time=1\n",
      "pitchwheel channel=0 pitch=-8192 time=1\n",
      "pitchwheel channel=0 pitch=-8192 time=0\n",
      "note_on channel=0 note=83 velocity=0 time=2\n",
      "note_on channel=0 note=80 velocity=34 time=3\n",
      "control_change channel=0 control=7 value=84 time=11\n",
      "control_change channel=0 control=7 value=83 time=0\n",
      "pitchwheel channel=0 pitch=-7622 time=9\n",
      "pitchwheel channel=0 pitch=-7622 time=0\n",
      "pitchwheel channel=0 pitch=-7622 time=0\n",
      "pitchwheel channel=0 pitch=-5290 time=2\n",
      "pitchwheel channel=0 pitch=-5290 time=0\n",
      "pitchwheel channel=0 pitch=-5290 time=0\n",
      "pitchwheel channel=0 pitch=0 time=2\n",
      "pitchwheel channel=0 pitch=0 time=0\n",
      "pitchwheel channel=0 pitch=0 time=0\n",
      "pitchwheel channel=0 pitch=2731 time=2\n",
      "pitchwheel channel=0 pitch=2731 time=0\n",
      "pitchwheel channel=0 pitch=2731 time=1\n",
      "pitchwheel channel=0 pitch=0 time=1\n",
      "pitchwheel channel=0 pitch=0 time=1\n",
      "pitchwheel channel=0 pitch=0 time=0\n",
      "pitchwheel channel=0 pitch=-477 time=3\n",
      "pitchwheel channel=0 pitch=-477 time=0\n",
      "pitchwheel channel=0 pitch=-477 time=0\n",
      "pitchwheel channel=0 pitch=273 time=2\n",
      "pitchwheel channel=0 pitch=273 time=0\n",
      "pitchwheel channel=0 pitch=273 time=0\n",
      "control_change channel=0 control=7 value=82 time=2\n",
      "pitchwheel channel=0 pitch=0 time=0\n",
      "pitchwheel channel=0 pitch=0 time=0\n",
      "pitchwheel channel=0 pitch=0 time=0\n",
      "note_on channel=0 note=83 velocity=47 time=31\n",
      "control_change channel=0 control=7 value=81 time=5\n",
      "control_change channel=0 control=7 value=80 time=7\n",
      "note_on channel=0 note=80 velocity=0 time=1\n",
      "control_change channel=0 control=7 value=78 time=8\n",
      "control_change channel=0 control=7 value=77 time=7\n",
      "control_change channel=0 control=7 value=76 time=18\n",
      "control_change channel=0 control=7 value=75 time=3\n",
      "control_change channel=0 control=7 value=74 time=9\n",
      "note_on channel=0 note=83 velocity=0 time=13\n",
      "note_on channel=0 note=85 velocity=39 time=14\n",
      "pitchwheel channel=0 pitch=546 time=2\n",
      "pitchwheel channel=0 pitch=546 time=0\n",
      "pitchwheel channel=0 pitch=546 time=0\n",
      "pitchwheel channel=0 pitch=1638 time=1\n",
      "pitchwheel channel=0 pitch=1638 time=1\n",
      "pitchwheel channel=0 pitch=1638 time=0\n",
      "control_change channel=0 control=7 value=73 time=2\n",
      "pitchwheel channel=0 pitch=3277 time=0\n",
      "pitchwheel channel=0 pitch=3277 time=0\n",
      "pitchwheel channel=0 pitch=3277 time=0\n",
      "pitchwheel channel=0 pitch=4779 time=2\n",
      "pitchwheel channel=0 pitch=4779 time=0\n",
      "pitchwheel channel=0 pitch=4779 time=0\n",
      "control_change channel=0 control=7 value=71 time=2\n",
      "pitchwheel channel=0 pitch=3277 time=1\n",
      "pitchwheel channel=0 pitch=3277 time=0\n",
      "pitchwheel channel=0 pitch=3277 time=1\n",
      "pitchwheel channel=0 pitch=2867 time=1\n",
      "pitchwheel channel=0 pitch=2867 time=1\n",
      "pitchwheel channel=0 pitch=2867 time=0\n",
      "control_change channel=0 control=7 value=70 time=1\n",
      "pitchwheel channel=0 pitch=0 time=0\n",
      "pitchwheel channel=0 pitch=0 time=0\n"
     ]
    },
    {
     "name": "stdout",
     "output_type": "stream",
     "text": [
      "pitchwheel channel=0 pitch=0 time=1\n",
      "pitchwheel channel=0 pitch=-477 time=1\n",
      "pitchwheel channel=0 pitch=-477 time=1\n",
      "pitchwheel channel=0 pitch=-477 time=0\n",
      "pitchwheel channel=0 pitch=136 time=3\n",
      "pitchwheel channel=0 pitch=136 time=0\n",
      "pitchwheel channel=0 pitch=136 time=0\n",
      "pitchwheel channel=0 pitch=0 time=2\n",
      "pitchwheel channel=0 pitch=0 time=0\n",
      "pitchwheel channel=0 pitch=0 time=0\n",
      "control_change channel=0 control=7 value=69 time=40\n",
      "control_change channel=0 control=7 value=68 time=10\n",
      "control_change channel=0 control=7 value=67 time=10\n",
      "control_change channel=0 control=7 value=66 time=62\n",
      "control_change channel=0 control=7 value=64 time=6\n",
      "control_change channel=0 control=7 value=63 time=20\n",
      "control_change channel=0 control=7 value=62 time=10\n",
      "control_change channel=0 control=7 value=59 time=32\n",
      "control_change channel=0 control=7 value=57 time=5\n",
      "pitchwheel channel=0 pitch=273 time=27\n",
      "pitchwheel channel=0 pitch=273 time=0\n",
      "pitchwheel channel=0 pitch=273 time=0\n",
      "pitchwheel channel=0 pitch=1502 time=2\n",
      "pitchwheel channel=0 pitch=1502 time=0\n",
      "pitchwheel channel=0 pitch=1502 time=1\n",
      "pitchwheel channel=0 pitch=2617 time=2\n",
      "pitchwheel channel=0 pitch=2617 time=1\n",
      "pitchwheel channel=0 pitch=2617 time=0\n",
      "pitchwheel channel=0 pitch=3686 time=2\n",
      "pitchwheel channel=0 pitch=3686 time=0\n",
      "pitchwheel channel=0 pitch=3686 time=0\n",
      "pitchwheel channel=0 pitch=4232 time=1\n",
      "pitchwheel channel=0 pitch=4232 time=1\n",
      "pitchwheel channel=0 pitch=4232 time=0\n",
      "pitchwheel channel=0 pitch=4642 time=2\n",
      "pitchwheel channel=0 pitch=4642 time=0\n",
      "pitchwheel channel=0 pitch=4642 time=0\n",
      "note_on channel=0 note=85 velocity=0 time=2\n",
      "note_on channel=0 note=87 velocity=31 time=2\n",
      "pitchwheel channel=0 pitch=1775 time=4\n",
      "pitchwheel channel=0 pitch=1775 time=0\n",
      "pitchwheel channel=0 pitch=1775 time=0\n",
      "pitchwheel channel=0 pitch=-1364 time=2\n",
      "pitchwheel channel=0 pitch=-1364 time=0\n",
      "pitchwheel channel=0 pitch=-1364 time=0\n",
      "pitchwheel channel=0 pitch=0 time=2\n",
      "pitchwheel channel=0 pitch=0 time=0\n",
      "pitchwheel channel=0 pitch=0 time=0\n",
      "control_change channel=0 control=7 value=56 time=8\n",
      "control_change channel=0 control=7 value=55 time=47\n",
      "control_change channel=0 control=7 value=54 time=5\n",
      "control_change channel=0 control=7 value=52 time=5\n",
      "control_change channel=0 control=7 value=50 time=42\n",
      "control_change channel=0 control=7 value=49 time=29\n",
      "control_change channel=0 control=7 value=48 time=0\n",
      "control_change channel=0 control=7 value=47 time=46\n",
      "control_change channel=0 control=7 value=43 time=49\n",
      "pitchwheel channel=0 pitch=956 time=4\n",
      "pitchwheel channel=0 pitch=956 time=0\n",
      "pitchwheel channel=0 pitch=956 time=0\n",
      "pitchwheel channel=0 pitch=2617 time=1\n",
      "pitchwheel channel=0 pitch=2617 time=1\n",
      "pitchwheel channel=0 pitch=2617 time=0\n",
      "pitchwheel channel=0 pitch=4642 time=2\n",
      "pitchwheel channel=0 pitch=4642 time=0\n",
      "pitchwheel channel=0 pitch=4642 time=0\n",
      "pitchwheel channel=0 pitch=6007 time=2\n",
      "pitchwheel channel=0 pitch=6007 time=1\n",
      "pitchwheel channel=0 pitch=6007 time=0\n",
      "pitchwheel channel=0 pitch=7100 time=2\n",
      "pitchwheel channel=0 pitch=7100 time=0\n",
      "pitchwheel channel=0 pitch=7100 time=1\n",
      "pitchwheel channel=0 pitch=7737 time=2\n",
      "pitchwheel channel=0 pitch=7737 time=0\n",
      "pitchwheel channel=0 pitch=7737 time=0\n",
      "note_on channel=0 note=88 velocity=35 time=1\n",
      "note_on channel=0 note=87 velocity=0 time=1\n",
      "pitchwheel channel=0 pitch=2161 time=2\n",
      "pitchwheel channel=0 pitch=2161 time=0\n",
      "pitchwheel channel=0 pitch=2161 time=1\n",
      "pitchwheel channel=0 pitch=-2764 time=1\n",
      "pitchwheel channel=0 pitch=-2764 time=1\n",
      "pitchwheel channel=0 pitch=-2764 time=0\n",
      "pitchwheel channel=0 pitch=-597 time=3\n",
      "pitchwheel channel=0 pitch=-597 time=0\n",
      "pitchwheel channel=0 pitch=-597 time=0\n",
      "pitchwheel channel=0 pitch=1502 time=2\n",
      "pitchwheel channel=0 pitch=1502 time=0\n",
      "pitchwheel channel=0 pitch=1502 time=0\n",
      "pitchwheel channel=0 pitch=0 time=2\n",
      "pitchwheel channel=0 pitch=0 time=0\n",
      "pitchwheel channel=0 pitch=0 time=0\n",
      "control_change channel=0 control=7 value=42 time=7\n",
      "control_change channel=0 control=7 value=41 time=18\n",
      "control_change channel=0 control=7 value=40 time=26\n",
      "control_change channel=0 control=7 value=38 time=4\n",
      "control_change channel=0 control=7 value=37 time=22\n",
      "control_change channel=0 control=7 value=36 time=9\n",
      "control_change channel=0 control=7 value=35 time=24\n",
      "control_change channel=0 control=7 value=34 time=26\n",
      "control_change channel=0 control=7 value=33 time=19\n",
      "control_change channel=0 control=7 value=31 time=13\n",
      "control_change channel=0 control=7 value=30 time=58\n",
      "control_change channel=0 control=7 value=29 time=4\n",
      "control_change channel=0 control=7 value=28 time=9\n",
      "pitchwheel channel=0 pitch=273 time=2\n",
      "pitchwheel channel=0 pitch=273 time=0\n",
      "pitchwheel channel=0 pitch=273 time=1\n",
      "pitchwheel channel=0 pitch=1229 time=1\n",
      "control_change channel=0 control=7 value=27 time=1\n",
      "pitchwheel channel=0 pitch=1229 time=0\n",
      "pitchwheel channel=0 pitch=1229 time=0\n",
      "pitchwheel channel=0 pitch=2503 time=3\n",
      "pitchwheel channel=0 pitch=2503 time=0\n",
      "pitchwheel channel=0 pitch=2503 time=0\n",
      "pitchwheel channel=0 pitch=4096 time=2\n",
      "pitchwheel channel=0 pitch=4096 time=0\n",
      "pitchwheel channel=0 pitch=4096 time=0\n",
      "pitchwheel channel=0 pitch=5006 time=2\n",
      "pitchwheel channel=0 pitch=5006 time=0\n",
      "pitchwheel channel=0 pitch=5006 time=1\n",
      "pitchwheel channel=0 pitch=4232 time=1\n",
      "pitchwheel channel=0 pitch=4232 time=0\n",
      "pitchwheel channel=0 pitch=4232 time=0\n",
      "control_change channel=0 control=7 value=26 time=3\n",
      "note_on channel=0 note=90 velocity=37 time=0\n",
      "pitchwheel channel=0 pitch=2161 time=3\n",
      "pitchwheel channel=0 pitch=2161 time=0\n",
      "pitchwheel channel=0 pitch=2161 time=0\n",
      "pitchwheel channel=0 pitch=-955 time=2\n",
      "pitchwheel channel=0 pitch=-955 time=0\n",
      "pitchwheel channel=0 pitch=-955 time=1\n",
      "note_on channel=0 note=88 velocity=0 time=1\n",
      "pitchwheel channel=0 pitch=0 time=1\n",
      "pitchwheel channel=0 pitch=0 time=0\n",
      "pitchwheel channel=0 pitch=0 time=0\n",
      "control_change channel=0 control=7 value=24 time=39\n",
      "control_change channel=0 control=7 value=23 time=8\n",
      "control_change channel=0 control=7 value=22 time=37\n",
      "control_change channel=0 control=7 value=21 time=13\n",
      "control_change channel=0 control=7 value=19 time=30\n",
      "control_change channel=0 control=7 value=17 time=40\n",
      "control_change channel=0 control=7 value=16 time=4\n",
      "control_change channel=0 control=7 value=15 time=10\n",
      "control_change channel=0 control=7 value=14 time=6\n",
      "control_change channel=0 control=7 value=12 time=10\n",
      "control_change channel=0 control=7 value=10 time=5\n",
      "control_change channel=0 control=7 value=9 time=5\n",
      "pitchwheel channel=0 pitch=546 time=39\n",
      "pitchwheel channel=0 pitch=546 time=0\n",
      "pitchwheel channel=0 pitch=546 time=0\n",
      "pitchwheel channel=0 pitch=1502 time=2\n",
      "pitchwheel channel=0 pitch=1502 time=0\n",
      "pitchwheel channel=0 pitch=1502 time=1\n",
      "pitchwheel channel=0 pitch=2389 time=1\n",
      "pitchwheel channel=0 pitch=2389 time=1\n",
      "pitchwheel channel=0 pitch=2389 time=0\n",
      "note_on channel=0 note=92 velocity=48 time=1\n",
      "pitchwheel channel=0 pitch=3004 time=0\n",
      "pitchwheel channel=0 pitch=3004 time=1\n",
      "pitchwheel channel=0 pitch=3004 time=0\n",
      "pitchwheel channel=0 pitch=3414 time=2\n",
      "pitchwheel channel=0 pitch=3414 time=0\n",
      "pitchwheel channel=0 pitch=3414 time=0\n",
      "note_on channel=0 note=90 velocity=0 time=8\n",
      "pitchwheel channel=0 pitch=2617 time=6\n",
      "pitchwheel channel=0 pitch=2617 time=1\n",
      "pitchwheel channel=0 pitch=2617 time=0\n",
      "pitchwheel channel=0 pitch=1638 time=2\n",
      "pitchwheel channel=0 pitch=1638 time=0\n",
      "pitchwheel channel=0 pitch=1638 time=0\n",
      "pitchwheel channel=0 pitch=0 time=2\n",
      "pitchwheel channel=0 pitch=0 time=0\n",
      "pitchwheel channel=0 pitch=0 time=0\n",
      "note_on channel=0 note=94 velocity=25 time=508\n",
      "note_on channel=0 note=92 velocity=0 time=3\n",
      "note_on channel=0 note=94 velocity=0 time=471\n",
      "control_change channel=0 control=7 value=66 time=731\n",
      "MetaMessage('end_of_track', time=0)\n",
      "Track 5: Pan Flute 1\n",
      "MetaMessage('midi_port', port=0, time=0)\n",
      "MetaMessage('track_name', name='Pan Flute 1', time=0)\n",
      "control_change channel=1 control=0 value=0 time=0\n",
      "program_change channel=1 program=75 time=0\n",
      "control_change channel=1 control=7 value=120 time=0\n",
      "control_change channel=1 control=10 value=75 time=0\n",
      "note_on channel=1 note=76 velocity=82 time=253\n",
      "note_on channel=1 note=76 velocity=0 time=48\n",
      "note_on channel=1 note=78 velocity=70 time=2\n",
      "control_change channel=1 control=7 value=120 time=20\n",
      "control_change channel=1 control=7 value=90 time=25\n",
      "note_on channel=1 note=78 velocity=0 time=5\n",
      "note_on channel=1 note=80 velocity=64 time=5\n",
      "pitchwheel channel=1 pitch=-955 time=1\n",
      "pitchwheel channel=1 pitch=-955 time=0\n",
      "pitchwheel channel=1 pitch=-955 time=1\n",
      "pitchwheel channel=1 pitch=-2545 time=0\n",
      "control_change channel=1 control=7 value=84 time=1\n",
      "control_change channel=1 control=7 value=83 time=0\n",
      "pitchwheel channel=1 pitch=-2545 time=0\n",
      "pitchwheel channel=1 pitch=-2545 time=0\n",
      "pitchwheel channel=1 pitch=-4334 time=2\n",
      "pitchwheel channel=1 pitch=-4334 time=0\n",
      "pitchwheel channel=1 pitch=-4334 time=0\n",
      "pitchwheel channel=1 pitch=-5290 time=1\n",
      "control_change channel=1 control=7 value=82 time=1\n",
      "pitchwheel channel=1 pitch=-5290 time=0\n",
      "pitchwheel channel=1 pitch=-5290 time=0\n",
      "pitchwheel channel=1 pitch=-6263 time=2\n",
      "pitchwheel channel=1 pitch=-6263 time=0\n",
      "pitchwheel channel=1 pitch=-6263 time=0\n",
      "control_change channel=1 control=7 value=78 time=1\n",
      "pitchwheel channel=1 pitch=-6621 time=0\n",
      "pitchwheel channel=1 pitch=-6621 time=0\n",
      "pitchwheel channel=1 pitch=-6621 time=0\n",
      "pitchwheel channel=1 pitch=-5802 time=11\n",
      "pitchwheel channel=1 pitch=-5802 time=0\n",
      "pitchwheel channel=1 pitch=-5802 time=0\n",
      "pitchwheel channel=1 pitch=-5091 time=2\n",
      "pitchwheel channel=1 pitch=-5091 time=0\n",
      "pitchwheel channel=1 pitch=-5091 time=0\n",
      "pitchwheel channel=1 pitch=-4334 time=2\n",
      "pitchwheel channel=1 pitch=-4334 time=0\n",
      "pitchwheel channel=1 pitch=-4334 time=0\n",
      "control_change channel=1 control=7 value=77 time=1\n",
      "pitchwheel channel=1 pitch=-3242 time=0\n",
      "pitchwheel channel=1 pitch=-3242 time=1\n",
      "pitchwheel channel=1 pitch=-3242 time=0\n",
      "pitchwheel channel=1 pitch=-2247 time=1\n",
      "pitchwheel channel=1 pitch=-2247 time=0\n",
      "pitchwheel channel=1 pitch=-2247 time=0\n",
      "pitchwheel channel=1 pitch=-955 time=2\n",
      "pitchwheel channel=1 pitch=-955 time=1\n",
      "pitchwheel channel=1 pitch=-955 time=0\n",
      "pitchwheel channel=1 pitch=0 time=1\n",
      "pitchwheel channel=1 pitch=0 time=0\n",
      "pitchwheel channel=1 pitch=0 time=0\n",
      "control_change channel=1 control=7 value=76 time=55\n",
      "control_change channel=1 control=7 value=73 time=15\n",
      "control_change channel=1 control=7 value=71 time=120\n",
      "control_change channel=1 control=7 value=70 time=14\n",
      "pitchwheel channel=1 pitch=-477 time=57\n",
      "pitchwheel channel=1 pitch=-477 time=1\n",
      "pitchwheel channel=1 pitch=-477 time=0\n",
      "pitchwheel channel=1 pitch=-1364 time=2\n",
      "pitchwheel channel=1 pitch=-1364 time=0\n",
      "pitchwheel channel=1 pitch=-1364 time=0\n",
      "pitchwheel channel=1 pitch=-2446 time=1\n",
      "pitchwheel channel=1 pitch=-2446 time=0\n",
      "pitchwheel channel=1 pitch=-2446 time=0\n",
      "note_on channel=1 note=81 velocity=65 time=2\n",
      "pitchwheel channel=1 pitch=-3412 time=1\n",
      "pitchwheel channel=1 pitch=-3412 time=0\n",
      "pitchwheel channel=1 pitch=-3412 time=0\n",
      "pitchwheel channel=1 pitch=-4454 time=0\n",
      "pitchwheel channel=1 pitch=-4454 time=1\n",
      "pitchwheel channel=1 pitch=-4454 time=0\n",
      "pitchwheel channel=1 pitch=-4892 time=1\n",
      "pitchwheel channel=1 pitch=-4892 time=0\n",
      "pitchwheel channel=1 pitch=-4892 time=1\n",
      "pitchwheel channel=1 pitch=-5290 time=1\n",
      "pitchwheel channel=1 pitch=-5290 time=1\n",
      "pitchwheel channel=1 pitch=-5290 time=0\n",
      "pitchwheel channel=1 pitch=-4792 time=10\n",
      "pitchwheel channel=1 pitch=-4792 time=0\n",
      "pitchwheel channel=1 pitch=-4792 time=1\n",
      "pitchwheel channel=1 pitch=-4334 time=1\n",
      "pitchwheel channel=1 pitch=-4334 time=0\n",
      "pitchwheel channel=1 pitch=-4334 time=0\n",
      "pitchwheel channel=1 pitch=-3583 time=2\n",
      "pitchwheel channel=1 pitch=-3583 time=0\n",
      "pitchwheel channel=1 pitch=-3583 time=1\n",
      "pitchwheel channel=1 pitch=-2883 time=1\n",
      "pitchwheel channel=1 pitch=-2883 time=0\n",
      "pitchwheel channel=1 pitch=-2883 time=0\n",
      "pitchwheel channel=1 pitch=-2346 time=2\n",
      "pitchwheel channel=1 pitch=-2346 time=0\n",
      "pitchwheel channel=1 pitch=-2346 time=0\n",
      "pitchwheel channel=1 pitch=-1706 time=1\n",
      "pitchwheel channel=1 pitch=-1706 time=0\n",
      "pitchwheel channel=1 pitch=-1706 time=0\n",
      "pitchwheel channel=1 pitch=-955 time=2\n",
      "pitchwheel channel=1 pitch=-955 time=0\n",
      "pitchwheel channel=1 pitch=-955 time=0\n",
      "pitchwheel channel=1 pitch=-477 time=2\n",
      "pitchwheel channel=1 pitch=-477 time=0\n",
      "pitchwheel channel=1 pitch=-477 time=0\n",
      "pitchwheel channel=1 pitch=0 time=2\n",
      "pitchwheel channel=1 pitch=0 time=0\n",
      "pitchwheel channel=1 pitch=0 time=0\n",
      "note_on channel=1 note=81 velocity=0 time=8\n",
      "note_on channel=1 note=78 velocity=54 time=1\n",
      "note_on channel=1 note=80 velocity=0 time=11\n",
      "control_change channel=1 control=7 value=69 time=19\n",
      "note_on channel=1 note=76 velocity=64 time=0\n",
      "note_on channel=1 note=78 velocity=0 time=5\n",
      "control_change channel=1 control=7 value=68 time=10\n",
      "note_on channel=1 note=78 velocity=52 time=14\n",
      "pitchwheel channel=1 pitch=-477 time=5\n",
      "pitchwheel channel=1 pitch=-477 time=0\n",
      "pitchwheel channel=1 pitch=-477 time=0\n",
      "pitchwheel channel=1 pitch=-835 time=2\n",
      "pitchwheel channel=1 pitch=-835 time=0\n",
      "pitchwheel channel=1 pitch=-835 time=1\n",
      "note_on channel=1 note=76 velocity=0 time=1\n",
      "pitchwheel channel=1 pitch=-1535 time=2\n",
      "pitchwheel channel=1 pitch=-1535 time=0\n",
      "pitchwheel channel=1 pitch=-1535 time=0\n",
      "pitchwheel channel=1 pitch=-1877 time=1\n",
      "pitchwheel channel=1 pitch=-1877 time=0\n",
      "pitchwheel channel=1 pitch=-1877 time=0\n",
      "pitchwheel channel=1 pitch=-2247 time=3\n",
      "pitchwheel channel=1 pitch=-2247 time=0\n",
      "pitchwheel channel=1 pitch=-2247 time=0\n",
      "pitchwheel channel=1 pitch=-2545 time=1\n",
      "pitchwheel channel=1 pitch=-2545 time=0\n",
      "pitchwheel channel=1 pitch=-2545 time=0\n",
      "pitchwheel channel=1 pitch=-1877 time=13\n",
      "pitchwheel channel=1 pitch=-1877 time=0\n",
      "pitchwheel channel=1 pitch=-1877 time=0\n",
      "pitchwheel channel=1 pitch=-1364 time=1\n",
      "pitchwheel channel=1 pitch=-1364 time=1\n",
      "pitchwheel channel=1 pitch=-1364 time=0\n",
      "pitchwheel channel=1 pitch=-835 time=1\n",
      "pitchwheel channel=1 pitch=-835 time=0\n",
      "pitchwheel channel=1 pitch=-835 time=1\n",
      "pitchwheel channel=1 pitch=-358 time=1\n",
      "pitchwheel channel=1 pitch=-358 time=0\n",
      "pitchwheel channel=1 pitch=-358 time=0\n",
      "pitchwheel channel=1 pitch=0 time=1\n",
      "pitchwheel channel=1 pitch=0 time=0\n",
      "pitchwheel channel=1 pitch=0 time=1\n",
      "note_on channel=1 note=83 velocity=54 time=38\n",
      "note_on channel=1 note=78 velocity=0 time=3\n",
      "control_change channel=1 control=7 value=71 time=125\n",
      "note_on channel=1 note=83 velocity=0 time=172\n",
      "pitchwheel channel=1 pitch=-238 time=1\n",
      "pitchwheel channel=1 pitch=-238 time=0\n",
      "pitchwheel channel=1 pitch=-238 time=1\n",
      "note_on channel=1 note=81 velocity=62 time=1\n",
      "pitchwheel channel=1 pitch=-716 time=0\n",
      "pitchwheel channel=1 pitch=-716 time=0\n",
      "pitchwheel channel=1 pitch=-716 time=0\n",
      "pitchwheel channel=1 pitch=-1364 time=2\n",
      "pitchwheel channel=1 pitch=-1364 time=0\n",
      "pitchwheel channel=1 pitch=-1364 time=0\n",
      "pitchwheel channel=1 pitch=-1877 time=1\n",
      "pitchwheel channel=1 pitch=-1877 time=1\n",
      "pitchwheel channel=1 pitch=-1877 time=0\n",
      "pitchwheel channel=1 pitch=-2346 time=3\n",
      "pitchwheel channel=1 pitch=-2346 time=0\n",
      "pitchwheel channel=1 pitch=-2346 time=0\n",
      "pitchwheel channel=1 pitch=-1706 time=13\n",
      "pitchwheel channel=1 pitch=-1706 time=0\n",
      "pitchwheel channel=1 pitch=-1706 time=0\n",
      "pitchwheel channel=1 pitch=-1074 time=1\n",
      "pitchwheel channel=1 pitch=-1074 time=0\n",
      "pitchwheel channel=1 pitch=-1074 time=0\n",
      "pitchwheel channel=1 pitch=-597 time=2\n",
      "pitchwheel channel=1 pitch=-597 time=0\n",
      "pitchwheel channel=1 pitch=-597 time=0\n",
      "pitchwheel channel=1 pitch=0 time=2\n",
      "pitchwheel channel=1 pitch=0 time=0\n",
      "pitchwheel channel=1 pitch=0 time=0\n",
      "note_on channel=1 note=80 velocity=53 time=32\n",
      "note_on channel=1 note=81 velocity=0 time=8\n",
      "note_on channel=1 note=78 velocity=62 time=21\n",
      "note_on channel=1 note=80 velocity=0 time=23\n",
      "note_on channel=1 note=78 velocity=0 time=8\n",
      "note_on channel=1 note=76 velocity=56 time=4\n",
      "pitchwheel channel=1 pitch=-716 time=1\n",
      "pitchwheel channel=1 pitch=-716 time=0\n",
      "pitchwheel channel=1 pitch=-716 time=0\n",
      "pitchwheel channel=1 pitch=-2247 time=2\n",
      "pitchwheel channel=1 pitch=-2247 time=0\n",
      "pitchwheel channel=1 pitch=-2247 time=0\n",
      "pitchwheel channel=1 pitch=-3122 time=1\n",
      "pitchwheel channel=1 pitch=-3122 time=0\n",
      "pitchwheel channel=1 pitch=-3122 time=0\n",
      "pitchwheel channel=1 pitch=-3754 time=2\n",
      "pitchwheel channel=1 pitch=-3754 time=0\n",
      "pitchwheel channel=1 pitch=-3754 time=0\n",
      "pitchwheel channel=1 pitch=-4334 time=2\n",
      "pitchwheel channel=1 pitch=-4334 time=0\n",
      "pitchwheel channel=1 pitch=-4334 time=0\n",
      "pitchwheel channel=1 pitch=-3925 time=8\n",
      "pitchwheel channel=1 pitch=-3925 time=1\n",
      "pitchwheel channel=1 pitch=-3925 time=0\n",
      "pitchwheel channel=1 pitch=-3242 time=2\n",
      "pitchwheel channel=1 pitch=-3242 time=0\n",
      "pitchwheel channel=1 pitch=-3242 time=0\n",
      "pitchwheel channel=1 pitch=-2545 time=1\n",
      "pitchwheel channel=1 pitch=-2545 time=1\n",
      "pitchwheel channel=1 pitch=-2545 time=0\n",
      "pitchwheel channel=1 pitch=-2048 time=1\n",
      "pitchwheel channel=1 pitch=-2048 time=0\n",
      "pitchwheel channel=1 pitch=-2048 time=0\n",
      "control_change channel=1 control=7 value=72 time=2\n",
      "pitchwheel channel=1 pitch=-955 time=0\n",
      "pitchwheel channel=1 pitch=-955 time=1\n",
      "pitchwheel channel=1 pitch=-955 time=0\n",
      "pitchwheel channel=1 pitch=0 time=1\n",
      "pitchwheel channel=1 pitch=0 time=0\n",
      "pitchwheel channel=1 pitch=0 time=0\n",
      "control_change channel=1 control=7 value=75 time=25\n",
      "control_change channel=1 control=7 value=77 time=10\n",
      "control_change channel=1 control=7 value=78 time=27\n",
      "control_change channel=1 control=7 value=79 time=23\n",
      "control_change channel=1 control=7 value=80 time=5\n",
      "control_change channel=1 control=7 value=78 time=81\n",
      "control_change channel=1 control=7 value=77 time=12\n",
      "control_change channel=1 control=7 value=76 time=12\n",
      "note_on channel=1 note=73 velocity=49 time=0\n",
      "note_on channel=1 note=76 velocity=0 time=8\n",
      "control_change channel=1 control=7 value=75 time=12\n",
      "control_change channel=1 control=7 value=74 time=10\n",
      "control_change channel=1 control=7 value=73 time=28\n",
      "control_change channel=1 control=7 value=71 time=20\n",
      "control_change channel=1 control=7 value=70 time=5\n",
      "control_change channel=1 control=7 value=69 time=10\n",
      "control_change channel=1 control=7 value=68 time=10\n",
      "pitchwheel channel=1 pitch=-358 time=52\n",
      "pitchwheel channel=1 pitch=-358 time=0\n",
      "pitchwheel channel=1 pitch=-358 time=0\n",
      "pitchwheel channel=1 pitch=-597 time=1\n",
      "pitchwheel channel=1 pitch=-597 time=1\n",
      "pitchwheel channel=1 pitch=-597 time=0\n",
      "pitchwheel channel=1 pitch=-1074 time=3\n",
      "pitchwheel channel=1 pitch=-1074 time=1\n",
      "pitchwheel channel=1 pitch=-1074 time=0\n",
      "pitchwheel channel=1 pitch=-1706 time=3\n",
      "pitchwheel channel=1 pitch=-1706 time=0\n",
      "pitchwheel channel=1 pitch=-1706 time=0\n",
      "pitchwheel channel=1 pitch=-2048 time=4\n",
      "pitchwheel channel=1 pitch=-2048 time=0\n",
      "pitchwheel channel=1 pitch=-2048 time=0\n",
      "note_on channel=1 note=69 velocity=49 time=0\n",
      "pitchwheel channel=1 pitch=-2346 time=3\n",
      "pitchwheel channel=1 pitch=-2346 time=0\n",
      "pitchwheel channel=1 pitch=-2346 time=0\n",
      "note_on channel=1 note=73 velocity=0 time=12\n",
      "control_change channel=1 control=7 value=70 time=0\n",
      "control_change channel=1 control=7 value=71 time=15\n",
      "pitchwheel channel=1 pitch=-2048 time=2\n",
      "pitchwheel channel=1 pitch=-2048 time=0\n",
      "pitchwheel channel=1 pitch=-2048 time=0\n",
      "pitchwheel channel=1 pitch=-1706 time=7\n",
      "pitchwheel channel=1 pitch=-1706 time=0\n",
      "pitchwheel channel=1 pitch=-1706 time=0\n",
      "pitchwheel channel=1 pitch=-1194 time=7\n",
      "pitchwheel channel=1 pitch=-1194 time=0\n",
      "pitchwheel channel=1 pitch=-1194 time=0\n",
      "control_change channel=1 control=7 value=72 time=1\n",
      "pitchwheel channel=1 pitch=-835 time=4\n",
      "pitchwheel channel=1 pitch=-835 time=0\n",
      "pitchwheel channel=1 pitch=-835 time=1\n",
      "pitchwheel channel=1 pitch=-477 time=3\n",
      "pitchwheel channel=1 pitch=-477 time=0\n",
      "pitchwheel channel=1 pitch=-477 time=0\n",
      "pitchwheel channel=1 pitch=0 time=5\n",
      "pitchwheel channel=1 pitch=0 time=1\n",
      "pitchwheel channel=1 pitch=0 time=0\n",
      "note_on channel=1 note=71 velocity=61 time=0\n",
      "control_change channel=1 control=7 value=73 time=1\n",
      "note_on channel=1 note=69 velocity=0 time=7\n",
      "control_change channel=1 control=7 value=75 time=16\n",
      "control_change channel=1 control=7 value=77 time=14\n",
      "control_change channel=1 control=7 value=78 time=27\n",
      "control_change channel=1 control=7 value=79 time=20\n",
      "control_change channel=1 control=7 value=80 time=40\n",
      "control_change channel=1 control=7 value=82 time=15\n",
      "control_change channel=1 control=7 value=84 time=36\n",
      "control_change channel=1 control=7 value=85 time=91\n",
      "note_on channel=1 note=71 velocity=0 time=23\n",
      "pitchwheel channel=1 pitch=-477 time=34\n",
      "pitchwheel channel=1 pitch=-477 time=0\n",
      "pitchwheel channel=1 pitch=-477 time=0\n",
      "pitchwheel channel=1 pitch=-1194 time=2\n",
      "pitchwheel channel=1 pitch=-1194 time=0\n",
      "pitchwheel channel=1 pitch=-1194 time=1\n",
      "note_on channel=1 note=76 velocity=61 time=0\n",
      "pitchwheel channel=1 pitch=-2147 time=0\n",
      "pitchwheel channel=1 pitch=-2147 time=1\n",
      "pitchwheel channel=1 pitch=-2147 time=0\n",
      "pitchwheel channel=1 pitch=-2764 time=2\n",
      "pitchwheel channel=1 pitch=-2764 time=0\n",
      "pitchwheel channel=1 pitch=-2764 time=0\n",
      "pitchwheel channel=1 pitch=-3583 time=1\n",
      "pitchwheel channel=1 pitch=-3583 time=1\n",
      "pitchwheel channel=1 pitch=-3583 time=0\n",
      "control_change channel=1 control=7 value=82 time=1\n",
      "control_change channel=1 control=7 value=81 time=0\n",
      "pitchwheel channel=1 pitch=-4096 time=0\n",
      "pitchwheel channel=1 pitch=-4096 time=0\n",
      "pitchwheel channel=1 pitch=-4096 time=0\n",
      "pitchwheel channel=1 pitch=-3242 time=13\n",
      "pitchwheel channel=1 pitch=-3242 time=0\n",
      "pitchwheel channel=1 pitch=-3242 time=0\n",
      "pitchwheel channel=1 pitch=-2645 time=1\n",
      "pitchwheel channel=1 pitch=-2645 time=0\n",
      "pitchwheel channel=1 pitch=-2645 time=1\n",
      "control_change channel=1 control=7 value=80 time=1\n",
      "pitchwheel channel=1 pitch=-2247 time=0\n",
      "pitchwheel channel=1 pitch=-2247 time=0\n",
      "pitchwheel channel=1 pitch=-2247 time=0\n",
      "pitchwheel channel=1 pitch=-1706 time=2\n",
      "pitchwheel channel=1 pitch=-1706 time=0\n",
      "pitchwheel channel=1 pitch=-1706 time=0\n",
      "pitchwheel channel=1 pitch=-1074 time=2\n",
      "pitchwheel channel=1 pitch=-1074 time=0\n",
      "pitchwheel channel=1 pitch=-1074 time=0\n",
      "control_change channel=1 control=7 value=78 time=2\n",
      "pitchwheel channel=1 pitch=-597 time=0\n",
      "pitchwheel channel=1 pitch=-597 time=0\n",
      "pitchwheel channel=1 pitch=-597 time=0\n",
      "pitchwheel channel=1 pitch=-238 time=1\n",
      "pitchwheel channel=1 pitch=-238 time=0\n",
      "pitchwheel channel=1 pitch=-238 time=0\n",
      "pitchwheel channel=1 pitch=0 time=2\n",
      "pitchwheel channel=1 pitch=0 time=0\n",
      "pitchwheel channel=1 pitch=0 time=0\n",
      "control_change channel=1 control=7 value=77 time=5\n",
      "control_change channel=1 control=7 value=76 time=3\n",
      "control_change channel=1 control=93 value=69 time=7\n",
      "control_change channel=1 control=7 value=75 time=4\n",
      "note_on channel=1 note=78 velocity=55 time=4\n",
      "control_change channel=1 control=7 value=74 time=4\n",
      "note_on channel=1 note=76 velocity=0 time=5\n",
      "control_change channel=1 control=7 value=71 time=0\n",
      "control_change channel=1 control=7 value=75 time=35\n",
      "note_on channel=1 note=78 velocity=0 time=6\n",
      "control_change channel=1 control=7 value=82 time=7\n",
      "note_on channel=1 note=80 velocity=58 time=0\n",
      "pitchwheel channel=1 pitch=-597 time=4\n",
      "control_change channel=1 control=7 value=84 time=1\n",
      "pitchwheel channel=1 pitch=-597 time=0\n",
      "pitchwheel channel=1 pitch=-597 time=0\n",
      "pitchwheel channel=1 pitch=-1194 time=1\n",
      "pitchwheel channel=1 pitch=-1194 time=0\n",
      "pitchwheel channel=1 pitch=-1194 time=0\n",
      "pitchwheel channel=1 pitch=-1706 time=1\n",
      "pitchwheel channel=1 pitch=-1706 time=1\n",
      "pitchwheel channel=1 pitch=-1706 time=0\n",
      "pitchwheel channel=1 pitch=-2048 time=3\n",
      "pitchwheel channel=1 pitch=-2048 time=1\n",
      "pitchwheel channel=1 pitch=-2048 time=0\n",
      "pitchwheel channel=1 pitch=-1706 time=8\n",
      "pitchwheel channel=1 pitch=-1706 time=1\n",
      "pitchwheel channel=1 pitch=-1706 time=0\n",
      "pitchwheel channel=1 pitch=-955 time=3\n",
      "pitchwheel channel=1 pitch=-955 time=1\n",
      "pitchwheel channel=1 pitch=-955 time=0\n",
      "control_change channel=1 control=7 value=85 time=1\n",
      "pitchwheel channel=1 pitch=-597 time=0\n",
      "pitchwheel channel=1 pitch=-597 time=0\n",
      "pitchwheel channel=1 pitch=-597 time=0\n",
      "pitchwheel channel=1 pitch=-238 time=2\n",
      "pitchwheel channel=1 pitch=-238 time=0\n",
      "pitchwheel channel=1 pitch=-238 time=0\n",
      "pitchwheel channel=1 pitch=0 time=2\n",
      "pitchwheel channel=1 pitch=0 time=0\n",
      "pitchwheel channel=1 pitch=0 time=0\n",
      "control_change channel=1 control=7 value=86 time=9\n",
      "control_change channel=1 control=7 value=87 time=51\n",
      "control_change channel=1 control=91 value=99 time=19\n",
      "control_change channel=1 control=7 value=85 time=71\n",
      "control_change channel=1 control=7 value=84 time=10\n",
      "control_change channel=1 control=7 value=83 time=15\n",
      "control_change channel=1 control=7 value=82 time=9\n",
      "control_change channel=1 control=7 value=81 time=27\n",
      "control_change channel=1 control=7 value=80 time=6\n",
      "control_change channel=1 control=7 value=78 time=12\n",
      "control_change channel=1 control=91 value=100 time=20\n",
      "control_change channel=1 control=91 value=103 time=15\n",
      "control_change channel=1 control=91 value=105 time=5\n",
      "control_change channel=1 control=91 value=119 time=2\n",
      "control_change channel=1 control=7 value=82 time=5\n",
      "control_change channel=1 control=91 value=121 time=0\n",
      "pitchwheel channel=1 pitch=-597 time=9\n",
      "pitchwheel channel=1 pitch=-597 time=0\n",
      "pitchwheel channel=1 pitch=-597 time=0\n",
      "control_change channel=1 control=7 value=84 time=1\n",
      "pitchwheel channel=1 pitch=-1535 time=0\n",
      "pitchwheel channel=1 pitch=-1535 time=1\n",
      "pitchwheel channel=1 pitch=-1535 time=0\n",
      "note_on channel=1 note=80 velocity=0 time=1\n",
      "pitchwheel channel=1 pitch=-2446 time=1\n",
      "pitchwheel channel=1 pitch=-2446 time=0\n",
      "pitchwheel channel=1 pitch=-2446 time=0\n",
      "pitchwheel channel=1 pitch=-3003 time=2\n",
      "pitchwheel channel=1 pitch=-3003 time=0\n",
      "pitchwheel channel=1 pitch=-3003 time=0\n",
      "note_on channel=1 note=81 velocity=64 time=1\n",
      "pitchwheel channel=1 pitch=-3583 time=1\n",
      "pitchwheel channel=1 pitch=-3583 time=0\n",
      "pitchwheel channel=1 pitch=-3583 time=0\n",
      "pitchwheel channel=1 pitch=-4215 time=3\n",
      "pitchwheel channel=1 pitch=-4215 time=0\n",
      "pitchwheel channel=1 pitch=-4215 time=0\n",
      "control_change channel=1 control=7 value=85 time=8\n",
      "pitchwheel channel=1 pitch=-3583 time=1\n",
      "pitchwheel channel=1 pitch=-3583 time=0\n",
      "pitchwheel channel=1 pitch=-3583 time=0\n",
      "pitchwheel channel=1 pitch=-3003 time=1\n",
      "pitchwheel channel=1 pitch=-3003 time=0\n",
      "pitchwheel channel=1 pitch=-3003 time=1\n",
      "note_on channel=1 note=80 velocity=55 time=0\n",
      "pitchwheel channel=1 pitch=-2545 time=1\n",
      "pitchwheel channel=1 pitch=-2545 time=1\n",
      "pitchwheel channel=1 pitch=-2545 time=0\n",
      "pitchwheel channel=1 pitch=-2048 time=1\n",
      "pitchwheel channel=1 pitch=-2048 time=0\n",
      "pitchwheel channel=1 pitch=-2048 time=0\n",
      "pitchwheel channel=1 pitch=-1194 time=1\n",
      "pitchwheel channel=1 pitch=-1194 time=1\n",
      "pitchwheel channel=1 pitch=-1194 time=0\n",
      "pitchwheel channel=1 pitch=-597 time=1\n",
      "pitchwheel channel=1 pitch=-597 time=0\n",
      "pitchwheel channel=1 pitch=-597 time=1\n",
      "pitchwheel channel=1 pitch=0 time=1\n",
      "pitchwheel channel=1 pitch=0 time=1\n",
      "pitchwheel channel=1 pitch=0 time=0\n",
      "note_on channel=1 note=81 velocity=0 time=6\n",
      "note_on channel=1 note=78 velocity=56 time=10\n",
      "note_on channel=1 note=80 velocity=0 time=13\n",
      "control_change channel=1 control=7 value=84 time=7\n",
      "note_on channel=1 note=76 velocity=56 time=6\n",
      "note_on channel=1 note=78 velocity=0 time=2\n",
      "control_change channel=1 control=7 value=80 time=2\n",
      "control_change channel=1 control=7 value=78 time=13\n",
      "control_change channel=1 control=7 value=77 time=5\n",
      "pitchwheel channel=1 pitch=-597 time=7\n",
      "pitchwheel channel=1 pitch=-597 time=0\n",
      "pitchwheel channel=1 pitch=-597 time=0\n",
      "note_on channel=1 note=78 velocity=55 time=1\n",
      "control_change channel=1 control=7 value=76 time=2\n",
      "pitchwheel channel=1 pitch=-1364 time=0\n",
      "pitchwheel channel=1 pitch=-1364 time=0\n",
      "pitchwheel channel=1 pitch=-1364 time=0\n",
      "pitchwheel channel=1 pitch=-2048 time=0\n",
      "pitchwheel channel=1 pitch=-2048 time=1\n",
      "pitchwheel channel=1 pitch=-2048 time=0\n",
      "pitchwheel channel=1 pitch=-2346 time=2\n",
      "pitchwheel channel=1 pitch=-2346 time=0\n",
      "pitchwheel channel=1 pitch=-2346 time=0\n",
      "pitchwheel channel=1 pitch=-2545 time=2\n",
      "pitchwheel channel=1 pitch=-2545 time=1\n",
      "pitchwheel channel=1 pitch=-2545 time=0\n",
      "note_on channel=1 note=76 velocity=0 time=4\n",
      "pitchwheel channel=1 pitch=-2346 time=4\n",
      "pitchwheel channel=1 pitch=-2346 time=0\n",
      "pitchwheel channel=1 pitch=-2346 time=0\n",
      "pitchwheel channel=1 pitch=-2048 time=1\n",
      "pitchwheel channel=1 pitch=-2048 time=0\n",
      "pitchwheel channel=1 pitch=-2048 time=0\n",
      "pitchwheel channel=1 pitch=-1535 time=2\n",
      "pitchwheel channel=1 pitch=-1535 time=0\n",
      "pitchwheel channel=1 pitch=-1535 time=0\n",
      "pitchwheel channel=1 pitch=-955 time=1\n",
      "pitchwheel channel=1 pitch=-955 time=1\n",
      "pitchwheel channel=1 pitch=-955 time=0\n",
      "pitchwheel channel=1 pitch=-477 time=2\n",
      "pitchwheel channel=1 pitch=-477 time=0\n",
      "pitchwheel channel=1 pitch=-477 time=0\n",
      "pitchwheel channel=1 pitch=0 time=1\n",
      "pitchwheel channel=1 pitch=0 time=1\n",
      "pitchwheel channel=1 pitch=0 time=0\n",
      "control_change channel=1 control=7 value=77 time=26\n",
      "control_change channel=1 control=7 value=78 time=15\n",
      "note_on channel=1 note=83 velocity=68 time=0\n",
      "note_on channel=1 note=78 velocity=0 time=8\n",
      "control_change channel=1 control=7 value=79 time=0\n",
      "control_change channel=1 control=7 value=80 time=20\n",
      "control_change channel=1 control=7 value=82 time=22\n",
      "control_change channel=1 control=7 value=84 time=70\n",
      "control_change channel=1 control=7 value=85 time=19\n",
      "control_change channel=1 control=7 value=86 time=75\n",
      "pitchwheel channel=1 pitch=-238 time=31\n",
      "pitchwheel channel=1 pitch=-238 time=1\n",
      "pitchwheel channel=1 pitch=-238 time=0\n",
      "pitchwheel channel=1 pitch=-955 time=1\n",
      "pitchwheel channel=1 pitch=-955 time=0\n",
      "pitchwheel channel=1 pitch=-955 time=0\n",
      "pitchwheel channel=1 pitch=-1706 time=2\n",
      "pitchwheel channel=1 pitch=-1706 time=0\n",
      "pitchwheel channel=1 pitch=-1706 time=0\n",
      "note_on channel=1 note=80 velocity=56 time=1\n",
      "note_on channel=1 note=83 velocity=0 time=1\n",
      "control_change channel=1 control=7 value=85 time=1\n",
      "pitchwheel channel=1 pitch=-2346 time=0\n",
      "pitchwheel channel=1 pitch=-2346 time=0\n",
      "pitchwheel channel=1 pitch=-2346 time=0\n",
      "pitchwheel channel=1 pitch=-2645 time=0\n",
      "pitchwheel channel=1 pitch=-2645 time=1\n",
      "pitchwheel channel=1 pitch=-2645 time=0\n",
      "pitchwheel channel=1 pitch=-3122 time=1\n",
      "pitchwheel channel=1 pitch=-3122 time=0\n",
      "pitchwheel channel=1 pitch=-3122 time=0\n",
      "pitchwheel channel=1 pitch=-3583 time=4\n",
      "pitchwheel channel=1 pitch=-3583 time=0\n",
      "pitchwheel channel=1 pitch=-3583 time=0\n",
      "control_change channel=1 control=7 value=84 time=3\n",
      "control_change channel=1 control=7 value=83 time=4\n",
      "pitchwheel channel=1 pitch=-2883 time=1\n",
      "pitchwheel channel=1 pitch=-2883 time=1\n",
      "pitchwheel channel=1 pitch=-2883 time=0\n",
      "pitchwheel channel=1 pitch=-2545 time=2\n",
      "pitchwheel channel=1 pitch=-2545 time=0\n",
      "pitchwheel channel=1 pitch=-2545 time=0\n",
      "pitchwheel channel=1 pitch=-2147 time=0\n",
      "control_change channel=1 control=7 value=82 time=1\n",
      "pitchwheel channel=1 pitch=-2147 time=0\n",
      "pitchwheel channel=1 pitch=-2147 time=0\n",
      "pitchwheel channel=1 pitch=-1535 time=3\n",
      "pitchwheel channel=1 pitch=-1535 time=0\n",
      "pitchwheel channel=1 pitch=-1535 time=0\n",
      "pitchwheel channel=1 pitch=-716 time=0\n",
      "control_change channel=1 control=7 value=81 time=1\n",
      "pitchwheel channel=1 pitch=-716 time=0\n",
      "pitchwheel channel=1 pitch=-716 time=0\n",
      "pitchwheel channel=1 pitch=-119 time=2\n",
      "pitchwheel channel=1 pitch=-119 time=0\n",
      "pitchwheel channel=1 pitch=-119 time=0\n",
      "pitchwheel channel=1 pitch=0 time=1\n",
      "pitchwheel channel=1 pitch=0 time=1\n",
      "pitchwheel channel=1 pitch=0 time=0\n",
      "control_change channel=1 control=7 value=78 time=22\n",
      "note_on channel=1 note=83 velocity=85 time=12\n",
      "note_on channel=1 note=80 velocity=0 time=7\n",
      "control_change channel=1 control=7 value=77 time=26\n",
      "pitchwheel channel=1 pitch=-597 time=16\n",
      "pitchwheel channel=1 pitch=-597 time=1\n",
      "pitchwheel channel=1 pitch=-597 time=0\n",
      "pitchwheel channel=1 pitch=-1364 time=2\n",
      "pitchwheel channel=1 pitch=-1364 time=0\n",
      "pitchwheel channel=1 pitch=-1364 time=0\n",
      "pitchwheel channel=1 pitch=-2147 time=0\n",
      "pitchwheel channel=1 pitch=-2147 time=1\n",
      "pitchwheel channel=1 pitch=-2147 time=0\n",
      "note_on channel=1 note=83 velocity=0 time=2\n",
      "control_change channel=1 control=7 value=78 time=0\n",
      "pitchwheel channel=1 pitch=-2645 time=0\n",
      "pitchwheel channel=1 pitch=-2645 time=1\n",
      "pitchwheel channel=1 pitch=-2645 time=0\n",
      "pitchwheel channel=1 pitch=-3122 time=1\n",
      "pitchwheel channel=1 pitch=-3122 time=0\n",
      "pitchwheel channel=1 pitch=-3122 time=1\n",
      "note_on channel=1 note=85 velocity=55 time=0\n",
      "pitchwheel channel=1 pitch=-3583 time=2\n",
      "pitchwheel channel=1 pitch=-3583 time=0\n",
      "pitchwheel channel=1 pitch=-3583 time=0\n",
      "control_change channel=1 control=7 value=79 time=2\n",
      "pitchwheel channel=1 pitch=-3122 time=9\n",
      "pitchwheel channel=1 pitch=-3122 time=0\n",
      "pitchwheel channel=1 pitch=-3122 time=1\n",
      "pitchwheel channel=1 pitch=-2545 time=3\n",
      "pitchwheel channel=1 pitch=-2545 time=0\n",
      "pitchwheel channel=1 pitch=-2545 time=1\n",
      "pitchwheel channel=1 pitch=-2247 time=1\n",
      "pitchwheel channel=1 pitch=-2247 time=0\n",
      "pitchwheel channel=1 pitch=-2247 time=0\n",
      "pitchwheel channel=1 pitch=-1877 time=2\n",
      "pitchwheel channel=1 pitch=-1877 time=0\n",
      "pitchwheel channel=1 pitch=-1877 time=0\n",
      "pitchwheel channel=1 pitch=-1535 time=1\n",
      "pitchwheel channel=1 pitch=-1535 time=0\n",
      "pitchwheel channel=1 pitch=-1535 time=0\n",
      "pitchwheel channel=1 pitch=-1074 time=3\n",
      "pitchwheel channel=1 pitch=-1074 time=0\n",
      "pitchwheel channel=1 pitch=-1074 time=0\n",
      "pitchwheel channel=1 pitch=-597 time=1\n",
      "pitchwheel channel=1 pitch=-597 time=0\n",
      "pitchwheel channel=1 pitch=-597 time=0\n",
      "pitchwheel channel=1 pitch=-358 time=2\n",
      "pitchwheel channel=1 pitch=-358 time=0\n",
      "pitchwheel channel=1 pitch=-358 time=0\n",
      "pitchwheel channel=1 pitch=0 time=3\n",
      "pitchwheel channel=1 pitch=0 time=1\n",
      "pitchwheel channel=1 pitch=0 time=0\n",
      "control_change channel=1 control=7 value=80 time=5\n",
      "control_change channel=1 control=7 value=82 time=12\n",
      "control_change channel=1 control=7 value=84 time=13\n",
      "control_change channel=1 control=7 value=85 time=32\n",
      "note_on channel=1 note=83 velocity=57 time=103\n",
      "note_on channel=1 note=85 velocity=0 time=8\n",
      "control_change channel=1 control=7 value=84 time=45\n",
      "control_change channel=1 control=7 value=83 time=5\n",
      "control_change channel=1 control=7 value=82 time=10\n",
      "control_change channel=1 control=7 value=81 time=20\n",
      "control_change channel=1 control=7 value=80 time=13\n",
      "control_change channel=1 control=7 value=78 time=5\n",
      "control_change channel=1 control=7 value=77 time=33\n",
      "pitchwheel channel=1 pitch=-119 time=3\n",
      "pitchwheel channel=1 pitch=-119 time=1\n",
      "pitchwheel channel=1 pitch=-119 time=0\n",
      "pitchwheel channel=1 pitch=-597 time=2\n",
      "pitchwheel channel=1 pitch=-597 time=0\n",
      "pitchwheel channel=1 pitch=-597 time=0\n",
      "pitchwheel channel=1 pitch=-1364 time=1\n",
      "pitchwheel channel=1 pitch=-1364 time=1\n",
      "pitchwheel channel=1 pitch=-1364 time=0\n",
      "control_change channel=1 control=7 value=76 time=2\n",
      "pitchwheel channel=1 pitch=-2247 time=0\n",
      "pitchwheel channel=1 pitch=-2247 time=0\n",
      "pitchwheel channel=1 pitch=-2247 time=0\n",
      "pitchwheel channel=1 pitch=-2764 time=2\n",
      "pitchwheel channel=1 pitch=-2764 time=0\n",
      "pitchwheel channel=1 pitch=-2764 time=0\n",
      "pitchwheel channel=1 pitch=-3242 time=1\n",
      "pitchwheel channel=1 pitch=-3242 time=0\n"
     ]
    },
    {
     "name": "stdout",
     "output_type": "stream",
     "text": [
      "pitchwheel channel=1 pitch=-3242 time=0\n",
      "note_on channel=1 note=80 velocity=49 time=4\n",
      "pitchwheel channel=1 pitch=-3583 time=0\n",
      "pitchwheel channel=1 pitch=-3583 time=0\n",
      "pitchwheel channel=1 pitch=-3583 time=0\n",
      "pitchwheel channel=1 pitch=-3122 time=7\n",
      "pitchwheel channel=1 pitch=-3122 time=0\n",
      "pitchwheel channel=1 pitch=-3122 time=0\n",
      "pitchwheel channel=1 pitch=-2645 time=2\n",
      "pitchwheel channel=1 pitch=-2645 time=0\n",
      "pitchwheel channel=1 pitch=-2645 time=0\n",
      "pitchwheel channel=1 pitch=-2048 time=1\n",
      "pitchwheel channel=1 pitch=-2048 time=0\n",
      "pitchwheel channel=1 pitch=-2048 time=1\n",
      "pitchwheel channel=1 pitch=-1074 time=1\n",
      "pitchwheel channel=1 pitch=-1074 time=0\n",
      "pitchwheel channel=1 pitch=-1074 time=0\n",
      "note_on channel=1 note=83 velocity=0 time=1\n",
      "pitchwheel channel=1 pitch=-119 time=1\n",
      "pitchwheel channel=1 pitch=-119 time=1\n",
      "pitchwheel channel=1 pitch=-119 time=0\n",
      "control_change channel=1 control=7 value=75 time=1\n",
      "pitchwheel channel=1 pitch=0 time=0\n",
      "pitchwheel channel=1 pitch=0 time=0\n",
      "pitchwheel channel=1 pitch=0 time=0\n",
      "control_change channel=1 control=7 value=74 time=18\n",
      "control_change channel=1 control=7 value=73 time=9\n",
      "note_on channel=1 note=78 velocity=58 time=27\n",
      "note_on channel=1 note=80 velocity=0 time=11\n",
      "control_change channel=1 control=7 value=75 time=0\n",
      "control_change channel=1 control=7 value=77 time=9\n",
      "control_change channel=1 control=7 value=78 time=10\n",
      "control_change channel=1 control=7 value=79 time=5\n",
      "control_change channel=1 control=7 value=80 time=52\n",
      "control_change channel=1 control=7 value=82 time=19\n",
      "control_change channel=1 control=7 value=84 time=32\n",
      "control_change channel=1 control=7 value=85 time=82\n",
      "control_change channel=1 control=7 value=86 time=5\n",
      "control_change channel=1 control=7 value=87 time=51\n",
      "control_change channel=1 control=7 value=89 time=57\n",
      "pitchwheel channel=1 pitch=-358 time=62\n",
      "pitchwheel channel=1 pitch=-358 time=0\n",
      "pitchwheel channel=1 pitch=-358 time=0\n",
      "pitchwheel channel=1 pitch=-597 time=3\n",
      "pitchwheel channel=1 pitch=-597 time=0\n",
      "pitchwheel channel=1 pitch=-597 time=0\n",
      "pitchwheel channel=1 pitch=-1074 time=4\n",
      "pitchwheel channel=1 pitch=-1074 time=0\n",
      "pitchwheel channel=1 pitch=-1074 time=0\n",
      "pitchwheel channel=1 pitch=-1535 time=3\n",
      "pitchwheel channel=1 pitch=-1535 time=0\n",
      "pitchwheel channel=1 pitch=-1535 time=1\n",
      "pitchwheel channel=1 pitch=-1877 time=4\n",
      "control_change channel=1 control=7 value=88 time=1\n",
      "pitchwheel channel=1 pitch=-1877 time=0\n",
      "pitchwheel channel=1 pitch=-1877 time=0\n",
      "control_change channel=1 control=7 value=87 time=2\n",
      "control_change channel=1 control=7 value=85 time=7\n",
      "pitchwheel channel=1 pitch=-1535 time=8\n",
      "pitchwheel channel=1 pitch=-1535 time=1\n",
      "pitchwheel channel=1 pitch=-1535 time=0\n",
      "note_on channel=1 note=76 velocity=47 time=4\n",
      "control_change channel=1 control=7 value=84 time=1\n",
      "pitchwheel channel=1 pitch=-1074 time=0\n",
      "pitchwheel channel=1 pitch=-1074 time=1\n",
      "pitchwheel channel=1 pitch=-1074 time=0\n",
      "pitchwheel channel=1 pitch=-716 time=3\n",
      "pitchwheel channel=1 pitch=-716 time=0\n",
      "pitchwheel channel=1 pitch=-716 time=0\n",
      "control_change channel=1 control=7 value=83 time=3\n",
      "pitchwheel channel=1 pitch=-477 time=0\n",
      "pitchwheel channel=1 pitch=-477 time=0\n",
      "pitchwheel channel=1 pitch=-477 time=1\n",
      "pitchwheel channel=1 pitch=-119 time=4\n",
      "control_change channel=1 control=7 value=82 time=1\n",
      "pitchwheel channel=1 pitch=-119 time=0\n",
      "pitchwheel channel=1 pitch=-119 time=0\n",
      "note_on channel=1 note=78 velocity=0 time=3\n",
      "control_change channel=1 control=7 value=81 time=0\n",
      "pitchwheel channel=1 pitch=0 time=2\n",
      "pitchwheel channel=1 pitch=0 time=0\n",
      "pitchwheel channel=1 pitch=0 time=0\n",
      "control_change channel=1 control=7 value=80 time=12\n",
      "control_change channel=1 control=7 value=78 time=17\n",
      "control_change channel=1 control=7 value=75 time=22\n",
      "control_change channel=1 control=7 value=74 time=9\n",
      "control_change channel=1 control=7 value=73 time=57\n",
      "control_change channel=1 control=7 value=71 time=21\n",
      "control_change channel=1 control=7 value=70 time=24\n",
      "control_change channel=1 control=7 value=69 time=37\n",
      "note_on channel=1 note=76 velocity=0 time=10\n",
      "control_change channel=1 control=7 value=68 time=1\n",
      "control_change channel=1 control=7 value=64 time=40\n",
      "control_change channel=1 control=7 value=63 time=42\n",
      "control_change channel=1 control=7 value=62 time=24\n",
      "control_change channel=1 control=7 value=61 time=12\n",
      "control_change channel=1 control=7 value=59 time=11\n",
      "control_change channel=1 control=7 value=57 time=25\n",
      "control_change channel=1 control=7 value=56 time=5\n",
      "control_change channel=1 control=7 value=55 time=15\n",
      "control_change channel=1 control=7 value=54 time=5\n",
      "control_change channel=1 control=7 value=52 time=27\n",
      "control_change channel=1 control=7 value=50 time=10\n",
      "control_change channel=1 control=7 value=49 time=17\n",
      "control_change channel=1 control=7 value=48 time=7\n",
      "control_change channel=1 control=7 value=47 time=43\n",
      "control_change channel=1 control=7 value=45 time=9\n",
      "control_change channel=1 control=7 value=43 time=30\n",
      "control_change channel=1 control=7 value=42 time=12\n",
      "control_change channel=1 control=7 value=41 time=8\n",
      "control_change channel=1 control=7 value=40 time=15\n",
      "control_change channel=1 control=7 value=38 time=37\n",
      "control_change channel=1 control=7 value=54 time=116\n",
      "control_change channel=1 control=7 value=56 time=5\n",
      "control_change channel=1 control=7 value=57 time=5\n",
      "control_change channel=1 control=7 value=58 time=8\n",
      "control_change channel=1 control=7 value=61 time=5\n",
      "control_change channel=1 control=7 value=64 time=5\n",
      "control_change channel=1 control=7 value=65 time=5\n",
      "control_change channel=1 control=7 value=66 time=5\n",
      "control_change channel=1 control=7 value=68 time=5\n",
      "control_change channel=1 control=7 value=70 time=10\n",
      "control_change channel=1 control=7 value=71 time=10\n",
      "control_change channel=1 control=7 value=72 time=5\n",
      "control_change channel=1 control=7 value=73 time=10\n",
      "control_change channel=1 control=7 value=75 time=40\n",
      "control_change channel=1 control=7 value=77 time=5\n",
      "control_change channel=1 control=7 value=78 time=22\n",
      "control_change channel=1 control=7 value=79 time=15\n",
      "control_change channel=1 control=7 value=80 time=15\n",
      "control_change channel=1 control=7 value=82 time=10\n",
      "control_change channel=1 control=7 value=84 time=13\n",
      "control_change channel=1 control=7 value=85 time=13\n",
      "control_change channel=1 control=7 value=86 time=20\n",
      "control_change channel=1 control=7 value=87 time=45\n",
      "control_change channel=1 control=7 value=89 time=15\n",
      "control_change channel=1 control=7 value=90 time=30\n",
      "control_change channel=1 control=7 value=91 time=20\n",
      "control_change channel=1 control=7 value=92 time=19\n",
      "control_change channel=1 control=7 value=93 time=25\n",
      "control_change channel=1 control=7 value=94 time=90\n",
      "control_change channel=1 control=7 value=96 time=10\n",
      "control_change channel=1 control=7 value=97 time=95\n",
      "control_change channel=1 control=7 value=98 time=15\n",
      "control_change channel=1 control=7 value=99 time=35\n",
      "control_change channel=1 control=7 value=100 time=34\n",
      "control_change channel=1 control=7 value=101 time=145\n",
      "control_change channel=1 control=7 value=103 time=72\n",
      "control_change channel=1 control=7 value=104 time=10\n",
      "control_change channel=1 control=7 value=105 time=20\n",
      "control_change channel=1 control=7 value=106 time=49\n",
      "control_change channel=1 control=7 value=108 time=5\n",
      "control_change channel=1 control=7 value=110 time=15\n",
      "control_change channel=1 control=7 value=111 time=15\n",
      "control_change channel=1 control=7 value=112 time=128\n",
      "control_change channel=1 control=7 value=113 time=52\n",
      "control_change channel=1 control=7 value=115 time=10\n",
      "control_change channel=1 control=7 value=117 time=95\n",
      "control_change channel=1 control=7 value=118 time=10\n",
      "control_change channel=1 control=7 value=119 time=77\n",
      "control_change channel=1 control=7 value=120 time=10\n",
      "control_change channel=1 control=7 value=124 time=6236\n",
      "control_change channel=1 control=7 value=123 time=144\n",
      "control_change channel=1 control=7 value=122 time=25\n",
      "control_change channel=1 control=7 value=121 time=119\n",
      "control_change channel=1 control=7 value=120 time=116\n",
      "control_change channel=1 control=7 value=118 time=10\n",
      "control_change channel=1 control=7 value=119 time=80\n",
      "control_change channel=1 control=7 value=120 time=108\n",
      "control_change channel=1 control=93 value=75 time=4573\n",
      "control_change channel=1 control=93 value=77 time=0\n",
      "control_change channel=1 control=93 value=80 time=6\n",
      "control_change channel=1 control=93 value=82 time=10\n",
      "control_change channel=1 control=93 value=84 time=18\n",
      "control_change channel=1 control=93 value=86 time=23\n",
      "control_change channel=1 control=93 value=84 time=95\n",
      "control_change channel=1 control=93 value=82 time=31\n",
      "control_change channel=1 control=93 value=80 time=55\n",
      "note_on channel=1 note=76 velocity=28 time=23960\n",
      "note_on channel=1 note=76 velocity=0 time=55\n",
      "note_on channel=1 note=78 velocity=34 time=5\n",
      "note_on channel=1 note=78 velocity=0 time=65\n",
      "pitchwheel channel=1 pitch=-716 time=17\n",
      "pitchwheel channel=1 pitch=-716 time=1\n",
      "pitchwheel channel=1 pitch=-716 time=0\n",
      "pitchwheel channel=1 pitch=-1706 time=2\n",
      "pitchwheel channel=1 pitch=-1706 time=0\n",
      "pitchwheel channel=1 pitch=-1706 time=0\n",
      "pitchwheel channel=1 pitch=-2645 time=2\n",
      "pitchwheel channel=1 pitch=-2645 time=0\n",
      "pitchwheel channel=1 pitch=-2645 time=0\n",
      "pitchwheel channel=1 pitch=-3583 time=3\n",
      "pitchwheel channel=1 pitch=-3583 time=0\n",
      "pitchwheel channel=1 pitch=-3583 time=0\n",
      "note_on channel=1 note=80 velocity=37 time=1\n",
      "pitchwheel channel=1 pitch=-4693 time=1\n",
      "pitchwheel channel=1 pitch=-4693 time=1\n",
      "pitchwheel channel=1 pitch=-4693 time=0\n",
      "pitchwheel channel=1 pitch=-5190 time=2\n",
      "pitchwheel channel=1 pitch=-5190 time=0\n",
      "pitchwheel channel=1 pitch=-5190 time=0\n",
      "pitchwheel channel=1 pitch=-5802 time=2\n",
      "pitchwheel channel=1 pitch=-5802 time=0\n",
      "pitchwheel channel=1 pitch=-5802 time=0\n",
      "pitchwheel channel=1 pitch=-5190 time=12\n",
      "pitchwheel channel=1 pitch=-5190 time=0\n",
      "pitchwheel channel=1 pitch=-5190 time=0\n",
      "pitchwheel channel=1 pitch=-4693 time=2\n",
      "pitchwheel channel=1 pitch=-4693 time=0\n",
      "pitchwheel channel=1 pitch=-4693 time=0\n",
      "pitchwheel channel=1 pitch=-3122 time=2\n",
      "pitchwheel channel=1 pitch=-3122 time=0\n",
      "pitchwheel channel=1 pitch=-3122 time=0\n",
      "pitchwheel channel=1 pitch=-1364 time=2\n",
      "pitchwheel channel=1 pitch=-1364 time=0\n",
      "pitchwheel channel=1 pitch=-1364 time=1\n",
      "pitchwheel channel=1 pitch=0 time=2\n",
      "pitchwheel channel=1 pitch=0 time=1\n",
      "pitchwheel channel=1 pitch=0 time=0\n",
      "control_change channel=1 control=7 value=124 time=192\n",
      "control_change channel=1 control=7 value=123 time=42\n",
      "control_change channel=1 control=7 value=122 time=90\n",
      "pitchwheel channel=1 pitch=-835 time=82\n",
      "pitchwheel channel=1 pitch=-835 time=0\n",
      "pitchwheel channel=1 pitch=-835 time=0\n",
      "pitchwheel channel=1 pitch=-2645 time=1\n",
      "pitchwheel channel=1 pitch=-2645 time=1\n",
      "pitchwheel channel=1 pitch=-2645 time=0\n",
      "pitchwheel channel=1 pitch=-4693 time=2\n",
      "pitchwheel channel=1 pitch=-4693 time=0\n",
      "pitchwheel channel=1 pitch=-4693 time=1\n",
      "note_on channel=1 note=81 velocity=51 time=1\n",
      "pitchwheel channel=1 pitch=-5802 time=2\n",
      "pitchwheel channel=1 pitch=-5802 time=0\n",
      "pitchwheel channel=1 pitch=-5802 time=0\n",
      "note_on channel=1 note=80 velocity=0 time=1\n",
      "pitchwheel channel=1 pitch=-6621 time=0\n",
      "pitchwheel channel=1 pitch=-6621 time=0\n",
      "pitchwheel channel=1 pitch=-6621 time=1\n",
      "pitchwheel channel=1 pitch=-7099 time=1\n",
      "pitchwheel channel=1 pitch=-7099 time=1\n",
      "pitchwheel channel=1 pitch=-7099 time=0\n",
      "pitchwheel channel=1 pitch=-7480 time=3\n",
      "pitchwheel channel=1 pitch=-7480 time=0\n",
      "pitchwheel channel=1 pitch=-7480 time=0\n",
      "pitchwheel channel=1 pitch=-7099 time=6\n",
      "pitchwheel channel=1 pitch=-7099 time=1\n",
      "pitchwheel channel=1 pitch=-7099 time=0\n",
      "pitchwheel channel=1 pitch=-6621 time=2\n",
      "pitchwheel channel=1 pitch=-6621 time=0\n",
      "pitchwheel channel=1 pitch=-6621 time=0\n",
      "pitchwheel channel=1 pitch=-5631 time=1\n",
      "pitchwheel channel=1 pitch=-5631 time=1\n",
      "pitchwheel channel=1 pitch=-5631 time=0\n",
      "pitchwheel channel=1 pitch=-4693 time=2\n",
      "pitchwheel channel=1 pitch=-4693 time=0\n",
      "pitchwheel channel=1 pitch=-4693 time=1\n",
      "note_on channel=1 note=80 velocity=25 time=1\n",
      "pitchwheel channel=1 pitch=-2645 time=2\n",
      "pitchwheel channel=1 pitch=-2645 time=0\n",
      "pitchwheel channel=1 pitch=-2645 time=0\n",
      "pitchwheel channel=1 pitch=-119 time=1\n",
      "pitchwheel channel=1 pitch=-119 time=0\n",
      "pitchwheel channel=1 pitch=-119 time=0\n",
      "pitchwheel channel=1 pitch=0 time=3\n",
      "pitchwheel channel=1 pitch=0 time=0\n",
      "pitchwheel channel=1 pitch=0 time=1\n",
      "control_change channel=1 control=7 value=118 time=7\n",
      "note_on channel=1 note=81 velocity=0 time=5\n",
      "control_change channel=1 control=7 value=117 time=10\n",
      "note_on channel=1 note=78 velocity=31 time=3\n",
      "note_on channel=1 note=80 velocity=0 time=17\n",
      "note_on channel=1 note=76 velocity=33 time=21\n",
      "note_on channel=1 note=78 velocity=0 time=7\n",
      "control_change channel=1 control=7 value=113 time=8\n",
      "control_change channel=1 control=7 value=111 time=5\n",
      "control_change channel=1 control=7 value=108 time=3\n",
      "control_change channel=1 control=7 value=107 time=7\n",
      "pitchwheel channel=1 pitch=-119 time=6\n",
      "pitchwheel channel=1 pitch=-119 time=1\n",
      "pitchwheel channel=1 pitch=-119 time=0\n",
      "pitchwheel channel=1 pitch=-1194 time=1\n",
      "pitchwheel channel=1 pitch=-1194 time=0\n",
      "pitchwheel channel=1 pitch=-1194 time=1\n",
      "pitchwheel channel=1 pitch=-3122 time=1\n",
      "pitchwheel channel=1 pitch=-3122 time=1\n",
      "pitchwheel channel=1 pitch=-3122 time=0\n",
      "pitchwheel channel=1 pitch=-5290 time=3\n",
      "pitchwheel channel=1 pitch=-5290 time=0\n",
      "pitchwheel channel=1 pitch=-5290 time=0\n",
      "note_on channel=1 note=78 velocity=32 time=1\n",
      "pitchwheel channel=1 pitch=-7218 time=1\n",
      "pitchwheel channel=1 pitch=-7218 time=0\n",
      "pitchwheel channel=1 pitch=-7218 time=1\n",
      "pitchwheel channel=1 pitch=-8192 time=2\n",
      "pitchwheel channel=1 pitch=-8192 time=0\n",
      "pitchwheel channel=1 pitch=-8192 time=0\n",
      "note_on channel=1 note=76 velocity=0 time=4\n",
      "pitchwheel channel=1 pitch=-7622 time=10\n",
      "pitchwheel channel=1 pitch=-7622 time=0\n",
      "pitchwheel channel=1 pitch=-7622 time=0\n",
      "pitchwheel channel=1 pitch=-6144 time=2\n",
      "pitchwheel channel=1 pitch=-6144 time=0\n",
      "pitchwheel channel=1 pitch=-6144 time=0\n",
      "pitchwheel channel=1 pitch=-3412 time=2\n",
      "pitchwheel channel=1 pitch=-3412 time=0\n",
      "pitchwheel channel=1 pitch=-3412 time=1\n",
      "pitchwheel channel=1 pitch=0 time=1\n",
      "pitchwheel channel=1 pitch=0 time=1\n",
      "pitchwheel channel=1 pitch=0 time=0\n",
      "pitchwheel channel=1 pitch=1092 time=3\n",
      "pitchwheel channel=1 pitch=1092 time=0\n",
      "pitchwheel channel=1 pitch=1092 time=0\n",
      "pitchwheel channel=1 pitch=-358 time=1\n",
      "pitchwheel channel=1 pitch=-358 time=1\n",
      "pitchwheel channel=1 pitch=-358 time=0\n",
      "pitchwheel channel=1 pitch=0 time=2\n",
      "pitchwheel channel=1 pitch=0 time=0\n",
      "pitchwheel channel=1 pitch=0 time=0\n",
      "control_change channel=1 control=7 value=108 time=23\n",
      "control_change channel=1 control=7 value=110 time=13\n",
      "control_change channel=1 control=7 value=111 time=7\n",
      "note_on channel=1 note=83 velocity=29 time=10\n",
      "note_on channel=1 note=78 velocity=0 time=1\n",
      "control_change channel=1 control=7 value=115 time=15\n",
      "control_change channel=1 control=7 value=117 time=68\n",
      "control_change channel=1 control=7 value=118 time=4\n",
      "control_change channel=1 control=7 value=119 time=102\n",
      "note_on channel=1 note=83 velocity=0 time=103\n",
      "pitchwheel channel=1 pitch=136 time=3\n",
      "pitchwheel channel=1 pitch=136 time=1\n",
      "pitchwheel channel=1 pitch=136 time=0\n",
      "pitchwheel channel=1 pitch=1502 time=2\n",
      "pitchwheel channel=1 pitch=1502 time=0\n",
      "pitchwheel channel=1 pitch=1502 time=0\n",
      "pitchwheel channel=1 pitch=3686 time=2\n",
      "pitchwheel channel=1 pitch=3686 time=0\n",
      "pitchwheel channel=1 pitch=3686 time=0\n",
      "note_on channel=1 note=81 velocity=38 time=2\n",
      "pitchwheel channel=1 pitch=4779 time=0\n",
      "pitchwheel channel=1 pitch=4779 time=1\n",
      "pitchwheel channel=1 pitch=4779 time=0\n",
      "pitchwheel channel=1 pitch=5598 time=1\n",
      "pitchwheel channel=1 pitch=5598 time=1\n",
      "pitchwheel channel=1 pitch=5598 time=0\n",
      "pitchwheel channel=1 pitch=6417 time=2\n",
      "pitchwheel channel=1 pitch=6417 time=0\n",
      "pitchwheel channel=1 pitch=6417 time=0\n",
      "pitchwheel channel=1 pitch=1366 time=4\n",
      "pitchwheel channel=1 pitch=1366 time=1\n",
      "pitchwheel channel=1 pitch=1366 time=0\n",
      "pitchwheel channel=1 pitch=-2346 time=2\n",
      "pitchwheel channel=1 pitch=-2346 time=0\n",
      "pitchwheel channel=1 pitch=-2346 time=1\n",
      "pitchwheel channel=1 pitch=0 time=0\n",
      "pitchwheel channel=1 pitch=0 time=1\n",
      "pitchwheel channel=1 pitch=0 time=0\n",
      "pitchwheel channel=1 pitch=546 time=3\n",
      "pitchwheel channel=1 pitch=546 time=1\n",
      "pitchwheel channel=1 pitch=546 time=0\n",
      "pitchwheel channel=1 pitch=0 time=2\n",
      "pitchwheel channel=1 pitch=0 time=0\n",
      "pitchwheel channel=1 pitch=0 time=0\n",
      "note_on channel=1 note=80 velocity=35 time=57\n",
      "note_on channel=1 note=81 velocity=0 time=2\n",
      "note_on channel=1 note=78 velocity=34 time=25\n",
      "note_on channel=1 note=80 velocity=0 time=13\n",
      "pitchwheel channel=1 pitch=409 time=29\n",
      "pitchwheel channel=1 pitch=409 time=0\n",
      "pitchwheel channel=1 pitch=409 time=0\n",
      "pitchwheel channel=1 pitch=1502 time=2\n",
      "pitchwheel channel=1 pitch=1502 time=1\n",
      "pitchwheel channel=1 pitch=1502 time=0\n",
      "note_on channel=1 note=78 velocity=0 time=2\n",
      "note_on channel=1 note=76 velocity=40 time=0\n",
      "pitchwheel channel=1 pitch=2731 time=0\n",
      "pitchwheel channel=1 pitch=2731 time=0\n",
      "pitchwheel channel=1 pitch=2731 time=1\n",
      "pitchwheel channel=1 pitch=4642 time=2\n",
      "pitchwheel channel=1 pitch=4642 time=0\n",
      "pitchwheel channel=1 pitch=4642 time=0\n",
      "pitchwheel channel=1 pitch=6280 time=2\n",
      "pitchwheel channel=1 pitch=6280 time=0\n",
      "pitchwheel channel=1 pitch=6280 time=0\n",
      "pitchwheel channel=1 pitch=4779 time=2\n",
      "pitchwheel channel=1 pitch=4779 time=0\n",
      "pitchwheel channel=1 pitch=4779 time=0\n",
      "pitchwheel channel=1 pitch=1775 time=2\n",
      "pitchwheel channel=1 pitch=1775 time=1\n",
      "pitchwheel channel=1 pitch=1775 time=0\n",
      "pitchwheel channel=1 pitch=-1364 time=2\n",
      "pitchwheel channel=1 pitch=-1364 time=0\n",
      "pitchwheel channel=1 pitch=-1364 time=1\n",
      "pitchwheel channel=1 pitch=0 time=1\n",
      "pitchwheel channel=1 pitch=0 time=1\n",
      "pitchwheel channel=1 pitch=0 time=0\n",
      "control_change channel=1 control=7 value=118 time=15\n",
      "pitchwheel channel=1 pitch=546 time=205\n",
      "pitchwheel channel=1 pitch=546 time=0\n",
      "pitchwheel channel=1 pitch=546 time=0\n",
      "pitchwheel channel=1 pitch=2275 time=2\n",
      "pitchwheel channel=1 pitch=2275 time=0\n",
      "pitchwheel channel=1 pitch=2275 time=0\n",
      "pitchwheel channel=1 pitch=3959 time=2\n",
      "pitchwheel channel=1 pitch=3959 time=0\n",
      "pitchwheel channel=1 pitch=3959 time=1\n",
      "pitchwheel channel=1 pitch=5598 time=1\n",
      "pitchwheel channel=1 pitch=5598 time=1\n",
      "pitchwheel channel=1 pitch=5598 time=0\n",
      "note_on channel=1 note=73 velocity=44 time=2\n",
      "pitchwheel channel=1 pitch=7100 time=0\n",
      "pitchwheel channel=1 pitch=7100 time=0\n",
      "pitchwheel channel=1 pitch=7100 time=0\n",
      "control_change channel=1 control=7 value=117 time=2\n",
      "pitchwheel channel=1 pitch=8191 time=0\n",
      "pitchwheel channel=1 pitch=8191 time=0\n",
      "pitchwheel channel=1 pitch=8191 time=0\n",
      "control_change channel=1 control=7 value=116 time=5\n",
      "pitchwheel channel=1 pitch=6007 time=5\n",
      "pitchwheel channel=1 pitch=6007 time=1\n",
      "pitchwheel channel=1 pitch=6007 time=0\n",
      "pitchwheel channel=1 pitch=-1706 time=1\n",
      "pitchwheel channel=1 pitch=-1706 time=0\n",
      "pitchwheel channel=1 pitch=-1706 time=1\n",
      "pitchwheel channel=1 pitch=-3122 time=1\n",
      "control_change channel=1 control=7 value=115 time=1\n",
      "pitchwheel channel=1 pitch=-3122 time=0\n",
      "pitchwheel channel=1 pitch=-3122 time=0\n",
      "pitchwheel channel=1 pitch=409 time=2\n",
      "pitchwheel channel=1 pitch=409 time=0\n",
      "pitchwheel channel=1 pitch=409 time=0\n",
      "pitchwheel channel=1 pitch=1229 time=3\n",
      "pitchwheel channel=1 pitch=1229 time=0\n",
      "pitchwheel channel=1 pitch=1229 time=0\n",
      "note_on channel=1 note=76 velocity=0 time=2\n",
      "pitchwheel channel=1 pitch=-477 time=0\n",
      "pitchwheel channel=1 pitch=-477 time=1\n",
      "pitchwheel channel=1 pitch=-477 time=0\n",
      "pitchwheel channel=1 pitch=0 time=1\n",
      "pitchwheel channel=1 pitch=0 time=0\n",
      "pitchwheel channel=1 pitch=0 time=1\n",
      "control_change channel=1 control=7 value=114 time=58\n",
      "control_change channel=1 control=7 value=113 time=14\n",
      "control_change channel=1 control=7 value=111 time=84\n",
      "control_change channel=1 control=7 value=110 time=6\n",
      "note_on channel=1 note=69 velocity=43 time=0\n",
      "control_change channel=1 control=7 value=109 time=5\n",
      "note_on channel=1 note=73 velocity=0 time=5\n",
      "note_on channel=1 note=71 velocity=42 time=73\n",
      "pitchwheel channel=1 pitch=1229 time=0\n",
      "pitchwheel channel=1 pitch=1229 time=1\n",
      "pitchwheel channel=1 pitch=1229 time=0\n",
      "pitchwheel channel=1 pitch=2275 time=1\n",
      "pitchwheel channel=1 pitch=2275 time=1\n",
      "pitchwheel channel=1 pitch=2275 time=0\n",
      "note_on channel=1 note=69 velocity=0 time=2\n",
      "pitchwheel channel=1 pitch=3004 time=1\n",
      "pitchwheel channel=1 pitch=3004 time=0\n",
      "pitchwheel channel=1 pitch=3004 time=0\n",
      "pitchwheel channel=1 pitch=3550 time=1\n",
      "pitchwheel channel=1 pitch=3550 time=0\n",
      "pitchwheel channel=1 pitch=3550 time=1\n",
      "pitchwheel channel=1 pitch=3959 time=3\n",
      "pitchwheel channel=1 pitch=3959 time=0\n",
      "pitchwheel channel=1 pitch=3959 time=0\n",
      "pitchwheel channel=1 pitch=4232 time=4\n",
      "pitchwheel channel=1 pitch=4232 time=0\n",
      "pitchwheel channel=1 pitch=4232 time=0\n",
      "control_change channel=1 control=7 value=110 time=13\n",
      "pitchwheel channel=1 pitch=2389 time=2\n",
      "pitchwheel channel=1 pitch=2389 time=0\n",
      "pitchwheel channel=1 pitch=2389 time=0\n",
      "pitchwheel channel=1 pitch=1638 time=2\n",
      "pitchwheel channel=1 pitch=1638 time=0\n",
      "pitchwheel channel=1 pitch=1638 time=0\n",
      "pitchwheel channel=1 pitch=1366 time=2\n",
      "pitchwheel channel=1 pitch=1366 time=0\n",
      "pitchwheel channel=1 pitch=1366 time=1\n",
      "pitchwheel channel=1 pitch=546 time=4\n",
      "pitchwheel channel=1 pitch=546 time=1\n",
      "pitchwheel channel=1 pitch=546 time=0\n",
      "pitchwheel channel=1 pitch=0 time=2\n",
      "pitchwheel channel=1 pitch=0 time=0\n",
      "pitchwheel channel=1 pitch=0 time=0\n",
      "control_change channel=1 control=7 value=111 time=24\n",
      "control_change channel=1 control=7 value=112 time=5\n",
      "note_on channel=1 note=71 velocity=0 time=287\n",
      "note_on channel=1 note=76 velocity=31 time=37\n",
      "pitchwheel channel=1 pitch=409 time=10\n",
      "pitchwheel channel=1 pitch=409 time=0\n",
      "pitchwheel channel=1 pitch=409 time=0\n",
      "pitchwheel channel=1 pitch=0 time=5\n",
      "pitchwheel channel=1 pitch=0 time=0\n",
      "pitchwheel channel=1 pitch=0 time=1\n",
      "control_change channel=1 control=7 value=111 time=27\n",
      "note_on channel=1 note=78 velocity=42 time=27\n",
      "control_change channel=1 control=7 value=108 time=5\n",
      "note_on channel=1 note=76 velocity=0 time=4\n",
      "control_change channel=1 control=7 value=104 time=2\n",
      "control_change channel=1 control=7 value=103 time=6\n",
      "control_change channel=1 control=7 value=99 time=11\n",
      "note_on channel=1 note=78 velocity=0 time=23\n",
      "note_on channel=1 note=80 velocity=45 time=14\n",
      "pitchwheel channel=1 pitch=956 time=2\n",
      "pitchwheel channel=1 pitch=956 time=0\n",
      "pitchwheel channel=1 pitch=956 time=0\n",
      "pitchwheel channel=1 pitch=2503 time=2\n",
      "pitchwheel channel=1 pitch=2503 time=0\n",
      "pitchwheel channel=1 pitch=2503 time=0\n",
      "pitchwheel channel=1 pitch=3959 time=2\n",
      "pitchwheel channel=1 pitch=3959 time=0\n",
      "pitchwheel channel=1 pitch=3959 time=0\n",
      "pitchwheel channel=1 pitch=5006 time=3\n",
      "pitchwheel channel=1 pitch=5006 time=0\n",
      "pitchwheel channel=1 pitch=5006 time=1\n",
      "pitchwheel channel=1 pitch=5734 time=1\n",
      "pitchwheel channel=1 pitch=5734 time=1\n",
      "pitchwheel channel=1 pitch=5734 time=0\n",
      "pitchwheel channel=1 pitch=4892 time=2\n",
      "pitchwheel channel=1 pitch=4892 time=0\n",
      "pitchwheel channel=1 pitch=4892 time=0\n",
      "pitchwheel channel=1 pitch=4232 time=7\n",
      "pitchwheel channel=1 pitch=4232 time=0\n",
      "pitchwheel channel=1 pitch=4232 time=0\n",
      "pitchwheel channel=1 pitch=3414 time=1\n",
      "pitchwheel channel=1 pitch=3414 time=1\n",
      "pitchwheel channel=1 pitch=3414 time=0\n",
      "pitchwheel channel=1 pitch=546 time=3\n",
      "pitchwheel channel=1 pitch=546 time=0\n",
      "pitchwheel channel=1 pitch=546 time=1\n",
      "pitchwheel channel=1 pitch=-477 time=0\n",
      "pitchwheel channel=1 pitch=-477 time=1\n",
      "pitchwheel channel=1 pitch=-477 time=0\n",
      "pitchwheel channel=1 pitch=136 time=2\n",
      "pitchwheel channel=1 pitch=136 time=0\n",
      "pitchwheel channel=1 pitch=136 time=1\n",
      "pitchwheel channel=1 pitch=0 time=1\n",
      "pitchwheel channel=1 pitch=0 time=1\n",
      "pitchwheel channel=1 pitch=0 time=0\n",
      "control_change channel=1 control=7 value=100 time=2\n",
      "control_change channel=1 control=7 value=101 time=19\n",
      "control_change channel=1 control=7 value=103 time=3\n",
      "control_change channel=1 control=7 value=104 time=2\n",
      "control_change channel=1 control=7 value=105 time=41\n",
      "control_change channel=1 control=7 value=106 time=89\n",
      "control_change channel=1 control=7 value=108 time=10\n",
      "control_change channel=1 control=7 value=110 time=65\n",
      "control_change channel=1 control=7 value=111 time=20\n",
      "control_change channel=1 control=7 value=112 time=25\n",
      "pitchwheel channel=1 pitch=-477 time=51\n",
      "pitchwheel channel=1 pitch=-477 time=0\n",
      "pitchwheel channel=1 pitch=-477 time=1\n",
      "note_on channel=1 note=80 velocity=0 time=3\n",
      "pitchwheel channel=1 pitch=-1706 time=0\n",
      "pitchwheel channel=1 pitch=-1706 time=0\n",
      "pitchwheel channel=1 pitch=-1706 time=0\n",
      "pitchwheel channel=1 pitch=-2883 time=2\n",
      "pitchwheel channel=1 pitch=-2883 time=0\n",
      "pitchwheel channel=1 pitch=-2883 time=0\n",
      "pitchwheel channel=1 pitch=-4215 time=2\n",
      "pitchwheel channel=1 pitch=-4215 time=0\n",
      "pitchwheel channel=1 pitch=-4215 time=0\n",
      "pitchwheel channel=1 pitch=-4892 time=2\n",
      "pitchwheel channel=1 pitch=-4892 time=0\n",
      "pitchwheel channel=1 pitch=-4892 time=1\n",
      "pitchwheel channel=1 pitch=-5631 time=1\n",
      "pitchwheel channel=1 pitch=-5631 time=1\n",
      "pitchwheel channel=1 pitch=-5631 time=0\n",
      "note_on channel=1 note=81 velocity=41 time=2\n",
      "pitchwheel channel=1 pitch=-6382 time=1\n",
      "pitchwheel channel=1 pitch=-6382 time=0\n",
      "pitchwheel channel=1 pitch=-6382 time=0\n",
      "pitchwheel channel=1 pitch=-6621 time=1\n",
      "pitchwheel channel=1 pitch=-6621 time=0\n",
      "pitchwheel channel=1 pitch=-6621 time=0\n",
      "pitchwheel channel=1 pitch=-6979 time=5\n",
      "pitchwheel channel=1 pitch=-6979 time=0\n",
      "pitchwheel channel=1 pitch=-6979 time=1\n",
      "pitchwheel channel=1 pitch=-6621 time=5\n",
      "pitchwheel channel=1 pitch=-6621 time=0\n",
      "pitchwheel channel=1 pitch=-6621 time=0\n",
      "pitchwheel channel=1 pitch=-6382 time=1\n",
      "pitchwheel channel=1 pitch=-6382 time=1\n",
      "pitchwheel channel=1 pitch=-6382 time=0\n",
      "pitchwheel channel=1 pitch=-5290 time=2\n",
      "pitchwheel channel=1 pitch=-5290 time=0\n",
      "pitchwheel channel=1 pitch=-5290 time=0\n",
      "pitchwheel channel=1 pitch=-4454 time=2\n",
      "pitchwheel channel=1 pitch=-4454 time=0\n",
      "pitchwheel channel=1 pitch=-4454 time=0\n",
      "pitchwheel channel=1 pitch=-2545 time=2\n",
      "pitchwheel channel=1 pitch=-2545 time=0\n",
      "pitchwheel channel=1 pitch=-2545 time=1\n",
      "pitchwheel channel=1 pitch=-238 time=2\n",
      "pitchwheel channel=1 pitch=-238 time=1\n",
      "pitchwheel channel=1 pitch=-238 time=0\n",
      "pitchwheel channel=1 pitch=0 time=1\n",
      "pitchwheel channel=1 pitch=0 time=0\n",
      "pitchwheel channel=1 pitch=0 time=1\n",
      "note_on channel=1 note=80 velocity=35 time=5\n",
      "note_on channel=1 note=81 velocity=0 time=12\n",
      "control_change channel=1 control=7 value=111 time=28\n",
      "note_on channel=1 note=78 velocity=37 time=0\n",
      "control_change channel=1 control=7 value=108 time=8\n",
      "control_change channel=1 control=7 value=104 time=5\n",
      "note_on channel=1 note=80 velocity=0 time=6\n",
      "control_change channel=1 control=7 value=103 time=0\n",
      "note_on channel=1 note=76 velocity=44 time=12\n",
      "note_on channel=1 note=78 velocity=0 time=6\n",
      "pitchwheel channel=1 pitch=-597 time=8\n",
      "pitchwheel channel=1 pitch=-597 time=0\n",
      "pitchwheel channel=1 pitch=-597 time=1\n",
      "pitchwheel channel=1 pitch=-2147 time=1\n",
      "pitchwheel channel=1 pitch=-2147 time=1\n",
      "pitchwheel channel=1 pitch=-2147 time=0\n",
      "pitchwheel channel=1 pitch=-3583 time=2\n",
      "pitchwheel channel=1 pitch=-3583 time=0\n",
      "pitchwheel channel=1 pitch=-3583 time=1\n",
      "pitchwheel channel=1 pitch=-4991 time=1\n",
      "pitchwheel channel=1 pitch=-4991 time=1\n",
      "pitchwheel channel=1 pitch=-4991 time=0\n",
      "pitchwheel channel=1 pitch=-6382 time=2\n",
      "pitchwheel channel=1 pitch=-6382 time=0\n",
      "pitchwheel channel=1 pitch=-6382 time=0\n",
      "pitchwheel channel=1 pitch=-6979 time=2\n",
      "pitchwheel channel=1 pitch=-6979 time=0\n",
      "pitchwheel channel=1 pitch=-6979 time=0\n",
      "pitchwheel channel=1 pitch=-7480 time=3\n",
      "pitchwheel channel=1 pitch=-7480 time=0\n",
      "pitchwheel channel=1 pitch=-7480 time=1\n",
      "control_change channel=1 control=7 value=104 time=11\n",
      "pitchwheel channel=1 pitch=-6860 time=0\n",
      "pitchwheel channel=1 pitch=-6860 time=0\n",
      "pitchwheel channel=1 pitch=-6860 time=1\n",
      "pitchwheel channel=1 pitch=-6502 time=1\n",
      "pitchwheel channel=1 pitch=-6502 time=0\n",
      "pitchwheel channel=1 pitch=-6502 time=0\n",
      "note_on channel=1 note=78 velocity=45 time=2\n",
      "pitchwheel channel=1 pitch=-5631 time=0\n",
      "control_change channel=1 control=7 value=105 time=1\n",
      "pitchwheel channel=1 pitch=-5631 time=0\n",
      "pitchwheel channel=1 pitch=-5631 time=0\n",
      "pitchwheel channel=1 pitch=-4693 time=2\n",
      "pitchwheel channel=1 pitch=-4693 time=0\n",
      "pitchwheel channel=1 pitch=-4693 time=0\n",
      "pitchwheel channel=1 pitch=-2545 time=2\n",
      "pitchwheel channel=1 pitch=-2545 time=0\n",
      "pitchwheel channel=1 pitch=-2545 time=1\n",
      "pitchwheel channel=1 pitch=0 time=1\n",
      "pitchwheel channel=1 pitch=0 time=1\n",
      "pitchwheel channel=1 pitch=0 time=0\n",
      "pitchwheel channel=1 pitch=136 time=2\n",
      "pitchwheel channel=1 pitch=136 time=0\n",
      "pitchwheel channel=1 pitch=136 time=1\n",
      "pitchwheel channel=1 pitch=0 time=1\n",
      "pitchwheel channel=1 pitch=0 time=1\n",
      "pitchwheel channel=1 pitch=0 time=0\n",
      "control_change channel=1 control=7 value=106 time=1\n",
      "control_change channel=1 control=7 value=108 time=5\n",
      "note_on channel=1 note=76 velocity=0 time=2\n",
      "control_change channel=1 control=7 value=110 time=36\n",
      "control_change channel=1 control=7 value=111 time=7\n",
      "control_change channel=1 control=7 value=112 time=6\n",
      "note_on channel=1 note=83 velocity=47 time=2\n",
      "note_on channel=1 note=78 velocity=0 time=10\n",
      "pitchwheel channel=1 pitch=-238 time=293\n",
      "pitchwheel channel=1 pitch=-238 time=1\n",
      "pitchwheel channel=1 pitch=-238 time=0\n",
      "pitchwheel channel=1 pitch=-716 time=2\n",
      "pitchwheel channel=1 pitch=-716 time=0\n",
      "pitchwheel channel=1 pitch=-716 time=1\n",
      "pitchwheel channel=1 pitch=-1706 time=1\n",
      "pitchwheel channel=1 pitch=-1706 time=1\n",
      "pitchwheel channel=1 pitch=-1706 time=0\n",
      "pitchwheel channel=1 pitch=-2764 time=2\n",
      "pitchwheel channel=1 pitch=-2764 time=0\n",
      "pitchwheel channel=1 pitch=-2764 time=1\n",
      "pitchwheel channel=1 pitch=-4693 time=1\n",
      "control_change channel=1 control=7 value=101 time=1\n",
      "pitchwheel channel=1 pitch=-4693 time=0\n",
      "pitchwheel channel=1 pitch=-4693 time=0\n",
      "pitchwheel channel=1 pitch=-6860 time=2\n",
      "pitchwheel channel=1 pitch=-6860 time=0\n",
      "pitchwheel channel=1 pitch=-6860 time=0\n",
      "pitchwheel channel=1 pitch=-8192 time=1\n",
      "pitchwheel channel=1 pitch=-8192 time=1\n",
      "pitchwheel channel=1 pitch=-8192 time=0\n",
      "note_on channel=1 note=83 velocity=0 time=2\n",
      "control_change channel=1 control=7 value=97 time=0\n",
      "note_on channel=1 note=80 velocity=34 time=3\n",
      "control_change channel=1 control=7 value=94 time=4\n",
      "control_change channel=1 control=7 value=90 time=5\n",
      "control_change channel=1 control=7 value=87 time=7\n",
      "pitchwheel channel=1 pitch=-7622 time=4\n",
      "pitchwheel channel=1 pitch=-7622 time=0\n",
      "pitchwheel channel=1 pitch=-7622 time=0\n",
      "pitchwheel channel=1 pitch=-5290 time=2\n",
      "pitchwheel channel=1 pitch=-5290 time=0\n",
      "pitchwheel channel=1 pitch=-5290 time=0\n",
      "pitchwheel channel=1 pitch=0 time=2\n",
      "pitchwheel channel=1 pitch=0 time=0\n",
      "pitchwheel channel=1 pitch=0 time=0\n",
      "pitchwheel channel=1 pitch=2731 time=2\n",
      "pitchwheel channel=1 pitch=2731 time=0\n",
      "pitchwheel channel=1 pitch=2731 time=1\n",
      "control_change channel=1 control=7 value=84 time=1\n",
      "pitchwheel channel=1 pitch=0 time=0\n",
      "pitchwheel channel=1 pitch=0 time=1\n",
      "pitchwheel channel=1 pitch=0 time=0\n",
      "pitchwheel channel=1 pitch=-477 time=3\n",
      "pitchwheel channel=1 pitch=-477 time=0\n",
      "pitchwheel channel=1 pitch=-477 time=0\n",
      "pitchwheel channel=1 pitch=273 time=2\n",
      "pitchwheel channel=1 pitch=273 time=0\n",
      "pitchwheel channel=1 pitch=273 time=0\n",
      "pitchwheel channel=1 pitch=0 time=2\n",
      "pitchwheel channel=1 pitch=0 time=0\n",
      "pitchwheel channel=1 pitch=0 time=0\n",
      "control_change channel=1 control=7 value=80 time=11\n",
      "control_change channel=1 control=7 value=78 time=4\n",
      "note_on channel=1 note=83 velocity=47 time=16\n",
      "note_on channel=1 note=80 velocity=0 time=13\n",
      "control_change channel=1 control=7 value=79 time=38\n",
      "control_change channel=1 control=7 value=80 time=8\n",
      "note_on channel=1 note=83 velocity=0 time=12\n",
      "control_change channel=1 control=7 value=82 time=5\n",
      "control_change channel=1 control=7 value=84 time=5\n",
      "note_on channel=1 note=85 velocity=39 time=4\n",
      "pitchwheel channel=1 pitch=546 time=2\n"
     ]
    },
    {
     "name": "stdout",
     "output_type": "stream",
     "text": [
      "pitchwheel channel=1 pitch=546 time=0\n",
      "pitchwheel channel=1 pitch=546 time=0\n",
      "pitchwheel channel=1 pitch=1638 time=1\n",
      "pitchwheel channel=1 pitch=1638 time=1\n",
      "pitchwheel channel=1 pitch=1638 time=0\n",
      "pitchwheel channel=1 pitch=3277 time=2\n",
      "pitchwheel channel=1 pitch=3277 time=0\n",
      "pitchwheel channel=1 pitch=3277 time=0\n",
      "pitchwheel channel=1 pitch=4779 time=2\n",
      "pitchwheel channel=1 pitch=4779 time=0\n",
      "pitchwheel channel=1 pitch=4779 time=0\n",
      "pitchwheel channel=1 pitch=3277 time=3\n",
      "pitchwheel channel=1 pitch=3277 time=0\n",
      "pitchwheel channel=1 pitch=3277 time=1\n",
      "pitchwheel channel=1 pitch=2867 time=1\n",
      "control_change channel=1 control=7 value=85 time=1\n",
      "pitchwheel channel=1 pitch=2867 time=0\n",
      "pitchwheel channel=1 pitch=2867 time=0\n",
      "pitchwheel channel=1 pitch=0 time=1\n",
      "pitchwheel channel=1 pitch=0 time=0\n",
      "pitchwheel channel=1 pitch=0 time=1\n",
      "pitchwheel channel=1 pitch=-477 time=1\n",
      "pitchwheel channel=1 pitch=-477 time=1\n",
      "pitchwheel channel=1 pitch=-477 time=0\n",
      "pitchwheel channel=1 pitch=136 time=3\n",
      "pitchwheel channel=1 pitch=136 time=0\n",
      "pitchwheel channel=1 pitch=136 time=0\n",
      "pitchwheel channel=1 pitch=0 time=2\n",
      "pitchwheel channel=1 pitch=0 time=0\n",
      "pitchwheel channel=1 pitch=0 time=0\n",
      "control_change channel=1 control=7 value=86 time=12\n",
      "control_change channel=1 control=7 value=85 time=124\n",
      "control_change channel=1 control=7 value=84 time=15\n",
      "control_change channel=1 control=7 value=83 time=5\n",
      "control_change channel=1 control=7 value=80 time=30\n",
      "pitchwheel channel=1 pitch=273 time=36\n",
      "pitchwheel channel=1 pitch=273 time=0\n",
      "pitchwheel channel=1 pitch=273 time=0\n",
      "pitchwheel channel=1 pitch=1502 time=2\n",
      "pitchwheel channel=1 pitch=1502 time=0\n",
      "pitchwheel channel=1 pitch=1502 time=1\n",
      "pitchwheel channel=1 pitch=2617 time=2\n",
      "pitchwheel channel=1 pitch=2617 time=1\n",
      "pitchwheel channel=1 pitch=2617 time=0\n",
      "pitchwheel channel=1 pitch=3686 time=2\n",
      "pitchwheel channel=1 pitch=3686 time=0\n",
      "pitchwheel channel=1 pitch=3686 time=0\n",
      "pitchwheel channel=1 pitch=4232 time=1\n",
      "pitchwheel channel=1 pitch=4232 time=1\n",
      "pitchwheel channel=1 pitch=4232 time=0\n",
      "pitchwheel channel=1 pitch=4642 time=2\n",
      "pitchwheel channel=1 pitch=4642 time=0\n",
      "pitchwheel channel=1 pitch=4642 time=0\n",
      "note_on channel=1 note=85 velocity=0 time=2\n",
      "note_on channel=1 note=87 velocity=31 time=2\n",
      "pitchwheel channel=1 pitch=1775 time=4\n",
      "pitchwheel channel=1 pitch=1775 time=0\n",
      "pitchwheel channel=1 pitch=1775 time=0\n",
      "pitchwheel channel=1 pitch=-1364 time=2\n",
      "pitchwheel channel=1 pitch=-1364 time=0\n",
      "pitchwheel channel=1 pitch=-1364 time=0\n",
      "pitchwheel channel=1 pitch=0 time=2\n",
      "pitchwheel channel=1 pitch=0 time=0\n",
      "pitchwheel channel=1 pitch=0 time=0\n",
      "control_change channel=1 control=7 value=77 time=7\n",
      "control_change channel=1 control=7 value=76 time=12\n",
      "control_change channel=1 control=7 value=75 time=24\n",
      "control_change channel=1 control=7 value=74 time=10\n",
      "control_change channel=1 control=7 value=73 time=30\n",
      "control_change channel=1 control=7 value=71 time=14\n",
      "control_change channel=1 control=7 value=70 time=28\n",
      "control_change channel=1 control=7 value=69 time=26\n",
      "control_change channel=1 control=7 value=68 time=13\n",
      "control_change channel=1 control=7 value=67 time=25\n",
      "control_change channel=1 control=7 value=66 time=5\n",
      "control_change channel=1 control=7 value=64 time=21\n",
      "control_change channel=1 control=7 value=63 time=16\n",
      "pitchwheel channel=1 pitch=956 time=4\n",
      "pitchwheel channel=1 pitch=956 time=0\n",
      "pitchwheel channel=1 pitch=956 time=0\n",
      "pitchwheel channel=1 pitch=2617 time=1\n",
      "pitchwheel channel=1 pitch=2617 time=1\n",
      "pitchwheel channel=1 pitch=2617 time=0\n",
      "pitchwheel channel=1 pitch=4642 time=2\n",
      "pitchwheel channel=1 pitch=4642 time=0\n",
      "pitchwheel channel=1 pitch=4642 time=0\n",
      "pitchwheel channel=1 pitch=6007 time=2\n",
      "pitchwheel channel=1 pitch=6007 time=1\n",
      "pitchwheel channel=1 pitch=6007 time=0\n",
      "pitchwheel channel=1 pitch=7100 time=2\n",
      "pitchwheel channel=1 pitch=7100 time=0\n",
      "pitchwheel channel=1 pitch=7100 time=1\n",
      "pitchwheel channel=1 pitch=7737 time=2\n",
      "pitchwheel channel=1 pitch=7737 time=0\n",
      "pitchwheel channel=1 pitch=7737 time=0\n",
      "note_on channel=1 note=88 velocity=35 time=1\n",
      "note_on channel=1 note=87 velocity=0 time=1\n",
      "control_change channel=1 control=7 value=62 time=0\n",
      "pitchwheel channel=1 pitch=2161 time=2\n",
      "pitchwheel channel=1 pitch=2161 time=0\n",
      "pitchwheel channel=1 pitch=2161 time=1\n",
      "pitchwheel channel=1 pitch=-2764 time=1\n",
      "pitchwheel channel=1 pitch=-2764 time=1\n",
      "pitchwheel channel=1 pitch=-2764 time=0\n",
      "pitchwheel channel=1 pitch=-597 time=3\n",
      "pitchwheel channel=1 pitch=-597 time=0\n",
      "pitchwheel channel=1 pitch=-597 time=0\n",
      "pitchwheel channel=1 pitch=1502 time=2\n",
      "pitchwheel channel=1 pitch=1502 time=0\n",
      "pitchwheel channel=1 pitch=1502 time=0\n",
      "pitchwheel channel=1 pitch=0 time=2\n",
      "pitchwheel channel=1 pitch=0 time=0\n",
      "pitchwheel channel=1 pitch=0 time=0\n",
      "control_change channel=1 control=7 value=61 time=31\n",
      "control_change channel=1 control=7 value=57 time=46\n",
      "control_change channel=1 control=7 value=56 time=29\n",
      "control_change channel=1 control=7 value=55 time=4\n",
      "control_change channel=1 control=7 value=54 time=44\n",
      "control_change channel=1 control=7 value=52 time=0\n",
      "control_change channel=1 control=7 value=50 time=49\n",
      "control_change channel=1 control=7 value=49 time=7\n",
      "pitchwheel channel=1 pitch=273 time=31\n",
      "pitchwheel channel=1 pitch=273 time=0\n",
      "pitchwheel channel=1 pitch=273 time=1\n",
      "pitchwheel channel=1 pitch=1229 time=1\n",
      "pitchwheel channel=1 pitch=1229 time=1\n",
      "pitchwheel channel=1 pitch=1229 time=0\n",
      "pitchwheel channel=1 pitch=2503 time=3\n",
      "pitchwheel channel=1 pitch=2503 time=0\n",
      "pitchwheel channel=1 pitch=2503 time=0\n",
      "pitchwheel channel=1 pitch=4096 time=2\n",
      "pitchwheel channel=1 pitch=4096 time=0\n",
      "pitchwheel channel=1 pitch=4096 time=0\n",
      "control_change channel=1 control=7 value=48 time=2\n",
      "pitchwheel channel=1 pitch=5006 time=0\n",
      "pitchwheel channel=1 pitch=5006 time=0\n",
      "pitchwheel channel=1 pitch=5006 time=1\n",
      "pitchwheel channel=1 pitch=4232 time=1\n",
      "pitchwheel channel=1 pitch=4232 time=0\n",
      "pitchwheel channel=1 pitch=4232 time=0\n",
      "control_change channel=1 control=7 value=47 time=3\n",
      "note_on channel=1 note=90 velocity=37 time=0\n",
      "pitchwheel channel=1 pitch=2161 time=3\n",
      "pitchwheel channel=1 pitch=2161 time=0\n",
      "pitchwheel channel=1 pitch=2161 time=0\n",
      "pitchwheel channel=1 pitch=-955 time=2\n",
      "pitchwheel channel=1 pitch=-955 time=0\n",
      "pitchwheel channel=1 pitch=-955 time=1\n",
      "note_on channel=1 note=88 velocity=0 time=1\n",
      "pitchwheel channel=1 pitch=0 time=1\n",
      "pitchwheel channel=1 pitch=0 time=0\n",
      "pitchwheel channel=1 pitch=0 time=0\n",
      "control_change channel=1 control=7 value=45 time=6\n",
      "control_change channel=1 control=7 value=43 time=29\n",
      "control_change channel=1 control=7 value=42 time=35\n",
      "control_change channel=1 control=7 value=41 time=27\n",
      "control_change channel=1 control=7 value=40 time=12\n",
      "control_change channel=1 control=7 value=38 time=81\n",
      "control_change channel=1 control=7 value=37 time=14\n",
      "control_change channel=1 control=7 value=36 time=26\n",
      "pitchwheel channel=1 pitch=546 time=16\n",
      "pitchwheel channel=1 pitch=546 time=0\n",
      "pitchwheel channel=1 pitch=546 time=0\n",
      "pitchwheel channel=1 pitch=1502 time=2\n",
      "pitchwheel channel=1 pitch=1502 time=0\n",
      "pitchwheel channel=1 pitch=1502 time=1\n",
      "pitchwheel channel=1 pitch=2389 time=1\n",
      "pitchwheel channel=1 pitch=2389 time=1\n",
      "pitchwheel channel=1 pitch=2389 time=0\n",
      "note_on channel=1 note=92 velocity=48 time=1\n",
      "pitchwheel channel=1 pitch=3004 time=0\n",
      "pitchwheel channel=1 pitch=3004 time=1\n",
      "pitchwheel channel=1 pitch=3004 time=0\n",
      "control_change channel=1 control=7 value=35 time=2\n",
      "pitchwheel channel=1 pitch=3414 time=0\n",
      "pitchwheel channel=1 pitch=3414 time=0\n",
      "pitchwheel channel=1 pitch=3414 time=0\n",
      "note_on channel=1 note=90 velocity=0 time=8\n",
      "pitchwheel channel=1 pitch=2617 time=6\n",
      "pitchwheel channel=1 pitch=2617 time=1\n",
      "pitchwheel channel=1 pitch=2617 time=0\n",
      "control_change channel=1 control=7 value=34 time=1\n",
      "pitchwheel channel=1 pitch=1638 time=1\n",
      "pitchwheel channel=1 pitch=1638 time=0\n",
      "pitchwheel channel=1 pitch=1638 time=0\n",
      "pitchwheel channel=1 pitch=0 time=2\n",
      "pitchwheel channel=1 pitch=0 time=0\n",
      "pitchwheel channel=1 pitch=0 time=0\n",
      "control_change channel=1 control=7 value=33 time=10\n",
      "control_change channel=1 control=7 value=31 time=8\n",
      "control_change channel=1 control=7 value=30 time=11\n",
      "control_change channel=1 control=7 value=29 time=14\n",
      "control_change channel=1 control=7 value=28 time=45\n",
      "control_change channel=1 control=7 value=27 time=3\n",
      "control_change channel=1 control=7 value=26 time=5\n",
      "control_change channel=1 control=7 value=24 time=10\n",
      "control_change channel=1 control=7 value=23 time=10\n",
      "control_change channel=1 control=7 value=22 time=10\n",
      "control_change channel=1 control=7 value=21 time=12\n",
      "control_change channel=1 control=7 value=19 time=35\n",
      "control_change channel=1 control=7 value=17 time=5\n",
      "control_change channel=1 control=7 value=16 time=35\n",
      "control_change channel=1 control=7 value=15 time=15\n",
      "control_change channel=1 control=7 value=14 time=31\n",
      "control_change channel=1 control=7 value=12 time=20\n",
      "control_change channel=1 control=7 value=10 time=24\n",
      "control_change channel=1 control=7 value=9 time=13\n",
      "control_change channel=1 control=7 value=8 time=4\n",
      "control_change channel=1 control=7 value=7 time=7\n",
      "control_change channel=1 control=7 value=5 time=16\n",
      "control_change channel=1 control=7 value=3 time=29\n",
      "control_change channel=1 control=7 value=2 time=34\n",
      "control_change channel=1 control=7 value=0 time=0\n",
      "note_on channel=1 note=94 velocity=25 time=102\n",
      "note_on channel=1 note=92 velocity=0 time=3\n",
      "note_on channel=1 note=94 velocity=0 time=471\n",
      "control_change channel=1 control=7 value=127 time=1073\n",
      "control_change channel=1 control=7 value=127 time=756\n",
      "control_change channel=1 control=7 value=127 time=222\n",
      "control_change channel=1 control=7 value=125 time=54\n",
      "MetaMessage('end_of_track', time=0)\n",
      "Track 6: Slow Strings\n",
      "MetaMessage('midi_port', port=0, time=0)\n",
      "MetaMessage('track_name', name='Slow Strings', time=0)\n",
      "control_change channel=3 control=0 value=0 time=0\n",
      "program_change channel=3 program=49 time=0\n",
      "control_change channel=3 control=7 value=115 time=0\n",
      "control_change channel=3 control=10 value=63 time=0\n",
      "control_change channel=3 control=7 value=127 time=210\n",
      "control_change channel=3 control=7 value=115 time=25\n",
      "control_change channel=3 control=7 value=101 time=6\n",
      "control_change channel=3 control=7 value=97 time=5\n",
      "control_change channel=3 control=7 value=96 time=5\n",
      "control_change channel=3 control=7 value=92 time=57\n",
      "control_change channel=3 control=7 value=89 time=5\n",
      "control_change channel=3 control=7 value=85 time=5\n",
      "control_change channel=3 control=7 value=84 time=0\n",
      "control_change channel=3 control=7 value=85 time=39\n",
      "control_change channel=3 control=7 value=89 time=4\n",
      "note_on channel=3 note=73 velocity=23 time=3\n",
      "note_on channel=3 note=76 velocity=30 time=3\n",
      "control_change channel=3 control=7 value=110 time=7\n",
      "control_change channel=3 control=7 value=113 time=11\n",
      "note_on channel=3 note=80 velocity=23 time=1\n",
      "control_change channel=3 control=7 value=115 time=11\n",
      "control_change channel=3 control=7 value=117 time=4\n",
      "control_change channel=3 control=7 value=118 time=5\n",
      "control_change channel=3 control=7 value=122 time=3\n",
      "control_change channel=3 control=7 value=124 time=6\n",
      "control_change channel=3 control=7 value=125 time=25\n",
      "control_change channel=3 control=7 value=126 time=0\n",
      "control_change channel=3 control=7 value=127 time=5\n",
      "control_change channel=3 control=7 value=122 time=249\n",
      "control_change channel=3 control=7 value=111 time=5\n",
      "control_change channel=3 control=7 value=108 time=5\n",
      "control_change channel=3 control=7 value=97 time=4\n",
      "control_change channel=3 control=7 value=84 time=4\n",
      "control_change channel=3 control=7 value=70 time=4\n",
      "control_change channel=3 control=7 value=66 time=5\n",
      "control_change channel=3 control=7 value=63 time=5\n",
      "control_change channel=3 control=7 value=59 time=1\n",
      "control_change channel=3 control=7 value=49 time=5\n",
      "note_on channel=3 note=76 velocity=0 time=4\n",
      "control_change channel=3 control=7 value=48 time=2\n",
      "note_on channel=3 note=73 velocity=0 time=16\n",
      "control_change channel=3 control=7 value=49 time=15\n",
      "note_on channel=3 note=78 velocity=26 time=0\n",
      "note_on channel=3 note=75 velocity=28 time=1\n",
      "note_on channel=3 note=71 velocity=42 time=0\n",
      "note_on channel=3 note=72 velocity=32 time=3\n",
      "note_on channel=3 note=80 velocity=0 time=3\n",
      "note_on channel=3 note=72 velocity=0 time=1\n",
      "control_change channel=3 control=7 value=87 time=6\n",
      "control_change channel=3 control=7 value=89 time=5\n",
      "control_change channel=3 control=7 value=92 time=3\n",
      "control_change channel=3 control=7 value=96 time=4\n",
      "control_change channel=3 control=7 value=99 time=5\n",
      "control_change channel=3 control=7 value=103 time=4\n",
      "control_change channel=3 control=7 value=106 time=8\n",
      "control_change channel=3 control=7 value=110 time=6\n",
      "control_change channel=3 control=7 value=113 time=4\n",
      "control_change channel=3 control=7 value=115 time=8\n",
      "control_change channel=3 control=7 value=117 time=10\n",
      "control_change channel=3 control=7 value=118 time=8\n",
      "control_change channel=3 control=7 value=119 time=0\n",
      "control_change channel=3 control=7 value=122 time=39\n",
      "control_change channel=3 control=7 value=125 time=5\n",
      "control_change channel=3 control=7 value=126 time=94\n",
      "control_change channel=3 control=7 value=127 time=5\n",
      "control_change channel=3 control=7 value=125 time=122\n",
      "control_change channel=3 control=7 value=122 time=15\n",
      "control_change channel=3 control=7 value=121 time=5\n",
      "control_change channel=3 control=7 value=120 time=4\n",
      "control_change channel=3 control=7 value=113 time=29\n",
      "control_change channel=3 control=7 value=96 time=12\n",
      "control_change channel=3 control=7 value=85 time=5\n",
      "control_change channel=3 control=7 value=82 time=3\n",
      "control_change channel=3 control=7 value=78 time=4\n",
      "control_change channel=3 control=7 value=77 time=5\n",
      "note_on channel=3 note=75 velocity=0 time=19\n",
      "note_on channel=3 note=71 velocity=0 time=12\n",
      "control_change channel=3 control=7 value=80 time=8\n",
      "control_change channel=3 control=7 value=84 time=3\n",
      "note_on channel=3 note=73 velocity=27 time=0\n",
      "control_change channel=3 control=7 value=85 time=5\n",
      "note_on channel=3 note=76 velocity=27 time=0\n",
      "control_change channel=3 control=7 value=86 time=2\n",
      "note_on channel=3 note=78 velocity=0 time=5\n",
      "control_change channel=3 control=7 value=89 time=1\n",
      "note_on channel=3 note=69 velocity=30 time=0\n",
      "control_change channel=3 control=7 value=92 time=15\n",
      "control_change channel=3 control=7 value=96 time=0\n",
      "control_change channel=3 control=7 value=101 time=14\n",
      "control_change channel=3 control=7 value=103 time=1\n",
      "control_change channel=3 control=7 value=104 time=7\n",
      "control_change channel=3 control=7 value=105 time=4\n",
      "control_change channel=3 control=7 value=106 time=4\n",
      "control_change channel=3 control=7 value=110 time=5\n",
      "control_change channel=3 control=7 value=111 time=5\n",
      "control_change channel=3 control=7 value=112 time=30\n",
      "control_change channel=3 control=7 value=122 time=5\n",
      "control_change channel=3 control=7 value=125 time=52\n",
      "control_change channel=3 control=7 value=126 time=3\n",
      "control_change channel=3 control=7 value=127 time=5\n",
      "control_change channel=3 control=7 value=125 time=223\n",
      "control_change channel=3 control=7 value=115 time=5\n",
      "control_change channel=3 control=7 value=104 time=4\n",
      "control_change channel=3 control=7 value=90 time=4\n",
      "control_change channel=3 control=7 value=80 time=7\n",
      "control_change channel=3 control=7 value=77 time=4\n",
      "control_change channel=3 control=7 value=76 time=3\n",
      "control_change channel=3 control=7 value=75 time=8\n",
      "note_on channel=3 note=69 velocity=0 time=8\n",
      "note_on channel=3 note=78 velocity=21 time=13\n",
      "note_on channel=3 note=76 velocity=0 time=3\n",
      "control_change channel=3 control=7 value=85 time=9\n",
      "note_on channel=3 note=75 velocity=32 time=0\n",
      "note_on channel=3 note=71 velocity=41 time=0\n",
      "control_change channel=3 control=7 value=89 time=4\n",
      "note_on channel=3 note=73 velocity=0 time=4\n",
      "control_change channel=3 control=7 value=90 time=0\n",
      "control_change channel=3 control=7 value=94 time=5\n",
      "control_change channel=3 control=7 value=97 time=1\n",
      "control_change channel=3 control=7 value=101 time=8\n",
      "control_change channel=3 control=7 value=103 time=6\n",
      "control_change channel=3 control=7 value=104 time=28\n",
      "control_change channel=3 control=7 value=105 time=42\n",
      "control_change channel=3 control=7 value=106 time=5\n",
      "control_change channel=3 control=7 value=108 time=5\n",
      "control_change channel=3 control=7 value=110 time=5\n",
      "control_change channel=3 control=7 value=111 time=8\n",
      "control_change channel=3 control=7 value=115 time=32\n",
      "control_change channel=3 control=7 value=117 time=31\n",
      "control_change channel=3 control=7 value=118 time=0\n",
      "control_change channel=3 control=7 value=119 time=10\n",
      "control_change channel=3 control=7 value=120 time=10\n",
      "note_on channel=3 note=75 velocity=0 time=160\n",
      "note_on channel=3 note=71 velocity=0 time=5\n",
      "control_change channel=3 control=7 value=113 time=10\n",
      "control_change channel=3 control=7 value=110 time=2\n",
      "control_change channel=3 control=7 value=106 time=5\n",
      "control_change channel=3 control=7 value=104 time=4\n",
      "control_change channel=3 control=7 value=103 time=4\n",
      "control_change channel=3 control=7 value=99 time=5\n",
      "control_change channel=3 control=7 value=96 time=4\n",
      "control_change channel=3 control=7 value=92 time=5\n",
      "control_change channel=3 control=7 value=90 time=1\n",
      "control_change channel=3 control=7 value=89 time=5\n",
      "control_change channel=3 control=7 value=88 time=4\n",
      "control_change channel=3 control=7 value=87 time=6\n",
      "control_change channel=3 control=7 value=85 time=9\n",
      "note_on channel=3 note=78 velocity=0 time=5\n",
      "control_change channel=3 control=7 value=84 time=0\n",
      "note_on channel=3 note=80 velocity=36 time=2\n",
      "note_on channel=3 note=73 velocity=26 time=4\n",
      "note_on channel=3 note=76 velocity=27 time=3\n",
      "note_on channel=3 note=37 velocity=42 time=7\n",
      "control_change channel=3 control=7 value=90 time=27\n",
      "control_change channel=3 control=7 value=91 time=0\n",
      "control_change channel=3 control=7 value=94 time=5\n",
      "control_change channel=3 control=7 value=96 time=5\n",
      "control_change channel=3 control=7 value=99 time=3\n",
      "control_change channel=3 control=7 value=103 time=2\n",
      "control_change channel=3 control=7 value=104 time=6\n",
      "control_change channel=3 control=7 value=105 time=9\n",
      "control_change channel=3 control=7 value=106 time=15\n",
      "control_change channel=3 control=7 value=108 time=10\n",
      "control_change channel=3 control=7 value=110 time=5\n",
      "control_change channel=3 control=7 value=111 time=5\n",
      "control_change channel=3 control=7 value=115 time=13\n",
      "control_change channel=3 control=7 value=118 time=16\n",
      "control_change channel=3 control=7 value=122 time=8\n",
      "control_change channel=3 control=7 value=124 time=9\n",
      "control_change channel=3 control=7 value=125 time=9\n",
      "control_change channel=3 control=7 value=126 time=15\n",
      "control_change channel=3 control=7 value=127 time=5\n",
      "control_change channel=3 control=93 value=10 time=131\n",
      "control_change channel=3 control=93 value=12 time=16\n",
      "control_change channel=3 control=93 value=30 time=21\n",
      "control_change channel=3 control=93 value=38 time=3\n",
      "control_change channel=3 control=93 value=39 time=2\n",
      "control_change channel=3 control=93 value=40 time=13\n",
      "control_change channel=3 control=93 value=42 time=4\n",
      "control_change channel=3 control=93 value=43 time=5\n",
      "control_change channel=3 control=93 value=45 time=4\n",
      "control_change channel=3 control=93 value=46 time=4\n",
      "control_change channel=3 control=93 value=48 time=9\n",
      "control_change channel=3 control=93 value=50 time=0\n",
      "control_change channel=3 control=93 value=51 time=8\n",
      "control_change channel=3 control=93 value=52 time=2\n",
      "note_on channel=3 note=76 velocity=0 time=21\n",
      "note_on channel=3 note=73 velocity=0 time=9\n",
      "note_on channel=3 note=35 velocity=38 time=5\n",
      "note_on channel=3 note=37 velocity=0 time=2\n",
      "note_on channel=3 note=80 velocity=0 time=12\n",
      "note_on channel=3 note=78 velocity=21 time=1\n",
      "note_on channel=3 note=71 velocity=45 time=0\n",
      "note_on channel=3 note=75 velocity=37 time=2\n",
      "control_change channel=3 control=91 value=33 time=137\n",
      "control_change channel=3 control=91 value=35 time=23\n",
      "control_change channel=3 control=91 value=39 time=13\n",
      "control_change channel=3 control=91 value=42 time=6\n",
      "control_change channel=3 control=91 value=43 time=5\n",
      "control_change channel=3 control=91 value=45 time=10\n",
      "control_change channel=3 control=91 value=47 time=10\n",
      "control_change channel=3 control=91 value=48 time=5\n",
      "control_change channel=3 control=91 value=51 time=5\n",
      "note_on channel=3 note=71 velocity=0 time=169\n",
      "note_on channel=3 note=75 velocity=0 time=2\n",
      "note_on channel=3 note=78 velocity=0 time=7\n",
      "control_change channel=3 control=7 value=127 time=6\n",
      "note_on channel=3 note=69 velocity=42 time=13\n",
      "note_on channel=3 note=33 velocity=59 time=1\n",
      "note_on channel=3 note=73 velocity=36 time=2\n",
      "note_on channel=3 note=76 velocity=50 time=6\n",
      "note_on channel=3 note=35 velocity=0 time=2\n",
      "control_change channel=3 control=7 value=124 time=16\n",
      "control_change channel=3 control=7 value=123 time=8\n",
      "control_change channel=3 control=7 value=122 time=16\n",
      "control_change channel=3 control=7 value=118 time=15\n",
      "control_change channel=3 control=7 value=117 time=10\n",
      "control_change channel=3 control=7 value=116 time=5\n",
      "control_change channel=3 control=7 value=115 time=12\n",
      "control_change channel=3 control=7 value=114 time=10\n",
      "control_change channel=3 control=7 value=113 time=5\n",
      "control_change channel=3 control=7 value=111 time=5\n",
      "control_change channel=3 control=7 value=110 time=5\n",
      "control_change channel=3 control=7 value=109 time=5\n",
      "control_change channel=3 control=7 value=108 time=1\n",
      "control_change channel=3 control=7 value=107 time=16\n",
      "control_change channel=3 control=7 value=104 time=22\n",
      "control_change channel=3 control=7 value=103 time=5\n",
      "control_change channel=3 control=7 value=102 time=7\n",
      "control_change channel=3 control=7 value=101 time=12\n",
      "control_change channel=3 control=7 value=99 time=19\n",
      "control_change channel=3 control=7 value=97 time=8\n",
      "control_change channel=3 control=7 value=96 time=21\n",
      "control_change channel=3 control=7 value=95 time=10\n",
      "control_change channel=3 control=7 value=94 time=20\n",
      "control_change channel=3 control=7 value=92 time=0\n",
      "control_change channel=3 control=7 value=90 time=5\n",
      "control_change channel=3 control=7 value=89 time=10\n",
      "control_change channel=3 control=7 value=88 time=10\n",
      "control_change channel=3 control=7 value=87 time=5\n",
      "control_change channel=3 control=7 value=85 time=3\n",
      "control_change channel=3 control=7 value=84 time=10\n",
      "control_change channel=3 control=7 value=83 time=5\n",
      "control_change channel=3 control=7 value=82 time=8\n",
      "control_change channel=3 control=7 value=81 time=5\n",
      "control_change channel=3 control=7 value=80 time=13\n",
      "control_change channel=3 control=7 value=78 time=24\n",
      "control_change channel=3 control=7 value=77 time=5\n",
      "control_change channel=3 control=7 value=76 time=2\n",
      "note_on channel=3 note=69 velocity=0 time=43\n",
      "note_on channel=3 note=35 velocity=41 time=10\n",
      "note_on channel=3 note=73 velocity=0 time=2\n",
      "note_on channel=3 note=33 velocity=0 time=5\n",
      "note_on channel=3 note=76 velocity=0 time=2\n",
      "control_change channel=3 control=7 value=82 time=26\n",
      "control_change channel=3 control=7 value=84 time=5\n",
      "note_on channel=3 note=71 velocity=26 time=3\n",
      "control_change channel=3 control=7 value=85 time=0\n",
      "note_on channel=3 note=75 velocity=25 time=3\n",
      "note_on channel=3 note=78 velocity=28 time=4\n",
      "control_change channel=3 control=7 value=86 time=0\n",
      "control_change channel=3 control=7 value=87 time=5\n",
      "control_change channel=3 control=7 value=89 time=5\n",
      "control_change channel=3 control=7 value=90 time=5\n",
      "control_change channel=3 control=7 value=91 time=17\n",
      "control_change channel=3 control=7 value=92 time=10\n",
      "control_change channel=3 control=7 value=93 time=14\n",
      "control_change channel=3 control=7 value=94 time=15\n",
      "control_change channel=3 control=7 value=96 time=22\n",
      "control_change channel=3 control=7 value=97 time=5\n",
      "control_change channel=3 control=7 value=98 time=5\n",
      "control_change channel=3 control=7 value=99 time=20\n",
      "control_change channel=3 control=7 value=100 time=14\n",
      "control_change channel=3 control=7 value=101 time=2\n",
      "control_change channel=3 control=7 value=103 time=10\n",
      "control_change channel=3 control=7 value=104 time=5\n",
      "control_change channel=3 control=7 value=110 time=31\n",
      "control_change channel=3 control=7 value=111 time=0\n",
      "control_change channel=3 control=7 value=112 time=11\n",
      "control_change channel=3 control=7 value=113 time=10\n",
      "control_change channel=3 control=7 value=115 time=5\n",
      "control_change channel=3 control=7 value=117 time=5\n",
      "control_change channel=3 control=7 value=118 time=15\n",
      "control_change channel=3 control=7 value=119 time=5\n",
      "control_change channel=3 control=7 value=120 time=35\n",
      "control_change channel=3 control=7 value=122 time=12\n",
      "control_change channel=3 control=7 value=124 time=10\n",
      "control_change channel=3 control=7 value=125 time=5\n",
      "control_change channel=3 control=7 value=126 time=5\n",
      "control_change channel=3 control=7 value=125 time=128\n",
      "note_on channel=3 note=40 velocity=31 time=0\n",
      "control_change channel=3 control=7 value=124 time=6\n",
      "control_change channel=3 control=7 value=123 time=0\n",
      "control_change channel=3 control=7 value=120 time=5\n",
      "note_on channel=3 note=71 velocity=0 time=7\n",
      "control_change channel=3 control=7 value=110 time=0\n",
      "note_on channel=3 note=78 velocity=0 time=4\n",
      "note_on channel=3 note=35 velocity=0 time=0\n",
      "control_change channel=3 control=7 value=99 time=0\n",
      "note_on channel=3 note=80 velocity=22 time=6\n",
      "control_change channel=3 control=7 value=96 time=0\n",
      "note_on channel=3 note=75 velocity=0 time=3\n",
      "control_change channel=3 control=7 value=92 time=5\n",
      "note_on channel=3 note=76 velocity=36 time=8\n",
      "note_on channel=3 note=71 velocity=31 time=3\n",
      "control_change channel=3 control=7 value=90 time=0\n",
      "control_change channel=3 control=7 value=89 time=5\n",
      "control_change channel=3 control=7 value=88 time=11\n",
      "control_change channel=3 control=7 value=89 time=41\n",
      "control_change channel=3 control=7 value=92 time=5\n",
      "control_change channel=3 control=7 value=93 time=9\n",
      "control_change channel=3 control=7 value=94 time=15\n",
      "control_change channel=3 control=7 value=96 time=15\n",
      "control_change channel=3 control=7 value=97 time=24\n",
      "control_change channel=3 control=7 value=98 time=39\n",
      "control_change channel=3 control=7 value=99 time=37\n",
      "note_on channel=3 note=40 velocity=0 time=24\n",
      "control_change channel=3 control=7 value=97 time=120\n",
      "control_change channel=3 control=7 value=96 time=10\n",
      "control_change channel=3 control=7 value=95 time=12\n",
      "note_on channel=3 note=80 velocity=0 time=4\n",
      "note_on channel=3 note=76 velocity=0 time=0\n",
      "note_on channel=3 note=71 velocity=0 time=2\n",
      "control_change channel=3 control=7 value=94 time=78\n",
      "control_change channel=3 control=7 value=92 time=403\n",
      "control_change channel=3 control=7 value=90 time=6\n",
      "control_change channel=3 control=7 value=89 time=5\n",
      "control_change channel=3 control=7 value=88 time=30\n",
      "control_change channel=3 control=7 value=87 time=5\n",
      "control_change channel=3 control=7 value=85 time=541\n",
      "control_change channel=3 control=7 value=84 time=68\n",
      "control_change channel=3 control=7 value=83 time=10\n",
      "control_change channel=3 control=7 value=82 time=75\n",
      "control_change channel=3 control=7 value=81 time=495\n",
      "control_change channel=3 control=7 value=82 time=1522\n",
      "control_change channel=3 control=7 value=84 time=5\n",
      "note_on channel=3 note=52 velocity=36 time=447\n",
      "note_on channel=3 note=45 velocity=5 time=13\n",
      "note_on channel=3 note=57 velocity=43 time=318\n",
      "control_change channel=3 control=7 value=83 time=15\n",
      "note_on channel=3 note=57 velocity=0 time=54\n",
      "note_on channel=3 note=59 velocity=44 time=2\n",
      "control_change channel=3 control=7 value=82 time=10\n",
      "control_change channel=3 control=7 value=81 time=5\n",
      "control_change channel=3 control=7 value=80 time=5\n",
      "control_change channel=3 control=7 value=78 time=15\n",
      "note_on channel=3 note=59 velocity=0 time=32\n",
      "note_on channel=3 note=61 velocity=43 time=7\n",
      "control_change channel=3 control=7 value=79 time=25\n",
      "control_change channel=3 control=7 value=80 time=5\n",
      "control_change channel=3 control=7 value=84 time=5\n",
      "control_change channel=3 control=7 value=87 time=5\n",
      "control_change channel=3 control=64 value=127 time=9\n",
      "note_on channel=3 note=61 velocity=0 time=16\n",
      "note_on channel=3 note=64 velocity=55 time=6\n",
      "note_on channel=3 note=64 velocity=0 time=11\n",
      "note_on channel=3 note=69 velocity=70 time=68\n",
      "note_on channel=3 note=69 velocity=0 time=77\n",
      "note_on channel=3 note=71 velocity=61 time=12\n",
      "note_on channel=3 note=52 velocity=0 time=46\n",
      "note_on channel=3 note=71 velocity=0 time=9\n",
      "note_on channel=3 note=73 velocity=61 time=1\n",
      "note_on channel=3 note=45 velocity=0 time=15\n",
      "note_on channel=3 note=73 velocity=0 time=58\n",
      "note_on channel=3 note=76 velocity=61 time=7\n",
      "control_change channel=3 control=7 value=85 time=57\n",
      "note_on channel=3 note=40 velocity=39 time=20\n",
      "control_change channel=3 control=7 value=84 time=5\n",
      "note_on channel=3 note=71 velocity=51 time=2\n",
      "note_on channel=3 note=64 velocity=43 time=1\n",
      "note_on channel=3 note=28 velocity=44 time=4\n",
      "control_change channel=3 control=7 value=83 time=3\n",
      "control_change channel=3 control=7 value=82 time=5\n",
      "control_change channel=3 control=64 value=0 time=0\n",
      "control_change channel=3 control=7 value=81 time=56\n",
      "control_change channel=3 control=64 value=127 time=9\n",
      "note_on channel=3 note=71 velocity=0 time=285\n",
      "note_on channel=3 note=28 velocity=0 time=10\n",
      "note_on channel=3 note=64 velocity=0 time=1\n",
      "note_on channel=3 note=40 velocity=0 time=15\n",
      "control_change channel=3 control=7 value=80 time=119\n",
      "note_on channel=3 note=76 velocity=0 time=12\n",
      "control_change channel=3 control=64 value=0 time=5\n",
      "note_on channel=3 note=75 velocity=44 time=5\n",
      "note_on channel=3 note=63 velocity=49 time=5\n",
      "note_on channel=3 note=42 velocity=39 time=0\n",
      "note_on channel=3 note=30 velocity=49 time=3\n",
      "control_change channel=3 control=64 value=127 time=38\n",
      "note_on channel=3 note=63 velocity=0 time=42\n",
      "note_on channel=3 note=75 velocity=0 time=46\n",
      "note_on channel=3 note=64 velocity=42 time=9\n",
      "note_on channel=3 note=76 velocity=58 time=3\n",
      "control_change channel=3 control=64 value=0 time=15\n",
      "control_change channel=3 control=64 value=127 time=147\n",
      "note_on channel=3 note=64 velocity=0 time=59\n",
      "note_on channel=3 note=76 velocity=0 time=4\n",
      "note_on channel=3 note=42 velocity=0 time=33\n",
      "note_on channel=3 note=76 velocity=59 time=31\n",
      "note_on channel=3 note=64 velocity=62 time=1\n",
      "note_on channel=3 note=30 velocity=0 time=34\n",
      "note_on channel=3 note=64 velocity=0 time=4\n",
      "control_change channel=3 control=64 value=0 time=74\n",
      "note_on channel=3 note=28 velocity=40 time=13\n",
      "note_on channel=3 note=76 velocity=0 time=3\n",
      "note_on channel=3 note=40 velocity=40 time=1\n",
      "note_on channel=3 note=75 velocity=70 time=3\n",
      "note_on channel=3 note=63 velocity=61 time=2\n",
      "control_change channel=3 control=64 value=127 time=35\n",
      "note_on channel=3 note=63 velocity=0 time=58\n",
      "note_on channel=3 note=75 velocity=0 time=45\n",
      "control_change channel=3 control=64 value=0 time=11\n",
      "note_on channel=3 note=76 velocity=44 time=0\n",
      "note_on channel=3 note=64 velocity=50 time=1\n",
      "control_change channel=3 control=64 value=127 time=106\n",
      "control_change channel=3 control=7 value=82 time=35\n",
      "note_on channel=3 note=76 velocity=0 time=8\n",
      "note_on channel=3 note=64 velocity=0 time=87\n",
      "note_on channel=3 note=66 velocity=58 time=42\n",
      "note_on channel=3 note=40 velocity=0 time=22\n",
      "note_on channel=3 note=28 velocity=0 time=55\n",
      "note_on channel=3 note=28 velocity=46 time=57\n",
      "note_on channel=3 note=66 velocity=0 time=2\n",
      "note_on channel=3 note=40 velocity=37 time=1\n",
      "note_on channel=3 note=68 velocity=72 time=1\n",
      "control_change channel=3 control=64 value=0 time=3\n",
      "control_change channel=3 control=7 value=81 time=37\n",
      "control_change channel=3 control=7 value=80 time=20\n",
      "control_change channel=3 control=91 value=54 time=147\n",
      "control_change channel=3 control=91 value=60 time=5\n",
      "control_change channel=3 control=91 value=63 time=0\n",
      "control_change channel=3 control=91 value=66 time=5\n",
      "control_change channel=3 control=91 value=69 time=15\n",
      "control_change channel=3 control=91 value=72 time=10\n",
      "control_change channel=3 control=91 value=74 time=8\n",
      "control_change channel=3 control=91 value=78 time=16\n",
      "control_change channel=3 control=91 value=80 time=25\n",
      "note_on channel=3 note=66 velocity=61 time=0\n",
      "note_on channel=3 note=68 velocity=0 time=2\n",
      "control_change channel=3 control=91 value=84 time=0\n",
      "control_change channel=3 control=91 value=88 time=20\n",
      "control_change channel=3 control=91 value=90 time=15\n",
      "control_change channel=3 control=91 value=93 time=13\n",
      "control_change channel=3 control=64 value=127 time=0\n",
      "control_change channel=3 control=91 value=96 time=12\n",
      "control_change channel=3 control=91 value=99 time=7\n",
      "control_change channel=3 control=91 value=102 time=5\n",
      "control_change channel=3 control=91 value=105 time=5\n",
      "control_change channel=3 control=91 value=109 time=10\n",
      "control_change channel=3 control=91 value=112 time=10\n",
      "control_change channel=3 control=7 value=82 time=5\n",
      "control_change channel=3 control=7 value=84 time=5\n",
      "control_change channel=3 control=91 value=115 time=0\n",
      "control_change channel=3 control=91 value=118 time=10\n",
      "control_change channel=3 control=91 value=120 time=15\n",
      "control_change channel=3 control=91 value=123 time=5\n",
      "control_change channel=3 control=91 value=127 time=5\n",
      "control_change channel=3 control=91 value=0 time=78\n",
      "control_change channel=3 control=64 value=0 time=51\n",
      "note_on channel=3 note=66 velocity=0 time=16\n",
      "note_on channel=3 note=64 velocity=64 time=7\n",
      "control_change channel=3 control=7 value=83 time=25\n",
      "control_change channel=3 control=7 value=82 time=32\n",
      "control_change channel=3 control=93 value=60 time=75\n",
      "control_change channel=3 control=93 value=63 time=21\n",
      "control_change channel=3 control=93 value=66 time=10\n",
      "control_change channel=3 control=93 value=68 time=5\n",
      "control_change channel=3 control=7 value=81 time=6\n",
      "control_change channel=3 control=93 value=71 time=13\n",
      "control_change channel=3 control=93 value=73 time=10\n",
      "control_change channel=3 control=93 value=75 time=20\n",
      "control_change channel=3 control=93 value=77 time=10\n",
      "control_change channel=3 control=93 value=79 time=5\n",
      "control_change channel=3 control=93 value=80 time=15\n",
      "control_change channel=3 control=93 value=82 time=15\n",
      "control_change channel=3 control=64 value=127 time=19\n",
      "note_on channel=3 note=28 velocity=0 time=69\n",
      "note_on channel=3 note=40 velocity=0 time=7\n",
      "control_change channel=3 control=64 value=0 time=148\n",
      "note_on channel=3 note=42 velocity=44 time=52\n",
      "note_on channel=3 note=30 velocity=59 time=3\n",
      "note_on channel=3 note=63 velocity=87 time=2\n",
      "note_on channel=3 note=64 velocity=0 time=3\n",
      "note_on channel=3 note=63 velocity=0 time=125\n",
      "note_on channel=3 note=64 velocity=80 time=1\n",
      "control_change channel=3 control=7 value=78 time=142\n",
      "control_change channel=3 control=64 value=127 time=77\n",
      "note_on channel=3 note=30 velocity=0 time=38\n",
      "note_on channel=3 note=42 velocity=0 time=14\n",
      "note_on channel=3 note=64 velocity=0 time=3\n",
      "note_on channel=3 note=64 velocity=74 time=48\n",
      "note_on channel=3 note=64 velocity=0 time=96\n",
      "note_on channel=3 note=59 velocity=54 time=4\n",
      "note_on channel=3 note=45 velocity=42 time=0\n",
      "note_on channel=3 note=33 velocity=46 time=4\n",
      "control_change channel=3 control=64 value=0 time=13\n",
      "control_change channel=3 control=64 value=127 time=243\n",
      "note_on channel=3 note=59 velocity=0 time=112\n",
      "note_on channel=3 note=33 velocity=0 time=88\n",
      "note_on channel=3 note=45 velocity=0 time=7\n",
      "control_change channel=3 control=7 value=75 time=67\n",
      "note_on channel=3 note=32 velocity=50 time=25\n",
      "note_on channel=3 note=73 velocity=58 time=3\n",
      "note_on channel=3 note=61 velocity=52 time=1\n",
      "note_on channel=3 note=44 velocity=49 time=4\n",
      "control_change channel=3 control=64 value=0 time=1\n",
      "control_change channel=3 control=64 value=127 time=49\n",
      "control_change channel=3 control=7 value=77 time=7\n",
      "control_change channel=3 control=7 value=78 time=20\n",
      "control_change channel=3 control=7 value=79 time=16\n",
      "control_change channel=3 control=7 value=82 time=64\n",
      "note_on channel=3 note=61 velocity=0 time=4\n",
      "control_change channel=3 control=7 value=84 time=10\n",
      "control_change channel=3 control=7 value=85 time=41\n",
      "control_change channel=3 control=7 value=86 time=20\n",
      "note_on channel=3 note=73 velocity=0 time=7\n",
      "control_change channel=3 control=64 value=0 time=41\n",
      "note_on channel=3 note=63 velocity=76 time=9\n",
      "control_change channel=3 control=7 value=85 time=1\n",
      "note_on channel=3 note=75 velocity=80 time=0\n",
      "control_change channel=3 control=7 value=84 time=10\n",
      "control_change channel=3 control=7 value=83 time=10\n",
      "control_change channel=3 control=7 value=82 time=5\n",
      "control_change channel=3 control=64 value=127 time=15\n",
      "control_change channel=3 control=7 value=85 time=25\n",
      "control_change channel=3 control=7 value=86 time=5\n",
      "control_change channel=3 control=7 value=87 time=0\n",
      "control_change channel=3 control=7 value=89 time=10\n",
      "note_on channel=3 note=32 velocity=0 time=6\n",
      "note_on channel=3 note=44 velocity=0 time=6\n",
      "note_on channel=3 note=63 velocity=0 time=0\n",
      "note_on channel=3 note=75 velocity=0 time=18\n",
      "control_change channel=3 control=7 value=88 time=115\n",
      "control_change channel=3 control=7 value=87 time=10\n",
      "control_change channel=3 control=7 value=85 time=6\n",
      "control_change channel=3 control=64 value=0 time=7\n",
      "control_change channel=3 control=7 value=82 time=9\n",
      "note_on channel=3 note=76 velocity=58 time=20\n",
      "note_on channel=3 note=49 velocity=49 time=0\n",
      "note_on channel=3 note=37 velocity=40 time=1\n",
      "note_on channel=3 note=64 velocity=50 time=0\n",
      "control_change channel=3 control=64 value=127 time=17\n",
      "note_on channel=3 note=64 velocity=0 time=32\n",
      "note_on channel=3 note=76 velocity=0 time=3\n",
      "control_change channel=3 control=7 value=85 time=5\n",
      "control_change channel=3 control=7 value=86 time=25\n",
      "note_on channel=3 note=49 velocity=0 time=360\n",
      "note_on channel=3 note=37 velocity=0 time=23\n",
      "note_on channel=3 note=66 velocity=66 time=94\n",
      "note_on channel=3 note=78 velocity=76 time=0\n",
      "control_change channel=3 control=64 value=0 time=13\n",
      "note_on channel=3 note=35 velocity=68 time=49\n",
      "note_on channel=3 note=47 velocity=36 time=6\n",
      "control_change channel=3 control=64 value=127 time=177\n",
      "note_on channel=3 note=66 velocity=0 time=83\n",
      "note_on channel=3 note=78 velocity=0 time=30\n",
      "note_on channel=3 note=35 velocity=0 time=57\n",
      "note_on channel=3 note=47 velocity=0 time=6\n",
      "control_change channel=3 control=7 value=85 time=96\n",
      "note_on channel=3 note=71 velocity=47 time=32\n",
      "note_on channel=3 note=83 velocity=57 time=2\n",
      "note_on channel=3 note=33 velocity=46 time=0\n",
      "control_change channel=3 control=64 value=0 time=5\n",
      "control_change channel=3 control=7 value=84 time=15\n",
      "control_change channel=3 control=7 value=83 time=10\n",
      "control_change channel=3 control=64 value=127 time=162\n",
      "control_change channel=3 control=64 value=0 time=107\n",
      "control_change channel=3 control=64 value=127 time=53\n",
      "control_change channel=3 control=7 value=84 time=5\n",
      "note_on channel=3 note=83 velocity=0 time=6\n",
      "note_on channel=3 note=71 velocity=0 time=25\n",
      "note_on channel=3 note=33 velocity=0 time=137\n",
      "note_on channel=3 note=66 velocity=46 time=44\n",
      "note_on channel=3 note=54 velocity=40 time=2\n",
      "control_change channel=3 control=64 value=0 time=8\n",
      "control_change channel=3 control=7 value=83 time=66\n",
      "note_on channel=3 note=33 velocity=5 time=15\n",
      "control_change channel=3 control=64 value=127 time=49\n",
      "note_on channel=3 note=54 velocity=0 time=41\n",
      "note_on channel=3 note=66 velocity=0 time=35\n",
      "note_on channel=3 note=68 velocity=55 time=69\n",
      "control_change channel=3 control=64 value=0 time=6\n",
      "control_change channel=3 control=7 value=84 time=36\n",
      "control_change channel=3 control=7 value=85 time=92\n",
      "note_on channel=3 note=68 velocity=0 time=39\n",
      "note_on channel=3 note=69 velocity=64 time=5\n",
      "note_on channel=3 note=69 velocity=0 time=63\n",
      "note_on channel=3 note=68 velocity=61 time=4\n",
      "control_change channel=3 control=7 value=86 time=89\n",
      "control_change channel=3 control=64 value=127 time=33\n",
      "control_change channel=3 control=7 value=87 time=41\n",
      "control_change channel=3 control=7 value=89 time=42\n",
      "note_on channel=3 note=33 velocity=0 time=43\n",
      "note_on channel=3 note=37 velocity=5 time=52\n",
      "control_change channel=3 control=64 value=0 time=21\n",
      "note_on channel=3 note=66 velocity=57 time=22\n",
      "note_on channel=3 note=68 velocity=0 time=76\n",
      "note_on channel=3 note=66 velocity=0 time=39\n",
      "note_on channel=3 note=64 velocity=66 time=3\n",
      "control_change channel=3 control=64 value=127 time=33\n",
      "note_on channel=3 note=64 velocity=0 time=82\n",
      "control_change channel=3 control=64 value=0 time=1\n",
      "note_on channel=3 note=63 velocity=74 time=4\n",
      "note_on channel=3 note=37 velocity=0 time=2\n",
      "note_on channel=3 note=35 velocity=62 time=3\n",
      "note_on channel=3 note=63 velocity=0 time=135\n",
      "note_on channel=3 note=64 velocity=59 time=29\n",
      "note_on channel=3 note=63 velocity=58 time=245\n",
      "note_on channel=3 note=64 velocity=0 time=6\n",
      "note_on channel=3 note=63 velocity=0 time=152\n",
      "note_on channel=3 note=35 velocity=0 time=2\n",
      "control_change channel=3 control=7 value=90 time=0\n",
      "note_on channel=3 note=61 velocity=51 time=3\n",
      "note_on channel=3 note=33 velocity=52 time=2\n",
      "control_change channel=3 control=64 value=127 time=366\n",
      "control_change channel=3 control=7 value=89 time=5\n",
      "control_change channel=3 control=7 value=88 time=57\n",
      "note_on channel=3 note=33 velocity=0 time=141\n",
      "control_change channel=3 control=64 value=0 time=1\n",
      "note_on channel=3 note=32 velocity=62 time=15\n",
      "note_on channel=3 note=61 velocity=0 time=1\n",
      "note_on channel=3 note=59 velocity=68 time=2\n",
      "control_change channel=3 control=64 value=127 time=65\n",
      "control_change channel=3 control=64 value=0 time=260\n",
      "note_on channel=3 note=59 velocity=0 time=16\n",
      "note_on channel=3 note=32 velocity=0 time=1\n",
      "note_on channel=3 note=30 velocity=62 time=0\n",
      "note_on channel=3 note=57 velocity=84 time=5\n",
      "control_change channel=3 control=7 value=92 time=128\n",
      "control_change channel=3 control=64 value=127 time=8\n",
      "note_on channel=3 note=30 velocity=0 time=55\n",
      "note_on channel=3 note=61 velocity=74 time=110\n",
      "note_on channel=3 note=25 velocity=50 time=3\n",
      "note_on channel=3 note=64 velocity=70 time=1\n",
      "note_on channel=3 note=37 velocity=37 time=2\n",
      "control_change channel=3 control=64 value=0 time=3\n",
      "note_on channel=3 note=57 velocity=0 time=3\n",
      "control_change channel=3 control=7 value=90 time=107\n",
      "note_on channel=3 note=37 velocity=0 time=78\n",
      "control_change channel=3 control=64 value=127 time=63\n",
      "note_on channel=3 note=37 velocity=76 time=14\n",
      "control_change channel=3 control=7 value=89 time=47\n",
      "note_on channel=3 note=25 velocity=0 time=39\n",
      "note_on channel=3 note=64 velocity=0 time=10\n",
      "note_on channel=3 note=37 velocity=0 time=10\n",
      "note_on channel=3 note=61 velocity=0 time=48\n",
      "control_change channel=3 control=64 value=0 time=115\n",
      "note_on channel=3 note=35 velocity=78 time=1\n",
      "note_on channel=3 note=47 velocity=72 time=3\n",
      "note_on channel=3 note=66 velocity=78 time=0\n",
      "note_on channel=3 note=63 velocity=87 time=1\n",
      "control_change channel=3 control=64 value=127 time=53\n",
      "control_change channel=3 control=7 value=88 time=49\n",
      "control_change channel=3 control=7 value=87 time=5\n",
      "note_on channel=3 note=47 velocity=0 time=97\n",
      "control_change channel=3 control=64 value=0 time=64\n",
      "note_on channel=3 note=47 velocity=87 time=18\n",
      "control_change channel=3 control=64 value=127 time=30\n",
      "control_change channel=3 control=7 value=85 time=86\n",
      "note_on channel=3 note=47 velocity=0 time=6\n",
      "note_on channel=3 note=35 velocity=0 time=7\n",
      "control_change channel=3 control=7 value=84 time=0\n",
      "note_on channel=3 note=71 velocity=80 time=10\n",
      "note_on channel=3 note=63 velocity=0 time=14\n",
      "note_on channel=3 note=66 velocity=0 time=5\n",
      "note_on channel=3 note=45 velocity=64 time=108\n",
      "note_on channel=3 note=33 velocity=59 time=4\n",
      "note_on channel=3 note=59 velocity=76 time=4\n",
      "control_change channel=3 control=64 value=0 time=1\n",
      "control_change channel=3 control=7 value=83 time=61\n",
      "control_change channel=3 control=7 value=82 time=15\n",
      "control_change channel=3 control=64 value=127 time=40\n",
      "control_change channel=3 control=7 value=81 time=97\n",
      "control_change channel=3 control=7 value=80 time=20\n",
      "note_on channel=3 note=71 velocity=0 time=28\n",
      "control_change channel=3 control=64 value=0 time=3\n",
      "note_on channel=3 note=69 velocity=72 time=2\n",
      "note_on channel=3 note=69 velocity=0 time=140\n",
      "note_on channel=3 note=68 velocity=55 time=7\n",
      "control_change channel=3 control=64 value=127 time=28\n",
      "note_on channel=3 note=33 velocity=0 time=87\n",
      "note_on channel=3 note=45 velocity=0 time=7\n",
      "note_on channel=3 note=59 velocity=0 time=9\n",
      "note_on channel=3 note=66 velocity=64 time=29\n",
      "note_on channel=3 note=68 velocity=0 time=6\n",
      "control_change channel=3 control=64 value=0 time=13\n",
      "control_change channel=3 control=7 value=82 time=36\n",
      "note_on channel=3 note=47 velocity=45 time=97\n",
      "note_on channel=3 note=35 velocity=49 time=6\n",
      "control_change channel=3 control=7 value=84 time=95\n",
      "note_on channel=3 note=68 velocity=54 time=9\n",
      "note_on channel=3 note=66 velocity=0 time=16\n",
      "note_on channel=3 note=69 velocity=68 time=117\n",
      "note_on channel=3 note=68 velocity=0 time=5\n",
      "control_change channel=3 control=64 value=127 time=3\n",
      "note_on channel=3 note=47 velocity=0 time=35\n",
      "note_on channel=3 note=35 velocity=0 time=6\n",
      "note_on channel=3 note=69 velocity=0 time=63\n",
      "note_on channel=3 note=68 velocity=72 time=5\n",
      "note_on channel=3 note=37 velocity=52 time=3\n",
      "note_on channel=3 note=49 velocity=62 time=1\n",
      "control_change channel=3 control=64 value=0 time=8\n",
      "note_on channel=3 note=66 velocity=70 time=290\n",
      "note_on channel=3 note=68 velocity=0 time=8\n",
      "control_change channel=3 control=64 value=127 time=113\n",
      "note_on channel=3 note=66 velocity=0 time=30\n",
      "note_on channel=3 note=49 velocity=0 time=12\n",
      "note_on channel=3 note=64 velocity=96 time=15\n",
      "control_change channel=3 control=64 value=0 time=9\n"
     ]
    },
    {
     "name": "stdout",
     "output_type": "stream",
     "text": [
      "note_on channel=3 note=37 velocity=0 time=91\n",
      "note_on channel=3 note=35 velocity=52 time=2\n",
      "note_on channel=3 note=47 velocity=42 time=5\n",
      "note_on channel=3 note=63 velocity=87 time=1\n",
      "note_on channel=3 note=64 velocity=0 time=11\n",
      "note_on channel=3 note=63 velocity=0 time=125\n",
      "note_on channel=3 note=64 velocity=48 time=12\n",
      "control_change channel=3 control=64 value=127 time=59\n",
      "note_on channel=3 note=64 velocity=0 time=50\n",
      "control_change channel=3 control=64 value=0 time=141\n",
      "note_on channel=3 note=75 velocity=50 time=25\n",
      "note_on channel=3 note=63 velocity=37 time=2\n",
      "control_change channel=3 control=64 value=127 time=26\n",
      "note_on channel=3 note=47 velocity=0 time=41\n",
      "note_on channel=3 note=35 velocity=0 time=1\n",
      "note_on channel=3 note=63 velocity=0 time=42\n",
      "note_on channel=3 note=75 velocity=0 time=3\n",
      "control_change channel=3 control=64 value=0 time=33\n",
      "note_on channel=3 note=63 velocity=61 time=3\n",
      "note_on channel=3 note=33 velocity=54 time=1\n",
      "note_on channel=3 note=45 velocity=58 time=0\n",
      "note_on channel=3 note=75 velocity=64 time=1\n",
      "control_change channel=3 control=64 value=127 time=44\n",
      "note_on channel=3 note=63 velocity=0 time=51\n",
      "note_on channel=3 note=75 velocity=0 time=55\n",
      "note_on channel=3 note=64 velocity=59 time=4\n",
      "note_on channel=3 note=76 velocity=70 time=3\n",
      "control_change channel=3 control=64 value=0 time=2\n",
      "control_change channel=3 control=64 value=127 time=54\n",
      "note_on channel=3 note=64 velocity=0 time=62\n",
      "control_change channel=3 control=64 value=0 time=119\n",
      "note_on channel=3 note=76 velocity=0 time=22\n",
      "note_on channel=3 note=78 velocity=80 time=5\n",
      "note_on channel=3 note=66 velocity=76 time=1\n",
      "control_change channel=3 control=64 value=127 time=19\n",
      "note_on channel=3 note=66 velocity=0 time=39\n",
      "note_on channel=3 note=33 velocity=0 time=12\n",
      "note_on channel=3 note=45 velocity=0 time=1\n",
      "note_on channel=3 note=78 velocity=0 time=5\n",
      "note_on channel=3 note=68 velocity=62 time=73\n",
      "note_on channel=3 note=80 velocity=76 time=1\n",
      "note_on channel=3 note=47 velocity=57 time=2\n",
      "note_on channel=3 note=35 velocity=51 time=1\n",
      "control_change channel=3 control=64 value=0 time=3\n",
      "control_change channel=3 control=64 value=127 time=48\n",
      "note_on channel=3 note=68 velocity=0 time=104\n",
      "note_on channel=3 note=80 velocity=0 time=5\n",
      "note_on channel=3 note=78 velocity=57 time=92\n",
      "control_change channel=3 control=64 value=0 time=3\n",
      "note_on channel=3 note=66 velocity=45 time=1\n",
      "control_change channel=3 control=64 value=127 time=50\n",
      "note_on channel=3 note=66 velocity=0 time=53\n",
      "note_on channel=3 note=47 velocity=0 time=5\n",
      "note_on channel=3 note=78 velocity=0 time=5\n",
      "note_on channel=3 note=35 velocity=0 time=9\n",
      "note_on channel=3 note=40 velocity=44 time=169\n",
      "note_on channel=3 note=28 velocity=45 time=0\n",
      "note_on channel=3 note=76 velocity=40 time=1\n",
      "note_on channel=3 note=71 velocity=48 time=4\n",
      "control_change channel=3 control=64 value=0 time=0\n",
      "note_on channel=3 note=64 velocity=38 time=0\n",
      "control_change channel=3 control=64 value=127 time=206\n",
      "note_on channel=3 note=28 velocity=0 time=402\n",
      "note_on channel=3 note=40 velocity=0 time=27\n",
      "control_change channel=3 control=91 value=0 time=195\n",
      "control_change channel=3 control=91 value=3 time=5\n",
      "control_change channel=3 control=91 value=55 time=50\n",
      "control_change channel=3 control=91 value=58 time=5\n",
      "control_change channel=3 control=91 value=59 time=77\n",
      "control_change channel=3 control=91 value=63 time=23\n",
      "note_on channel=3 note=64 velocity=0 time=39\n",
      "note_on channel=3 note=64 velocity=54 time=110\n",
      "note_on channel=3 note=40 velocity=55 time=2\n",
      "note_on channel=3 note=52 velocity=59 time=0\n",
      "control_change channel=3 control=64 value=0 time=7\n",
      "control_change channel=3 control=7 value=87 time=114\n",
      "control_change channel=3 control=7 value=85 time=38\n",
      "control_change channel=3 control=7 value=84 time=45\n",
      "control_change channel=3 control=7 value=83 time=50\n",
      "control_change channel=3 control=7 value=82 time=47\n",
      "control_change channel=3 control=64 value=127 time=66\n",
      "note_on channel=3 note=76 velocity=0 time=89\n",
      "note_on channel=3 note=71 velocity=0 time=0\n",
      "note_on channel=3 note=40 velocity=0 time=12\n",
      "note_on channel=3 note=52 velocity=0 time=8\n",
      "note_on channel=3 note=64 velocity=0 time=63\n",
      "control_change channel=3 control=7 value=84 time=40\n",
      "note_on channel=3 note=63 velocity=68 time=13\n",
      "note_on channel=3 note=42 velocity=41 time=0\n",
      "note_on channel=3 note=54 velocity=44 time=5\n",
      "control_change channel=3 control=64 value=0 time=3\n",
      "control_change channel=3 control=7 value=85 time=10\n",
      "note_on channel=3 note=63 velocity=0 time=112\n",
      "note_on channel=3 note=64 velocity=76 time=2\n",
      "note_on channel=3 note=64 velocity=0 time=261\n",
      "note_on channel=3 note=64 velocity=76 time=26\n",
      "control_change channel=3 control=64 value=127 time=4\n",
      "note_on channel=3 note=54 velocity=0 time=112\n",
      "note_on channel=3 note=42 velocity=0 time=32\n",
      "note_on channel=3 note=52 velocity=50 time=10\n",
      "note_on channel=3 note=63 velocity=80 time=3\n",
      "note_on channel=3 note=40 velocity=42 time=1\n",
      "note_on channel=3 note=64 velocity=0 time=5\n",
      "control_change channel=3 control=64 value=0 time=5\n",
      "control_change channel=3 control=7 value=84 time=15\n",
      "control_change channel=3 control=7 value=83 time=56\n",
      "control_change channel=3 control=7 value=82 time=10\n",
      "control_change channel=3 control=7 value=81 time=10\n",
      "note_on channel=3 note=64 velocity=84 time=35\n",
      "note_on channel=3 note=63 velocity=0 time=1\n",
      "note_on channel=3 note=66 velocity=68 time=283\n",
      "note_on channel=3 note=64 velocity=0 time=1\n",
      "control_change channel=3 control=7 value=80 time=23\n",
      "control_change channel=3 control=7 value=78 time=5\n",
      "note_on channel=3 note=66 velocity=0 time=109\n",
      "note_on channel=3 note=68 velocity=76 time=3\n",
      "control_change channel=3 control=7 value=79 time=5\n",
      "control_change channel=3 control=7 value=80 time=30\n",
      "control_change channel=3 control=7 value=82 time=16\n",
      "control_change channel=3 control=7 value=78 time=184\n",
      "control_change channel=3 control=7 value=77 time=10\n",
      "control_change channel=3 control=7 value=76 time=10\n",
      "note_on channel=3 note=68 velocity=0 time=24\n",
      "note_on channel=3 note=66 velocity=78 time=7\n",
      "control_change channel=3 control=7 value=77 time=20\n",
      "control_change channel=3 control=7 value=78 time=9\n",
      "control_change channel=3 control=64 value=127 time=0\n",
      "control_change channel=3 control=7 value=79 time=5\n",
      "note_on channel=3 note=52 velocity=0 time=8\n",
      "control_change channel=3 control=7 value=80 time=5\n",
      "note_on channel=3 note=40 velocity=0 time=24\n",
      "note_on channel=3 note=40 velocity=80 time=197\n",
      "note_on channel=3 note=28 velocity=80 time=1\n",
      "note_on channel=3 note=64 velocity=76 time=1\n",
      "note_on channel=3 note=66 velocity=0 time=3\n",
      "control_change channel=3 control=64 value=0 time=7\n",
      "control_change channel=3 control=7 value=78 time=25\n",
      "control_change channel=3 control=7 value=77 time=23\n",
      "control_change channel=3 control=64 value=127 time=263\n",
      "note_on channel=3 note=28 velocity=0 time=91\n",
      "note_on channel=3 note=40 velocity=0 time=25\n",
      "control_change channel=3 control=64 value=0 time=119\n",
      "note_on channel=3 note=30 velocity=64 time=7\n",
      "note_on channel=3 note=42 velocity=59 time=5\n",
      "note_on channel=3 note=63 velocity=96 time=1\n",
      "note_on channel=3 note=64 velocity=0 time=5\n",
      "control_change channel=3 control=7 value=78 time=68\n",
      "control_change channel=3 control=7 value=79 time=6\n",
      "note_on channel=3 note=63 velocity=0 time=48\n",
      "note_on channel=3 note=64 velocity=90 time=0\n",
      "control_change channel=3 control=64 value=127 time=207\n",
      "note_on channel=3 note=30 velocity=0 time=38\n",
      "note_on channel=3 note=42 velocity=0 time=3\n",
      "note_on channel=3 note=45 velocity=58 time=172\n",
      "note_on channel=3 note=64 velocity=0 time=1\n",
      "control_change channel=3 control=64 value=0 time=0\n",
      "note_on channel=3 note=33 velocity=64 time=1\n",
      "note_on channel=3 note=59 velocity=74 time=0\n",
      "control_change channel=3 control=7 value=80 time=51\n",
      "control_change channel=3 control=7 value=84 time=16\n",
      "control_change channel=3 control=64 value=127 time=109\n",
      "note_on channel=3 note=59 velocity=0 time=29\n",
      "control_change channel=3 control=7 value=83 time=125\n",
      "note_on channel=3 note=45 velocity=0 time=3\n",
      "control_change channel=3 control=7 value=82 time=95\n",
      "note_on channel=3 note=33 velocity=0 time=52\n",
      "control_change channel=3 control=7 value=81 time=13\n",
      "control_change channel=3 control=7 value=80 time=82\n",
      "note_on channel=3 note=69 velocity=51 time=18\n",
      "note_on channel=3 note=69 velocity=0 time=53\n",
      "note_on channel=3 note=71 velocity=57 time=6\n",
      "note_on channel=3 note=71 velocity=0 time=44\n",
      "note_on channel=3 note=73 velocity=59 time=12\n",
      "control_change channel=3 control=7 value=78 time=33\n",
      "control_change channel=3 control=7 value=77 time=8\n",
      "note_on channel=3 note=73 velocity=0 time=16\n",
      "note_on channel=3 note=76 velocity=72 time=2\n",
      "note_on channel=3 note=76 velocity=0 time=16\n",
      "control_change channel=3 control=7 value=76 time=98\n",
      "note_on channel=3 note=81 velocity=80 time=33\n",
      "control_change channel=3 control=7 value=75 time=42\n",
      "control_change channel=3 control=7 value=74 time=10\n",
      "note_on channel=3 note=81 velocity=0 time=8\n",
      "control_change channel=3 control=7 value=73 time=5\n",
      "note_on channel=3 note=83 velocity=76 time=7\n",
      "note_on channel=3 note=83 velocity=0 time=75\n",
      "note_on channel=3 note=85 velocity=51 time=2\n",
      "control_change channel=3 control=7 value=71 time=6\n",
      "note_on channel=3 note=85 velocity=0 time=8\n",
      "note_on channel=3 note=40 velocity=58 time=44\n",
      "note_on channel=3 note=28 velocity=61 time=2\n",
      "note_on channel=3 note=83 velocity=84 time=5\n",
      "note_on channel=3 note=76 velocity=58 time=2\n",
      "note_on channel=3 note=88 velocity=72 time=2\n",
      "control_change channel=3 control=64 value=0 time=1\n",
      "aftertouch channel=3 value=1 time=87\n",
      "aftertouch channel=3 value=2 time=5\n",
      "aftertouch channel=3 value=4 time=3\n",
      "aftertouch channel=3 value=6 time=5\n",
      "aftertouch channel=3 value=8 time=3\n",
      "aftertouch channel=3 value=12 time=4\n",
      "aftertouch channel=3 value=18 time=5\n",
      "aftertouch channel=3 value=23 time=5\n",
      "aftertouch channel=3 value=29 time=3\n",
      "aftertouch channel=3 value=34 time=5\n",
      "aftertouch channel=3 value=40 time=4\n",
      "aftertouch channel=3 value=47 time=4\n",
      "control_change channel=3 control=64 value=127 time=137\n",
      "aftertouch channel=3 value=36 time=60\n",
      "aftertouch channel=3 value=6 time=4\n",
      "aftertouch channel=3 value=0 time=4\n",
      "note_on channel=3 note=28 velocity=0 time=38\n",
      "note_on channel=3 note=40 velocity=0 time=15\n",
      "note_on channel=3 note=76 velocity=0 time=6\n",
      "note_on channel=3 note=83 velocity=0 time=2\n",
      "control_change channel=3 control=64 value=0 time=154\n",
      "note_on channel=3 note=88 velocity=0 time=2\n",
      "note_on channel=3 note=75 velocity=55 time=3\n",
      "note_on channel=3 note=42 velocity=46 time=1\n",
      "note_on channel=3 note=87 velocity=58 time=3\n",
      "note_on channel=3 note=30 velocity=46 time=0\n",
      "control_change channel=3 control=64 value=127 time=50\n",
      "note_on channel=3 note=75 velocity=0 time=45\n",
      "note_on channel=3 note=87 velocity=0 time=36\n",
      "note_on channel=3 note=76 velocity=64 time=5\n",
      "note_on channel=3 note=88 velocity=62 time=2\n",
      "control_change channel=3 control=64 value=0 time=14\n",
      "aftertouch channel=3 value=2 time=61\n",
      "aftertouch channel=3 value=11 time=5\n",
      "control_change channel=3 control=64 value=127 time=3\n",
      "aftertouch channel=3 value=31 time=2\n",
      "aftertouch channel=3 value=70 time=4\n",
      "aftertouch channel=3 value=117 time=4\n",
      "aftertouch channel=3 value=127 time=5\n",
      "aftertouch channel=3 value=74 time=7\n",
      "aftertouch channel=3 value=17 time=4\n",
      "aftertouch channel=3 value=1 time=4\n",
      "aftertouch channel=3 value=0 time=4\n",
      "note_on channel=3 note=88 velocity=0 time=4\n",
      "note_on channel=3 note=76 velocity=0 time=12\n",
      "note_on channel=3 note=42 velocity=0 time=188\n",
      "note_on channel=3 note=30 velocity=0 time=10\n",
      "note_on channel=3 note=28 velocity=57 time=84\n",
      "control_change channel=3 control=64 value=0 time=5\n",
      "note_on channel=3 note=40 velocity=59 time=27\n",
      "note_on channel=3 note=75 velocity=78 time=0\n",
      "note_on channel=3 note=63 velocity=80 time=0\n",
      "control_change channel=3 control=64 value=127 time=18\n",
      "note_on channel=3 note=63 velocity=0 time=54\n",
      "note_on channel=3 note=75 velocity=0 time=36\n",
      "note_on channel=3 note=64 velocity=76 time=6\n",
      "note_on channel=3 note=76 velocity=78 time=1\n",
      "control_change channel=3 control=64 value=0 time=18\n",
      "aftertouch channel=3 value=3 time=62\n",
      "aftertouch channel=3 value=9 time=4\n",
      "aftertouch channel=3 value=14 time=4\n",
      "control_change channel=3 control=64 value=127 time=1\n",
      "aftertouch channel=3 value=17 time=4\n",
      "aftertouch channel=3 value=11 time=8\n",
      "aftertouch channel=3 value=4 time=4\n",
      "aftertouch channel=3 value=0 time=5\n",
      "note_on channel=3 note=64 velocity=0 time=41\n",
      "note_on channel=3 note=76 velocity=0 time=98\n",
      "note_on channel=3 note=78 velocity=76 time=19\n",
      "note_on channel=3 note=66 velocity=70 time=0\n",
      "note_on channel=3 note=66 velocity=0 time=74\n",
      "note_on channel=3 note=40 velocity=0 time=22\n",
      "note_on channel=3 note=78 velocity=0 time=14\n",
      "control_change channel=3 control=64 value=0 time=22\n",
      "note_on channel=3 note=80 velocity=87 time=4\n",
      "note_on channel=3 note=68 velocity=76 time=2\n",
      "note_on channel=3 note=40 velocity=74 time=1\n",
      "control_change channel=3 control=64 value=127 time=50\n",
      "note_on channel=3 note=68 velocity=0 time=100\n",
      "note_on channel=3 note=80 velocity=0 time=1\n",
      "control_change channel=3 control=64 value=0 time=112\n",
      "note_on channel=3 note=78 velocity=87 time=14\n",
      "note_on channel=3 note=66 velocity=78 time=1\n",
      "control_change channel=3 control=64 value=127 time=35\n",
      "note_on channel=3 note=28 velocity=0 time=48\n",
      "note_on channel=3 note=66 velocity=0 time=5\n",
      "note_on channel=3 note=78 velocity=0 time=1\n",
      "note_on channel=3 note=40 velocity=0 time=16\n",
      "control_change channel=3 control=64 value=0 time=163\n",
      "note_on channel=3 note=52 velocity=87 time=4\n",
      "note_on channel=3 note=40 velocity=82 time=1\n",
      "note_on channel=3 note=76 velocity=82 time=0\n",
      "note_on channel=3 note=64 velocity=90 time=2\n",
      "note_on channel=3 note=71 velocity=84 time=2\n",
      "control_change channel=3 control=64 value=127 time=42\n",
      "control_change channel=3 control=64 value=0 time=181\n",
      "note_on channel=3 note=52 velocity=0 time=23\n",
      "control_change channel=3 control=64 value=127 time=24\n",
      "note_on channel=3 note=52 velocity=74 time=2\n",
      "note_on channel=3 note=64 velocity=0 time=129\n",
      "note_on channel=3 note=76 velocity=0 time=13\n",
      "note_on channel=3 note=52 velocity=0 time=34\n",
      "note_on channel=3 note=71 velocity=0 time=33\n",
      "control_change channel=3 control=64 value=0 time=54\n",
      "note_on channel=3 note=75 velocity=87 time=16\n",
      "note_on channel=3 note=63 velocity=84 time=0\n",
      "control_change channel=3 control=64 value=127 time=32\n",
      "note_on channel=3 note=63 velocity=0 time=60\n",
      "note_on channel=3 note=75 velocity=0 time=6\n",
      "note_on channel=3 note=64 velocity=44 time=40\n",
      "note_on channel=3 note=76 velocity=78 time=2\n",
      "control_change channel=3 control=64 value=0 time=11\n",
      "control_change channel=3 control=64 value=127 time=84\n",
      "note_on channel=3 note=76 velocity=0 time=113\n",
      "note_on channel=3 note=64 velocity=0 time=0\n",
      "control_change channel=3 control=64 value=0 time=19\n",
      "note_on channel=3 note=76 velocity=48 time=21\n",
      "note_on channel=3 note=64 velocity=55 time=0\n",
      "control_change channel=3 control=64 value=127 time=15\n",
      "note_on channel=3 note=76 velocity=0 time=30\n",
      "note_on channel=3 note=64 velocity=0 time=9\n",
      "note_on channel=3 note=40 velocity=0 time=26\n",
      "note_on channel=3 note=59 velocity=41 time=97\n",
      "note_on channel=3 note=45 velocity=52 time=0\n",
      "note_on channel=3 note=33 velocity=50 time=3\n",
      "note_on channel=3 note=71 velocity=54 time=1\n",
      "control_change channel=3 control=64 value=0 time=30\n",
      "control_change channel=3 control=64 value=127 time=229\n",
      "note_on channel=3 note=59 velocity=0 time=111\n",
      "note_on channel=3 note=45 velocity=0 time=16\n",
      "note_on channel=3 note=33 velocity=0 time=21\n",
      "note_on channel=3 note=71 velocity=0 time=4\n",
      "note_on channel=3 note=73 velocity=90 time=140\n",
      "note_on channel=3 note=61 velocity=84 time=1\n",
      "control_change channel=3 control=64 value=0 time=26\n",
      "note_on channel=3 note=44 velocity=68 time=34\n",
      "note_on channel=3 note=32 velocity=72 time=1\n",
      "control_change channel=3 control=64 value=127 time=45\n",
      "note_on channel=3 note=61 velocity=0 time=56\n",
      "note_on channel=3 note=73 velocity=0 time=28\n",
      "control_change channel=3 control=64 value=0 time=63\n",
      "note_on channel=3 note=63 velocity=93 time=11\n",
      "note_on channel=3 note=75 velocity=99 time=0\n",
      "control_change channel=3 control=7 value=72 time=5\n",
      "control_change channel=3 control=64 value=127 time=36\n",
      "control_change channel=3 control=7 value=73 time=50\n",
      "note_on channel=3 note=32 velocity=0 time=49\n",
      "note_on channel=3 note=44 velocity=0 time=4\n",
      "note_on channel=3 note=63 velocity=0 time=32\n",
      "note_on channel=3 note=75 velocity=0 time=27\n",
      "control_change channel=3 control=64 value=0 time=56\n",
      "note_on channel=3 note=76 velocity=93 time=8\n",
      "note_on channel=3 note=73 velocity=90 time=0\n",
      "note_on channel=3 note=49 velocity=90 time=1\n",
      "note_on channel=3 note=37 velocity=78 time=0\n",
      "control_change channel=3 control=7 value=75 time=30\n",
      "control_change channel=3 control=7 value=77 time=12\n",
      "aftertouch channel=3 value=3 time=82\n",
      "aftertouch channel=3 value=9 time=4\n",
      "aftertouch channel=3 value=18 time=4\n",
      "aftertouch channel=3 value=28 time=4\n",
      "aftertouch channel=3 value=36 time=4\n",
      "aftertouch channel=3 value=47 time=4\n",
      "aftertouch channel=3 value=55 time=5\n",
      "aftertouch channel=3 value=64 time=8\n",
      "control_change channel=3 control=7 value=78 time=35\n",
      "control_change channel=3 control=64 value=127 time=81\n",
      "aftertouch channel=3 value=47 time=9\n",
      "aftertouch channel=3 value=28 time=5\n",
      "aftertouch channel=3 value=12 time=5\n",
      "aftertouch channel=3 value=3 time=4\n",
      "aftertouch channel=3 value=0 time=4\n",
      "control_change channel=3 control=7 value=79 time=5\n",
      "note_on channel=3 note=73 velocity=0 time=69\n",
      "note_on channel=3 note=76 velocity=0 time=4\n",
      "note_on channel=3 note=49 velocity=0 time=17\n",
      "note_on channel=3 note=37 velocity=0 time=64\n",
      "control_change channel=3 control=64 value=0 time=80\n",
      "aftertouch channel=3 value=4 time=18\n",
      "note_on channel=3 note=35 velocity=84 time=2\n",
      "note_on channel=3 note=75 velocity=96 time=0\n",
      "note_on channel=3 note=78 velocity=93 time=0\n",
      "note_on channel=3 note=47 velocity=93 time=0\n",
      "aftertouch channel=3 value=14 time=4\n",
      "aftertouch channel=3 value=7 time=3\n",
      "aftertouch channel=3 value=1 time=4\n",
      "aftertouch channel=3 value=0 time=5\n",
      "aftertouch channel=3 value=1 time=20\n",
      "aftertouch channel=3 value=2 time=5\n",
      "control_change channel=3 control=7 value=80 time=4\n",
      "aftertouch channel=3 value=4 time=0\n",
      "aftertouch channel=3 value=8 time=4\n",
      "aftertouch channel=3 value=12 time=4\n",
      "aftertouch channel=3 value=18 time=5\n",
      "aftertouch channel=3 value=23 time=3\n",
      "aftertouch channel=3 value=29 time=4\n",
      "aftertouch channel=3 value=34 time=5\n",
      "aftertouch channel=3 value=40 time=4\n",
      "aftertouch channel=3 value=47 time=4\n",
      "aftertouch channel=3 value=49 time=4\n",
      "aftertouch channel=3 value=58 time=4\n",
      "control_change channel=3 control=7 value=82 time=10\n",
      "control_change channel=3 control=64 value=127 time=8\n",
      "note_on channel=3 note=47 velocity=0 time=97\n",
      "note_on channel=3 note=47 velocity=96 time=59\n",
      "aftertouch channel=3 value=42 time=0\n",
      "control_change channel=3 control=64 value=127 time=4\n",
      "aftertouch channel=3 value=11 time=5\n",
      "aftertouch channel=3 value=2 time=6\n",
      "aftertouch channel=3 value=0 time=3\n",
      "note_on channel=3 note=78 velocity=0 time=26\n",
      "note_on channel=3 note=75 velocity=0 time=5\n",
      "note_on channel=3 note=71 velocity=96 time=76\n",
      "note_on channel=3 note=47 velocity=0 time=9\n",
      "aftertouch channel=3 value=21 time=9\n",
      "aftertouch channel=3 value=26 time=4\n",
      "aftertouch channel=3 value=18 time=4\n",
      "note_on channel=3 note=35 velocity=0 time=4\n",
      "aftertouch channel=3 value=12 time=0\n",
      "aftertouch channel=3 value=6 time=5\n",
      "aftertouch channel=3 value=3 time=3\n",
      "aftertouch channel=3 value=0 time=5\n",
      "note_on channel=3 note=71 velocity=0 time=65\n",
      "control_change channel=3 control=64 value=0 time=21\n",
      "note_on channel=3 note=71 velocity=108 time=11\n",
      "note_on channel=3 note=83 velocity=102 time=1\n",
      "note_on channel=3 note=45 velocity=96 time=2\n",
      "note_on channel=3 note=33 velocity=87 time=2\n",
      "aftertouch channel=3 value=15 time=5\n",
      "aftertouch channel=3 value=96 time=5\n",
      "aftertouch channel=3 value=112 time=3\n",
      "aftertouch channel=3 value=1 time=5\n",
      "aftertouch channel=3 value=0 time=3\n",
      "control_change channel=3 control=64 value=127 time=54\n",
      "control_change channel=3 control=7 value=81 time=15\n",
      "control_change channel=3 control=7 value=80 time=10\n",
      "note_on channel=3 note=83 velocity=0 time=56\n",
      "note_on channel=3 note=71 velocity=0 time=8\n",
      "control_change channel=3 control=64 value=0 time=69\n",
      "note_on channel=3 note=69 velocity=96 time=11\n",
      "note_on channel=3 note=81 velocity=99 time=1\n",
      "control_change channel=3 control=64 value=127 time=36\n",
      "control_change channel=3 control=7 value=78 time=5\n",
      "note_on channel=3 note=69 velocity=0 time=18\n",
      "control_change channel=3 control=64 value=0 time=93\n",
      "note_on channel=3 note=81 velocity=0 time=8\n",
      "note_on channel=3 note=80 velocity=84 time=25\n",
      "note_on channel=3 note=68 velocity=87 time=0\n",
      "control_change channel=3 control=64 value=127 time=13\n",
      "note_on channel=3 note=68 velocity=0 time=15\n",
      "note_on channel=3 note=33 velocity=0 time=7\n",
      "note_on channel=3 note=80 velocity=0 time=5\n",
      "note_on channel=3 note=45 velocity=0 time=0\n",
      "note_on channel=3 note=78 velocity=90 time=27\n",
      "note_on channel=3 note=66 velocity=82 time=0\n",
      "note_on channel=3 note=47 velocity=87 time=1\n",
      "note_on channel=3 note=35 velocity=82 time=3\n",
      "control_change channel=3 control=64 value=0 time=3\n",
      "control_change channel=3 control=7 value=77 time=82\n",
      "control_change channel=3 control=7 value=76 time=18\n",
      "control_change channel=3 control=64 value=127 time=31\n",
      "note_on channel=3 note=66 velocity=0 time=66\n",
      "note_on channel=3 note=78 velocity=0 time=10\n",
      "control_change channel=3 control=64 value=0 time=38\n",
      "note_on channel=3 note=80 velocity=64 time=9\n",
      "note_on channel=3 note=68 velocity=76 time=2\n",
      "control_change channel=3 control=7 value=77 time=41\n",
      "control_change channel=3 control=64 value=127 time=0\n",
      "note_on channel=3 note=68 velocity=0 time=79\n",
      "note_on channel=3 note=80 velocity=0 time=18\n",
      "note_on channel=3 note=69 velocity=80 time=13\n",
      "note_on channel=3 note=81 velocity=84 time=0\n",
      "note_on channel=3 note=35 velocity=0 time=32\n",
      "note_on channel=3 note=47 velocity=0 time=2\n",
      "note_on channel=3 note=69 velocity=0 time=10\n",
      "note_on channel=3 note=81 velocity=0 time=58\n",
      "control_change channel=3 control=64 value=0 time=2\n",
      "note_on channel=3 note=80 velocity=78 time=1\n",
      "control_change channel=3 control=7 value=76 time=2\n",
      "note_on channel=3 note=68 velocity=76 time=0\n",
      "note_on channel=3 note=37 velocity=61 time=0\n",
      "note_on channel=3 note=49 velocity=66 time=4\n",
      "control_change channel=3 control=7 value=75 time=20\n",
      "control_change channel=3 control=64 value=127 time=71\n",
      "note_on channel=3 note=68 velocity=0 time=65\n",
      "note_on channel=3 note=80 velocity=0 time=6\n",
      "control_change channel=3 control=64 value=0 time=95\n",
      "note_on channel=3 note=66 velocity=62 time=4\n",
      "note_on channel=3 note=78 velocity=80 time=1\n",
      "control_change channel=3 control=64 value=127 time=41\n",
      "note_on channel=3 note=66 velocity=0 time=46\n",
      "note_on channel=3 note=78 velocity=0 time=8\n",
      "control_change channel=3 control=64 value=0 time=20\n",
      "note_on channel=3 note=64 velocity=70 time=29\n",
      "note_on channel=3 note=76 velocity=78 time=2\n",
      "control_change channel=3 control=64 value=127 time=4\n",
      "note_on channel=3 note=49 velocity=0 time=36\n",
      "note_on channel=3 note=64 velocity=0 time=11\n",
      "note_on channel=3 note=37 velocity=0 time=59\n",
      "note_on channel=3 note=76 velocity=0 time=16\n",
      "control_change channel=3 control=64 value=0 time=0\n",
      "note_on channel=3 note=75 velocity=64 time=6\n",
      "note_on channel=3 note=63 velocity=72 time=1\n",
      "note_on channel=3 note=35 velocity=54 time=8\n",
      "note_on channel=3 note=47 velocity=43 time=2\n",
      "control_change channel=3 control=64 value=127 time=32\n",
      "note_on channel=3 note=63 velocity=0 time=56\n",
      "note_on channel=3 note=75 velocity=0 time=29\n",
      "control_change channel=3 control=64 value=0 time=3\n",
      "note_on channel=3 note=76 velocity=61 time=6\n",
      "note_on channel=3 note=64 velocity=59 time=2\n",
      "control_change channel=3 control=64 value=127 time=131\n",
      "note_on channel=3 note=64 velocity=0 time=25\n",
      "control_change channel=3 control=64 value=0 time=68\n",
      "note_on channel=3 note=76 velocity=0 time=29\n",
      "note_on channel=3 note=75 velocity=70 time=17\n",
      "note_on channel=3 note=63 velocity=62 time=4\n",
      "control_change channel=3 control=64 value=127 time=1\n",
      "note_on channel=3 note=75 velocity=0 time=52\n",
      "note_on channel=3 note=63 velocity=0 time=6\n",
      "note_on channel=3 note=35 velocity=0 time=20\n",
      "note_on channel=3 note=47 velocity=0 time=2\n",
      "note_on channel=3 note=33 velocity=52 time=64\n",
      "note_on channel=3 note=45 velocity=49 time=5\n",
      "control_change channel=3 control=64 value=0 time=1\n",
      "note_on channel=3 note=73 velocity=45 time=119\n",
      "control_change channel=3 control=7 value=74 time=3\n",
      "note_on channel=3 note=61 velocity=31 time=0\n",
      "control_change channel=3 control=64 value=127 time=198\n",
      "control_change channel=3 control=7 value=75 time=35\n",
      "note_on channel=3 note=61 velocity=0 time=39\n",
      "note_on channel=3 note=45 velocity=0 time=1\n",
      "note_on channel=3 note=73 velocity=0 time=9\n",
      "note_on channel=3 note=33 velocity=0 time=15\n",
      "control_change channel=3 control=7 value=77 time=69\n",
      "control_change channel=3 control=7 value=78 time=5\n",
      "note_on channel=3 note=32 velocity=51 time=21\n",
      "control_change channel=3 control=64 value=0 time=1\n",
      "note_on channel=3 note=71 velocity=90 time=0\n",
      "note_on channel=3 note=59 velocity=82 time=2\n",
      "note_on channel=3 note=44 velocity=76 time=0\n",
      "control_change channel=3 control=64 value=127 time=49\n",
      "control_change channel=3 control=7 value=79 time=18\n",
      "control_change channel=3 control=7 value=80 time=5\n",
      "note_on channel=3 note=59 velocity=0 time=42\n",
      "note_on channel=3 note=44 velocity=0 time=31\n",
      "note_on channel=3 note=32 velocity=0 time=16\n",
      "control_change channel=3 control=7 value=78 time=58\n",
      "control_change channel=3 control=7 value=77 time=22\n",
      "note_on channel=3 note=71 velocity=0 time=16\n",
      "control_change channel=3 control=64 value=0 time=13\n",
      "note_on channel=3 note=30 velocity=76 time=14\n",
      "note_on channel=3 note=42 velocity=80 time=1\n",
      "note_on channel=3 note=69 velocity=84 time=1\n",
      "note_on channel=3 note=57 velocity=102 time=1\n",
      "control_change channel=3 control=64 value=127 time=31\n",
      "control_change channel=3 control=7 value=78 time=12\n",
      "note_on channel=3 note=57 velocity=0 time=14\n",
      "control_change channel=3 control=7 value=79 time=26\n",
      "note_on channel=3 note=69 velocity=0 time=3\n",
      "note_on channel=3 note=30 velocity=0 time=9\n",
      "note_on channel=3 note=42 velocity=0 time=4\n",
      "control_change channel=3 control=7 value=78 time=104\n",
      "control_change channel=3 control=7 value=77 time=25\n",
      "control_change channel=3 control=64 value=0 time=32\n",
      "note_on channel=3 note=37 velocity=49 time=18\n",
      "note_on channel=3 note=49 velocity=90 time=2\n",
      "note_on channel=3 note=73 velocity=87 time=1\n",
      "note_on channel=3 note=76 velocity=87 time=2\n",
      "control_change channel=3 control=64 value=127 time=42\n",
      "control_change channel=3 control=7 value=78 time=86\n",
      "control_change channel=3 control=7 value=79 time=50\n",
      "control_change channel=3 control=64 value=0 time=55\n",
      "control_change channel=3 control=7 value=80 time=14\n",
      "note_on channel=3 note=64 velocity=102 time=20\n",
      "aftertouch channel=3 value=6 time=21\n",
      "control_change channel=3 control=64 value=127 time=3\n",
      "aftertouch channel=3 value=0 time=1\n",
      "note_on channel=3 note=64 velocity=0 time=51\n",
      "control_change channel=3 control=7 value=82 time=0\n",
      "note_on channel=3 note=49 velocity=0 time=23\n",
      "note_on channel=3 note=73 velocity=0 time=4\n",
      "note_on channel=3 note=76 velocity=0 time=15\n",
      "note_on channel=3 note=49 velocity=80 time=22\n",
      "note_on channel=3 note=49 velocity=0 time=28\n",
      "note_on channel=3 note=37 velocity=0 time=14\n",
      "control_change channel=3 control=64 value=0 time=74\n",
      "note_on channel=3 note=47 velocity=93 time=12\n",
      "note_on channel=3 note=75 velocity=102 time=0\n",
      "note_on channel=3 note=35 velocity=90 time=0\n",
      "note_on channel=3 note=78 velocity=96 time=1\n",
      "aftertouch channel=3 value=5 time=17\n",
      "aftertouch channel=3 value=0 time=4\n",
      "control_change channel=3 control=7 value=81 time=5\n",
      "control_change channel=3 control=7 value=78 time=20\n",
      "control_change channel=3 control=7 value=77 time=3\n",
      "aftertouch channel=3 value=1 time=17\n",
      "aftertouch channel=3 value=3 time=5\n",
      "control_change channel=3 control=64 value=127 time=1\n",
      "aftertouch channel=3 value=6 time=4\n",
      "aftertouch channel=3 value=8 time=4\n",
      "aftertouch channel=3 value=13 time=4\n",
      "aftertouch channel=3 value=18 time=4\n",
      "aftertouch channel=3 value=24 time=4\n",
      "aftertouch channel=3 value=29 time=4\n",
      "aftertouch channel=3 value=34 time=5\n",
      "aftertouch channel=3 value=36 time=8\n",
      "aftertouch channel=3 value=40 time=8\n",
      "aftertouch channel=3 value=45 time=4\n",
      "aftertouch channel=3 value=49 time=5\n",
      "aftertouch channel=3 value=55 time=3\n",
      "aftertouch channel=3 value=64 time=5\n",
      "aftertouch channel=3 value=70 time=4\n",
      "note_on channel=3 note=47 velocity=0 time=22\n",
      "control_change channel=3 control=7 value=78 time=5\n",
      "control_change channel=3 control=7 value=79 time=22\n",
      "control_change channel=3 control=64 value=0 time=41\n",
      "note_on channel=3 note=47 velocity=99 time=38\n",
      "control_change channel=3 control=64 value=127 time=10\n",
      "aftertouch channel=3 value=92 time=8\n",
      "aftertouch channel=3 value=31 time=4\n",
      "aftertouch channel=3 value=8 time=5\n",
      "aftertouch channel=3 value=0 time=4\n",
      "control_change channel=3 control=7 value=80 time=28\n",
      "note_on channel=3 note=78 velocity=0 time=25\n",
      "note_on channel=3 note=75 velocity=0 time=34\n",
      "note_on channel=3 note=47 velocity=0 time=7\n",
      "note_on channel=3 note=83 velocity=90 time=7\n",
      "note_on channel=3 note=71 velocity=99 time=3\n",
      "note_on channel=3 note=35 velocity=0 time=6\n",
      "aftertouch channel=3 value=13 time=10\n",
      "aftertouch channel=3 value=1 time=4\n",
      "aftertouch channel=3 value=0 time=5\n",
      "aftertouch channel=3 value=8 time=4\n",
      "aftertouch channel=3 value=23 time=4\n",
      "aftertouch channel=3 value=40 time=3\n",
      "aftertouch channel=3 value=55 time=5\n",
      "aftertouch channel=3 value=67 time=4\n",
      "aftertouch channel=3 value=77 time=4\n",
      "aftertouch channel=3 value=64 time=13\n",
      "aftertouch channel=3 value=47 time=4\n",
      "aftertouch channel=3 value=24 time=5\n",
      "aftertouch channel=3 value=1 time=5\n",
      "aftertouch channel=3 value=0 time=5\n",
      "note_on channel=3 note=71 velocity=0 time=37\n",
      "note_on channel=3 note=83 velocity=0 time=9\n",
      "control_change channel=3 control=64 value=0 time=9\n",
      "note_on channel=3 note=45 velocity=105 time=1\n",
      "note_on channel=3 note=71 velocity=99 time=1\n",
      "note_on channel=3 note=83 velocity=102 time=1\n",
      "note_on channel=3 note=33 velocity=96 time=0\n",
      "control_change channel=3 control=7 value=78 time=49\n",
      "control_change channel=3 control=64 value=127 time=18\n",
      "control_change channel=3 control=7 value=77 time=25\n",
      "aftertouch channel=3 value=64 time=44\n",
      "aftertouch channel=3 value=18 time=4\n",
      "aftertouch channel=3 value=0 time=4\n",
      "note_on channel=3 note=83 velocity=0 time=26\n",
      "control_change channel=3 control=64 value=0 time=84\n",
      "note_on channel=3 note=81 velocity=90 time=10\n",
      "aftertouch channel=3 value=47 time=13\n",
      "aftertouch channel=3 value=67 time=4\n",
      "aftertouch channel=3 value=31 time=5\n",
      "aftertouch channel=3 value=28 time=3\n",
      "aftertouch channel=3 value=13 time=13\n",
      "aftertouch channel=3 value=5 time=4\n",
      "aftertouch channel=3 value=2 time=4\n",
      "aftertouch channel=3 value=0 time=4\n",
      "note_on channel=3 note=81 velocity=0 time=75\n",
      "note_on channel=3 note=80 velocity=93 time=12\n",
      "note_on channel=3 note=71 velocity=0 time=15\n",
      "control_change channel=3 control=64 value=127 time=22\n",
      "note_on channel=3 note=45 velocity=0 time=46\n",
      "note_on channel=3 note=33 velocity=0 time=3\n",
      "note_on channel=3 note=80 velocity=0 time=33\n",
      "note_on channel=3 note=47 velocity=80 time=9\n",
      "note_on channel=3 note=78 velocity=99 time=1\n",
      "note_on channel=3 note=35 velocity=80 time=2\n",
      "control_change channel=3 control=64 value=0 time=0\n",
      "note_on channel=3 note=78 velocity=0 time=262\n",
      "note_on channel=3 note=80 velocity=96 time=3\n",
      "control_change channel=3 control=64 value=127 time=132\n",
      "control_change channel=3 control=7 value=76 time=25\n",
      "note_on channel=3 note=80 velocity=0 time=10\n",
      "note_on channel=3 note=81 velocity=102 time=5\n",
      "aftertouch channel=3 value=1 time=14\n",
      "note_on channel=3 note=35 velocity=0 time=2\n",
      "aftertouch channel=3 value=77 time=2\n",
      "aftertouch channel=3 value=127 time=5\n",
      "aftertouch channel=3 value=64 time=4\n",
      "note_on channel=3 note=47 velocity=0 time=4\n",
      "aftertouch channel=3 value=12 time=1\n",
      "aftertouch channel=3 value=0 time=3\n",
      "control_change channel=3 control=64 value=0 time=32\n",
      "note_on channel=3 note=81 velocity=0 time=10\n",
      "note_on channel=3 note=80 velocity=102 time=2\n",
      "note_on channel=3 note=49 velocity=87 time=1\n",
      "note_on channel=3 note=37 velocity=74 time=2\n",
      "aftertouch channel=3 value=5 time=15\n",
      "aftertouch channel=3 value=0 time=5\n",
      "note_on channel=3 note=80 velocity=0 time=235\n",
      "note_on channel=3 note=78 velocity=90 time=0\n",
      "note_on channel=3 note=78 velocity=0 time=133\n",
      "note_on channel=3 note=76 velocity=80 time=4\n",
      "control_change channel=3 control=64 value=127 time=38\n",
      "note_on channel=3 note=49 velocity=0 time=3\n",
      "control_change channel=3 control=7 value=75 time=37\n",
      "note_on channel=3 note=37 velocity=0 time=44\n",
      "control_change channel=3 control=64 value=0 time=1\n",
      "note_on channel=3 note=76 velocity=0 time=11\n",
      "note_on channel=3 note=75 velocity=99 time=5\n",
      "note_on channel=3 note=47 velocity=82 time=0\n",
      "control_change channel=3 control=7 value=71 time=1\n",
      "note_on channel=3 note=35 velocity=87 time=0\n",
      "control_change channel=3 control=7 value=70 time=15\n",
      "control_change channel=3 control=7 value=69 time=16\n",
      "control_change channel=3 control=7 value=70 time=64\n",
      "note_on channel=3 note=75 velocity=0 time=19\n",
      "control_change channel=3 control=7 value=71 time=1\n",
      "note_on channel=3 note=76 velocity=84 time=12\n",
      "control_change channel=3 control=7 value=72 time=39\n",
      "control_change channel=3 control=64 value=127 time=113\n",
      "note_on channel=3 note=76 velocity=0 time=33\n",
      "note_on channel=3 note=63 velocity=99 time=87\n",
      "note_on channel=3 note=47 velocity=0 time=64\n",
      "note_on channel=3 note=35 velocity=0 time=1\n",
      "note_on channel=3 note=63 velocity=0 time=34\n",
      "control_change channel=3 control=64 value=0 time=27\n",
      "note_on channel=3 note=63 velocity=93 time=7\n",
      "note_on channel=3 note=45 velocity=90 time=0\n",
      "note_on channel=3 note=33 velocity=84 time=1\n",
      "control_change channel=3 control=64 value=127 time=50\n",
      "note_on channel=3 note=63 velocity=0 time=73\n",
      "control_change channel=3 control=64 value=0 time=14\n",
      "note_on channel=3 note=64 velocity=99 time=0\n",
      "control_change channel=3 control=64 value=127 time=158\n",
      "note_on channel=3 note=64 velocity=0 time=121\n",
      "note_on channel=3 note=66 velocity=82 time=1\n",
      "note_on channel=3 note=45 velocity=0 time=34\n",
      "note_on channel=3 note=33 velocity=0 time=4\n",
      "control_change channel=3 control=64 value=0 time=33\n",
      "control_change channel=3 control=7 value=71 time=25\n",
      "note_on channel=3 note=66 velocity=0 time=35\n",
      "note_on channel=3 note=68 velocity=82 time=3\n",
      "note_on channel=3 note=45 velocity=74 time=0\n",
      "note_on channel=3 note=33 velocity=72 time=1\n",
      "control_change channel=3 control=7 value=70 time=18\n",
      "control_change channel=3 control=64 value=127 time=19\n",
      "control_change channel=3 control=7 value=69 time=24\n",
      "note_on channel=3 note=33 velocity=0 time=3\n",
      "note_on channel=3 note=45 velocity=0 time=8\n",
      "control_change channel=3 control=7 value=70 time=196\n",
      "note_on channel=3 note=68 velocity=0 time=258\n",
      "note_on channel=3 note=66 velocity=99 time=2\n",
      "control_change channel=3 control=64 value=0 time=88\n",
      "control_change channel=3 control=64 value=127 time=12\n",
      "control_change channel=3 control=64 value=0 time=159\n",
      "note_on channel=3 note=64 velocity=45 time=206\n",
      "note_on channel=3 note=66 velocity=0 time=1\n",
      "note_on channel=3 note=49 velocity=40 time=2\n",
      "note_on channel=3 note=37 velocity=40 time=0\n",
      "note_on channel=3 note=76 velocity=58 time=316\n",
      "control_change channel=3 control=64 value=127 time=51\n",
      "note_on channel=3 note=49 velocity=0 time=91\n",
      "note_on channel=3 note=37 velocity=0 time=22\n",
      "control_change channel=3 control=64 value=0 time=93\n",
      "note_on channel=3 note=35 velocity=72 time=4\n",
      "note_on channel=3 note=47 velocity=59 time=1\n",
      "note_on channel=3 note=71 velocity=64 time=5\n",
      "control_change channel=3 control=64 value=127 time=54\n",
      "control_change channel=3 control=7 value=71 time=30\n",
      "control_change channel=3 control=7 value=72 time=20\n",
      "note_on channel=3 note=76 velocity=0 time=102\n",
      "note_on channel=3 note=71 velocity=0 time=1\n",
      "note_on channel=3 note=76 velocity=90 time=55\n",
      "note_on channel=3 note=64 velocity=0 time=11\n",
      "note_on channel=3 note=71 velocity=84 time=71\n",
      "note_on channel=3 note=76 velocity=0 time=15\n",
      "note_on channel=3 note=35 velocity=0 time=0\n",
      "note_on channel=3 note=47 velocity=0 time=4\n",
      "note_on channel=3 note=64 velocity=78 time=69\n",
      "note_on channel=3 note=71 velocity=0 time=1\n",
      "control_change channel=3 control=7 value=71 time=16\n",
      "control_change channel=3 control=64 value=0 time=68\n",
      "note_on channel=3 note=71 velocity=61 time=17\n",
      "note_on channel=3 note=76 velocity=80 time=0\n",
      "note_on channel=3 note=33 velocity=61 time=0\n",
      "note_on channel=3 note=45 velocity=58 time=0\n",
      "control_change channel=3 control=7 value=70 time=13\n",
      "control_change channel=3 control=64 value=127 time=80\n",
      "note_on channel=3 note=64 velocity=0 time=21\n",
      "note_on channel=3 note=71 velocity=0 time=17\n",
      "note_on channel=3 note=76 velocity=0 time=9\n",
      "note_on channel=3 note=76 velocity=62 time=119\n",
      "note_on channel=3 note=83 velocity=59 time=64\n",
      "note_on channel=3 note=33 velocity=0 time=61\n",
      "note_on channel=3 note=88 velocity=64 time=4\n",
      "note_on channel=3 note=45 velocity=0 time=5\n",
      "note_on channel=3 note=83 velocity=0 time=1\n",
      "note_on channel=3 note=76 velocity=0 time=0\n",
      "note_on channel=3 note=47 velocity=74 time=122\n",
      "note_on channel=3 note=83 velocity=74 time=0\n",
      "note_on channel=3 note=35 velocity=76 time=0\n",
      "note_on channel=3 note=76 velocity=59 time=2\n",
      "control_change channel=3 control=64 value=0 time=0\n",
      "control_change channel=3 control=64 value=127 time=63\n",
      "note_on channel=3 note=83 velocity=0 time=82\n",
      "note_on channel=3 note=76 velocity=0 time=3\n",
      "note_on channel=3 note=88 velocity=0 time=104\n",
      "control_change channel=3 control=64 value=0 time=5\n",
      "note_on channel=3 note=75 velocity=82 time=5\n",
      "note_on channel=3 note=87 velocity=78 time=1\n",
      "control_change channel=3 control=64 value=127 time=45\n",
      "note_on channel=3 note=35 velocity=0 time=55\n",
      "note_on channel=3 note=75 velocity=0 time=14\n",
      "note_on channel=3 note=47 velocity=0 time=14\n",
      "note_on channel=3 note=87 velocity=0 time=49\n",
      "control_change channel=3 control=64 value=0 time=81\n",
      "note_on channel=3 note=49 velocity=43 time=4\n",
      "note_on channel=3 note=88 velocity=49 time=2\n",
      "note_on channel=3 note=76 velocity=44 time=0\n",
      "control_change channel=3 control=64 value=127 time=111\n",
      "control_change channel=3 control=64 value=0 time=135\n",
      "note_on channel=3 note=78 velocity=62 time=20\n",
      "note_on channel=3 note=76 velocity=0 time=4\n",
      "note_on channel=3 note=88 velocity=0 time=3\n",
      "control_change channel=3 control=7 value=66 time=83\n",
      "note_on channel=3 note=78 velocity=0 time=30\n",
      "note_on channel=3 note=76 velocity=64 time=9\n",
      "control_change channel=3 control=7 value=70 time=43\n",
      "control_change channel=3 control=7 value=71 time=5\n",
      "control_change channel=3 control=7 value=72 time=5\n",
      "control_change channel=3 control=7 value=73 time=5\n",
      "note_on channel=3 note=83 velocity=52 time=73\n",
      "note_on channel=3 note=76 velocity=0 time=3\n",
      "note_on channel=3 note=49 velocity=0 time=4\n",
      "note_on channel=3 note=47 velocity=49 time=0\n",
      "control_change channel=3 control=7 value=71 time=268\n",
      "control_change channel=3 control=7 value=70 time=57\n",
      "control_change channel=3 control=7 value=71 time=77\n",
      "control_change channel=3 control=64 value=127 time=3\n",
      "note_on channel=3 note=83 velocity=0 time=11\n",
      "control_change channel=3 control=7 value=72 time=0\n",
      "note_on channel=3 note=47 velocity=0 time=75\n",
      "control_change channel=3 control=64 value=0 time=47\n",
      "note_on channel=3 note=45 velocity=78 time=4\n",
      "note_on channel=3 note=61 velocity=87 time=0\n",
      "note_on channel=3 note=73 velocity=84 time=0\n",
      "note_on channel=3 note=33 velocity=66 time=3\n",
      "control_change channel=3 control=7 value=73 time=8\n",
      "control_change channel=3 control=7 value=75 time=5\n",
      "control_change channel=3 control=64 value=127 time=50\n",
      "control_change channel=3 control=7 value=74 time=39\n",
      "control_change channel=3 control=7 value=73 time=38\n",
      "control_change channel=3 control=7 value=71 time=15\n",
      "note_on channel=3 note=61 velocity=0 time=13\n",
      "control_change channel=3 control=7 value=70 time=10\n",
      "note_on channel=3 note=73 velocity=0 time=4\n",
      "control_change channel=3 control=7 value=71 time=83\n",
      "control_change channel=3 control=7 value=72 time=5\n",
      "control_change channel=3 control=7 value=71 time=81\n",
      "note_on channel=3 note=45 velocity=0 time=5\n",
      "control_change channel=3 control=7 value=70 time=35\n",
      "note_on channel=3 note=45 velocity=76 time=12\n",
      "control_change channel=3 control=7 value=69 time=20\n",
      "control_change channel=3 control=64 value=0 time=85\n",
      "note_on channel=3 note=64 velocity=99 time=14\n",
      "note_on channel=3 note=76 velocity=99 time=1\n",
      "aftertouch channel=3 value=3 time=11\n",
      "note_on channel=3 note=33 velocity=0 time=4\n",
      "aftertouch channel=3 value=0 time=0\n",
      "aftertouch channel=3 value=6 time=29\n",
      "aftertouch channel=3 value=49 time=4\n",
      "aftertouch channel=3 value=127 time=4\n",
      "control_change channel=3 control=64 value=127 time=12\n",
      "aftertouch channel=3 value=36 time=55\n",
      "aftertouch channel=3 value=0 time=5\n",
      "note_on channel=3 note=45 velocity=0 time=12\n",
      "note_on channel=3 note=64 velocity=0 time=17\n",
      "note_on channel=3 note=76 velocity=0 time=15\n",
      "control_change channel=3 control=64 value=0 time=83\n",
      "note_on channel=3 note=66 velocity=99 time=15\n",
      "note_on channel=3 note=78 velocity=102 time=1\n",
      "note_on channel=3 note=30 velocity=70 time=0\n",
      "note_on channel=3 note=42 velocity=72 time=1\n",
      "control_change channel=3 control=64 value=127 time=33\n",
      "note_on channel=3 note=66 velocity=0 time=28\n",
      "note_on channel=3 note=78 velocity=0 time=21\n",
      "note_on channel=3 note=42 velocity=0 time=19\n",
      "control_change channel=3 control=7 value=70 time=33\n",
      "note_on channel=3 note=30 velocity=0 time=12\n",
      "control_change channel=3 control=64 value=0 time=116\n",
      "note_on channel=3 note=80 velocity=99 time=9\n",
      "note_on channel=3 note=77 velocity=105 time=0\n",
      "note_on channel=3 note=41 velocity=82 time=3\n",
      "note_on channel=3 note=29 velocity=87 time=1\n",
      "aftertouch channel=3 value=1 time=24\n",
      "aftertouch channel=3 value=10 time=8\n",
      "aftertouch channel=3 value=26 time=4\n",
      "aftertouch channel=3 value=58 time=5\n",
      "control_change channel=3 control=7 value=71 time=5\n",
      "control_change channel=3 control=7 value=72 time=81\n",
      "control_change channel=3 control=7 value=73 time=15\n",
      "control_change channel=3 control=64 value=127 time=135\n",
      "aftertouch channel=3 value=38 time=40\n",
      "aftertouch channel=3 value=11 time=4\n",
      "aftertouch channel=3 value=0 time=4\n",
      "note_on channel=3 note=41 velocity=0 time=2\n",
      "note_on channel=3 note=77 velocity=0 time=31\n",
      "control_change channel=3 control=7 value=75 time=10\n",
      "note_on channel=3 note=80 velocity=0 time=11\n",
      "note_on channel=3 note=41 velocity=72 time=9\n",
      "control_change channel=3 control=7 value=77 time=20\n",
      "note_on channel=3 note=29 velocity=0 time=14\n",
      "note_on channel=3 note=41 velocity=0 time=20\n",
      "control_change channel=3 control=7 value=78 time=20\n",
      "control_change channel=3 control=64 value=0 time=37\n",
      "note_on channel=3 note=39 velocity=82 time=8\n",
      "note_on channel=3 note=79 velocity=105 time=0\n",
      "note_on channel=3 note=27 velocity=87 time=1\n",
      "note_on channel=3 note=82 velocity=102 time=1\n",
      "aftertouch channel=3 value=4 time=12\n",
      "aftertouch channel=3 value=21 time=5\n",
      "aftertouch channel=3 value=5 time=4\n",
      "aftertouch channel=3 value=0 time=6\n",
      "aftertouch channel=3 value=1 time=28\n",
      "aftertouch channel=3 value=3 time=5\n",
      "aftertouch channel=3 value=7 time=3\n",
      "aftertouch channel=3 value=11 time=4\n",
      "aftertouch channel=3 value=17 time=5\n",
      "aftertouch channel=3 value=23 time=3\n",
      "aftertouch channel=3 value=31 time=5\n"
     ]
    },
    {
     "name": "stdout",
     "output_type": "stream",
     "text": [
      "aftertouch channel=3 value=42 time=4\n",
      "aftertouch channel=3 value=67 time=4\n",
      "control_change channel=3 control=64 value=127 time=24\n",
      "control_change channel=3 control=7 value=77 time=60\n",
      "note_on channel=3 note=39 velocity=0 time=40\n",
      "aftertouch channel=3 value=40 time=1\n",
      "aftertouch channel=3 value=17 time=4\n",
      "aftertouch channel=3 value=11 time=4\n",
      "aftertouch channel=3 value=8 time=4\n",
      "aftertouch channel=3 value=5 time=4\n",
      "aftertouch channel=3 value=2 time=4\n",
      "aftertouch channel=3 value=0 time=4\n",
      "control_change channel=3 control=64 value=0 time=12\n",
      "note_on channel=3 note=39 velocity=84 time=21\n",
      "control_change channel=3 control=64 value=127 time=34\n",
      "control_change channel=3 control=7 value=76 time=33\n",
      "note_on channel=3 note=82 velocity=0 time=41\n",
      "note_on channel=3 note=79 velocity=0 time=2\n",
      "note_on channel=3 note=87 velocity=93 time=6\n",
      "note_on channel=3 note=39 velocity=0 time=12\n",
      "note_on channel=3 note=27 velocity=0 time=33\n",
      "control_change channel=3 control=64 value=0 time=42\n",
      "note_on channel=3 note=25 velocity=76 time=57\n",
      "note_on channel=3 note=37 velocity=78 time=1\n",
      "aftertouch channel=3 value=55 time=7\n",
      "control_change channel=3 control=7 value=77 time=12\n",
      "aftertouch channel=3 value=61 time=0\n",
      "aftertouch channel=3 value=52 time=5\n",
      "aftertouch channel=3 value=40 time=4\n",
      "aftertouch channel=3 value=31 time=4\n",
      "aftertouch channel=3 value=22 time=4\n",
      "control_change channel=3 control=7 value=78 time=5\n",
      "aftertouch channel=3 value=17 time=0\n",
      "aftertouch channel=3 value=18 time=8\n",
      "control_change channel=3 control=64 value=127 time=1\n",
      "aftertouch channel=3 value=22 time=3\n",
      "aftertouch channel=3 value=28 time=4\n",
      "aftertouch channel=3 value=32 time=4\n",
      "aftertouch channel=3 value=36 time=5\n",
      "aftertouch channel=3 value=42 time=3\n",
      "aftertouch channel=3 value=52 time=5\n",
      "aftertouch channel=3 value=64 time=3\n",
      "aftertouch channel=3 value=67 time=4\n",
      "aftertouch channel=3 value=77 time=9\n",
      "aftertouch channel=3 value=67 time=22\n",
      "aftertouch channel=3 value=55 time=4\n",
      "aftertouch channel=3 value=40 time=4\n",
      "aftertouch channel=3 value=31 time=4\n",
      "aftertouch channel=3 value=22 time=4\n",
      "aftertouch channel=3 value=11 time=5\n",
      "aftertouch channel=3 value=2 time=3\n",
      "aftertouch channel=3 value=0 time=5\n",
      "control_change channel=3 control=64 value=0 time=104\n",
      "note_on channel=3 note=85 velocity=54 time=24\n",
      "note_on channel=3 note=87 velocity=0 time=3\n",
      "control_change channel=3 control=7 value=77 time=72\n",
      "control_change channel=3 control=7 value=76 time=55\n",
      "control_change channel=3 control=7 value=75 time=10\n",
      "note_on channel=3 note=84 velocity=93 time=37\n",
      "control_change channel=3 control=64 value=127 time=1\n",
      "note_on channel=3 note=85 velocity=0 time=4\n",
      "note_on channel=3 note=37 velocity=0 time=36\n",
      "note_on channel=3 note=25 velocity=0 time=5\n",
      "control_change channel=3 control=7 value=74 time=14\n",
      "control_change channel=3 control=64 value=0 time=0\n",
      "note_on channel=3 note=27 velocity=72 time=14\n",
      "note_on channel=3 note=84 velocity=0 time=2\n",
      "note_on channel=3 note=82 velocity=80 time=0\n",
      "note_on channel=3 note=39 velocity=52 time=0\n",
      "control_change channel=3 control=7 value=73 time=19\n",
      "note_on channel=3 note=84 velocity=96 time=233\n",
      "note_on channel=3 note=82 velocity=0 time=10\n",
      "control_change channel=3 control=7 value=71 time=37\n",
      "note_on channel=3 note=85 velocity=96 time=91\n",
      "note_on channel=3 note=84 velocity=0 time=3\n",
      "note_on channel=3 note=39 velocity=0 time=2\n",
      "control_change channel=3 control=64 value=127 time=9\n",
      "note_on channel=3 note=27 velocity=0 time=9\n",
      "control_change channel=3 control=64 value=0 time=77\n",
      "note_on channel=3 note=29 velocity=74 time=7\n",
      "note_on channel=3 note=41 velocity=76 time=0\n",
      "note_on channel=3 note=85 velocity=0 time=3\n",
      "note_on channel=3 note=84 velocity=105 time=29\n",
      "note_on channel=3 note=84 velocity=0 time=222\n",
      "note_on channel=3 note=82 velocity=78 time=3\n",
      "note_on channel=3 note=80 velocity=96 time=141\n",
      "note_on channel=3 note=82 velocity=0 time=3\n",
      "control_change channel=3 control=64 value=127 time=21\n",
      "note_on channel=3 note=29 velocity=0 time=23\n",
      "note_on channel=3 note=41 velocity=0 time=0\n",
      "control_change channel=3 control=64 value=0 time=65\n",
      "note_on channel=3 note=27 velocity=66 time=13\n",
      "note_on channel=3 note=39 velocity=66 time=1\n",
      "note_on channel=3 note=79 velocity=102 time=1\n",
      "note_on channel=3 note=80 velocity=0 time=1\n",
      "note_on channel=3 note=79 velocity=0 time=127\n",
      "note_on channel=3 note=80 velocity=90 time=6\n",
      "control_change channel=3 control=64 value=127 time=129\n",
      "note_on channel=3 note=80 velocity=0 time=32\n",
      "control_change channel=3 control=7 value=70 time=39\n",
      "control_change channel=3 control=7 value=69 time=24\n",
      "note_on channel=3 note=39 velocity=0 time=165\n",
      "note_on channel=3 note=27 velocity=0 time=15\n",
      "control_change channel=3 control=64 value=0 time=0\n",
      "note_on channel=3 note=65 velocity=87 time=2\n",
      "note_on channel=3 note=77 velocity=90 time=0\n",
      "aftertouch channel=3 value=11 time=34\n",
      "aftertouch channel=3 value=55 time=4\n",
      "note_on channel=3 note=25 velocity=45 time=32\n",
      "note_on channel=3 note=37 velocity=40 time=0\n",
      "control_change channel=3 control=7 value=70 time=28\n",
      "note_on channel=3 note=37 velocity=0 time=130\n",
      "note_on channel=3 note=37 velocity=78 time=25\n",
      "control_change channel=3 control=64 value=127 time=18\n",
      "aftertouch channel=3 value=92 time=14\n",
      "aftertouch channel=3 value=64 time=5\n",
      "aftertouch channel=3 value=34 time=4\n",
      "aftertouch channel=3 value=15 time=4\n",
      "aftertouch channel=3 value=3 time=4\n",
      "aftertouch channel=3 value=0 time=5\n",
      "note_on channel=3 note=65 velocity=0 time=81\n",
      "note_on channel=3 note=37 velocity=0 time=7\n",
      "note_on channel=3 note=25 velocity=0 time=4\n",
      "note_on channel=3 note=77 velocity=0 time=11\n",
      "control_change channel=3 control=64 value=0 time=84\n",
      "note_on channel=3 note=63 velocity=105 time=18\n",
      "note_on channel=3 note=75 velocity=102 time=1\n",
      "note_on channel=3 note=24 velocity=90 time=0\n",
      "note_on channel=3 note=36 velocity=90 time=1\n",
      "control_change channel=3 control=64 value=127 time=34\n",
      "note_on channel=3 note=24 velocity=0 time=114\n",
      "note_on channel=3 note=36 velocity=0 time=1\n",
      "note_on channel=3 note=75 velocity=0 time=20\n",
      "note_on channel=3 note=63 velocity=0 time=1\n",
      "control_change channel=3 control=64 value=0 time=81\n",
      "note_on channel=3 note=22 velocity=74 time=32\n",
      "control_change channel=3 control=64 value=127 time=17\n",
      "note_on channel=3 note=22 velocity=0 time=88\n",
      "note_on channel=3 note=68 velocity=102 time=18\n",
      "note_on channel=3 note=68 velocity=0 time=118\n",
      "note_on channel=3 note=41 velocity=82 time=10\n",
      "control_change channel=3 control=64 value=0 time=0\n",
      "note_on channel=3 note=80 velocity=102 time=1\n",
      "note_on channel=3 note=29 velocity=82 time=0\n",
      "note_on channel=3 note=68 velocity=102 time=0\n",
      "aftertouch channel=3 value=40 time=14\n",
      "aftertouch channel=3 value=34 time=9\n",
      "aftertouch channel=3 value=23 time=9\n",
      "aftertouch channel=3 value=12 time=4\n",
      "aftertouch channel=3 value=7 time=4\n",
      "aftertouch channel=3 value=10 time=8\n",
      "aftertouch channel=3 value=14 time=5\n",
      "aftertouch channel=3 value=18 time=4\n",
      "aftertouch channel=3 value=26 time=4\n",
      "aftertouch channel=3 value=36 time=4\n",
      "aftertouch channel=3 value=47 time=4\n",
      "aftertouch channel=3 value=55 time=4\n",
      "aftertouch channel=3 value=64 time=5\n",
      "aftertouch channel=3 value=70 time=110\n",
      "aftertouch channel=3 value=55 time=3\n",
      "aftertouch channel=3 value=40 time=5\n",
      "aftertouch channel=3 value=29 time=5\n",
      "aftertouch channel=3 value=24 time=3\n",
      "aftertouch channel=3 value=21 time=5\n",
      "aftertouch channel=3 value=24 time=12\n",
      "aftertouch channel=3 value=29 time=5\n",
      "aftertouch channel=3 value=32 time=5\n",
      "aftertouch channel=3 value=36 time=4\n",
      "note_on channel=3 note=41 velocity=0 time=14\n",
      "control_change channel=3 control=7 value=71 time=0\n",
      "aftertouch channel=3 value=32 time=4\n",
      "aftertouch channel=3 value=29 time=15\n",
      "aftertouch channel=3 value=24 time=5\n",
      "aftertouch channel=3 value=18 time=5\n",
      "note_on channel=3 note=41 velocity=87 time=1\n",
      "control_change channel=3 control=64 value=127 time=3\n",
      "aftertouch channel=3 value=15 time=1\n",
      "aftertouch channel=3 value=36 time=4\n",
      "aftertouch channel=3 value=64 time=4\n",
      "aftertouch channel=3 value=18 time=3\n",
      "aftertouch channel=3 value=7 time=5\n",
      "aftertouch channel=3 value=0 time=4\n",
      "note_on channel=3 note=68 velocity=0 time=41\n",
      "note_on channel=3 note=80 velocity=0 time=27\n",
      "note_on channel=3 note=29 velocity=0 time=18\n",
      "note_on channel=3 note=82 velocity=93 time=8\n",
      "note_on channel=3 note=41 velocity=0 time=4\n",
      "control_change channel=3 control=64 value=0 time=35\n",
      "note_on channel=3 note=70 velocity=96 time=92\n",
      "note_on channel=3 note=39 velocity=90 time=3\n",
      "note_on channel=3 note=27 velocity=87 time=1\n",
      "aftertouch channel=3 value=15 time=7\n",
      "aftertouch channel=3 value=101 time=6\n",
      "aftertouch channel=3 value=40 time=4\n",
      "aftertouch channel=3 value=15 time=4\n",
      "aftertouch channel=3 value=3 time=5\n",
      "aftertouch channel=3 value=0 time=5\n",
      "control_change channel=3 control=64 value=127 time=8\n",
      "control_change channel=3 control=7 value=72 time=45\n",
      "control_change channel=3 control=7 value=73 time=5\n",
      "note_on channel=3 note=39 velocity=0 time=81\n",
      "control_change channel=3 control=64 value=0 time=57\n",
      "note_on channel=3 note=39 velocity=84 time=39\n",
      "control_change channel=3 control=64 value=127 time=23\n",
      "note_on channel=3 note=70 velocity=0 time=73\n",
      "note_on channel=3 note=82 velocity=0 time=10\n",
      "note_on channel=3 note=75 velocity=102 time=5\n",
      "note_on channel=3 note=39 velocity=0 time=8\n",
      "note_on channel=3 note=27 velocity=0 time=35\n",
      "note_on channel=3 note=75 velocity=0 time=65\n",
      "control_change channel=3 control=64 value=0 time=8\n",
      "note_on channel=3 note=37 velocity=87 time=5\n",
      "note_on channel=3 note=75 velocity=105 time=1\n",
      "note_on channel=3 note=25 velocity=90 time=1\n",
      "aftertouch channel=3 value=1 time=16\n",
      "aftertouch channel=3 value=0 time=4\n",
      "aftertouch channel=3 value=2 time=54\n",
      "aftertouch channel=3 value=5 time=4\n",
      "aftertouch channel=3 value=9 time=4\n",
      "aftertouch channel=3 value=16 time=4\n",
      "aftertouch channel=3 value=22 time=4\n",
      "aftertouch channel=3 value=26 time=4\n",
      "aftertouch channel=3 value=29 time=4\n",
      "aftertouch channel=3 value=31 time=13\n",
      "aftertouch channel=3 value=29 time=17\n",
      "control_change channel=3 control=64 value=127 time=3\n",
      "aftertouch channel=3 value=22 time=5\n",
      "aftertouch channel=3 value=15 time=4\n",
      "aftertouch channel=3 value=4 time=4\n",
      "aftertouch channel=3 value=0 time=5\n",
      "control_change channel=3 control=64 value=0 time=108\n",
      "note_on channel=3 note=75 velocity=0 time=20\n",
      "note_on channel=3 note=73 velocity=90 time=0\n",
      "control_change channel=3 control=64 value=127 time=43\n",
      "control_change channel=3 control=64 value=0 time=32\n",
      "note_on channel=3 note=72 velocity=96 time=42\n",
      "note_on channel=3 note=73 velocity=0 time=5\n",
      "control_change channel=3 control=64 value=127 time=53\n",
      "note_on channel=3 note=37 velocity=0 time=32\n",
      "note_on channel=3 note=25 velocity=0 time=3\n",
      "control_change channel=3 control=64 value=0 time=44\n",
      "note_on channel=3 note=70 velocity=102 time=3\n",
      "note_on channel=3 note=72 velocity=0 time=1\n",
      "note_on channel=3 note=39 velocity=78 time=1\n",
      "note_on channel=3 note=27 velocity=70 time=1\n",
      "control_change channel=3 control=64 value=127 time=143\n",
      "note_on channel=3 note=39 velocity=0 time=75\n",
      "control_change channel=3 control=7 value=75 time=0\n",
      "control_change channel=3 control=7 value=77 time=10\n",
      "control_change channel=3 control=7 value=78 time=12\n",
      "control_change channel=3 control=64 value=0 time=4\n",
      "note_on channel=3 note=39 velocity=84 time=12\n",
      "note_on channel=3 note=72 velocity=80 time=64\n",
      "note_on channel=3 note=70 velocity=0 time=9\n",
      "control_change channel=3 control=7 value=77 time=36\n",
      "control_change channel=3 control=7 value=76 time=22\n",
      "control_change channel=3 control=7 value=75 time=5\n",
      "control_change channel=3 control=64 value=127 time=11\n",
      "note_on channel=3 note=73 velocity=99 time=26\n",
      "note_on channel=3 note=39 velocity=0 time=3\n",
      "note_on channel=3 note=72 velocity=0 time=1\n",
      "note_on channel=3 note=27 velocity=0 time=5\n",
      "control_change channel=3 control=64 value=0 time=67\n",
      "note_on channel=3 note=41 velocity=47 time=5\n",
      "note_on channel=3 note=29 velocity=48 time=2\n",
      "note_on channel=3 note=73 velocity=0 time=2\n",
      "note_on channel=3 note=72 velocity=80 time=2\n",
      "note_on channel=3 note=72 velocity=0 time=266\n",
      "note_on channel=3 note=70 velocity=72 time=3\n",
      "note_on channel=3 note=68 velocity=78 time=119\n",
      "control_change channel=3 control=64 value=127 time=1\n",
      "note_on channel=3 note=70 velocity=0 time=3\n",
      "note_on channel=3 note=41 velocity=0 time=39\n",
      "note_on channel=3 note=29 velocity=0 time=1\n",
      "control_change channel=3 control=64 value=0 time=79\n",
      "note_on channel=3 note=68 velocity=0 time=2\n",
      "note_on channel=3 note=27 velocity=78 time=0\n",
      "note_on channel=3 note=39 velocity=76 time=1\n",
      "note_on channel=3 note=67 velocity=108 time=2\n",
      "note_on channel=3 note=65 velocity=90 time=3\n",
      "note_on channel=3 note=65 velocity=0 time=8\n",
      "aftertouch channel=3 value=0 time=119\n",
      "note_on channel=3 note=68 velocity=82 time=15\n",
      "note_on channel=3 note=67 velocity=0 time=6\n",
      "note_on channel=3 note=68 velocity=0 time=245\n",
      "note_on channel=3 note=67 velocity=102 time=2\n",
      "control_change channel=3 control=64 value=127 time=18\n",
      "aftertouch channel=3 value=8 time=2\n",
      "aftertouch channel=3 value=15 time=3\n",
      "aftertouch channel=3 value=4 time=4\n",
      "aftertouch channel=3 value=0 time=4\n",
      "note_on channel=3 note=39 velocity=0 time=34\n",
      "note_on channel=3 note=27 velocity=0 time=20\n",
      "note_on channel=3 note=67 velocity=0 time=10\n",
      "control_change channel=3 control=64 value=0 time=9\n",
      "note_on channel=3 note=37 velocity=78 time=15\n",
      "note_on channel=3 note=25 velocity=87 time=1\n",
      "note_on channel=3 note=67 velocity=108 time=0\n",
      "aftertouch channel=3 value=127 time=12\n",
      "aftertouch channel=3 value=112 time=42\n",
      "aftertouch channel=3 value=67 time=4\n",
      "aftertouch channel=3 value=36 time=4\n",
      "aftertouch channel=3 value=17 time=4\n",
      "aftertouch channel=3 value=1 time=4\n",
      "aftertouch channel=3 value=0 time=5\n",
      "note_on channel=3 note=67 velocity=0 time=39\n",
      "note_on channel=3 note=68 velocity=99 time=13\n",
      "aftertouch channel=3 value=2 time=17\n",
      "aftertouch channel=3 value=0 time=8\n",
      "control_change channel=3 control=64 value=127 time=57\n",
      "note_on channel=3 note=68 velocity=0 time=19\n",
      "control_change channel=3 control=64 value=0 time=127\n",
      "note_on channel=3 note=70 velocity=87 time=37\n",
      "note_on channel=3 note=82 velocity=80 time=2\n",
      "control_change channel=3 control=64 value=127 time=10\n",
      "note_on channel=3 note=25 velocity=0 time=34\n",
      "note_on channel=3 note=37 velocity=0 time=4\n",
      "note_on channel=3 note=70 velocity=0 time=0\n",
      "note_on channel=3 note=82 velocity=0 time=45\n",
      "control_change channel=3 control=64 value=0 time=12\n",
      "aftertouch channel=3 value=8 time=48\n",
      "aftertouch channel=3 value=0 time=4\n",
      "control_change channel=3 control=64 value=127 time=6\n",
      "note_on channel=3 note=27 velocity=76 time=2\n",
      "note_on channel=3 note=39 velocity=76 time=0\n",
      "note_on channel=3 note=72 velocity=99 time=0\n",
      "note_on channel=3 note=84 velocity=99 time=0\n",
      "note_on channel=3 note=27 velocity=0 time=4\n",
      "note_on channel=3 note=39 velocity=0 time=9\n",
      "note_on channel=3 note=72 velocity=0 time=86\n",
      "note_on channel=3 note=84 velocity=0 time=20\n",
      "control_change channel=3 control=7 value=77 time=222\n",
      "note_on channel=3 note=70 velocity=47 time=139\n",
      "note_on channel=3 note=82 velocity=52 time=0\n",
      "control_change channel=3 control=64 value=0 time=1\n",
      "control_change channel=3 control=7 value=76 time=59\n",
      "control_change channel=3 control=64 value=127 time=216\n",
      "note_on channel=3 note=70 velocity=0 time=25\n",
      "note_on channel=3 note=82 velocity=0 time=73\n",
      "control_change channel=3 control=64 value=0 time=101\n",
      "note_on channel=3 note=41 velocity=31 time=15\n",
      "note_on channel=3 note=53 velocity=32 time=0\n",
      "note_on channel=3 note=84 velocity=32 time=5\n",
      "note_on channel=3 note=75 velocity=24 time=2\n",
      "note_on channel=3 note=72 velocity=19 time=6\n",
      "control_change channel=3 control=64 value=127 time=54\n",
      "note_on channel=3 note=53 velocity=0 time=88\n",
      "control_change channel=3 control=7 value=77 time=6\n",
      "note_on channel=3 note=84 velocity=0 time=57\n",
      "note_on channel=3 note=72 velocity=0 time=13\n",
      "note_on channel=3 note=75 velocity=0 time=0\n",
      "note_on channel=3 note=53 velocity=55 time=14\n",
      "control_change channel=3 control=91 value=66 time=156\n",
      "note_on channel=3 note=80 velocity=64 time=34\n",
      "note_on channel=3 note=68 velocity=48 time=1\n",
      "note_on channel=3 note=53 velocity=0 time=15\n",
      "note_on channel=3 note=68 velocity=0 time=3\n",
      "note_on channel=3 note=80 velocity=0 time=6\n",
      "note_on channel=3 note=41 velocity=0 time=0\n",
      "control_change channel=3 control=91 value=63 time=55\n",
      "note_on channel=3 note=82 velocity=49 time=5\n",
      "control_change channel=3 control=64 value=0 time=1\n",
      "control_change channel=3 control=91 value=60 time=2\n",
      "note_on channel=3 note=70 velocity=32 time=0\n",
      "control_change channel=3 control=91 value=61 time=2\n",
      "note_on channel=3 note=39 velocity=45 time=0\n",
      "note_on channel=3 note=51 velocity=43 time=6\n",
      "control_change channel=3 control=91 value=58 time=15\n",
      "control_change channel=3 control=91 value=56 time=64\n",
      "control_change channel=3 control=64 value=127 time=4\n",
      "control_change channel=3 control=91 value=54 time=69\n",
      "note_on channel=3 note=51 velocity=0 time=24\n",
      "control_change channel=3 control=64 value=0 time=44\n",
      "control_change channel=3 control=91 value=52 time=34\n",
      "note_on channel=3 note=51 velocity=57 time=8\n",
      "control_change channel=3 control=64 value=127 time=13\n",
      "control_change channel=3 control=91 value=50 time=26\n",
      "note_on channel=3 note=51 velocity=0 time=43\n",
      "note_on channel=3 note=70 velocity=0 time=6\n",
      "note_on channel=3 note=82 velocity=0 time=20\n",
      "note_on channel=3 note=87 velocity=64 time=49\n",
      "control_change channel=3 control=91 value=48 time=5\n",
      "note_on channel=3 note=39 velocity=0 time=4\n",
      "control_change channel=3 control=91 value=46 time=36\n",
      "note_on channel=3 note=46 velocity=44 time=72\n",
      "control_change channel=3 control=64 value=0 time=1\n",
      "note_on channel=3 note=75 velocity=48 time=1\n",
      "note_on channel=3 note=46 velocity=0 time=15\n",
      "note_on channel=3 note=49 velocity=40 time=17\n",
      "control_change channel=3 control=7 value=78 time=2\n",
      "control_change channel=3 control=91 value=45 time=3\n",
      "control_change channel=3 control=91 value=43 time=88\n",
      "control_change channel=3 control=91 value=42 time=119\n",
      "note_on channel=3 note=37 velocity=48 time=271\n",
      "control_change channel=3 control=64 value=127 time=166\n",
      "control_change channel=3 control=93 value=81 time=50\n",
      "note_on channel=3 note=87 velocity=0 time=32\n",
      "note_on channel=3 note=75 velocity=0 time=22\n",
      "control_change channel=3 control=93 value=79 time=10\n",
      "control_change channel=3 control=93 value=77 time=13\n",
      "control_change channel=3 control=93 value=75 time=10\n",
      "control_change channel=3 control=93 value=73 time=10\n",
      "control_change channel=3 control=93 value=71 time=5\n",
      "control_change channel=3 control=93 value=68 time=25\n",
      "control_change channel=3 control=93 value=66 time=28\n",
      "note_on channel=3 note=49 velocity=0 time=30\n",
      "control_change channel=3 control=93 value=63 time=0\n",
      "control_change channel=3 control=93 value=61 time=26\n",
      "note_on channel=3 note=37 velocity=0 time=45\n",
      "control_change channel=3 control=93 value=58 time=15\n",
      "control_change channel=3 control=93 value=56 time=15\n",
      "note_on channel=3 note=41 velocity=57 time=44\n",
      "control_change channel=3 control=93 value=54 time=5\n",
      "note_on channel=3 note=68 velocity=49 time=5\n",
      "control_change channel=3 control=64 value=0 time=0\n",
      "control_change channel=3 control=93 value=52 time=48\n",
      "control_change channel=3 control=93 value=50 time=48\n",
      "control_change channel=3 control=93 value=48 time=55\n",
      "control_change channel=3 control=93 value=46 time=114\n",
      "control_change channel=3 control=93 value=45 time=5\n",
      "note_on channel=3 note=29 velocity=62 time=5\n",
      "control_change channel=3 control=64 value=127 time=31\n",
      "note_on channel=3 note=68 velocity=0 time=73\n",
      "note_on channel=3 note=68 velocity=80 time=26\n",
      "note_on channel=3 note=29 velocity=0 time=5\n",
      "note_on channel=3 note=41 velocity=0 time=5\n",
      "control_change channel=3 control=93 value=43 time=5\n",
      "control_change channel=3 control=93 value=42 time=86\n",
      "note_on channel=3 note=68 velocity=0 time=31\n",
      "note_on channel=3 note=70 velocity=78 time=4\n",
      "note_on channel=3 note=27 velocity=64 time=0\n",
      "note_on channel=3 note=39 velocity=62 time=1\n",
      "control_change channel=3 control=64 value=0 time=3\n",
      "control_change channel=3 control=7 value=77 time=20\n",
      "note_on channel=3 note=39 velocity=0 time=186\n",
      "control_change channel=3 control=91 value=44 time=30\n",
      "control_change channel=3 control=64 value=127 time=12\n",
      "note_on channel=3 note=39 velocity=57 time=2\n",
      "control_change channel=3 control=91 value=42 time=40\n",
      "control_change channel=3 control=91 value=40 time=28\n",
      "note_on channel=3 note=70 velocity=0 time=16\n",
      "control_change channel=3 control=91 value=39 time=48\n",
      "note_on channel=3 note=70 velocity=74 time=0\n",
      "control_change channel=3 control=91 value=38 time=15\n",
      "control_change channel=3 control=7 value=76 time=0\n",
      "control_change channel=3 control=64 value=0 time=7\n",
      "control_change channel=3 control=64 value=127 time=53\n",
      "control_change channel=3 control=7 value=73 time=22\n",
      "note_on channel=3 note=70 velocity=0 time=47\n",
      "note_on channel=3 note=65 velocity=70 time=8\n",
      "control_change channel=3 control=64 value=0 time=5\n",
      "control_change channel=3 control=7 value=75 time=21\n",
      "aftertouch channel=3 value=1 time=118\n",
      "aftertouch channel=3 value=3 time=5\n",
      "aftertouch channel=3 value=5 time=3\n",
      "aftertouch channel=3 value=7 time=4\n",
      "aftertouch channel=3 value=12 time=5\n",
      "aftertouch channel=3 value=15 time=4\n",
      "aftertouch channel=3 value=18 time=4\n",
      "aftertouch channel=3 value=15 time=12\n",
      "aftertouch channel=3 value=11 time=4\n",
      "aftertouch channel=3 value=9 time=8\n",
      "aftertouch channel=3 value=7 time=29\n",
      "aftertouch channel=3 value=5 time=4\n",
      "aftertouch channel=3 value=3 time=4\n",
      "note_on channel=3 note=27 velocity=0 time=18\n",
      "control_change channel=3 control=7 value=77 time=5\n",
      "aftertouch channel=3 value=4 time=51\n",
      "aftertouch channel=3 value=3 time=42\n",
      "aftertouch channel=3 value=2 time=16\n",
      "aftertouch channel=3 value=1 time=4\n",
      "aftertouch channel=3 value=0 time=16\n",
      "note_on channel=3 note=39 velocity=0 time=125\n",
      "note_on channel=3 note=37 velocity=31 time=20\n",
      "control_change channel=3 control=7 value=78 time=119\n",
      "control_change channel=3 control=7 value=79 time=197\n",
      "control_change channel=3 control=7 value=80 time=15\n",
      "control_change channel=3 control=64 value=127 time=12\n",
      "note_on channel=3 note=37 velocity=0 time=111\n",
      "control_change channel=3 control=7 value=82 time=10\n",
      "control_change channel=3 control=64 value=0 time=46\n",
      "control_change channel=3 control=7 value=84 time=10\n",
      "note_on channel=3 note=41 velocity=35 time=0\n",
      "note_on channel=3 note=56 velocity=51 time=4\n",
      "note_on channel=3 note=53 velocity=52 time=0\n",
      "note_on channel=3 note=65 velocity=0 time=9\n",
      "control_change channel=3 control=64 value=127 time=107\n",
      "control_change channel=3 control=7 value=83 time=85\n",
      "control_change channel=3 control=64 value=0 time=28\n",
      "control_change channel=3 control=7 value=82 time=2\n",
      "note_on channel=3 note=29 velocity=50 time=38\n",
      "control_change channel=3 control=7 value=81 time=15\n",
      "control_change channel=3 control=64 value=127 time=37\n",
      "note_on channel=3 note=53 velocity=0 time=37\n",
      "control_change channel=3 control=7 value=80 time=0\n",
      "note_on channel=3 note=56 velocity=0 time=8\n",
      "note_on channel=3 note=56 velocity=96 time=29\n",
      "note_on channel=3 note=53 velocity=90 time=1\n",
      "note_on channel=3 note=41 velocity=0 time=8\n",
      "note_on channel=3 note=29 velocity=0 time=6\n",
      "control_change channel=3 control=7 value=78 time=22\n",
      "control_change channel=3 control=7 value=77 time=4\n",
      "control_change channel=3 control=64 value=0 time=82\n",
      "note_on channel=3 note=56 velocity=0 time=7\n",
      "note_on channel=3 note=27 velocity=58 time=0\n",
      "note_on channel=3 note=39 velocity=55 time=1\n",
      "note_on channel=3 note=58 velocity=82 time=0\n",
      "control_change channel=3 control=7 value=76 time=143\n",
      "control_change channel=3 control=7 value=75 time=60\n",
      "control_change channel=3 control=7 value=74 time=20\n",
      "control_change channel=3 control=7 value=73 time=61\n",
      "control_change channel=3 control=64 value=127 time=3\n",
      "note_on channel=3 note=58 velocity=0 time=51\n",
      "note_on channel=3 note=53 velocity=0 time=16\n",
      "control_change channel=3 control=7 value=71 time=0\n",
      "note_on channel=3 note=58 velocity=80 time=53\n",
      "note_on channel=3 note=39 velocity=0 time=7\n",
      "note_on channel=3 note=27 velocity=0 time=28\n",
      "note_on channel=3 note=58 velocity=0 time=3\n",
      "control_change channel=3 control=7 value=70 time=40\n",
      "control_change channel=3 control=7 value=69 time=10\n",
      "control_change channel=3 control=64 value=0 time=73\n",
      "note_on channel=3 note=68 velocity=51 time=22\n",
      "note_on channel=3 note=37 velocity=27 time=1\n",
      "control_change channel=3 control=7 value=68 time=56\n",
      "control_change channel=3 control=7 value=67 time=5\n",
      "control_change channel=3 control=64 value=127 time=153\n",
      "note_on channel=3 note=68 velocity=0 time=45\n",
      "note_on channel=3 note=80 velocity=40 time=192\n",
      "note_on channel=3 note=80 velocity=0 time=87\n",
      "note_on channel=3 note=80 velocity=47 time=130\n",
      "note_on channel=3 note=80 velocity=0 time=70\n",
      "note_on channel=3 note=85 velocity=43 time=6\n",
      "control_change channel=3 control=7 value=70 time=115\n",
      "note_on channel=3 note=85 velocity=0 time=124\n",
      "note_on channel=3 note=80 velocity=39 time=31\n",
      "control_change channel=3 control=64 value=0 time=54\n",
      "control_change channel=3 control=7 value=71 time=610\n",
      "control_change channel=3 control=7 value=72 time=18\n",
      "note_on channel=3 note=37 velocity=0 time=303\n",
      "note_on channel=3 note=80 velocity=0 time=529\n",
      "note_on channel=3 note=82 velocity=9 time=13\n",
      "control_change channel=3 control=64 value=127 time=377\n",
      "note_on channel=3 note=82 velocity=0 time=85\n",
      "control_change channel=3 control=7 value=75 time=103\n",
      "control_change channel=3 control=7 value=74 time=5\n",
      "control_change channel=3 control=7 value=71 time=72\n",
      "control_change channel=3 control=7 value=70 time=20\n",
      "control_change channel=3 control=7 value=69 time=34\n",
      "note_on channel=3 note=80 velocity=6 time=6\n",
      "control_change channel=3 control=7 value=68 time=20\n",
      "control_change channel=3 control=7 value=67 time=10\n",
      "control_change channel=3 control=7 value=66 time=21\n",
      "control_change channel=3 control=7 value=64 time=20\n",
      "note_on channel=3 note=80 velocity=0 time=68\n",
      "control_change channel=3 control=7 value=63 time=5\n",
      "note_on channel=3 note=80 velocity=33 time=56\n",
      "note_on channel=3 note=87 velocity=49 time=66\n",
      "control_change channel=3 control=7 value=64 time=25\n",
      "control_change channel=3 control=7 value=65 time=25\n",
      "control_change channel=3 control=7 value=66 time=7\n",
      "note_on channel=3 note=87 velocity=0 time=10\n",
      "control_change channel=3 control=7 value=68 time=3\n",
      "note_on channel=3 note=92 velocity=52 time=0\n",
      "note_on channel=3 note=80 velocity=0 time=19\n",
      "note_on channel=3 note=92 velocity=0 time=56\n",
      "control_change channel=3 control=7 value=70 time=27\n",
      "control_change channel=3 control=7 value=71 time=33\n",
      "note_on channel=3 note=92 velocity=24 time=31\n",
      "control_change channel=3 control=64 value=0 time=11\n",
      "note_on channel=3 note=80 velocity=27 time=2\n",
      "note_on channel=3 note=87 velocity=26 time=1\n",
      "control_change channel=3 control=7 value=72 time=5\n",
      "control_change channel=3 control=7 value=73 time=5\n",
      "control_change channel=3 control=7 value=75 time=45\n",
      "control_change channel=3 control=64 value=127 time=82\n",
      "note_on channel=3 note=87 velocity=0 time=37\n",
      "note_on channel=3 note=92 velocity=0 time=0\n",
      "note_on channel=3 note=80 velocity=0 time=2\n",
      "note_on channel=3 note=92 velocity=36 time=59\n",
      "control_change channel=3 control=7 value=74 time=39\n",
      "note_on channel=3 note=92 velocity=0 time=5\n",
      "note_on channel=3 note=87 velocity=45 time=9\n",
      "control_change channel=3 control=7 value=73 time=25\n",
      "note_on channel=3 note=87 velocity=0 time=26\n",
      "note_on channel=3 note=80 velocity=34 time=11\n",
      "control_change channel=3 control=7 value=71 time=20\n",
      "note_on channel=3 note=80 velocity=0 time=49\n",
      "note_on channel=3 note=80 velocity=50 time=152\n",
      "note_on channel=3 note=80 velocity=0 time=53\n",
      "note_on channel=3 note=75 velocity=51 time=11\n",
      "note_on channel=3 note=75 velocity=0 time=49\n",
      "note_on channel=3 note=68 velocity=44 time=11\n",
      "note_on channel=3 note=68 velocity=0 time=43\n",
      "note_on channel=3 note=68 velocity=54 time=87\n",
      "note_on channel=3 note=68 velocity=0 time=41\n",
      "control_change channel=3 control=7 value=72 time=5\n",
      "control_change channel=3 control=7 value=73 time=14\n",
      "note_on channel=3 note=75 velocity=41 time=39\n",
      "note_on channel=3 note=75 velocity=0 time=13\n",
      "note_on channel=3 note=80 velocity=51 time=7\n",
      "note_on channel=3 note=80 velocity=0 time=15\n",
      "control_change channel=3 control=7 value=71 time=10\n",
      "control_change channel=3 control=7 value=70 time=16\n",
      "control_change channel=3 control=7 value=69 time=5\n",
      "note_on channel=3 note=80 velocity=40 time=24\n",
      "note_on channel=3 note=92 velocity=58 time=9\n",
      "control_change channel=3 control=64 value=0 time=4\n",
      "control_change channel=3 control=64 value=127 time=82\n",
      "note_on channel=3 note=92 velocity=0 time=139\n",
      "note_on channel=3 note=80 velocity=0 time=10\n",
      "note_on channel=3 note=87 velocity=62 time=146\n",
      "note_on channel=3 note=87 velocity=0 time=76\n",
      "note_on channel=3 note=92 velocity=29 time=150\n",
      "note_on channel=3 note=80 velocity=36 time=12\n",
      "control_change channel=3 control=64 value=0 time=29\n",
      "control_change channel=3 control=64 value=127 time=171\n",
      "control_change channel=3 control=7 value=66 time=55\n",
      "note_on channel=3 note=80 velocity=0 time=33\n",
      "note_on channel=3 note=92 velocity=0 time=9\n",
      "control_change channel=3 control=7 value=68 time=121\n",
      "control_change channel=3 control=7 value=71 time=5\n",
      "control_change channel=3 control=7 value=72 time=95\n",
      "control_change channel=3 control=7 value=73 time=62\n",
      "control_change channel=3 control=7 value=75 time=45\n",
      "control_change channel=3 control=7 value=77 time=13\n",
      "control_change channel=3 control=7 value=76 time=105\n",
      "control_change channel=3 control=7 value=75 time=5\n",
      "control_change channel=3 control=7 value=74 time=5\n",
      "control_change channel=3 control=7 value=73 time=45\n",
      "control_change channel=3 control=7 value=71 time=15\n",
      "control_change channel=3 control=7 value=68 time=15\n",
      "control_change channel=3 control=7 value=67 time=35\n",
      "control_change channel=3 control=7 value=66 time=105\n",
      "control_change channel=3 control=7 value=64 time=5\n",
      "control_change channel=3 control=7 value=63 time=15\n",
      "note_on channel=3 note=44 velocity=5 time=105\n",
      "control_change channel=3 control=7 value=63 time=20\n",
      "note_on channel=3 note=32 velocity=5 time=9\n",
      "control_change channel=3 control=7 value=62 time=75\n",
      "control_change channel=3 control=7 value=61 time=15\n",
      "control_change channel=3 control=7 value=59 time=10\n",
      "control_change channel=3 control=7 value=57 time=20\n",
      "control_change channel=3 control=7 value=56 time=15\n",
      "control_change channel=3 control=7 value=55 time=15\n",
      "control_change channel=3 control=7 value=54 time=15\n",
      "control_change channel=3 control=7 value=52 time=15\n",
      "control_change channel=3 control=7 value=50 time=15\n",
      "control_change channel=3 control=7 value=49 time=35\n",
      "control_change channel=3 control=7 value=48 time=6\n",
      "control_change channel=3 control=7 value=47 time=25\n",
      "control_change channel=3 control=7 value=45 time=10\n",
      "control_change channel=3 control=7 value=43 time=35\n",
      "control_change channel=3 control=7 value=42 time=60\n",
      "control_change channel=3 control=7 value=41 time=5\n",
      "control_change channel=3 control=64 value=0 time=3\n",
      "control_change channel=3 control=7 value=40 time=17\n",
      "control_change channel=3 control=7 value=38 time=5\n",
      "control_change channel=3 control=7 value=37 time=15\n",
      "control_change channel=3 control=7 value=36 time=5\n",
      "control_change channel=3 control=7 value=43 time=5\n",
      "control_change channel=3 control=7 value=42 time=15\n",
      "control_change channel=3 control=7 value=43 time=164\n",
      "control_change channel=3 control=7 value=44 time=5\n",
      "control_change channel=3 control=7 value=45 time=20\n",
      "control_change channel=3 control=7 value=46 time=226\n",
      "note_on channel=3 note=56 velocity=5 time=40\n",
      "control_change channel=3 control=7 value=47 time=20\n",
      "control_change channel=3 control=7 value=49 time=5\n",
      "control_change channel=3 control=7 value=50 time=15\n",
      "control_change channel=3 control=7 value=51 time=55\n",
      "control_change channel=3 control=7 value=52 time=10\n",
      "control_change channel=3 control=7 value=53 time=5\n",
      "control_change channel=3 control=7 value=54 time=5\n",
      "control_change channel=3 control=64 value=127 time=5\n",
      "note_on channel=3 note=44 velocity=0 time=55\n",
      "control_change channel=3 control=7 value=57 time=15\n",
      "control_change channel=3 control=7 value=58 time=0\n",
      "control_change channel=3 control=7 value=59 time=7\n",
      "note_on channel=3 note=32 velocity=0 time=12\n",
      "control_change channel=3 control=7 value=60 time=8\n",
      "control_change channel=3 control=7 value=61 time=25\n",
      "control_change channel=3 control=7 value=63 time=12\n",
      "control_change channel=3 control=7 value=64 time=53\n",
      "note_on channel=3 note=44 velocity=44 time=34\n",
      "note_on channel=3 note=32 velocity=36 time=2\n",
      "control_change channel=3 control=7 value=65 time=30\n",
      "control_change channel=3 control=7 value=66 time=6\n",
      "control_change channel=3 control=7 value=68 time=5\n",
      "note_on channel=3 note=56 velocity=0 time=40\n",
      "control_change channel=3 control=7 value=70 time=9\n",
      "control_change channel=3 control=7 value=71 time=8\n",
      "control_change channel=3 control=7 value=72 time=15\n",
      "control_change channel=3 control=7 value=73 time=10\n",
      "control_change channel=3 control=7 value=75 time=20\n",
      "control_change channel=3 control=7 value=77 time=20\n",
      "control_change channel=3 control=7 value=78 time=10\n",
      "control_change channel=3 control=7 value=79 time=15\n",
      "control_change channel=3 control=7 value=80 time=19\n",
      "control_change channel=3 control=7 value=82 time=20\n",
      "control_change channel=3 control=7 value=84 time=8\n",
      "control_change channel=3 control=7 value=85 time=10\n",
      "control_change channel=3 control=7 value=86 time=15\n",
      "note_on channel=3 note=63 velocity=36 time=49\n",
      "control_change channel=3 control=7 value=87 time=30\n",
      "control_change channel=3 control=7 value=89 time=15\n",
      "control_change channel=3 control=7 value=90 time=26\n",
      "control_change channel=3 control=7 value=91 time=35\n",
      "control_change channel=3 control=7 value=92 time=37\n",
      "control_change channel=3 control=7 value=93 time=20\n",
      "note_on channel=3 note=63 velocity=0 time=14\n",
      "note_on channel=3 note=68 velocity=36 time=0\n",
      "control_change channel=3 control=7 value=96 time=5\n",
      "control_change channel=3 control=7 value=97 time=31\n",
      "control_change channel=3 control=7 value=98 time=5\n",
      "note_on channel=3 note=68 velocity=0 time=14\n",
      "control_change channel=3 control=7 value=99 time=25\n",
      "control_change channel=3 control=7 value=100 time=15\n",
      "control_change channel=3 control=7 value=101 time=62\n",
      "note_on channel=3 note=75 velocity=44 time=0\n",
      "control_change channel=3 control=7 value=103 time=10\n",
      "control_change channel=3 control=7 value=104 time=78\n",
      "control_change channel=3 control=7 value=105 time=0\n",
      "note_on channel=3 note=75 velocity=0 time=11\n",
      "note_on channel=3 note=80 velocity=38 time=28\n",
      "note_on channel=3 note=80 velocity=0 time=60\n",
      "note_on channel=3 note=92 velocity=45 time=110\n",
      "control_change channel=3 control=7 value=104 time=159\n",
      "control_change channel=3 control=7 value=103 time=60\n",
      "control_change channel=3 control=7 value=102 time=33\n",
      "control_change channel=3 control=7 value=101 time=25\n",
      "control_change channel=3 control=7 value=99 time=15\n",
      "control_change channel=3 control=7 value=97 time=43\n",
      "control_change channel=3 control=7 value=96 time=5\n",
      "control_change channel=3 control=7 value=95 time=45\n",
      "control_change channel=3 control=7 value=94 time=5\n",
      "control_change channel=3 control=7 value=92 time=15\n",
      "control_change channel=3 control=7 value=90 time=10\n",
      "control_change channel=3 control=7 value=89 time=20\n",
      "note_on channel=3 note=87 velocity=30 time=18\n",
      "control_change channel=3 control=7 value=88 time=32\n",
      "control_change channel=3 control=7 value=87 time=22\n",
      "control_change channel=3 control=7 value=85 time=10\n",
      "control_change channel=3 control=7 value=84 time=25\n",
      "note_on channel=3 note=92 velocity=0 time=19\n",
      "control_change channel=3 control=7 value=83 time=0\n",
      "note_on channel=3 note=87 velocity=0 time=5\n",
      "control_change channel=3 control=7 value=82 time=0\n",
      "note_on channel=3 note=32 velocity=0 time=37\n",
      "control_change channel=3 control=7 value=78 time=0\n",
      "control_change channel=3 control=7 value=77 time=0\n",
      "note_on channel=3 note=44 velocity=0 time=4\n",
      "control_change channel=3 control=7 value=76 time=0\n",
      "control_change channel=3 control=7 value=75 time=10\n",
      "control_change channel=3 control=7 value=74 time=15\n",
      "control_change channel=3 control=7 value=73 time=5\n",
      "control_change channel=3 control=7 value=71 time=5\n",
      "control_change channel=3 control=7 value=70 time=10\n",
      "control_change channel=3 control=7 value=69 time=30\n",
      "control_change channel=3 control=7 value=68 time=45\n",
      "control_change channel=3 control=7 value=67 time=10\n",
      "control_change channel=3 control=7 value=66 time=48\n",
      "control_change channel=3 control=7 value=64 time=20\n",
      "control_change channel=3 control=7 value=63 time=20\n",
      "control_change channel=3 control=7 value=59 time=40\n",
      "control_change channel=3 control=7 value=57 time=40\n",
      "control_change channel=3 control=7 value=56 time=30\n",
      "control_change channel=3 control=7 value=55 time=12\n",
      "control_change channel=3 control=7 value=59 time=35\n",
      "control_change channel=3 control=7 value=57 time=0\n",
      "control_change channel=3 control=7 value=54 time=10\n",
      "control_change channel=3 control=7 value=50 time=15\n",
      "control_change channel=3 control=7 value=47 time=0\n",
      "control_change channel=3 control=7 value=42 time=20\n",
      "control_change channel=3 control=7 value=41 time=5\n",
      "control_change channel=3 control=7 value=40 time=5\n",
      "control_change channel=3 control=7 value=38 time=10\n",
      "control_change channel=3 control=7 value=37 time=20\n",
      "control_change channel=3 control=7 value=36 time=15\n",
      "control_change channel=3 control=7 value=35 time=25\n",
      "control_change channel=3 control=7 value=34 time=10\n",
      "control_change channel=3 control=7 value=31 time=35\n",
      "control_change channel=3 control=7 value=30 time=40\n",
      "control_change channel=3 control=7 value=29 time=15\n",
      "control_change channel=3 control=7 value=28 time=82\n",
      "control_change channel=3 control=7 value=27 time=95\n",
      "control_change channel=3 control=7 value=26 time=25\n",
      "control_change channel=3 control=7 value=24 time=68\n",
      "control_change channel=3 control=7 value=23 time=35\n",
      "control_change channel=3 control=7 value=22 time=50\n",
      "control_change channel=3 control=7 value=21 time=20\n",
      "control_change channel=3 control=7 value=19 time=10\n",
      "control_change channel=3 control=7 value=17 time=35\n",
      "aftertouch channel=3 value=0 time=20\n",
      "control_change channel=3 control=7 value=16 time=5\n",
      "control_change channel=3 control=7 value=15 time=20\n",
      "control_change channel=3 control=7 value=14 time=45\n",
      "control_change channel=3 control=7 value=12 time=90\n",
      "control_change channel=3 control=7 value=10 time=60\n",
      "control_change channel=3 control=7 value=9 time=55\n",
      "control_change channel=3 control=7 value=8 time=20\n",
      "control_change channel=3 control=7 value=7 time=70\n",
      "control_change channel=3 control=7 value=5 time=10\n",
      "control_change channel=3 control=7 value=3 time=65\n",
      "control_change channel=3 control=7 value=2 time=40\n",
      "control_change channel=3 control=7 value=1 time=5\n",
      "control_change channel=3 control=7 value=0 time=5\n",
      "control_change channel=3 control=101 value=0 time=1974\n",
      "control_change channel=3 control=100 value=0 time=0\n",
      "control_change channel=3 control=6 value=0 time=0\n",
      "control_change channel=3 control=38 value=0 time=0\n",
      "MetaMessage('end_of_track', time=0)\n",
      "Track 7: Steel Guitar\n",
      "MetaMessage('midi_port', port=0, time=0)\n",
      "MetaMessage('track_name', name='Steel Guitar', time=0)\n",
      "control_change channel=7 control=0 value=0 time=0\n",
      "program_change channel=7 program=25 time=0\n",
      "control_change channel=7 control=7 value=50 time=0\n",
      "control_change channel=7 control=10 value=120 time=0\n",
      "note_on channel=7 note=71 velocity=39 time=356\n",
      "note_on channel=7 note=69 velocity=37 time=1\n",
      "note_on channel=7 note=69 velocity=0 time=24\n",
      "note_on channel=7 note=73 velocity=56 time=25\n",
      "note_on channel=7 note=71 velocity=0 time=11\n",
      "note_on channel=7 note=76 velocity=52 time=41\n",
      "note_on channel=7 note=73 velocity=0 time=14\n",
      "note_on channel=7 note=76 velocity=0 time=21\n",
      "note_on channel=7 note=76 velocity=67 time=23\n",
      "note_on channel=7 note=76 velocity=0 time=267\n",
      "note_on channel=7 note=71 velocity=54 time=5\n",
      "note_on channel=7 note=73 velocity=39 time=52\n",
      "note_on channel=7 note=71 velocity=0 time=4\n",
      "note_on channel=7 note=76 velocity=59 time=43\n",
      "note_on channel=7 note=73 velocity=0 time=22\n",
      "note_on channel=7 note=76 velocity=0 time=16\n",
      "note_on channel=7 note=76 velocity=67 time=18\n",
      "note_on channel=7 note=76 velocity=0 time=293\n",
      "note_on channel=7 note=71 velocity=49 time=8\n",
      "note_on channel=7 note=73 velocity=41 time=49\n",
      "note_on channel=7 note=71 velocity=0 time=5\n",
      "note_on channel=7 note=76 velocity=54 time=49\n",
      "note_on channel=7 note=73 velocity=0 time=24\n",
      "note_on channel=7 note=76 velocity=0 time=11\n",
      "note_on channel=7 note=76 velocity=58 time=26\n",
      "note_on channel=7 note=76 velocity=0 time=268\n",
      "note_on channel=7 note=71 velocity=42 time=19\n",
      "note_on channel=7 note=73 velocity=50 time=55\n",
      "note_on channel=7 note=71 velocity=0 time=4\n",
      "note_on channel=7 note=76 velocity=66 time=53\n",
      "note_on channel=7 note=73 velocity=0 time=17\n",
      "note_on channel=7 note=76 velocity=0 time=20\n",
      "note_on channel=7 note=76 velocity=68 time=21\n",
      "note_on channel=7 note=71 velocity=42 time=277\n",
      "note_on channel=7 note=76 velocity=0 time=4\n",
      "note_on channel=7 note=73 velocity=41 time=51\n",
      "note_on channel=7 note=71 velocity=0 time=5\n",
      "note_on channel=7 note=76 velocity=50 time=48\n",
      "note_on channel=7 note=73 velocity=0 time=19\n",
      "note_on channel=7 note=76 velocity=0 time=14\n",
      "note_on channel=7 note=76 velocity=51 time=24\n",
      "note_on channel=7 note=71 velocity=45 time=283\n",
      "note_on channel=7 note=76 velocity=0 time=4\n",
      "note_on channel=7 note=73 velocity=42 time=48\n",
      "note_on channel=7 note=71 velocity=0 time=34\n",
      "note_on channel=7 note=76 velocity=50 time=19\n",
      "note_on channel=7 note=73 velocity=0 time=34\n",
      "note_on channel=7 note=76 velocity=0 time=3\n",
      "note_on channel=7 note=76 velocity=46 time=27\n",
      "note_on channel=7 note=73 velocity=35 time=6\n",
      "note_on channel=7 note=73 velocity=0 time=219\n",
      "note_on channel=7 note=76 velocity=0 time=20\n",
      "note_on channel=7 note=71 velocity=43 time=18\n",
      "note_on channel=7 note=73 velocity=41 time=1\n",
      "note_on channel=7 note=76 velocity=38 time=61\n",
      "note_on channel=7 note=71 velocity=0 time=1\n",
      "note_on channel=7 note=73 velocity=0 time=52\n",
      "note_on channel=7 note=76 velocity=0 time=3\n",
      "note_on channel=7 note=76 velocity=42 time=9\n",
      "note_on channel=7 note=76 velocity=0 time=34\n",
      "note_on channel=7 note=76 velocity=45 time=27\n",
      "note_on channel=7 note=76 velocity=0 time=269\n",
      "note_on channel=7 note=71 velocity=37 time=21\n",
      "note_on channel=7 note=73 velocity=35 time=1\n",
      "note_on channel=7 note=73 velocity=0 time=34\n",
      "note_on channel=7 note=73 velocity=45 time=16\n",
      "note_on channel=7 note=71 velocity=0 time=1\n",
      "note_on channel=7 note=76 velocity=44 time=56\n",
      "note_on channel=7 note=76 velocity=0 time=31\n",
      "note_on channel=7 note=73 velocity=0 time=0\n",
      "note_on channel=7 note=76 velocity=44 time=26\n",
      "note_on channel=7 note=76 velocity=0 time=277\n",
      "MetaMessage('end_of_track', time=0)\n",
      "Track 8: Chorused P.\n",
      "MetaMessage('midi_port', port=0, time=0)\n",
      "MetaMessage('track_name', name='Chorused P.', time=0)\n",
      "control_change channel=8 control=0 value=0 time=0\n",
      "program_change channel=8 program=5 time=0\n",
      "control_change channel=8 control=7 value=90 time=0\n",
      "control_change channel=8 control=10 value=48 time=0\n",
      "note_on channel=8 note=71 velocity=39 time=356\n",
      "note_on channel=8 note=69 velocity=37 time=1\n",
      "note_on channel=8 note=69 velocity=0 time=24\n",
      "note_on channel=8 note=73 velocity=56 time=25\n",
      "note_on channel=8 note=71 velocity=0 time=11\n",
      "note_on channel=8 note=76 velocity=52 time=41\n",
      "note_on channel=8 note=73 velocity=0 time=14\n",
      "note_on channel=8 note=76 velocity=0 time=21\n",
      "note_on channel=8 note=76 velocity=67 time=23\n",
      "note_on channel=8 note=76 velocity=0 time=267\n",
      "note_on channel=8 note=71 velocity=54 time=5\n",
      "note_on channel=8 note=73 velocity=39 time=52\n",
      "note_on channel=8 note=71 velocity=0 time=4\n",
      "note_on channel=8 note=76 velocity=59 time=43\n",
      "note_on channel=8 note=73 velocity=0 time=22\n",
      "note_on channel=8 note=76 velocity=0 time=16\n",
      "note_on channel=8 note=76 velocity=67 time=18\n",
      "note_on channel=8 note=76 velocity=0 time=293\n",
      "note_on channel=8 note=71 velocity=49 time=8\n",
      "note_on channel=8 note=73 velocity=41 time=49\n",
      "note_on channel=8 note=71 velocity=0 time=5\n",
      "note_on channel=8 note=76 velocity=54 time=49\n",
      "note_on channel=8 note=73 velocity=0 time=24\n",
      "note_on channel=8 note=76 velocity=0 time=11\n",
      "note_on channel=8 note=76 velocity=58 time=26\n",
      "note_on channel=8 note=76 velocity=0 time=268\n",
      "note_on channel=8 note=71 velocity=42 time=19\n",
      "note_on channel=8 note=73 velocity=50 time=55\n",
      "note_on channel=8 note=71 velocity=0 time=4\n",
      "note_on channel=8 note=76 velocity=66 time=53\n",
      "note_on channel=8 note=73 velocity=0 time=17\n",
      "note_on channel=8 note=76 velocity=0 time=20\n",
      "note_on channel=8 note=76 velocity=68 time=21\n",
      "note_on channel=8 note=71 velocity=42 time=277\n",
      "note_on channel=8 note=76 velocity=0 time=4\n",
      "note_on channel=8 note=73 velocity=41 time=51\n",
      "note_on channel=8 note=71 velocity=0 time=5\n",
      "note_on channel=8 note=76 velocity=50 time=48\n",
      "note_on channel=8 note=73 velocity=0 time=19\n",
      "note_on channel=8 note=76 velocity=0 time=14\n",
      "note_on channel=8 note=76 velocity=51 time=24\n",
      "note_on channel=8 note=71 velocity=45 time=283\n",
      "note_on channel=8 note=76 velocity=0 time=4\n",
      "note_on channel=8 note=73 velocity=42 time=48\n",
      "note_on channel=8 note=71 velocity=0 time=34\n",
      "note_on channel=8 note=76 velocity=50 time=19\n",
      "note_on channel=8 note=73 velocity=0 time=34\n",
      "note_on channel=8 note=76 velocity=0 time=3\n",
      "note_on channel=8 note=76 velocity=46 time=27\n",
      "note_on channel=8 note=73 velocity=35 time=6\n",
      "note_on channel=8 note=73 velocity=0 time=219\n",
      "note_on channel=8 note=76 velocity=0 time=20\n",
      "note_on channel=8 note=71 velocity=43 time=18\n",
      "note_on channel=8 note=73 velocity=41 time=1\n",
      "note_on channel=8 note=76 velocity=38 time=61\n",
      "note_on channel=8 note=71 velocity=0 time=1\n",
      "note_on channel=8 note=73 velocity=0 time=52\n",
      "note_on channel=8 note=76 velocity=0 time=3\n",
      "note_on channel=8 note=76 velocity=42 time=9\n",
      "note_on channel=8 note=76 velocity=0 time=34\n",
      "note_on channel=8 note=76 velocity=45 time=27\n",
      "note_on channel=8 note=76 velocity=0 time=269\n",
      "note_on channel=8 note=71 velocity=37 time=21\n",
      "note_on channel=8 note=73 velocity=35 time=1\n",
      "note_on channel=8 note=73 velocity=0 time=34\n",
      "note_on channel=8 note=73 velocity=45 time=16\n",
      "note_on channel=8 note=71 velocity=0 time=1\n",
      "note_on channel=8 note=76 velocity=44 time=56\n",
      "note_on channel=8 note=76 velocity=0 time=31\n",
      "note_on channel=8 note=73 velocity=0 time=0\n",
      "note_on channel=8 note=76 velocity=44 time=26\n",
      "note_on channel=8 note=76 velocity=0 time=277\n",
      "MetaMessage('end_of_track', time=0)\n",
      "Track 9: Drum Track\n",
      "MetaMessage('midi_port', port=0, time=0)\n",
      "MetaMessage('track_name', name='Drum Track', time=0)\n"
     ]
    },
    {
     "name": "stdout",
     "output_type": "stream",
     "text": [
      "control_change channel=9 control=0 value=0 time=0\n",
      "program_change channel=9 program=0 time=0\n",
      "control_change channel=9 control=7 value=120 time=0\n",
      "control_change channel=9 control=10 value=63 time=0\n",
      "note_on channel=9 note=70 velocity=34 time=357\n",
      "note_on channel=9 note=70 velocity=0 time=22\n",
      "note_on channel=9 note=70 velocity=30 time=81\n",
      "note_on channel=9 note=70 velocity=0 time=18\n",
      "note_on channel=9 note=70 velocity=28 time=92\n",
      "note_on channel=9 note=70 velocity=0 time=19\n",
      "note_on channel=9 note=70 velocity=11 time=204\n",
      "note_on channel=9 note=70 velocity=0 time=32\n",
      "note_on channel=9 note=70 velocity=32 time=86\n",
      "note_on channel=9 note=70 velocity=0 time=17\n",
      "note_on channel=9 note=70 velocity=24 time=69\n",
      "note_on channel=9 note=70 velocity=0 time=21\n",
      "note_on channel=9 note=70 velocity=19 time=207\n",
      "note_on channel=9 note=70 velocity=0 time=25\n",
      "note_on channel=9 note=70 velocity=32 time=92\n",
      "note_on channel=9 note=70 velocity=0 time=21\n",
      "note_on channel=9 note=70 velocity=28 time=97\n",
      "note_on channel=9 note=70 velocity=0 time=27\n",
      "note_on channel=9 note=70 velocity=19 time=96\n",
      "note_on channel=9 note=70 velocity=0 time=17\n",
      "note_on channel=9 note=70 velocity=24 time=209\n",
      "note_on channel=9 note=70 velocity=0 time=31\n",
      "note_on channel=9 note=70 velocity=33 time=74\n",
      "note_on channel=9 note=70 velocity=0 time=32\n",
      "note_on channel=9 note=70 velocity=23 time=306\n",
      "note_on channel=9 note=70 velocity=0 time=32\n",
      "note_on channel=9 note=70 velocity=28 time=72\n",
      "note_on channel=9 note=70 velocity=0 time=27\n",
      "note_on channel=9 note=70 velocity=24 time=72\n",
      "note_on channel=9 note=70 velocity=0 time=22\n",
      "note_on channel=9 note=70 velocity=17 time=203\n",
      "note_on channel=9 note=70 velocity=0 time=40\n",
      "note_on channel=9 note=70 velocity=29 time=81\n",
      "note_on channel=9 note=70 velocity=0 time=35\n",
      "note_on channel=9 note=70 velocity=29 time=75\n",
      "note_on channel=9 note=70 velocity=0 time=32\n",
      "note_on channel=9 note=70 velocity=32 time=178\n",
      "note_on channel=9 note=70 velocity=0 time=29\n",
      "note_on channel=9 note=70 velocity=24 time=91\n",
      "note_on channel=9 note=70 velocity=0 time=29\n",
      "note_on channel=9 note=70 velocity=28 time=71\n",
      "note_on channel=9 note=70 velocity=0 time=26\n",
      "note_on channel=9 note=70 velocity=26 time=198\n",
      "note_on channel=9 note=70 velocity=0 time=32\n",
      "note_on channel=9 note=70 velocity=27 time=166\n",
      "note_on channel=9 note=70 velocity=0 time=24\n",
      "note_on channel=9 note=70 velocity=15 time=258\n",
      "note_on channel=9 note=70 velocity=0 time=71\n",
      "note_on channel=9 note=42 velocity=18 time=185\n",
      "note_on channel=9 note=42 velocity=0 time=48\n",
      "note_on channel=9 note=42 velocity=22 time=43\n",
      "note_on channel=9 note=42 velocity=0 time=49\n",
      "note_on channel=9 note=44 velocity=24 time=34\n",
      "note_on channel=9 note=44 velocity=0 time=252\n",
      "note_on channel=9 note=42 velocity=19 time=70\n",
      "note_on channel=9 note=42 velocity=0 time=53\n",
      "note_on channel=9 note=44 velocity=24 time=19\n",
      "note_on channel=9 note=44 velocity=0 time=62\n",
      "note_on channel=9 note=42 velocity=21 time=19\n",
      "note_on channel=9 note=42 velocity=0 time=70\n",
      "note_on channel=9 note=46 velocity=40 time=67\n",
      "note_on channel=9 note=44 velocity=19 time=13\n",
      "note_on channel=9 note=46 velocity=0 time=4\n",
      "note_on channel=9 note=44 velocity=0 time=246\n",
      "note_on channel=9 note=42 velocity=43 time=188\n",
      "note_on channel=9 note=42 velocity=0 time=25\n",
      "note_on channel=9 note=42 velocity=35 time=44\n",
      "note_on channel=9 note=37 velocity=42 time=78\n",
      "note_on channel=9 note=59 velocity=1 time=5\n",
      "note_on channel=9 note=44 velocity=26 time=2\n",
      "note_on channel=9 note=42 velocity=0 time=10\n",
      "note_on channel=9 note=59 velocity=0 time=73\n",
      "note_on channel=9 note=59 velocity=22 time=70\n",
      "note_on channel=9 note=59 velocity=0 time=49\n",
      "note_on channel=9 note=44 velocity=0 time=106\n",
      "note_on channel=9 note=37 velocity=0 time=8\n",
      "note_on channel=9 note=42 velocity=23 time=72\n",
      "note_on channel=9 note=42 velocity=0 time=42\n",
      "note_on channel=9 note=42 velocity=26 time=34\n",
      "note_on channel=9 note=44 velocity=25 time=69\n",
      "note_on channel=9 note=42 velocity=0 time=11\n",
      "note_on channel=9 note=44 velocity=0 time=30\n",
      "note_on channel=9 note=37 velocity=74 time=23\n",
      "note_on channel=9 note=44 velocity=33 time=1\n",
      "note_on channel=9 note=59 velocity=16 time=148\n",
      "note_on channel=9 note=59 velocity=0 time=38\n",
      "note_on channel=9 note=37 velocity=0 time=5\n",
      "note_on channel=9 note=44 velocity=0 time=35\n",
      "note_on channel=9 note=42 velocity=16 time=71\n",
      "note_on channel=9 note=42 velocity=0 time=44\n",
      "note_on channel=9 note=42 velocity=21 time=25\n",
      "note_on channel=9 note=42 velocity=0 time=35\n",
      "note_on channel=9 note=42 velocity=13 time=99\n",
      "note_on channel=9 note=42 velocity=0 time=40\n",
      "note_on channel=9 note=44 velocity=23 time=62\n",
      "note_on channel=9 note=37 velocity=81 time=9\n",
      "note_on channel=9 note=59 velocity=13 time=136\n",
      "note_on channel=9 note=44 velocity=0 time=63\n",
      "note_on channel=9 note=59 velocity=0 time=9\n",
      "note_on channel=9 note=37 velocity=0 time=33\n",
      "note_on channel=9 note=42 velocity=18 time=64\n",
      "note_on channel=9 note=42 velocity=0 time=45\n",
      "note_on channel=9 note=42 velocity=21 time=20\n",
      "note_on channel=9 note=42 velocity=0 time=91\n",
      "note_on channel=9 note=44 velocity=26 time=41\n",
      "note_on channel=9 note=44 velocity=0 time=40\n",
      "note_on channel=9 note=37 velocity=46 time=42\n",
      "note_on channel=9 note=44 velocity=30 time=10\n",
      "note_on channel=9 note=59 velocity=13 time=144\n",
      "note_on channel=9 note=59 velocity=0 time=42\n",
      "note_on channel=9 note=42 velocity=26 time=34\n",
      "note_on channel=9 note=37 velocity=0 time=1\n",
      "note_on channel=9 note=42 velocity=0 time=31\n",
      "note_on channel=9 note=44 velocity=0 time=18\n",
      "note_on channel=9 note=42 velocity=16 time=43\n",
      "note_on channel=9 note=42 velocity=0 time=111\n",
      "note_on channel=9 note=42 velocity=19 time=25\n",
      "note_on channel=9 note=42 velocity=0 time=137\n",
      "note_on channel=9 note=37 velocity=102 time=3\n",
      "note_on channel=9 note=44 velocity=24 time=3\n",
      "note_on channel=9 note=59 velocity=12 time=162\n",
      "note_on channel=9 note=44 velocity=0 time=15\n",
      "note_on channel=9 note=59 velocity=0 time=23\n",
      "note_on channel=9 note=42 velocity=25 time=8\n",
      "note_on channel=9 note=37 velocity=0 time=26\n",
      "note_on channel=9 note=42 velocity=0 time=16\n",
      "note_on channel=9 note=42 velocity=23 time=47\n",
      "note_on channel=9 note=42 velocity=0 time=36\n",
      "note_on channel=9 note=42 velocity=33 time=25\n",
      "note_on channel=9 note=42 velocity=0 time=50\n",
      "note_on channel=9 note=42 velocity=20 time=36\n",
      "note_on channel=9 note=42 velocity=0 time=99\n",
      "note_on channel=9 note=44 velocity=33 time=31\n",
      "note_on channel=9 note=37 velocity=102 time=6\n",
      "note_on channel=9 note=44 velocity=0 time=85\n",
      "note_on channel=9 note=59 velocity=11 time=88\n",
      "note_on channel=9 note=59 velocity=0 time=42\n",
      "note_on channel=9 note=44 velocity=18 time=28\n",
      "note_on channel=9 note=44 velocity=0 time=17\n",
      "note_on channel=9 note=37 velocity=0 time=34\n",
      "note_on channel=9 note=35 velocity=70 time=16\n",
      "note_on channel=9 note=42 velocity=19 time=11\n",
      "note_on channel=9 note=42 velocity=0 time=35\n",
      "note_on channel=9 note=42 velocity=44 time=19\n",
      "note_on channel=9 note=42 velocity=0 time=33\n",
      "note_on channel=9 note=42 velocity=26 time=53\n",
      "note_on channel=9 note=42 velocity=0 time=19\n",
      "note_on channel=9 note=42 velocity=35 time=40\n",
      "note_on channel=9 note=42 velocity=0 time=31\n",
      "note_on channel=9 note=44 velocity=56 time=40\n",
      "note_on channel=9 note=37 velocity=119 time=0\n",
      "note_on channel=9 note=35 velocity=0 time=6\n",
      "note_on channel=9 note=44 velocity=0 time=85\n",
      "note_on channel=9 note=37 velocity=0 time=83\n",
      "note_on channel=9 note=42 velocity=27 time=17\n",
      "note_on channel=9 note=42 velocity=0 time=33\n",
      "note_on channel=9 note=35 velocity=86 time=55\n",
      "note_on channel=9 note=42 velocity=21 time=3\n",
      "note_on channel=9 note=42 velocity=0 time=33\n",
      "note_on channel=9 note=42 velocity=27 time=31\n",
      "note_on channel=9 note=42 velocity=0 time=50\n",
      "note_on channel=9 note=42 velocity=19 time=31\n",
      "note_on channel=9 note=42 velocity=0 time=24\n",
      "note_on channel=9 note=42 velocity=29 time=37\n",
      "note_on channel=9 note=42 velocity=0 time=44\n",
      "note_on channel=9 note=35 velocity=0 time=29\n",
      "note_on channel=9 note=44 velocity=45 time=3\n",
      "note_on channel=9 note=37 velocity=102 time=6\n",
      "note_on channel=9 note=44 velocity=0 time=30\n",
      "note_on channel=9 note=59 velocity=28 time=94\n",
      "note_on channel=9 note=59 velocity=0 time=34\n",
      "note_on channel=9 note=37 velocity=0 time=15\n",
      "note_on channel=9 note=35 velocity=65 time=20\n",
      "note_on channel=9 note=42 velocity=13 time=25\n",
      "note_on channel=9 note=35 velocity=0 time=10\n",
      "note_on channel=9 note=42 velocity=0 time=13\n",
      "note_on channel=9 note=42 velocity=28 time=23\n",
      "note_on channel=9 note=35 velocity=90 time=14\n",
      "note_on channel=9 note=42 velocity=0 time=17\n",
      "note_on channel=9 note=42 velocity=32 time=39\n",
      "note_on channel=9 note=42 velocity=0 time=45\n",
      "note_on channel=9 note=42 velocity=38 time=32\n",
      "note_on channel=9 note=42 velocity=0 time=20\n",
      "note_on channel=9 note=42 velocity=30 time=54\n",
      "note_on channel=9 note=42 velocity=0 time=44\n",
      "note_on channel=9 note=37 velocity=112 time=24\n",
      "note_on channel=9 note=44 velocity=32 time=6\n",
      "note_on channel=9 note=35 velocity=0 time=3\n",
      "note_on channel=9 note=44 velocity=0 time=63\n",
      "note_on channel=9 note=54 velocity=25 time=61\n",
      "note_on channel=9 note=54 velocity=0 time=37\n",
      "note_on channel=9 note=42 velocity=34 time=37\n",
      "note_on channel=9 note=42 velocity=0 time=37\n",
      "note_on channel=9 note=37 velocity=0 time=18\n",
      "note_on channel=9 note=35 velocity=86 time=22\n",
      "note_on channel=9 note=42 velocity=18 time=9\n",
      "note_on channel=9 note=42 velocity=0 time=45\n",
      "note_on channel=9 note=42 velocity=27 time=21\n",
      "note_on channel=9 note=42 velocity=0 time=53\n",
      "note_on channel=9 note=42 velocity=27 time=27\n",
      "note_on channel=9 note=42 velocity=0 time=37\n",
      "note_on channel=9 note=42 velocity=30 time=26\n",
      "note_on channel=9 note=42 velocity=0 time=43\n",
      "note_on channel=9 note=37 velocity=114 time=26\n",
      "note_on channel=9 note=44 velocity=39 time=3\n",
      "note_on channel=9 note=35 velocity=0 time=10\n",
      "note_on channel=9 note=44 velocity=0 time=34\n",
      "note_on channel=9 note=42 velocity=30 time=163\n",
      "note_on channel=9 note=42 velocity=0 time=20\n",
      "note_on channel=9 note=37 velocity=0 time=26\n",
      "note_on channel=9 note=42 velocity=31 time=19\n",
      "note_on channel=9 note=35 velocity=83 time=3\n",
      "note_on channel=9 note=42 velocity=0 time=37\n",
      "note_on channel=9 note=42 velocity=26 time=30\n",
      "note_on channel=9 note=42 velocity=0 time=45\n",
      "note_on channel=9 note=42 velocity=35 time=36\n",
      "note_on channel=9 note=42 velocity=0 time=111\n",
      "note_on channel=9 note=35 velocity=0 time=24\n",
      "note_on channel=9 note=44 velocity=36 time=7\n",
      "note_on channel=9 note=37 velocity=105 time=0\n",
      "note_on channel=9 note=44 velocity=0 time=46\n",
      "note_on channel=9 note=59 velocity=26 time=69\n",
      "note_on channel=9 note=59 velocity=0 time=56\n",
      "note_on channel=9 note=37 velocity=0 time=37\n",
      "note_on channel=9 note=35 velocity=81 time=1\n",
      "note_on channel=9 note=42 velocity=25 time=7\n",
      "note_on channel=9 note=35 velocity=0 time=26\n",
      "note_on channel=9 note=42 velocity=0 time=7\n",
      "note_on channel=9 note=42 velocity=28 time=34\n",
      "note_on channel=9 note=35 velocity=67 time=7\n",
      "note_on channel=9 note=42 velocity=0 time=27\n",
      "note_on channel=9 note=42 velocity=30 time=34\n",
      "note_on channel=9 note=42 velocity=0 time=47\n",
      "note_on channel=9 note=42 velocity=42 time=25\n",
      "note_on channel=9 note=42 velocity=0 time=37\n",
      "note_on channel=9 note=42 velocity=26 time=37\n",
      "note_on channel=9 note=42 velocity=0 time=52\n",
      "note_on channel=9 note=37 velocity=102 time=18\n",
      "note_on channel=9 note=35 velocity=0 time=1\n",
      "note_on channel=9 note=44 velocity=39 time=12\n",
      "note_on channel=9 note=44 velocity=0 time=64\n",
      "note_on channel=9 note=37 velocity=0 time=44\n",
      "note_on channel=9 note=59 velocity=18 time=29\n",
      "note_on channel=9 note=59 velocity=0 time=54\n",
      "note_on channel=9 note=42 velocity=25 time=68\n",
      "note_on channel=9 note=35 velocity=66 time=3\n",
      "note_on channel=9 note=42 velocity=0 time=47\n",
      "note_on channel=9 note=42 velocity=32 time=27\n",
      "note_on channel=9 note=42 velocity=0 time=45\n",
      "note_on channel=9 note=42 velocity=24 time=29\n",
      "note_on channel=9 note=35 velocity=0 time=40\n",
      "note_on channel=9 note=42 velocity=0 time=7\n",
      "note_on channel=9 note=42 velocity=32 time=20\n",
      "note_on channel=9 note=35 velocity=50 time=7\n",
      "note_on channel=9 note=35 velocity=0 time=71\n",
      "note_on channel=9 note=37 velocity=94 time=1\n",
      "note_on channel=9 note=44 velocity=39 time=16\n",
      "note_on channel=9 note=42 velocity=0 time=2\n",
      "note_on channel=9 note=44 velocity=0 time=30\n",
      "note_on channel=9 note=37 velocity=0 time=188\n",
      "note_on channel=9 note=42 velocity=51 time=42\n",
      "note_on channel=9 note=35 velocity=70 time=6\n",
      "note_on channel=9 note=42 velocity=0 time=27\n",
      "note_on channel=9 note=42 velocity=32 time=43\n",
      "note_on channel=9 note=42 velocity=0 time=40\n",
      "note_on channel=9 note=42 velocity=35 time=43\n",
      "note_on channel=9 note=42 velocity=0 time=31\n",
      "note_on channel=9 note=35 velocity=0 time=34\n",
      "note_on channel=9 note=42 velocity=33 time=5\n",
      "note_on channel=9 note=42 velocity=0 time=36\n",
      "note_on channel=9 note=37 velocity=77 time=25\n",
      "note_on channel=9 note=44 velocity=35 time=6\n",
      "note_on channel=9 note=44 velocity=0 time=38\n",
      "note_on channel=9 note=37 velocity=0 time=62\n",
      "note_on channel=9 note=35 velocity=26 time=99\n",
      "note_on channel=9 note=35 velocity=0 time=13\n",
      "note_on channel=9 note=35 velocity=61 time=42\n",
      "note_on channel=9 note=49 velocity=27 time=6\n",
      "note_on channel=9 note=42 velocity=46 time=6\n",
      "note_on channel=9 note=49 velocity=0 time=31\n",
      "note_on channel=9 note=42 velocity=0 time=7\n",
      "note_on channel=9 note=42 velocity=26 time=23\n",
      "note_on channel=9 note=42 velocity=0 time=119\n",
      "note_on channel=9 note=35 velocity=0 time=11\n",
      "note_on channel=9 note=42 velocity=29 time=10\n",
      "note_on channel=9 note=42 velocity=0 time=36\n",
      "note_on channel=9 note=37 velocity=86 time=33\n",
      "note_on channel=9 note=44 velocity=35 time=8\n",
      "note_on channel=9 note=44 velocity=0 time=111\n",
      "note_on channel=9 note=42 velocity=25 time=92\n",
      "note_on channel=9 note=42 velocity=0 time=21\n",
      "note_on channel=9 note=37 velocity=0 time=30\n",
      "note_on channel=9 note=35 velocity=105 time=9\n",
      "note_on channel=9 note=42 velocity=32 time=3\n",
      "note_on channel=9 note=42 velocity=0 time=33\n",
      "note_on channel=9 note=42 velocity=27 time=33\n",
      "note_on channel=9 note=42 velocity=0 time=45\n",
      "note_on channel=9 note=42 velocity=31 time=25\n",
      "note_on channel=9 note=42 velocity=0 time=29\n",
      "note_on channel=9 note=42 velocity=31 time=35\n",
      "note_on channel=9 note=35 velocity=0 time=30\n",
      "note_on channel=9 note=42 velocity=0 time=21\n",
      "note_on channel=9 note=31 velocity=90 time=25\n",
      "note_on channel=9 note=37 velocity=86 time=2\n",
      "note_on channel=9 note=44 velocity=31 time=1\n",
      "note_on channel=9 note=44 velocity=0 time=51\n",
      "note_on channel=9 note=31 velocity=0 time=8\n",
      "note_on channel=9 note=42 velocity=33 time=142\n",
      "note_on channel=9 note=42 velocity=0 time=34\n",
      "note_on channel=9 note=37 velocity=0 time=28\n",
      "note_on channel=9 note=35 velocity=72 time=7\n",
      "note_on channel=9 note=42 velocity=20 time=15\n",
      "note_on channel=9 note=42 velocity=0 time=31\n",
      "note_on channel=9 note=42 velocity=24 time=37\n",
      "note_on channel=9 note=42 velocity=0 time=50\n",
      "note_on channel=9 note=42 velocity=36 time=24\n",
      "note_on channel=9 note=42 velocity=0 time=28\n",
      "note_on channel=9 note=42 velocity=14 time=35\n",
      "note_on channel=9 note=42 velocity=0 time=54\n",
      "note_on channel=9 note=59 velocity=24 time=15\n",
      "note_on channel=9 note=35 velocity=0 time=1\n",
      "note_on channel=9 note=37 velocity=78 time=13\n",
      "note_on channel=9 note=44 velocity=46 time=3\n",
      "note_on channel=9 note=59 velocity=0 time=24\n",
      "note_on channel=9 note=44 velocity=0 time=32\n",
      "note_on channel=9 note=42 velocity=32 time=206\n",
      "note_on channel=9 note=37 velocity=0 time=4\n",
      "note_on channel=9 note=35 velocity=94 time=3\n",
      "note_on channel=9 note=42 velocity=0 time=50\n",
      "note_on channel=9 note=42 velocity=19 time=32\n",
      "note_on channel=9 note=42 velocity=0 time=47\n",
      "note_on channel=9 note=42 velocity=21 time=23\n",
      "note_on channel=9 note=42 velocity=0 time=52\n",
      "note_on channel=9 note=42 velocity=25 time=26\n",
      "note_on channel=9 note=42 velocity=0 time=42\n",
      "note_on channel=9 note=35 velocity=0 time=17\n",
      "note_on channel=9 note=37 velocity=124 time=5\n",
      "note_on channel=9 note=44 velocity=30 time=4\n",
      "note_on channel=9 note=42 velocity=20 time=3\n",
      "note_on channel=9 note=42 velocity=0 time=30\n",
      "note_on channel=9 note=44 velocity=0 time=49\n",
      "note_on channel=9 note=42 velocity=22 time=173\n",
      "note_on channel=9 note=37 velocity=0 time=11\n",
      "note_on channel=9 note=35 velocity=102 time=0\n",
      "note_on channel=9 note=42 velocity=0 time=29\n",
      "note_on channel=9 note=42 velocity=25 time=29\n",
      "note_on channel=9 note=42 velocity=0 time=46\n",
      "note_on channel=9 note=42 velocity=27 time=34\n",
      "note_on channel=9 note=42 velocity=0 time=44\n",
      "note_on channel=9 note=42 velocity=34 time=33\n",
      "note_on channel=9 note=42 velocity=0 time=40\n",
      "note_on channel=9 note=37 velocity=102 time=35\n",
      "note_on channel=9 note=35 velocity=0 time=1\n",
      "note_on channel=9 note=59 velocity=20 time=7\n",
      "note_on channel=9 note=44 velocity=33 time=1\n",
      "note_on channel=9 note=59 velocity=0 time=20\n",
      "note_on channel=9 note=44 velocity=0 time=162\n",
      "note_on channel=9 note=42 velocity=27 time=68\n",
      "note_on channel=9 note=37 velocity=0 time=3\n",
      "note_on channel=9 note=35 velocity=68 time=2\n",
      "note_on channel=9 note=42 velocity=0 time=46\n",
      "note_on channel=9 note=42 velocity=27 time=20\n",
      "note_on channel=9 note=42 velocity=0 time=48\n",
      "note_on channel=9 note=42 velocity=27 time=15\n",
      "note_on channel=9 note=42 velocity=0 time=53\n",
      "note_on channel=9 note=42 velocity=36 time=18\n",
      "note_on channel=9 note=42 velocity=0 time=54\n",
      "note_on channel=9 note=35 velocity=0 time=16\n",
      "note_on channel=9 note=44 velocity=36 time=15\n",
      "note_on channel=9 note=37 velocity=66 time=1\n",
      "note_on channel=9 note=59 velocity=16 time=4\n",
      "note_on channel=9 note=59 velocity=0 time=39\n",
      "note_on channel=9 note=44 velocity=0 time=48\n",
      "note_on channel=9 note=42 velocity=26 time=129\n",
      "note_on channel=9 note=42 velocity=0 time=23\n",
      "note_on channel=9 note=37 velocity=0 time=5\n",
      "note_on channel=9 note=35 velocity=81 time=35\n",
      "note_on channel=9 note=42 velocity=36 time=66\n",
      "note_on channel=9 note=42 velocity=0 time=32\n",
      "note_on channel=9 note=42 velocity=26 time=58\n",
      "note_on channel=9 note=42 velocity=0 time=32\n",
      "note_on channel=9 note=42 velocity=29 time=33\n",
      "note_on channel=9 note=42 velocity=0 time=30\n",
      "note_on channel=9 note=59 velocity=29 time=50\n",
      "note_on channel=9 note=42 velocity=24 time=6\n",
      "note_on channel=9 note=35 velocity=0 time=13\n",
      "note_on channel=9 note=37 velocity=70 time=8\n",
      "note_on channel=9 note=42 velocity=0 time=9\n",
      "note_on channel=9 note=59 velocity=0 time=3\n",
      "note_on channel=9 note=44 velocity=37 time=34\n",
      "note_on channel=9 note=44 velocity=0 time=42\n",
      "note_on channel=9 note=37 velocity=0 time=147\n",
      "note_on channel=9 note=35 velocity=59 time=79\n",
      "note_on channel=9 note=42 velocity=27 time=12\n",
      "note_on channel=9 note=42 velocity=0 time=38\n",
      "note_on channel=9 note=42 velocity=27 time=43\n",
      "note_on channel=9 note=42 velocity=0 time=25\n",
      "note_on channel=9 note=42 velocity=28 time=40\n",
      "note_on channel=9 note=42 velocity=0 time=29\n",
      "note_on channel=9 note=42 velocity=29 time=51\n",
      "note_on channel=9 note=35 velocity=0 time=42\n",
      "note_on channel=9 note=42 velocity=0 time=11\n",
      "note_on channel=9 note=44 velocity=32 time=13\n",
      "note_on channel=9 note=59 velocity=22 time=8\n",
      "note_on channel=9 note=37 velocity=105 time=2\n",
      "note_on channel=9 note=59 velocity=0 time=37\n",
      "note_on channel=9 note=44 velocity=0 time=7\n",
      "note_on channel=9 note=37 velocity=0 time=56\n",
      "note_on channel=9 note=35 velocity=83 time=101\n",
      "note_on channel=9 note=35 velocity=0 time=29\n",
      "note_on channel=9 note=35 velocity=94 time=47\n",
      "note_on channel=9 note=42 velocity=20 time=13\n",
      "note_on channel=9 note=42 velocity=0 time=18\n",
      "note_on channel=9 note=42 velocity=23 time=108\n",
      "note_on channel=9 note=42 velocity=0 time=23\n",
      "note_on channel=9 note=42 velocity=19 time=56\n",
      "note_on channel=9 note=44 velocity=59 time=51\n",
      "note_on channel=9 note=35 velocity=0 time=5\n",
      "note_on channel=9 note=54 velocity=29 time=2\n",
      "note_on channel=9 note=42 velocity=0 time=2\n",
      "note_on channel=9 note=37 velocity=99 time=6\n",
      "note_on channel=9 note=54 velocity=0 time=22\n",
      "note_on channel=9 note=44 velocity=0 time=47\n",
      "note_on channel=9 note=42 velocity=26 time=122\n",
      "note_on channel=9 note=42 velocity=0 time=21\n",
      "note_on channel=9 note=37 velocity=0 time=15\n",
      "note_on channel=9 note=35 velocity=81 time=54\n",
      "note_on channel=9 note=42 velocity=34 time=59\n",
      "note_on channel=9 note=42 velocity=0 time=26\n",
      "note_on channel=9 note=42 velocity=17 time=66\n",
      "note_on channel=9 note=42 velocity=0 time=29\n",
      "note_on channel=9 note=42 velocity=33 time=29\n",
      "note_on channel=9 note=54 velocity=18 time=9\n",
      "note_on channel=9 note=42 velocity=0 time=36\n",
      "note_on channel=9 note=54 velocity=0 time=1\n",
      "note_on channel=9 note=35 velocity=0 time=7\n",
      "note_on channel=9 note=37 velocity=119 time=14\n",
      "note_on channel=9 note=44 velocity=27 time=7\n",
      "note_on channel=9 note=59 velocity=27 time=3\n",
      "note_on channel=9 note=59 velocity=0 time=30\n",
      "note_on channel=9 note=44 velocity=0 time=47\n",
      "note_on channel=9 note=37 velocity=0 time=146\n",
      "note_on channel=9 note=42 velocity=31 time=43\n",
      "note_on channel=9 note=35 velocity=112 time=7\n",
      "note_on channel=9 note=42 velocity=0 time=26\n",
      "note_on channel=9 note=42 velocity=28 time=38\n",
      "note_on channel=9 note=42 velocity=0 time=28\n",
      "note_on channel=9 note=42 velocity=29 time=46\n",
      "note_on channel=9 note=42 velocity=0 time=42\n",
      "note_on channel=9 note=42 velocity=27 time=33\n",
      "note_on channel=9 note=54 velocity=18 time=14\n",
      "note_on channel=9 note=42 velocity=0 time=14\n",
      "note_on channel=9 note=54 velocity=0 time=32\n",
      "note_on channel=9 note=35 velocity=0 time=3\n",
      "note_on channel=9 note=44 velocity=28 time=7\n",
      "note_on channel=9 note=37 velocity=127 time=4\n",
      "note_on channel=9 note=44 velocity=0 time=49\n",
      "note_on channel=9 note=37 velocity=0 time=149\n",
      "note_on channel=9 note=35 velocity=92 time=4\n",
      "note_on channel=9 note=42 velocity=26 time=1\n",
      "note_on channel=9 note=42 velocity=0 time=22\n",
      "note_on channel=9 note=35 velocity=0 time=12\n",
      "note_on channel=9 note=42 velocity=28 time=38\n",
      "note_on channel=9 note=35 velocity=102 time=6\n",
      "note_on channel=9 note=42 velocity=0 time=25\n",
      "note_on channel=9 note=42 velocity=29 time=47\n",
      "note_on channel=9 note=42 velocity=0 time=8\n",
      "note_on channel=9 note=42 velocity=25 time=41\n",
      "note_on channel=9 note=44 velocity=50 time=73\n",
      "note_on channel=9 note=42 velocity=0 time=12\n",
      "note_on channel=9 note=44 velocity=0 time=23\n",
      "note_on channel=9 note=35 velocity=0 time=37\n",
      "note_on channel=9 note=44 velocity=35 time=0\n",
      "note_on channel=9 note=59 velocity=26 time=0\n",
      "note_on channel=9 note=37 velocity=73 time=1\n",
      "note_on channel=9 note=59 velocity=0 time=36\n",
      "note_on channel=9 note=44 velocity=0 time=5\n",
      "note_on channel=9 note=37 velocity=0 time=205\n",
      "note_on channel=9 note=35 velocity=65 time=12\n",
      "note_on channel=9 note=42 velocity=36 time=54\n",
      "note_on channel=9 note=42 velocity=0 time=34\n",
      "note_on channel=9 note=42 velocity=32 time=34\n",
      "note_on channel=9 note=42 velocity=0 time=50\n",
      "note_on channel=9 note=42 velocity=36 time=33\n",
      "note_on channel=9 note=42 velocity=0 time=43\n",
      "note_on channel=9 note=35 velocity=0 time=40\n",
      "note_on channel=9 note=44 velocity=33 time=2\n",
      "note_on channel=9 note=37 velocity=92 time=10\n",
      "note_on channel=9 note=59 velocity=28 time=2\n",
      "note_on channel=9 note=59 velocity=0 time=34\n",
      "note_on channel=9 note=44 velocity=0 time=44\n",
      "note_on channel=9 note=35 velocity=59 time=124\n",
      "note_on channel=9 note=35 velocity=0 time=32\n",
      "note_on channel=9 note=42 velocity=28 time=41\n",
      "note_on channel=9 note=35 velocity=92 time=6\n",
      "note_on channel=9 note=37 velocity=0 time=13\n",
      "note_on channel=9 note=42 velocity=0 time=10\n",
      "note_on channel=9 note=42 velocity=26 time=39\n",
      "note_on channel=9 note=42 velocity=0 time=36\n",
      "note_on channel=9 note=42 velocity=26 time=38\n",
      "note_on channel=9 note=42 velocity=0 time=39\n",
      "note_on channel=9 note=42 velocity=33 time=23\n",
      "note_on channel=9 note=42 velocity=0 time=38\n",
      "note_on channel=9 note=44 velocity=39 time=43\n",
      "note_on channel=9 note=59 velocity=26 time=2\n",
      "note_on channel=9 note=37 velocity=127 time=5\n",
      "note_on channel=9 note=35 velocity=0 time=5\n",
      "note_on channel=9 note=59 velocity=0 time=34\n",
      "note_on channel=9 note=44 velocity=0 time=54\n",
      "note_on channel=9 note=35 velocity=92 time=192\n",
      "note_on channel=9 note=37 velocity=0 time=5\n",
      "note_on channel=9 note=42 velocity=24 time=4\n",
      "note_on channel=9 note=42 velocity=0 time=33\n",
      "note_on channel=9 note=42 velocity=30 time=31\n",
      "note_on channel=9 note=42 velocity=0 time=100\n",
      "note_on channel=9 note=42 velocity=20 time=46\n",
      "note_on channel=9 note=42 velocity=0 time=55\n",
      "note_on channel=9 note=44 velocity=23 time=7\n",
      "note_on channel=9 note=37 velocity=97 time=9\n",
      "note_on channel=9 note=44 velocity=0 time=72\n",
      "note_on channel=9 note=35 velocity=0 time=4\n",
      "note_on channel=9 note=42 velocity=23 time=199\n",
      "note_on channel=9 note=37 velocity=0 time=2\n",
      "note_on channel=9 note=35 velocity=92 time=6\n",
      "note_on channel=9 note=42 velocity=0 time=29\n",
      "note_on channel=9 note=42 velocity=28 time=99\n",
      "note_on channel=9 note=44 velocity=22 time=75\n",
      "note_on channel=9 note=42 velocity=0 time=11\n",
      "note_on channel=9 note=44 velocity=0 time=20\n",
      "note_on channel=9 note=35 velocity=0 time=32\n",
      "note_on channel=9 note=37 velocity=108 time=17\n",
      "note_on channel=9 note=44 velocity=25 time=18\n",
      "note_on channel=9 note=44 velocity=0 time=29\n",
      "note_on channel=9 note=37 velocity=0 time=213\n",
      "note_on channel=9 note=35 velocity=86 time=11\n",
      "note_on channel=9 note=42 velocity=24 time=1\n",
      "note_on channel=9 note=42 velocity=0 time=26\n",
      "note_on channel=9 note=42 velocity=1 time=104\n",
      "note_on channel=9 note=42 velocity=0 time=30\n",
      "note_on channel=9 note=35 velocity=0 time=10\n",
      "note_on channel=9 note=42 velocity=25 time=32\n",
      "note_on channel=9 note=44 velocity=26 time=70\n",
      "note_on channel=9 note=37 velocity=69 time=0\n",
      "note_on channel=9 note=42 velocity=0 time=3\n",
      "note_on channel=9 note=44 velocity=0 time=40\n",
      "note_on channel=9 note=37 velocity=0 time=7\n",
      "note_on channel=9 note=37 velocity=23 time=256\n",
      "note_on channel=9 note=37 velocity=0 time=36\n",
      "note_on channel=9 note=42 velocity=36 time=34\n",
      "note_on channel=9 note=42 velocity=0 time=16\n",
      "note_on channel=9 note=37 velocity=25 time=52\n",
      "note_on channel=9 note=37 velocity=0 time=26\n",
      "note_on channel=9 note=47 velocity=68 time=47\n",
      "note_on channel=9 note=42 velocity=31 time=1\n",
      "note_on channel=9 note=47 velocity=0 time=19\n",
      "note_on channel=9 note=42 velocity=0 time=5\n",
      "note_on channel=9 note=43 velocity=62 time=101\n",
      "note_on channel=9 note=42 velocity=46 time=3\n",
      "note_on channel=9 note=37 velocity=34 time=4\n",
      "note_on channel=9 note=43 velocity=0 time=8\n",
      "note_on channel=9 note=37 velocity=0 time=23\n",
      "note_on channel=9 note=42 velocity=0 time=22\n",
      "note_on channel=9 note=46 velocity=99 time=10\n",
      "note_on channel=9 note=41 velocity=94 time=9\n",
      "note_on channel=9 note=35 velocity=68 time=4\n",
      "note_on channel=9 note=41 velocity=0 time=12\n",
      "note_on channel=9 note=35 velocity=0 time=8\n",
      "note_on channel=9 note=46 velocity=0 time=2\n",
      "note_on channel=9 note=35 velocity=50 time=41\n",
      "note_on channel=9 note=51 velocity=99 time=7\n",
      "note_on channel=9 note=35 velocity=0 time=7\n",
      "note_on channel=9 note=51 velocity=0 time=5\n",
      "note_on channel=9 note=38 velocity=100 time=53\n",
      "note_on channel=9 note=54 velocity=67 time=1\n",
      "note_on channel=9 note=49 velocity=60 time=3\n",
      "note_on channel=9 note=35 velocity=119 time=4\n",
      "note_on channel=9 note=38 velocity=0 time=14\n",
      "note_on channel=9 note=49 velocity=0 time=2\n",
      "note_on channel=9 note=54 velocity=0 time=4\n",
      "note_on channel=9 note=35 velocity=0 time=256\n",
      "note_on channel=9 note=40 velocity=99 time=2\n",
      "note_on channel=9 note=37 velocity=92 time=3\n",
      "note_on channel=9 note=42 velocity=33 time=158\n",
      "note_on channel=9 note=42 velocity=0 time=15\n",
      "note_on channel=9 note=40 velocity=0 time=26\n",
      "note_on channel=9 note=37 velocity=0 time=14\n",
      "note_on channel=9 note=42 velocity=23 time=11\n",
      "note_on channel=9 note=35 velocity=99 time=1\n",
      "note_on channel=9 note=35 velocity=0 time=25\n",
      "note_on channel=9 note=44 velocity=38 time=41\n",
      "note_on channel=9 note=35 velocity=112 time=14\n",
      "note_on channel=9 note=42 velocity=0 time=4\n",
      "note_on channel=9 note=44 velocity=0 time=105\n",
      "note_on channel=9 note=54 velocity=39 time=170\n",
      "note_on channel=9 note=35 velocity=0 time=1\n",
      "note_on channel=9 note=40 velocity=73 time=5\n",
      "note_on channel=9 note=37 velocity=86 time=2\n",
      "note_on channel=9 note=54 velocity=0 time=36\n",
      "note_on channel=9 note=42 velocity=12 time=18\n",
      "note_on channel=9 note=42 velocity=0 time=31\n",
      "note_on channel=9 note=42 velocity=22 time=47\n",
      "note_on channel=9 note=42 velocity=0 time=30\n",
      "note_on channel=9 note=40 velocity=0 time=58\n",
      "note_on channel=9 note=35 velocity=79 time=6\n",
      "note_on channel=9 note=37 velocity=0 time=16\n",
      "note_on channel=9 note=35 velocity=0 time=12\n",
      "note_on channel=9 note=42 velocity=23 time=48\n",
      "note_on channel=9 note=35 velocity=81 time=2\n",
      "note_on channel=9 note=42 velocity=0 time=29\n",
      "note_on channel=9 note=42 velocity=21 time=46\n",
      "note_on channel=9 note=42 velocity=0 time=44\n",
      "note_on channel=9 note=42 velocity=24 time=19\n",
      "note_on channel=9 note=42 velocity=0 time=39\n",
      "note_on channel=9 note=42 velocity=28 time=25\n",
      "note_on channel=9 note=42 velocity=0 time=28\n",
      "note_on channel=9 note=35 velocity=0 time=35\n",
      "note_on channel=9 note=40 velocity=74 time=2\n",
      "note_on channel=9 note=59 velocity=43 time=1\n",
      "note_on channel=9 note=37 velocity=84 time=1\n",
      "note_on channel=9 note=44 velocity=31 time=4\n",
      "note_on channel=9 note=59 velocity=0 time=22\n",
      "note_on channel=9 note=44 velocity=0 time=36\n",
      "note_on channel=9 note=37 velocity=0 time=190\n",
      "note_on channel=9 note=40 velocity=0 time=7\n",
      "note_on channel=9 note=35 velocity=98 time=26\n",
      "note_on channel=9 note=42 velocity=21 time=8\n",
      "note_on channel=9 note=42 velocity=0 time=32\n",
      "note_on channel=9 note=42 velocity=31 time=167\n",
      "note_on channel=9 note=42 velocity=0 time=37\n",
      "note_on channel=9 note=54 velocity=35 time=33\n",
      "note_on channel=9 note=44 velocity=37 time=5\n",
      "note_on channel=9 note=40 velocity=72 time=8\n",
      "note_on channel=9 note=37 velocity=79 time=0\n",
      "note_on channel=9 note=35 velocity=0 time=13\n",
      "note_on channel=9 note=54 velocity=0 time=20\n",
      "note_on channel=9 note=44 velocity=0 time=63\n",
      "note_on channel=9 note=42 velocity=24 time=90\n",
      "note_on channel=9 note=42 velocity=0 time=28\n",
      "note_on channel=9 note=42 velocity=24 time=45\n",
      "note_on channel=9 note=37 velocity=0 time=4\n",
      "note_on channel=9 note=40 velocity=0 time=4\n",
      "note_on channel=9 note=35 velocity=97 time=2\n",
      "note_on channel=9 note=42 velocity=0 time=22\n",
      "note_on channel=9 note=42 velocity=24 time=47\n",
      "note_on channel=9 note=42 velocity=0 time=37\n",
      "note_on channel=9 note=42 velocity=19 time=46\n",
      "note_on channel=9 note=42 velocity=0 time=28\n",
      "note_on channel=9 note=42 velocity=34 time=32\n",
      "note_on channel=9 note=42 velocity=0 time=31\n",
      "note_on channel=9 note=44 velocity=34 time=32\n",
      "note_on channel=9 note=54 velocity=43 time=4\n",
      "note_on channel=9 note=40 velocity=77 time=7\n",
      "note_on channel=9 note=37 velocity=83 time=2\n",
      "note_on channel=9 note=35 velocity=0 time=4\n",
      "note_on channel=9 note=54 velocity=0 time=21\n",
      "note_on channel=9 note=44 velocity=0 time=17\n",
      "note_on channel=9 note=37 velocity=0 time=127\n",
      "note_on channel=9 note=40 velocity=0 time=4\n",
      "note_on channel=9 note=42 velocity=17 time=25\n",
      "note_on channel=9 note=35 velocity=75 time=3\n",
      "note_on channel=9 note=35 velocity=0 time=29\n",
      "note_on channel=9 note=42 velocity=0 time=6\n",
      "note_on channel=9 note=42 velocity=23 time=37\n",
      "note_on channel=9 note=35 velocity=86 time=2\n",
      "note_on channel=9 note=42 velocity=0 time=26\n",
      "note_on channel=9 note=42 velocity=19 time=44\n",
      "note_on channel=9 note=42 velocity=0 time=31\n",
      "note_on channel=9 note=42 velocity=25 time=39\n",
      "note_on channel=9 note=42 velocity=0 time=32\n",
      "note_on channel=9 note=42 velocity=28 time=36\n",
      "note_on channel=9 note=42 velocity=0 time=41\n",
      "note_on channel=9 note=40 velocity=78 time=20\n",
      "note_on channel=9 note=37 velocity=84 time=1\n",
      "note_on channel=9 note=54 velocity=31 time=14\n",
      "note_on channel=9 note=44 velocity=33 time=2\n",
      "note_on channel=9 note=35 velocity=0 time=3\n",
      "note_on channel=9 note=54 velocity=0 time=29\n",
      "note_on channel=9 note=44 velocity=0 time=3\n",
      "note_on channel=9 note=42 velocity=27 time=155\n",
      "note_on channel=9 note=42 velocity=0 time=38\n",
      "note_on channel=9 note=37 velocity=0 time=34\n",
      "note_on channel=9 note=40 velocity=0 time=4\n",
      "note_on channel=9 note=35 velocity=94 time=7\n",
      "note_on channel=9 note=42 velocity=20 time=8\n",
      "note_on channel=9 note=42 velocity=0 time=38\n",
      "note_on channel=9 note=42 velocity=25 time=28\n",
      "note_on channel=9 note=42 velocity=0 time=37\n",
      "note_on channel=9 note=42 velocity=21 time=45\n",
      "note_on channel=9 note=42 velocity=0 time=42\n",
      "note_on channel=9 note=42 velocity=24 time=28\n",
      "note_on channel=9 note=42 velocity=0 time=42\n",
      "note_on channel=9 note=35 velocity=0 time=13\n",
      "note_on channel=9 note=59 velocity=29 time=0\n",
      "note_on channel=9 note=40 velocity=53 time=12\n",
      "note_on channel=9 note=37 velocity=83 time=0\n",
      "note_on channel=9 note=44 velocity=33 time=3\n",
      "note_on channel=9 note=59 velocity=0 time=28\n",
      "note_on channel=9 note=44 velocity=0 time=8\n",
      "note_on channel=9 note=35 velocity=57 time=162\n",
      "note_on channel=9 note=42 velocity=22 time=6\n",
      "note_on channel=9 note=35 velocity=0 time=21\n",
      "note_on channel=9 note=40 velocity=0 time=4\n",
      "note_on channel=9 note=37 velocity=0 time=1\n",
      "note_on channel=9 note=42 velocity=0 time=7\n",
      "note_on channel=9 note=35 velocity=83 time=33\n",
      "note_on channel=9 note=42 velocity=19 time=15\n",
      "note_on channel=9 note=42 velocity=0 time=92\n",
      "note_on channel=9 note=42 velocity=18 time=42\n",
      "note_on channel=9 note=42 velocity=0 time=34\n",
      "note_on channel=9 note=42 velocity=24 time=17\n",
      "note_on channel=9 note=42 velocity=0 time=36\n",
      "note_on channel=9 note=44 velocity=41 time=36\n",
      "note_on channel=9 note=44 velocity=0 time=37\n",
      "note_on channel=9 note=35 velocity=0 time=22\n",
      "note_on channel=9 note=43 velocity=55 time=0\n",
      "note_on channel=9 note=43 velocity=0 time=36\n",
      "note_on channel=9 note=41 velocity=37 time=36\n",
      "note_on channel=9 note=41 velocity=0 time=24\n",
      "note_on channel=9 note=35 velocity=86 time=104\n",
      "note_on channel=9 note=49 velocity=37 time=5\n",
      "note_on channel=9 note=49 velocity=0 time=22\n",
      "note_on channel=9 note=42 velocity=31 time=78\n",
      "note_on channel=9 note=42 velocity=0 time=37\n",
      "note_on channel=9 note=42 velocity=22 time=43\n",
      "note_on channel=9 note=42 velocity=0 time=24\n",
      "note_on channel=9 note=42 velocity=31 time=39\n",
      "note_on channel=9 note=42 velocity=0 time=35\n",
      "note_on channel=9 note=35 velocity=0 time=45\n",
      "note_on channel=9 note=44 velocity=40 time=8\n",
      "note_on channel=9 note=54 velocity=30 time=2\n",
      "note_on channel=9 note=40 velocity=72 time=2\n",
      "note_on channel=9 note=37 velocity=75 time=3\n",
      "note_on channel=9 note=44 velocity=0 time=34\n",
      "note_on channel=9 note=54 velocity=0 time=4\n",
      "note_on channel=9 note=37 velocity=0 time=93\n",
      "note_on channel=9 note=40 velocity=0 time=4\n",
      "note_on channel=9 note=35 velocity=44 time=54\n",
      "note_on channel=9 note=42 velocity=20 time=3\n",
      "note_on channel=9 note=42 velocity=0 time=24\n",
      "note_on channel=9 note=35 velocity=0 time=0\n",
      "note_on channel=9 note=35 velocity=88 time=40\n",
      "note_on channel=9 note=42 velocity=19 time=2\n",
      "note_on channel=9 note=42 velocity=0 time=35\n",
      "note_on channel=9 note=42 velocity=24 time=34\n",
      "note_on channel=9 note=42 velocity=0 time=29\n",
      "note_on channel=9 note=42 velocity=28 time=109\n",
      "note_on channel=9 note=42 velocity=0 time=33\n",
      "note_on channel=9 note=35 velocity=0 time=24\n",
      "note_on channel=9 note=40 velocity=75 time=11\n",
      "note_on channel=9 note=37 velocity=84 time=1\n",
      "note_on channel=9 note=54 velocity=34 time=1\n",
      "note_on channel=9 note=44 velocity=42 time=6\n",
      "note_on channel=9 note=54 velocity=0 time=32\n",
      "note_on channel=9 note=44 velocity=0 time=12\n",
      "note_on channel=9 note=40 velocity=0 time=85\n",
      "note_on channel=9 note=37 velocity=0 time=6\n",
      "note_on channel=9 note=42 velocity=32 time=62\n",
      "note_on channel=9 note=35 velocity=56 time=4\n",
      "note_on channel=9 note=35 velocity=0 time=24\n",
      "note_on channel=9 note=42 velocity=0 time=3\n",
      "note_on channel=9 note=35 velocity=86 time=45\n",
      "note_on channel=9 note=42 velocity=32 time=74\n",
      "note_on channel=9 note=42 velocity=0 time=34\n",
      "note_on channel=9 note=42 velocity=28 time=97\n",
      "note_on channel=9 note=42 velocity=0 time=35\n",
      "note_on channel=9 note=35 velocity=0 time=24\n",
      "note_on channel=9 note=54 velocity=38 time=7\n",
      "note_on channel=9 note=40 velocity=72 time=5\n",
      "note_on channel=9 note=37 velocity=83 time=4\n",
      "note_on channel=9 note=44 velocity=55 time=3\n",
      "note_on channel=9 note=44 velocity=0 time=29\n",
      "note_on channel=9 note=54 velocity=0 time=8\n",
      "note_on channel=9 note=37 velocity=0 time=152\n",
      "note_on channel=9 note=42 velocity=24 time=0\n",
      "note_on channel=9 note=35 velocity=61 time=3\n",
      "note_on channel=9 note=40 velocity=0 time=1\n",
      "note_on channel=9 note=42 velocity=0 time=24\n",
      "note_on channel=9 note=35 velocity=0 time=1\n",
      "note_on channel=9 note=35 velocity=90 time=44\n",
      "note_on channel=9 note=42 velocity=22 time=3\n",
      "note_on channel=9 note=42 velocity=0 time=43\n",
      "note_on channel=9 note=42 velocity=20 time=95\n",
      "note_on channel=9 note=42 velocity=0 time=35\n",
      "note_on channel=9 note=59 velocity=36 time=25\n",
      "note_on channel=9 note=42 velocity=31 time=2\n",
      "note_on channel=9 note=59 velocity=0 time=27\n",
      "note_on channel=9 note=42 velocity=0 time=3\n",
      "note_on channel=9 note=54 velocity=28 time=31\n",
      "note_on channel=9 note=35 velocity=0 time=5\n",
      "note_on channel=9 note=40 velocity=78 time=4\n",
      "note_on channel=9 note=37 velocity=70 time=1\n",
      "note_on channel=9 note=44 velocity=36 time=8\n",
      "note_on channel=9 note=54 velocity=0 time=12\n",
      "note_on channel=9 note=44 velocity=0 time=37\n"
     ]
    },
    {
     "name": "stdout",
     "output_type": "stream",
     "text": [
      "note_on channel=9 note=42 velocity=30 time=128\n",
      "note_on channel=9 note=35 velocity=47 time=6\n",
      "note_on channel=9 note=59 velocity=24 time=18\n",
      "note_on channel=9 note=35 velocity=0 time=6\n",
      "note_on channel=9 note=42 velocity=0 time=1\n",
      "note_on channel=9 note=40 velocity=0 time=5\n",
      "note_on channel=9 note=59 velocity=0 time=3\n",
      "note_on channel=9 note=37 velocity=0 time=1\n",
      "note_on channel=9 note=59 velocity=27 time=47\n",
      "note_on channel=9 note=35 velocity=97 time=1\n",
      "note_on channel=9 note=42 velocity=19 time=4\n",
      "note_on channel=9 note=59 velocity=0 time=9\n",
      "note_on channel=9 note=42 velocity=0 time=88\n",
      "note_on channel=9 note=42 velocity=31 time=37\n",
      "note_on channel=9 note=42 velocity=0 time=33\n",
      "note_on channel=9 note=42 velocity=35 time=35\n",
      "note_on channel=9 note=42 velocity=0 time=30\n",
      "note_on channel=9 note=35 velocity=0 time=28\n",
      "note_on channel=9 note=54 velocity=48 time=0\n",
      "note_on channel=9 note=44 velocity=31 time=12\n",
      "note_on channel=9 note=40 velocity=74 time=2\n",
      "note_on channel=9 note=37 velocity=88 time=0\n",
      "note_on channel=9 note=54 velocity=0 time=17\n",
      "note_on channel=9 note=44 velocity=0 time=18\n",
      "note_on channel=9 note=59 velocity=31 time=163\n",
      "note_on channel=9 note=35 velocity=49 time=5\n",
      "note_on channel=9 note=42 velocity=28 time=5\n",
      "note_on channel=9 note=40 velocity=0 time=5\n",
      "note_on channel=9 note=37 velocity=0 time=1\n",
      "note_on channel=9 note=35 velocity=0 time=13\n",
      "note_on channel=9 note=59 velocity=0 time=6\n",
      "note_on channel=9 note=42 velocity=0 time=3\n",
      "note_on channel=9 note=35 velocity=115 time=40\n",
      "note_on channel=9 note=42 velocity=26 time=5\n",
      "note_on channel=9 note=59 velocity=24 time=8\n",
      "note_on channel=9 note=59 velocity=0 time=17\n",
      "note_on channel=9 note=42 velocity=0 time=6\n",
      "note_on channel=9 note=42 velocity=23 time=32\n",
      "note_on channel=9 note=42 velocity=0 time=29\n",
      "note_on channel=9 note=42 velocity=33 time=106\n",
      "note_on channel=9 note=42 velocity=0 time=30\n",
      "note_on channel=9 note=35 velocity=0 time=25\n",
      "note_on channel=9 note=40 velocity=59 time=9\n",
      "note_on channel=9 note=37 velocity=92 time=2\n",
      "note_on channel=9 note=44 velocity=36 time=2\n",
      "note_on channel=9 note=44 velocity=0 time=39\n",
      "note_on channel=9 note=40 velocity=0 time=184\n",
      "note_on channel=9 note=35 velocity=66 time=1\n",
      "note_on channel=9 note=42 velocity=22 time=3\n",
      "note_on channel=9 note=37 velocity=0 time=1\n",
      "note_on channel=9 note=42 velocity=0 time=18\n",
      "note_on channel=9 note=35 velocity=0 time=4\n",
      "note_on channel=9 note=35 velocity=86 time=42\n",
      "note_on channel=9 note=42 velocity=24 time=2\n",
      "note_on channel=9 note=42 velocity=0 time=39\n",
      "note_on channel=9 note=42 velocity=24 time=25\n",
      "note_on channel=9 note=42 velocity=0 time=34\n",
      "note_on channel=9 note=42 velocity=16 time=43\n",
      "note_on channel=9 note=42 velocity=0 time=35\n",
      "note_on channel=9 note=42 velocity=27 time=21\n",
      "note_on channel=9 note=42 velocity=0 time=31\n",
      "note_on channel=9 note=35 velocity=0 time=25\n",
      "note_on channel=9 note=54 velocity=43 time=4\n",
      "note_on channel=9 note=40 velocity=77 time=12\n",
      "note_on channel=9 note=37 velocity=88 time=1\n",
      "note_on channel=9 note=44 velocity=41 time=1\n",
      "note_on channel=9 note=54 velocity=0 time=17\n",
      "note_on channel=9 note=44 velocity=0 time=30\n",
      "note_on channel=9 note=35 velocity=52 time=144\n",
      "note_on channel=9 note=42 velocity=25 time=5\n",
      "note_on channel=9 note=37 velocity=0 time=9\n",
      "note_on channel=9 note=40 velocity=0 time=1\n",
      "note_on channel=9 note=35 velocity=0 time=8\n",
      "note_on channel=9 note=42 velocity=0 time=4\n",
      "note_on channel=9 note=35 velocity=90 time=44\n",
      "note_on channel=9 note=42 velocity=23 time=11\n",
      "note_on channel=9 note=42 velocity=0 time=28\n",
      "note_on channel=9 note=42 velocity=26 time=29\n",
      "note_on channel=9 note=42 velocity=0 time=34\n",
      "note_on channel=9 note=54 velocity=29 time=119\n",
      "note_on channel=9 note=54 velocity=0 time=12\n",
      "note_on channel=9 note=44 velocity=30 time=36\n",
      "note_on channel=9 note=35 velocity=0 time=1\n",
      "note_on channel=9 note=40 velocity=70 time=1\n",
      "note_on channel=9 note=54 velocity=40 time=0\n",
      "note_on channel=9 note=37 velocity=75 time=2\n",
      "note_on channel=9 note=54 velocity=0 time=25\n",
      "note_on channel=9 note=44 velocity=0 time=10\n",
      "note_on channel=9 note=37 velocity=0 time=99\n",
      "note_on channel=9 note=40 velocity=0 time=5\n",
      "note_on channel=9 note=37 velocity=69 time=63\n",
      "note_on channel=9 note=37 velocity=0 time=28\n",
      "note_on channel=9 note=35 velocity=94 time=43\n",
      "note_on channel=9 note=42 velocity=61 time=2\n",
      "note_on channel=9 note=46 velocity=38 time=2\n",
      "note_on channel=9 note=42 velocity=0 time=18\n",
      "note_on channel=9 note=46 velocity=0 time=10\n",
      "note_on channel=9 note=42 velocity=23 time=189\n",
      "note_on channel=9 note=42 velocity=0 time=22\n",
      "note_on channel=9 note=44 velocity=39 time=31\n",
      "note_on channel=9 note=54 velocity=36 time=6\n",
      "note_on channel=9 note=40 velocity=78 time=4\n",
      "note_on channel=9 note=37 velocity=94 time=1\n",
      "note_on channel=9 note=54 velocity=0 time=35\n",
      "note_on channel=9 note=44 velocity=0 time=5\n",
      "note_on channel=9 note=35 velocity=0 time=36\n",
      "note_on channel=9 note=35 velocity=52 time=117\n",
      "note_on channel=9 note=37 velocity=0 time=1\n",
      "note_on channel=9 note=40 velocity=0 time=2\n",
      "note_on channel=9 note=35 velocity=0 time=28\n",
      "note_on channel=9 note=35 velocity=77 time=37\n",
      "note_on channel=9 note=42 velocity=31 time=2\n",
      "note_on channel=9 note=42 velocity=0 time=42\n",
      "note_on channel=9 note=42 velocity=26 time=32\n",
      "note_on channel=9 note=42 velocity=0 time=32\n",
      "note_on channel=9 note=42 velocity=21 time=50\n",
      "note_on channel=9 note=42 velocity=0 time=28\n",
      "note_on channel=9 note=42 velocity=31 time=34\n",
      "note_on channel=9 note=42 velocity=0 time=30\n",
      "note_on channel=9 note=54 velocity=39 time=26\n",
      "note_on channel=9 note=40 velocity=68 time=5\n",
      "note_on channel=9 note=37 velocity=84 time=2\n",
      "note_on channel=9 note=44 velocity=46 time=7\n",
      "note_on channel=9 note=54 velocity=0 time=16\n",
      "note_on channel=9 note=44 velocity=0 time=20\n",
      "note_on channel=9 note=35 velocity=0 time=28\n",
      "note_on channel=9 note=40 velocity=0 time=159\n",
      "note_on channel=9 note=37 velocity=0 time=0\n",
      "note_on channel=9 note=42 velocity=29 time=15\n",
      "note_on channel=9 note=35 velocity=78 time=5\n",
      "note_on channel=9 note=42 velocity=0 time=30\n",
      "note_on channel=9 note=42 velocity=26 time=89\n",
      "note_on channel=9 note=42 velocity=0 time=39\n",
      "note_on channel=9 note=42 velocity=30 time=28\n",
      "note_on channel=9 note=42 velocity=0 time=37\n",
      "note_on channel=9 note=35 velocity=0 time=22\n",
      "note_on channel=9 note=40 velocity=65 time=4\n",
      "note_on channel=9 note=37 velocity=90 time=0\n",
      "note_on channel=9 note=54 velocity=39 time=3\n",
      "note_on channel=9 note=44 velocity=36 time=10\n",
      "note_on channel=9 note=54 velocity=0 time=27\n",
      "note_on channel=9 note=44 velocity=0 time=13\n",
      "note_on channel=9 note=42 velocity=34 time=134\n",
      "note_on channel=9 note=35 velocity=52 time=3\n",
      "note_on channel=9 note=40 velocity=0 time=1\n",
      "note_on channel=9 note=37 velocity=0 time=3\n",
      "note_on channel=9 note=42 velocity=0 time=24\n",
      "note_on channel=9 note=35 velocity=0 time=0\n",
      "note_on channel=9 note=35 velocity=84 time=42\n",
      "note_on channel=9 note=42 velocity=30 time=3\n",
      "note_on channel=9 note=42 velocity=0 time=37\n",
      "note_on channel=9 note=42 velocity=25 time=22\n",
      "note_on channel=9 note=42 velocity=0 time=43\n",
      "note_on channel=9 note=54 velocity=28 time=12\n",
      "note_on channel=9 note=54 velocity=0 time=33\n",
      "note_on channel=9 note=42 velocity=12 time=13\n",
      "note_on channel=9 note=42 velocity=0 time=18\n",
      "note_on channel=9 note=54 velocity=24 time=17\n",
      "note_on channel=9 note=42 velocity=34 time=5\n",
      "note_on channel=9 note=54 velocity=0 time=18\n",
      "note_on channel=9 note=42 velocity=0 time=17\n",
      "note_on channel=9 note=35 velocity=0 time=14\n",
      "note_on channel=9 note=54 velocity=40 time=15\n",
      "note_on channel=9 note=37 velocity=77 time=5\n",
      "note_on channel=9 note=40 velocity=81 time=0\n",
      "note_on channel=9 note=44 velocity=34 time=2\n",
      "note_on channel=9 note=54 velocity=0 time=27\n",
      "note_on channel=9 note=44 velocity=0 time=5\n",
      "note_on channel=9 note=42 velocity=29 time=215\n",
      "note_on channel=9 note=40 velocity=0 time=1\n",
      "note_on channel=9 note=37 velocity=0 time=5\n",
      "note_on channel=9 note=35 velocity=81 time=4\n",
      "note_on channel=9 note=42 velocity=0 time=23\n",
      "note_on channel=9 note=42 velocity=31 time=29\n",
      "note_on channel=9 note=54 velocity=30 time=7\n",
      "note_on channel=9 note=54 velocity=0 time=32\n",
      "note_on channel=9 note=42 velocity=0 time=7\n",
      "note_on channel=9 note=42 velocity=23 time=24\n",
      "note_on channel=9 note=42 velocity=0 time=29\n",
      "note_on channel=9 note=54 velocity=29 time=36\n",
      "note_on channel=9 note=42 velocity=30 time=2\n",
      "note_on channel=9 note=54 velocity=0 time=24\n",
      "note_on channel=9 note=42 velocity=0 time=21\n",
      "note_on channel=9 note=54 velocity=23 time=16\n",
      "note_on channel=9 note=35 velocity=0 time=7\n",
      "note_on channel=9 note=44 velocity=39 time=7\n",
      "note_on channel=9 note=37 velocity=78 time=4\n",
      "note_on channel=9 note=40 velocity=74 time=0\n",
      "note_on channel=9 note=54 velocity=0 time=26\n",
      "note_on channel=9 note=44 velocity=0 time=6\n",
      "note_on channel=9 note=37 velocity=0 time=162\n",
      "note_on channel=9 note=42 velocity=26 time=11\n",
      "note_on channel=9 note=40 velocity=0 time=1\n",
      "note_on channel=9 note=35 velocity=46 time=8\n",
      "note_on channel=9 note=42 velocity=0 time=15\n",
      "note_on channel=9 note=35 velocity=0 time=7\n",
      "note_on channel=9 note=35 velocity=94 time=46\n",
      "note_on channel=9 note=42 velocity=17 time=5\n",
      "note_on channel=9 note=42 velocity=0 time=93\n",
      "note_on channel=9 note=42 velocity=20 time=36\n",
      "note_on channel=9 note=54 velocity=14 time=21\n",
      "note_on channel=9 note=42 velocity=0 time=16\n",
      "note_on channel=9 note=54 velocity=0 time=2\n",
      "note_on channel=9 note=42 velocity=23 time=25\n",
      "note_on channel=9 note=54 velocity=19 time=10\n",
      "note_on channel=9 note=54 velocity=0 time=25\n",
      "note_on channel=9 note=42 velocity=0 time=4\n",
      "note_on channel=9 note=35 velocity=0 time=19\n",
      "note_on channel=9 note=44 velocity=30 time=14\n",
      "note_on channel=9 note=40 velocity=75 time=2\n",
      "note_on channel=9 note=37 velocity=92 time=1\n",
      "note_on channel=9 note=54 velocity=30 time=1\n",
      "note_on channel=9 note=54 velocity=0 time=25\n",
      "note_on channel=9 note=44 velocity=0 time=2\n",
      "note_on channel=9 note=42 velocity=39 time=168\n",
      "note_on channel=9 note=40 velocity=0 time=28\n",
      "note_on channel=9 note=37 velocity=0 time=1\n",
      "note_on channel=9 note=42 velocity=0 time=4\n",
      "note_on channel=9 note=35 velocity=65 time=36\n",
      "note_on channel=9 note=42 velocity=22 time=17\n",
      "note_on channel=9 note=42 velocity=0 time=33\n",
      "note_on channel=9 note=42 velocity=19 time=29\n",
      "note_on channel=9 note=42 velocity=0 time=36\n",
      "note_on channel=9 note=42 velocity=23 time=36\n",
      "note_on channel=9 note=42 velocity=0 time=27\n",
      "note_on channel=9 note=42 velocity=27 time=37\n",
      "note_on channel=9 note=42 velocity=0 time=32\n",
      "note_on channel=9 note=35 velocity=0 time=20\n",
      "note_on channel=9 note=54 velocity=28 time=11\n",
      "note_on channel=9 note=40 velocity=67 time=14\n",
      "note_on channel=9 note=37 velocity=66 time=0\n",
      "note_on channel=9 note=44 velocity=34 time=3\n",
      "note_on channel=9 note=54 velocity=0 time=19\n",
      "note_on channel=9 note=44 velocity=0 time=20\n",
      "note_on channel=9 note=35 velocity=47 time=143\n",
      "note_on channel=9 note=40 velocity=0 time=2\n",
      "note_on channel=9 note=37 velocity=0 time=1\n",
      "note_on channel=9 note=35 velocity=0 time=25\n",
      "note_on channel=9 note=35 velocity=83 time=39\n",
      "note_on channel=9 note=42 velocity=11 time=31\n",
      "note_on channel=9 note=42 velocity=0 time=77\n",
      "note_on channel=9 note=42 velocity=27 time=98\n",
      "note_on channel=9 note=42 velocity=0 time=28\n",
      "note_on channel=9 note=35 velocity=0 time=7\n",
      "note_on channel=9 note=47 velocity=40 time=22\n",
      "note_on channel=9 note=37 velocity=74 time=9\n",
      "note_on channel=9 note=44 velocity=31 time=2\n",
      "note_on channel=9 note=40 velocity=77 time=0\n",
      "note_on channel=9 note=47 velocity=0 time=31\n",
      "note_on channel=9 note=44 velocity=0 time=3\n",
      "note_on channel=9 note=54 velocity=1 time=21\n",
      "note_on channel=9 note=45 velocity=39 time=1\n",
      "note_on channel=9 note=54 velocity=0 time=23\n",
      "note_on channel=9 note=45 velocity=0 time=14\n",
      "note_on channel=9 note=43 velocity=39 time=34\n",
      "note_on channel=9 note=43 velocity=0 time=23\n",
      "note_on channel=9 note=41 velocity=53 time=40\n",
      "note_on channel=9 note=41 velocity=0 time=17\n",
      "note_on channel=9 note=49 velocity=55 time=49\n",
      "note_on channel=9 note=40 velocity=0 time=4\n",
      "note_on channel=9 note=35 velocity=70 time=2\n",
      "note_on channel=9 note=41 velocity=84 time=1\n",
      "note_on channel=9 note=37 velocity=0 time=1\n",
      "note_on channel=9 note=49 velocity=0 time=16\n",
      "note_on channel=9 note=41 velocity=0 time=1\n",
      "note_on channel=9 note=42 velocity=1 time=48\n",
      "note_on channel=9 note=42 velocity=0 time=50\n",
      "note_on channel=9 note=42 velocity=29 time=31\n",
      "note_on channel=9 note=42 velocity=0 time=30\n",
      "note_on channel=9 note=42 velocity=31 time=43\n",
      "note_on channel=9 note=42 velocity=0 time=33\n",
      "note_on channel=9 note=35 velocity=0 time=28\n",
      "note_on channel=9 note=54 velocity=40 time=1\n",
      "note_on channel=9 note=44 velocity=46 time=8\n",
      "note_on channel=9 note=40 velocity=88 time=3\n",
      "note_on channel=9 note=37 velocity=88 time=1\n",
      "note_on channel=9 note=54 velocity=0 time=22\n",
      "note_on channel=9 note=44 velocity=0 time=10\n",
      "note_on channel=9 note=35 velocity=78 time=160\n",
      "note_on channel=9 note=40 velocity=0 time=3\n",
      "note_on channel=9 note=37 velocity=0 time=6\n",
      "note_on channel=9 note=42 velocity=17 time=13\n",
      "note_on channel=9 note=35 velocity=0 time=13\n",
      "note_on channel=9 note=42 velocity=0 time=7\n",
      "note_on channel=9 note=35 velocity=108 time=31\n",
      "note_on channel=9 note=42 velocity=23 time=11\n",
      "note_on channel=9 note=42 velocity=0 time=24\n",
      "note_on channel=9 note=42 velocity=31 time=32\n",
      "note_on channel=9 note=42 velocity=0 time=35\n",
      "note_on channel=9 note=42 velocity=35 time=97\n",
      "note_on channel=9 note=42 velocity=0 time=25\n",
      "note_on channel=9 note=54 velocity=35 time=41\n",
      "note_on channel=9 note=35 velocity=0 time=2\n",
      "note_on channel=9 note=37 velocity=84 time=0\n",
      "note_on channel=9 note=40 velocity=88 time=0\n",
      "note_on channel=9 note=44 velocity=68 time=3\n",
      "note_on channel=9 note=44 velocity=0 time=30\n",
      "note_on channel=9 note=54 velocity=0 time=1\n",
      "note_on channel=9 note=35 velocity=88 time=167\n",
      "note_on channel=9 note=37 velocity=0 time=24\n",
      "note_on channel=9 note=35 velocity=0 time=1\n",
      "note_on channel=9 note=40 velocity=0 time=3\n",
      "note_on channel=9 note=42 velocity=24 time=39\n",
      "note_on channel=9 note=35 velocity=105 time=2\n",
      "note_on channel=9 note=42 velocity=0 time=38\n",
      "note_on channel=9 note=42 velocity=21 time=25\n",
      "note_on channel=9 note=42 velocity=0 time=37\n",
      "note_on channel=9 note=42 velocity=18 time=41\n",
      "note_on channel=9 note=42 velocity=0 time=28\n",
      "note_on channel=9 note=42 velocity=24 time=32\n",
      "note_on channel=9 note=42 velocity=0 time=24\n",
      "note_on channel=9 note=35 velocity=0 time=33\n",
      "note_on channel=9 note=54 velocity=31 time=0\n",
      "note_on channel=9 note=37 velocity=63 time=11\n",
      "note_on channel=9 note=44 velocity=38 time=3\n",
      "note_on channel=9 note=40 velocity=73 time=0\n",
      "note_on channel=9 note=54 velocity=0 time=30\n",
      "note_on channel=9 note=44 velocity=0 time=1\n",
      "note_on channel=9 note=35 velocity=52 time=153\n",
      "note_on channel=9 note=42 velocity=27 time=7\n",
      "note_on channel=9 note=40 velocity=0 time=4\n",
      "note_on channel=9 note=42 velocity=0 time=18\n",
      "note_on channel=9 note=35 velocity=0 time=0\n",
      "note_on channel=9 note=37 velocity=0 time=8\n",
      "note_on channel=9 note=35 velocity=90 time=36\n",
      "note_on channel=9 note=42 velocity=27 time=2\n",
      "note_on channel=9 note=42 velocity=0 time=42\n",
      "note_on channel=9 note=42 velocity=22 time=24\n",
      "note_on channel=9 note=42 velocity=0 time=32\n",
      "note_on channel=9 note=42 velocity=24 time=40\n",
      "note_on channel=9 note=42 velocity=0 time=39\n",
      "note_on channel=9 note=42 velocity=27 time=26\n",
      "note_on channel=9 note=42 velocity=0 time=23\n",
      "note_on channel=9 note=54 velocity=35 time=30\n",
      "note_on channel=9 note=35 velocity=0 time=1\n",
      "note_on channel=9 note=40 velocity=70 time=15\n",
      "note_on channel=9 note=44 velocity=30 time=2\n",
      "note_on channel=9 note=37 velocity=77 time=0\n",
      "note_on channel=9 note=54 velocity=0 time=22\n",
      "note_on channel=9 note=44 velocity=0 time=14\n",
      "note_on channel=9 note=37 velocity=0 time=217\n",
      "note_on channel=9 note=40 velocity=0 time=2\n",
      "note_on channel=9 note=35 velocity=81 time=4\n",
      "note_on channel=9 note=42 velocity=26 time=3\n",
      "note_on channel=9 note=42 velocity=0 time=23\n",
      "note_on channel=9 note=42 velocity=27 time=28\n",
      "note_on channel=9 note=42 velocity=0 time=39\n",
      "note_on channel=9 note=42 velocity=24 time=99\n",
      "note_on channel=9 note=42 velocity=0 time=22\n",
      "note_on channel=9 note=54 velocity=34 time=22\n",
      "note_on channel=9 note=35 velocity=0 time=4\n",
      "note_on channel=9 note=37 velocity=79 time=10\n",
      "note_on channel=9 note=40 velocity=63 time=2\n",
      "note_on channel=9 note=44 velocity=26 time=7\n",
      "note_on channel=9 note=54 velocity=0 time=19\n",
      "note_on channel=9 note=44 velocity=0 time=14\n",
      "note_on channel=9 note=35 velocity=44 time=161\n",
      "note_on channel=9 note=40 velocity=0 time=9\n",
      "note_on channel=9 note=37 velocity=0 time=1\n",
      "note_on channel=9 note=35 velocity=0 time=14\n",
      "note_on channel=9 note=35 velocity=79 time=41\n",
      "note_on channel=9 note=42 velocity=23 time=7\n",
      "note_on channel=9 note=42 velocity=0 time=90\n",
      "note_on channel=9 note=42 velocity=25 time=116\n",
      "note_on channel=9 note=42 velocity=0 time=19\n",
      "note_on channel=9 note=35 velocity=0 time=32\n",
      "note_on channel=9 note=54 velocity=33 time=3\n",
      "note_on channel=9 note=40 velocity=67 time=6\n",
      "note_on channel=9 note=37 velocity=79 time=1\n",
      "note_on channel=9 note=44 velocity=22 time=5\n",
      "note_on channel=9 note=54 velocity=0 time=21\n",
      "note_on channel=9 note=44 velocity=0 time=5\n",
      "note_on channel=9 note=35 velocity=49 time=174\n",
      "note_on channel=9 note=42 velocity=27 time=4\n",
      "note_on channel=9 note=37 velocity=0 time=23\n",
      "note_on channel=9 note=42 velocity=0 time=1\n",
      "note_on channel=9 note=35 velocity=0 time=2\n",
      "note_on channel=9 note=35 velocity=79 time=43\n",
      "note_on channel=9 note=42 velocity=22 time=5\n",
      "note_on channel=9 note=42 velocity=0 time=35\n",
      "note_on channel=9 note=42 velocity=25 time=24\n",
      "note_on channel=9 note=42 velocity=0 time=31\n",
      "note_on channel=9 note=40 velocity=0 time=15\n",
      "note_on channel=9 note=54 velocity=33 time=151\n",
      "note_on channel=9 note=44 velocity=35 time=1\n",
      "note_on channel=9 note=40 velocity=45 time=12\n",
      "note_on channel=9 note=37 velocity=74 time=0\n",
      "note_on channel=9 note=44 velocity=0 time=16\n",
      "note_on channel=9 note=54 velocity=0 time=7\n",
      "note_on channel=9 note=35 velocity=0 time=4\n",
      "note_on channel=9 note=42 velocity=13 time=129\n",
      "note_on channel=9 note=42 velocity=0 time=34\n",
      "note_on channel=9 note=35 velocity=48 time=66\n",
      "note_on channel=9 note=42 velocity=24 time=1\n",
      "note_on channel=9 note=37 velocity=0 time=16\n",
      "note_on channel=9 note=40 velocity=0 time=9\n",
      "note_on channel=9 note=42 velocity=0 time=6\n",
      "note_on channel=9 note=42 velocity=23 time=33\n",
      "note_on channel=9 note=42 velocity=0 time=30\n",
      "note_on channel=9 note=42 velocity=27 time=43\n",
      "note_on channel=9 note=42 velocity=0 time=26\n",
      "note_on channel=9 note=54 velocity=21 time=121\n",
      "note_on channel=9 note=44 velocity=33 time=5\n",
      "note_on channel=9 note=37 velocity=73 time=20\n",
      "note_on channel=9 note=44 velocity=0 time=12\n",
      "note_on channel=9 note=54 velocity=0 time=13\n",
      "note_on channel=9 note=35 velocity=0 time=258\n",
      "note_on channel=9 note=44 velocity=22 time=2\n",
      "note_on channel=9 note=44 velocity=0 time=23\n",
      "note_on channel=9 note=37 velocity=0 time=112\n",
      "note_on channel=9 note=44 velocity=30 time=23\n",
      "note_on channel=9 note=44 velocity=0 time=32\n",
      "note_on channel=9 note=37 velocity=27 time=21\n",
      "note_on channel=9 note=37 velocity=0 time=68\n",
      "note_on channel=9 note=37 velocity=28 time=63\n",
      "note_on channel=9 note=37 velocity=0 time=42\n",
      "note_on channel=9 note=46 velocity=25 time=12\n",
      "note_on channel=9 note=59 velocity=20 time=1\n",
      "note_on channel=9 note=35 velocity=33 time=38\n",
      "note_on channel=9 note=59 velocity=0 time=3\n",
      "note_on channel=9 note=46 velocity=0 time=118\n",
      "note_on channel=9 note=35 velocity=0 time=134\n",
      "note_on channel=9 note=37 velocity=67 time=41\n",
      "note_on channel=9 note=37 velocity=19 time=14\n",
      "note_on channel=9 note=37 velocity=0 time=47\n",
      "note_on channel=9 note=37 velocity=0 time=71\n",
      "note_on channel=9 note=46 velocity=25 time=124\n",
      "note_on channel=9 note=35 velocity=74 time=7\n",
      "note_on channel=9 note=46 velocity=0 time=47\n",
      "note_on channel=9 note=59 velocity=29 time=217\n",
      "note_on channel=9 note=35 velocity=0 time=6\n",
      "note_on channel=9 note=37 velocity=27 time=0\n",
      "note_on channel=9 note=37 velocity=72 time=4\n",
      "note_on channel=9 note=59 velocity=0 time=21\n",
      "note_on channel=9 note=59 velocity=29 time=33\n",
      "note_on channel=9 note=59 velocity=0 time=33\n",
      "note_on channel=9 note=37 velocity=0 time=44\n",
      "note_on channel=9 note=37 velocity=0 time=112\n",
      "note_on channel=9 note=35 velocity=81 time=19\n",
      "note_on channel=9 note=59 velocity=25 time=247\n",
      "note_on channel=9 note=37 velocity=90 time=2\n",
      "note_on channel=9 note=35 velocity=0 time=2\n",
      "note_on channel=9 note=37 velocity=27 time=3\n",
      "note_on channel=9 note=59 velocity=0 time=15\n",
      "note_on channel=9 note=59 velocity=24 time=43\n",
      "note_on channel=9 note=59 velocity=0 time=25\n",
      "note_on channel=9 note=37 velocity=0 time=5\n",
      "note_on channel=9 note=59 velocity=25 time=35\n",
      "note_on channel=9 note=59 velocity=0 time=22\n",
      "note_on channel=9 note=35 velocity=65 time=44\n",
      "note_on channel=9 note=35 velocity=0 time=28\n",
      "note_on channel=9 note=37 velocity=0 time=0\n",
      "note_on channel=9 note=35 velocity=92 time=36\n",
      "note_on channel=9 note=59 velocity=21 time=124\n",
      "note_on channel=9 note=59 velocity=0 time=19\n",
      "note_on channel=9 note=37 velocity=37 time=123\n",
      "note_on channel=9 note=35 velocity=0 time=3\n",
      "note_on channel=9 note=37 velocity=99 time=8\n",
      "note_on channel=9 note=59 velocity=23 time=49\n",
      "note_on channel=9 note=59 velocity=0 time=24\n",
      "note_on channel=9 note=46 velocity=19 time=47\n",
      "note_on channel=9 note=37 velocity=0 time=17\n",
      "note_on channel=9 note=46 velocity=0 time=34\n",
      "note_on channel=9 note=59 velocity=19 time=15\n",
      "note_on channel=9 note=59 velocity=0 time=40\n",
      "note_on channel=9 note=35 velocity=72 time=31\n",
      "note_on channel=9 note=37 velocity=0 time=3\n",
      "note_on channel=9 note=37 velocity=40 time=247\n",
      "note_on channel=9 note=35 velocity=0 time=6\n",
      "note_on channel=9 note=37 velocity=90 time=1\n",
      "note_on channel=9 note=37 velocity=0 time=90\n",
      "note_on channel=9 note=46 velocity=20 time=160\n",
      "note_on channel=9 note=37 velocity=0 time=5\n",
      "note_on channel=9 note=35 velocity=68 time=13\n",
      "note_on channel=9 note=46 velocity=0 time=25\n",
      "note_on channel=9 note=35 velocity=0 time=236\n",
      "note_on channel=9 note=37 velocity=77 time=12\n",
      "note_on channel=9 note=37 velocity=22 time=4\n",
      "note_on channel=9 note=37 velocity=0 time=65\n",
      "note_on channel=9 note=35 velocity=48 time=125\n",
      "note_on channel=9 note=59 velocity=14 time=3\n",
      "note_on channel=9 note=37 velocity=0 time=22\n",
      "note_on channel=9 note=35 velocity=0 time=3\n",
      "note_on channel=9 note=59 velocity=0 time=12\n",
      "note_on channel=9 note=46 velocity=25 time=26\n",
      "note_on channel=9 note=35 velocity=78 time=9\n",
      "note_on channel=9 note=42 velocity=33 time=3\n",
      "note_on channel=9 note=46 velocity=0 time=16\n",
      "note_on channel=9 note=42 velocity=0 time=44\n",
      "note_on channel=9 note=42 velocity=21 time=135\n",
      "note_on channel=9 note=35 velocity=0 time=44\n",
      "note_on channel=9 note=42 velocity=0 time=22\n",
      "note_on channel=9 note=46 velocity=28 time=0\n",
      "note_on channel=9 note=37 velocity=102 time=6\n",
      "note_on channel=9 note=46 velocity=0 time=36\n",
      "note_on channel=9 note=35 velocity=40 time=156\n",
      "note_on channel=9 note=42 velocity=30 time=11\n",
      "note_on channel=9 note=35 velocity=0 time=10\n",
      "note_on channel=9 note=42 velocity=0 time=5\n",
      "note_on channel=9 note=37 velocity=0 time=12\n",
      "note_on channel=9 note=35 velocity=94 time=28\n",
      "note_on channel=9 note=42 velocity=20 time=14\n",
      "note_on channel=9 note=42 velocity=0 time=17\n",
      "note_on channel=9 note=42 velocity=37 time=94\n",
      "note_on channel=9 note=35 velocity=0 time=15\n",
      "note_on channel=9 note=42 velocity=0 time=8\n",
      "note_on channel=9 note=35 velocity=61 time=44\n",
      "note_on channel=9 note=35 velocity=0 time=41\n",
      "note_on channel=9 note=37 velocity=108 time=25\n",
      "note_on channel=9 note=42 velocity=52 time=6\n",
      "note_on channel=9 note=45 velocity=75 time=2\n",
      "note_on channel=9 note=45 velocity=0 time=22\n",
      "note_on channel=9 note=37 velocity=0 time=20\n",
      "note_on channel=9 note=42 velocity=0 time=5\n",
      "note_on channel=9 note=43 velocity=66 time=20\n",
      "note_on channel=9 note=43 velocity=0 time=20\n",
      "note_on channel=9 note=35 velocity=70 time=85\n",
      "note_on channel=9 note=46 velocity=30 time=3\n",
      "note_on channel=9 note=35 velocity=0 time=19\n",
      "note_on channel=9 note=51 velocity=92 time=2\n",
      "note_on channel=9 note=46 velocity=0 time=9\n",
      "note_on channel=9 note=51 velocity=0 time=14\n",
      "note_on channel=9 note=41 velocity=84 time=26\n",
      "note_on channel=9 note=35 velocity=115 time=2\n",
      "note_on channel=9 note=49 velocity=105 time=2\n",
      "note_on channel=9 note=41 velocity=0 time=12\n",
      "note_on channel=9 note=49 velocity=0 time=9\n",
      "note_on channel=9 note=35 velocity=0 time=200\n",
      "note_on channel=9 note=40 velocity=108 time=46\n",
      "note_on channel=9 note=37 velocity=108 time=3\n",
      "note_on channel=9 note=40 velocity=0 time=40\n",
      "note_on channel=9 note=37 velocity=0 time=28\n",
      "note_on channel=9 note=42 velocity=33 time=64\n",
      "note_on channel=9 note=42 velocity=0 time=33\n",
      "note_on channel=9 note=35 velocity=88 time=38\n",
      "note_on channel=9 note=42 velocity=26 time=1\n",
      "note_on channel=9 note=42 velocity=0 time=20\n",
      "note_on channel=9 note=35 velocity=0 time=5\n",
      "note_on channel=9 note=35 velocity=112 time=43\n",
      "note_on channel=9 note=42 velocity=59 time=5\n",
      "note_on channel=9 note=42 velocity=0 time=80\n",
      "note_on channel=9 note=42 velocity=30 time=120\n",
      "note_on channel=9 note=42 velocity=0 time=42\n",
      "note_on channel=9 note=44 velocity=58 time=23\n",
      "note_on channel=9 note=54 velocity=41 time=0\n",
      "note_on channel=9 note=37 velocity=127 time=10\n",
      "note_on channel=9 note=40 velocity=27 time=17\n",
      "note_on channel=9 note=54 velocity=0 time=4\n",
      "note_on channel=9 note=35 velocity=0 time=20\n",
      "note_on channel=9 note=44 velocity=0 time=40\n",
      "note_on channel=9 note=37 velocity=0 time=32\n",
      "note_on channel=9 note=40 velocity=0 time=2\n",
      "note_on channel=9 note=42 velocity=30 time=4\n",
      "note_on channel=9 note=42 velocity=0 time=22\n",
      "note_on channel=9 note=42 velocity=25 time=93\n",
      "note_on channel=9 note=35 velocity=119 time=6\n",
      "note_on channel=9 note=42 velocity=0 time=23\n",
      "note_on channel=9 note=42 velocity=36 time=102\n",
      "note_on channel=9 note=42 velocity=0 time=25\n",
      "note_on channel=9 note=35 velocity=0 time=22\n",
      "note_on channel=9 note=42 velocity=32 time=22\n",
      "note_on channel=9 note=42 velocity=0 time=26\n",
      "note_on channel=9 note=44 velocity=42 time=43\n",
      "note_on channel=9 note=40 velocity=90 time=1\n",
      "note_on channel=9 note=37 velocity=99 time=3\n",
      "note_on channel=9 note=54 velocity=44 time=0\n",
      "note_on channel=9 note=54 velocity=0 time=34\n",
      "note_on channel=9 note=40 velocity=0 time=26\n",
      "note_on channel=9 note=37 velocity=0 time=2\n",
      "note_on channel=9 note=44 velocity=0 time=7\n",
      "note_on channel=9 note=35 velocity=59 time=121\n",
      "note_on channel=9 note=35 velocity=0 time=25\n",
      "note_on channel=9 note=35 velocity=94 time=46\n",
      "note_on channel=9 note=42 velocity=26 time=6\n",
      "note_on channel=9 note=42 velocity=0 time=36\n",
      "note_on channel=9 note=42 velocity=33 time=19\n",
      "note_on channel=9 note=42 velocity=0 time=31\n",
      "note_on channel=9 note=42 velocity=26 time=35\n",
      "note_on channel=9 note=42 velocity=0 time=31\n",
      "note_on channel=9 note=35 velocity=0 time=96\n",
      "note_on channel=9 note=54 velocity=38 time=0\n",
      "note_on channel=9 note=40 velocity=70 time=9\n",
      "note_on channel=9 note=44 velocity=31 time=1\n",
      "note_on channel=9 note=37 velocity=79 time=1\n",
      "note_on channel=9 note=54 velocity=0 time=22\n",
      "note_on channel=9 note=44 velocity=0 time=10\n",
      "note_on channel=9 note=37 velocity=0 time=148\n",
      "note_on channel=9 note=35 velocity=54 time=0\n",
      "note_on channel=9 note=40 velocity=0 time=3\n",
      "note_on channel=9 note=35 velocity=0 time=18\n",
      "note_on channel=9 note=42 velocity=22 time=28\n",
      "note_on channel=9 note=35 velocity=81 time=18\n",
      "note_on channel=9 note=42 velocity=0 time=87\n",
      "note_on channel=9 note=42 velocity=26 time=27\n",
      "note_on channel=9 note=42 velocity=0 time=24\n",
      "note_on channel=9 note=42 velocity=19 time=49\n",
      "note_on channel=9 note=42 velocity=0 time=24\n",
      "note_on channel=9 note=35 velocity=0 time=3\n",
      "note_on channel=9 note=40 velocity=66 time=27\n",
      "note_on channel=9 note=37 velocity=70 time=1\n",
      "note_on channel=9 note=44 velocity=28 time=8\n",
      "note_on channel=9 note=54 velocity=28 time=1\n",
      "note_on channel=9 note=54 velocity=0 time=35\n",
      "note_on channel=9 note=44 velocity=0 time=0\n",
      "note_on channel=9 note=37 velocity=0 time=88\n",
      "note_on channel=9 note=40 velocity=0 time=4\n",
      "note_on channel=9 note=35 velocity=50 time=62\n",
      "note_on channel=9 note=42 velocity=24 time=3\n",
      "note_on channel=9 note=35 velocity=0 time=24\n",
      "note_on channel=9 note=42 velocity=0 time=4\n",
      "note_on channel=9 note=42 velocity=27 time=38\n",
      "note_on channel=9 note=35 velocity=90 time=2\n",
      "note_on channel=9 note=42 velocity=0 time=29\n",
      "note_on channel=9 note=42 velocity=20 time=45\n",
      "note_on channel=9 note=42 velocity=0 time=24\n",
      "note_on channel=9 note=42 velocity=27 time=40\n",
      "note_on channel=9 note=42 velocity=0 time=26\n",
      "note_on channel=9 note=42 velocity=20 time=42\n",
      "note_on channel=9 note=42 velocity=0 time=26\n",
      "note_on channel=9 note=35 velocity=0 time=26\n",
      "note_on channel=9 note=54 velocity=35 time=14\n",
      "note_on channel=9 note=40 velocity=84 time=6\n",
      "note_on channel=9 note=37 velocity=77 time=1\n",
      "note_on channel=9 note=44 velocity=34 time=2\n",
      "note_on channel=9 note=54 velocity=0 time=24\n",
      "note_on channel=9 note=44 velocity=0 time=5\n",
      "note_on channel=9 note=37 velocity=0 time=57\n",
      "note_on channel=9 note=40 velocity=0 time=0\n",
      "note_on channel=9 note=35 velocity=43 time=97\n",
      "note_on channel=9 note=42 velocity=25 time=8\n",
      "note_on channel=9 note=35 velocity=0 time=18\n",
      "note_on channel=9 note=42 velocity=0 time=10\n",
      "note_on channel=9 note=35 velocity=75 time=29\n",
      "note_on channel=9 note=42 velocity=24 time=7\n",
      "note_on channel=9 note=42 velocity=0 time=30\n",
      "note_on channel=9 note=42 velocity=31 time=94\n",
      "note_on channel=9 note=42 velocity=0 time=26\n",
      "note_on channel=9 note=54 velocity=32 time=31\n",
      "note_on channel=9 note=35 velocity=0 time=13\n",
      "note_on channel=9 note=42 velocity=26 time=0\n",
      "note_on channel=9 note=54 velocity=0 time=23\n",
      "note_on channel=9 note=42 velocity=0 time=7\n",
      "note_on channel=9 note=59 velocity=32 time=20\n",
      "note_on channel=9 note=40 velocity=64 time=11\n",
      "note_on channel=9 note=37 velocity=75 time=0\n",
      "note_on channel=9 note=44 velocity=31 time=6\n",
      "note_on channel=9 note=59 velocity=0 time=29\n",
      "note_on channel=9 note=44 velocity=0 time=3\n",
      "note_on channel=9 note=37 velocity=0 time=102\n",
      "note_on channel=9 note=40 velocity=0 time=1\n",
      "note_on channel=9 note=35 velocity=50 time=57\n",
      "note_on channel=9 note=35 velocity=0 time=30\n",
      "note_on channel=9 note=42 velocity=22 time=41\n",
      "note_on channel=9 note=35 velocity=73 time=1\n",
      "note_on channel=9 note=42 velocity=0 time=93\n",
      "note_on channel=9 note=42 velocity=28 time=34\n",
      "note_on channel=9 note=42 velocity=0 time=28\n",
      "note_on channel=9 note=42 velocity=23 time=40\n",
      "note_on channel=9 note=42 velocity=0 time=22\n",
      "note_on channel=9 note=35 velocity=0 time=4\n",
      "note_on channel=9 note=42 velocity=35 time=34\n",
      "note_on channel=9 note=37 velocity=60 time=6\n",
      "note_on channel=9 note=40 velocity=62 time=0\n",
      "note_on channel=9 note=42 velocity=0 time=27\n",
      "note_on channel=9 note=54 velocity=24 time=30\n",
      "note_on channel=9 note=44 velocity=32 time=2\n",
      "note_on channel=9 note=54 velocity=0 time=19\n",
      "note_on channel=9 note=44 velocity=0 time=8\n",
      "note_on channel=9 note=37 velocity=0 time=25\n",
      "note_on channel=9 note=40 velocity=0 time=3\n",
      "note_on channel=9 note=46 velocity=37 time=14\n",
      "note_on channel=9 note=46 velocity=0 time=25\n",
      "note_on channel=9 note=35 velocity=70 time=32\n",
      "note_on channel=9 note=54 velocity=24 time=9\n",
      "note_on channel=9 note=35 velocity=0 time=14\n",
      "note_on channel=9 note=54 velocity=0 time=6\n",
      "note_on channel=9 note=42 velocity=58 time=49\n",
      "note_on channel=9 note=59 velocity=44 time=2\n",
      "note_on channel=9 note=35 velocity=81 time=2\n",
      "note_on channel=9 note=42 velocity=0 time=27\n",
      "note_on channel=9 note=59 velocity=0 time=3\n",
      "note_on channel=9 note=35 velocity=0 time=140\n",
      "note_on channel=9 note=42 velocity=27 time=33\n",
      "note_on channel=9 note=42 velocity=0 time=22\n",
      "note_on channel=9 note=40 velocity=69 time=46\n",
      "note_on channel=9 note=37 velocity=72 time=0\n",
      "note_on channel=9 note=44 velocity=25 time=6\n",
      "note_on channel=9 note=44 velocity=0 time=28\n",
      "note_on channel=9 note=37 velocity=0 time=53\n",
      "note_on channel=9 note=40 velocity=0 time=4\n",
      "note_on channel=9 note=35 velocity=63 time=107\n",
      "note_on channel=9 note=35 velocity=0 time=25\n",
      "note_on channel=9 note=42 velocity=31 time=38\n",
      "note_on channel=9 note=35 velocity=86 time=8\n",
      "note_on channel=9 note=42 velocity=0 time=21\n",
      "note_on channel=9 note=42 velocity=25 time=36\n",
      "note_on channel=9 note=42 velocity=0 time=22\n",
      "note_on channel=9 note=42 velocity=21 time=49\n",
      "note_on channel=9 note=42 velocity=0 time=13\n",
      "note_on channel=9 note=35 velocity=0 time=75\n",
      "note_on channel=9 note=42 velocity=42 time=33\n",
      "note_on channel=9 note=44 velocity=36 time=4\n",
      "note_on channel=9 note=40 velocity=66 time=4\n",
      "note_on channel=9 note=37 velocity=66 time=3\n",
      "note_on channel=9 note=59 velocity=20 time=5\n",
      "note_on channel=9 note=42 velocity=0 time=1\n",
      "note_on channel=9 note=44 velocity=0 time=8\n",
      "note_on channel=9 note=59 velocity=0 time=11\n",
      "note_on channel=9 note=40 velocity=0 time=28\n",
      "note_on channel=9 note=37 velocity=0 time=1\n",
      "note_on channel=9 note=35 velocity=54 time=117\n",
      "note_on channel=9 note=42 velocity=25 time=10\n",
      "note_on channel=9 note=35 velocity=0 time=12\n",
      "note_on channel=9 note=42 velocity=0 time=9\n",
      "note_on channel=9 note=35 velocity=83 time=43\n",
      "note_on channel=9 note=42 velocity=25 time=7\n",
      "note_on channel=9 note=42 velocity=0 time=25\n",
      "note_on channel=9 note=42 velocity=28 time=99\n",
      "note_on channel=9 note=42 velocity=0 time=22\n",
      "note_on channel=9 note=42 velocity=25 time=45\n",
      "note_on channel=9 note=42 velocity=0 time=27\n",
      "note_on channel=9 note=59 velocity=39 time=36\n",
      "note_on channel=9 note=42 velocity=35 time=2\n",
      "note_on channel=9 note=40 velocity=67 time=0\n",
      "note_on channel=9 note=37 velocity=83 time=0\n",
      "note_on channel=9 note=44 velocity=25 time=8\n",
      "note_on channel=9 note=35 velocity=0 time=4\n",
      "note_on channel=9 note=42 velocity=0 time=6\n",
      "note_on channel=9 note=44 velocity=0 time=9\n",
      "note_on channel=9 note=59 velocity=0 time=6\n",
      "note_on channel=9 note=37 velocity=0 time=32\n",
      "note_on channel=9 note=40 velocity=0 time=2\n",
      "note_on channel=9 note=35 velocity=57 time=118\n",
      "note_on channel=9 note=35 velocity=0 time=25\n",
      "note_on channel=9 note=35 velocity=81 time=51\n",
      "note_on channel=9 note=42 velocity=27 time=2\n",
      "note_on channel=9 note=42 velocity=0 time=21\n",
      "note_on channel=9 note=42 velocity=23 time=41\n",
      "note_on channel=9 note=42 velocity=0 time=29\n",
      "note_on channel=9 note=42 velocity=27 time=33\n",
      "note_on channel=9 note=54 velocity=29 time=9\n",
      "note_on channel=9 note=42 velocity=0 time=14\n",
      "note_on channel=9 note=54 velocity=0 time=9\n",
      "note_on channel=9 note=42 velocity=26 time=42\n",
      "note_on channel=9 note=42 velocity=0 time=29\n",
      "note_on channel=9 note=59 velocity=27 time=16\n"
     ]
    },
    {
     "name": "stdout",
     "output_type": "stream",
     "text": [
      "note_on channel=9 note=35 velocity=0 time=2\n",
      "note_on channel=9 note=40 velocity=75 time=17\n",
      "note_on channel=9 note=37 velocity=73 time=0\n",
      "note_on channel=9 note=44 velocity=28 time=5\n",
      "note_on channel=9 note=42 velocity=26 time=2\n",
      "note_on channel=9 note=59 velocity=0 time=8\n",
      "note_on channel=9 note=42 velocity=0 time=8\n",
      "note_on channel=9 note=44 velocity=0 time=9\n",
      "note_on channel=9 note=40 velocity=0 time=31\n",
      "note_on channel=9 note=37 velocity=0 time=5\n",
      "note_on channel=9 note=42 velocity=27 time=128\n",
      "note_on channel=9 note=35 velocity=52 time=15\n",
      "note_on channel=9 note=42 velocity=0 time=6\n",
      "note_on channel=9 note=35 velocity=0 time=18\n",
      "note_on channel=9 note=42 velocity=27 time=25\n",
      "note_on channel=9 note=35 velocity=57 time=4\n",
      "note_on channel=9 note=42 velocity=0 time=91\n",
      "note_on channel=9 note=42 velocity=17 time=41\n",
      "note_on channel=9 note=42 velocity=0 time=37\n",
      "note_on channel=9 note=42 velocity=19 time=28\n",
      "note_on channel=9 note=42 velocity=0 time=36\n",
      "note_on channel=9 note=35 velocity=0 time=1\n",
      "note_on channel=9 note=40 velocity=57 time=23\n",
      "note_on channel=9 note=59 velocity=34 time=2\n",
      "note_on channel=9 note=37 velocity=60 time=1\n",
      "note_on channel=9 note=44 velocity=24 time=11\n",
      "note_on channel=9 note=44 velocity=0 time=21\n",
      "note_on channel=9 note=59 velocity=0 time=0\n",
      "note_on channel=9 note=40 velocity=0 time=10\n",
      "note_on channel=9 note=37 velocity=0 time=8\n",
      "note_on channel=9 note=35 velocity=61 time=136\n",
      "note_on channel=9 note=35 velocity=0 time=23\n",
      "note_on channel=9 note=35 velocity=73 time=43\n",
      "note_on channel=9 note=42 velocity=25 time=4\n",
      "note_on channel=9 note=42 velocity=0 time=35\n",
      "note_on channel=9 note=42 velocity=30 time=23\n",
      "note_on channel=9 note=42 velocity=0 time=37\n",
      "note_on channel=9 note=42 velocity=18 time=33\n",
      "note_on channel=9 note=42 velocity=0 time=96\n",
      "note_on channel=9 note=59 velocity=30 time=31\n",
      "note_on channel=9 note=35 velocity=0 time=4\n",
      "note_on channel=9 note=42 velocity=34 time=4\n",
      "note_on channel=9 note=40 velocity=79 time=1\n",
      "note_on channel=9 note=37 velocity=79 time=0\n",
      "note_on channel=9 note=44 velocity=26 time=4\n",
      "note_on channel=9 note=42 velocity=0 time=18\n",
      "note_on channel=9 note=44 velocity=0 time=8\n",
      "note_on channel=9 note=59 velocity=0 time=3\n",
      "note_on channel=9 note=40 velocity=0 time=10\n",
      "note_on channel=9 note=37 velocity=0 time=5\n",
      "note_on channel=9 note=42 velocity=26 time=129\n",
      "note_on channel=9 note=35 velocity=60 time=3\n",
      "note_on channel=9 note=35 velocity=0 time=24\n",
      "note_on channel=9 note=42 velocity=0 time=1\n",
      "note_on channel=9 note=35 velocity=77 time=39\n",
      "note_on channel=9 note=42 velocity=26 time=1\n",
      "note_on channel=9 note=42 velocity=0 time=35\n",
      "note_on channel=9 note=42 velocity=19 time=23\n",
      "note_on channel=9 note=42 velocity=0 time=35\n",
      "note_on channel=9 note=42 velocity=27 time=33\n",
      "note_on channel=9 note=42 velocity=0 time=58\n",
      "note_on channel=9 note=59 velocity=33 time=48\n",
      "note_on channel=9 note=35 velocity=0 time=12\n",
      "note_on channel=9 note=40 velocity=62 time=11\n",
      "note_on channel=9 note=37 velocity=74 time=3\n",
      "note_on channel=9 note=42 velocity=32 time=2\n",
      "note_on channel=9 note=44 velocity=30 time=2\n",
      "note_on channel=9 note=59 velocity=0 time=7\n",
      "note_on channel=9 note=42 velocity=0 time=20\n",
      "note_on channel=9 note=44 velocity=0 time=1\n",
      "note_on channel=9 note=37 velocity=0 time=12\n",
      "note_on channel=9 note=40 velocity=0 time=2\n",
      "note_on channel=9 note=35 velocity=83 time=220\n",
      "note_on channel=9 note=54 velocity=14 time=44\n",
      "note_on channel=9 note=42 velocity=1 time=32\n",
      "note_on channel=9 note=54 velocity=0 time=13\n",
      "note_on channel=9 note=42 velocity=0 time=43\n",
      "note_on channel=9 note=42 velocity=30 time=24\n",
      "note_on channel=9 note=42 velocity=0 time=33\n",
      "note_on channel=9 note=42 velocity=27 time=39\n",
      "note_on channel=9 note=42 velocity=0 time=43\n",
      "note_on channel=9 note=35 velocity=0 time=23\n",
      "note_on channel=9 note=37 velocity=55 time=8\n",
      "note_on channel=9 note=40 velocity=40 time=4\n",
      "note_on channel=9 note=44 velocity=31 time=9\n",
      "note_on channel=9 note=42 velocity=35 time=3\n",
      "note_on channel=9 note=54 velocity=22 time=3\n",
      "note_on channel=9 note=42 velocity=0 time=31\n",
      "note_on channel=9 note=54 velocity=0 time=5\n",
      "note_on channel=9 note=44 velocity=0 time=60\n",
      "note_on channel=9 note=37 velocity=0 time=95\n",
      "note_on channel=9 note=37 velocity=22 time=78\n",
      "note_on channel=9 note=54 velocity=22 time=3\n",
      "note_on channel=9 note=54 velocity=0 time=26\n",
      "note_on channel=9 note=37 velocity=0 time=13\n",
      "note_on channel=9 note=37 velocity=24 time=29\n",
      "note_on channel=9 note=37 velocity=0 time=34\n",
      "note_on channel=9 note=46 velocity=26 time=324\n",
      "note_on channel=9 note=42 velocity=19 time=7\n",
      "note_on channel=9 note=35 velocity=42 time=0\n",
      "note_on channel=9 note=49 velocity=14 time=6\n",
      "note_on channel=9 note=40 velocity=0 time=14\n",
      "note_on channel=9 note=49 velocity=0 time=28\n",
      "note_on channel=9 note=42 velocity=0 time=59\n",
      "note_on channel=9 note=46 velocity=0 time=41\n",
      "note_on channel=9 note=35 velocity=0 time=53\n",
      "note_on channel=9 note=40 velocity=43 time=14\n",
      "note_on channel=9 note=46 velocity=29 time=7\n",
      "note_on channel=9 note=37 velocity=34 time=0\n",
      "note_on channel=9 note=54 velocity=23 time=6\n",
      "note_on channel=9 note=54 velocity=0 time=33\n",
      "note_on channel=9 note=46 velocity=0 time=116\n",
      "note_on channel=9 note=35 velocity=34 time=39\n",
      "note_on channel=9 note=42 velocity=22 time=4\n",
      "note_on channel=9 note=35 velocity=0 time=17\n",
      "note_on channel=9 note=42 velocity=0 time=6\n",
      "note_on channel=9 note=35 velocity=46 time=44\n",
      "note_on channel=9 note=42 velocity=25 time=4\n",
      "note_on channel=9 note=37 velocity=0 time=1\n",
      "note_on channel=9 note=40 velocity=0 time=39\n",
      "note_on channel=9 note=35 velocity=0 time=111\n",
      "note_on channel=9 note=42 velocity=0 time=14\n",
      "note_on channel=9 note=44 velocity=25 time=38\n",
      "note_on channel=9 note=37 velocity=26 time=18\n",
      "note_on channel=9 note=44 velocity=0 time=15\n",
      "note_on channel=9 note=37 velocity=0 time=1\n",
      "note_on channel=9 note=54 velocity=26 time=24\n",
      "note_on channel=9 note=37 velocity=36 time=12\n",
      "note_on channel=9 note=46 velocity=25 time=2\n",
      "note_on channel=9 note=35 velocity=35 time=5\n",
      "note_on channel=9 note=54 velocity=0 time=20\n",
      "note_on channel=9 note=46 velocity=0 time=54\n",
      "note_on channel=9 note=35 velocity=0 time=31\n",
      "note_on channel=9 note=37 velocity=0 time=60\n",
      "note_on channel=9 note=42 velocity=30 time=52\n",
      "note_on channel=9 note=42 velocity=0 time=32\n",
      "note_on channel=9 note=35 velocity=73 time=28\n",
      "note_on channel=9 note=42 velocity=17 time=94\n",
      "note_on channel=9 note=42 velocity=0 time=51\n",
      "note_on channel=9 note=44 velocity=14 time=26\n",
      "note_on channel=9 note=44 velocity=0 time=35\n",
      "note_on channel=9 note=42 velocity=24 time=22\n",
      "note_on channel=9 note=35 velocity=0 time=30\n",
      "note_on channel=9 note=54 velocity=23 time=1\n",
      "note_on channel=9 note=42 velocity=0 time=1\n",
      "note_on channel=9 note=37 velocity=55 time=4\n",
      "note_on channel=9 note=46 velocity=21 time=14\n",
      "note_on channel=9 note=54 velocity=0 time=23\n",
      "note_on channel=9 note=46 velocity=0 time=12\n",
      "note_on channel=9 note=37 velocity=0 time=140\n",
      "note_on channel=9 note=35 velocity=50 time=14\n",
      "note_on channel=9 note=35 velocity=0 time=30\n",
      "note_on channel=9 note=35 velocity=66 time=38\n",
      "note_on channel=9 note=42 velocity=17 time=197\n",
      "note_on channel=9 note=42 velocity=0 time=32\n",
      "note_on channel=9 note=37 velocity=66 time=49\n",
      "note_on channel=9 note=35 velocity=0 time=2\n",
      "note_on channel=9 note=54 velocity=19 time=21\n",
      "note_on channel=9 note=54 velocity=0 time=32\n",
      "note_on channel=9 note=52 velocity=18 time=108\n",
      "note_on channel=9 note=52 velocity=0 time=30\n",
      "note_on channel=9 note=37 velocity=0 time=70\n",
      "note_on channel=9 note=35 velocity=72 time=22\n",
      "note_on channel=9 note=42 velocity=19 time=177\n",
      "note_on channel=9 note=42 velocity=0 time=38\n",
      "note_on channel=9 note=54 velocity=29 time=27\n",
      "note_on channel=9 note=46 velocity=24 time=5\n",
      "note_on channel=9 note=35 velocity=0 time=5\n",
      "note_on channel=9 note=37 velocity=48 time=9\n",
      "note_on channel=9 note=54 velocity=0 time=13\n",
      "note_on channel=9 note=46 velocity=0 time=32\n",
      "note_on channel=9 note=37 velocity=0 time=113\n",
      "note_on channel=9 note=35 velocity=45 time=41\n",
      "note_on channel=9 note=35 velocity=0 time=28\n",
      "note_on channel=9 note=35 velocity=77 time=36\n",
      "note_on channel=9 note=42 velocity=11 time=32\n",
      "note_on channel=9 note=42 velocity=0 time=58\n",
      "note_on channel=9 note=44 velocity=11 time=17\n",
      "note_on channel=9 note=44 velocity=0 time=48\n",
      "note_on channel=9 note=46 velocity=22 time=28\n",
      "note_on channel=9 note=46 velocity=0 time=22\n",
      "note_on channel=9 note=54 velocity=29 time=43\n",
      "note_on channel=9 note=35 velocity=0 time=7\n",
      "note_on channel=9 note=37 velocity=73 time=2\n",
      "note_on channel=9 note=54 velocity=0 time=23\n",
      "note_on channel=9 note=35 velocity=45 time=168\n",
      "note_on channel=9 note=37 velocity=0 time=23\n",
      "note_on channel=9 note=35 velocity=0 time=10\n",
      "note_on channel=9 note=35 velocity=75 time=45\n",
      "note_on channel=9 note=42 velocity=17 time=7\n",
      "note_on channel=9 note=59 velocity=13 time=18\n",
      "note_on channel=9 note=42 velocity=0 time=132\n",
      "note_on channel=9 note=59 velocity=0 time=18\n",
      "note_on channel=9 note=35 velocity=0 time=66\n",
      "note_on channel=9 note=59 velocity=23 time=13\n",
      "note_on channel=9 note=54 velocity=30 time=12\n",
      "note_on channel=9 note=37 velocity=66 time=1\n",
      "note_on channel=9 note=54 velocity=0 time=31\n",
      "note_on channel=9 note=59 velocity=0 time=31\n",
      "note_on channel=9 note=35 velocity=64 time=130\n",
      "note_on channel=9 note=37 velocity=0 time=20\n",
      "note_on channel=9 note=35 velocity=0 time=10\n",
      "note_on channel=9 note=35 velocity=59 time=42\n",
      "note_on channel=9 note=35 velocity=0 time=237\n",
      "note_on channel=9 note=54 velocity=24 time=21\n",
      "note_on channel=9 note=54 velocity=0 time=35\n",
      "note_on channel=9 note=42 velocity=16 time=60\n",
      "note_on channel=9 note=42 velocity=0 time=57\n",
      "note_on channel=9 note=35 velocity=52 time=87\n",
      "note_on channel=9 note=42 velocity=24 time=32\n",
      "note_on channel=9 note=42 velocity=0 time=102\n",
      "note_on channel=9 note=42 velocity=17 time=97\n",
      "note_on channel=9 note=42 velocity=0 time=42\n",
      "note_on channel=9 note=35 velocity=0 time=6\n",
      "note_on channel=9 note=70 velocity=29 time=0\n",
      "note_on channel=9 note=54 velocity=25 time=3\n",
      "note_on channel=9 note=37 velocity=40 time=6\n",
      "note_on channel=9 note=54 velocity=0 time=40\n",
      "note_on channel=9 note=70 velocity=0 time=109\n",
      "note_on channel=9 note=35 velocity=41 time=50\n",
      "note_on channel=9 note=37 velocity=0 time=6\n",
      "note_on channel=9 note=35 velocity=0 time=22\n",
      "note_on channel=9 note=35 velocity=62 time=39\n",
      "note_on channel=9 note=42 velocity=25 time=58\n",
      "note_on channel=9 note=42 velocity=0 time=31\n",
      "note_on channel=9 note=44 velocity=30 time=102\n",
      "note_on channel=9 note=44 velocity=0 time=32\n",
      "note_on channel=9 note=35 velocity=0 time=22\n",
      "note_on channel=9 note=70 velocity=25 time=15\n",
      "note_on channel=9 note=37 velocity=84 time=7\n",
      "note_on channel=9 note=54 velocity=19 time=0\n",
      "note_on channel=9 note=54 velocity=0 time=42\n",
      "note_on channel=9 note=70 velocity=0 time=0\n",
      "note_on channel=9 note=37 velocity=0 time=145\n",
      "note_on channel=9 note=70 velocity=12 time=6\n",
      "note_on channel=9 note=35 velocity=43 time=0\n",
      "note_on channel=9 note=35 velocity=0 time=30\n",
      "note_on channel=9 note=70 velocity=0 time=1\n",
      "note_on channel=9 note=42 velocity=23 time=37\n",
      "note_on channel=9 note=35 velocity=57 time=1\n",
      "note_on channel=9 note=44 velocity=24 time=71\n",
      "note_on channel=9 note=42 velocity=0 time=28\n",
      "note_on channel=9 note=44 velocity=0 time=44\n",
      "note_on channel=9 note=42 velocity=29 time=43\n",
      "note_on channel=9 note=35 velocity=0 time=48\n",
      "note_on channel=9 note=42 velocity=0 time=13\n",
      "note_on channel=9 note=37 velocity=27 time=8\n",
      "note_on channel=9 note=40 velocity=30 time=1\n",
      "note_on channel=9 note=70 velocity=21 time=19\n",
      "note_on channel=9 note=70 velocity=0 time=80\n",
      "note_on channel=9 note=40 velocity=0 time=65\n",
      "note_on channel=9 note=37 velocity=0 time=3\n",
      "note_on channel=9 note=35 velocity=37 time=42\n",
      "note_on channel=9 note=35 velocity=0 time=28\n",
      "note_on channel=9 note=35 velocity=46 time=42\n",
      "note_on channel=9 note=37 velocity=29 time=252\n",
      "note_on channel=9 note=70 velocity=19 time=9\n",
      "note_on channel=9 note=35 velocity=0 time=18\n",
      "note_on channel=9 note=37 velocity=19 time=10\n",
      "note_on channel=9 note=37 velocity=0 time=48\n",
      "note_on channel=9 note=37 velocity=0 time=171\n",
      "note_on channel=9 note=31 velocity=14 time=115\n",
      "note_on channel=9 note=70 velocity=0 time=189\n",
      "note_on channel=9 note=54 velocity=19 time=30\n",
      "note_on channel=9 note=70 velocity=16 time=34\n",
      "note_on channel=9 note=31 velocity=0 time=150\n",
      "note_on channel=9 note=54 velocity=0 time=63\n",
      "note_on channel=9 note=70 velocity=0 time=110\n",
      "note_on channel=9 note=35 velocity=26 time=54\n",
      "note_on channel=9 note=70 velocity=22 time=3\n",
      "note_on channel=9 note=70 velocity=0 time=58\n",
      "note_on channel=9 note=35 velocity=0 time=55\n",
      "note_on channel=9 note=59 velocity=23 time=16\n",
      "note_on channel=9 note=37 velocity=37 time=3\n",
      "note_on channel=9 note=59 velocity=0 time=122\n",
      "note_on channel=9 note=37 velocity=0 time=28\n",
      "note_on channel=9 note=35 velocity=48 time=40\n",
      "note_on channel=9 note=35 velocity=0 time=32\n",
      "note_on channel=9 note=42 velocity=28 time=42\n",
      "note_on channel=9 note=35 velocity=70 time=0\n",
      "note_on channel=9 note=46 velocity=13 time=31\n",
      "note_on channel=9 note=42 velocity=0 time=36\n",
      "note_on channel=9 note=46 velocity=0 time=8\n",
      "note_on channel=9 note=44 velocity=13 time=105\n",
      "note_on channel=9 note=46 velocity=13 time=80\n",
      "note_on channel=9 note=44 velocity=0 time=7\n",
      "note_on channel=9 note=37 velocity=57 time=2\n",
      "note_on channel=9 note=70 velocity=18 time=4\n",
      "note_on channel=9 note=35 velocity=0 time=2\n",
      "note_on channel=9 note=46 velocity=0 time=15\n",
      "note_on channel=9 note=35 velocity=48 time=156\n",
      "note_on channel=9 note=70 velocity=0 time=33\n",
      "note_on channel=9 note=35 velocity=0 time=1\n",
      "note_on channel=9 note=37 velocity=0 time=33\n",
      "note_on channel=9 note=35 velocity=63 time=12\n",
      "note_on channel=9 note=42 velocity=16 time=20\n",
      "note_on channel=9 note=42 velocity=0 time=92\n",
      "note_on channel=9 note=44 velocity=22 time=96\n",
      "note_on channel=9 note=46 velocity=23 time=65\n",
      "note_on channel=9 note=54 velocity=25 time=2\n",
      "note_on channel=9 note=70 velocity=22 time=3\n",
      "note_on channel=9 note=44 velocity=0 time=6\n",
      "note_on channel=9 note=35 velocity=0 time=3\n",
      "note_on channel=9 note=37 velocity=61 time=4\n",
      "note_on channel=9 note=46 velocity=0 time=9\n",
      "note_on channel=9 note=54 velocity=0 time=27\n",
      "note_on channel=9 note=70 velocity=0 time=171\n",
      "note_on channel=9 note=42 velocity=23 time=35\n",
      "note_on channel=9 note=42 velocity=0 time=78\n",
      "note_on channel=9 note=70 velocity=18 time=186\n",
      "note_on channel=9 note=46 velocity=12 time=20\n",
      "note_on channel=9 note=46 velocity=0 time=28\n",
      "note_on channel=9 note=70 velocity=0 time=4\n",
      "note_on channel=9 note=70 velocity=15 time=84\n",
      "note_on channel=9 note=70 velocity=0 time=36\n",
      "note_on channel=9 note=35 velocity=30 time=29\n",
      "note_on channel=9 note=35 velocity=0 time=10\n",
      "note_on channel=9 note=37 velocity=0 time=56\n",
      "note_on channel=9 note=42 velocity=19 time=8\n",
      "note_on channel=9 note=35 velocity=77 time=3\n",
      "note_on channel=9 note=44 velocity=20 time=107\n",
      "note_on channel=9 note=42 velocity=0 time=69\n",
      "note_on channel=9 note=44 velocity=0 time=30\n",
      "note_on channel=9 note=70 velocity=18 time=50\n",
      "note_on channel=9 note=54 velocity=26 time=5\n",
      "note_on channel=9 note=37 velocity=67 time=1\n",
      "note_on channel=9 note=35 velocity=0 time=16\n",
      "note_on channel=9 note=70 velocity=0 time=12\n",
      "note_on channel=9 note=54 velocity=0 time=0\n",
      "note_on channel=9 note=35 velocity=47 time=156\n",
      "note_on channel=9 note=35 velocity=0 time=29\n",
      "note_on channel=9 note=35 velocity=56 time=52\n",
      "note_on channel=9 note=42 velocity=20 time=66\n",
      "note_on channel=9 note=44 velocity=25 time=62\n",
      "note_on channel=9 note=42 velocity=0 time=23\n",
      "note_on channel=9 note=37 velocity=0 time=14\n",
      "note_on channel=9 note=46 velocity=21 time=30\n",
      "note_on channel=9 note=44 velocity=0 time=11\n",
      "note_on channel=9 note=46 velocity=0 time=29\n",
      "note_on channel=9 note=54 velocity=26 time=19\n",
      "note_on channel=9 note=37 velocity=51 time=6\n",
      "note_on channel=9 note=70 velocity=20 time=2\n",
      "note_on channel=9 note=54 velocity=0 time=23\n",
      "note_on channel=9 note=70 velocity=0 time=25\n",
      "note_on channel=9 note=35 velocity=0 time=27\n",
      "note_on channel=9 note=35 velocity=42 time=131\n",
      "note_on channel=9 note=35 velocity=0 time=21\n",
      "note_on channel=9 note=35 velocity=50 time=51\n",
      "note_on channel=9 note=42 velocity=17 time=1\n",
      "note_on channel=9 note=37 velocity=0 time=93\n",
      "note_on channel=9 note=42 velocity=0 time=15\n",
      "note_on channel=9 note=42 velocity=18 time=91\n",
      "note_on channel=9 note=54 velocity=16 time=67\n",
      "note_on channel=9 note=44 velocity=18 time=2\n",
      "note_on channel=9 note=35 velocity=0 time=5\n",
      "note_on channel=9 note=37 velocity=63 time=5\n",
      "note_on channel=9 note=54 velocity=0 time=25\n",
      "note_on channel=9 note=42 velocity=0 time=9\n",
      "note_on channel=9 note=44 velocity=0 time=13\n",
      "note_on channel=9 note=46 velocity=12 time=30\n",
      "note_on channel=9 note=46 velocity=0 time=28\n",
      "note_on channel=9 note=35 velocity=47 time=101\n",
      "note_on channel=9 note=35 velocity=0 time=34\n",
      "note_on channel=9 note=42 velocity=18 time=40\n",
      "note_on channel=9 note=35 velocity=66 time=1\n",
      "note_on channel=9 note=37 velocity=0 time=8\n",
      "note_on channel=9 note=35 velocity=0 time=476\n",
      "note_on channel=9 note=37 velocity=20 time=6\n",
      "note_on channel=9 note=42 velocity=0 time=209\n",
      "note_on channel=9 note=46 velocity=14 time=30\n",
      "note_on channel=9 note=46 velocity=0 time=19\n",
      "note_on channel=9 note=37 velocity=0 time=939\n",
      "note_on channel=9 note=31 velocity=24 time=654\n",
      "note_on channel=9 note=70 velocity=13 time=1\n",
      "note_on channel=9 note=59 velocity=12 time=130\n",
      "note_on channel=9 note=70 velocity=0 time=156\n",
      "note_on channel=9 note=59 velocity=0 time=58\n",
      "note_on channel=9 note=31 velocity=0 time=38\n",
      "note_on channel=9 note=59 velocity=11 time=28\n",
      "note_on channel=9 note=59 velocity=0 time=143\n",
      "MetaMessage('end_of_track', time=0)\n",
      "Track 10: Gospil Strings\n",
      "MetaMessage('midi_port', port=0, time=0)\n",
      "MetaMessage('track_name', name='Gospil Strings', time=0)\n",
      "control_change channel=11 control=0 value=0 time=0\n",
      "program_change channel=11 program=89 time=0\n",
      "control_change channel=11 control=7 value=127 time=0\n",
      "control_change channel=11 control=10 value=63 time=0\n",
      "control_change channel=11 control=7 value=127 time=210\n",
      "control_change channel=11 control=7 value=115 time=25\n",
      "control_change channel=11 control=7 value=101 time=6\n",
      "control_change channel=11 control=7 value=97 time=5\n",
      "control_change channel=11 control=7 value=96 time=5\n",
      "control_change channel=11 control=7 value=92 time=57\n",
      "control_change channel=11 control=7 value=89 time=5\n",
      "control_change channel=11 control=7 value=85 time=5\n",
      "control_change channel=11 control=7 value=84 time=0\n",
      "control_change channel=11 control=7 value=85 time=39\n",
      "control_change channel=11 control=7 value=89 time=4\n",
      "note_on channel=11 note=85 velocity=23 time=3\n",
      "note_on channel=11 note=88 velocity=30 time=3\n",
      "control_change channel=11 control=7 value=110 time=7\n",
      "control_change channel=11 control=7 value=113 time=11\n",
      "note_on channel=11 note=92 velocity=23 time=1\n",
      "control_change channel=11 control=7 value=115 time=11\n",
      "control_change channel=11 control=7 value=117 time=4\n",
      "control_change channel=11 control=7 value=118 time=5\n",
      "control_change channel=11 control=7 value=122 time=3\n",
      "control_change channel=11 control=7 value=124 time=6\n",
      "control_change channel=11 control=7 value=125 time=25\n",
      "control_change channel=11 control=7 value=126 time=0\n",
      "control_change channel=11 control=7 value=127 time=5\n",
      "control_change channel=11 control=7 value=122 time=249\n",
      "control_change channel=11 control=7 value=111 time=5\n",
      "control_change channel=11 control=7 value=108 time=5\n",
      "control_change channel=11 control=7 value=97 time=4\n",
      "control_change channel=11 control=7 value=84 time=4\n",
      "control_change channel=11 control=7 value=70 time=4\n",
      "control_change channel=11 control=7 value=66 time=5\n",
      "control_change channel=11 control=7 value=63 time=5\n",
      "control_change channel=11 control=7 value=59 time=1\n",
      "control_change channel=11 control=7 value=49 time=5\n",
      "note_on channel=11 note=88 velocity=0 time=4\n",
      "control_change channel=11 control=7 value=48 time=2\n",
      "note_on channel=11 note=85 velocity=0 time=16\n",
      "control_change channel=11 control=7 value=49 time=15\n",
      "note_on channel=11 note=90 velocity=26 time=0\n",
      "note_on channel=11 note=87 velocity=28 time=1\n",
      "note_on channel=11 note=83 velocity=42 time=0\n",
      "note_on channel=11 note=84 velocity=32 time=3\n",
      "note_on channel=11 note=92 velocity=0 time=3\n",
      "note_on channel=11 note=84 velocity=0 time=1\n",
      "control_change channel=11 control=7 value=87 time=6\n",
      "control_change channel=11 control=7 value=89 time=5\n",
      "control_change channel=11 control=7 value=92 time=3\n",
      "control_change channel=11 control=7 value=96 time=4\n",
      "control_change channel=11 control=7 value=99 time=5\n",
      "control_change channel=11 control=7 value=103 time=4\n",
      "control_change channel=11 control=7 value=106 time=8\n",
      "control_change channel=11 control=7 value=110 time=6\n",
      "control_change channel=11 control=7 value=113 time=4\n",
      "control_change channel=11 control=7 value=115 time=8\n",
      "control_change channel=11 control=7 value=117 time=10\n",
      "control_change channel=11 control=7 value=118 time=8\n",
      "control_change channel=11 control=7 value=119 time=0\n",
      "control_change channel=11 control=7 value=122 time=39\n",
      "control_change channel=11 control=7 value=125 time=5\n",
      "control_change channel=11 control=7 value=126 time=94\n",
      "control_change channel=11 control=7 value=127 time=5\n",
      "control_change channel=11 control=7 value=125 time=122\n",
      "control_change channel=11 control=7 value=122 time=15\n",
      "control_change channel=11 control=7 value=121 time=5\n",
      "control_change channel=11 control=7 value=120 time=4\n",
      "control_change channel=11 control=7 value=113 time=29\n",
      "control_change channel=11 control=7 value=96 time=12\n",
      "control_change channel=11 control=7 value=85 time=5\n",
      "control_change channel=11 control=7 value=82 time=3\n",
      "control_change channel=11 control=7 value=78 time=4\n",
      "control_change channel=11 control=7 value=77 time=5\n",
      "note_on channel=11 note=87 velocity=0 time=19\n",
      "note_on channel=11 note=83 velocity=0 time=12\n",
      "control_change channel=11 control=7 value=80 time=8\n",
      "control_change channel=11 control=7 value=84 time=3\n",
      "note_on channel=11 note=85 velocity=27 time=0\n",
      "control_change channel=11 control=7 value=85 time=5\n",
      "note_on channel=11 note=88 velocity=27 time=0\n",
      "control_change channel=11 control=7 value=86 time=2\n",
      "note_on channel=11 note=90 velocity=0 time=5\n",
      "control_change channel=11 control=7 value=89 time=1\n",
      "note_on channel=11 note=81 velocity=30 time=0\n",
      "control_change channel=11 control=7 value=92 time=15\n",
      "control_change channel=11 control=7 value=96 time=0\n",
      "control_change channel=11 control=7 value=101 time=14\n",
      "control_change channel=11 control=7 value=103 time=1\n",
      "control_change channel=11 control=7 value=104 time=7\n",
      "control_change channel=11 control=7 value=105 time=4\n",
      "control_change channel=11 control=7 value=106 time=4\n",
      "control_change channel=11 control=7 value=110 time=5\n",
      "control_change channel=11 control=7 value=111 time=5\n",
      "control_change channel=11 control=7 value=112 time=30\n",
      "control_change channel=11 control=7 value=122 time=5\n",
      "control_change channel=11 control=7 value=125 time=52\n",
      "control_change channel=11 control=7 value=126 time=3\n",
      "control_change channel=11 control=7 value=127 time=5\n",
      "control_change channel=11 control=7 value=125 time=223\n",
      "control_change channel=11 control=7 value=115 time=5\n",
      "control_change channel=11 control=7 value=104 time=4\n",
      "control_change channel=11 control=7 value=90 time=4\n",
      "control_change channel=11 control=7 value=80 time=7\n",
      "control_change channel=11 control=7 value=77 time=4\n",
      "control_change channel=11 control=7 value=76 time=3\n",
      "control_change channel=11 control=7 value=75 time=8\n",
      "note_on channel=11 note=81 velocity=0 time=8\n",
      "note_on channel=11 note=90 velocity=21 time=13\n",
      "note_on channel=11 note=88 velocity=0 time=3\n",
      "control_change channel=11 control=7 value=85 time=9\n",
      "note_on channel=11 note=87 velocity=32 time=0\n",
      "note_on channel=11 note=83 velocity=41 time=0\n",
      "control_change channel=11 control=7 value=89 time=4\n",
      "note_on channel=11 note=85 velocity=0 time=4\n",
      "control_change channel=11 control=7 value=90 time=0\n",
      "control_change channel=11 control=7 value=94 time=5\n",
      "control_change channel=11 control=7 value=97 time=1\n",
      "control_change channel=11 control=7 value=101 time=8\n",
      "control_change channel=11 control=7 value=103 time=6\n",
      "control_change channel=11 control=7 value=104 time=28\n",
      "control_change channel=11 control=7 value=105 time=42\n",
      "control_change channel=11 control=7 value=106 time=5\n",
      "control_change channel=11 control=7 value=108 time=5\n",
      "control_change channel=11 control=7 value=110 time=5\n",
      "control_change channel=11 control=7 value=111 time=8\n",
      "control_change channel=11 control=7 value=115 time=32\n",
      "control_change channel=11 control=7 value=117 time=31\n",
      "control_change channel=11 control=7 value=118 time=0\n",
      "control_change channel=11 control=7 value=119 time=10\n",
      "control_change channel=11 control=7 value=120 time=10\n",
      "note_on channel=11 note=87 velocity=0 time=160\n",
      "note_on channel=11 note=83 velocity=0 time=5\n",
      "control_change channel=11 control=7 value=113 time=10\n",
      "control_change channel=11 control=7 value=110 time=2\n",
      "control_change channel=11 control=7 value=106 time=5\n",
      "control_change channel=11 control=7 value=104 time=4\n",
      "control_change channel=11 control=7 value=103 time=4\n",
      "control_change channel=11 control=7 value=99 time=5\n",
      "control_change channel=11 control=7 value=96 time=4\n",
      "control_change channel=11 control=7 value=92 time=5\n",
      "control_change channel=11 control=7 value=90 time=1\n",
      "control_change channel=11 control=7 value=89 time=5\n",
      "control_change channel=11 control=7 value=88 time=4\n",
      "control_change channel=11 control=7 value=87 time=6\n",
      "control_change channel=11 control=7 value=85 time=9\n",
      "note_on channel=11 note=90 velocity=0 time=5\n",
      "control_change channel=11 control=7 value=84 time=0\n",
      "note_on channel=11 note=92 velocity=36 time=2\n",
      "note_on channel=11 note=85 velocity=26 time=4\n",
      "note_on channel=11 note=88 velocity=27 time=3\n",
      "note_on channel=11 note=49 velocity=42 time=7\n",
      "control_change channel=11 control=7 value=90 time=27\n",
      "control_change channel=11 control=7 value=91 time=0\n",
      "control_change channel=11 control=7 value=94 time=5\n",
      "control_change channel=11 control=7 value=96 time=5\n",
      "control_change channel=11 control=7 value=99 time=3\n",
      "control_change channel=11 control=7 value=103 time=2\n",
      "control_change channel=11 control=7 value=104 time=6\n",
      "control_change channel=11 control=7 value=105 time=9\n",
      "control_change channel=11 control=7 value=106 time=15\n",
      "control_change channel=11 control=7 value=108 time=10\n",
      "control_change channel=11 control=7 value=110 time=5\n",
      "control_change channel=11 control=7 value=111 time=5\n",
      "control_change channel=11 control=7 value=115 time=13\n",
      "control_change channel=11 control=7 value=118 time=16\n",
      "control_change channel=11 control=7 value=122 time=8\n",
      "control_change channel=11 control=7 value=124 time=9\n",
      "control_change channel=11 control=7 value=125 time=9\n",
      "control_change channel=11 control=7 value=126 time=15\n",
      "control_change channel=11 control=7 value=127 time=5\n",
      "control_change channel=11 control=93 value=10 time=131\n",
      "control_change channel=11 control=93 value=12 time=16\n",
      "control_change channel=11 control=93 value=30 time=21\n",
      "control_change channel=11 control=93 value=38 time=3\n",
      "control_change channel=11 control=93 value=39 time=2\n",
      "control_change channel=11 control=93 value=40 time=13\n",
      "control_change channel=11 control=93 value=42 time=4\n",
      "control_change channel=11 control=93 value=43 time=5\n",
      "control_change channel=11 control=93 value=45 time=4\n",
      "control_change channel=11 control=93 value=46 time=4\n",
      "control_change channel=11 control=93 value=48 time=9\n",
      "control_change channel=11 control=93 value=50 time=0\n",
      "control_change channel=11 control=93 value=51 time=8\n",
      "control_change channel=11 control=93 value=52 time=2\n",
      "note_on channel=11 note=88 velocity=0 time=21\n",
      "note_on channel=11 note=85 velocity=0 time=9\n",
      "note_on channel=11 note=47 velocity=38 time=5\n",
      "note_on channel=11 note=49 velocity=0 time=2\n",
      "note_on channel=11 note=92 velocity=0 time=12\n",
      "note_on channel=11 note=90 velocity=21 time=1\n",
      "note_on channel=11 note=83 velocity=45 time=0\n",
      "note_on channel=11 note=87 velocity=37 time=2\n",
      "control_change channel=11 control=91 value=33 time=137\n",
      "control_change channel=11 control=91 value=35 time=23\n",
      "control_change channel=11 control=91 value=39 time=13\n",
      "control_change channel=11 control=91 value=42 time=6\n",
      "control_change channel=11 control=91 value=43 time=5\n",
      "control_change channel=11 control=91 value=45 time=10\n",
      "control_change channel=11 control=91 value=47 time=10\n",
      "control_change channel=11 control=91 value=48 time=5\n",
      "control_change channel=11 control=91 value=51 time=5\n",
      "note_on channel=11 note=83 velocity=0 time=169\n",
      "note_on channel=11 note=87 velocity=0 time=2\n",
      "note_on channel=11 note=90 velocity=0 time=7\n",
      "control_change channel=11 control=7 value=127 time=6\n",
      "note_on channel=11 note=81 velocity=42 time=13\n",
      "note_on channel=11 note=45 velocity=59 time=1\n",
      "note_on channel=11 note=85 velocity=36 time=2\n",
      "note_on channel=11 note=88 velocity=50 time=6\n",
      "note_on channel=11 note=47 velocity=0 time=2\n",
      "control_change channel=11 control=7 value=124 time=16\n",
      "control_change channel=11 control=7 value=123 time=8\n",
      "control_change channel=11 control=7 value=122 time=16\n",
      "control_change channel=11 control=7 value=118 time=15\n",
      "control_change channel=11 control=7 value=117 time=10\n",
      "control_change channel=11 control=7 value=116 time=5\n",
      "control_change channel=11 control=7 value=115 time=12\n",
      "control_change channel=11 control=7 value=114 time=10\n",
      "control_change channel=11 control=7 value=113 time=5\n",
      "control_change channel=11 control=7 value=111 time=5\n",
      "control_change channel=11 control=7 value=110 time=5\n",
      "control_change channel=11 control=7 value=109 time=5\n",
      "control_change channel=11 control=7 value=108 time=1\n",
      "control_change channel=11 control=7 value=107 time=16\n",
      "control_change channel=11 control=7 value=104 time=22\n",
      "control_change channel=11 control=7 value=103 time=5\n",
      "control_change channel=11 control=7 value=102 time=7\n",
      "control_change channel=11 control=7 value=101 time=12\n",
      "control_change channel=11 control=7 value=99 time=19\n",
      "control_change channel=11 control=7 value=97 time=8\n",
      "control_change channel=11 control=7 value=96 time=21\n",
      "control_change channel=11 control=7 value=95 time=10\n",
      "control_change channel=11 control=7 value=94 time=20\n",
      "control_change channel=11 control=7 value=92 time=0\n",
      "control_change channel=11 control=7 value=90 time=5\n",
      "control_change channel=11 control=7 value=89 time=10\n",
      "control_change channel=11 control=7 value=88 time=10\n",
      "control_change channel=11 control=7 value=87 time=5\n",
      "control_change channel=11 control=7 value=85 time=3\n",
      "control_change channel=11 control=7 value=84 time=10\n",
      "control_change channel=11 control=7 value=83 time=5\n",
      "control_change channel=11 control=7 value=82 time=8\n",
      "control_change channel=11 control=7 value=81 time=5\n",
      "control_change channel=11 control=7 value=80 time=13\n",
      "control_change channel=11 control=7 value=78 time=24\n",
      "control_change channel=11 control=7 value=77 time=5\n",
      "control_change channel=11 control=7 value=76 time=2\n",
      "note_on channel=11 note=81 velocity=0 time=43\n",
      "note_on channel=11 note=47 velocity=41 time=10\n",
      "note_on channel=11 note=85 velocity=0 time=2\n",
      "note_on channel=11 note=45 velocity=0 time=5\n",
      "note_on channel=11 note=88 velocity=0 time=2\n",
      "control_change channel=11 control=7 value=82 time=26\n",
      "control_change channel=11 control=7 value=84 time=5\n",
      "note_on channel=11 note=83 velocity=26 time=3\n",
      "control_change channel=11 control=7 value=85 time=0\n",
      "note_on channel=11 note=87 velocity=25 time=3\n",
      "note_on channel=11 note=90 velocity=28 time=4\n"
     ]
    },
    {
     "name": "stdout",
     "output_type": "stream",
     "text": [
      "control_change channel=11 control=7 value=86 time=0\n",
      "control_change channel=11 control=7 value=87 time=5\n",
      "control_change channel=11 control=7 value=89 time=5\n",
      "control_change channel=11 control=7 value=90 time=5\n",
      "control_change channel=11 control=7 value=91 time=17\n",
      "control_change channel=11 control=7 value=92 time=10\n",
      "control_change channel=11 control=7 value=93 time=14\n",
      "control_change channel=11 control=7 value=94 time=15\n",
      "control_change channel=11 control=7 value=96 time=22\n",
      "control_change channel=11 control=7 value=97 time=5\n",
      "control_change channel=11 control=7 value=98 time=5\n",
      "control_change channel=11 control=7 value=99 time=20\n",
      "control_change channel=11 control=7 value=100 time=14\n",
      "control_change channel=11 control=7 value=101 time=2\n",
      "control_change channel=11 control=7 value=103 time=10\n",
      "control_change channel=11 control=7 value=104 time=5\n",
      "control_change channel=11 control=7 value=110 time=31\n",
      "control_change channel=11 control=7 value=111 time=0\n",
      "control_change channel=11 control=7 value=112 time=11\n",
      "control_change channel=11 control=7 value=113 time=10\n",
      "control_change channel=11 control=7 value=115 time=5\n",
      "control_change channel=11 control=7 value=117 time=5\n",
      "control_change channel=11 control=7 value=118 time=15\n",
      "control_change channel=11 control=7 value=119 time=5\n",
      "control_change channel=11 control=7 value=120 time=35\n",
      "control_change channel=11 control=7 value=122 time=12\n",
      "control_change channel=11 control=7 value=124 time=10\n",
      "control_change channel=11 control=7 value=125 time=5\n",
      "control_change channel=11 control=7 value=126 time=5\n",
      "control_change channel=11 control=7 value=125 time=128\n",
      "note_on channel=11 note=52 velocity=31 time=0\n",
      "control_change channel=11 control=7 value=124 time=6\n",
      "control_change channel=11 control=7 value=123 time=0\n",
      "control_change channel=11 control=7 value=120 time=5\n",
      "note_on channel=11 note=83 velocity=0 time=7\n",
      "control_change channel=11 control=7 value=110 time=0\n",
      "note_on channel=11 note=90 velocity=0 time=4\n",
      "note_on channel=11 note=47 velocity=0 time=0\n",
      "control_change channel=11 control=7 value=99 time=0\n",
      "note_on channel=11 note=92 velocity=22 time=6\n",
      "control_change channel=11 control=7 value=96 time=0\n",
      "note_on channel=11 note=87 velocity=0 time=3\n",
      "control_change channel=11 control=7 value=92 time=5\n",
      "note_on channel=11 note=88 velocity=36 time=8\n",
      "note_on channel=11 note=83 velocity=31 time=3\n",
      "control_change channel=11 control=7 value=90 time=0\n",
      "control_change channel=11 control=7 value=89 time=5\n",
      "control_change channel=11 control=7 value=88 time=11\n",
      "control_change channel=11 control=7 value=89 time=41\n",
      "control_change channel=11 control=7 value=92 time=5\n",
      "control_change channel=11 control=7 value=93 time=9\n",
      "control_change channel=11 control=7 value=94 time=15\n",
      "control_change channel=11 control=7 value=96 time=15\n",
      "control_change channel=11 control=7 value=97 time=24\n",
      "control_change channel=11 control=7 value=98 time=39\n",
      "control_change channel=11 control=7 value=99 time=37\n",
      "note_on channel=11 note=52 velocity=0 time=24\n",
      "control_change channel=11 control=7 value=97 time=120\n",
      "control_change channel=11 control=7 value=96 time=10\n",
      "control_change channel=11 control=7 value=95 time=12\n",
      "note_on channel=11 note=92 velocity=0 time=4\n",
      "note_on channel=11 note=88 velocity=0 time=0\n",
      "note_on channel=11 note=83 velocity=0 time=2\n",
      "MetaMessage('end_of_track', time=0)\n",
      "Track 11: Celine Dion\n",
      "MetaMessage('midi_port', port=0, time=0)\n",
      "MetaMessage('track_name', name='Celine Dion', time=0)\n",
      "control_change channel=14 control=0 value=0 time=0\n",
      "program_change channel=14 program=5 time=0\n",
      "control_change channel=14 control=7 value=60 time=0\n",
      "control_change channel=14 control=10 value=63 time=0\n",
      "control_change channel=14 control=7 value=57 time=240\n",
      "control_change channel=14 control=7 value=54 time=18\n",
      "control_change channel=14 control=7 value=50 time=5\n",
      "control_change channel=14 control=7 value=49 time=5\n",
      "control_change channel=14 control=7 value=48 time=5\n",
      "control_change channel=14 control=7 value=43 time=10\n",
      "control_change channel=14 control=7 value=42 time=10\n",
      "control_change channel=14 control=7 value=49 time=897\n",
      "control_change channel=14 control=7 value=52 time=54\n",
      "control_change channel=14 control=7 value=53 time=6\n",
      "control_change channel=14 control=7 value=54 time=10\n",
      "control_change channel=14 control=7 value=64 time=80\n",
      "control_change channel=14 control=7 value=65 time=12\n",
      "control_change channel=14 control=91 value=90 time=111\n",
      "control_change channel=14 control=7 value=64 time=12\n",
      "control_change channel=14 control=7 value=63 time=8\n",
      "control_change channel=14 control=7 value=62 time=5\n",
      "control_change channel=14 control=91 value=92 time=17\n",
      "control_change channel=14 control=7 value=61 time=5\n",
      "control_change channel=14 control=91 value=89 time=8\n",
      "control_change channel=14 control=91 value=80 time=5\n",
      "control_change channel=14 control=91 value=78 time=5\n",
      "control_change channel=14 control=7 value=63 time=25\n",
      "control_change channel=14 control=91 value=77 time=0\n",
      "control_change channel=14 control=91 value=75 time=20\n",
      "control_change channel=14 control=91 value=77 time=35\n",
      "control_change channel=14 control=91 value=78 time=5\n",
      "control_change channel=14 control=91 value=80 time=10\n",
      "control_change channel=14 control=91 value=81 time=13\n",
      "control_change channel=14 control=91 value=82 time=7\n",
      "control_change channel=14 control=91 value=83 time=11\n",
      "control_change channel=14 control=91 value=84 time=6\n",
      "control_change channel=14 control=91 value=88 time=2\n",
      "control_change channel=14 control=7 value=62 time=7\n",
      "control_change channel=14 control=7 value=61 time=436\n",
      "control_change channel=14 control=7 value=59 time=82\n",
      "control_change channel=14 control=7 value=57 time=45\n",
      "control_change channel=14 control=7 value=63 time=270\n",
      "control_change channel=14 control=7 value=62 time=708\n",
      "control_change channel=14 control=7 value=61 time=195\n",
      "control_change channel=14 control=7 value=59 time=16\n",
      "note_on channel=14 note=76 velocity=91 time=762\n",
      "note_on channel=14 note=64 velocity=79 time=4\n",
      "control_change channel=14 control=64 value=0 time=2\n",
      "note_on channel=14 note=40 velocity=83 time=4\n",
      "control_change channel=14 control=64 value=127 time=22\n",
      "note_on channel=14 note=47 velocity=89 time=44\n",
      "note_on channel=14 note=64 velocity=0 time=7\n",
      "note_on channel=14 note=40 velocity=0 time=12\n",
      "note_on channel=14 note=47 velocity=0 time=49\n",
      "note_on channel=14 note=76 velocity=0 time=11\n",
      "note_on channel=14 note=52 velocity=99 time=2\n",
      "note_on channel=14 note=52 velocity=0 time=33\n",
      "note_on channel=14 note=64 velocity=99 time=32\n",
      "note_on channel=14 note=64 velocity=0 time=18\n",
      "note_on channel=14 note=64 velocity=100 time=66\n",
      "note_on channel=14 note=59 velocity=59 time=25\n",
      "note_on channel=14 note=64 velocity=0 time=19\n",
      "note_on channel=14 note=59 velocity=0 time=76\n",
      "control_change channel=14 control=7 value=57 time=95\n",
      "control_change channel=14 control=7 value=56 time=12\n",
      "note_on channel=14 note=64 velocity=96 time=0\n",
      "control_change channel=14 control=7 value=55 time=10\n",
      "note_on channel=14 note=64 velocity=0 time=53\n",
      "note_on channel=14 note=54 velocity=82 time=14\n",
      "control_change channel=14 control=64 value=0 time=7\n",
      "note_on channel=14 note=63 velocity=95 time=2\n",
      "note_on channel=14 note=63 velocity=0 time=136\n",
      "note_on channel=14 note=64 velocity=104 time=8\n",
      "control_change channel=14 control=64 value=127 time=15\n",
      "note_on channel=14 note=64 velocity=0 time=127\n",
      "note_on channel=14 note=59 velocity=87 time=17\n",
      "note_on channel=14 note=54 velocity=0 time=66\n",
      "note_on channel=14 note=59 velocity=0 time=59\n",
      "note_on channel=14 note=64 velocity=102 time=98\n",
      "control_change channel=14 control=64 value=0 time=60\n",
      "note_on channel=14 note=64 velocity=0 time=3\n",
      "note_on channel=14 note=63 velocity=106 time=9\n",
      "note_on channel=14 note=52 velocity=109 time=0\n",
      "control_change channel=14 control=64 value=127 time=36\n",
      "note_on channel=14 note=57 velocity=105 time=36\n",
      "note_on channel=14 note=63 velocity=0 time=25\n",
      "note_on channel=14 note=64 velocity=118 time=54\n",
      "note_on channel=14 note=61 velocity=101 time=153\n",
      "note_on channel=14 note=52 velocity=0 time=76\n",
      "note_on channel=14 note=61 velocity=0 time=5\n",
      "note_on channel=14 note=57 velocity=0 time=46\n",
      "note_on channel=14 note=64 velocity=0 time=94\n",
      "note_on channel=14 note=66 velocity=104 time=8\n",
      "control_change channel=14 control=64 value=0 time=50\n",
      "note_on channel=14 note=66 velocity=0 time=23\n",
      "note_on channel=14 note=68 velocity=101 time=5\n",
      "note_on channel=14 note=52 velocity=94 time=0\n",
      "control_change channel=14 control=64 value=127 time=27\n",
      "note_on channel=14 note=59 velocity=89 time=44\n",
      "note_on channel=14 note=68 velocity=0 time=57\n",
      "note_on channel=14 note=63 velocity=102 time=13\n",
      "note_on channel=14 note=63 velocity=0 time=42\n",
      "note_on channel=14 note=68 velocity=105 time=24\n",
      "note_on channel=14 note=68 velocity=0 time=65\n",
      "note_on channel=14 note=66 velocity=105 time=10\n",
      "note_on channel=14 note=63 velocity=100 time=144\n",
      "note_on channel=14 note=52 velocity=0 time=2\n",
      "note_on channel=14 note=59 velocity=0 time=3\n",
      "note_on channel=14 note=63 velocity=0 time=13\n",
      "note_on channel=14 note=66 velocity=0 time=38\n",
      "note_on channel=14 note=64 velocity=103 time=20\n",
      "note_on channel=14 note=64 velocity=0 time=22\n",
      "note_on channel=14 note=63 velocity=109 time=3\n",
      "note_on channel=14 note=63 velocity=0 time=26\n",
      "control_change channel=14 control=64 value=0 time=18\n",
      "note_on channel=14 note=52 velocity=106 time=9\n",
      "note_on channel=14 note=64 velocity=109 time=0\n",
      "control_change channel=14 control=64 value=127 time=44\n",
      "note_on channel=14 note=59 velocity=96 time=35\n",
      "note_on channel=14 note=64 velocity=0 time=23\n",
      "note_on channel=14 note=64 velocity=102 time=147\n",
      "note_on channel=14 note=64 velocity=0 time=6\n",
      "note_on channel=14 note=64 velocity=127 time=59\n",
      "note_on channel=14 note=59 velocity=0 time=43\n",
      "note_on channel=14 note=64 velocity=0 time=78\n",
      "note_on channel=14 note=52 velocity=0 time=17\n",
      "note_on channel=14 note=59 velocity=84 time=12\n",
      "note_on channel=14 note=64 velocity=115 time=68\n",
      "note_on channel=14 note=59 velocity=0 time=33\n",
      "control_change channel=14 control=64 value=0 time=25\n",
      "note_on channel=14 note=64 velocity=0 time=12\n",
      "note_on channel=14 note=63 velocity=113 time=3\n",
      "note_on channel=14 note=54 velocity=94 time=1\n",
      "control_change channel=14 control=7 value=52 time=3\n",
      "control_change channel=14 control=7 value=50 time=1\n",
      "control_change channel=14 control=64 value=127 time=30\n",
      "note_on channel=14 note=59 velocity=59 time=89\n",
      "note_on channel=14 note=63 velocity=0 time=6\n",
      "control_change channel=14 control=7 value=54 time=5\n",
      "control_change channel=14 control=7 value=57 time=19\n",
      "note_on channel=14 note=64 velocity=103 time=0\n",
      "control_change channel=14 control=7 value=58 time=10\n",
      "note_on channel=14 note=59 velocity=0 time=17\n",
      "note_on channel=14 note=59 velocity=102 time=116\n",
      "note_on channel=14 note=64 velocity=0 time=26\n",
      "note_on channel=14 note=59 velocity=0 time=34\n",
      "note_on channel=14 note=54 velocity=0 time=14\n",
      "note_on channel=14 note=64 velocity=95 time=81\n",
      "control_change channel=14 control=64 value=0 time=131\n",
      "note_on channel=14 note=64 velocity=0 time=19\n",
      "note_on channel=14 note=45 velocity=94 time=2\n",
      "note_on channel=14 note=59 velocity=93 time=0\n",
      "control_change channel=14 control=64 value=127 time=13\n",
      "note_on channel=14 note=52 velocity=111 time=43\n",
      "note_on channel=14 note=59 velocity=0 time=4\n",
      "note_on channel=14 note=57 velocity=115 time=81\n",
      "note_on channel=14 note=52 velocity=0 time=2\n",
      "note_on channel=14 note=52 velocity=106 time=68\n",
      "note_on channel=14 note=57 velocity=0 time=5\n",
      "note_on channel=14 note=57 velocity=106 time=77\n",
      "note_on channel=14 note=52 velocity=0 time=8\n",
      "note_on channel=14 note=45 velocity=0 time=125\n",
      "note_on channel=14 note=52 velocity=104 time=10\n",
      "note_on channel=14 note=57 velocity=0 time=17\n",
      "note_on channel=14 note=52 velocity=0 time=53\n",
      "note_on channel=14 note=57 velocity=122 time=2\n",
      "note_on channel=14 note=57 velocity=0 time=28\n",
      "control_change channel=14 control=7 value=54 time=0\n",
      "note_on channel=14 note=57 velocity=127 time=46\n",
      "note_on channel=14 note=45 velocity=106 time=2\n",
      "note_on channel=14 note=52 velocity=122 time=2\n",
      "control_change channel=14 control=7 value=56 time=36\n",
      "control_change channel=14 control=7 value=57 time=5\n",
      "note_on channel=14 note=57 velocity=0 time=32\n",
      "note_on channel=14 note=59 velocity=113 time=1\n",
      "control_change channel=14 control=7 value=58 time=5\n",
      "note_on channel=14 note=59 velocity=0 time=53\n",
      "control_change channel=14 control=7 value=57 time=3\n",
      "note_on channel=14 note=61 velocity=109 time=0\n",
      "control_change channel=14 control=7 value=54 time=10\n",
      "control_change channel=14 control=7 value=52 time=9\n",
      "note_on channel=14 note=64 velocity=127 time=52\n",
      "note_on channel=14 note=52 velocity=0 time=3\n",
      "note_on channel=14 note=61 velocity=0 time=3\n",
      "control_change channel=14 control=7 value=56 time=10\n",
      "note_on channel=14 note=64 velocity=0 time=4\n",
      "note_on channel=14 note=52 velocity=116 time=59\n",
      "note_on channel=14 note=69 velocity=111 time=89\n",
      "note_on channel=14 note=69 velocity=0 time=28\n",
      "note_on channel=14 note=71 velocity=104 time=2\n",
      "note_on channel=14 note=71 velocity=0 time=23\n",
      "note_on channel=14 note=52 velocity=0 time=9\n",
      "note_on channel=14 note=45 velocity=0 time=6\n",
      "note_on channel=14 note=73 velocity=126 time=6\n",
      "note_on channel=14 note=76 velocity=127 time=67\n",
      "note_on channel=14 note=73 velocity=0 time=2\n",
      "control_change channel=14 control=7 value=55 time=15\n",
      "note_on channel=14 note=76 velocity=0 time=35\n",
      "control_change channel=14 control=64 value=0 time=12\n",
      "note_on channel=14 note=40 velocity=115 time=3\n",
      "note_on channel=14 note=71 velocity=126 time=5\n",
      "note_on channel=14 note=76 velocity=127 time=3\n",
      "note_on channel=14 note=64 velocity=127 time=1\n",
      "control_change channel=14 control=64 value=127 time=37\n",
      "control_change channel=14 control=7 value=56 time=5\n",
      "note_on channel=14 note=47 velocity=111 time=31\n",
      "note_on channel=14 note=64 velocity=0 time=41\n",
      "note_on channel=14 note=52 velocity=127 time=24\n",
      "note_on channel=14 note=76 velocity=0 time=12\n",
      "note_on channel=14 note=71 velocity=0 time=8\n",
      "note_on channel=14 note=64 velocity=127 time=48\n",
      "note_on channel=14 note=64 velocity=0 time=47\n",
      "note_on channel=14 note=64 velocity=127 time=23\n",
      "note_on channel=14 note=76 velocity=127 time=1\n",
      "note_on channel=14 note=71 velocity=127 time=2\n",
      "note_on channel=14 note=52 velocity=0 time=45\n",
      "note_on channel=14 note=64 velocity=0 time=35\n",
      "note_on channel=14 note=40 velocity=0 time=29\n",
      "note_on channel=14 note=71 velocity=0 time=4\n",
      "note_on channel=14 note=76 velocity=0 time=2\n",
      "note_on channel=14 note=47 velocity=0 time=17\n",
      "note_on channel=14 note=52 velocity=122 time=3\n",
      "note_on channel=14 note=52 velocity=0 time=12\n",
      "note_on channel=14 note=64 velocity=105 time=18\n",
      "note_on channel=14 note=64 velocity=0 time=32\n",
      "note_on channel=14 note=76 velocity=126 time=2\n",
      "note_on channel=14 note=76 velocity=0 time=61\n",
      "control_change channel=14 control=64 value=0 time=11\n",
      "note_on channel=14 note=54 velocity=103 time=3\n",
      "note_on channel=14 note=63 velocity=120 time=4\n",
      "note_on channel=14 note=75 velocity=122 time=2\n",
      "control_change channel=14 control=64 value=127 time=37\n",
      "note_on channel=14 note=63 velocity=0 time=26\n",
      "note_on channel=14 note=59 velocity=91 time=8\n",
      "note_on channel=14 note=75 velocity=0 time=36\n",
      "note_on channel=14 note=64 velocity=113 time=34\n",
      "note_on channel=14 note=76 velocity=118 time=2\n",
      "note_on channel=14 note=63 velocity=111 time=141\n",
      "note_on channel=14 note=64 velocity=0 time=20\n",
      "note_on channel=14 note=76 velocity=0 time=11\n",
      "note_on channel=14 note=63 velocity=0 time=21\n",
      "note_on channel=14 note=59 velocity=0 time=32\n",
      "note_on channel=14 note=54 velocity=0 time=2\n",
      "note_on channel=14 note=64 velocity=118 time=46\n",
      "note_on channel=14 note=76 velocity=112 time=2\n",
      "note_on channel=14 note=64 velocity=0 time=29\n",
      "note_on channel=14 note=76 velocity=0 time=98\n",
      "control_change channel=14 control=64 value=0 time=12\n",
      "note_on channel=14 note=63 velocity=101 time=1\n",
      "note_on channel=14 note=52 velocity=108 time=1\n",
      "note_on channel=14 note=75 velocity=100 time=1\n",
      "control_change channel=14 control=64 value=127 time=45\n",
      "note_on channel=14 note=63 velocity=0 time=35\n",
      "note_on channel=14 note=57 velocity=104 time=24\n",
      "note_on channel=14 note=75 velocity=0 time=10\n",
      "note_on channel=14 note=64 velocity=118 time=31\n",
      "note_on channel=14 note=76 velocity=127 time=2\n",
      "note_on channel=14 note=64 velocity=0 time=72\n",
      "note_on channel=14 note=61 velocity=115 time=69\n",
      "note_on channel=14 note=76 velocity=0 time=10\n",
      "note_on channel=14 note=52 velocity=0 time=4\n",
      "note_on channel=14 note=57 velocity=0 time=3\n",
      "note_on channel=14 note=61 velocity=0 time=75\n",
      "note_on channel=14 note=66 velocity=118 time=47\n",
      "note_on channel=14 note=78 velocity=126 time=1\n",
      "note_on channel=14 note=66 velocity=0 time=21\n",
      "note_on channel=14 note=78 velocity=0 time=14\n",
      "control_change channel=14 control=64 value=0 time=92\n",
      "note_on channel=14 note=80 velocity=127 time=29\n",
      "note_on channel=14 note=68 velocity=116 time=0\n",
      "note_on channel=14 note=52 velocity=111 time=0\n",
      "control_change channel=14 control=64 value=127 time=20\n",
      "note_on channel=14 note=59 velocity=94 time=43\n",
      "note_on channel=14 note=68 velocity=0 time=22\n",
      "note_on channel=14 note=80 velocity=0 time=16\n",
      "note_on channel=14 note=63 velocity=100 time=32\n",
      "note_on channel=14 note=63 velocity=0 time=48\n",
      "note_on channel=14 note=80 velocity=124 time=14\n",
      "note_on channel=14 note=68 velocity=106 time=2\n",
      "note_on channel=14 note=68 velocity=0 time=27\n",
      "note_on channel=14 note=80 velocity=0 time=0\n",
      "note_on channel=14 note=78 velocity=127 time=42\n",
      "note_on channel=14 note=66 velocity=120 time=2\n",
      "note_on channel=14 note=66 velocity=0 time=16\n",
      "note_on channel=14 note=78 velocity=0 time=7\n",
      "note_on channel=14 note=52 velocity=0 time=82\n",
      "note_on channel=14 note=59 velocity=0 time=36\n",
      "note_on channel=14 note=64 velocity=124 time=71\n",
      "note_on channel=14 note=64 velocity=124 time=0\n",
      "control_change channel=14 control=7 value=55 time=25\n",
      "control_change channel=14 control=7 value=54 time=13\n",
      "note_on channel=14 note=64 velocity=0 time=5\n",
      "note_on channel=14 note=64 velocity=0 time=0\n",
      "control_change channel=14 control=7 value=52 time=10\n",
      "control_change channel=14 control=64 value=0 time=13\n",
      "note_on channel=14 note=40 velocity=112 time=4\n",
      "control_change channel=14 control=7 value=50 time=5\n",
      "note_on channel=14 note=76 velocity=122 time=0\n",
      "note_on channel=14 note=64 velocity=122 time=0\n",
      "note_on channel=14 note=71 velocity=127 time=5\n",
      "control_change channel=14 control=64 value=127 time=37\n",
      "note_on channel=14 note=47 velocity=101 time=28\n",
      "note_on channel=14 note=64 velocity=0 time=36\n",
      "note_on channel=14 note=52 velocity=106 time=31\n",
      "note_on channel=14 note=76 velocity=0 time=3\n",
      "note_on channel=14 note=71 velocity=0 time=15\n",
      "control_change channel=14 control=7 value=51 time=30\n",
      "note_on channel=14 note=64 velocity=127 time=25\n",
      "note_on channel=14 note=64 velocity=0 time=37\n",
      "note_on channel=14 note=76 velocity=127 time=34\n",
      "note_on channel=14 note=64 velocity=127 time=1\n",
      "note_on channel=14 note=71 velocity=127 time=3\n",
      "note_on channel=14 note=52 velocity=0 time=35\n",
      "note_on channel=14 note=64 velocity=0 time=30\n",
      "note_on channel=14 note=76 velocity=0 time=12\n",
      "note_on channel=14 note=71 velocity=0 time=2\n",
      "note_on channel=14 note=76 velocity=127 time=64\n",
      "note_on channel=14 note=40 velocity=0 time=1\n",
      "note_on channel=14 note=64 velocity=127 time=2\n",
      "note_on channel=14 note=71 velocity=109 time=4\n",
      "note_on channel=14 note=71 velocity=0 time=13\n",
      "note_on channel=14 note=64 velocity=0 time=13\n",
      "note_on channel=14 note=47 velocity=0 time=17\n",
      "note_on channel=14 note=52 velocity=124 time=19\n",
      "note_on channel=14 note=76 velocity=0 time=28\n",
      "control_change channel=14 control=64 value=0 time=30\n",
      "note_on channel=14 note=52 velocity=0 time=1\n",
      "note_on channel=14 note=63 velocity=122 time=14\n",
      "note_on channel=14 note=75 velocity=126 time=0\n",
      "note_on channel=14 note=42 velocity=103 time=5\n",
      "control_change channel=14 control=64 value=127 time=25\n",
      "note_on channel=14 note=63 velocity=0 time=25\n",
      "note_on channel=14 note=47 velocity=104 time=18\n",
      "note_on channel=14 note=75 velocity=0 time=25\n",
      "note_on channel=14 note=64 velocity=124 time=50\n",
      "note_on channel=14 note=76 velocity=127 time=0\n",
      "note_on channel=14 note=47 velocity=0 time=48\n",
      "note_on channel=14 note=64 velocity=0 time=93\n",
      "note_on channel=14 note=76 velocity=0 time=9\n",
      "note_on channel=14 note=47 velocity=100 time=17\n",
      "note_on channel=14 note=42 velocity=0 time=30\n",
      "note_on channel=14 note=47 velocity=0 time=24\n",
      "note_on channel=14 note=64 velocity=111 time=48\n",
      "note_on channel=14 note=76 velocity=112 time=0\n",
      "note_on channel=14 note=76 velocity=0 time=24\n",
      "note_on channel=14 note=64 velocity=0 time=3\n",
      "control_change channel=14 control=64 value=0 time=122\n",
      "note_on channel=14 note=71 velocity=103 time=2\n",
      "note_on channel=14 note=45 velocity=100 time=3\n",
      "note_on channel=14 note=59 velocity=98 time=0\n",
      "control_change channel=14 control=64 value=127 time=42\n",
      "note_on channel=14 note=52 velocity=101 time=28\n",
      "note_on channel=14 note=59 velocity=0 time=13\n",
      "note_on channel=14 note=71 velocity=0 time=33\n",
      "note_on channel=14 note=59 velocity=103 time=17\n",
      "note_on channel=14 note=64 velocity=100 time=91\n",
      "note_on channel=14 note=52 velocity=0 time=8\n",
      "note_on channel=14 note=52 velocity=115 time=47\n",
      "note_on channel=14 note=59 velocity=0 time=3\n",
      "note_on channel=14 note=64 velocity=0 time=58\n",
      "note_on channel=14 note=59 velocity=115 time=12\n",
      "note_on channel=14 note=52 velocity=0 time=15\n",
      "note_on channel=14 note=45 velocity=0 time=8\n",
      "note_on channel=14 note=64 velocity=124 time=45\n",
      "note_on channel=14 note=59 velocity=0 time=14\n",
      "note_on channel=14 note=71 velocity=124 time=56\n",
      "note_on channel=14 note=64 velocity=0 time=3\n",
      "note_on channel=14 note=71 velocity=0 time=17\n",
      "control_change channel=14 control=64 value=0 time=44\n",
      "note_on channel=14 note=32 velocity=118 time=10\n",
      "note_on channel=14 note=44 velocity=116 time=2\n",
      "note_on channel=14 note=73 velocity=127 time=1\n",
      "note_on channel=14 note=61 velocity=127 time=2\n",
      "control_change channel=14 control=64 value=127 time=30\n",
      "note_on channel=14 note=44 velocity=0 time=82\n",
      "note_on channel=14 note=61 velocity=0 time=9\n",
      "note_on channel=14 note=73 velocity=0 time=24\n",
      "note_on channel=14 note=44 velocity=124 time=53\n",
      "note_on channel=14 note=63 velocity=127 time=75\n",
      "note_on channel=14 note=75 velocity=127 time=0\n",
      "note_on channel=14 note=44 velocity=0 time=5\n",
      "note_on channel=14 note=32 velocity=0 time=26\n",
      "note_on channel=14 note=63 velocity=0 time=4\n",
      "note_on channel=14 note=75 velocity=0 time=7\n",
      "note_on channel=14 note=64 velocity=112 time=93\n",
      "note_on channel=14 note=64 velocity=0 time=56\n",
      "note_on channel=14 note=71 velocity=97 time=11\n",
      "control_change channel=14 control=64 value=0 time=40\n",
      "note_on channel=14 note=71 velocity=0 time=2\n",
      "note_on channel=14 note=37 velocity=109 time=23\n",
      "note_on channel=14 note=76 velocity=126 time=3\n",
      "note_on channel=14 note=64 velocity=122 time=3\n",
      "note_on channel=14 note=71 velocity=105 time=3\n",
      "control_change channel=14 control=64 value=127 time=3\n",
      "note_on channel=14 note=64 velocity=0 time=20\n",
      "note_on channel=14 note=76 velocity=0 time=4\n",
      "note_on channel=14 note=71 velocity=0 time=7\n",
      "note_on channel=14 note=44 velocity=98 time=32\n",
      "note_on channel=14 note=49 velocity=113 time=136\n",
      "note_on channel=14 note=44 velocity=0 time=2\n",
      "control_change channel=14 control=7 value=52 time=0\n",
      "control_change channel=14 control=7 value=53 time=5\n",
      "note_on channel=14 note=49 velocity=0 time=47\n",
      "note_on channel=14 note=44 velocity=102 time=25\n",
      "control_change channel=14 control=7 value=56 time=20\n",
      "control_change channel=14 control=93 value=4 time=20\n",
      "control_change channel=14 control=93 value=7 time=55\n",
      "control_change channel=14 control=93 value=11 time=5\n",
      "control_change channel=14 control=93 value=17 time=10\n",
      "note_on channel=14 note=49 velocity=106 time=17\n",
      "note_on channel=14 note=44 velocity=0 time=2\n",
      "control_change channel=14 control=93 value=21 time=17\n",
      "control_change channel=14 control=93 value=24 time=10\n",
      "control_change channel=14 control=93 value=30 time=5\n",
      "control_change channel=14 control=93 value=33 time=5\n",
      "note_on channel=14 note=49 velocity=0 time=5\n",
      "note_on channel=14 note=37 velocity=0 time=21\n",
      "note_on channel=14 note=44 velocity=120 time=5\n",
      "control_change channel=14 control=93 value=36 time=10\n",
      "control_change channel=14 control=93 value=38 time=5\n",
      "note_on channel=14 note=44 velocity=0 time=11\n",
      "control_change channel=14 control=93 value=40 time=0\n",
      "control_change channel=14 control=7 value=57 time=7\n",
      "control_change channel=14 control=7 value=58 time=18\n",
      "control_change channel=14 control=93 value=42 time=5\n",
      "control_change channel=14 control=93 value=43 time=5\n",
      "note_on channel=14 note=66 velocity=127 time=7\n",
      "note_on channel=14 note=78 velocity=127 time=0\n",
      "control_change channel=14 control=93 value=45 time=2\n",
      "control_change channel=14 control=64 value=0 time=0\n",
      "note_on channel=14 note=35 velocity=126 time=3\n",
      "control_change channel=14 control=93 value=47 time=10\n",
      "control_change channel=14 control=93 value=49 time=12\n",
      "control_change channel=14 control=64 value=127 time=15\n",
      "control_change channel=14 control=7 value=59 time=5\n",
      "control_change channel=14 control=7 value=60 time=10\n",
      "control_change channel=14 control=93 value=51 time=5\n",
      "control_change channel=14 control=93 value=53 time=9\n",
      "note_on channel=14 note=42 velocity=97 time=0\n",
      "control_change channel=14 control=93 value=55 time=45\n",
      "note_on channel=14 note=66 velocity=0 time=5\n",
      "note_on channel=14 note=47 velocity=103 time=20\n",
      "note_on channel=14 note=78 velocity=0 time=14\n",
      "note_on channel=14 note=66 velocity=112 time=56\n",
      "note_on channel=14 note=66 velocity=0 time=34\n",
      "note_on channel=14 note=66 velocity=127 time=34\n",
      "note_on channel=14 note=78 velocity=127 time=2\n",
      "note_on channel=14 note=66 velocity=0 time=13\n",
      "note_on channel=14 note=78 velocity=0 time=4\n",
      "note_on channel=14 note=47 velocity=0 time=15\n",
      "note_on channel=14 note=35 velocity=0 time=106\n",
      "note_on channel=14 note=59 velocity=126 time=1\n",
      "note_on channel=14 note=71 velocity=127 time=2\n",
      "note_on channel=14 note=47 velocity=89 time=3\n",
      "note_on channel=14 note=42 velocity=0 time=1\n",
      "note_on channel=14 note=59 velocity=0 time=7\n",
      "note_on channel=14 note=71 velocity=0 time=10\n",
      "note_on channel=14 note=47 velocity=0 time=19\n",
      "control_change channel=14 control=7 value=61 time=89\n",
      "control_change channel=14 control=7 value=63 time=5\n",
      "note_on channel=14 note=71 velocity=115 time=10\n",
      "note_on channel=14 note=33 velocity=103 time=1\n",
      "note_on channel=14 note=83 velocity=122 time=0\n",
      "control_change channel=14 control=64 value=0 time=5\n",
      "control_change channel=14 control=64 value=127 time=41\n",
      "note_on channel=14 note=40 velocity=87 time=24\n",
      "note_on channel=14 note=71 velocity=0 time=76\n",
      "note_on channel=14 note=83 velocity=0 time=3\n",
      "note_on channel=14 note=40 velocity=0 time=2\n",
      "note_on channel=14 note=47 velocity=80 time=10\n",
      "note_on channel=14 note=47 velocity=0 time=21\n",
      "note_on channel=14 note=40 velocity=98 time=38\n",
      "control_change channel=14 control=7 value=62 time=33\n",
      "note_on channel=14 note=69 velocity=118 time=34\n",
      "note_on channel=14 note=81 velocity=120 time=4\n",
      "control_change channel=14 control=7 value=61 time=21\n",
      "note_on channel=14 note=69 velocity=0 time=6\n",
      "note_on channel=14 note=81 velocity=0 time=35\n",
      "control_change channel=14 control=7 value=59 time=10\n",
      "note_on channel=14 note=33 velocity=0 time=5\n",
      "note_on channel=14 note=47 velocity=102 time=55\n",
      "note_on channel=14 note=40 velocity=0 time=15\n",
      "note_on channel=14 note=68 velocity=97 time=37\n",
      "note_on channel=14 note=47 velocity=0 time=1\n",
      "note_on channel=14 note=80 velocity=127 time=25\n",
      "note_on channel=14 note=68 velocity=0 time=3\n",
      "note_on channel=14 note=80 velocity=0 time=24\n",
      "control_change channel=14 control=7 value=57 time=15\n",
      "control_change channel=14 control=7 value=56 time=20\n",
      "note_on channel=14 note=78 velocity=108 time=6\n",
      "control_change channel=14 control=64 value=0 time=1\n",
      "note_on channel=14 note=66 velocity=100 time=1\n",
      "note_on channel=14 note=35 velocity=108 time=3\n",
      "control_change channel=14 control=64 value=127 time=50\n",
      "note_on channel=14 note=42 velocity=93 time=17\n",
      "control_change channel=14 control=7 value=55 time=15\n",
      "note_on channel=14 note=66 velocity=0 time=31\n",
      "note_on channel=14 note=78 velocity=0 time=14\n",
      "note_on channel=14 note=47 velocity=102 time=12\n",
      "note_on channel=14 note=66 velocity=109 time=63\n",
      "note_on channel=14 note=66 velocity=0 time=33\n",
      "note_on channel=14 note=66 velocity=127 time=36\n",
      "note_on channel=14 note=66 velocity=0 time=19\n",
      "note_on channel=14 note=78 velocity=127 time=9\n",
      "note_on channel=14 note=78 velocity=0 time=4\n",
      "note_on channel=14 note=47 velocity=0 time=20\n",
      "note_on channel=14 note=68 velocity=124 time=37\n",
      "note_on channel=14 note=80 velocity=113 time=3\n",
      "note_on channel=14 note=35 velocity=0 time=22\n",
      "note_on channel=14 note=68 velocity=0 time=11\n",
      "note_on channel=14 note=47 velocity=116 time=7\n",
      "note_on channel=14 note=80 velocity=0 time=2\n",
      "note_on channel=14 note=69 velocity=127 time=38\n",
      "note_on channel=14 note=81 velocity=127 time=2\n",
      "note_on channel=14 note=47 velocity=0 time=10\n",
      "note_on channel=14 note=42 velocity=0 time=0\n",
      "note_on channel=14 note=69 velocity=0 time=13\n",
      "note_on channel=14 note=81 velocity=0 time=27\n",
      "control_change channel=14 control=7 value=54 time=20\n",
      "control_change channel=14 control=7 value=52 time=10\n",
      "control_change channel=14 control=64 value=0 time=17\n",
      "note_on channel=14 note=68 velocity=106 time=3\n",
      "note_on channel=14 note=80 velocity=116 time=1\n",
      "note_on channel=14 note=37 velocity=97 time=2\n",
      "control_change channel=14 control=64 value=127 time=54\n",
      "note_on channel=14 note=44 velocity=94 time=25\n",
      "note_on channel=14 note=68 velocity=0 time=41\n",
      "note_on channel=14 note=80 velocity=0 time=6\n",
      "note_on channel=14 note=49 velocity=99 time=27\n",
      "note_on channel=14 note=66 velocity=109 time=128\n",
      "note_on channel=14 note=78 velocity=115 time=0\n",
      "note_on channel=14 note=66 velocity=0 time=19\n",
      "note_on channel=14 note=49 velocity=0 time=0\n",
      "note_on channel=14 note=78 velocity=0 time=2\n",
      "note_on channel=14 note=49 velocity=105 time=113\n",
      "note_on channel=14 note=44 velocity=0 time=10\n",
      "note_on channel=14 note=49 velocity=0 time=19\n",
      "note_on channel=14 note=37 velocity=0 time=13\n",
      "note_on channel=14 note=64 velocity=115 time=21\n",
      "note_on channel=14 note=76 velocity=124 time=14\n",
      "note_on channel=14 note=64 velocity=0 time=3\n",
      "note_on channel=14 note=76 velocity=0 time=27\n",
      "control_change channel=14 control=64 value=0 time=26\n",
      "note_on channel=14 note=63 velocity=112 time=4\n",
      "note_on channel=14 note=75 velocity=115 time=2\n",
      "note_on channel=14 note=35 velocity=105 time=0\n",
      "control_change channel=14 control=64 value=127 time=39\n",
      "note_on channel=14 note=42 velocity=98 time=29\n",
      "note_on channel=14 note=63 velocity=0 time=14\n",
      "note_on channel=14 note=75 velocity=0 time=44\n",
      "note_on channel=14 note=76 velocity=111 time=31\n",
      "note_on channel=14 note=64 velocity=115 time=0\n",
      "control_change channel=14 control=64 value=0 time=123\n",
      "note_on channel=14 note=47 velocity=96 time=8\n",
      "note_on channel=14 note=64 velocity=0 time=15\n",
      "control_change channel=14 control=64 value=127 time=9\n",
      "note_on channel=14 note=76 velocity=0 time=98\n",
      "note_on channel=14 note=75 velocity=103 time=23\n",
      "note_on channel=14 note=63 velocity=102 time=1\n",
      "note_on channel=14 note=75 velocity=0 time=22\n",
      "note_on channel=14 note=63 velocity=0 time=1\n",
      "note_on channel=14 note=35 velocity=0 time=7\n",
      "note_on channel=14 note=47 velocity=0 time=29\n",
      "note_on channel=14 note=42 velocity=0 time=28\n",
      "note_on channel=14 note=61 velocity=97 time=131\n",
      "note_on channel=14 note=33 velocity=88 time=1\n",
      "note_on channel=14 note=73 velocity=97 time=18\n",
      "control_change channel=14 control=64 value=0 time=5\n",
      "control_change channel=14 control=64 value=127 time=35\n",
      "note_on channel=14 note=73 velocity=0 time=21\n",
      "note_on channel=14 note=40 velocity=91 time=2\n",
      "note_on channel=14 note=61 velocity=0 time=7\n",
      "note_on channel=14 note=45 velocity=104 time=67\n",
      "note_on channel=14 note=49 velocity=105 time=60\n",
      "note_on channel=14 note=49 velocity=0 time=65\n",
      "note_on channel=14 note=52 velocity=113 time=12\n",
      "note_on channel=14 note=45 velocity=0 time=37\n",
      "note_on channel=14 note=52 velocity=0 time=32\n",
      "note_on channel=14 note=57 velocity=116 time=4\n",
      "note_on channel=14 note=33 velocity=0 time=18\n",
      "note_on channel=14 note=57 velocity=0 time=5\n",
      "note_on channel=14 note=45 velocity=109 time=76\n",
      "note_on channel=14 note=45 velocity=0 time=31\n",
      "note_on channel=14 note=33 velocity=111 time=8\n",
      "note_on channel=14 note=40 velocity=0 time=4\n",
      "note_on channel=14 note=33 velocity=0 time=23\n",
      "note_on channel=14 note=32 velocity=112 time=47\n",
      "note_on channel=14 note=71 velocity=127 time=2\n",
      "note_on channel=14 note=59 velocity=127 time=1\n",
      "control_change channel=14 control=64 value=0 time=4\n",
      "control_change channel=14 control=64 value=127 time=42\n",
      "note_on channel=14 note=32 velocity=0 time=106\n",
      "note_on channel=14 note=59 velocity=0 time=18\n",
      "note_on channel=14 note=32 velocity=105 time=44\n",
      "note_on channel=14 note=32 velocity=0 time=59\n",
      "note_on channel=14 note=71 velocity=0 time=2\n",
      "note_on channel=14 note=69 velocity=118 time=11\n",
      "note_on channel=14 note=30 velocity=112 time=1\n",
      "control_change channel=14 control=64 value=0 time=1\n",
      "note_on channel=14 note=57 velocity=126 time=1\n",
      "control_change channel=14 control=64 value=127 time=36\n",
      "note_on channel=14 note=57 velocity=0 time=37\n",
      "note_on channel=14 note=30 velocity=0 time=12\n",
      "note_on channel=14 note=69 velocity=0 time=18\n",
      "note_on channel=14 note=30 velocity=106 time=30\n",
      "note_on channel=14 note=30 velocity=0 time=20\n",
      "control_change channel=14 control=7 value=49 time=48\n",
      "control_change channel=14 control=7 value=48 time=35\n",
      "note_on channel=14 note=37 velocity=118 time=36\n",
      "note_on channel=14 note=76 velocity=127 time=2\n",
      "note_on channel=14 note=73 velocity=127 time=2\n",
      "control_change channel=14 control=64 value=0 time=1\n",
      "control_change channel=14 control=7 value=47 time=10\n",
      "control_change channel=14 control=64 value=127 time=31\n",
      "note_on channel=14 note=44 velocity=99 time=27\n",
      "note_on channel=14 note=73 velocity=0 time=68\n",
      "note_on channel=14 note=64 velocity=122 time=2\n",
      "note_on channel=14 note=76 velocity=0 time=1\n",
      "note_on channel=14 note=73 velocity=127 time=64\n",
      "control_change channel=14 control=7 value=49 time=5\n",
      "control_change channel=14 control=7 value=50 time=5\n",
      "control_change channel=14 control=7 value=51 time=5\n",
      "note_on channel=14 note=64 velocity=0 time=26\n",
      "note_on channel=14 note=73 velocity=0 time=20\n",
      "control_change channel=14 control=7 value=52 time=16\n",
      "note_on channel=14 note=64 velocity=127 time=0\n",
      "note_on channel=14 note=73 velocity=126 time=0\n",
      "note_on channel=14 note=76 velocity=127 time=0\n",
      "note_on channel=14 note=64 velocity=0 time=20\n",
      "note_on channel=14 note=73 velocity=0 time=24\n",
      "note_on channel=14 note=76 velocity=0 time=21\n",
      "note_on channel=14 note=37 velocity=0 time=76\n",
      "note_on channel=14 note=49 velocity=113 time=3\n",
      "note_on channel=14 note=44 velocity=0 time=7\n",
      "note_on channel=14 note=49 velocity=0 time=18\n",
      "note_on channel=14 note=78 velocity=120 time=46\n",
      "control_change channel=14 control=7 value=50 time=21\n",
      "note_on channel=14 note=78 velocity=0 time=2\n",
      "control_change channel=14 control=7 value=49 time=5\n",
      "control_change channel=14 control=7 value=48 time=15\n",
      "control_change channel=14 control=7 value=47 time=5\n",
      "control_change channel=14 control=64 value=0 time=18\n",
      "note_on channel=14 note=78 velocity=127 time=2\n",
      "note_on channel=14 note=35 velocity=118 time=2\n",
      "note_on channel=14 note=75 velocity=98 time=8\n",
      "note_on channel=14 note=75 velocity=0 time=10\n",
      "control_change channel=14 control=64 value=127 time=16\n",
      "control_change channel=14 control=7 value=49 time=25\n",
      "note_on channel=14 note=42 velocity=99 time=11\n",
      "control_change channel=14 control=7 value=50 time=3\n",
      "control_change channel=14 control=7 value=51 time=1\n",
      "control_change channel=14 control=7 value=52 time=65\n",
      "note_on channel=14 note=47 velocity=113 time=0\n",
      "control_change channel=14 control=7 value=53 time=52\n",
      "note_on channel=14 note=78 velocity=0 time=17\n",
      "note_on channel=14 note=75 velocity=115 time=10\n",
      "note_on channel=14 note=78 velocity=127 time=56\n",
      "note_on channel=14 note=75 velocity=0 time=6\n",
      "note_on channel=14 note=78 velocity=0 time=7\n",
      "control_change channel=14 control=7 value=56 time=42\n",
      "note_on channel=14 note=47 velocity=0 time=25\n",
      "note_on channel=14 note=59 velocity=124 time=62\n",
      "note_on channel=14 note=71 velocity=124 time=3\n",
      "note_on channel=14 note=59 velocity=0 time=6\n",
      "note_on channel=14 note=71 velocity=0 time=15\n",
      "note_on channel=14 note=35 velocity=0 time=19\n",
      "note_on channel=14 note=42 velocity=0 time=23\n",
      "note_on channel=14 note=47 velocity=103 time=1\n",
      "note_on channel=14 note=47 velocity=0 time=23\n",
      "note_on channel=14 note=71 velocity=127 time=53\n",
      "note_on channel=14 note=83 velocity=127 time=0\n",
      "note_on channel=14 note=33 velocity=120 time=5\n",
      "control_change channel=14 control=64 value=0 time=5\n",
      "control_change channel=14 control=64 value=127 time=41\n",
      "note_on channel=14 note=40 velocity=89 time=21\n",
      "note_on channel=14 note=45 velocity=105 time=72\n",
      "note_on channel=14 note=40 velocity=0 time=3\n",
      "note_on channel=14 note=71 velocity=0 time=30\n"
     ]
    },
    {
     "name": "stdout",
     "output_type": "stream",
     "text": [
      "note_on channel=14 note=83 velocity=0 time=5\n",
      "note_on channel=14 note=45 velocity=0 time=17\n",
      "note_on channel=14 note=40 velocity=97 time=15\n",
      "note_on channel=14 note=69 velocity=127 time=71\n",
      "note_on channel=14 note=81 velocity=127 time=0\n",
      "note_on channel=14 note=45 velocity=118 time=1\n",
      "note_on channel=14 note=40 velocity=0 time=8\n",
      "note_on channel=14 note=69 velocity=0 time=18\n",
      "note_on channel=14 note=81 velocity=0 time=41\n",
      "note_on channel=14 note=45 velocity=0 time=39\n",
      "note_on channel=14 note=33 velocity=0 time=14\n",
      "note_on channel=14 note=68 velocity=115 time=19\n",
      "note_on channel=14 note=40 velocity=92 time=1\n",
      "note_on channel=14 note=80 velocity=116 time=1\n",
      "note_on channel=14 note=80 velocity=0 time=20\n",
      "note_on channel=14 note=68 velocity=0 time=1\n",
      "note_on channel=14 note=78 velocity=127 time=42\n",
      "note_on channel=14 note=66 velocity=124 time=2\n",
      "note_on channel=14 note=40 velocity=0 time=23\n",
      "control_change channel=14 control=64 value=0 time=27\n",
      "control_change channel=14 control=7 value=55 time=14\n",
      "note_on channel=14 note=35 velocity=115 time=6\n",
      "control_change channel=14 control=7 value=54 time=25\n",
      "control_change channel=14 control=64 value=127 time=20\n",
      "note_on channel=14 note=42 velocity=92 time=22\n",
      "note_on channel=14 note=66 velocity=0 time=38\n",
      "note_on channel=14 note=78 velocity=0 time=25\n",
      "note_on channel=14 note=47 velocity=104 time=11\n",
      "note_on channel=14 note=66 velocity=108 time=62\n",
      "note_on channel=14 note=66 velocity=0 time=37\n",
      "note_on channel=14 note=66 velocity=127 time=32\n",
      "note_on channel=14 note=78 velocity=127 time=0\n",
      "note_on channel=14 note=66 velocity=0 time=18\n",
      "note_on channel=14 note=78 velocity=0 time=14\n",
      "note_on channel=14 note=47 velocity=0 time=29\n",
      "note_on channel=14 note=68 velocity=127 time=29\n",
      "note_on channel=14 note=80 velocity=127 time=1\n",
      "note_on channel=14 note=47 velocity=127 time=38\n",
      "note_on channel=14 note=80 velocity=0 time=5\n",
      "note_on channel=14 note=68 velocity=0 time=1\n",
      "note_on channel=14 note=35 velocity=0 time=2\n",
      "control_change channel=14 control=7 value=52 time=10\n",
      "note_on channel=14 note=69 velocity=127 time=16\n",
      "note_on channel=14 note=81 velocity=127 time=2\n",
      "note_on channel=14 note=42 velocity=0 time=16\n",
      "note_on channel=14 note=69 velocity=0 time=6\n",
      "note_on channel=14 note=47 velocity=0 time=3\n",
      "note_on channel=14 note=81 velocity=0 time=18\n",
      "note_on channel=14 note=68 velocity=124 time=64\n",
      "note_on channel=14 note=80 velocity=127 time=1\n",
      "note_on channel=14 note=37 velocity=104 time=5\n",
      "control_change channel=14 control=64 value=0 time=1\n",
      "control_change channel=14 control=64 value=127 time=54\n",
      "note_on channel=14 note=44 velocity=96 time=18\n",
      "note_on channel=14 note=80 velocity=0 time=55\n",
      "note_on channel=14 note=68 velocity=0 time=14\n",
      "note_on channel=14 note=49 velocity=100 time=3\n",
      "note_on channel=14 note=66 velocity=96 time=63\n",
      "note_on channel=14 note=66 velocity=0 time=35\n",
      "note_on channel=14 note=78 velocity=126 time=39\n",
      "note_on channel=14 note=66 velocity=116 time=1\n",
      "note_on channel=14 note=66 velocity=0 time=20\n",
      "note_on channel=14 note=49 velocity=0 time=3\n",
      "note_on channel=14 note=78 velocity=0 time=0\n",
      "note_on channel=14 note=49 velocity=87 time=118\n",
      "note_on channel=14 note=44 velocity=0 time=9\n",
      "note_on channel=14 note=49 velocity=0 time=4\n",
      "note_on channel=14 note=76 velocity=126 time=5\n",
      "note_on channel=14 note=64 velocity=109 time=0\n",
      "note_on channel=14 note=64 velocity=0 time=4\n",
      "note_on channel=14 note=44 velocity=101 time=45\n",
      "note_on channel=14 note=37 velocity=0 time=1\n",
      "note_on channel=14 note=44 velocity=0 time=9\n",
      "note_on channel=14 note=76 velocity=0 time=45\n",
      "note_on channel=14 note=63 velocity=116 time=14\n",
      "note_on channel=14 note=75 velocity=116 time=2\n",
      "note_on channel=14 note=35 velocity=112 time=5\n",
      "control_change channel=14 control=64 value=0 time=1\n",
      "control_change channel=14 control=64 value=127 time=45\n",
      "note_on channel=14 note=42 velocity=106 time=24\n",
      "note_on channel=14 note=63 velocity=0 time=15\n",
      "note_on channel=14 note=75 velocity=0 time=34\n",
      "note_on channel=14 note=64 velocity=118 time=26\n",
      "note_on channel=14 note=76 velocity=126 time=3\n",
      "note_on channel=14 note=47 velocity=126 time=140\n",
      "note_on channel=14 note=64 velocity=0 time=11\n",
      "note_on channel=14 note=35 velocity=0 time=52\n",
      "note_on channel=14 note=47 velocity=0 time=14\n",
      "note_on channel=14 note=42 velocity=0 time=32\n",
      "note_on channel=14 note=76 velocity=0 time=33\n",
      "note_on channel=14 note=63 velocity=126 time=13\n",
      "note_on channel=14 note=75 velocity=127 time=52\n",
      "note_on channel=14 note=63 velocity=0 time=1\n",
      "note_on channel=14 note=75 velocity=0 time=37\n",
      "control_change channel=14 control=64 value=0 time=27\n",
      "note_on channel=14 note=63 velocity=127 time=10\n",
      "note_on channel=14 note=75 velocity=127 time=1\n",
      "note_on channel=14 note=33 velocity=127 time=2\n",
      "control_change channel=14 control=64 value=127 time=31\n",
      "note_on channel=14 note=40 velocity=127 time=38\n",
      "note_on channel=14 note=63 velocity=0 time=16\n",
      "note_on channel=14 note=75 velocity=0 time=20\n",
      "note_on channel=14 note=76 velocity=127 time=37\n",
      "note_on channel=14 note=64 velocity=127 time=0\n",
      "note_on channel=14 note=64 velocity=0 time=24\n",
      "note_on channel=14 note=76 velocity=0 time=16\n",
      "note_on channel=14 note=45 velocity=127 time=100\n",
      "note_on channel=14 note=33 velocity=0 time=48\n",
      "note_on channel=14 note=45 velocity=0 time=44\n",
      "note_on channel=14 note=40 velocity=0 time=41\n",
      "note_on channel=14 note=78 velocity=127 time=8\n",
      "note_on channel=14 note=66 velocity=127 time=2\n",
      "note_on channel=14 note=66 velocity=0 time=22\n",
      "note_on channel=14 note=78 velocity=0 time=10\n",
      "control_change channel=14 control=64 value=0 time=100\n",
      "note_on channel=14 note=35 velocity=118 time=4\n",
      "note_on channel=14 note=68 velocity=122 time=1\n",
      "note_on channel=14 note=80 velocity=127 time=0\n",
      "note_on channel=14 note=47 velocity=106 time=1\n",
      "control_change channel=14 control=64 value=127 time=43\n",
      "note_on channel=14 note=47 velocity=0 time=80\n",
      "note_on channel=14 note=68 velocity=0 time=13\n",
      "note_on channel=14 note=80 velocity=0 time=28\n",
      "note_on channel=14 note=66 velocity=98 time=102\n",
      "note_on channel=14 note=78 velocity=122 time=19\n",
      "note_on channel=14 note=66 velocity=0 time=3\n",
      "note_on channel=14 note=78 velocity=0 time=15\n",
      "note_on channel=14 note=35 velocity=0 time=18\n",
      "note_on channel=14 note=47 velocity=89 time=96\n",
      "note_on channel=14 note=47 velocity=0 time=23\n",
      "control_change channel=14 control=64 value=0 time=110\n",
      "note_on channel=14 note=40 velocity=85 time=5\n",
      "note_on channel=14 note=64 velocity=94 time=0\n",
      "note_on channel=14 note=76 velocity=94 time=0\n",
      "control_change channel=14 control=7 value=50 time=5\n",
      "control_change channel=14 control=64 value=127 time=34\n",
      "note_on channel=14 note=47 velocity=82 time=30\n",
      "note_on channel=14 note=64 velocity=0 time=18\n",
      "note_on channel=14 note=76 velocity=0 time=58\n",
      "note_on channel=14 note=52 velocity=98 time=0\n",
      "note_on channel=14 note=64 velocity=86 time=64\n",
      "note_on channel=14 note=71 velocity=98 time=77\n",
      "note_on channel=14 note=71 velocity=0 time=61\n",
      "note_on channel=14 note=76 velocity=105 time=7\n",
      "note_on channel=14 note=52 velocity=0 time=54\n",
      "note_on channel=14 note=64 velocity=0 time=21\n",
      "note_on channel=14 note=76 velocity=0 time=70\n",
      "note_on channel=14 note=71 velocity=89 time=10\n",
      "note_on channel=14 note=40 velocity=0 time=6\n",
      "note_on channel=14 note=71 velocity=0 time=114\n",
      "note_on channel=14 note=64 velocity=103 time=30\n",
      "note_on channel=14 note=71 velocity=89 time=136\n",
      "note_on channel=14 note=52 velocity=94 time=77\n",
      "note_on channel=14 note=64 velocity=0 time=5\n",
      "note_on channel=14 note=71 velocity=0 time=58\n",
      "note_on channel=14 note=76 velocity=113 time=4\n",
      "note_on channel=14 note=47 velocity=0 time=29\n",
      "note_on channel=14 note=52 velocity=0 time=22\n",
      "note_on channel=14 note=71 velocity=120 time=22\n",
      "note_on channel=14 note=76 velocity=0 time=7\n",
      "note_on channel=14 note=71 velocity=0 time=63\n",
      "note_on channel=14 note=64 velocity=127 time=0\n",
      "note_on channel=14 note=64 velocity=0 time=51\n",
      "note_on channel=14 note=71 velocity=99 time=26\n",
      "note_on channel=14 note=52 velocity=113 time=5\n",
      "note_on channel=14 note=71 velocity=0 time=10\n",
      "control_change channel=14 control=64 value=0 time=8\n",
      "control_change channel=14 control=64 value=127 time=40\n",
      "note_on channel=14 note=59 velocity=102 time=18\n",
      "note_on channel=14 note=64 velocity=115 time=135\n",
      "note_on channel=14 note=64 velocity=0 time=27\n",
      "note_on channel=14 note=59 velocity=0 time=36\n",
      "note_on channel=14 note=64 velocity=127 time=14\n",
      "note_on channel=14 note=52 velocity=0 time=110\n",
      "note_on channel=14 note=64 velocity=0 time=15\n",
      "note_on channel=14 note=59 velocity=104 time=12\n",
      "note_on channel=14 note=64 velocity=108 time=66\n",
      "note_on channel=14 note=59 velocity=0 time=35\n",
      "control_change channel=14 control=64 value=0 time=34\n",
      "note_on channel=14 note=54 velocity=97 time=6\n",
      "note_on channel=14 note=63 velocity=127 time=4\n",
      "note_on channel=14 note=64 velocity=0 time=4\n",
      "control_change channel=14 control=64 value=127 time=29\n",
      "note_on channel=14 note=59 velocity=108 time=38\n",
      "note_on channel=14 note=63 velocity=0 time=54\n",
      "note_on channel=14 note=64 velocity=127 time=16\n",
      "note_on channel=14 note=59 velocity=0 time=38\n",
      "note_on channel=14 note=54 velocity=0 time=109\n",
      "note_on channel=14 note=59 velocity=127 time=2\n",
      "note_on channel=14 note=59 velocity=0 time=21\n",
      "note_on channel=14 note=64 velocity=0 time=5\n",
      "note_on channel=14 note=64 velocity=127 time=125\n",
      "control_change channel=14 control=64 value=0 time=124\n",
      "note_on channel=14 note=64 velocity=0 time=11\n",
      "note_on channel=14 note=40 velocity=113 time=2\n",
      "note_on channel=14 note=63 velocity=127 time=4\n",
      "control_change channel=14 control=64 value=127 time=34\n",
      "note_on channel=14 note=47 velocity=115 time=31\n",
      "note_on channel=14 note=63 velocity=0 time=40\n",
      "note_on channel=14 note=64 velocity=127 time=32\n",
      "note_on channel=14 note=52 velocity=127 time=147\n",
      "note_on channel=14 note=52 velocity=0 time=118\n",
      "note_on channel=14 note=66 velocity=116 time=38\n",
      "note_on channel=14 note=40 velocity=0 time=19\n",
      "note_on channel=14 note=64 velocity=0 time=13\n",
      "note_on channel=14 note=47 velocity=0 time=12\n",
      "note_on channel=14 note=52 velocity=112 time=12\n",
      "note_on channel=14 note=52 velocity=0 time=42\n",
      "note_on channel=14 note=66 velocity=0 time=28\n",
      "note_on channel=14 note=68 velocity=127 time=2\n",
      "note_on channel=14 note=40 velocity=120 time=1\n",
      "control_change channel=14 control=64 value=0 time=1\n",
      "control_change channel=14 control=64 value=127 time=39\n",
      "note_on channel=14 note=47 velocity=111 time=24\n",
      "note_on channel=14 note=52 velocity=127 time=81\n",
      "control_change channel=14 control=64 value=127 time=59\n",
      "note_on channel=14 note=66 velocity=122 time=0\n",
      "note_on channel=14 note=68 velocity=0 time=1\n",
      "note_on channel=14 note=66 velocity=0 time=25\n",
      "note_on channel=14 note=66 velocity=127 time=42\n",
      "note_on channel=14 note=52 velocity=0 time=37\n",
      "note_on channel=14 note=66 velocity=0 time=3\n",
      "control_change channel=14 control=64 value=0 time=102\n",
      "note_on channel=14 note=52 velocity=124 time=0\n",
      "note_on channel=14 note=40 velocity=0 time=41\n",
      "note_on channel=14 note=64 velocity=127 time=21\n",
      "note_on channel=14 note=52 velocity=0 time=28\n",
      "note_on channel=14 note=64 velocity=0 time=3\n",
      "note_on channel=14 note=47 velocity=0 time=34\n",
      "control_change channel=14 control=64 value=0 time=8\n",
      "note_on channel=14 note=40 velocity=127 time=30\n",
      "note_on channel=14 note=64 velocity=127 time=0\n",
      "control_change channel=14 control=64 value=127 time=11\n",
      "control_change channel=14 control=64 value=127 time=28\n",
      "note_on channel=14 note=47 velocity=106 time=7\n",
      "note_on channel=14 note=64 velocity=0 time=52\n",
      "note_on channel=14 note=52 velocity=120 time=17\n",
      "note_on channel=14 note=64 velocity=124 time=66\n",
      "note_on channel=14 note=64 velocity=0 time=11\n",
      "note_on channel=14 note=64 velocity=127 time=62\n",
      "note_on channel=14 note=52 velocity=0 time=36\n",
      "note_on channel=14 note=40 velocity=0 time=31\n",
      "note_on channel=14 note=64 velocity=0 time=73\n",
      "note_on channel=14 note=47 velocity=0 time=2\n",
      "note_on channel=14 note=52 velocity=112 time=0\n",
      "note_on channel=14 note=64 velocity=115 time=84\n",
      "note_on channel=14 note=52 velocity=0 time=15\n",
      "control_change channel=14 control=64 value=0 time=1\n",
      "control_change channel=14 control=64 value=0 time=35\n",
      "note_on channel=14 note=64 velocity=0 time=4\n",
      "note_on channel=14 note=63 velocity=127 time=0\n",
      "note_on channel=14 note=42 velocity=100 time=4\n",
      "control_change channel=14 control=64 value=127 time=36\n",
      "note_on channel=14 note=47 velocity=104 time=31\n",
      "note_on channel=14 note=63 velocity=0 time=56\n",
      "control_change channel=14 control=64 value=127 time=3\n",
      "note_on channel=14 note=64 velocity=124 time=12\n",
      "note_on channel=14 note=64 velocity=0 time=147\n",
      "note_on channel=14 note=42 velocity=0 time=2\n",
      "note_on channel=14 note=51 velocity=106 time=0\n",
      "note_on channel=14 note=47 velocity=0 time=6\n",
      "note_on channel=14 note=51 velocity=0 time=24\n",
      "control_change channel=14 control=64 value=0 time=82\n",
      "note_on channel=14 note=64 velocity=98 time=22\n",
      "note_on channel=14 note=64 velocity=0 time=51\n",
      "note_on channel=14 note=59 velocity=90 time=29\n",
      "note_on channel=14 note=59 velocity=0 time=23\n",
      "control_change channel=14 control=64 value=0 time=33\n",
      "note_on channel=14 note=33 velocity=84 time=8\n",
      "note_on channel=14 note=59 velocity=116 time=3\n",
      "control_change channel=14 control=64 value=127 time=21\n",
      "control_change channel=14 control=64 value=127 time=15\n",
      "note_on channel=14 note=59 velocity=0 time=35\n",
      "note_on channel=14 note=40 velocity=92 time=7\n",
      "note_on channel=14 note=45 velocity=100 time=61\n",
      "note_on channel=14 note=52 velocity=98 time=74\n",
      "control_change channel=14 control=64 value=0 time=45\n",
      "note_on channel=14 note=52 velocity=0 time=15\n",
      "note_on channel=14 note=45 velocity=0 time=1\n",
      "note_on channel=14 note=57 velocity=111 time=9\n",
      "note_on channel=14 note=57 velocity=0 time=35\n",
      "control_change channel=14 control=64 value=127 time=8\n",
      "note_on channel=14 note=45 velocity=109 time=20\n",
      "note_on channel=14 note=40 velocity=0 time=10\n",
      "note_on channel=14 note=57 velocity=127 time=65\n",
      "note_on channel=14 note=33 velocity=0 time=30\n",
      "note_on channel=14 note=57 velocity=0 time=34\n",
      "note_on channel=14 note=45 velocity=0 time=8\n",
      "note_on channel=14 note=33 velocity=111 time=55\n",
      "note_on channel=14 note=57 velocity=118 time=1\n",
      "note_on channel=14 note=45 velocity=97 time=4\n",
      "note_on channel=14 note=33 velocity=0 time=8\n",
      "note_on channel=14 note=45 velocity=0 time=8\n",
      "note_on channel=14 note=57 velocity=0 time=49\n",
      "note_on channel=14 note=59 velocity=111 time=0\n",
      "note_on channel=14 note=59 velocity=0 time=56\n",
      "note_on channel=14 note=57 velocity=124 time=10\n",
      "note_on channel=14 note=69 velocity=113 time=0\n",
      "note_on channel=14 note=61 velocity=103 time=3\n",
      "note_on channel=14 note=57 velocity=0 time=11\n",
      "note_on channel=14 note=69 velocity=0 time=1\n",
      "note_on channel=14 note=61 velocity=0 time=45\n",
      "note_on channel=14 note=64 velocity=106 time=2\n",
      "note_on channel=14 note=59 velocity=113 time=2\n",
      "note_on channel=14 note=71 velocity=111 time=2\n",
      "note_on channel=14 note=64 velocity=0 time=7\n",
      "note_on channel=14 note=59 velocity=0 time=2\n",
      "note_on channel=14 note=71 velocity=0 time=2\n",
      "note_on channel=14 note=61 velocity=118 time=52\n",
      "note_on channel=14 note=73 velocity=115 time=1\n",
      "note_on channel=14 note=61 velocity=0 time=15\n",
      "note_on channel=14 note=69 velocity=127 time=0\n",
      "note_on channel=14 note=73 velocity=0 time=2\n",
      "note_on channel=14 note=64 velocity=124 time=37\n",
      "note_on channel=14 note=76 velocity=127 time=3\n",
      "note_on channel=14 note=64 velocity=0 time=7\n",
      "note_on channel=14 note=76 velocity=0 time=11\n",
      "note_on channel=14 note=69 velocity=0 time=8\n",
      "note_on channel=14 note=71 velocity=115 time=2\n",
      "note_on channel=14 note=69 velocity=127 time=40\n",
      "note_on channel=14 note=81 velocity=118 time=4\n",
      "note_on channel=14 note=69 velocity=0 time=16\n",
      "note_on channel=14 note=81 velocity=0 time=5\n",
      "note_on channel=14 note=73 velocity=94 time=16\n",
      "note_on channel=14 note=71 velocity=0 time=22\n",
      "note_on channel=14 note=71 velocity=113 time=10\n",
      "note_on channel=14 note=83 velocity=127 time=2\n",
      "note_on channel=14 note=71 velocity=0 time=9\n",
      "note_on channel=14 note=83 velocity=0 time=10\n",
      "control_change channel=14 control=64 value=0 time=1\n",
      "note_on channel=14 note=73 velocity=0 time=2\n",
      "note_on channel=14 note=88 velocity=105 time=62\n",
      "note_on channel=14 note=76 velocity=100 time=2\n",
      "note_on channel=14 note=76 velocity=127 time=28\n",
      "note_on channel=14 note=64 velocity=127 time=0\n",
      "note_on channel=14 note=71 velocity=127 time=3\n",
      "note_on channel=14 note=40 velocity=116 time=2\n",
      "control_change channel=14 control=64 value=0 time=1\n",
      "control_change channel=14 control=64 value=127 time=39\n",
      "note_on channel=14 note=47 velocity=106 time=25\n",
      "control_change channel=14 control=64 value=127 time=1\n",
      "note_on channel=14 note=64 velocity=0 time=32\n",
      "note_on channel=14 note=88 velocity=0 time=25\n",
      "note_on channel=14 note=76 velocity=0 time=7\n",
      "note_on channel=14 note=76 velocity=0 time=15\n",
      "note_on channel=14 note=71 velocity=0 time=3\n",
      "note_on channel=14 note=52 velocity=127 time=12\n",
      "control_change channel=14 control=7 value=49 time=5\n",
      "note_on channel=14 note=64 velocity=127 time=37\n",
      "control_change channel=14 control=7 value=48 time=36\n",
      "note_on channel=14 note=64 velocity=0 time=10\n",
      "control_change channel=14 control=7 value=47 time=0\n",
      "note_on channel=14 note=64 velocity=127 time=25\n",
      "note_on channel=14 note=76 velocity=127 time=0\n",
      "note_on channel=14 note=71 velocity=127 time=3\n",
      "note_on channel=14 note=52 velocity=0 time=25\n",
      "note_on channel=14 note=64 velocity=0 time=70\n",
      "note_on channel=14 note=76 velocity=0 time=16\n",
      "note_on channel=14 note=71 velocity=0 time=5\n",
      "note_on channel=14 note=40 velocity=0 time=8\n",
      "note_on channel=14 note=52 velocity=127 time=13\n",
      "note_on channel=14 note=47 velocity=0 time=19\n",
      "note_on channel=14 note=76 velocity=127 time=49\n",
      "note_on channel=14 note=64 velocity=127 time=2\n",
      "note_on channel=14 note=52 velocity=0 time=4\n",
      "note_on channel=14 note=64 velocity=0 time=20\n",
      "note_on channel=14 note=76 velocity=0 time=30\n",
      "note_on channel=14 note=42 velocity=116 time=13\n",
      "note_on channel=14 note=75 velocity=127 time=3\n",
      "control_change channel=14 control=64 value=0 time=2\n",
      "note_on channel=14 note=63 velocity=127 time=0\n",
      "control_change channel=14 control=64 value=127 time=35\n",
      "control_change channel=14 control=7 value=49 time=15\n",
      "control_change channel=14 control=7 value=50 time=26\n",
      "note_on channel=14 note=63 velocity=0 time=4\n",
      "note_on channel=14 note=47 velocity=118 time=5\n",
      "note_on channel=14 note=75 velocity=0 time=36\n",
      "note_on channel=14 note=64 velocity=127 time=19\n",
      "note_on channel=14 note=76 velocity=127 time=1\n",
      "control_change channel=14 control=7 value=51 time=17\n",
      "note_on channel=14 note=47 velocity=0 time=55\n",
      "control_change channel=14 control=7 value=52 time=18\n",
      "control_change channel=14 control=7 value=53 time=5\n",
      "note_on channel=14 note=47 velocity=127 time=51\n",
      "note_on channel=14 note=42 velocity=0 time=10\n",
      "note_on channel=14 note=64 velocity=0 time=34\n",
      "note_on channel=14 note=76 velocity=0 time=20\n",
      "note_on channel=14 note=64 velocity=127 time=64\n",
      "note_on channel=14 note=76 velocity=127 time=0\n",
      "note_on channel=14 note=64 velocity=0 time=40\n",
      "control_change channel=14 control=64 value=0 time=51\n",
      "note_on channel=14 note=47 velocity=0 time=9\n",
      "note_on channel=14 note=76 velocity=0 time=26\n",
      "control_change channel=14 control=64 value=0 time=8\n",
      "note_on channel=14 note=75 velocity=127 time=16\n",
      "note_on channel=14 note=63 velocity=127 time=0\n",
      "note_on channel=14 note=40 velocity=127 time=0\n",
      "control_change channel=14 control=64 value=127 time=25\n",
      "note_on channel=14 note=63 velocity=0 time=28\n",
      "note_on channel=14 note=47 velocity=122 time=7\n",
      "note_on channel=14 note=75 velocity=0 time=18\n",
      "note_on channel=14 note=64 velocity=127 time=52\n",
      "note_on channel=14 note=76 velocity=127 time=1\n",
      "note_on channel=14 note=64 velocity=0 time=25\n",
      "note_on channel=14 note=76 velocity=0 time=37\n",
      "control_change channel=14 control=64 value=127 time=37\n",
      "note_on channel=14 note=52 velocity=122 time=31\n",
      "note_on channel=14 note=52 velocity=0 time=100\n",
      "note_on channel=14 note=66 velocity=127 time=35\n",
      "note_on channel=14 note=78 velocity=127 time=1\n",
      "note_on channel=14 note=75 velocity=85 time=9\n",
      "note_on channel=14 note=75 velocity=0 time=12\n",
      "note_on channel=14 note=66 velocity=0 time=5\n",
      "note_on channel=14 note=40 velocity=0 time=15\n",
      "note_on channel=14 note=78 velocity=0 time=4\n",
      "note_on channel=14 note=47 velocity=0 time=21\n",
      "note_on channel=14 note=52 velocity=127 time=17\n",
      "note_on channel=14 note=52 velocity=0 time=41\n",
      "control_change channel=14 control=64 value=0 time=10\n",
      "note_on channel=14 note=80 velocity=127 time=2\n",
      "note_on channel=14 note=68 velocity=127 time=0\n",
      "note_on channel=14 note=40 velocity=126 time=2\n",
      "control_change channel=14 control=64 value=0 time=26\n",
      "control_change channel=14 control=64 value=127 time=12\n",
      "note_on channel=14 note=47 velocity=108 time=33\n",
      "control_change channel=14 control=64 value=127 time=37\n",
      "note_on channel=14 note=68 velocity=0 time=10\n",
      "note_on channel=14 note=80 velocity=0 time=9\n",
      "note_on channel=14 note=52 velocity=127 time=13\n",
      "note_on channel=14 note=66 velocity=111 time=65\n",
      "note_on channel=14 note=66 velocity=0 time=37\n",
      "note_on channel=14 note=78 velocity=127 time=28\n",
      "note_on channel=14 note=66 velocity=127 time=0\n",
      "note_on channel=14 note=66 velocity=0 time=28\n",
      "note_on channel=14 note=78 velocity=0 time=5\n",
      "note_on channel=14 note=52 velocity=0 time=5\n",
      "note_on channel=14 note=90 velocity=113 time=88\n",
      "note_on channel=14 note=78 velocity=122 time=4\n",
      "note_on channel=14 note=40 velocity=0 time=7\n",
      "note_on channel=14 note=90 velocity=0 time=4\n",
      "note_on channel=14 note=47 velocity=0 time=2\n",
      "note_on channel=14 note=78 velocity=0 time=4\n",
      "note_on channel=14 note=52 velocity=127 time=8\n",
      "note_on channel=14 note=64 velocity=122 time=52\n",
      "note_on channel=14 note=52 velocity=0 time=1\n",
      "note_on channel=14 note=64 velocity=0 time=30\n",
      "note_on channel=14 note=71 velocity=116 time=2\n",
      "note_on channel=14 note=64 velocity=105 time=18\n",
      "note_on channel=14 note=71 velocity=0 time=6\n",
      "control_change channel=14 control=64 value=0 time=0\n",
      "control_change channel=14 control=64 value=0 time=9\n",
      "note_on channel=14 note=64 velocity=127 time=6\n",
      "note_on channel=14 note=76 velocity=127 time=1\n",
      "note_on channel=14 note=71 velocity=124 time=0\n",
      "note_on channel=14 note=40 velocity=126 time=2\n",
      "note_on channel=14 note=71 velocity=127 time=0\n",
      "note_on channel=14 note=76 velocity=126 time=16\n",
      "control_change channel=14 control=64 value=127 time=12\n",
      "note_on channel=14 note=47 velocity=124 time=42\n",
      "control_change channel=14 control=64 value=127 time=1\n",
      "note_on channel=14 note=64 velocity=0 time=38\n",
      "note_on channel=14 note=64 velocity=0 time=19\n",
      "note_on channel=14 note=52 velocity=127 time=6\n",
      "note_on channel=14 note=71 velocity=0 time=2\n",
      "note_on channel=14 note=76 velocity=0 time=11\n",
      "note_on channel=14 note=76 velocity=0 time=4\n",
      "note_on channel=14 note=71 velocity=0 time=17\n",
      "note_on channel=14 note=64 velocity=127 time=33\n",
      "note_on channel=14 note=64 velocity=127 time=2\n",
      "note_on channel=14 note=64 velocity=0 time=40\n",
      "note_on channel=14 note=64 velocity=0 time=14\n",
      "note_on channel=14 note=76 velocity=127 time=12\n",
      "note_on channel=14 note=64 velocity=127 time=0\n",
      "note_on channel=14 note=76 velocity=127 time=2\n",
      "note_on channel=14 note=71 velocity=127 time=2\n",
      "note_on channel=14 note=71 velocity=127 time=0\n",
      "note_on channel=14 note=52 velocity=0 time=32\n",
      "note_on channel=14 note=76 velocity=0 time=2\n",
      "note_on channel=14 note=71 velocity=0 time=14\n",
      "note_on channel=14 note=64 velocity=127 time=32\n",
      "note_on channel=14 note=40 velocity=0 time=2\n",
      "note_on channel=14 note=64 velocity=0 time=1\n",
      "note_on channel=14 note=76 velocity=0 time=15\n",
      "note_on channel=14 note=71 velocity=0 time=4\n",
      "note_on channel=14 note=47 velocity=0 time=29\n",
      "note_on channel=14 note=64 velocity=0 time=1\n",
      "note_on channel=14 note=52 velocity=126 time=3\n",
      "note_on channel=14 note=71 velocity=127 time=3\n",
      "note_on channel=14 note=76 velocity=127 time=0\n",
      "note_on channel=14 note=64 velocity=127 time=8\n",
      "note_on channel=14 note=76 velocity=127 time=1\n",
      "note_on channel=14 note=71 velocity=120 time=7\n",
      "note_on channel=14 note=76 velocity=0 time=24\n",
      "note_on channel=14 note=64 velocity=0 time=2\n",
      "note_on channel=14 note=71 velocity=0 time=6\n",
      "note_on channel=14 note=71 velocity=0 time=2\n",
      "note_on channel=14 note=52 velocity=0 time=9\n",
      "note_on channel=14 note=64 velocity=127 time=14\n",
      "note_on channel=14 note=64 velocity=0 time=24\n",
      "note_on channel=14 note=76 velocity=0 time=21\n",
      "control_change channel=14 control=64 value=0 time=4\n",
      "note_on channel=14 note=42 velocity=108 time=4\n",
      "note_on channel=14 note=63 velocity=127 time=11\n",
      "note_on channel=14 note=75 velocity=126 time=1\n",
      "note_on channel=14 note=75 velocity=124 time=7\n",
      "control_change channel=14 control=64 value=0 time=1\n",
      "control_change channel=14 control=64 value=127 time=20\n",
      "note_on channel=14 note=47 velocity=120 time=36\n",
      "note_on channel=14 note=63 velocity=0 time=3\n",
      "note_on channel=14 note=75 velocity=0 time=42\n",
      "control_change channel=14 control=64 value=127 time=0\n",
      "note_on channel=14 note=76 velocity=127 time=27\n",
      "note_on channel=14 note=64 velocity=127 time=0\n",
      "note_on channel=14 note=47 velocity=0 time=18\n",
      "note_on channel=14 note=75 velocity=0 time=41\n",
      "note_on channel=14 note=47 velocity=104 time=11\n",
      "note_on channel=14 note=64 velocity=0 time=18\n",
      "note_on channel=14 note=76 velocity=0 time=0\n",
      "control_change channel=14 control=64 value=0 time=46\n",
      "note_on channel=14 note=76 velocity=118 time=14\n",
      "note_on channel=14 note=64 velocity=127 time=0\n",
      "note_on channel=14 note=76 velocity=127 time=0\n",
      "note_on channel=14 note=47 velocity=0 time=13\n",
      "control_change channel=14 control=64 value=127 time=20\n",
      "note_on channel=14 note=76 velocity=0 time=42\n",
      "note_on channel=14 note=64 velocity=0 time=2\n",
      "note_on channel=14 note=76 velocity=0 time=7\n",
      "note_on channel=14 note=47 velocity=96 time=61\n",
      "note_on channel=14 note=42 velocity=0 time=31\n",
      "note_on channel=14 note=47 velocity=0 time=27\n",
      "note_on channel=14 note=59 velocity=113 time=0\n",
      "note_on channel=14 note=59 velocity=0 time=36\n",
      "note_on channel=14 note=59 velocity=118 time=30\n",
      "note_on channel=14 note=71 velocity=127 time=1\n",
      "control_change channel=14 control=64 value=0 time=1\n",
      "note_on channel=14 note=45 velocity=108 time=3\n",
      "control_change channel=14 control=64 value=127 time=38\n",
      "note_on channel=14 note=52 velocity=115 time=20\n",
      "note_on channel=14 note=59 velocity=0 time=9\n",
      "note_on channel=14 note=83 velocity=99 time=34\n",
      "note_on channel=14 note=71 velocity=0 time=28\n",
      "note_on channel=14 note=57 velocity=126 time=5\n",
      "note_on channel=14 note=83 velocity=0 time=14\n",
      "note_on channel=14 note=57 velocity=0 time=24\n",
      "note_on channel=14 note=95 velocity=126 time=2\n",
      "note_on channel=14 note=95 velocity=0 time=9\n",
      "note_on channel=14 note=59 velocity=127 time=23\n",
      "note_on channel=14 note=59 velocity=0 time=31\n",
      "note_on channel=14 note=59 velocity=127 time=28\n",
      "note_on channel=14 note=64 velocity=127 time=0\n",
      "note_on channel=14 note=59 velocity=0 time=34\n",
      "note_on channel=14 note=64 velocity=0 time=23\n",
      "note_on channel=14 note=95 velocity=116 time=9\n",
      "note_on channel=14 note=59 velocity=127 time=3\n",
      "note_on channel=14 note=59 velocity=0 time=20\n",
      "note_on channel=14 note=95 velocity=0 time=24\n",
      "note_on channel=14 note=45 velocity=0 time=17\n",
      "note_on channel=14 note=52 velocity=0 time=10\n",
      "note_on channel=14 note=57 velocity=127 time=0\n",
      "note_on channel=14 note=107 velocity=127 time=1\n",
      "note_on channel=14 note=107 velocity=0 time=8\n",
      "note_on channel=14 note=57 velocity=0 time=8\n",
      "note_on channel=14 note=61 velocity=120 time=52\n",
      "note_on channel=14 note=61 velocity=0 time=40\n",
      "control_change channel=14 control=64 value=0 time=23\n",
      "note_on channel=14 note=44 velocity=127 time=4\n",
      "note_on channel=14 note=61 velocity=127 time=1\n",
      "note_on channel=14 note=73 velocity=127 time=0\n",
      "note_on channel=14 note=32 velocity=127 time=0\n",
      "control_change channel=14 control=64 value=127 time=37\n",
      "note_on channel=14 note=44 velocity=0 time=82\n",
      "note_on channel=14 note=32 velocity=0 time=3\n",
      "note_on channel=14 note=61 velocity=0 time=10\n",
      "note_on channel=14 note=73 velocity=0 time=25\n",
      "note_on channel=14 note=44 velocity=127 time=53\n",
      "note_on channel=14 note=32 velocity=127 time=1\n",
      "note_on channel=14 note=75 velocity=127 time=68\n",
      "note_on channel=14 note=63 velocity=127 time=0\n",
      "note_on channel=14 note=44 velocity=0 time=58\n",
      "note_on channel=14 note=32 velocity=0 time=9\n",
      "note_on channel=14 note=63 velocity=0 time=7\n",
      "note_on channel=14 note=75 velocity=0 time=47\n",
      "note_on channel=14 note=44 velocity=127 time=11\n",
      "note_on channel=14 note=32 velocity=122 time=1\n",
      "note_on channel=14 note=44 velocity=0 time=20\n",
      "note_on channel=14 note=32 velocity=0 time=17\n",
      "note_on channel=14 note=76 velocity=127 time=34\n",
      "note_on channel=14 note=76 velocity=0 time=37\n",
      "control_change channel=14 control=64 value=0 time=15\n",
      "note_on channel=14 note=25 velocity=127 time=15\n",
      "note_on channel=14 note=37 velocity=127 time=1\n",
      "note_on channel=14 note=73 velocity=127 time=1\n",
      "note_on channel=14 note=76 velocity=127 time=0\n",
      "control_change channel=14 control=64 value=127 time=26\n",
      "note_on channel=14 note=76 velocity=0 time=154\n",
      "note_on channel=14 note=73 velocity=0 time=15\n",
      "note_on channel=14 note=64 velocity=127 time=14\n",
      "note_on channel=14 note=64 velocity=0 time=32\n",
      "note_on channel=14 note=64 velocity=127 time=34\n",
      "control_change channel=14 control=7 value=54 time=1\n",
      "note_on channel=14 note=76 velocity=127 time=0\n",
      "note_on channel=14 note=73 velocity=127 time=1\n",
      "control_change channel=14 control=7 value=56 time=15\n",
      "note_on channel=14 note=64 velocity=0 time=29\n",
      "note_on channel=14 note=37 velocity=0 time=16\n",
      "note_on channel=14 note=25 velocity=0 time=5\n",
      "note_on channel=14 note=76 velocity=0 time=13\n",
      "note_on channel=14 note=73 velocity=0 time=8\n",
      "note_on channel=14 note=25 velocity=116 time=44\n",
      "control_change channel=14 control=7 value=57 time=2\n",
      "note_on channel=14 note=37 velocity=116 time=0\n",
      "note_on channel=14 note=37 velocity=0 time=26\n",
      "note_on channel=14 note=25 velocity=0 time=5\n",
      "note_on channel=14 note=66 velocity=120 time=29\n",
      "note_on channel=14 note=66 velocity=0 time=29\n",
      "note_on channel=14 note=78 velocity=127 time=4\n",
      "note_on channel=14 note=78 velocity=0 time=26\n",
      "control_change channel=14 control=64 value=0 time=7\n",
      "control_change channel=14 control=64 value=0 time=3\n",
      "note_on channel=14 note=35 velocity=127 time=14\n",
      "note_on channel=14 note=75 velocity=127 time=0\n",
      "note_on channel=14 note=78 velocity=127 time=0\n",
      "note_on channel=14 note=66 velocity=127 time=0\n",
      "control_change channel=14 control=7 value=58 time=18\n",
      "control_change channel=14 control=64 value=127 time=10\n",
      "note_on channel=14 note=66 velocity=0 time=77\n",
      "note_on channel=14 note=78 velocity=0 time=53\n",
      "note_on channel=14 note=75 velocity=0 time=1\n",
      "control_change channel=14 control=64 value=127 time=22\n",
      "note_on channel=14 note=66 velocity=115 time=6\n",
      "note_on channel=14 note=66 velocity=111 time=17\n",
      "note_on channel=14 note=66 velocity=0 time=11\n",
      "note_on channel=14 note=78 velocity=127 time=36\n",
      "note_on channel=14 note=66 velocity=127 time=0\n",
      "note_on channel=14 note=75 velocity=127 time=3\n",
      "note_on channel=14 note=66 velocity=0 time=15\n",
      "note_on channel=14 note=78 velocity=124 time=1\n",
      "note_on channel=14 note=75 velocity=0 time=2\n",
      "note_on channel=14 note=78 velocity=0 time=1\n",
      "note_on channel=14 note=66 velocity=0 time=2\n",
      "note_on channel=14 note=78 velocity=0 time=14\n",
      "note_on channel=14 note=35 velocity=0 time=42\n",
      "note_on channel=14 note=59 velocity=127 time=24\n",
      "note_on channel=14 note=71 velocity=127 time=0\n",
      "note_on channel=14 note=59 velocity=0 time=16\n",
      "note_on channel=14 note=71 velocity=0 time=13\n",
      "note_on channel=14 note=35 velocity=127 time=4\n",
      "note_on channel=14 note=35 velocity=0 time=92\n",
      "control_change channel=14 control=64 value=0 time=24\n",
      "note_on channel=14 note=83 velocity=127 time=2\n",
      "note_on channel=14 note=33 velocity=127 time=1\n",
      "note_on channel=14 note=71 velocity=127 time=0\n",
      "control_change channel=14 control=64 value=0 time=1\n",
      "note_on channel=14 note=95 velocity=127 time=4\n",
      "note_on channel=14 note=83 velocity=127 time=1\n",
      "control_change channel=14 control=64 value=127 time=32\n",
      "control_change channel=14 control=64 value=127 time=17\n",
      "note_on channel=14 note=33 velocity=0 time=86\n",
      "note_on channel=14 note=71 velocity=0 time=4\n",
      "note_on channel=14 note=83 velocity=0 time=1\n",
      "note_on channel=14 note=83 velocity=0 time=8\n",
      "note_on channel=14 note=95 velocity=0 time=2\n",
      "note_on channel=14 note=33 velocity=127 time=32\n",
      "note_on channel=14 note=69 velocity=127 time=66\n",
      "note_on channel=14 note=81 velocity=127 time=0\n",
      "control_change channel=14 control=64 value=0 time=9\n",
      "note_on channel=14 note=81 velocity=124 time=4\n",
      "note_on channel=14 note=93 velocity=127 time=1\n",
      "note_on channel=14 note=69 velocity=0 time=23\n",
      "note_on channel=14 note=33 velocity=0 time=6\n",
      "note_on channel=14 note=81 velocity=0 time=11\n",
      "control_change channel=14 control=64 value=127 time=1\n",
      "note_on channel=14 note=81 velocity=0 time=3\n",
      "note_on channel=14 note=93 velocity=0 time=9\n",
      "note_on channel=14 note=33 velocity=116 time=65\n",
      "note_on channel=14 note=80 velocity=127 time=0\n",
      "note_on channel=14 note=92 velocity=127 time=2\n",
      "note_on channel=14 note=80 velocity=0 time=18\n",
      "note_on channel=14 note=92 velocity=0 time=9\n",
      "note_on channel=14 note=33 velocity=0 time=16\n",
      "note_on channel=14 note=68 velocity=127 time=22\n",
      "note_on channel=14 note=80 velocity=127 time=1\n",
      "note_on channel=14 note=68 velocity=0 time=23\n",
      "control_change channel=14 control=7 value=57 time=0\n",
      "note_on channel=14 note=80 velocity=0 time=5\n",
      "control_change channel=14 control=64 value=0 time=32\n",
      "control_change channel=14 control=64 value=0 time=4\n",
      "note_on channel=14 note=90 velocity=124 time=2\n",
      "note_on channel=14 note=78 velocity=120 time=2\n",
      "note_on channel=14 note=66 velocity=127 time=2\n",
      "note_on channel=14 note=78 velocity=127 time=1\n",
      "note_on channel=14 note=35 velocity=127 time=1\n",
      "control_change channel=14 control=64 value=127 time=36\n",
      "control_change channel=14 control=64 value=127 time=15\n",
      "note_on channel=14 note=42 velocity=105 time=20\n",
      "note_on channel=14 note=90 velocity=0 time=4\n",
      "note_on channel=14 note=78 velocity=0 time=20\n",
      "note_on channel=14 note=66 velocity=0 time=15\n",
      "note_on channel=14 note=47 velocity=127 time=30\n",
      "note_on channel=14 note=78 velocity=0 time=1\n",
      "note_on channel=14 note=66 velocity=127 time=57\n",
      "control_change channel=14 control=7 value=56 time=18\n",
      "note_on channel=14 note=66 velocity=0 time=10\n",
      "note_on channel=14 note=66 velocity=127 time=44\n",
      "note_on channel=14 note=78 velocity=127 time=1\n",
      "note_on channel=14 note=66 velocity=0 time=20\n",
      "note_on channel=14 note=78 velocity=0 time=15\n",
      "note_on channel=14 note=47 velocity=0 time=34\n",
      "note_on channel=14 note=68 velocity=126 time=10\n",
      "note_on channel=14 note=80 velocity=127 time=2\n",
      "note_on channel=14 note=68 velocity=127 time=10\n",
      "note_on channel=14 note=80 velocity=127 time=1\n",
      "note_on channel=14 note=68 velocity=0 time=20\n",
      "note_on channel=14 note=80 velocity=0 time=3\n",
      "note_on channel=14 note=68 velocity=0 time=8\n",
      "note_on channel=14 note=80 velocity=0 time=6\n",
      "note_on channel=14 note=47 velocity=127 time=7\n",
      "note_on channel=14 note=35 velocity=0 time=14\n",
      "note_on channel=14 note=69 velocity=127 time=8\n",
      "note_on channel=14 note=81 velocity=127 time=1\n",
      "note_on channel=14 note=69 velocity=127 time=8\n",
      "note_on channel=14 note=81 velocity=127 time=0\n",
      "note_on channel=14 note=69 velocity=0 time=12\n",
      "note_on channel=14 note=47 velocity=0 time=8\n",
      "note_on channel=14 note=69 velocity=0 time=3\n",
      "note_on channel=14 note=81 velocity=0 time=1\n",
      "note_on channel=14 note=42 velocity=0 time=3\n",
      "note_on channel=14 note=81 velocity=0 time=10\n",
      "control_change channel=14 control=64 value=0 time=41\n",
      "note_on channel=14 note=80 velocity=116 time=12\n",
      "note_on channel=14 note=68 velocity=111 time=1\n",
      "note_on channel=14 note=80 velocity=127 time=3\n",
      "note_on channel=14 note=68 velocity=127 time=0\n",
      "note_on channel=14 note=37 velocity=116 time=1\n",
      "control_change channel=14 control=64 value=0 time=2\n",
      "control_change channel=14 control=64 value=127 time=46\n",
      "note_on channel=14 note=44 velocity=104 time=26\n",
      "note_on channel=14 note=68 velocity=0 time=42\n",
      "control_change channel=14 control=64 value=127 time=3\n",
      "note_on channel=14 note=80 velocity=0 time=2\n",
      "note_on channel=14 note=49 velocity=113 time=14\n",
      "note_on channel=14 note=66 velocity=120 time=68\n",
      "note_on channel=14 note=68 velocity=0 time=12\n",
      "note_on channel=14 note=66 velocity=0 time=17\n",
      "note_on channel=14 note=66 velocity=127 time=38\n",
      "note_on channel=14 note=78 velocity=127 time=1\n",
      "note_on channel=14 note=66 velocity=0 time=19\n",
      "note_on channel=14 note=78 velocity=0 time=8\n",
      "note_on channel=14 note=49 velocity=0 time=7\n",
      "note_on channel=14 note=80 velocity=0 time=10\n",
      "control_change channel=14 control=7 value=55 time=0\n",
      "note_on channel=14 note=78 velocity=118 time=39\n",
      "note_on channel=14 note=64 velocity=127 time=48\n",
      "note_on channel=14 note=49 velocity=116 time=3\n",
      "note_on channel=14 note=44 velocity=0 time=8\n",
      "note_on channel=14 note=76 velocity=127 time=1\n",
      "note_on channel=14 note=49 velocity=0 time=11\n",
      "note_on channel=14 note=64 velocity=0 time=5\n",
      "note_on channel=14 note=78 velocity=0 time=0\n",
      "note_on channel=14 note=37 velocity=0 time=3\n",
      "note_on channel=14 note=76 velocity=127 time=2\n",
      "note_on channel=14 note=76 velocity=0 time=19\n",
      "note_on channel=14 note=76 velocity=0 time=19\n",
      "control_change channel=14 control=7 value=54 time=2\n",
      "control_change channel=14 control=64 value=0 time=54\n",
      "control_change channel=14 control=64 value=0 time=5\n",
      "note_on channel=14 note=75 velocity=124 time=1\n",
      "note_on channel=14 note=35 velocity=126 time=5\n",
      "note_on channel=14 note=63 velocity=127 time=2\n",
      "note_on channel=14 note=75 velocity=127 time=2\n",
      "control_change channel=14 control=64 value=127 time=35\n",
      "note_on channel=14 note=42 velocity=113 time=33\n",
      "note_on channel=14 note=63 velocity=0 time=15\n",
      "note_on channel=14 note=75 velocity=0 time=28\n",
      "control_change channel=14 control=64 value=127 time=12\n",
      "note_on channel=14 note=76 velocity=127 time=13\n",
      "note_on channel=14 note=64 velocity=127 time=0\n",
      "note_on channel=14 note=64 velocity=0 time=122\n",
      "control_change channel=14 control=7 value=52 time=32\n",
      "note_on channel=14 note=47 velocity=112 time=0\n",
      "note_on channel=14 note=76 velocity=0 time=31\n",
      "note_on channel=14 note=75 velocity=0 time=29\n",
      "note_on channel=14 note=35 velocity=0 time=16\n",
      "note_on channel=14 note=47 velocity=0 time=16\n",
      "note_on channel=14 note=42 velocity=0 time=19\n",
      "note_on channel=14 note=75 velocity=113 time=6\n",
      "note_on channel=14 note=63 velocity=106 time=3\n",
      "note_on channel=14 note=75 velocity=0 time=33\n",
      "note_on channel=14 note=63 velocity=0 time=8\n",
      "control_change channel=14 control=64 value=0 time=89\n",
      "note_on channel=14 note=33 velocity=115 time=3\n",
      "note_on channel=14 note=73 velocity=122 time=2\n",
      "note_on channel=14 note=61 velocity=118 time=0\n",
      "control_change channel=14 control=64 value=0 time=9\n",
      "control_change channel=14 control=64 value=127 time=24\n",
      "note_on channel=14 note=73 velocity=0 time=16\n",
      "note_on channel=14 note=61 velocity=0 time=16\n",
      "note_on channel=14 note=40 velocity=98 time=2\n",
      "control_change channel=14 control=64 value=127 time=23\n",
      "note_on channel=14 note=45 velocity=116 time=52\n",
      "note_on channel=14 note=49 velocity=112 time=83\n",
      "note_on channel=14 note=49 velocity=0 time=28\n",
      "note_on channel=14 note=52 velocity=120 time=19\n",
      "note_on channel=14 note=45 velocity=0 time=60\n",
      "note_on channel=14 note=52 velocity=0 time=6\n",
      "note_on channel=14 note=57 velocity=127 time=2\n",
      "note_on channel=14 note=33 velocity=0 time=7\n",
      "note_on channel=14 note=57 velocity=0 time=14\n",
      "note_on channel=14 note=45 velocity=127 time=43\n",
      "note_on channel=14 note=33 velocity=127 time=64\n",
      "note_on channel=14 note=45 velocity=0 time=3\n",
      "note_on channel=14 note=40 velocity=0 time=4\n",
      "note_on channel=14 note=33 velocity=0 time=22\n",
      "control_change channel=14 control=64 value=0 time=41\n",
      "note_on channel=14 note=71 velocity=126 time=4\n",
      "note_on channel=14 note=59 velocity=127 time=4\n",
      "note_on channel=14 note=71 velocity=127 time=0\n",
      "note_on channel=14 note=32 velocity=127 time=1\n",
      "control_change channel=14 control=64 value=0 time=3\n",
      "control_change channel=14 control=64 value=127 time=38\n",
      "control_change channel=14 control=64 value=127 time=37\n",
      "note_on channel=14 note=32 velocity=0 time=67\n",
      "note_on channel=14 note=59 velocity=0 time=22\n",
      "note_on channel=14 note=32 velocity=127 time=44\n",
      "note_on channel=14 note=71 velocity=0 time=15\n",
      "note_on channel=14 note=71 velocity=0 time=23\n",
      "control_change channel=14 control=64 value=0 time=4\n",
      "control_change channel=14 control=64 value=0 time=3\n",
      "note_on channel=14 note=69 velocity=127 time=21\n",
      "note_on channel=14 note=69 velocity=127 time=4\n",
      "note_on channel=14 note=57 velocity=127 time=2\n",
      "control_change channel=14 control=64 value=127 time=3\n",
      "control_change channel=14 control=64 value=127 time=24\n",
      "note_on channel=14 note=57 velocity=0 time=36\n",
      "note_on channel=14 note=69 velocity=0 time=23\n",
      "note_on channel=14 note=69 velocity=0 time=15\n",
      "note_on channel=14 note=32 velocity=0 time=5\n",
      "note_on channel=14 note=30 velocity=124 time=17\n",
      "note_on channel=14 note=30 velocity=0 time=15\n",
      "control_change channel=14 control=64 value=0 time=116\n",
      "note_on channel=14 note=73 velocity=127 time=9\n",
      "note_on channel=14 note=76 velocity=127 time=0\n",
      "note_on channel=14 note=37 velocity=124 time=1\n",
      "control_change channel=14 control=64 value=0 time=1\n",
      "control_change channel=14 control=64 value=127 time=31\n",
      "control_change channel=14 control=64 value=127 time=25\n",
      "control_change channel=14 control=7 value=53 time=25\n",
      "note_on channel=14 note=44 velocity=106 time=9\n",
      "control_change channel=14 control=7 value=54 time=5\n",
      "note_on channel=14 note=73 velocity=0 time=18\n",
      "control_change channel=14 control=7 value=56 time=0\n",
      "control_change channel=14 control=7 value=57 time=5\n",
      "note_on channel=14 note=76 velocity=0 time=16\n",
      "note_on channel=14 note=49 velocity=124 time=2\n",
      "note_on channel=14 note=64 velocity=127 time=64\n",
      "control_change channel=14 control=7 value=58 time=30\n",
      "note_on channel=14 note=64 velocity=0 time=6\n",
      "note_on channel=14 note=76 velocity=127 time=30\n",
      "note_on channel=14 note=64 velocity=127 time=1\n",
      "note_on channel=14 note=85 velocity=122 time=0\n",
      "note_on channel=14 note=73 velocity=127 time=3\n",
      "note_on channel=14 note=88 velocity=124 time=0\n",
      "aftertouch channel=14 value=6 time=8\n",
      "aftertouch channel=14 value=0 time=4\n",
      "note_on channel=14 note=49 velocity=0 time=31\n",
      "note_on channel=14 note=64 velocity=0 time=2\n",
      "note_on channel=14 note=73 velocity=0 time=46\n",
      "note_on channel=14 note=76 velocity=0 time=12\n",
      "control_change channel=14 control=7 value=59 time=0\n",
      "note_on channel=14 note=85 velocity=0 time=30\n",
      "note_on channel=14 note=44 velocity=0 time=1\n",
      "note_on channel=14 note=49 velocity=106 time=2\n",
      "note_on channel=14 note=88 velocity=0 time=5\n",
      "note_on channel=14 note=49 velocity=0 time=18\n",
      "note_on channel=14 note=37 velocity=0 time=4\n",
      "note_on channel=14 note=78 velocity=127 time=38\n",
      "note_on channel=14 note=78 velocity=0 time=40\n",
      "control_change channel=14 control=64 value=0 time=22\n",
      "note_on channel=14 note=78 velocity=127 time=2\n",
      "note_on channel=14 note=35 velocity=127 time=3\n",
      "note_on channel=14 note=87 velocity=127 time=0\n",
      "note_on channel=14 note=90 velocity=127 time=2\n",
      "control_change channel=14 control=64 value=0 time=3\n",
      "control_change channel=14 control=64 value=127 time=36\n"
     ]
    },
    {
     "name": "stdout",
     "output_type": "stream",
     "text": [
      "control_change channel=14 control=64 value=127 time=7\n",
      "note_on channel=14 note=42 velocity=102 time=21\n",
      "note_on channel=14 note=47 velocity=115 time=64\n",
      "note_on channel=14 note=90 velocity=0 time=34\n",
      "note_on channel=14 note=87 velocity=0 time=8\n",
      "note_on channel=14 note=78 velocity=0 time=20\n",
      "control_change channel=14 control=7 value=57 time=11\n",
      "note_on channel=14 note=75 velocity=127 time=0\n",
      "note_on channel=14 note=75 velocity=0 time=44\n",
      "note_on channel=14 note=75 velocity=127 time=19\n",
      "note_on channel=14 note=78 velocity=127 time=1\n",
      "note_on channel=14 note=90 velocity=124 time=0\n",
      "note_on channel=14 note=87 velocity=126 time=2\n",
      "note_on channel=14 note=87 velocity=0 time=9\n",
      "note_on channel=14 note=90 velocity=0 time=1\n",
      "note_on channel=14 note=47 velocity=0 time=10\n",
      "note_on channel=14 note=75 velocity=0 time=2\n",
      "note_on channel=14 note=78 velocity=0 time=3\n",
      "note_on channel=14 note=35 velocity=0 time=103\n",
      "note_on channel=14 note=47 velocity=127 time=2\n",
      "note_on channel=14 note=42 velocity=0 time=14\n",
      "note_on channel=14 note=47 velocity=0 time=20\n",
      "note_on channel=14 note=59 velocity=127 time=25\n",
      "note_on channel=14 note=71 velocity=127 time=1\n",
      "note_on channel=14 note=83 velocity=127 time=1\n",
      "note_on channel=14 note=71 velocity=127 time=0\n",
      "note_on channel=14 note=59 velocity=0 time=6\n",
      "note_on channel=14 note=71 velocity=0 time=1\n",
      "note_on channel=14 note=83 velocity=0 time=12\n",
      "note_on channel=14 note=71 velocity=0 time=0\n",
      "note_on channel=14 note=83 velocity=127 time=53\n",
      "note_on channel=14 note=71 velocity=127 time=0\n",
      "note_on channel=14 note=33 velocity=126 time=5\n",
      "control_change channel=14 control=7 value=56 time=15\n",
      "control_change channel=14 control=64 value=0 time=8\n",
      "note_on channel=14 note=40 velocity=102 time=39\n",
      "control_change channel=14 control=64 value=127 time=10\n",
      "note_on channel=14 note=95 velocity=127 time=19\n",
      "note_on channel=14 note=83 velocity=116 time=3\n",
      "control_change channel=14 control=64 value=0 time=11\n",
      "note_on channel=14 note=40 velocity=0 time=25\n",
      "note_on channel=14 note=45 velocity=126 time=0\n",
      "note_on channel=14 note=71 velocity=0 time=22\n",
      "control_change channel=14 control=7 value=55 time=8\n",
      "control_change channel=14 control=64 value=127 time=0\n",
      "note_on channel=14 note=83 velocity=0 time=15\n",
      "note_on channel=14 note=45 velocity=0 time=11\n",
      "note_on channel=14 note=40 velocity=109 time=11\n",
      "control_change channel=14 control=7 value=54 time=61\n",
      "note_on channel=14 note=69 velocity=127 time=5\n",
      "note_on channel=14 note=45 velocity=127 time=1\n",
      "note_on channel=14 note=81 velocity=127 time=0\n",
      "note_on channel=14 note=40 velocity=0 time=2\n",
      "note_on channel=14 note=69 velocity=0 time=31\n",
      "note_on channel=14 note=81 velocity=0 time=8\n",
      "note_on channel=14 note=45 velocity=0 time=18\n",
      "note_on channel=14 note=40 velocity=109 time=7\n",
      "note_on channel=14 note=83 velocity=0 time=21\n",
      "control_change channel=14 control=7 value=52 time=11\n",
      "note_on channel=14 note=95 velocity=0 time=3\n",
      "note_on channel=14 note=68 velocity=127 time=27\n",
      "note_on channel=14 note=80 velocity=127 time=1\n",
      "note_on channel=14 note=68 velocity=0 time=14\n",
      "note_on channel=14 note=80 velocity=0 time=8\n",
      "note_on channel=14 note=33 velocity=0 time=8\n",
      "note_on channel=14 note=45 velocity=116 time=39\n",
      "note_on channel=14 note=40 velocity=0 time=3\n",
      "note_on channel=14 note=66 velocity=127 time=1\n",
      "note_on channel=14 note=78 velocity=127 time=1\n",
      "note_on channel=14 note=66 velocity=0 time=18\n",
      "note_on channel=14 note=78 velocity=0 time=6\n",
      "note_on channel=14 note=45 velocity=0 time=14\n",
      "note_on channel=14 note=35 velocity=127 time=24\n",
      "note_on channel=14 note=78 velocity=127 time=0\n",
      "note_on channel=14 note=66 velocity=127 time=0\n",
      "note_on channel=14 note=90 velocity=122 time=0\n",
      "note_on channel=14 note=78 velocity=118 time=2\n",
      "control_change channel=14 control=64 value=0 time=0\n",
      "control_change channel=14 control=64 value=0 time=2\n",
      "control_change channel=14 control=64 value=127 time=37\n",
      "control_change channel=14 control=7 value=50 time=3\n",
      "control_change channel=14 control=7 value=49 time=5\n",
      "note_on channel=14 note=42 velocity=108 time=20\n",
      "control_change channel=14 control=64 value=127 time=20\n",
      "note_on channel=14 note=66 velocity=0 time=25\n",
      "note_on channel=14 note=78 velocity=0 time=23\n",
      "note_on channel=14 note=47 velocity=127 time=2\n",
      "note_on channel=14 note=78 velocity=0 time=48\n",
      "note_on channel=14 note=66 velocity=122 time=12\n",
      "note_on channel=14 note=66 velocity=0 time=27\n",
      "note_on channel=14 note=90 velocity=0 time=22\n",
      "note_on channel=14 note=66 velocity=127 time=15\n",
      "note_on channel=14 note=78 velocity=127 time=1\n",
      "control_change channel=14 control=7 value=50 time=20\n",
      "note_on channel=14 note=66 velocity=0 time=4\n",
      "note_on channel=14 note=78 velocity=0 time=10\n",
      "note_on channel=14 note=47 velocity=0 time=20\n",
      "control_change channel=14 control=7 value=51 time=5\n",
      "note_on channel=14 note=80 velocity=127 time=4\n",
      "control_change channel=14 control=7 value=52 time=1\n",
      "note_on channel=14 note=92 velocity=127 time=0\n",
      "note_on channel=14 note=68 velocity=127 time=11\n",
      "note_on channel=14 note=80 velocity=126 time=0\n",
      "note_on channel=14 note=35 velocity=0 time=24\n",
      "note_on channel=14 note=80 velocity=0 time=4\n",
      "note_on channel=14 note=68 velocity=0 time=7\n",
      "note_on channel=14 note=92 velocity=0 time=2\n",
      "note_on channel=14 note=80 velocity=0 time=18\n",
      "note_on channel=14 note=47 velocity=127 time=9\n",
      "note_on channel=14 note=42 velocity=0 time=5\n",
      "note_on channel=14 note=93 velocity=127 time=3\n",
      "note_on channel=14 note=81 velocity=127 time=1\n",
      "note_on channel=14 note=69 velocity=127 time=2\n",
      "control_change channel=14 control=7 value=50 time=1\n",
      "note_on channel=14 note=81 velocity=127 time=0\n",
      "note_on channel=14 note=47 velocity=0 time=13\n",
      "control_change channel=14 control=7 value=49 time=0\n",
      "note_on channel=14 note=81 velocity=0 time=11\n",
      "note_on channel=14 note=69 velocity=0 time=2\n",
      "note_on channel=14 note=93 velocity=0 time=7\n",
      "note_on channel=14 note=81 velocity=0 time=4\n",
      "control_change channel=14 control=7 value=48 time=5\n",
      "note_on channel=14 note=80 velocity=127 time=52\n",
      "control_change channel=14 control=64 value=0 time=0\n",
      "note_on channel=14 note=92 velocity=127 time=0\n",
      "control_change channel=14 control=64 value=0 time=4\n",
      "note_on channel=14 note=68 velocity=126 time=1\n",
      "note_on channel=14 note=80 velocity=127 time=1\n",
      "note_on channel=14 note=37 velocity=104 time=1\n",
      "control_change channel=14 control=64 value=127 time=45\n",
      "control_change channel=14 control=7 value=49 time=5\n",
      "note_on channel=14 note=44 velocity=98 time=23\n",
      "control_change channel=14 control=64 value=127 time=12\n",
      "note_on channel=14 note=68 velocity=0 time=27\n",
      "note_on channel=14 note=80 velocity=0 time=13\n",
      "note_on channel=14 note=49 velocity=102 time=11\n",
      "note_on channel=14 note=80 velocity=0 time=14\n",
      "note_on channel=14 note=92 velocity=0 time=18\n",
      "note_on channel=14 note=66 velocity=111 time=31\n",
      "control_change channel=14 control=7 value=50 time=5\n",
      "note_on channel=14 note=66 velocity=0 time=24\n",
      "note_on channel=14 note=66 velocity=127 time=39\n",
      "note_on channel=14 note=78 velocity=127 time=1\n",
      "note_on channel=14 note=66 velocity=0 time=20\n",
      "note_on channel=14 note=78 velocity=0 time=5\n",
      "note_on channel=14 note=78 velocity=126 time=23\n",
      "note_on channel=14 note=49 velocity=0 time=1\n",
      "note_on channel=14 note=90 velocity=120 time=0\n",
      "control_change channel=14 control=64 value=0 time=1\n",
      "control_change channel=14 control=64 value=127 time=27\n",
      "note_on channel=14 note=78 velocity=0 time=10\n",
      "note_on channel=14 note=90 velocity=0 time=10\n",
      "note_on channel=14 note=64 velocity=122 time=30\n",
      "note_on channel=14 note=49 velocity=105 time=5\n",
      "note_on channel=14 note=44 velocity=0 time=3\n",
      "note_on channel=14 note=76 velocity=127 time=0\n",
      "note_on channel=14 note=76 velocity=127 time=12\n",
      "note_on channel=14 note=64 velocity=0 time=3\n",
      "note_on channel=14 note=88 velocity=127 time=0\n",
      "note_on channel=14 note=49 velocity=0 time=2\n",
      "note_on channel=14 note=37 velocity=0 time=12\n",
      "note_on channel=14 note=76 velocity=0 time=8\n",
      "note_on channel=14 note=76 velocity=0 time=13\n",
      "note_on channel=14 note=88 velocity=0 time=12\n",
      "control_change channel=14 control=64 value=0 time=60\n",
      "note_on channel=14 note=75 velocity=126 time=3\n",
      "control_change channel=14 control=64 value=0 time=4\n",
      "note_on channel=14 note=87 velocity=122 time=0\n",
      "note_on channel=14 note=35 velocity=127 time=6\n",
      "note_on channel=14 note=63 velocity=127 time=0\n",
      "note_on channel=14 note=75 velocity=127 time=2\n",
      "control_change channel=14 control=64 value=127 time=36\n",
      "control_change channel=14 control=64 value=127 time=3\n",
      "note_on channel=14 note=75 velocity=0 time=21\n",
      "note_on channel=14 note=42 velocity=113 time=5\n",
      "note_on channel=14 note=63 velocity=0 time=4\n",
      "note_on channel=14 note=87 velocity=0 time=16\n",
      "note_on channel=14 note=75 velocity=0 time=20\n",
      "control_change channel=14 control=64 value=0 time=26\n",
      "note_on channel=14 note=76 velocity=103 time=0\n",
      "note_on channel=14 note=64 velocity=127 time=1\n",
      "note_on channel=14 note=76 velocity=127 time=1\n",
      "note_on channel=14 note=88 velocity=112 time=1\n",
      "control_change channel=14 control=64 value=127 time=114\n",
      "note_on channel=14 note=47 velocity=127 time=23\n",
      "note_on channel=14 note=64 velocity=0 time=4\n",
      "note_on channel=14 note=88 velocity=0 time=27\n",
      "note_on channel=14 note=76 velocity=0 time=22\n",
      "note_on channel=14 note=35 velocity=0 time=32\n",
      "note_on channel=14 note=47 velocity=0 time=17\n",
      "note_on channel=14 note=42 velocity=0 time=14\n",
      "note_on channel=14 note=76 velocity=0 time=1\n",
      "note_on channel=14 note=63 velocity=127 time=22\n",
      "note_on channel=14 note=63 velocity=0 time=50\n",
      "note_on channel=14 note=75 velocity=127 time=15\n",
      "note_on channel=14 note=75 velocity=0 time=40\n",
      "control_change channel=14 control=64 value=0 time=15\n",
      "note_on channel=14 note=33 velocity=127 time=13\n",
      "note_on channel=14 note=63 velocity=127 time=2\n",
      "note_on channel=14 note=75 velocity=127 time=1\n",
      "control_change channel=14 control=64 value=127 time=24\n",
      "note_on channel=14 note=63 velocity=0 time=26\n",
      "note_on channel=14 note=45 velocity=127 time=14\n",
      "note_on channel=14 note=75 velocity=0 time=5\n",
      "note_on channel=14 note=76 velocity=127 time=63\n",
      "note_on channel=14 note=64 velocity=127 time=0\n",
      "note_on channel=14 note=64 velocity=0 time=22\n",
      "note_on channel=14 note=76 velocity=0 time=8\n",
      "note_on channel=14 note=45 velocity=0 time=24\n",
      "control_change channel=14 control=64 value=0 time=24\n",
      "note_on channel=14 note=45 velocity=127 time=50\n",
      "note_on channel=14 note=33 velocity=0 time=17\n",
      "note_on channel=14 note=45 velocity=0 time=3\n",
      "note_on channel=14 note=66 velocity=127 time=114\n",
      "note_on channel=14 note=78 velocity=127 time=1\n",
      "note_on channel=14 note=66 velocity=0 time=18\n",
      "note_on channel=14 note=78 velocity=0 time=10\n",
      "control_change channel=14 control=64 value=0 time=83\n",
      "note_on channel=14 note=80 velocity=127 time=25\n",
      "note_on channel=14 note=35 velocity=127 time=1\n",
      "note_on channel=14 note=68 velocity=127 time=0\n",
      "control_change channel=14 control=64 value=127 time=5\n",
      "note_on channel=14 note=68 velocity=0 time=17\n",
      "note_on channel=14 note=80 velocity=0 time=6\n",
      "note_on channel=14 note=35 velocity=0 time=57\n",
      "note_on channel=14 note=80 velocity=113 time=73\n",
      "control_change channel=14 control=64 value=127 time=26\n",
      "note_on channel=14 note=35 velocity=127 time=30\n",
      "note_on channel=14 note=35 velocity=0 time=25\n",
      "note_on channel=14 note=80 velocity=0 time=63\n",
      "note_on channel=14 note=66 velocity=122 time=229\n",
      "note_on channel=14 note=35 velocity=106 time=3\n",
      "note_on channel=14 note=78 velocity=127 time=10\n",
      "note_on channel=14 note=66 velocity=0 time=111\n",
      "note_on channel=14 note=78 velocity=0 time=5\n",
      "note_on channel=14 note=35 velocity=0 time=7\n",
      "note_on channel=14 note=78 velocity=87 time=2\n",
      "control_change channel=14 control=64 value=0 time=55\n",
      "control_change channel=14 control=64 value=127 time=87\n",
      "note_on channel=14 note=78 velocity=0 time=91\n",
      "note_on channel=14 note=64 velocity=109 time=19\n",
      "note_on channel=14 note=64 velocity=0 time=44\n",
      "note_on channel=14 note=76 velocity=104 time=36\n",
      "note_on channel=14 note=76 velocity=0 time=12\n",
      "control_change channel=14 control=64 value=0 time=31\n",
      "note_on channel=14 note=49 velocity=89 time=10\n",
      "control_change channel=14 control=64 value=0 time=0\n",
      "note_on channel=14 note=76 velocity=115 time=0\n",
      "note_on channel=14 note=37 velocity=91 time=1\n",
      "note_on channel=14 note=64 velocity=109 time=2\n",
      "note_on channel=14 note=64 velocity=100 time=12\n",
      "control_change channel=14 control=64 value=127 time=35\n",
      "control_change channel=14 control=64 value=127 time=24\n",
      "note_on channel=14 note=64 velocity=0 time=44\n",
      "note_on channel=14 note=76 velocity=0 time=20\n",
      "note_on channel=14 note=64 velocity=109 time=56\n",
      "note_on channel=14 note=76 velocity=104 time=6\n",
      "note_on channel=14 note=64 velocity=0 time=15\n",
      "note_on channel=14 note=76 velocity=0 time=9\n",
      "note_on channel=14 note=64 velocity=127 time=42\n",
      "note_on channel=14 note=76 velocity=127 time=0\n",
      "note_on channel=14 note=76 velocity=113 time=2\n",
      "note_on channel=14 note=49 velocity=0 time=12\n",
      "note_on channel=14 note=76 velocity=0 time=56\n",
      "note_on channel=14 note=71 velocity=109 time=2\n",
      "note_on channel=14 note=64 velocity=0 time=55\n",
      "note_on channel=14 note=37 velocity=0 time=14\n",
      "note_on channel=14 note=71 velocity=0 time=48\n",
      "note_on channel=14 note=68 velocity=93 time=13\n",
      "note_on channel=14 note=68 velocity=0 time=24\n",
      "note_on channel=14 note=68 velocity=111 time=41\n",
      "note_on channel=14 note=47 velocity=99 time=2\n",
      "control_change channel=14 control=64 value=0 time=0\n",
      "note_on channel=14 note=35 velocity=108 time=1\n",
      "control_change channel=14 control=64 value=127 time=57\n",
      "note_on channel=14 note=64 velocity=104 time=7\n",
      "note_on channel=14 note=71 velocity=100 time=70\n",
      "note_on channel=14 note=64 velocity=0 time=1\n",
      "note_on channel=14 note=76 velocity=0 time=24\n",
      "note_on channel=14 note=71 velocity=0 time=23\n",
      "note_on channel=14 note=64 velocity=0 time=11\n",
      "note_on channel=14 note=76 velocity=118 time=1\n",
      "note_on channel=14 note=76 velocity=0 time=11\n",
      "note_on channel=14 note=76 velocity=127 time=56\n",
      "note_on channel=14 note=76 velocity=0 time=66\n",
      "note_on channel=14 note=76 velocity=111 time=2\n",
      "note_on channel=14 note=71 velocity=105 time=0\n",
      "note_on channel=14 note=68 velocity=101 time=62\n",
      "note_on channel=14 note=71 velocity=0 time=1\n",
      "note_on channel=14 note=76 velocity=0 time=6\n",
      "note_on channel=14 note=83 velocity=111 time=2\n",
      "note_on channel=14 note=68 velocity=0 time=51\n",
      "note_on channel=14 note=83 velocity=0 time=3\n",
      "note_on channel=14 note=64 velocity=109 time=3\n",
      "note_on channel=14 note=88 velocity=127 time=4\n",
      "note_on channel=14 note=88 velocity=0 time=18\n",
      "note_on channel=14 note=64 velocity=0 time=8\n",
      "control_change channel=14 control=7 value=49 time=0\n",
      "control_change channel=14 control=7 value=48 time=29\n",
      "control_change channel=14 control=64 value=0 time=0\n",
      "note_on channel=14 note=45 velocity=118 time=4\n",
      "note_on channel=14 note=64 velocity=124 time=4\n",
      "note_on channel=14 note=88 velocity=127 time=9\n",
      "note_on channel=14 note=88 velocity=0 time=22\n",
      "control_change channel=14 control=64 value=127 time=0\n",
      "control_change channel=14 control=7 value=47 time=15\n",
      "note_on channel=14 note=52 velocity=118 time=21\n",
      "note_on channel=14 note=71 velocity=105 time=64\n",
      "note_on channel=14 note=64 velocity=0 time=24\n",
      "note_on channel=14 note=71 velocity=0 time=9\n",
      "note_on channel=14 note=76 velocity=127 time=26\n",
      "note_on channel=14 note=64 velocity=127 time=1\n",
      "control_change channel=14 control=7 value=49 time=10\n",
      "control_change channel=14 control=7 value=50 time=5\n",
      "note_on channel=14 note=57 velocity=112 time=53\n",
      "note_on channel=14 note=88 velocity=116 time=66\n",
      "note_on channel=14 note=71 velocity=106 time=1\n",
      "note_on channel=14 note=64 velocity=0 time=3\n",
      "note_on channel=14 note=45 velocity=0 time=1\n",
      "note_on channel=14 note=76 velocity=0 time=14\n",
      "note_on channel=14 note=64 velocity=113 time=49\n",
      "note_on channel=14 note=95 velocity=111 time=1\n",
      "note_on channel=14 note=71 velocity=0 time=3\n",
      "note_on channel=14 note=52 velocity=0 time=31\n",
      "note_on channel=14 note=88 velocity=0 time=15\n",
      "note_on channel=14 note=95 velocity=0 time=11\n",
      "note_on channel=14 note=57 velocity=0 time=10\n",
      "note_on channel=14 note=64 velocity=0 time=2\n",
      "note_on channel=14 note=71 velocity=115 time=9\n",
      "note_on channel=14 note=100 velocity=126 time=0\n",
      "note_on channel=14 note=100 velocity=0 time=2\n",
      "note_on channel=14 note=71 velocity=0 time=4\n",
      "note_on channel=14 note=64 velocity=126 time=37\n",
      "note_on channel=14 note=71 velocity=108 time=0\n",
      "control_change channel=14 control=64 value=0 time=2\n",
      "note_on channel=14 note=47 velocity=103 time=2\n",
      "note_on channel=14 note=100 velocity=127 time=5\n",
      "control_change channel=14 control=64 value=127 time=33\n",
      "note_on channel=14 note=100 velocity=0 time=14\n",
      "note_on channel=14 note=95 velocity=118 time=9\n",
      "note_on channel=14 note=54 velocity=103 time=10\n",
      "note_on channel=14 note=64 velocity=0 time=19\n",
      "note_on channel=14 note=95 velocity=0 time=30\n",
      "note_on channel=14 note=71 velocity=0 time=11\n",
      "note_on channel=14 note=64 velocity=104 time=2\n",
      "note_on channel=14 note=88 velocity=92 time=1\n",
      "note_on channel=14 note=88 velocity=0 time=30\n",
      "note_on channel=14 note=76 velocity=122 time=25\n",
      "note_on channel=14 note=64 velocity=0 time=7\n",
      "note_on channel=14 note=76 velocity=0 time=22\n",
      "note_on channel=14 note=64 velocity=127 time=47\n",
      "note_on channel=14 note=76 velocity=124 time=4\n",
      "note_on channel=14 note=54 velocity=0 time=10\n",
      "note_on channel=14 note=54 velocity=100 time=50\n",
      "note_on channel=14 note=83 velocity=118 time=1\n",
      "note_on channel=14 note=47 velocity=0 time=31\n",
      "note_on channel=14 note=83 velocity=0 time=18\n",
      "note_on channel=14 note=76 velocity=104 time=17\n",
      "note_on channel=14 note=75 velocity=102 time=3\n",
      "note_on channel=14 note=76 velocity=0 time=2\n",
      "note_on channel=14 note=76 velocity=0 time=8\n",
      "note_on channel=14 note=54 velocity=0 time=4\n",
      "note_on channel=14 note=64 velocity=0 time=20\n",
      "note_on channel=14 note=75 velocity=0 time=18\n",
      "note_on channel=14 note=76 velocity=113 time=4\n",
      "note_on channel=14 note=76 velocity=0 time=16\n",
      "control_change channel=14 control=64 value=0 time=45\n",
      "note_on channel=14 note=49 velocity=96 time=7\n",
      "note_on channel=14 note=76 velocity=101 time=4\n",
      "note_on channel=14 note=64 velocity=109 time=1\n",
      "note_on channel=14 note=76 velocity=118 time=2\n",
      "note_on channel=14 note=64 velocity=94 time=1\n",
      "control_change channel=14 control=64 value=0 time=2\n",
      "control_change channel=14 control=64 value=127 time=51\n",
      "note_on channel=14 note=56 velocity=94 time=6\n",
      "control_change channel=14 control=64 value=127 time=16\n",
      "note_on channel=14 note=64 velocity=0 time=1\n",
      "note_on channel=14 note=64 velocity=0 time=18\n",
      "note_on channel=14 note=76 velocity=0 time=21\n",
      "note_on channel=14 note=76 velocity=0 time=3\n",
      "note_on channel=14 note=61 velocity=97 time=10\n",
      "note_on channel=14 note=64 velocity=102 time=60\n",
      "control_change channel=14 control=7 value=49 time=15\n",
      "note_on channel=14 note=64 velocity=0 time=49\n",
      "note_on channel=14 note=66 velocity=97 time=6\n",
      "note_on channel=14 note=61 velocity=0 time=4\n",
      "note_on channel=14 note=66 velocity=0 time=58\n",
      "control_change channel=14 control=7 value=50 time=0\n",
      "note_on channel=14 note=64 velocity=103 time=5\n",
      "control_change channel=14 control=7 value=51 time=13\n",
      "note_on channel=14 note=61 velocity=88 time=52\n",
      "note_on channel=14 note=56 velocity=0 time=18\n",
      "note_on channel=14 note=61 velocity=0 time=2\n",
      "note_on channel=14 note=49 velocity=0 time=8\n",
      "note_on channel=14 note=71 velocity=90 time=39\n",
      "note_on channel=14 note=78 velocity=113 time=0\n",
      "note_on channel=14 note=64 velocity=0 time=3\n",
      "note_on channel=14 note=71 velocity=0 time=10\n",
      "note_on channel=14 note=78 velocity=0 time=45\n",
      "note_on channel=14 note=47 velocity=101 time=5\n",
      "note_on channel=14 note=71 velocity=104 time=7\n",
      "control_change channel=14 control=64 value=0 time=2\n",
      "note_on channel=14 note=76 velocity=89 time=2\n",
      "control_change channel=14 control=64 value=127 time=43\n",
      "note_on channel=14 note=76 velocity=0 time=7\n",
      "control_change channel=14 control=7 value=50 time=0\n",
      "note_on channel=14 note=54 velocity=95 time=6\n",
      "note_on channel=14 note=83 velocity=115 time=2\n",
      "note_on channel=14 note=59 velocity=88 time=76\n",
      "note_on channel=14 note=71 velocity=0 time=45\n",
      "note_on channel=14 note=66 velocity=96 time=20\n",
      "note_on channel=14 note=66 velocity=0 time=28\n",
      "note_on channel=14 note=68 velocity=98 time=40\n",
      "note_on channel=14 note=59 velocity=0 time=7\n",
      "note_on channel=14 note=68 velocity=0 time=52\n",
      "note_on channel=14 note=71 velocity=92 time=5\n",
      "note_on channel=14 note=83 velocity=0 time=50\n",
      "note_on channel=14 note=71 velocity=0 time=3\n",
      "note_on channel=14 note=59 velocity=91 time=15\n",
      "note_on channel=14 note=80 velocity=102 time=3\n",
      "note_on channel=14 note=59 velocity=0 time=10\n",
      "note_on channel=14 note=54 velocity=0 time=7\n",
      "note_on channel=14 note=47 velocity=0 time=6\n",
      "note_on channel=14 note=61 velocity=126 time=39\n",
      "note_on channel=14 note=80 velocity=0 time=4\n",
      "note_on channel=14 note=83 velocity=111 time=3\n",
      "note_on channel=14 note=83 velocity=0 time=12\n",
      "note_on channel=14 note=61 velocity=0 time=19\n",
      "control_change channel=14 control=64 value=0 time=24\n",
      "note_on channel=14 note=85 velocity=111 time=3\n",
      "note_on channel=14 note=45 velocity=127 time=3\n",
      "note_on channel=14 note=61 velocity=127 time=0\n",
      "note_on channel=14 note=73 velocity=127 time=1\n",
      "note_on channel=14 note=33 velocity=127 time=1\n",
      "note_on channel=14 note=73 velocity=93 time=0\n",
      "control_change channel=14 control=64 value=0 time=7\n",
      "control_change channel=14 control=64 value=127 time=25\n",
      "control_change channel=14 control=64 value=127 time=43\n",
      "note_on channel=14 note=33 velocity=0 time=48\n",
      "note_on channel=14 note=45 velocity=0 time=1\n",
      "note_on channel=14 note=61 velocity=0 time=5\n",
      "note_on channel=14 note=73 velocity=0 time=26\n",
      "note_on channel=14 note=73 velocity=0 time=7\n",
      "note_on channel=14 note=85 velocity=0 time=11\n",
      "note_on channel=14 note=45 velocity=127 time=29\n",
      "note_on channel=14 note=33 velocity=127 time=1\n",
      "note_on channel=14 note=45 velocity=0 time=20\n",
      "note_on channel=14 note=33 velocity=0 time=7\n",
      "control_change channel=14 control=7 value=51 time=20\n",
      "control_change channel=14 control=7 value=52 time=10\n",
      "note_on channel=14 note=75 velocity=127 time=17\n",
      "note_on channel=14 note=63 velocity=127 time=0\n",
      "note_on channel=14 note=85 velocity=127 time=0\n",
      "note_on channel=14 note=73 velocity=127 time=0\n",
      "note_on channel=14 note=73 velocity=0 time=10\n",
      "note_on channel=14 note=85 velocity=0 time=9\n",
      "note_on channel=14 note=63 velocity=0 time=69\n",
      "note_on channel=14 note=45 velocity=127 time=31\n",
      "note_on channel=14 note=33 velocity=127 time=1\n",
      "note_on channel=14 note=75 velocity=0 time=7\n",
      "note_on channel=14 note=45 velocity=0 time=21\n",
      "note_on channel=14 note=33 velocity=0 time=2\n",
      "note_on channel=14 note=64 velocity=127 time=30\n",
      "note_on channel=14 note=64 velocity=0 time=33\n",
      "control_change channel=14 control=64 value=0 time=23\n",
      "control_change channel=14 control=7 value=53 time=5\n",
      "note_on channel=14 note=44 velocity=127 time=7\n",
      "note_on channel=14 note=32 velocity=127 time=1\n",
      "note_on channel=14 note=64 velocity=127 time=1\n",
      "note_on channel=14 note=76 velocity=127 time=0\n",
      "aftertouch channel=14 value=24 time=22\n",
      "control_change channel=14 control=64 value=127 time=4\n",
      "aftertouch channel=14 value=6 time=0\n",
      "aftertouch channel=14 value=18 time=5\n",
      "aftertouch channel=14 value=3 time=4\n",
      "aftertouch channel=14 value=0 time=4\n",
      "note_on channel=14 note=44 velocity=0 time=24\n",
      "note_on channel=14 note=32 velocity=0 time=16\n",
      "note_on channel=14 note=64 velocity=0 time=18\n",
      "control_change channel=14 control=64 value=0 time=11\n",
      "note_on channel=14 note=76 velocity=0 time=4\n",
      "note_on channel=14 note=44 velocity=127 time=24\n",
      "note_on channel=14 note=32 velocity=127 time=1\n",
      "note_on channel=14 note=76 velocity=127 time=1\n",
      "note_on channel=14 note=88 velocity=127 time=2\n",
      "note_on channel=14 note=44 velocity=0 time=11\n",
      "note_on channel=14 note=32 velocity=0 time=13\n",
      "control_change channel=14 control=64 value=127 time=1\n",
      "note_on channel=14 note=76 velocity=0 time=18\n",
      "note_on channel=14 note=32 velocity=127 time=17\n",
      "note_on channel=14 note=44 velocity=127 time=0\n",
      "note_on channel=14 note=88 velocity=0 time=8\n",
      "note_on channel=14 note=44 velocity=0 time=11\n",
      "note_on channel=14 note=32 velocity=0 time=9\n",
      "control_change channel=14 control=64 value=0 time=13\n",
      "control_change channel=14 control=7 value=54 time=10\n",
      "note_on channel=14 note=66 velocity=127 time=17\n",
      "note_on channel=14 note=42 velocity=127 time=1\n",
      "note_on channel=14 note=30 velocity=127 time=0\n",
      "note_on channel=14 note=78 velocity=127 time=1\n",
      "aftertouch channel=14 value=55 time=8\n",
      "control_change channel=14 control=64 value=127 time=2\n",
      "aftertouch channel=14 value=10 time=3\n",
      "aftertouch channel=14 value=0 time=3\n",
      "note_on channel=14 note=42 velocity=0 time=8\n",
      "note_on channel=14 note=30 velocity=0 time=6\n",
      "control_change channel=14 control=64 value=0 time=13\n",
      "note_on channel=14 note=66 velocity=0 time=5\n",
      "note_on channel=14 note=78 velocity=0 time=18\n",
      "note_on channel=14 note=30 velocity=127 time=20\n",
      "note_on channel=14 note=42 velocity=127 time=2\n",
      "note_on channel=14 note=42 velocity=0 time=21\n",
      "note_on channel=14 note=30 velocity=0 time=4\n",
      "control_change channel=14 control=64 value=127 time=18\n",
      "note_on channel=14 note=42 velocity=127 time=45\n",
      "note_on channel=14 note=30 velocity=127 time=0\n",
      "note_on channel=14 note=42 velocity=0 time=24\n",
      "note_on channel=14 note=30 velocity=0 time=6\n",
      "control_change channel=14 control=64 value=0 time=40\n",
      "note_on channel=14 note=68 velocity=127 time=12\n",
      "note_on channel=14 note=80 velocity=127 time=0\n",
      "note_on channel=14 note=41 velocity=127 time=0\n",
      "control_change channel=14 control=7 value=57 time=2\n",
      "note_on channel=14 note=29 velocity=127 time=0\n",
      "note_on channel=14 note=77 velocity=127 time=2\n",
      "control_change channel=14 control=7 value=58 time=13\n",
      "control_change channel=14 control=64 value=127 time=11\n",
      "note_on channel=14 note=68 velocity=0 time=90\n",
      "control_change channel=14 control=7 value=59 time=0\n",
      "note_on channel=14 note=80 velocity=0 time=23\n",
      "note_on channel=14 note=77 velocity=0 time=4\n",
      "note_on channel=14 note=68 velocity=127 time=121\n",
      "note_on channel=14 note=80 velocity=127 time=0\n",
      "note_on channel=14 note=77 velocity=127 time=2\n",
      "control_change channel=14 control=64 value=0 time=3\n",
      "note_on channel=14 note=29 velocity=0 time=44\n",
      "control_change channel=14 control=64 value=127 time=8\n",
      "note_on channel=14 note=41 velocity=0 time=9\n",
      "note_on channel=14 note=77 velocity=0 time=5\n",
      "note_on channel=14 note=68 velocity=0 time=2\n",
      "note_on channel=14 note=80 velocity=0 time=13\n",
      "note_on channel=14 note=41 velocity=126 time=50\n",
      "note_on channel=14 note=29 velocity=127 time=2\n",
      "note_on channel=14 note=29 velocity=0 time=41\n",
      "note_on channel=14 note=41 velocity=0 time=7\n",
      "note_on channel=14 note=82 velocity=127 time=10\n",
      "note_on channel=14 note=82 velocity=0 time=49\n",
      "control_change channel=14 control=64 value=0 time=9\n",
      "note_on channel=14 note=39 velocity=127 time=12\n",
      "note_on channel=14 note=27 velocity=127 time=1\n",
      "note_on channel=14 note=82 velocity=127 time=2\n",
      "aftertouch channel=14 value=4 time=10\n",
      "aftertouch channel=14 value=14 time=4\n",
      "aftertouch channel=14 value=1 time=4\n",
      "aftertouch channel=14 value=0 time=4\n",
      "control_change channel=14 control=64 value=127 time=0\n",
      "control_change channel=14 control=7 value=63 time=55\n",
      "note_on channel=14 note=82 velocity=0 time=83\n",
      "note_on channel=14 note=70 velocity=126 time=32\n",
      "note_on channel=14 note=70 velocity=0 time=32\n",
      "control_change channel=14 control=64 value=0 time=24\n",
      "note_on channel=14 note=70 velocity=127 time=5\n",
      "note_on channel=14 note=82 velocity=127 time=1\n",
      "note_on channel=14 note=70 velocity=0 time=16\n",
      "note_on channel=14 note=82 velocity=0 time=2\n",
      "note_on channel=14 note=27 velocity=93 time=1\n",
      "control_change channel=14 control=7 value=64 time=5\n",
      "note_on channel=14 note=39 velocity=90 time=4\n",
      "control_change channel=14 control=64 value=127 time=13\n",
      "note_on channel=14 note=27 velocity=0 time=24\n",
      "note_on channel=14 note=39 velocity=0 time=1\n",
      "note_on channel=14 note=39 velocity=127 time=54\n",
      "note_on channel=14 note=27 velocity=124 time=0\n",
      "note_on channel=14 note=63 velocity=127 time=11\n",
      "note_on channel=14 note=75 velocity=127 time=0\n",
      "note_on channel=14 note=63 velocity=127 time=13\n",
      "note_on channel=14 note=63 velocity=0 time=1\n",
      "note_on channel=14 note=75 velocity=127 time=0\n",
      "note_on channel=14 note=39 velocity=0 time=3\n",
      "note_on channel=14 note=75 velocity=0 time=5\n",
      "note_on channel=14 note=63 velocity=0 time=8\n",
      "note_on channel=14 note=27 velocity=0 time=3\n",
      "note_on channel=14 note=75 velocity=0 time=8\n",
      "note_on channel=14 note=39 velocity=0 time=23\n",
      "control_change channel=14 control=64 value=0 time=44\n",
      "control_change channel=14 control=64 value=0 time=15\n",
      "note_on channel=14 note=87 velocity=127 time=9\n",
      "note_on channel=14 note=75 velocity=127 time=1\n",
      "note_on channel=14 note=75 velocity=127 time=1\n",
      "note_on channel=14 note=87 velocity=127 time=0\n",
      "note_on channel=14 note=37 velocity=127 time=1\n",
      "note_on channel=14 note=25 velocity=127 time=0\n",
      "aftertouch channel=14 value=1 time=6\n",
      "aftertouch channel=14 value=3 time=4\n",
      "aftertouch channel=14 value=0 time=4\n",
      "control_change channel=14 control=64 value=127 time=13\n",
      "control_change channel=14 control=64 value=127 time=42\n",
      "note_on channel=14 note=37 velocity=0 time=39\n",
      "note_on channel=14 note=25 velocity=0 time=18\n",
      "note_on channel=14 note=75 velocity=0 time=16\n",
      "note_on channel=14 note=87 velocity=0 time=1\n",
      "note_on channel=14 note=75 velocity=0 time=55\n",
      "note_on channel=14 note=87 velocity=0 time=27\n",
      "note_on channel=14 note=73 velocity=127 time=36\n",
      "note_on channel=14 note=85 velocity=127 time=2\n",
      "note_on channel=14 note=73 velocity=0 time=17\n",
      "control_change channel=14 control=7 value=63 time=0\n",
      "note_on channel=14 note=85 velocity=0 time=10\n",
      "note_on channel=14 note=25 velocity=127 time=95\n",
      "note_on channel=14 note=37 velocity=127 time=1\n",
      "note_on channel=14 note=72 velocity=127 time=14\n",
      "note_on channel=14 note=84 velocity=127 time=2\n",
      "note_on channel=14 note=25 velocity=0 time=19\n",
      "note_on channel=14 note=72 velocity=0 time=1\n",
      "note_on channel=14 note=84 velocity=0 time=1\n",
      "note_on channel=14 note=37 velocity=0 time=5\n",
      "control_change channel=14 control=7 value=62 time=60\n",
      "control_change channel=14 control=64 value=0 time=14\n",
      "control_change channel=14 control=64 value=0 time=18\n",
      "note_on channel=14 note=70 velocity=127 time=1\n",
      "note_on channel=14 note=39 velocity=127 time=1\n",
      "note_on channel=14 note=27 velocity=127 time=0\n",
      "note_on channel=14 note=82 velocity=127 time=0\n",
      "aftertouch channel=14 value=2 time=8\n",
      "aftertouch channel=14 value=0 time=4\n",
      "control_change channel=14 control=64 value=127 time=26\n",
      "control_change channel=14 control=64 value=127 time=41\n",
      "note_on channel=14 note=70 velocity=0 time=33\n",
      "note_on channel=14 note=70 velocity=126 time=68\n",
      "note_on channel=14 note=70 velocity=0 time=28\n",
      "control_change channel=14 control=7 value=61 time=20\n",
      "note_on channel=14 note=70 velocity=127 time=20\n",
      "note_on channel=14 note=82 velocity=127 time=2\n",
      "control_change channel=14 control=7 value=59 time=5\n",
      "note_on channel=14 note=70 velocity=0 time=16\n",
      "note_on channel=14 note=39 velocity=78 time=7\n",
      "note_on channel=14 note=82 velocity=0 time=6\n",
      "note_on channel=14 note=39 velocity=0 time=37\n",
      "note_on channel=14 note=72 velocity=127 time=7\n",
      "note_on channel=14 note=84 velocity=127 time=0\n",
      "note_on channel=14 note=72 velocity=0 time=31\n",
      "note_on channel=14 note=84 velocity=0 time=5\n",
      "note_on channel=14 note=27 velocity=127 time=2\n",
      "note_on channel=14 note=39 velocity=127 time=0\n",
      "note_on channel=14 note=27 velocity=0 time=22\n",
      "note_on channel=14 note=39 velocity=0 time=7\n",
      "note_on channel=14 note=73 velocity=127 time=5\n",
      "note_on channel=14 note=85 velocity=127 time=1\n",
      "note_on channel=14 note=39 velocity=0 time=1\n",
      "note_on channel=14 note=85 velocity=0 time=33\n",
      "note_on channel=14 note=73 velocity=0 time=2\n",
      "control_change channel=14 control=64 value=0 time=26\n",
      "control_change channel=14 control=64 value=0 time=32\n",
      "aftertouch channel=14 value=14 time=13\n",
      "aftertouch channel=14 value=0 time=5\n",
      "note_on channel=14 note=84 velocity=127 time=12\n",
      "note_on channel=14 note=72 velocity=127 time=0\n",
      "note_on channel=14 note=39 velocity=103 time=0\n",
      "control_change channel=14 control=64 value=127 time=6\n",
      "control_change channel=14 control=64 value=127 time=5\n",
      "note_on channel=14 note=48 velocity=102 time=28\n",
      "note_on channel=14 note=72 velocity=0 time=46\n",
      "note_on channel=14 note=53 velocity=124 time=20\n",
      "note_on channel=14 note=84 velocity=0 time=6\n",
      "note_on channel=14 note=72 velocity=118 time=62\n",
      "control_change channel=14 control=7 value=57 time=27\n",
      "note_on channel=14 note=72 velocity=0 time=6\n",
      "note_on channel=14 note=82 velocity=127 time=37\n",
      "note_on channel=14 note=70 velocity=127 time=2\n",
      "note_on channel=14 note=53 velocity=0 time=8\n",
      "note_on channel=14 note=70 velocity=0 time=15\n",
      "note_on channel=14 note=82 velocity=0 time=6\n",
      "note_on channel=14 note=68 velocity=127 time=90\n",
      "note_on channel=14 note=80 velocity=127 time=1\n",
      "note_on channel=14 note=53 velocity=127 time=3\n",
      "note_on channel=14 note=48 velocity=0 time=23\n",
      "control_change channel=14 control=7 value=56 time=20\n",
      "note_on channel=14 note=68 velocity=0 time=5\n",
      "note_on channel=14 note=80 velocity=0 time=12\n",
      "note_on channel=14 note=53 velocity=0 time=7\n",
      "note_on channel=14 note=48 velocity=108 time=13\n",
      "control_change channel=14 control=64 value=0 time=10\n",
      "note_on channel=14 note=48 velocity=0 time=1\n",
      "note_on channel=14 note=39 velocity=126 time=54\n",
      "control_change channel=14 control=64 value=0 time=22\n",
      "control_change channel=14 control=64 value=127 time=2\n",
      "control_change channel=14 control=64 value=127 time=35\n",
      "note_on channel=14 note=67 velocity=127 time=3\n",
      "note_on channel=14 note=79 velocity=127 time=1\n",
      "note_on channel=14 note=46 velocity=118 time=7\n",
      "control_change channel=14 control=7 value=55 time=33\n",
      "control_change channel=14 control=64 value=0 time=5\n",
      "note_on channel=14 note=67 velocity=0 time=6\n",
      "note_on channel=14 note=51 velocity=127 time=21\n",
      "note_on channel=14 note=79 velocity=0 time=10\n",
      "control_change channel=14 control=64 value=127 time=10\n",
      "control_change channel=14 control=64 value=0 time=58\n",
      "note_on channel=14 note=80 velocity=127 time=56\n",
      "note_on channel=14 note=68 velocity=127 time=0\n",
      "control_change channel=14 control=64 value=127 time=29\n",
      "note_on channel=14 note=68 velocity=0 time=19\n",
      "note_on channel=14 note=51 velocity=0 time=1\n",
      "note_on channel=14 note=80 velocity=0 time=1\n",
      "note_on channel=14 note=67 velocity=127 time=40\n",
      "note_on channel=14 note=79 velocity=127 time=1\n",
      "note_on channel=14 note=67 velocity=0 time=26\n",
      "note_on channel=14 note=79 velocity=0 time=6\n",
      "note_on channel=14 note=51 velocity=127 time=1\n",
      "note_on channel=14 note=46 velocity=0 time=13\n",
      "note_on channel=14 note=39 velocity=0 time=18\n",
      "note_on channel=14 note=51 velocity=0 time=1\n",
      "note_on channel=14 note=65 velocity=127 time=22\n",
      "control_change channel=14 control=64 value=0 time=37\n",
      "note_on channel=14 note=65 velocity=0 time=12\n",
      "control_change channel=14 control=64 value=0 time=9\n",
      "note_on channel=14 note=37 velocity=126 time=10\n",
      "note_on channel=14 note=65 velocity=127 time=2\n",
      "note_on channel=14 note=77 velocity=127 time=0\n",
      "aftertouch channel=14 value=7 time=13\n",
      "aftertouch channel=14 value=34 time=3\n",
      "aftertouch channel=14 value=0 time=5\n",
      "control_change channel=14 control=64 value=127 time=4\n",
      "control_change channel=14 control=64 value=127 time=0\n",
      "note_on channel=14 note=77 velocity=0 time=15\n",
      "note_on channel=14 note=65 velocity=0 time=14\n",
      "note_on channel=14 note=44 velocity=127 time=12\n",
      "control_change channel=14 control=7 value=54 time=40\n",
      "control_change channel=14 control=7 value=52 time=5\n",
      "note_on channel=14 note=49 velocity=127 time=19\n",
      "note_on channel=14 note=53 velocity=127 time=61\n",
      "note_on channel=14 note=53 velocity=0 time=45\n",
      "note_on channel=14 note=61 velocity=127 time=25\n",
      "note_on channel=14 note=53 velocity=127 time=0\n",
      "note_on channel=14 note=56 velocity=127 time=0\n",
      "note_on channel=14 note=39 velocity=96 time=0\n",
      "note_on channel=14 note=53 velocity=0 time=32\n",
      "note_on channel=14 note=49 velocity=0 time=1\n",
      "note_on channel=14 note=56 velocity=0 time=26\n",
      "note_on channel=14 note=61 velocity=0 time=14\n",
      "note_on channel=14 note=37 velocity=0 time=24\n",
      "note_on channel=14 note=39 velocity=0 time=3\n",
      "note_on channel=14 note=49 velocity=127 time=49\n",
      "note_on channel=14 note=44 velocity=0 time=14\n",
      "note_on channel=14 note=49 velocity=0 time=12\n",
      "note_on channel=14 note=63 velocity=127 time=23\n",
      "control_change channel=14 control=64 value=0 time=24\n",
      "note_on channel=14 note=63 velocity=0 time=11\n",
      "control_change channel=14 control=64 value=0 time=28\n",
      "note_on channel=14 note=36 velocity=127 time=3\n",
      "note_on channel=14 note=75 velocity=127 time=0\n",
      "note_on channel=14 note=87 velocity=127 time=0\n",
      "note_on channel=14 note=24 velocity=126 time=0\n",
      "note_on channel=14 note=36 velocity=111 time=2\n",
      "note_on channel=14 note=63 velocity=127 time=1\n",
      "note_on channel=14 note=75 velocity=127 time=1\n",
      "aftertouch channel=14 value=11 time=9\n",
      "aftertouch channel=14 value=2 time=5\n",
      "aftertouch channel=14 value=0 time=3\n",
      "control_change channel=14 control=64 value=127 time=10\n",
      "control_change channel=14 control=64 value=127 time=6\n",
      "note_on channel=14 note=36 velocity=0 time=54\n",
      "note_on channel=14 note=75 velocity=0 time=47\n",
      "note_on channel=14 note=63 velocity=0 time=3\n",
      "note_on channel=14 note=36 velocity=0 time=19\n",
      "note_on channel=14 note=24 velocity=0 time=1\n",
      "note_on channel=14 note=75 velocity=0 time=32\n",
      "note_on channel=14 note=36 velocity=120 time=3\n",
      "note_on channel=14 note=87 velocity=0 time=7\n",
      "note_on channel=14 note=36 velocity=0 time=13\n",
      "control_change channel=14 control=64 value=0 time=45\n",
      "note_on channel=14 note=61 velocity=127 time=10\n",
      "note_on channel=14 note=73 velocity=127 time=0\n",
      "note_on channel=14 note=34 velocity=127 time=0\n",
      "aftertouch channel=14 value=31 time=10\n",
      "aftertouch channel=14 value=17 time=4\n",
      "aftertouch channel=14 value=0 time=5\n",
      "control_change channel=14 control=64 value=127 time=5\n",
      "control_change channel=14 control=7 value=50 time=20\n",
      "note_on channel=14 note=61 velocity=0 time=19\n",
      "note_on channel=14 note=34 velocity=0 time=22\n",
      "note_on channel=14 note=73 velocity=0 time=5\n",
      "note_on channel=14 note=34 velocity=127 time=44\n",
      "note_on channel=14 note=34 velocity=0 time=20\n",
      "control_change channel=14 control=7 value=51 time=10\n",
      "control_change channel=14 control=7 value=52 time=5\n",
      "control_change channel=14 control=64 value=0 time=63\n",
      "note_on channel=14 note=41 velocity=126 time=35\n",
      "note_on channel=14 note=80 velocity=127 time=0\n",
      "note_on channel=14 note=68 velocity=127 time=0\n",
      "note_on channel=14 note=29 velocity=127 time=1\n",
      "note_on channel=14 note=68 velocity=127 time=2\n",
      "note_on channel=14 note=80 velocity=127 time=1\n",
      "note_on channel=14 note=41 velocity=106 time=14\n",
      "control_change channel=14 control=64 value=0 time=9\n",
      "control_change channel=14 control=64 value=127 time=30\n",
      "note_on channel=14 note=48 velocity=126 time=9\n",
      "control_change channel=14 control=64 value=127 time=2\n",
      "note_on channel=14 note=53 velocity=127 time=64\n",
      "note_on channel=14 note=68 velocity=0 time=15\n",
      "note_on channel=14 note=80 velocity=0 time=27\n",
      "note_on channel=14 note=68 velocity=127 time=23\n",
      "note_on channel=14 note=68 velocity=0 time=32\n",
      "note_on channel=14 note=68 velocity=127 time=35\n",
      "note_on channel=14 note=80 velocity=127 time=1\n",
      "aftertouch channel=14 value=6 time=12\n",
      "aftertouch channel=14 value=0 time=4\n",
      "note_on channel=14 note=53 velocity=0 time=34\n",
      "note_on channel=14 note=68 velocity=0 time=35\n",
      "note_on channel=14 note=68 velocity=0 time=8\n",
      "note_on channel=14 note=41 velocity=0 time=10\n",
      "note_on channel=14 note=29 velocity=0 time=5\n",
      "note_on channel=14 note=80 velocity=0 time=11\n",
      "note_on channel=14 note=80 velocity=0 time=4\n",
      "note_on channel=14 note=53 velocity=127 time=11\n",
      "note_on channel=14 note=41 velocity=0 time=6\n",
      "note_on channel=14 note=48 velocity=0 time=8\n",
      "note_on channel=14 note=53 velocity=0 time=14\n",
      "note_on channel=14 note=70 velocity=127 time=31\n",
      "note_on channel=14 note=82 velocity=127 time=31\n",
      "note_on channel=14 note=70 velocity=0 time=2\n",
      "note_on channel=14 note=82 velocity=0 time=22\n",
      "control_change channel=14 control=64 value=0 time=0\n",
      "control_change channel=14 control=64 value=0 time=5\n",
      "note_on channel=14 note=70 velocity=127 time=7\n",
      "note_on channel=14 note=27 velocity=120 time=1\n",
      "note_on channel=14 note=82 velocity=127 time=0\n",
      "note_on channel=14 note=39 velocity=122 time=1\n",
      "note_on channel=14 note=39 velocity=127 time=2\n",
      "note_on channel=14 note=70 velocity=127 time=3\n",
      "note_on channel=14 note=82 velocity=127 time=0\n",
      "aftertouch channel=14 value=12 time=10\n",
      "aftertouch channel=14 value=0 time=5\n",
      "control_change channel=14 control=64 value=127 time=8\n",
      "note_on channel=14 note=46 velocity=109 time=42\n",
      "control_change channel=14 control=64 value=127 time=1\n",
      "note_on channel=14 note=70 velocity=0 time=48\n",
      "note_on channel=14 note=82 velocity=0 time=4\n",
      "note_on channel=14 note=51 velocity=127 time=7\n",
      "note_on channel=14 note=70 velocity=0 time=2\n",
      "note_on channel=14 note=82 velocity=0 time=6\n",
      "note_on channel=14 note=39 velocity=0 time=10\n",
      "note_on channel=14 note=70 velocity=127 time=43\n",
      "note_on channel=14 note=70 velocity=0 time=34\n",
      "note_on channel=14 note=82 velocity=127 time=35\n",
      "note_on channel=14 note=70 velocity=127 time=0\n",
      "note_on channel=14 note=39 velocity=98 time=1\n",
      "note_on channel=14 note=70 velocity=0 time=4\n",
      "note_on channel=14 note=82 velocity=0 time=0\n",
      "note_on channel=14 note=51 velocity=0 time=43\n",
      "note_on channel=14 note=63 velocity=127 time=23\n",
      "note_on channel=14 note=75 velocity=127 time=1\n",
      "note_on channel=14 note=63 velocity=0 time=30\n",
      "note_on channel=14 note=75 velocity=0 time=7\n",
      "note_on channel=14 note=51 velocity=127 time=1\n",
      "note_on channel=14 note=63 velocity=127 time=5\n",
      "note_on channel=14 note=75 velocity=126 time=0\n",
      "note_on channel=14 note=63 velocity=0 time=15\n",
      "note_on channel=14 note=75 velocity=0 time=9\n",
      "note_on channel=14 note=63 velocity=127 time=1\n",
      "note_on channel=14 note=75 velocity=127 time=1\n",
      "note_on channel=14 note=63 velocity=0 time=13\n",
      "note_on channel=14 note=75 velocity=0 time=11\n",
      "note_on channel=14 note=51 velocity=0 time=0\n",
      "note_on channel=14 note=46 velocity=0 time=6\n",
      "note_on channel=14 note=39 velocity=0 time=10\n",
      "control_change channel=14 control=64 value=0 time=52\n",
      "note_on channel=14 note=75 velocity=127 time=8\n",
      "note_on channel=14 note=87 velocity=127 time=1\n",
      "control_change channel=14 control=64 value=0 time=5\n",
      "note_on channel=14 note=75 velocity=127 time=3\n",
      "note_on channel=14 note=37 velocity=124 time=2\n",
      "note_on channel=14 note=87 velocity=127 time=0\n",
      "aftertouch channel=14 value=13 time=10\n",
      "aftertouch channel=14 value=0 time=5\n",
      "control_change channel=14 control=64 value=127 time=18\n",
      "note_on channel=14 note=44 velocity=109 time=32\n",
      "control_change channel=14 control=64 value=127 time=50\n",
      "note_on channel=14 note=75 velocity=0 time=8\n",
      "note_on channel=14 note=87 velocity=0 time=3\n",
      "note_on channel=14 note=49 velocity=126 time=8\n",
      "note_on channel=14 note=44 velocity=0 time=12\n",
      "note_on channel=14 note=75 velocity=0 time=22\n",
      "note_on channel=14 note=49 velocity=0 time=14\n",
      "note_on channel=14 note=87 velocity=0 time=14\n",
      "note_on channel=14 note=44 velocity=116 time=32\n",
      "control_change channel=14 control=64 value=0 time=24\n",
      "note_on channel=14 note=44 velocity=0 time=11\n",
      "note_on channel=14 note=73 velocity=127 time=0\n",
      "note_on channel=14 note=85 velocity=127 time=3\n",
      "note_on channel=14 note=49 velocity=127 time=0\n",
      "note_on channel=14 note=73 velocity=0 time=17\n",
      "note_on channel=14 note=85 velocity=0 time=13\n",
      "control_change channel=14 control=64 value=127 time=7\n",
      "note_on channel=14 note=49 velocity=0 time=15\n",
      "note_on channel=14 note=44 velocity=122 time=6\n",
      "control_change channel=14 control=64 value=0 time=31\n",
      "note_on channel=14 note=84 velocity=127 time=36\n",
      "note_on channel=14 note=72 velocity=127 time=2\n",
      "note_on channel=14 note=49 velocity=127 time=5\n",
      "note_on channel=14 note=37 velocity=0 time=3\n",
      "note_on channel=14 note=44 velocity=0 time=3\n",
      "note_on channel=14 note=84 velocity=0 time=8\n",
      "note_on channel=14 note=72 velocity=0 time=1\n",
      "note_on channel=14 note=49 velocity=0 time=28\n",
      "note_on channel=14 note=72 velocity=127 time=2\n",
      "note_on channel=14 note=84 velocity=127 time=0\n",
      "note_on channel=14 note=44 velocity=112 time=13\n",
      "note_on channel=14 note=72 velocity=0 time=6\n",
      "note_on channel=14 note=70 velocity=127 time=0\n",
      "note_on channel=14 note=84 velocity=0 time=1\n",
      "note_on channel=14 note=70 velocity=0 time=26\n",
      "note_on channel=14 note=44 velocity=0 time=10\n"
     ]
    },
    {
     "name": "stdout",
     "output_type": "stream",
     "text": [
      "control_change channel=14 control=64 value=0 time=22\n",
      "note_on channel=14 note=82 velocity=127 time=3\n",
      "note_on channel=14 note=70 velocity=127 time=1\n",
      "note_on channel=14 note=39 velocity=115 time=1\n",
      "note_on channel=14 note=70 velocity=127 time=1\n",
      "note_on channel=14 note=82 velocity=127 time=1\n",
      "control_change channel=14 control=64 value=127 time=36\n",
      "note_on channel=14 note=46 velocity=70 time=95\n",
      "note_on channel=14 note=70 velocity=0 time=27\n",
      "control_change channel=14 control=64 value=127 time=11\n",
      "note_on channel=14 note=82 velocity=0 time=24\n",
      "note_on channel=14 note=51 velocity=124 time=2\n",
      "note_on channel=14 note=46 velocity=0 time=1\n",
      "note_on channel=14 note=70 velocity=0 time=24\n",
      "note_on channel=14 note=51 velocity=0 time=18\n",
      "note_on channel=14 note=82 velocity=0 time=6\n",
      "note_on channel=14 note=72 velocity=127 time=17\n",
      "note_on channel=14 note=84 velocity=127 time=0\n",
      "note_on channel=14 note=46 velocity=115 time=3\n",
      "control_change channel=14 control=64 value=0 time=6\n",
      "note_on channel=14 note=72 velocity=0 time=31\n",
      "note_on channel=14 note=84 velocity=0 time=12\n",
      "note_on channel=14 note=51 velocity=124 time=8\n",
      "note_on channel=14 note=46 velocity=0 time=12\n",
      "note_on channel=14 note=51 velocity=0 time=49\n",
      "note_on channel=14 note=46 velocity=118 time=3\n",
      "note_on channel=14 note=39 velocity=0 time=12\n",
      "note_on channel=14 note=85 velocity=127 time=13\n",
      "note_on channel=14 note=51 velocity=127 time=30\n",
      "note_on channel=14 note=46 velocity=0 time=5\n",
      "note_on channel=14 note=85 velocity=0 time=1\n",
      "note_on channel=14 note=51 velocity=0 time=17\n",
      "note_on channel=14 note=72 velocity=127 time=49\n",
      "note_on channel=14 note=84 velocity=127 time=0\n",
      "note_on channel=14 note=41 velocity=120 time=5\n",
      "note_on channel=14 note=84 velocity=127 time=4\n",
      "note_on channel=14 note=72 velocity=127 time=1\n",
      "control_change channel=14 control=64 value=0 time=2\n",
      "control_change channel=14 control=64 value=127 time=43\n",
      "note_on channel=14 note=48 velocity=112 time=17\n",
      "control_change channel=14 control=64 value=127 time=22\n",
      "note_on channel=14 note=72 velocity=0 time=23\n",
      "note_on channel=14 note=48 velocity=0 time=19\n",
      "note_on channel=14 note=72 velocity=0 time=3\n",
      "note_on channel=14 note=84 velocity=0 time=5\n",
      "note_on channel=14 note=53 velocity=103 time=4\n",
      "note_on channel=14 note=84 velocity=0 time=1\n",
      "note_on channel=14 note=53 velocity=0 time=33\n",
      "note_on channel=14 note=48 velocity=115 time=19\n",
      "control_change channel=14 control=7 value=53 time=5\n",
      "control_change channel=14 control=64 value=0 time=40\n",
      "note_on channel=14 note=70 velocity=127 time=17\n",
      "note_on channel=14 note=82 velocity=127 time=0\n",
      "note_on channel=14 note=48 velocity=0 time=2\n",
      "note_on channel=14 note=70 velocity=127 time=3\n",
      "note_on channel=14 note=82 velocity=127 time=0\n",
      "note_on channel=14 note=53 velocity=127 time=3\n",
      "note_on channel=14 note=70 velocity=0 time=15\n",
      "note_on channel=14 note=82 velocity=0 time=8\n",
      "control_change channel=14 control=64 value=127 time=10\n",
      "note_on channel=14 note=53 velocity=0 time=15\n",
      "note_on channel=14 note=48 velocity=112 time=10\n",
      "note_on channel=14 note=41 velocity=0 time=37\n",
      "note_on channel=14 note=68 velocity=127 time=31\n",
      "note_on channel=14 note=53 velocity=127 time=1\n",
      "note_on channel=14 note=48 velocity=0 time=1\n",
      "note_on channel=14 note=70 velocity=0 time=1\n",
      "note_on channel=14 note=82 velocity=0 time=15\n",
      "note_on channel=14 note=68 velocity=0 time=1\n",
      "note_on channel=14 note=53 velocity=0 time=18\n",
      "note_on channel=14 note=68 velocity=127 time=35\n",
      "control_change channel=14 control=64 value=0 time=11\n",
      "note_on channel=14 note=68 velocity=0 time=3\n",
      "control_change channel=14 control=64 value=0 time=38\n",
      "note_on channel=14 note=67 velocity=127 time=5\n",
      "note_on channel=14 note=79 velocity=127 time=0\n",
      "note_on channel=14 note=39 velocity=120 time=3\n",
      "control_change channel=14 control=64 value=127 time=32\n",
      "note_on channel=14 note=46 velocity=81 time=43\n",
      "aftertouch channel=14 value=3 time=8\n",
      "note_on channel=14 note=46 velocity=0 time=3\n",
      "aftertouch channel=14 value=6 time=1\n",
      "control_change channel=14 control=64 value=127 time=5\n",
      "aftertouch channel=14 value=4 time=3\n",
      "aftertouch channel=14 value=3 time=9\n",
      "aftertouch channel=14 value=0 time=3\n",
      "note_on channel=14 note=46 velocity=111 time=24\n",
      "note_on channel=14 note=67 velocity=0 time=54\n",
      "note_on channel=14 note=79 velocity=0 time=10\n",
      "note_on channel=14 note=46 velocity=0 time=55\n",
      "note_on channel=14 note=51 velocity=124 time=5\n",
      "note_on channel=14 note=80 velocity=127 time=0\n",
      "note_on channel=14 note=68 velocity=127 time=0\n",
      "control_change channel=14 control=64 value=0 time=7\n",
      "note_on channel=14 note=80 velocity=127 time=1\n",
      "note_on channel=14 note=68 velocity=127 time=1\n",
      "note_on channel=14 note=51 velocity=0 time=42\n",
      "note_on channel=14 note=68 velocity=0 time=8\n",
      "note_on channel=14 note=80 velocity=0 time=9\n",
      "note_on channel=14 note=46 velocity=101 time=1\n",
      "control_change channel=14 control=64 value=127 time=10\n",
      "note_on channel=14 note=79 velocity=127 time=42\n",
      "note_on channel=14 note=68 velocity=0 time=1\n",
      "note_on channel=14 note=67 velocity=127 time=0\n",
      "note_on channel=14 note=80 velocity=0 time=13\n",
      "note_on channel=14 note=46 velocity=0 time=17\n",
      "note_on channel=14 note=51 velocity=127 time=26\n",
      "note_on channel=14 note=67 velocity=127 time=6\n",
      "control_change channel=14 control=64 value=0 time=1\n",
      "note_on channel=14 note=39 velocity=0 time=4\n",
      "note_on channel=14 note=67 velocity=0 time=10\n",
      "note_on channel=14 note=51 velocity=0 time=7\n",
      "note_on channel=14 note=67 velocity=0 time=0\n",
      "note_on channel=14 note=79 velocity=0 time=5\n",
      "control_change channel=14 control=7 value=54 time=11\n",
      "control_change channel=14 control=64 value=0 time=24\n",
      "note_on channel=14 note=79 velocity=127 time=4\n",
      "note_on channel=14 note=37 velocity=118 time=0\n",
      "note_on channel=14 note=67 velocity=127 time=1\n",
      "note_on channel=14 note=79 velocity=127 time=3\n",
      "note_on channel=14 note=67 velocity=127 time=0\n",
      "control_change channel=14 control=64 value=127 time=28\n",
      "control_change channel=14 control=64 value=127 time=7\n",
      "note_on channel=14 note=67 velocity=0 time=24\n",
      "note_on channel=14 note=67 velocity=0 time=5\n",
      "note_on channel=14 note=79 velocity=0 time=5\n",
      "note_on channel=14 note=44 velocity=116 time=1\n",
      "note_on channel=14 note=79 velocity=0 time=11\n",
      "note_on channel=14 note=39 velocity=0 time=13\n",
      "note_on channel=14 note=27 velocity=0 time=14\n",
      "note_on channel=14 note=68 velocity=127 time=20\n",
      "note_on channel=14 note=80 velocity=127 time=0\n",
      "control_change channel=14 control=64 value=0 time=3\n",
      "note_on channel=14 note=68 velocity=127 time=0\n",
      "note_on channel=14 note=80 velocity=127 time=0\n",
      "note_on channel=14 note=68 velocity=0 time=78\n",
      "note_on channel=14 note=80 velocity=0 time=45\n",
      "note_on channel=14 note=49 velocity=127 time=13\n",
      "note_on channel=14 note=44 velocity=0 time=18\n",
      "note_on channel=14 note=68 velocity=0 time=6\n",
      "note_on channel=14 note=49 velocity=0 time=28\n",
      "note_on channel=14 note=37 velocity=0 time=32\n",
      "note_on channel=14 note=70 velocity=127 time=45\n",
      "note_on channel=14 note=82 velocity=127 time=2\n",
      "note_on channel=14 note=70 velocity=0 time=26\n",
      "note_on channel=14 note=82 velocity=0 time=14\n",
      "control_change channel=14 control=64 value=0 time=71\n",
      "note_on channel=14 note=80 velocity=0 time=14\n",
      "aftertouch channel=14 value=18 time=15\n",
      "aftertouch channel=14 value=0 time=4\n",
      "control_change channel=14 control=64 value=127 time=6\n",
      "note_on channel=14 note=39 velocity=127 time=2\n",
      "note_on channel=14 note=72 velocity=127 time=0\n",
      "note_on channel=14 note=27 velocity=127 time=0\n",
      "note_on channel=14 note=84 velocity=127 time=0\n",
      "note_on channel=14 note=84 velocity=0 time=7\n",
      "note_on channel=14 note=72 velocity=0 time=7\n",
      "note_on channel=14 note=39 velocity=0 time=72\n",
      "note_on channel=14 note=27 velocity=0 time=4\n",
      "note_on channel=14 note=27 velocity=91 time=320\n",
      "note_on channel=14 note=39 velocity=93 time=25\n",
      "note_on channel=14 note=70 velocity=116 time=4\n",
      "note_on channel=14 note=82 velocity=124 time=41\n",
      "note_on channel=14 note=39 velocity=0 time=43\n",
      "note_on channel=14 note=27 velocity=0 time=60\n",
      "note_on channel=14 note=70 velocity=0 time=5\n",
      "note_on channel=14 note=82 velocity=0 time=0\n",
      "note_on channel=14 note=80 velocity=100 time=290\n",
      "note_on channel=14 note=80 velocity=0 time=45\n",
      "control_change channel=14 control=64 value=0 time=27\n",
      "note_on channel=14 note=68 velocity=96 time=10\n",
      "note_on channel=14 note=80 velocity=89 time=0\n",
      "note_on channel=14 note=41 velocity=91 time=0\n",
      "control_change channel=14 control=64 value=127 time=31\n",
      "note_on channel=14 note=80 velocity=0 time=19\n",
      "note_on channel=14 note=68 velocity=0 time=17\n",
      "note_on channel=14 note=53 velocity=94 time=64\n",
      "note_on channel=14 note=60 velocity=99 time=62\n",
      "note_on channel=14 note=60 velocity=0 time=43\n",
      "note_on channel=14 note=53 velocity=0 time=20\n",
      "note_on channel=14 note=65 velocity=118 time=7\n",
      "note_on channel=14 note=65 velocity=0 time=11\n",
      "note_on channel=14 note=41 velocity=0 time=119\n",
      "note_on channel=14 note=53 velocity=94 time=5\n",
      "note_on channel=14 note=53 velocity=0 time=57\n",
      "note_on channel=14 note=68 velocity=98 time=25\n",
      "note_on channel=14 note=80 velocity=81 time=5\n",
      "note_on channel=14 note=80 velocity=0 time=11\n",
      "note_on channel=14 note=68 velocity=0 time=2\n",
      "control_change channel=14 control=64 value=0 time=32\n",
      "note_on channel=14 note=82 velocity=105 time=6\n",
      "note_on channel=14 note=39 velocity=103 time=2\n",
      "note_on channel=14 note=70 velocity=106 time=3\n",
      "control_change channel=14 control=64 value=127 time=39\n",
      "note_on channel=14 note=51 velocity=101 time=24\n",
      "control_change channel=14 control=7 value=56 time=5\n",
      "note_on channel=14 note=70 velocity=0 time=24\n",
      "note_on channel=14 note=82 velocity=0 time=52\n",
      "note_on channel=14 note=70 velocity=103 time=65\n",
      "note_on channel=14 note=70 velocity=0 time=37\n",
      "note_on channel=14 note=82 velocity=105 time=36\n",
      "note_on channel=14 note=70 velocity=95 time=1\n",
      "note_on channel=14 note=70 velocity=0 time=24\n",
      "note_on channel=14 note=51 velocity=0 time=6\n",
      "note_on channel=14 note=82 velocity=0 time=12\n",
      "note_on channel=14 note=39 velocity=0 time=73\n",
      "note_on channel=14 note=51 velocity=100 time=21\n",
      "note_on channel=14 note=51 velocity=0 time=29\n",
      "note_on channel=14 note=87 velocity=124 time=29\n",
      "note_on channel=14 note=87 velocity=0 time=28\n",
      "control_change channel=14 control=64 value=0 time=32\n",
      "note_on channel=14 note=87 velocity=115 time=3\n",
      "note_on channel=14 note=49 velocity=88 time=2\n",
      "note_on channel=14 note=75 velocity=111 time=3\n",
      "control_change channel=14 control=64 value=127 time=37\n",
      "note_on channel=14 note=56 velocity=94 time=30\n",
      "note_on channel=14 note=75 velocity=0 time=16\n",
      "note_on channel=14 note=87 velocity=0 time=35\n",
      "note_on channel=14 note=61 velocity=108 time=14\n",
      "note_on channel=14 note=75 velocity=102 time=65\n",
      "note_on channel=14 note=75 velocity=0 time=42\n",
      "note_on channel=14 note=61 velocity=0 time=24\n",
      "note_on channel=14 note=87 velocity=104 time=6\n",
      "note_on channel=14 note=75 velocity=91 time=2\n",
      "note_on channel=14 note=49 velocity=0 time=110\n",
      "note_on channel=14 note=56 velocity=0 time=43\n",
      "note_on channel=14 note=49 velocity=94 time=113\n",
      "note_on channel=14 note=75 velocity=0 time=63\n",
      "note_on channel=14 note=87 velocity=0 time=5\n",
      "note_on channel=14 note=56 velocity=87 time=9\n",
      "note_on channel=14 note=61 velocity=91 time=65\n",
      "note_on channel=14 note=61 velocity=0 time=87\n",
      "note_on channel=14 note=65 velocity=75 time=68\n",
      "note_on channel=14 note=49 velocity=0 time=66\n",
      "note_on channel=14 note=61 velocity=91 time=37\n",
      "note_on channel=14 note=56 velocity=0 time=14\n",
      "note_on channel=14 note=61 velocity=0 time=14\n",
      "note_on channel=14 note=68 velocity=98 time=45\n",
      "note_on channel=14 note=65 velocity=0 time=3\n",
      "note_on channel=14 note=68 velocity=0 time=24\n",
      "control_change channel=14 control=64 value=0 time=27\n",
      "note_on channel=14 note=53 velocity=104 time=9\n",
      "note_on channel=14 note=68 velocity=98 time=4\n",
      "control_change channel=14 control=64 value=127 time=33\n",
      "note_on channel=14 note=60 velocity=101 time=30\n",
      "control_change channel=14 control=7 value=55 time=55\n",
      "note_on channel=14 note=65 velocity=104 time=20\n",
      "note_on channel=14 note=65 velocity=0 time=15\n",
      "note_on channel=14 note=68 velocity=0 time=1\n",
      "note_on channel=14 note=65 velocity=94 time=43\n",
      "note_on channel=14 note=65 velocity=0 time=39\n",
      "note_on channel=14 note=68 velocity=112 time=38\n",
      "note_on channel=14 note=65 velocity=99 time=3\n",
      "note_on channel=14 note=65 velocity=0 time=37\n",
      "note_on channel=14 note=60 velocity=0 time=23\n",
      "note_on channel=14 note=53 velocity=0 time=52\n",
      "note_on channel=14 note=68 velocity=0 time=9\n",
      "note_on channel=14 note=65 velocity=99 time=15\n",
      "note_on channel=14 note=70 velocity=105 time=54\n",
      "note_on channel=14 note=65 velocity=0 time=18\n",
      "note_on channel=14 note=70 velocity=0 time=5\n",
      "control_change channel=14 control=64 value=0 time=38\n",
      "note_on channel=14 note=51 velocity=111 time=2\n",
      "note_on channel=14 note=70 velocity=90 time=4\n",
      "note_on channel=14 note=65 velocity=103 time=1\n",
      "control_change channel=14 control=64 value=127 time=38\n",
      "note_on channel=14 note=58 velocity=94 time=34\n",
      "note_on channel=14 note=65 velocity=0 time=13\n",
      "note_on channel=14 note=63 velocity=103 time=45\n",
      "note_on channel=14 note=70 velocity=0 time=2\n",
      "note_on channel=14 note=63 velocity=0 time=72\n",
      "control_change channel=14 control=7 value=54 time=0\n",
      "control_change channel=14 control=7 value=52 time=18\n",
      "note_on channel=14 note=70 velocity=115 time=53\n",
      "note_on channel=14 note=70 velocity=0 time=41\n",
      "note_on channel=14 note=63 velocity=97 time=88\n",
      "note_on channel=14 note=51 velocity=0 time=11\n",
      "note_on channel=14 note=63 velocity=0 time=5\n",
      "note_on channel=14 note=58 velocity=0 time=6\n",
      "control_change channel=14 control=7 value=53 time=35\n",
      "note_on channel=14 note=70 velocity=106 time=2\n",
      "note_on channel=14 note=77 velocity=122 time=29\n",
      "note_on channel=14 note=70 velocity=0 time=3\n",
      "control_change channel=14 control=7 value=54 time=0\n",
      "note_on channel=14 note=77 velocity=0 time=7\n",
      "note_on channel=14 note=49 velocity=115 time=26\n",
      "note_on channel=14 note=77 velocity=127 time=4\n",
      "control_change channel=14 control=7 value=56 time=1\n",
      "control_change channel=14 control=64 value=0 time=0\n",
      "control_change channel=14 control=64 value=127 time=42\n",
      "note_on channel=14 note=56 velocity=91 time=28\n",
      "control_change channel=14 control=7 value=57 time=45\n",
      "note_on channel=14 note=61 velocity=98 time=18\n",
      "note_on channel=14 note=56 velocity=0 time=17\n",
      "control_change channel=14 control=7 value=58 time=6\n",
      "note_on channel=14 note=61 velocity=0 time=41\n",
      "control_change channel=14 control=7 value=59 time=0\n",
      "note_on channel=14 note=77 velocity=0 time=8\n",
      "note_on channel=14 note=56 velocity=97 time=1\n",
      "note_on channel=14 note=61 velocity=111 time=62\n",
      "note_on channel=14 note=61 velocity=0 time=34\n",
      "control_change channel=14 control=7 value=60 time=12\n",
      "note_on channel=14 note=56 velocity=0 time=18\n",
      "control_change channel=14 control=7 value=61 time=10\n",
      "note_on channel=14 note=61 velocity=98 time=67\n",
      "note_on channel=14 note=49 velocity=0 time=56\n",
      "note_on channel=14 note=56 velocity=103 time=4\n",
      "control_change channel=14 control=7 value=64 time=6\n",
      "note_on channel=14 note=49 velocity=106 time=65\n",
      "note_on channel=14 note=56 velocity=0 time=4\n",
      "note_on channel=14 note=49 velocity=0 time=103\n",
      "control_change channel=14 control=7 value=65 time=0\n",
      "note_on channel=14 note=61 velocity=0 time=13\n",
      "control_change channel=14 control=7 value=66 time=0\n",
      "control_change channel=14 control=7 value=68 time=10\n",
      "note_on channel=14 note=53 velocity=98 time=0\n",
      "control_change channel=14 control=7 value=70 time=25\n",
      "control_change channel=14 control=7 value=71 time=10\n",
      "note_on channel=14 note=56 velocity=106 time=26\n",
      "control_change channel=14 control=7 value=72 time=10\n",
      "control_change channel=14 control=7 value=73 time=113\n",
      "note_on channel=14 note=44 velocity=105 time=0\n",
      "note_on channel=14 note=44 velocity=0 time=63\n",
      "note_on channel=14 note=37 velocity=106 time=3\n",
      "note_on channel=14 note=56 velocity=0 time=10\n",
      "note_on channel=14 note=37 velocity=0 time=7\n",
      "note_on channel=14 note=41 velocity=94 time=113\n",
      "note_on channel=14 note=56 velocity=98 time=4\n",
      "control_change channel=14 control=64 value=0 time=5\n",
      "control_change channel=14 control=64 value=127 time=57\n",
      "note_on channel=14 note=48 velocity=98 time=3\n",
      "control_change channel=14 control=7 value=71 time=16\n",
      "note_on channel=14 note=53 velocity=105 time=52\n",
      "note_on channel=14 note=56 velocity=0 time=12\n",
      "note_on channel=14 note=53 velocity=0 time=11\n",
      "control_change channel=14 control=7 value=70 time=5\n",
      "note_on channel=14 note=53 velocity=89 time=30\n",
      "control_change channel=14 control=7 value=69 time=20\n",
      "note_on channel=14 note=53 velocity=0 time=18\n",
      "note_on channel=14 note=53 velocity=127 time=38\n",
      "note_on channel=14 note=56 velocity=124 time=1\n",
      "note_on channel=14 note=48 velocity=0 time=22\n",
      "control_change channel=14 control=7 value=68 time=28\n",
      "note_on channel=14 note=53 velocity=0 time=40\n",
      "control_change channel=14 control=7 value=67 time=6\n",
      "note_on channel=14 note=41 velocity=0 time=18\n",
      "note_on channel=14 note=48 velocity=115 time=18\n",
      "note_on channel=14 note=48 velocity=0 time=11\n",
      "control_change channel=14 control=7 value=66 time=25\n",
      "note_on channel=14 note=56 velocity=0 time=17\n",
      "note_on channel=14 note=53 velocity=116 time=5\n",
      "note_on channel=14 note=53 velocity=0 time=27\n",
      "note_on channel=14 note=58 velocity=115 time=0\n",
      "note_on channel=14 note=58 velocity=0 time=19\n",
      "control_change channel=14 control=64 value=0 time=20\n",
      "note_on channel=14 note=39 velocity=118 time=3\n",
      "note_on channel=14 note=53 velocity=127 time=1\n",
      "note_on channel=14 note=58 velocity=127 time=1\n",
      "control_change channel=14 control=7 value=64 time=35\n",
      "control_change channel=14 control=64 value=127 time=10\n",
      "note_on channel=14 note=46 velocity=95 time=29\n",
      "note_on channel=14 note=53 velocity=0 time=21\n",
      "note_on channel=14 note=51 velocity=118 time=41\n",
      "control_change channel=14 control=7 value=63 time=5\n",
      "note_on channel=14 note=58 velocity=0 time=14\n",
      "note_on channel=14 note=55 velocity=112 time=49\n",
      "note_on channel=14 note=55 velocity=0 time=17\n",
      "note_on channel=14 note=58 velocity=116 time=51\n",
      "note_on channel=14 note=51 velocity=0 time=2\n",
      "control_change channel=14 control=7 value=62 time=10\n",
      "note_on channel=14 note=58 velocity=0 time=51\n",
      "note_on channel=14 note=51 velocity=108 time=64\n",
      "note_on channel=14 note=46 velocity=0 time=13\n",
      "note_on channel=14 note=39 velocity=0 time=14\n",
      "note_on channel=14 note=51 velocity=0 time=1\n",
      "note_on channel=14 note=68 velocity=89 time=39\n",
      "note_on channel=14 note=68 velocity=0 time=10\n",
      "control_change channel=14 control=64 value=0 time=53\n",
      "note_on channel=14 note=37 velocity=92 time=1\n",
      "note_on channel=14 note=68 velocity=120 time=2\n",
      "control_change channel=14 control=7 value=61 time=16\n",
      "control_change channel=14 control=7 value=59 time=5\n",
      "control_change channel=14 control=64 value=127 time=26\n",
      "note_on channel=14 note=44 velocity=97 time=20\n",
      "note_on channel=14 note=68 velocity=0 time=23\n",
      "note_on channel=14 note=49 velocity=95 time=48\n",
      "note_on channel=14 note=53 velocity=101 time=62\n",
      "note_on channel=14 note=49 velocity=0 time=37\n",
      "note_on channel=14 note=56 velocity=95 time=33\n",
      "note_on channel=14 note=53 velocity=0 time=6\n",
      "note_on channel=14 note=56 velocity=0 time=49\n",
      "note_on channel=14 note=68 velocity=101 time=203\n",
      "note_on channel=14 note=68 velocity=0 time=442\n",
      "note_on channel=14 note=70 velocity=87 time=154\n",
      "note_on channel=14 note=37 velocity=0 time=149\n",
      "note_on channel=14 note=44 velocity=0 time=17\n",
      "control_change channel=14 control=7 value=60 time=150\n",
      "note_on channel=14 note=70 velocity=0 time=153\n",
      "note_on channel=14 note=56 velocity=83 time=46\n",
      "control_change channel=14 control=64 value=0 time=8\n",
      "note_on channel=14 note=68 velocity=91 time=2\n",
      "control_change channel=14 control=7 value=59 time=10\n",
      "control_change channel=14 control=64 value=127 time=38\n",
      "note_on channel=14 note=63 velocity=94 time=23\n",
      "note_on channel=14 note=68 velocity=0 time=3\n",
      "control_change channel=14 control=7 value=57 time=27\n",
      "note_on channel=14 note=63 velocity=0 time=34\n",
      "control_change channel=14 control=7 value=56 time=8\n",
      "note_on channel=14 note=68 velocity=85 time=0\n",
      "note_on channel=14 note=68 velocity=0 time=52\n",
      "note_on channel=14 note=63 velocity=88 time=10\n",
      "control_change channel=14 control=7 value=55 time=5\n",
      "control_change channel=14 control=7 value=54 time=35\n",
      "note_on channel=14 note=63 velocity=0 time=16\n",
      "note_on channel=14 note=68 velocity=86 time=18\n",
      "note_on channel=14 note=63 velocity=85 time=60\n",
      "note_on channel=14 note=68 velocity=0 time=1\n",
      "control_change channel=14 control=7 value=52 time=36\n",
      "note_on channel=14 note=63 velocity=0 time=12\n",
      "note_on channel=14 note=68 velocity=96 time=15\n",
      "control_change channel=14 control=7 value=50 time=15\n",
      "note_on channel=14 note=63 velocity=99 time=53\n",
      "note_on channel=14 note=68 velocity=0 time=3\n",
      "control_change channel=14 control=7 value=49 time=0\n",
      "note_on channel=14 note=56 velocity=0 time=29\n",
      "note_on channel=14 note=63 velocity=0 time=28\n",
      "note_on channel=14 note=58 velocity=97 time=6\n",
      "note_on channel=14 note=63 velocity=97 time=71\n",
      "note_on channel=14 note=63 velocity=0 time=53\n",
      "note_on channel=14 note=67 velocity=91 time=24\n",
      "control_change channel=14 control=7 value=48 time=35\n",
      "note_on channel=14 note=67 velocity=0 time=4\n",
      "note_on channel=14 note=63 velocity=97 time=12\n",
      "note_on channel=14 note=63 velocity=0 time=55\n",
      "note_on channel=14 note=67 velocity=88 time=19\n",
      "control_change channel=14 control=7 value=47 time=10\n",
      "note_on channel=14 note=67 velocity=0 time=40\n",
      "control_change channel=14 control=7 value=45 time=10\n",
      "note_on channel=14 note=63 velocity=92 time=5\n",
      "note_on channel=14 note=58 velocity=0 time=43\n",
      "note_on channel=14 note=63 velocity=0 time=8\n",
      "note_on channel=14 note=67 velocity=102 time=5\n",
      "control_change channel=14 control=7 value=43 time=50\n",
      "note_on channel=14 note=67 velocity=0 time=10\n",
      "note_on channel=14 note=63 velocity=91 time=11\n",
      "control_change channel=14 control=7 value=42 time=10\n",
      "note_on channel=14 note=63 velocity=0 time=43\n",
      "note_on channel=14 note=56 velocity=103 time=13\n",
      "note_on channel=14 note=63 velocity=94 time=64\n",
      "note_on channel=14 note=63 velocity=0 time=64\n",
      "note_on channel=14 note=68 velocity=84 time=12\n",
      "note_on channel=14 note=68 velocity=0 time=55\n",
      "note_on channel=14 note=63 velocity=92 time=6\n",
      "note_on channel=14 note=63 velocity=0 time=49\n",
      "note_on channel=14 note=68 velocity=98 time=13\n",
      "note_on channel=14 note=68 velocity=0 time=54\n",
      "note_on channel=14 note=63 velocity=87 time=11\n",
      "note_on channel=14 note=63 velocity=0 time=59\n",
      "note_on channel=14 note=68 velocity=89 time=3\n",
      "note_on channel=14 note=68 velocity=0 time=37\n",
      "note_on channel=14 note=56 velocity=0 time=55\n",
      "note_on channel=14 note=58 velocity=97 time=44\n",
      "control_change channel=14 control=7 value=43 time=41\n",
      "note_on channel=14 note=63 velocity=91 time=21\n",
      "note_on channel=14 note=75 velocity=94 time=73\n",
      "control_change channel=14 control=7 value=44 time=10\n",
      "control_change channel=14 control=7 value=45 time=15\n",
      "note_on channel=14 note=75 velocity=0 time=25\n",
      "note_on channel=14 note=80 velocity=122 time=17\n",
      "note_on channel=14 note=63 velocity=0 time=4\n",
      "note_on channel=14 note=67 velocity=77 time=6\n",
      "note_on channel=14 note=67 velocity=0 time=22\n",
      "note_on channel=14 note=63 velocity=94 time=30\n",
      "note_on channel=14 note=80 velocity=0 time=4\n",
      "note_on channel=14 note=80 velocity=113 time=66\n",
      "note_on channel=14 note=63 velocity=0 time=15\n",
      "note_on channel=14 note=58 velocity=0 time=65\n",
      "note_on channel=14 note=63 velocity=94 time=4\n",
      "note_on channel=14 note=80 velocity=0 time=36\n",
      "note_on channel=14 note=75 velocity=100 time=18\n",
      "note_on channel=14 note=75 velocity=0 time=47\n",
      "note_on channel=14 note=63 velocity=0 time=7\n",
      "note_on channel=14 note=56 velocity=98 time=12\n",
      "note_on channel=14 note=68 velocity=108 time=0\n",
      "control_change channel=14 control=64 value=0 time=4\n",
      "control_change channel=14 control=64 value=127 time=40\n",
      "note_on channel=14 note=63 velocity=101 time=23\n",
      "note_on channel=14 note=68 velocity=0 time=8\n",
      "note_on channel=14 note=63 velocity=0 time=49\n",
      "note_on channel=14 note=68 velocity=77 time=18\n",
      "note_on channel=14 note=68 velocity=0 time=37\n",
      "note_on channel=14 note=63 velocity=105 time=16\n",
      "note_on channel=14 note=63 velocity=0 time=44\n",
      "note_on channel=14 note=68 velocity=88 time=24\n",
      "note_on channel=14 note=68 velocity=0 time=56\n",
      "note_on channel=14 note=63 velocity=98 time=3\n",
      "note_on channel=14 note=63 velocity=0 time=43\n",
      "note_on channel=14 note=68 velocity=87 time=33\n",
      "note_on channel=14 note=56 velocity=0 time=61\n",
      "note_on channel=14 note=63 velocity=98 time=14\n",
      "note_on channel=14 note=63 velocity=0 time=56\n",
      "note_on channel=14 note=58 velocity=104 time=6\n",
      "note_on channel=14 note=63 velocity=101 time=56\n",
      "note_on channel=14 note=68 velocity=0 time=6\n",
      "control_change channel=14 control=7 value=49 time=15\n",
      "note_on channel=14 note=63 velocity=0 time=22\n",
      "note_on channel=14 note=68 velocity=88 time=27\n",
      "note_on channel=14 note=63 velocity=86 time=68\n",
      "control_change channel=14 control=7 value=50 time=3\n",
      "control_change channel=14 control=7 value=51 time=5\n",
      "note_on channel=14 note=63 velocity=0 time=42\n",
      "note_on channel=14 note=80 velocity=105 time=17\n",
      "note_on channel=14 note=63 velocity=93 time=63\n",
      "note_on channel=14 note=68 velocity=0 time=20\n",
      "note_on channel=14 note=63 velocity=0 time=8\n",
      "control_change channel=14 control=7 value=50 time=25\n",
      "note_on channel=14 note=58 velocity=0 time=56\n",
      "note_on channel=14 note=80 velocity=0 time=1\n",
      "note_on channel=14 note=68 velocity=99 time=40\n",
      "note_on channel=14 note=68 velocity=0 time=23\n",
      "note_on channel=14 note=56 velocity=98 time=41\n",
      "control_change channel=14 control=64 value=0 time=3\n",
      "note_on channel=14 note=68 velocity=101 time=0\n",
      "control_change channel=14 control=64 value=127 time=41\n",
      "note_on channel=14 note=63 velocity=96 time=27\n",
      "note_on channel=14 note=68 velocity=0 time=10\n",
      "note_on channel=14 note=68 velocity=95 time=58\n",
      "note_on channel=14 note=63 velocity=0 time=2\n",
      "note_on channel=14 note=68 velocity=0 time=39\n",
      "note_on channel=14 note=63 velocity=90 time=26\n",
      "note_on channel=14 note=63 velocity=0 time=32\n",
      "note_on channel=14 note=63 velocity=93 time=49\n",
      "note_on channel=14 note=87 velocity=77 time=164\n",
      "note_on channel=14 note=63 velocity=0 time=7\n",
      "note_on channel=14 note=56 velocity=0 time=28\n",
      "note_on channel=14 note=87 velocity=0 time=27\n",
      "note_on channel=14 note=92 velocity=91 time=12\n",
      "note_on channel=14 note=92 velocity=0 time=18\n",
      "note_on channel=14 note=58 velocity=83 time=57\n",
      "note_on channel=14 note=92 velocity=103 time=9\n",
      "note_on channel=14 note=61 velocity=91 time=73\n",
      "note_on channel=14 note=61 velocity=0 time=78\n",
      "note_on channel=14 note=65 velocity=70 time=28\n",
      "note_on channel=14 note=58 velocity=0 time=15\n",
      "note_on channel=14 note=65 velocity=0 time=35\n",
      "note_on channel=14 note=61 velocity=85 time=54\n",
      "note_on channel=14 note=92 velocity=0 time=37\n",
      "note_on channel=14 note=61 velocity=0 time=179\n",
      "control_change channel=14 control=7 value=49 time=323\n",
      "control_change channel=14 control=7 value=48 time=55\n",
      "control_change channel=14 control=7 value=47 time=170\n",
      "control_change channel=14 control=0 value=0 time=300\n",
      "control_change channel=14 control=0 value=0 time=0\n",
      "control_change channel=14 control=0 value=0 time=0\n",
      "control_change channel=14 control=0 value=0 time=0\n",
      "control_change channel=14 control=0 value=0 time=0\n",
      "control_change channel=14 control=0 value=0 time=0\n",
      "control_change channel=14 control=0 value=0 time=0\n",
      "program_change channel=14 program=0 time=0\n",
      "note_on channel=14 note=94 velocity=94 time=115\n",
      "control_change channel=14 control=0 value=0 time=89\n",
      "control_change channel=14 control=0 value=0 time=0\n",
      "control_change channel=14 control=0 value=0 time=0\n",
      "control_change channel=14 control=0 value=0 time=0\n",
      "control_change channel=14 control=0 value=0 time=0\n",
      "control_change channel=14 control=0 value=0 time=0\n",
      "control_change channel=14 control=0 value=0 time=0\n",
      "program_change channel=14 program=5 time=0\n",
      "control_change channel=14 control=64 value=127 time=85\n",
      "control_change channel=14 control=7 value=43 time=25\n",
      "control_change channel=14 control=7 value=42 time=5\n",
      "note_on channel=14 note=94 velocity=0 time=93\n",
      "note_on channel=14 note=44 velocity=59 time=462\n",
      "note_on channel=14 note=32 velocity=59 time=17\n",
      "control_change channel=14 control=7 value=41 time=15\n",
      "note_on channel=14 note=68 velocity=71 time=13\n",
      "control_change channel=14 control=64 value=0 time=3\n",
      "note_on channel=14 note=56 velocity=59 time=5\n",
      "control_change channel=14 control=64 value=127 time=72\n",
      "control_change channel=14 control=7 value=40 time=20\n",
      "control_change channel=14 control=7 value=38 time=5\n",
      "note_on channel=14 note=68 velocity=0 time=24\n",
      "control_change channel=14 control=7 value=37 time=5\n",
      "note_on channel=14 note=56 velocity=0 time=8\n",
      "control_change channel=14 control=7 value=36 time=85\n",
      "control_change channel=14 control=7 value=35 time=34\n",
      "note_on channel=14 note=51 velocity=81 time=18\n",
      "control_change channel=14 control=7 value=34 time=74\n",
      "control_change channel=14 control=7 value=33 time=10\n",
      "control_change channel=14 control=7 value=31 time=55\n",
      "note_on channel=14 note=56 velocity=81 time=6\n",
      "note_on channel=14 note=51 velocity=0 time=20\n",
      "control_change channel=14 control=7 value=30 time=5\n",
      "control_change channel=14 control=7 value=29 time=25\n",
      "note_on channel=14 note=56 velocity=0 time=5\n",
      "control_change channel=14 control=7 value=28 time=27\n",
      "control_change channel=14 control=7 value=27 time=39\n",
      "note_on channel=14 note=63 velocity=99 time=11\n",
      "control_change channel=14 control=7 value=26 time=25\n",
      "control_change channel=14 control=7 value=24 time=29\n",
      "control_change channel=14 control=7 value=23 time=15\n",
      "note_on channel=14 note=63 velocity=0 time=8\n",
      "note_on channel=14 note=68 velocity=90 time=13\n",
      "note_on channel=14 note=68 velocity=0 time=20\n",
      "control_change channel=14 control=7 value=22 time=0\n",
      "control_change channel=14 control=7 value=21 time=56\n",
      "control_change channel=14 control=7 value=19 time=18\n",
      "note_on channel=14 note=75 velocity=90 time=0\n",
      "control_change channel=14 control=7 value=17 time=10\n",
      "note_on channel=14 note=75 velocity=0 time=61\n",
      "control_change channel=14 control=7 value=16 time=28\n",
      "note_on channel=14 note=80 velocity=106 time=6\n",
      "note_on channel=14 note=80 velocity=0 time=1\n",
      "note_on channel=14 note=87 velocity=112 time=76\n",
      "control_change channel=14 control=7 value=15 time=72\n",
      "note_on channel=14 note=87 velocity=0 time=29\n",
      "note_on channel=14 note=92 velocity=98 time=15\n",
      "control_change channel=14 control=7 value=14 time=45\n",
      "note_on channel=14 note=92 velocity=0 time=10\n",
      "control_change channel=14 control=7 value=12 time=0\n",
      "control_change channel=14 control=7 value=10 time=80\n",
      "note_on channel=14 note=44 velocity=0 time=111\n",
      "note_on channel=14 note=32 velocity=0 time=15\n",
      "control_change channel=14 control=7 value=9 time=30\n",
      "control_change channel=14 control=7 value=8 time=40\n",
      "control_change channel=14 control=7 value=7 time=20\n",
      "control_change channel=14 control=7 value=5 time=53\n",
      "note_on channel=14 note=63 velocity=87 time=11\n",
      "note_on channel=14 note=44 velocity=59 time=0\n",
      "note_on channel=14 note=68 velocity=79 time=4\n",
      "note_on channel=14 note=32 velocity=59 time=2\n",
      "control_change channel=14 control=7 value=3 time=27\n",
      "note_on channel=14 note=56 velocity=59 time=0\n",
      "control_change channel=14 control=7 value=2 time=55\n",
      "control_change channel=14 control=7 value=1 time=29\n",
      "control_change channel=14 control=7 value=0 time=122\n",
      "note_on channel=14 note=56 velocity=0 time=15\n",
      "note_on channel=14 note=44 velocity=0 time=4\n",
      "note_on channel=14 note=63 velocity=0 time=15\n",
      "note_on channel=14 note=68 velocity=0 time=1\n",
      "note_on channel=14 note=32 velocity=0 time=7\n",
      "note_on channel=14 note=68 velocity=0 time=518\n",
      "note_on channel=14 note=39 velocity=0 time=0\n",
      "note_on channel=14 note=47 velocity=0 time=0\n",
      "note_on channel=14 note=53 velocity=0 time=0\n",
      "note_on channel=14 note=82 velocity=0 time=1\n",
      "note_on channel=14 note=27 velocity=0 time=0\n",
      "note_on channel=14 note=27 velocity=0 time=0\n",
      "note_on channel=14 note=35 velocity=0 time=0\n",
      "MetaMessage('end_of_track', time=0)\n",
      "Track 12: -------------------\n",
      "MetaMessage('midi_port', port=0, time=0)\n",
      "MetaMessage('track_name', name='-------------------', time=0)\n",
      "MetaMessage('end_of_track', time=0)\n",
      "Track 13: Titanic Music\n",
      "MetaMessage('midi_port', port=0, time=0)\n",
      "MetaMessage('track_name', name='Titanic Music', time=0)\n",
      "MetaMessage('end_of_track', time=0)\n",
      "Track 14: Brought To \n",
      "MetaMessage('midi_port', port=0, time=0)\n",
      "MetaMessage('track_name', name='Brought To ', time=0)\n",
      "MetaMessage('end_of_track', time=0)\n",
      "Track 15: you by: TCW\n",
      "MetaMessage('midi_port', port=0, time=0)\n",
      "MetaMessage('track_name', name='you by: TCW', time=0)\n",
      "MetaMessage('end_of_track', time=0)\n",
      "Track 16: twalla@primenet.com\n",
      "MetaMessage('midi_port', port=0, time=0)\n",
      "MetaMessage('track_name', name='twalla@primenet.com', time=0)\n",
      "MetaMessage('end_of_track', time=0)\n"
     ]
    }
   ],
   "source": [
    "for i, track in enumerate(mid.tracks):\n",
    "    print('Track {}: {}'.format(i, track.name))\n",
    "    for msg in track:\n",
    "        print(msg)"
   ]
  },
  {
   "cell_type": "code",
   "execution_count": 11,
   "id": "daf5cb2e",
   "metadata": {},
   "outputs": [
    {
     "name": "stdout",
     "output_type": "stream",
     "text": [
      "MetaMessage('midi_port', port=0, time=0)\n",
      "FF 21 01 00\n",
      "MetaMessage('track_name', name='Synth Voice', time=0)\n",
      "FF 03 0B 53 79 6E 74 68 20 56 6F 69 63 65\n",
      "control_change channel=4 control=0 value=0 time=0\n",
      "B4 00 00\n",
      "program_change channel=4 program=54 time=0\n",
      "C4 36\n",
      "control_change channel=4 control=7 value=80 time=0\n",
      "B4 07 50\n",
      "control_change channel=4 control=10 value=63 time=0\n",
      "B4 0A 3F\n",
      "note_on channel=4 note=68 velocity=49 time=57082\n",
      "94 44 31\n",
      "note_on channel=4 note=68 velocity=0 time=146\n",
      "94 44 00\n",
      "note_on channel=4 note=68 velocity=77 time=24\n",
      "94 44 4D\n",
      "note_on channel=4 note=70 velocity=68 time=281\n",
      "94 46 44\n"
     ]
    }
   ],
   "source": [
    "for i, track in enumerate(mid.tracks):\n",
    "    if track.name == \"Synth Voice\":\n",
    "        i = 0\n",
    "        for msg in track:\n",
    "            if(i < 10):\n",
    "                print(msg)\n",
    "                print(msg.hex())\n",
    "                i = i + 1"
   ]
  },
  {
   "cell_type": "code",
   "execution_count": 23,
   "id": "3468c722",
   "metadata": {},
   "outputs": [
    {
     "name": "stdout",
     "output_type": "stream",
     "text": [
      "note_on channel=0 note=76 velocity=82 time=0\n",
      "90 4C 52\n",
      "note_off channel=0 note=76 velocity=64 time=0\n",
      "80 4C 40\n",
      "note_on channel=0 note=78 velocity=70 time=0\n",
      "90 4E 46\n",
      "note_off channel=0 note=78 velocity=64 time=0\n",
      "80 4E 40\n",
      "note_on channel=0 note=80 velocity=64 time=4\n",
      "90 50 40\n",
      "note_on channel=0 note=81 velocity=65 time=1\n",
      "90 51 41\n",
      "note_off channel=0 note=81 velocity=64 time=1\n",
      "80 51 40\n",
      "note_on channel=0 note=78 velocity=54 time=1\n",
      "90 4E 36\n",
      "note_off channel=0 note=80 velocity=64 time=2\n",
      "80 50 40\n",
      "note_on channel=0 note=76 velocity=64 time=3\n",
      "90 4C 40\n",
      "note_off channel=0 note=78 velocity=64 time=4\n",
      "80 4E 40\n",
      "note_on channel=0 note=78 velocity=52 time=19\n",
      "90 4E 34\n",
      "note_off channel=0 note=76 velocity=64 time=0\n",
      "80 4C 40\n",
      "note_on channel=0 note=83 velocity=54 time=4\n",
      "90 53 36\n",
      "note_off channel=0 note=78 velocity=64 time=2\n",
      "80 4E 40\n",
      "note_off channel=0 note=83 velocity=64 time=62\n",
      "80 53 40\n",
      "note_on channel=0 note=81 velocity=62 time=0\n",
      "90 51 3E\n",
      "note_on channel=0 note=80 velocity=53 time=6\n",
      "90 50 35\n",
      "note_off channel=0 note=81 velocity=64 time=6\n",
      "80 51 40\n",
      "note_on channel=0 note=78 velocity=62 time=3\n",
      "90 4E 3E\n",
      "note_off channel=0 note=80 velocity=64 time=5\n",
      "80 50 40\n",
      "note_off channel=0 note=78 velocity=64 time=7\n",
      "80 4E 40\n",
      "note_on channel=0 note=76 velocity=56 time=3\n",
      "90 4C 38\n",
      "note_on channel=0 note=73 velocity=49 time=50\n",
      "90 49 31\n",
      "note_off channel=0 note=76 velocity=64 time=6\n",
      "80 4C 40\n",
      "note_on channel=0 note=69 velocity=49 time=0\n",
      "90 45 31\n",
      "note_off channel=0 note=73 velocity=64 time=6\n",
      "80 49 40\n",
      "note_on channel=0 note=71 velocity=61 time=0\n",
      "90 47 3D\n",
      "note_off channel=0 note=69 velocity=64 time=6\n",
      "80 45 40\n",
      "note_off channel=0 note=71 velocity=64 time=95\n",
      "80 47 40\n",
      "note_on channel=0 note=76 velocity=61 time=0\n",
      "90 4C 3D\n",
      "note_on channel=0 note=78 velocity=55 time=19\n",
      "90 4E 37\n",
      "note_off channel=0 note=76 velocity=64 time=7\n",
      "80 4C 40\n",
      "note_off channel=0 note=78 velocity=64 time=0\n",
      "80 4E 40\n",
      "note_on channel=0 note=80 velocity=58 time=2\n",
      "90 50 3A\n",
      "note_off channel=0 note=80 velocity=64 time=0\n",
      "80 50 40\n",
      "note_on channel=0 note=81 velocity=64 time=1\n",
      "90 51 40\n",
      "note_on channel=0 note=80 velocity=55 time=0\n",
      "90 50 37\n",
      "note_off channel=0 note=81 velocity=64 time=5\n",
      "80 51 40\n",
      "note_on channel=0 note=78 velocity=56 time=0\n",
      "90 4E 38\n",
      "note_off channel=0 note=80 velocity=64 time=0\n",
      "80 50 40\n",
      "note_on channel=0 note=76 velocity=56 time=9\n",
      "90 4C 38\n",
      "note_off channel=0 note=78 velocity=64 time=1\n",
      "80 4E 40\n",
      "note_on channel=0 note=78 velocity=55 time=1\n",
      "90 4E 37\n",
      "note_off channel=0 note=76 velocity=64 time=3\n",
      "80 4C 40\n",
      "note_on channel=0 note=83 velocity=68 time=24\n",
      "90 53 44\n",
      "note_off channel=0 note=78 velocity=64 time=7\n",
      "80 4E 40\n",
      "note_on channel=0 note=80 velocity=56 time=0\n",
      "90 50 38\n",
      "note_off channel=0 note=83 velocity=64 time=0\n",
      "80 53 40\n"
     ]
    }
   ],
   "source": [
    "pan_flute = MidiFile(\"samples\\\\Pan Flute 3.mid\")\n",
    "for i, track in enumerate(pan_flute.tracks):\n",
    "    i = 0\n",
    "    for msg in track:\n",
    "        i = i + 1\n",
    "        if(i < 500):\n",
    "            if(msg.type == 'note_on' or msg.type == 'note_off'):\n",
    "                print(msg)\n",
    "                print(msg.hex())\n",
    "        "
   ]
  }
 ],
 "metadata": {
  "kernelspec": {
   "display_name": "Python 3.9.6 64-bit",
   "language": "python",
   "name": "python3"
  },
  "language_info": {
   "codemirror_mode": {
    "name": "ipython",
    "version": 3
   },
   "file_extension": ".py",
   "mimetype": "text/x-python",
   "name": "python",
   "nbconvert_exporter": "python",
   "pygments_lexer": "ipython3",
   "version": "3.9.6"
  },
  "vscode": {
   "interpreter": {
    "hash": "31f2aee4e71d21fbe5cf8b01ff0e069b9275f58929596ceb00d14d90e3e16cd6"
   }
  }
 },
 "nbformat": 4,
 "nbformat_minor": 5
}
